<?xml version="1.0" encoding="UTF-8" standalone="no"?>
<!-- Created with Inkscape (http://www.inkscape.org/) -->

<svg
   width="2495.8013"
   height="850.24243"
   viewBox="0 0 660.34741 224.95996"
   version="1.1"
   id="svg1"
   sodipodi:docname="AboutMe_FooterDecor.svg"
   xml:space="preserve"
   inkscape:version="1.3 (0e150ed6c4, 2023-07-21)"
   xmlns:inkscape="http://www.inkscape.org/namespaces/inkscape"
   xmlns:sodipodi="http://sodipodi.sourceforge.net/DTD/sodipodi-0.dtd"
   xmlns="http://www.w3.org/2000/svg"
   xmlns:svg="http://www.w3.org/2000/svg"><sodipodi:namedview
     id="namedview1"
     pagecolor="#505050"
     bordercolor="#000000"
     borderopacity="1"
     inkscape:showpageshadow="0"
     inkscape:pageopacity="0"
     inkscape:pagecheckerboard="0"
     inkscape:deskcolor="#747474"
     inkscape:document-units="mm"
     inkscape:zoom="0.45254834"
     inkscape:cx="1462.8272"
     inkscape:cy="873.93979"
     inkscape:window-width="1920"
     inkscape:window-height="1009"
     inkscape:window-x="-8"
     inkscape:window-y="-8"
     inkscape:window-maximized="1"
     inkscape:current-layer="layer1" /><defs
     id="defs1"><filter
       inkscape:collect="always"
       style="color-interpolation-filters:sRGB"
       id="filter2"
       x="-0.1323859"
       y="-0.34928483"
       width="1.2647718"
       height="1.6985697"><feGaussianBlur
         inkscape:collect="always"
         stdDeviation="14.983641"
         id="feGaussianBlur2" /></filter><filter
       inkscape:collect="always"
       style="color-interpolation-filters:sRGB"
       id="filter3"
       x="-0.13025311"
       y="-0.36505588"
       width="1.2605062"
       height="1.7301118"><feGaussianBlur
         inkscape:collect="always"
         stdDeviation="20.997903"
         id="feGaussianBlur3" /></filter><filter
       inkscape:collect="always"
       style="color-interpolation-filters:sRGB"
       id="filter4"
       x="-0.12849849"
       y="-0.37958238"
       width="1.256997"
       height="1.7591648"><feGaussianBlur
         inkscape:collect="always"
         stdDeviation="29.549444"
         id="feGaussianBlur4" /></filter><filter
       inkscape:collect="always"
       style="color-interpolation-filters:sRGB"
       id="filter5"
       x="-0.037973195"
       y="-0.11567956"
       width="1.0759464"
       height="1.2313591"><feGaussianBlur
         inkscape:collect="always"
         stdDeviation="8.546538"
         id="feGaussianBlur5" /></filter><filter
       inkscape:collect="always"
       style="color-interpolation-filters:sRGB"
       id="filter3-2"
       x="-0.062232212"
       y="-0.22800027"
       width="1.1244644"
       height="1.4560005"><feGaussianBlur
         inkscape:collect="always"
         stdDeviation="12.822991"
         id="feGaussianBlur3-8" /></filter></defs><g
     inkscape:label="Слой 1"
     inkscape:groupmode="layer"
     id="layer1"
     transform="translate(-4835.5934,-6988.3216)"><path
       id="path5"
       style="fill:#87aba6;fill-opacity:1;stroke:#000000;stroke-width:2.16958;stroke-linecap:square;stroke-linejoin:miter;stroke-miterlimit:4.7;stroke-dasharray:none;stroke-opacity:1"
       d="m 5066.0504,7793.0804 c -124.7505,-0.1233 -225.4991,98.5871 -229.34,222.7864 h 658.1081 c -4.4154,-123.9024 -105.2296,-222.4664 -229.7627,-222.5895 z" /><path
       id="path6"
       style="fill:#9eb8b4;fill-opacity:1;stroke:none;stroke-width:2.16958;stroke-linecap:square;stroke-linejoin:miter;stroke-miterlimit:4.7;stroke-dasharray:none;stroke-opacity:1;filter:url(#filter4)"
       d="m 5082.1423,7830.1203 c -104.6183,-0.1038 -189.1081,82.6772 -192.329,186.8333 h 551.9027 c -3.7029,-103.9071 -88.2478,-186.5648 -192.6837,-186.6681 z" /><path
       id="path7"
       style="fill:#a7c2be;fill-opacity:1;stroke:#000000;stroke-width:2.16958;stroke-linecap:square;stroke-linejoin:miter;stroke-miterlimit:4.7;stroke-dasharray:none;stroke-opacity:1"
       d="m 5265.3282,7838.072 c -14.4162,0.1457 -29.0588,2.0941 -43.6521,6.0048 l -147.513,39.5303 c -65.6354,17.5889 -112.2395,70.0714 -125.4543,132.2597 h 498.3241 c -0.9998,-6.9561 -2.3709,-13.9292 -4.237,-20.8943 l -7.1752,-26.7814 c -21.2014,-79.1337 -92.4448,-130.9063 -170.2925,-130.1191 z" /><path
       id="path8"
       style="fill:#c2d6d0;fill-opacity:1;stroke:none;stroke-width:2.16958;stroke-linecap:square;stroke-linejoin:miter;stroke-miterlimit:4.7;stroke-dasharray:none;stroke-opacity:1;filter:url(#filter3)"
       d="m 5250.2449,7877.8263 c -11.1927,0.1131 -22.5613,1.6259 -33.8916,4.6621 l -114.5295,30.6915 c -50.9596,13.6561 -87.1431,54.4036 -97.4031,102.6868 h 386.9003 c -0.7762,-5.4007 -1.8407,-10.8147 -3.2896,-16.2224 l -5.5708,-20.7931 c -16.4609,-61.4397 -71.7745,-101.6361 -132.2157,-101.0249 z" /><path
       id="path14"
       style="fill:#ccdbd9;fill-opacity:1;stroke:#000000;stroke-width:2.16959;stroke-linecap:square;stroke-linejoin:miter;stroke-miterlimit:4.7;stroke-dasharray:none;stroke-opacity:1"
       d="m 5293.418,7893.0639 c -20.7733,-0.4764 -41.9452,4.5821 -61.3105,15.7706 l -89.7129,51.8325 c -22.8092,13.1782 -39.5061,32.7823 -49.1422,55.1997 h 324.082 c -1.6111,-16.2399 -6.603,-32.4339 -15.3205,-47.5438 l -9.3183,-16.1514 c -21.4135,-37.1157 -59.6196,-58.198 -99.2776,-59.1076 z" /><path
       id="path15"
       style="fill:#e1eae7;fill-opacity:1;stroke:none;stroke-width:2.5178;stroke-linecap:square;stroke-linejoin:miter;stroke-miterlimit:4.7;stroke-dasharray:none;stroke-opacity:1;filter:url(#filter2)"
       d="m 5287.2483,7109.2652 c -17.4116,-0.3993 -35.1572,3.8405 -51.3886,13.2183 l -75.1947,43.4446 c -19.118,11.0455 -33.1127,27.4771 -41.1895,46.2667 h 271.6357 c -1.3503,-13.6118 -5.5344,-27.1851 -12.8411,-39.8498 l -7.8103,-13.5376 c -17.9481,-31.1093 -49.9713,-48.7799 -83.2115,-49.5422 z"
       transform="matrix(0.86169964,0,0,0.86169964,726.80901,1801.121)" /><path
       style="fill:#6c9d96;fill-opacity:1;stroke:#517b75;stroke-width:5.61378;stroke-linecap:butt;stroke-linejoin:miter;stroke-dasharray:none;stroke-opacity:1"
       d="m 5442.7743,7214.7728 c 0,0 29.1272,-114.8348 -8.641,-145.3862 -25.2392,-20.4164 -69.819,33.2948 -96.3327,14.5596 -14.0861,-9.9538 5.526,-42.7542 -9.7412,-50.7846 -23.7059,-12.469 -46.9126,30.3533 -73.6424,32.1641 -46.5646,3.1543 -92.6776,-58.5324 -134.6864,-38.2186 -15.6185,7.5525 -4.4162,40.2386 -19.9068,48.0497 -37.0991,18.7063 -72.5077,-50.1872 -111.5851,-42.5674 -24.2291,4.7249 -29.7418,46.9771 -54.1711,50.4486 -13.1033,1.8621 -20.6433,-13.2092 -35.4435,-17.894 -53.7412,-17.0106 -4.0064,149.6288 -4.0064,149.6288"
       id="path2"
       sodipodi:nodetypes="caaaaasaasc" /><path
       style="fill:#8cb3ae;fill-opacity:1;stroke:none;stroke-width:25;stroke-linecap:round;stroke-linejoin:round;stroke-miterlimit:4.7;filter:url(#filter5)"
       d="m 304.27143,175.63748 c -10.33244,-2.26518 -19.49137,-6.44374 -43.19197,-19.70543 -25.95357,-14.52233 -41.89896,-19.93667 -56.07642,-19.04104 -10.27289,0.64897 -17.44595,4.31789 -34.355,17.57212 -17.96186,14.07947 -26.02533,17.22726 -33.87349,13.22343 -4.82551,-2.4618 -5.57884,-5.87586 -4.27184,-19.35986 0.51538,-5.31712 0.93062,-11.39132 0.92275,-13.49823 -0.0316,-8.46005 -3.02773,-13.65071 -9.8054,-16.98735 -3.20411,-1.57738 -4.32352,-1.82676 -9.05246,-2.0167 -9.43447,-0.37893 -15.058529,1.32383 -34.590232,10.47267 -20.700701,9.69642 -25.45639,11.26168 -33.103015,10.89535 -5.464887,-0.2618 -8.631655,-1.7309 -12.748726,-5.91428 C 27.999017,125.05288 23.626088,114.84447 21.195862,101.09417 19.709867,92.686375 19.153017,70.116664 20.129298,57.865266 21.54977,40.039699 25.634067,14.109039 29.047787,1.2429611 l 0.549652,-2.07160186 h 5.83908 5.83908 l -0.3254,1.29649879 C 40.122474,3.7657802 37.757378,18.535491 36.778992,26.516504 c -4.945885,40.345177 -1.273111,67.975385 10.641027,80.052276 4.322082,4.38112 8.450224,6.45665 13.570673,6.82302 9.809792,0.70189 16.80186,-5.57094 27.064614,-24.280596 11.484431,-20.936857 14.069754,-25.027801 18.804484,-29.755733 3.99243,-3.986701 7.12682,-5.493822 11.42557,-5.493822 4.77202,0 8.46324,1.963194 11.53386,6.13434 3.83563,5.210338 5.93025,10.995488 11.08001,30.602068 5.07221,19.311303 10.70182,28.275903 19.94344,31.757913 2.68848,1.01295 4.07193,1.18065 8.27474,1.00304 8.64216,-0.36522 13.45411,-3.41992 29.96165,-19.02014 9.51102,-8.988249 13.7383,-12.155861 18.72334,-14.029893 4.12054,-1.549034 9.18225,-1.342614 13.11216,0.534727 4.19427,2.003626 10.88213,9.133444 15.74417,16.784606 11.04907,17.38738 13.72015,21.14292 17.74842,24.95421 5.34776,5.05971 9.3097,7.00815 14.92957,7.34222 5.23796,0.31137 8.97568,-0.52356 14.00211,-3.12778 9.29061,-4.81353 16.38205,-14.96273 27.06848,-38.740126 7.74362,-17.229651 12.97946,-25.953586 18.96585,-31.600839 14.71923,-13.885373 31.69007,-8.695392 55.51927,16.978766 3.39333,3.656057 9.72629,10.516495 14.07324,15.245416 14.44118,15.710153 23.55067,22.729183 32.53589,25.069533 10.01905,2.60963 20.9042,-1.49347 24.73522,-9.32382 3.73306,-7.63008 1.93355,-17.468629 -6.73264,-36.809872 C 450.05486,56.527061 448.21278,51.702657 447.20785,45.412026 445.9207,37.3548 449.7954,32.31699 457.27954,32.31699 c 7.99744,0 14.3291,8.279465 27.5269,35.994961 11.29233,23.714019 16.75442,32.383019 23.62164,37.490429 11.02284,8.1981 25.35196,2.3297 30.48842,-12.486332 5.42315,-15.642964 2.62098,-42.154311 -8.274,-78.280483 -1.49434,-4.955028 -3.23235,-10.3650866 -3.86224,-12.0223532 -0.62989,-1.6572665 -1.14537,-3.19965597 -1.14553,-3.42753218 -1.5e-4,-0.22787621 3.3174,-0.41432038 7.37234,-0.41432038 h 7.37262 l 1.24565,4.28131056 c 6.72125,23.1010722 14.04745,57.6052332 16.9199,79.6876202 1.20661,9.27592 1.68244,30.56607 0.81564,36.49415 -2.05621,14.06248 -6.9384,19.63394 -15.9235,18.17157 -4.56927,-0.74367 -9.05559,-3.11738 -16.69807,-8.83495 -3.79794,-2.84135 -8.35674,-5.8939 -10.13066,-6.78344 -6.2675,-3.14287 -14.1236,-2.45589 -20.6831,1.80864 -5.11364,3.32453 -10.36039,9.47886 -18.48609,21.68382 -11.51165,17.29074 -16.58946,21.66035 -25.99782,22.3719 -11.27381,0.85264 -21.2521,-3.7914 -42.79261,-19.91629 -19.59588,-14.66916 -26.94741,-19.15587 -36.0369,-21.99363 -5.75689,-1.79732 -14.70949,-1.79821 -19.79275,-0.002 -4.67737,1.6528 -7.49728,3.50868 -9.4708,6.23306 -3.14486,4.34134 -4.10852,8.12301 -6.35908,24.95464 -1.39389,10.42471 -3.06403,13.66975 -8.41605,16.35213 -5.46402,2.73852 -16.63512,3.63836 -24.30202,1.95756 z"
       id="path5-5"
       transform="matrix(-1.060869,0,0,-1.060869,5470.9837,7213.5736)" /><path
       style="fill:#8bb1ac;fill-opacity:1;stroke:#c2d6d3;stroke-width:5.61378;stroke-linecap:butt;stroke-linejoin:miter;stroke-dasharray:none;stroke-opacity:1"
       d="m 5424.0304,7214.7728 c 0,0 23.239,-104.2254 -13.937,-117.7626 -28.6918,-10.4478 -36.5024,66.6116 -66.7828,62.6522 -28.707,-3.7539 -17.8831,-66.2949 -45.8769,-73.6741 -24.2924,-6.4042 -41.2654,39.0076 -66.2066,35.9859 -26.5327,-3.2144 -32.5458,-55.5423 -59.2276,-53.9906 -37.8344,2.2009 -37.1415,79.5377 -74.5221,85.7782 -43.1214,7.1988 -76.6724,-89.1811 -113.5049,-65.6525 -26.2595,16.7749 36.8513,79.8962 8.5842,93.0172 -33.7644,15.673 -44.1312,-94.022 -78.397,-79.4752 -34.7511,14.7524 2.9037,113.1215 2.9037,113.1215"
       id="path1"
       sodipodi:nodetypes="caaaaaaaaac" /><path
       style="fill:#9abcb7;fill-opacity:1;stroke:#517b75;stroke-width:5.61378;stroke-linecap:butt;stroke-linejoin:miter;stroke-dasharray:none;stroke-opacity:1"
       d="m 5356.2776,7214.7728 c 0,0 -10.3115,-34.3649 -25.0483,-39.3792 -18.6081,-6.3312 -36.2494,24.3778 -55.4353,20.0999 -21.8246,-4.8659 -24.987,-46.9609 -47.3423,-47.4802 -21.6434,-0.5028 -26.2792,43.352 -47.9238,43.7882 -18.258,0.369 -23.6285,-34.8156 -41.8841,-35.277 -21.4834,-0.5434 -30.49,33.7241 -51.3287,38.969 -19.6177,4.9375 -39.9936,-12.7364 -59.9521,-9.4345 -11.5973,1.9186 -19.6923,14.048 -31.2077,16.408 -13.4514,2.7563 -31.5675,-13.1903 -41.063,-3.2818 -3.8424,4.01 2.0529,16.5255 2.0529,16.5255"
       id="path17"
       sodipodi:nodetypes="caaaaaaaaac" /><path
       style="fill:#a5c3bf;fill-opacity:1;stroke:none;stroke-width:25;stroke-linecap:round;stroke-linejoin:round;stroke-miterlimit:4.7;filter:url(#filter3-2)"
       d="m 5182.6331,241.79876 c -4.4096,-2.39668 -10.6069,-9.86228 -17.8643,-21.52046 -10.8872,-17.48909 -16.6778,-23.56506 -25.2226,-26.46564 -7.096,-2.40879 -14.111,-1.11818 -22.1445,4.07414 -2.5703,1.66125 -9.4631,7.55467 -15.3173,13.09648 -12.7656,12.08434 -17.6935,15.32549 -23.9943,15.78124 -3.4255,0.24778 -5.1925,-0.0513 -7.6203,-1.28987 -6.8082,-3.47326 -10.1881,-9.94965 -15.7619,-30.20147 -6.176,-22.43997 -8.6962,-28.06397 -14.9905,-33.4516 -4.3097,-3.68899 -7.5099,-4.6688 -14.043,-4.29965 -4.7219,0.26681 -5.8902,0.67096 -9.8413,3.40444 -5.8672,4.05899 -10.9193,10.8507 -18.9717,25.50404 -14.0239,25.51994 -18.1377,30.33203 -25.9305,30.33203 -15.1343,0 -23.4821,-24.58799 -21.0197,-61.91262 0.8251,-12.50585 3.5805,-33.86395 5.4932,-42.57957 l 0.9001,-4.10156 h 29.0659 c 28.3881,0 29.0686,0.036 29.1822,1.54374 0.2053,2.72533 6.4351,17.41998 9.7782,23.06427 4.0987,6.92022 9.4652,12.71125 13.4849,14.55179 1.9506,0.89316 4.9664,1.43733 8.025,1.44804 6.2,0.0217 11.5705,-2.3198 23.169,-10.10154 10.9234,-7.32881 15.4081,-9.39525 20.4109,-9.40492 7.7534,-0.015 13.0465,5.17294 22.9599,22.5037 9.6062,16.79384 15.6055,22.01992 25.2778,22.01992 9.2697,0 14.8999,-4.78992 25.0205,-21.28625 9.3709,-15.27447 13.7217,-19.33875 20.702,-19.33875 4.5675,0 8.7068,3.55073 15.4826,13.28125 8.4062,12.07183 11.6314,15.54306 16.5214,17.7818 3.537,1.61927 5.0696,1.88325 9.0697,1.56217 8.682,-0.69691 14.7725,-5.26168 27.5468,-20.64609 12.7475,-15.35216 20.0571,-18.68816 33.8613,-15.45366 2.7929,0.65443 9.2968,2.5533 14.4531,4.21971 22.1928,7.17231 28.5732,6.55663 44.1038,-4.25584 11.7759,-8.19842 14.0642,-8.50571 28.9431,-3.88673 13.7577,4.27092 20.8917,3.87425 24.5619,-1.36573 1.5477,-2.20968 1.5889,-8.74281 0.082,-13.01366 l -1.1372,-3.22322 h 15.8508 c 12.1509,0 15.8546,0.22795 15.8674,0.97656 0.01,0.53711 1.7954,6.4445 3.9693,13.12754 8.427,25.90529 11.4112,41.57699 11.4471,60.11465 0.024,12.55747 -0.1231,14.04636 -1.8081,18.26627 -3.4095,8.5387 -9.1364,12.87054 -15.8286,11.97292 -7.4764,-1.0028 -12.6259,-7.97058 -26.1012,-35.31732 -5.7168,-11.60156 -11.8576,-23.3789 -13.6463,-26.17187 -9.782,-15.27438 -20.8698,-19.51055 -31.1235,-11.89091 -3.9746,2.9536 -5.8475,7.8886 -5.3785,14.17248 0.4922,6.59378 2.9035,13.62846 10.6218,30.98776 7.7648,17.46368 9.6007,22.80885 10.0399,29.23067 0.2743,4.01137 0.031,5.64843 -1.1562,7.79303 -2.1689,3.91656 -7.052,6.27135 -12.9851,6.26183 -9.0952,-0.0146 -17.0731,-5.41864 -32.6736,-22.13239 -27.3332,-29.28365 -37.0008,-37.60024 -47.6778,-41.01474 -7.2404,-2.3155 -10.2161,-2.63338 -15.5675,-1.66299 -14.5619,2.64057 -22.6853,11.83323 -36.5073,41.31257 -4.2926,9.15529 -9.2948,19.15609 -11.116,22.22401 -3.8721,6.523 -9.9208,12.82481 -14.3428,14.94318 -4.5663,2.18748 -12.5034,2.40256 -16.1201,0.43682 z"
       id="path3"
       transform="matrix(-1.060869,0,0,-1.060869,10678.833,7332.3856)" /></g></svg>
