<?xml version="1.0" encoding="UTF-8" standalone="no"?>
<!-- Created with Inkscape (http://www.inkscape.org/) -->

<svg
   width="1828.804"
   height="1571.278"
   viewBox="0 0 1828.8039 1571.278"
   version="1.1"
   id="svg1"
   sodipodi:docname="AboutMe_Skills.svg"
   xml:space="preserve"
   inkscape:version="1.3 (0e150ed6c4, 2023-07-21)"
   xmlns:inkscape="http://www.inkscape.org/namespaces/inkscape"
   xmlns:sodipodi="http://sodipodi.sourceforge.net/DTD/sodipodi-0.dtd"
   xmlns="http://www.w3.org/2000/svg"
   xmlns:svg="http://www.w3.org/2000/svg"><sodipodi:namedview
     id="namedview1"
     pagecolor="#505050"
     bordercolor="#000000"
     borderopacity="1"
     inkscape:showpageshadow="0"
     inkscape:pageopacity="0"
     inkscape:pagecheckerboard="0"
     inkscape:deskcolor="#747474"
     inkscape:document-units="px"
     inkscape:zoom="0.11313708"
     inkscape:cx="1993.1574"
     inkscape:cy="446.36118"
     inkscape:window-width="1920"
     inkscape:window-height="1009"
     inkscape:window-x="-8"
     inkscape:window-y="-8"
     inkscape:window-maximized="1"
     inkscape:current-layer="layer1" /><defs
     id="defs1"><inkscape:path-effect
       effect="bend_path"
       id="path-effect20"
       is_visible="true"
       lpeversion="1"
       bendpath="m 3775.4304,4716.5928 c 53.4696,-34.1381 126.3992,-61.855 206.4018,-58.148 56.8092,2.6323 120.2457,46.1436 208.0793,49.9842 81.8335,3.5783 215.7812,-77.3176 374.0444,-66.5762"
       prop_scale="1"
       scale_y_rel="false"
       vertical="false"
       hide_knot="false"
       bendpath-nodetypes="cssc" /><inkscape:path-effect
       effect="skeletal"
       id="path-effect19"
       is_visible="true"
       lpeversion="1"
       pattern="M 0,0 H 1"
       copytype="single_stretched"
       prop_scale="1"
       scale_y_rel="false"
       spacing="0"
       normal_offset="0"
       tang_offset="0"
       prop_units="false"
       vertical_pattern="false"
       hide_knot="false"
       fuse_tolerance="0" /><inkscape:path-effect
       effect="simplify"
       id="path-effect18"
       is_visible="true"
       lpeversion="1.3"
       threshold="5"
       steps="1"
       smooth_angles="360"
       helper_size="10"
       simplify_individual_paths="false"
       simplify_just_coalesce="false" /><inkscape:path-effect
       effect="interpolate_points"
       id="path-effect17"
       is_visible="true"
       lpeversion="1"
       interpolator_type="CentripetalCatmullRom" /><inkscape:path-effect
       effect="attach_path"
       id="path-effect16"
       is_visible="true"
       lpeversion="1"
       startpath=""
       startposition="0"
       startcurvestart="0,0 , 20,0"
       startcurveend="0,0 , 20,0"
       endpath=""
       endposition="0"
       endcurvestart="0,0 , 20,0"
       endcurveend="0,0 , 20,0" /><inkscape:path-effect
       effect="rough_hatches"
       id="path-effect15"
       is_visible="true"
       lpeversion="1.2"
       direction="4156.4475,4698.7883 , 191.44193,0"
       dist_rdm="75;1"
       growth="0"
       do_bend="true"
       bender="4156.4475,4703.7883 , 5,0"
       bottom_edge_variation="5.30105;1"
       top_edge_variation="5.30105;1"
       bottom_tgt_variation="0;1"
       top_tgt_variation="0;1"
       scale_bf="1"
       scale_bb="1"
       scale_tf="1"
       scale_tb="1"
       top_smth_variation="0;1"
       bottom_smth_variation="0;1"
       fat_output="true"
       stroke_width_top="1"
       stroke_width_bottom="1"
       front_thickness="1"
       back_thickness="0.25" /><inkscape:path-effect
       effect="bend_path"
       id="path-effect14"
       is_visible="true"
       lpeversion="1"
       bendpath="m 3773.5636,4703.7883 c 143.9373,-120.0452 299.8295,65.0027 765.7677,0"
       prop_scale="1"
       scale_y_rel="false"
       vertical="false"
       hide_knot="false"
       bendpath-nodetypes="cc" /><inkscape:path-effect
       effect="spiro"
       id="path-effect24"
       is_visible="true"
       lpeversion="1" /><inkscape:path-effect
       effect="spiro"
       id="path-effect22"
       is_visible="true"
       lpeversion="1" /><inkscape:path-effect
       effect="spiro"
       id="path-effect8"
       is_visible="true"
       lpeversion="1" /><inkscape:path-effect
       effect="spiro"
       id="path-effect11"
       is_visible="true"
       lpeversion="1" /><inkscape:path-effect
       effect="spiro"
       id="path-effect10"
       is_visible="true"
       lpeversion="1" /><inkscape:path-effect
       effect="spiro"
       id="path-effect11-7"
       is_visible="true"
       lpeversion="1" /><filter
       inkscape:collect="always"
       style="color-interpolation-filters:sRGB"
       id="filter55"
       x="-0.017616458"
       y="-0.30451286"
       width="1.0352329"
       height="1.6089012"><feGaussianBlur
         inkscape:collect="always"
         stdDeviation="7.1970253"
         id="feGaussianBlur55" /></filter><filter
       inkscape:collect="always"
       style="color-interpolation-filters:sRGB"
       id="filter56"
       x="-0.026263443"
       y="-0.30439542"
       width="1.0525269"
       height="1.6087839"><feGaussianBlur
         inkscape:collect="always"
         stdDeviation="7.1970253"
         id="feGaussianBlur56" /></filter><filter
       inkscape:collect="always"
       style="color-interpolation-filters:sRGB"
       id="filter57"
       x="-0.026187722"
       y="-0.30439554"
       width="1.0523754"
       height="1.6087839"><feGaussianBlur
         inkscape:collect="always"
         stdDeviation="7.1970253"
         id="feGaussianBlur57" /></filter><filter
       inkscape:collect="always"
       style="color-interpolation-filters:sRGB"
       id="filter58"
       x="-0.015489551"
       y="-0.30451286"
       width="1.0309791"
       height="1.6089012"><feGaussianBlur
         inkscape:collect="always"
         stdDeviation="7.1970253"
         id="feGaussianBlur58" /></filter><filter
       inkscape:collect="always"
       style="color-interpolation-filters:sRGB"
       id="filter59"
       x="-0.023142811"
       y="-0.3044141"
       width="1.0462856"
       height="1.6088025"><feGaussianBlur
         inkscape:collect="always"
         stdDeviation="7.1970253"
         id="feGaussianBlur59" /></filter><filter
       inkscape:collect="always"
       style="color-interpolation-filters:sRGB"
       id="filter60"
       x="-0.020876529"
       y="-0.30444053"
       width="1.0417531"
       height="1.6088289"><feGaussianBlur
         inkscape:collect="always"
         stdDeviation="7.1970253"
         id="feGaussianBlur60" /></filter><filter
       inkscape:collect="always"
       style="color-interpolation-filters:sRGB"
       id="filter61"
       x="-0.015489551"
       y="-0.30451286"
       width="1.0309791"
       height="1.6089012"><feGaussianBlur
         inkscape:collect="always"
         stdDeviation="7.1970253"
         id="feGaussianBlur61" /></filter></defs><g
     inkscape:label="Слой 1"
     inkscape:groupmode="layer"
     id="layer1"
     transform="translate(-3669.9721,-4522.6865)"><g
       id="g66"
       transform="matrix(0.9987407,0,0,0.99873083,-1.0698175,12.915176)"
       style="stroke-width:1.00127"><path
         style="fill:none;stroke:#a8c2be;stroke-width:20.0253;stroke-linecap:round;stroke-linejoin:round;stroke-dasharray:none;stroke-opacity:0.25"
         d="m 3742.7579,4930.8501 c 0,0 103.9269,-58.5039 161.5419,-62.8385 82.8229,-6.231 160.065,54.7005 243.1219,54.5703 106.8474,-0.1675 205.903,-64.4643 312.5391,-71.1816 230.5107,-14.5205 458.9234,55.708 689.5703,67.8743 158.9915,8.3866 300.0683,18.5984 347.2367,-23.4966"
         id="path33"
         sodipodi:nodetypes="caaasc" /><path
         style="fill:none;stroke:#a6c4bf;stroke-width:40.0506;stroke-linecap:round;stroke-linejoin:round;stroke-dasharray:none;stroke-opacity:1"
         d="m 3742.7579,4930.8501 c 0,0 103.9269,-58.5039 161.5419,-62.8385 82.8229,-6.231 160.065,54.7005 243.1219,54.5703 106.8474,-0.1675 205.903,-64.4643 312.5391,-71.1816 158.4114,-9.9788 315.8321,20.0669 473.6679,43.7872"
         id="path43"
         sodipodi:nodetypes="caasc" /><path
         style="fill:none;stroke:#e0ebe9;stroke-width:15.019;stroke-linecap:round;stroke-linejoin:round;stroke-dasharray:none;stroke-opacity:1;filter:url(#filter60)"
         d="m 3742.7579,4924.5083 c 0,0 103.9269,-58.5039 161.5419,-62.8385 82.8229,-6.231 160.065,54.7005 243.1219,54.5703 106.8474,-0.1675 205.903,-64.4643 312.5391,-71.1816 157.1472,-9.8991 313.3194,19.5899 469.8891,43.2181"
         id="path34"
         sodipodi:nodetypes="caasc" /></g><circle
       style="fill:#e0ebe9;fill-opacity:1;stroke:none;stroke-width:15;stroke-linecap:round;stroke-linejoin:round;stroke-miterlimit:4.7;stroke-dasharray:none;stroke-opacity:1"
       id="circle95"
       cx="4489.5376"
       cy="4727.3662"
       r="23.501314" /><path
       id="path24"
       style="color:#000000;fill:#a8c2be;fill-opacity:0.1;stroke-width:0.999997;-inkscape-stroke:none"
       d="m 4580.2426,2525.1363 c -6.7249,0 -13.4085,2.7684 -18.1637,7.5236 -4.7553,4.7552 -7.5236,11.4388 -7.5236,18.1637 v 1404.4885 c 0,6.7248 2.7683,13.4085 7.5236,18.1637 4.7552,4.7552 11.4388,7.5236 18.1637,7.5236 6.7249,0 13.408,-2.7684 18.1632,-7.5236 4.7552,-4.7552 7.5236,-11.4389 7.5236,-18.1637 V 2550.8236 c 0,-6.7249 -2.7684,-13.4085 -7.5236,-18.1637 -4.7552,-4.7552 -11.4383,-7.5236 -18.1632,-7.5236 z" /><path
       id="path26"
       style="color:#000000;fill:#a8c2be;fill-opacity:0.1;stroke-width:0.999997;-inkscape-stroke:none"
       d="m 5423.6207,2525.1363 c -6.7249,0 -13.4085,2.7684 -18.1637,7.5236 -4.7553,4.7552 -7.5236,11.4388 -7.5236,18.1637 v 1404.4885 c 0,6.7248 2.7683,13.4085 7.5236,18.1637 4.7552,4.7552 11.4388,7.5236 18.1637,7.5236 6.7249,0 13.408,-2.7684 18.1632,-7.5236 4.7552,-4.7552 7.5236,-11.4389 7.5236,-18.1637 V 2550.8236 c 0,-6.7249 -2.7684,-13.4085 -7.5236,-18.1637 -4.7552,-4.7552 -11.4383,-7.5236 -18.1632,-7.5236 z" /><g
       id="g65"
       transform="matrix(0.9987407,0,0,0.99873083,-1.0698175,27.401351)"
       style="stroke-width:1.00127"><path
         style="fill:none;stroke:#a8c2be;stroke-width:20.0253;stroke-linecap:round;stroke-linejoin:round;stroke-dasharray:none;stroke-opacity:0.25"
         d="m 3742.7579,5125.4154 c 0,0 103.9269,-58.5039 161.5419,-62.8385 82.8229,-6.231 160.065,54.7005 243.1219,54.5703 106.8474,-0.1675 205.903,-64.4643 312.5391,-71.1816 230.5107,-14.5205 458.9234,55.708 689.5703,67.8743 158.9915,8.3866 300.0683,18.5984 347.2367,-23.4966"
         id="path35"
         sodipodi:nodetypes="caaasc" /><path
         style="fill:none;stroke:#a6c4bf;stroke-width:40.0506;stroke-linecap:round;stroke-linejoin:round;stroke-dasharray:none;stroke-opacity:1"
         d="m 3742.7579,5125.4154 c 0,0 103.9269,-58.5039 161.5419,-62.8385 82.8229,-6.231 160.065,54.7005 243.1219,54.5703 106.8474,-0.1675 205.903,-64.4643 312.5391,-71.1816 118.2378,-7.4481 235.9236,7.4017 353.642,25.2761"
         id="path44"
         sodipodi:nodetypes="caasc" /><path
         style="fill:none;stroke:#e0ebe9;stroke-width:15.019;stroke-linecap:round;stroke-linejoin:round;stroke-dasharray:none;stroke-opacity:1;filter:url(#filter59)"
         d="m 3742.7579,5119.3387 c 0,0 103.9269,-58.5039 161.5419,-62.8385 82.8229,-6.231 160.065,54.7005 243.1219,54.5703 106.8474,-0.1675 205.903,-64.4643 312.5391,-71.1816 118.2378,-7.4481 235.9236,7.4017 353.642,25.2761"
         id="path36"
         sodipodi:nodetypes="caasc" /></g><circle
       style="fill:#e0ebe9;fill-opacity:1;stroke:none;stroke-width:15;stroke-linecap:round;stroke-linejoin:round;stroke-miterlimit:4.7;stroke-dasharray:none;stroke-opacity:1"
       id="circle91"
       cx="4056.8955"
       cy="5144.1294"
       r="23.501314" /><g
       id="g64"
       transform="matrix(0.9987407,0,0,0.99873083,-1.0698175,40.516219)"
       style="stroke-width:1.00127"><path
         style="fill:none;stroke:#a8c2be;stroke-width:20.0253;stroke-linecap:round;stroke-linejoin:round;stroke-dasharray:none;stroke-opacity:0.25"
         d="m 3742.7579,5319.9807 c 0,0 103.9269,-58.5039 161.5419,-62.8385 82.8229,-6.231 160.065,54.7005 243.1219,54.5703 106.8474,-0.1675 205.903,-64.4643 312.5391,-71.1816 230.5107,-14.5205 458.9234,55.708 689.5703,67.8743 158.9915,8.3866 300.0683,18.5984 347.2367,-23.4966"
         id="path37"
         sodipodi:nodetypes="caaasc" /><path
         style="fill:none;stroke:#a6c4bf;stroke-width:40.0506;stroke-linecap:round;stroke-linejoin:round;stroke-dasharray:none;stroke-opacity:1"
         d="m 3742.7579,5319.9807 c 0,0 103.9269,-58.5039 161.5419,-62.8385 82.8229,-6.231 160.065,54.7005 243.1219,54.5703 106.8474,-0.1675 205.903,-64.4643 312.5391,-71.1816 230.5107,-14.5205 458.9234,55.708 689.5703,67.8743 70.0292,3.694 136.5829,7.742 193.1673,7.5185"
         id="path45"
         sodipodi:nodetypes="caaasc" /><path
         style="fill:none;stroke:#e0ebe9;stroke-width:15.019;stroke-linecap:round;stroke-linejoin:round;stroke-dasharray:none;stroke-opacity:1;filter:url(#filter58)"
         d="m 3742.7579,5315.2851 c 0,0 103.9269,-58.5039 161.5419,-62.8385 82.8229,-6.231 160.065,54.7005 243.1219,54.5703 106.8474,-0.1675 205.903,-64.4643 312.5391,-71.1816 230.5107,-14.5205 458.9234,55.708 689.5703,67.8743 70.0292,3.694 136.5829,7.742 193.1673,7.5185"
         id="path38"
         sodipodi:nodetypes="caaasc" /></g><g
       id="g63"
       transform="matrix(0.9987407,0,0,0.99873083,-1.0698175,55.235366)"
       style="stroke-width:1.00127"><path
         style="fill:none;stroke:#a8c2be;stroke-width:20.0253;stroke-linecap:round;stroke-linejoin:round;stroke-dasharray:none;stroke-opacity:0.25"
         d="m 3742.7579,5514.546 c 0,0 103.9269,-58.5039 161.5419,-62.8385 82.8229,-6.231 160.065,54.7005 243.1219,54.5703 106.8474,-0.1675 205.903,-64.4643 312.5391,-71.1816 230.5107,-14.5205 458.9234,55.708 689.5703,67.8743 158.9915,8.3866 300.0683,18.5984 347.2367,-23.4966"
         id="path39"
         sodipodi:nodetypes="caaasc" /><path
         style="fill:none;stroke:#a6c4bf;stroke-width:40.0506;stroke-linecap:round;stroke-linejoin:round;stroke-dasharray:none;stroke-opacity:1"
         d="m 3742.7579,5514.546 c 0,0 103.9269,-58.5039 161.5419,-62.8385 82.8229,-6.231 160.065,54.7005 243.1219,54.5703 106.8474,-0.1675 205.903,-64.4643 312.5391,-71.1816 76.5559,-4.8225 152.8804,-0.2971 229.1322,8.3445"
         id="path46"
         sodipodi:nodetypes="caasc" /><path
         style="fill:none;stroke:#e0ebe9;stroke-width:15.019;stroke-linecap:round;stroke-linejoin:round;stroke-dasharray:none;stroke-opacity:1;filter:url(#filter57)"
         d="m 3742.7579,5508.296 c 0,0 103.9269,-58.5039 161.5419,-62.8385 82.8229,-6.231 160.065,54.7005 243.1219,54.5703 106.8474,-0.1675 205.903,-64.4643 312.5391,-71.1816 76.5559,-4.8225 152.8804,-0.2971 229.1322,8.3445"
         id="path40"
         sodipodi:nodetypes="caasc" /></g><g
       id="g62"
       transform="matrix(0.9987407,0,0,0.99873083,-1.0698175,59.719003)"
       style="stroke-width:1.00127"><path
         style="fill:none;stroke:#a8c2be;stroke-width:20.0253;stroke-linecap:round;stroke-linejoin:round;stroke-dasharray:none;stroke-opacity:0.25"
         d="m 3742.7579,5719.125 c 0,0 103.9269,-58.5039 161.5419,-62.8385 82.8229,-6.231 160.065,54.7005 243.1219,54.5703 106.8474,-0.1675 205.903,-64.4643 312.5391,-71.1816 230.5107,-14.5205 458.9234,55.708 689.5703,67.8743 158.9915,8.3866 300.0683,18.5984 347.2367,-23.4966"
         id="path41"
         sodipodi:nodetypes="caaasc" /><path
         style="fill:none;stroke:#a6c4bf;stroke-width:40.0506;stroke-linecap:round;stroke-linejoin:round;stroke-dasharray:none;stroke-opacity:1"
         d="m 3742.7579,5719.125 c 0,0 103.9269,-58.5039 161.5419,-62.8385 82.8229,-6.231 160.065,54.7005 243.1219,54.5703 106.8474,-0.1675 205.903,-64.4643 312.5391,-71.1816 75.6428,-4.7649 151.0598,-0.4037 226.4038,8.0371"
         id="path54"
         sodipodi:nodetypes="caasc" /><path
         style="fill:none;stroke:#e0ebe9;stroke-width:15.019;stroke-linecap:round;stroke-linejoin:round;stroke-dasharray:none;stroke-opacity:1;filter:url(#filter56)"
         d="m 3742.7579,5713.0483 c 0,0 103.9269,-58.5039 161.5419,-62.8385 82.8229,-6.231 160.065,54.7005 243.1219,54.5703 106.8474,-0.1675 205.903,-64.4643 312.5391,-71.1816 75.6428,-4.7649 151.0598,-0.4037 226.4038,8.0371"
         id="path42"
         sodipodi:nodetypes="caasc" /></g><g
       id="g61"
       transform="matrix(0.9987407,0,0,0.99873083,-1.0698175,54.983256)"
       style="stroke-width:1.00127"><path
         style="fill:none;stroke:#a8c2be;stroke-width:20.0253;stroke-linecap:round;stroke-linejoin:round;stroke-dasharray:none;stroke-opacity:0.25"
         d="m 3742.7579,5933.704 c 0,0 103.9269,-58.5039 161.5419,-62.8385 82.8229,-6.231 160.065,54.7005 243.1219,54.5703 106.8474,-0.1675 205.903,-64.4643 312.5391,-71.1816 230.5107,-14.5205 458.9234,55.708 689.5703,67.8743 158.9915,8.3866 300.0683,18.5984 347.2367,-23.4966"
         id="path21"
         sodipodi:nodetypes="caaasc" /><path
         style="fill:none;stroke:#a6c4bf;stroke-width:40.0506;stroke-linecap:round;stroke-linejoin:round;stroke-dasharray:none;stroke-opacity:1"
         d="m 3742.7579,5933.704 c 0,0 103.9269,-58.5039 161.5419,-62.8385 82.8229,-6.231 160.065,54.7005 243.1219,54.5703 106.8474,-0.1675 205.903,-64.4643 312.5391,-71.1816 230.5107,-14.5205 458.9234,55.708 689.5703,67.8743"
         id="path55"
         sodipodi:nodetypes="caaac" /><path
         style="fill:none;stroke:#e0ebe9;stroke-width:15.019;stroke-linecap:round;stroke-linejoin:round;stroke-dasharray:none;stroke-opacity:1;filter:url(#filter55)"
         d="m 3742.7579,5926.868 c 0,0 103.9269,-58.5039 161.5419,-62.8385 82.8229,-6.231 160.065,54.7005 243.1219,54.5703 106.8474,-0.1675 205.903,-64.4643 312.5391,-71.1816 230.5107,-14.5205 458.9234,55.708 689.5703,67.8743"
         id="path22"
         sodipodi:nodetypes="caaac" /></g><g
       id="g67"
       transform="matrix(0.9987407,0,0,0.99873083,-1.0698175,-1.8438035)"
       style="stroke-width:1.00127"><path
         style="fill:none;stroke:#a8c2be;stroke-width:20.0253;stroke-linecap:round;stroke-linejoin:round;stroke-dasharray:none;stroke-opacity:0.25"
         d="m 3742.7579,4736.2848 c 0,0 103.9269,-58.5039 161.5419,-62.8385 82.8229,-6.231 160.065,54.7005 243.1219,54.5703 106.8474,-0.1675 205.903,-64.4643 312.5391,-71.1816 230.5107,-14.5205 458.9234,55.708 689.5703,67.8743 158.9915,8.3866 300.0683,18.5984 347.2367,-23.4966"
         id="path30"
         sodipodi:nodetypes="caaasc" /><path
         style="fill:none;stroke:#a6c4bf;stroke-width:40.0506;stroke-linecap:round;stroke-linejoin:round;stroke-dasharray:none;stroke-opacity:1"
         d="m 3742.7579,4736.2848 c 0,0 103.9269,-58.5039 161.5419,-62.8385 82.8229,-6.231 160.065,54.7005 243.1219,54.5703 106.8474,-0.1675 205.903,-64.4643 312.5391,-71.1816 230.5107,-14.5205 458.9234,55.708 689.5703,67.8743 70.0292,3.694 136.5829,7.742 193.1673,7.5185"
         id="path31"
         sodipodi:nodetypes="caaasc" /><path
         style="fill:none;stroke:#e1eaea;stroke-width:15.019;stroke-linecap:round;stroke-linejoin:round;stroke-dasharray:none;stroke-opacity:1;filter:url(#filter61)"
         d="m 3742.7579,4729.4153 c 0,0 103.9269,-58.5039 161.5419,-62.8385 82.8229,-6.231 160.065,54.7005 243.1219,54.5703 106.8474,-0.1675 205.903,-64.4643 312.5391,-71.1816 230.5107,-14.5205 458.9234,55.708 689.5703,67.8743 70.0292,3.694 136.5829,7.742 193.1673,7.5185"
         id="path32"
         sodipodi:nodetypes="caaasc" /></g><rect
       style="fill:#e0ebe9;fill-opacity:0.75;stroke-width:15;stroke-linecap:round;stroke-linejoin:round;stroke-miterlimit:4.7"
       id="rect1"
       width="796.06421"
       height="47.002777"
       x="3693.4734"
       y="4703.8647" /><path
       d="m 1389.3054,4905.1864 v 44.8325 h 9.9197 v -16.1265 c 0,0 -0.6096,0 8.8666,0 9.7536,0 15.6831,-6.8163 15.6831,-14.2422 0,-7.4258 -5.9295,-14.4638 -15.7383,-14.4638 z m 19.5069,20.0055 h -9.5872 v -11.3051 h 9.5872 c 3.4913,0 6.2621,2.2722 6.2621,5.7634 0,3.4359 -2.7708,5.5417 -6.2621,5.5417 z m 27.8193,-20.0055 h -9.9197 v 44.8325 h 9.9197 v -18.8973 h 18.8971 v 18.8973 h 9.9753 v -44.8325 h -9.9753 v 16.9576 h -18.8971 z m 53.81,-0.9422 c -11.693,0 -21.3355,8.3681 -21.3355,23.3308 0,15.2951 9.6425,23.2751 21.3355,23.2751 11.693,0 21.3911,-7.9247 21.3911,-23.2751 0,-14.6856 -9.1439,-23.3308 -21.3911,-23.3308 z m 0,37.3512 c -6.65,0 -11.693,-4.3779 -11.693,-14.0204 0,-9.5873 5.0984,-14.0207 11.693,-14.0207 6.6501,0 11.693,4.4334 11.693,14.0207 0,9.6425 -4.9876,14.0204 -11.693,14.0204 z m 22.444,-36.409 v 8.9776 h 15.6275 v 35.8549 h 9.9197 v -35.8549 h 15.6277 v -8.9776 z m 63.6189,-0.9422 c -11.6929,0 -21.3356,8.3681 -21.3356,23.3308 0,15.2951 9.6427,23.2751 21.3356,23.2751 11.6929,0 21.391,-7.9247 21.391,-23.2751 0,-14.6856 -9.1438,-23.3308 -21.391,-23.3308 z m 0,37.3512 c -6.6501,0 -11.6929,-4.3779 -11.6929,-14.0204 0,-9.5873 5.0982,-14.0207 11.6929,-14.0207 6.6501,0 11.6929,4.4334 11.6929,14.0207 0,9.6425 -4.9874,14.0204 -11.6929,14.0204 z m 44.4446,-18.3985 c -5.3201,-1.1637 -9.8643,-2.2167 -9.8643,-5.3755 0,-3.2142 4.2118,-4.5996 7.0934,-4.5996 4.2671,0 8.7005,2.0505 8.7005,5.431 v 0.8867 h 9.8088 v -0.8867 c 0,-8.4235 -7.2042,-14.3531 -17.5118,-14.3531 -11.1942,0 -18.4538,5.6525 -18.4538,14.3531 0,8.3679 8.8113,10.4738 15.8493,12.1364 5.5417,1.33 10.3075,2.4382 10.3075,5.7634 0,4.0453 -3.99,5.209 -7.9246,5.209 -4.1563,0 -8.3125,-1.3299 -8.3125,-5.209 v -0.8868 h -10.6403 v 0.8868 c 0,8.0354 6.7056,14.2975 17.4565,14.2975 12.9123,0 19.6176,-6.2068 19.6176,-15.0735 0,-8.9775 -8.922,-10.9725 -16.1263,-12.5797 z m 29.8698,-18.0105 h -9.9197 v 44.8325 h 9.9197 v -18.8973 h 18.8973 v 18.8973 h 9.975 v -44.8325 h -9.975 v 16.9576 h -18.8973 z m 53.81,-0.9422 c -11.6929,0 -21.3356,8.3681 -21.3356,23.3308 0,15.2951 9.6427,23.2751 21.3356,23.2751 11.693,0 21.391,-7.9247 21.391,-23.2751 0,-14.6856 -9.1437,-23.3308 -21.391,-23.3308 z m 0,37.3512 c -6.65,0 -11.6929,-4.3779 -11.6929,-14.0204 0,-9.5873 5.0982,-14.0207 11.6929,-14.0207 6.6501,0 11.693,4.4334 11.693,14.0207 0,9.6425 -4.9875,14.0204 -11.693,14.0204 z m 24.9932,-36.409 v 44.8325 h 9.9197 v -16.1265 c 0,0 -0.6096,0 8.8667,0 9.7535,0 15.6831,-6.8163 15.6831,-14.2422 0,-7.4258 -5.9296,-14.4638 -15.7386,-14.4638 z m 19.5068,20.0055 h -9.5871 v -11.3051 h 9.5871 c 3.4913,0 6.2622,2.2722 6.2622,5.7634 0,3.4359 -2.7709,5.5417 -6.2622,5.5417 z"
       id="text24"
       style="font-weight:bold;font-size:122.531px;line-height:1;font-family:'Neutral Face';-inkscape-font-specification:'Neutral Face Bold';stroke-width:0.999992"
       aria-label="Photoshop" /><path
       d="m 1398.5046,4702.8965 h -9.1992 v 44.8326 h 9.1992 z m 15.0735,35.855 v -35.855 h -9.9197 v 44.8326 h 31.8095 v -8.9776 z m 34.1925,0 v -35.855 h -9.9197 v 44.8326 h 31.8094 v -8.9776 z m 51.815,-35.9103 v 27.5977 0 0.2771 c 0,7.0934 -5.2093,9.033 -9.6427,9.033 -4.3778,0 -9.6424,-1.9396 -9.6424,-8.9777 v -0.3324 0 -27.5977 h -8.7559 v 27.7085 c 0,9.8643 5.6524,18.0106 18.3983,18.0106 12.9678,0 18.454,-8.1463 18.454,-18.0106 v -27.7085 z m 32.9731,18.066 c -5.3201,-1.1638 -9.8643,-2.2167 -9.8643,-5.3755 0,-3.2142 4.2118,-4.5996 7.0934,-4.5996 4.2672,0 8.7006,2.0504 8.7006,5.4308 v 0.8867 h 9.8088 v -0.8867 c 0,-8.4234 -7.2042,-14.3529 -17.5118,-14.3529 -11.1943,0 -18.4539,5.6524 -18.4539,14.3529 0,8.3679 8.8112,10.4739 15.8491,12.1364 5.5418,1.33 10.3078,2.4384 10.3078,5.7634 0,4.0455 -3.9901,5.2092 -7.9247,5.2092 -4.1563,0 -8.3125,-1.3301 -8.3125,-5.2092 v -0.8867 h -10.6402 v 0.8867 c 0,8.0354 6.7055,14.2976 17.4564,14.2976 12.9122,0 19.6177,-6.2067 19.6177,-15.0734 0,-8.9776 -8.9221,-10.9727 -16.1264,-12.5797 z m 17.789,-18.0107 v 8.9776 h 15.6275 v 35.855 h 9.9198 v -35.855 h 15.6276 v -8.9776 z m 72.0422,27.7087 c 5.2647,-1.995 8.6452,-7.5368 8.6452,-13.2448 0,-7.4258 -5.9852,-14.4639 -15.7385,-14.4639 h -20.726 v 44.8326 h 9.9196 v -16.1265 c 0,0 1.1083,0 8.2017,0 l 8.8667,16.1265 h 11.416 z m -17.8997,-7.7031 v -11.305 h 11.5821 c 3.436,0 6.2622,2.2721 6.2622,5.7633 0,3.436 -2.8262,5.5417 -6.2622,5.5417 z m 59.4626,24.827 h 9.4762 l -15.5168,-44.8326 h -10.4183 l -16.4588,44.8326 h 9.4207 l 3.4913,-9.2548 h 16.5144 z m -16.9023,-17.5119 5.1538,-13.6325 5.1537,13.6325 z m 19.6731,-27.3207 v 8.9776 h 15.6277 v 35.855 h 9.9195 v -35.855 h 15.6278 v -8.9776 z m 63.6188,-0.942 c -11.6929,0 -21.3356,8.368 -21.3356,23.3305 0,15.2951 9.6427,23.2753 21.3356,23.2753 11.6932,0 21.3911,-7.9246 21.3911,-23.2753 0,-14.6854 -9.1439,-23.3305 -21.3911,-23.3305 z m 0,37.3511 c -6.65,0 -11.6929,-4.3779 -11.6929,-14.0206 0,-9.587 5.0984,-14.0205 11.6929,-14.0205 6.65,0 11.6932,4.4335 11.6932,14.0205 0,9.6427 -4.9876,14.0206 -11.6932,14.0206 z m 52.8126,-8.7004 c 5.2647,-1.995 8.6451,-7.5368 8.6451,-13.2448 0,-7.4258 -5.985,-14.4639 -15.7384,-14.4639 h -20.726 v 44.8326 h 9.9197 v -16.1265 c 0,0 1.1082,0 8.2016,0 l 8.8667,16.1265 h 11.416 z m -17.8996,-7.7031 v -11.305 h 11.5821 c 3.4359,0 6.2621,2.2721 6.2621,5.7633 0,3.436 -2.8262,5.5417 -6.2621,5.5417 z m 29.9251,15.2397 v 9.5873 h 5.043 c -0.1109,4.0454 -3.2696,5.1537 -5.9297,4.5442 v 3.9346 c 5.985,0.6649 9.8643,-3.048 9.8643,-8.4788 v -9.5873 z m 41.0086,-35.2453 h -9.1992 v 44.8326 h 9.1992 z m 36.2983,0 v 30.2578 l -22.0006,-30.2578 h -9.1439 v 44.8326 h 9.1439 l 0.2771,-30.4795 21.7235,30.4795 h 9.1992 v -44.8326 z m 34.9681,18.2878 16.8469,-18.2878 h -10.9726 l -17.0685,18.6202 v -18.6202 h -9.4209 v 44.8326 h 9.4209 v -14.3531 l 4.8767,-5.32 14.0759,19.6731 h 11.0834 z m 38.2933,-0.2771 c -5.3201,-1.1638 -9.8643,-2.2167 -9.8643,-5.3755 0,-3.2142 4.2117,-4.5996 7.0934,-4.5996 4.2672,0 8.7005,2.0504 8.7005,5.4308 v 0.8867 h 9.8089 v -0.8867 c 0,-8.4234 -7.2044,-14.3529 -17.5119,-14.3529 -11.1941,0 -18.4539,5.6524 -18.4539,14.3529 0,8.3679 8.8114,10.4739 15.8493,12.1364 5.5418,1.33 10.3076,2.4384 10.3076,5.7634 0,4.0455 -3.99,5.2092 -7.9246,5.2092 -4.1563,0 -8.3126,-1.3301 -8.3126,-5.2092 v -0.8867 h -10.6401 v 0.8867 c 0,8.0354 6.7055,14.2976 17.4564,14.2976 12.9122,0 19.6176,-6.2067 19.6176,-15.0734 0,-8.9776 -8.9221,-10.9727 -16.1263,-12.5797 z m 50.7067,8.7559 c -0.7204,6.5392 -5.3755,9.6425 -10.9726,9.6425 -6.6501,0 -11.6931,-4.3779 -11.6931,-14.0206 0,-9.587 5.0984,-14.0205 11.6931,-14.0205 5.1538,0 9.3655,2.7155 10.5292,8.3127 h 10.363 c -2.1058,-11.1389 -10.3075,-17.6227 -20.8922,-17.6227 -11.6931,0 -21.3356,8.368 -21.3356,23.3305 0,15.2951 9.6425,23.2753 21.3356,23.2753 10.5292,0 19.396,-6.373 21.1139,-18.8972 z m 40.2328,18.066 h 9.4763 l -15.5167,-44.8326 h -10.4184 l -16.4589,44.8326 h 9.4208 l 3.4913,-9.2548 h 16.5143 z m -16.9022,-17.5119 5.1538,-13.6325 5.1537,13.6325 z m 26.7665,-27.3207 v 44.8326 h 9.9197 v -16.1265 c 0,0 -0.6097,0 8.8667,0 9.7533,0 15.6831,-6.8163 15.6831,-14.2422 0,-7.4258 -5.9298,-14.4639 -15.7386,-14.4639 z m 19.5068,20.0056 h -9.5871 v -11.305 h 9.5871 c 3.4912,0 6.2622,2.2721 6.2622,5.7633 0,3.436 -2.771,5.5417 -6.2622,5.5417 z m 17.8997,-20.0056 v 44.8326 h 32.0311 v -8.9222 h -22.333 v -9.9751 l 18.6201,0.055 v -8.9221 l -18.6201,-0.1109 v -7.9801 h 22.333 v -8.9776 z"
       id="text25"
       style="font-weight:bold;font-size:84.2909px;line-height:1;font-family:'Neutral Face';-inkscape-font-specification:'Neutral Face Bold';stroke-width:1"
       aria-label="Illustrator, Inkscape" /><path
       d="m 1389.3054,5100.5829 v 44.8325 h 22.9426 c 8.2573,0 13.0232,-5.9296 13.0232,-12.0255 0,-5.7634 -4.3226,-10.3077 -8.5343,-10.3077 1.4962,0 5.2646,-3.8237 5.2646,-9.3653 0,-6.5392 -5.7634,-13.134 -14.0205,-13.134 z m 9.9197,8.7006 h 9.6425 c 2.383,0 4.5442,2.2166 4.5442,4.7104 0,2.4938 -2.0504,4.655 -4.5995,4.655 h -9.5872 z m 12.4134,27.4314 h -12.4134 v -9.3655 h 12.3026 c 2.6045,0 4.7104,2.1613 4.7104,4.766 0,2.5491 -2.0504,4.5995 -4.5996,4.5995 z m 26.9327,-0.2771 v -35.8549 h -9.9196 v 44.8325 h 31.8094 v -8.9776 z m 24.2727,-35.8549 v 44.8325 h 32.031 v -8.9222 h -22.333 v -9.975 l 18.6201,0.055 v -8.9221 l -18.6201,-0.1108 v -7.9801 h 22.333 v -8.9776 z m 68.3293,0 v 30.2579 l -22.0007,-30.2579 h -9.1438 v 44.8325 h 9.1438 l 0.2772,-30.4795 21.7235,30.4795 h 9.1992 v -44.8325 z m 31.5323,0 h -17.1794 v 44.8325 h 17.1794 c 11.7483,0 21.3356,-10.0305 21.3356,-22.4439 0,-12.3581 -9.5873,-22.3886 -21.3356,-22.3886 z m -7.2597,8.8668 h 7.5922 c 6.0404,0 11.1943,6.2068 11.4158,13.1339 0,0.1662 0,0.277 0,0.3879 0,0.3879 0,0.7204 -0.055,1.0529 0,0.1108 0,0.1663 0,0.2771 0,0 0,0 0,0.055 -0.6095,6.4839 -5.5971,12.1918 -11.3606,12.1918 h -7.5921 z m 31.9758,-8.8668 v 44.8325 h 32.031 v -8.9222 h -22.3331 v -9.975 l 18.6202,0.055 v -8.9221 l -18.6202,-0.1108 v -7.9801 h 22.3331 v -8.9776 z m 65.0041,27.7086 c 5.2647,-1.995 8.6451,-7.5367 8.6451,-13.2447 0,-7.4258 -5.985,-14.4639 -15.7384,-14.4639 h -20.726 v 44.8325 h 9.9197 v -16.1263 c 0,0 1.1083,0 8.2017,0 l 8.8667,16.1263 h 11.4159 z m -17.8996,-7.7029 v -11.3051 h 11.5822 c 3.4358,0 6.2621,2.272 6.2621,5.7633 0,3.4359 -2.8263,5.5418 -6.2621,5.5418 z"
       id="text26"
       style="font-weight:bold;font-size:84.2909px;line-height:1;font-family:'Neutral Face';-inkscape-font-specification:'Neutral Face Bold';stroke-width:1"
       aria-label="Blender" /><path
       d="m 1399.2251,5286.5925 h -9.9197 v 44.8324 h 9.9197 v -18.8973 h 18.8972 v 18.8973 h 9.9751 v -44.8324 h -9.9751 v 16.9576 h -18.8972 z m 31.8648,0 v 8.9775 h 15.6276 v 35.8549 h 9.9197 V 5295.57 h 15.6276 v -8.9775 z m 80.1331,0 -12.7458,35.3007 -12.8014,-35.3007 h -10.363 v 44.8324 h 9.4209 v -25.7136 l 10.0305,25.7136 h 7.4259 l 10.0305,-25.6581 v 25.6581 h 9.4209 v -44.8324 z m 25.492,35.8548 v -35.8548 h -9.9196 v 44.8324 h 31.8093 v -8.9776 z m 22.8872,-0.6096 v 9.5872 h 5.043 c -0.1109,4.0454 -3.2695,5.1538 -5.9296,4.5442 v 3.9346 c 5.9851,0.665 9.8642,-3.0479 9.8642,-8.4788 v -9.5872 z m 62.5661,-8.4788 c -0.7206,6.5392 -5.3755,9.6425 -10.9727,9.6425 -6.6501,0 -11.693,-4.3778 -11.693,-14.0205 0,-9.5871 5.0984,-14.0204 11.693,-14.0204 5.1538,0 9.3655,2.7154 10.5292,8.3125 h 10.3631 c -2.1058,-11.1388 -10.3076,-17.6226 -20.8923,-17.6226 -11.693,0 -21.3356,8.368 -21.3356,23.3305 0,15.2951 9.6426,23.2752 21.3356,23.2752 10.5292,0 19.396,-6.3729 21.114,-18.8972 z m 32.8623,-8.7559 c -5.32,-1.1637 -9.8642,-2.2166 -9.8642,-5.3755 0,-3.2141 4.2116,-4.5996 7.0933,-4.5996 4.2672,0 8.7005,2.0504 8.7005,5.431 v 0.8865 h 9.8089 v -0.8865 c 0,-8.4235 -7.2042,-14.3532 -17.5119,-14.3532 -11.1943,0 -18.4538,5.6526 -18.4538,14.3532 0,8.3679 8.8113,10.4737 15.8493,12.1363 5.5416,1.33 10.3075,2.4383 10.3075,5.7634 0,4.0454 -3.9901,5.2092 -7.9247,5.2092 -4.1562,0 -8.3125,-1.3301 -8.3125,-5.2092 v -0.8867 h -10.6401 v 0.8867 c 0,8.0353 6.7055,14.2975 17.4564,14.2975 12.9122,0 19.6177,-6.2066 19.6177,-15.0734 0,-8.9776 -8.9222,-10.9726 -16.1264,-12.5797 z m 39.4016,0 c -5.3201,-1.1637 -9.8643,-2.2166 -9.8643,-5.3755 0,-3.2141 4.2117,-4.5996 7.0935,-4.5996 4.267,0 8.7003,2.0504 8.7003,5.431 v 0.8865 h 9.8088 v -0.8865 c 0,-8.4235 -7.2041,-14.3532 -17.5117,-14.3532 -11.1943,0 -18.4539,5.6526 -18.4539,14.3532 0,8.3679 8.8113,10.4737 15.8493,12.1363 5.5417,1.33 10.3075,2.4383 10.3075,5.7634 0,4.0454 -3.9899,5.2092 -7.9246,5.2092 -4.1562,0 -8.3125,-1.3301 -8.3125,-5.2092 v -0.8867 h -10.6401 v 0.8867 c 0,8.0353 6.7055,14.2975 17.4563,14.2975 12.9123,0 19.6178,-6.2066 19.6178,-15.0734 0,-8.9776 -8.9222,-10.9726 -16.1264,-12.5797 z"
       id="text27"
       style="font-weight:bold;font-size:84.2909px;line-height:1;font-family:'Neutral Face';-inkscape-font-specification:'Neutral Face Bold';stroke-width:1"
       aria-label="Html, Css" /><path
       d="m 1405.1547,5525.0691 c -5.4863,0 -6.4284,-2.106 -6.4284,-9.8089 v -0.055 h -9.4209 c 0,9.9751 1.5516,19.396 15.8493,19.3406 14.2975,0 16.0155,-7.703 16.0155,-19.2297 v -26.434 h -9.5318 v 26.5449 c 0,7.5366 -1.2745,9.6424 -6.4837,9.6424 z m 47.4925,8.645 h 9.4763 l -15.5167,-44.8324 h -10.4185 l -16.4589,44.8324 h 9.4209 l 3.4914,-9.2547 h 16.5141 z m -16.9023,-17.5119 5.1538,-13.6325 5.1539,13.6325 z m 44.7771,17.5119 14.8519,-44.8324 h -9.4209 l -10.751,32.3636 -10.6954,-32.3636 h -9.421 l 14.7964,44.8324 z m 40.7317,0 h 9.4762 l -15.5167,-44.8324 h -10.4185 l -16.4589,44.8324 h 9.4209 l 3.4914,-9.2547 h 16.5142 z m -16.9023,-17.5119 5.1538,-13.6325 5.1538,13.6325 z m 45.6084,-9.3099 c -5.3201,-1.1638 -9.8643,-2.2167 -9.8643,-5.3755 0,-3.2142 4.2117,-4.5997 7.0934,-4.5997 4.2672,0 8.7006,2.0505 8.7006,5.431 v 0.8866 h 9.8088 v -0.8866 c 0,-8.4235 -7.2042,-14.3531 -17.5118,-14.3531 -11.1943,0 -18.454,5.6525 -18.454,14.3531 0,8.3679 8.8113,10.4737 15.8493,12.1363 5.5418,1.33 10.3077,2.4383 10.3077,5.7634 0,4.0454 -3.9902,5.2092 -7.9247,5.2092 -4.1563,0 -8.3127,-1.3301 -8.3127,-5.2092 v -0.8867 h -10.64 v 0.8867 c 0,8.0353 6.7055,14.2975 17.4564,14.2975 12.9122,0 19.6177,-6.2066 19.6177,-15.0734 0,-8.9776 -8.9221,-10.9726 -16.1264,-12.5796 z m 50.7067,8.7558 c -0.7205,6.5392 -5.3755,9.6425 -10.9726,9.6425 -6.6501,0 -11.6931,-4.3778 -11.6931,-14.0205 0,-9.5871 5.0984,-14.0205 11.6931,-14.0205 5.1538,0 9.3654,2.7155 10.5292,8.3126 h 10.363 c -2.1058,-11.1388 -10.3077,-17.6226 -20.8922,-17.6226 -11.6931,0 -21.3356,8.368 -21.3356,23.3305 0,15.2951 9.6425,23.2752 21.3356,23.2752 10.5292,0 19.396,-6.3729 21.1139,-18.8972 z m 41.2303,0.9422 c 5.2646,-1.9951 8.645,-7.5369 8.645,-13.2448 0,-7.4259 -5.985,-14.4638 -15.7384,-14.4638 h -20.726 v 44.8324 h 9.9197 v -16.1264 c 0,0 1.1083,0 8.2018,0 l 8.8666,16.1264 h 11.416 z m -17.8997,-7.703 v -11.3051 h 11.5821 c 3.436,0 6.2622,2.272 6.2622,5.7633 0,3.436 -2.8262,5.5418 -6.2622,5.5418 z m 40.5099,-20.0056 h -9.1993 v 44.8324 h 9.1993 z m 5.1537,0 v 44.8324 h 9.9198 v -16.1264 c 0,0 -0.6097,0 8.8668,0 9.7533,0 15.683,-6.8163 15.683,-14.2422 0,-7.4259 -5.9297,-14.4638 -15.7386,-14.4638 z m 19.5069,20.0056 h -9.5871 v -11.3051 h 9.5871 c 3.4913,0 6.2621,2.272 6.2621,5.7633 0,3.436 -2.7708,5.5418 -6.2621,5.5418 z m 15.7385,-20.0056 v 8.9775 h 15.6276 v 35.8549 h 9.9196 v -35.8549 h 15.6277 v -8.9775 z"
       id="text28"
       style="font-weight:bold;font-size:84.2909px;line-height:1;font-family:'Neutral Face';-inkscape-font-specification:'Neutral Face Bold';stroke-width:1"
       aria-label="Javascript" /><path
       d="m 1410.2531,5703.7473 c -5.32,-1.1638 -9.8642,-2.2167 -9.8642,-5.3755 0,-3.2141 4.2117,-4.5996 7.0933,-4.5996 4.2673,0 8.7006,2.0505 8.7006,5.4309 v 0.8867 h 9.8088 v -0.8867 c 0,-8.4235 -7.2043,-14.353 -17.5118,-14.353 -11.1943,0 -18.4539,5.6525 -18.4539,14.353 0,8.368 8.8113,10.4738 15.8493,12.1363 5.5416,1.3301 10.3076,2.4383 10.3076,5.7634 0,4.0455 -3.9901,5.2092 -7.9248,5.2092 -4.1562,0 -8.3124,-1.33 -8.3124,-5.2092 v -0.8867 h -10.6402 v 0.8867 c 0,8.0355 6.7055,14.2976 17.4565,14.2976 12.9122,0 19.6176,-6.2067 19.6176,-15.0734 0,-8.9777 -8.9222,-10.9726 -16.1264,-12.5797 z m 41.3966,26.8219 14.8519,-44.8324 h -9.4209 l -10.751,32.3634 -10.6955,-32.3634 h -9.4209 l 14.7964,44.8324 z m 17.0131,-44.8324 v 44.8324 h 32.0311 v -8.9221 h -22.3331 v -9.9752 l 18.6202,0.055 v -8.9222 l -18.6202,-0.1109 v -7.98 h 22.3331 v -8.9775 z m 47.1045,35.8548 v -35.8548 h -9.9197 v 44.8324 h 31.8095 v -8.9776 z m 15.9602,-35.8548 v 8.9775 h 15.6276 v 35.8549 h 9.9196 v -35.8549 h 15.6277 v -8.9775 z m 44.2229,0 v 44.8324 h 32.0311 v -8.9221 h -22.3331 v -9.9752 l 18.6201,0.055 v -8.9222 l -18.6201,-0.1109 v -7.98 h 22.3331 v -8.9775 z m 35.7994,35.2452 v 9.5872 h 5.043 c -0.1108,4.0454 -3.2696,5.1538 -5.9296,4.5441 v 3.9347 c 5.985,0.665 9.8641,-3.048 9.8641,-8.4788 v -9.5872 z m 51.2609,-17.2347 c -5.3202,-1.1638 -9.8644,-2.2167 -9.8644,-5.3755 0,-3.2141 4.2118,-4.5996 7.0934,-4.5996 4.2671,0 8.7005,2.0505 8.7005,5.4309 v 0.8867 h 9.8089 v -0.8867 c 0,-8.4235 -7.2043,-14.353 -17.5118,-14.353 -11.1943,0 -18.4539,5.6525 -18.4539,14.353 0,8.368 8.8112,10.4738 15.8493,12.1363 5.5417,1.3301 10.3075,2.4383 10.3075,5.7634 0,4.0455 -3.99,5.2092 -7.9246,5.2092 -4.1563,0 -8.3125,-1.33 -8.3125,-5.2092 v -0.8867 h -10.6402 v 0.8867 c 0,8.0355 6.7056,14.2976 17.4564,14.2976 12.9123,0 19.6176,-6.2067 19.6176,-15.0734 0,-8.9777 -8.922,-10.9726 -16.1262,-12.5797 z m 41.3965,26.8219 14.8518,-44.8324 h -9.4209 l -10.7509,32.3634 -10.6955,-32.3634 h -9.4209 l 14.7963,44.8324 z m 17.0131,-44.8324 v 44.8324 h 32.0311 v -8.9221 h -22.3331 v -9.9752 l 18.6201,0.055 v -8.9222 l -18.6201,-0.1109 v -7.98 h 22.3331 v -8.9775 z m 47.1045,35.8548 v -35.8548 h -9.9197 v 44.8324 h 31.8095 v -8.9776 z m 15.9602,-35.8548 v 8.9775 h 15.6276 v 35.8549 h 9.9196 v -35.8549 h 15.6277 v -8.9775 z m 44.2228,0 v 44.8324 h 32.0311 v -8.9221 h -22.3331 v -9.9752 l 18.6202,0.055 v -8.9222 l -18.6202,-0.1109 v -7.98 h 22.3331 v -8.9775 z m 57.8,18.2877 16.8469,-18.2877 h -10.9727 l -17.0683,18.6201 v -18.6201 h -9.421 v 44.8324 h 9.421 v -14.3531 l 4.8766,-5.32 14.0761,19.6731 h 11.0834 z m 30.0361,-18.2877 h -9.1992 v 44.8324 h 9.1992 z m 2.9926,0 v 8.9775 h 15.6276 v 35.8549 h 9.9197 v -35.8549 h 15.6276 v -8.9775 z"
       id="text29"
       style="font-weight:bold;font-size:84.2909px;line-height:1;font-family:'Neutral Face';-inkscape-font-specification:'Neutral Face Bold';stroke-width:1"
       aria-label="SVelte, Sveltekit" /><rect
       style="opacity:1;fill:#e0ebe9;fill-opacity:0.75;stroke-width:15;stroke-linecap:round;stroke-linejoin:round;stroke-miterlimit:4.7"
       id="rect6"
       width="398.11353"
       height="47.002777"
       x="3693.4734"
       y="5954.1538" /><path
       d="m 3761.7176,5999.9285 h 4.1563 l 15.5168,-39.6233 -0.055,39.6233 h 4.5996 v -44.8326 h -7.315 l -14.7964,38.4042 -14.9072,-38.4042 h -7.2597 v 44.8326 h 4.5442 v -39.6233 z m 34.1925,-33.7491 c 0,-4.8767 4.2671,-7.4259 10.363,-7.4259 6.2067,0 9.9197,3.7129 9.9197,8.6451 h 4.5442 c 0,-7.703 -5.5417,-13.1893 -14.4639,-13.1893 -9.5317,0 -14.9072,5.2092 -14.9072,11.8038 0,18.3431 26.8773,8.4234 26.8773,21.0586 0,4.7104 -3.0479,9.2546 -11.3051,9.2546 -7.6476,0 -12.1363,-4.9875 -12.1363,-9.698 h -4.5443 c 0,6.5393 5.4863,14.2422 16.2373,14.2422 12.0809,0 16.2372,-7.4259 16.2372,-13.2447 0,-18.1214 -26.8219,-8.1463 -26.8219,-21.4464 z m 71.599,-11.9701 c -5.8742,0 -11.1388,2.0504 -14.9072,5.8742 -4.0455,4.2117 -6.2067,10.1968 -6.2067,17.4564 0,14.1868 8.2571,23.3306 21.1139,23.3306 10.1968,0 21.114,-6.1513 21.114,-23.3306 0,-14.4085 -8.3126,-23.3306 -21.114,-23.3306 z m 0,42.117 c -8.1463,0 -16.5697,-4.9321 -16.5697,-18.7864 0,-13.4664 8.4234,-18.7864 16.5697,-18.7864 8.0909,0 16.5144,4.8213 16.5144,18.7864 0,12.0255 -6.1514,18.7864 -16.5144,18.7864 z m 50.8176,-18.2876 v -4.3226 h -20.6706 v -14.2422 h 25.0486 v -4.378 h -29.5374 v 44.8326 h 4.4888 v -21.8898 z m 32.6408,0 v -4.3226 h -20.6706 v -14.2422 h 25.0485 v -4.378 h -29.5373 v 44.8326 h 4.4888 v -21.8898 z m 12.0255,21.8898 v -44.8326 h -4.5442 v 44.8326 z m 41.5075,-16.3481 c -1.7733,8.2017 -7.4813,12.7459 -15.9601,12.7459 -8.0909,0 -16.5144,-4.9321 -16.5144,-18.8418 0,-13.411 8.4235,-18.7864 16.5144,-18.7864 6.5392,0 13.3001,3.1587 15.683,11.6376 h 4.6551 c -2.3275,-10.1414 -9.7534,-16.1819 -20.2827,-16.1819 -5.8742,0 -11.1389,2.1059 -14.9072,5.9297 -4.0455,4.1563 -6.2068,10.1968 -6.2068,17.401 0,14.1868 8.2572,23.386 21.114,23.386 8.8667,0 18.2877,-4.655 20.5598,-17.2901 z m 13.3001,-24.1065 h 25.6028 v -4.378 h -30.0916 v 44.8326 h 30.0916 v -4.3226 h -25.6028 v -17.6227 l 21.5573,0.1109 v -4.378 h -21.5573 z"
       id="text67"
       style="font-size:55.4172px;line-height:1;font-family:'Neutral Face';-inkscape-font-specification:'Neutral Face'"
       aria-label="MS Office" /><rect
       style="opacity:1;fill:#e0ebe9;fill-opacity:0.75;stroke-width:15;stroke-linecap:round;stroke-linejoin:round;stroke-miterlimit:4.7"
       id="rect2"
       width="645.10864"
       height="47.002777"
       x="3693.4729"
       y="5745.7725" /><path
       d="m 3747.3092,5757.7426 c 0,-4.8767 4.2672,-7.4259 10.3631,-7.4259 6.2067,0 9.9196,3.713 9.9196,8.6451 h 4.5442 c 0,-7.703 -5.5417,-13.1893 -14.4638,-13.1893 -9.5318,0 -14.9073,5.2092 -14.9073,11.8039 0,18.3431 26.8774,8.4234 26.8774,21.0585 0,4.7105 -3.048,9.2547 -11.3051,9.2547 -7.6476,0 -12.1364,-4.9876 -12.1364,-9.698 h -4.5442 c 0,6.5392 5.4863,14.2422 16.2372,14.2422 12.081,0 16.2373,-7.4259 16.2373,-13.2447 0,-18.1214 -26.822,-8.1463 -26.822,-21.4465 z m 59.629,-11.0834 -13.7435,39.6233 -13.7435,-39.6233 h -4.8767 l 15.5723,44.8879 h 6.0959 l 15.5168,-44.8879 z m 12.4135,4.378 h 25.6027 v -4.378 h -30.0915 v 44.8325 h 30.0915 v -4.3225 h -25.6027 v -17.6227 l 21.5572,0.1108 v -4.3779 h -21.5572 z m 36.132,-4.378 h -4.4888 v 44.8325 h 29.8144 v -4.3225 h -25.3256 z m 61.0697,4.378 v -4.378 h -42.0616 v 4.378 h 18.731 v 40.4545 h 4.5442 v -40.4545 z m 7.3706,0 h 25.6027 v -4.378 h -30.0915 v 44.8325 h 30.0915 v -4.3225 h -25.6027 v -17.6227 l 21.5573,0.1108 v -4.3779 h -21.5573 z m 32.5299,34.3586 v 6.0959 h 3.9346 c -0.1663,2.4384 -2.2721,4.1009 -4.8213,3.4359 v 1.9396 c 3.3805,0.7758 6.8163,-1.3855 6.8163,-5.3755 v -6.0959 z m 36.7416,-27.6532 c 0,-4.8767 4.2671,-7.4259 10.363,-7.4259 6.2067,0 9.9197,3.713 9.9197,8.6451 h 4.5442 c 0,-7.703 -5.5417,-13.1893 -14.4639,-13.1893 -9.5318,0 -14.9072,5.2092 -14.9072,11.8039 0,18.3431 26.8773,8.4234 26.8773,21.0585 0,4.7105 -3.0479,9.2547 -11.3051,9.2547 -7.6476,0 -12.1364,-4.9876 -12.1364,-9.698 h -4.5442 c 0,6.5392 5.4863,14.2422 16.2373,14.2422 12.0809,0 16.2372,-7.4259 16.2372,-13.2447 0,-18.1214 -26.8219,-8.1463 -26.8219,-21.4465 z m 59.6289,-11.0834 -13.7435,39.6233 -13.7434,-39.6233 h -4.8767 l 15.5722,44.8879 h 6.0959 l 15.5168,-44.8879 z m 12.4135,4.378 h 25.6027 v -4.378 h -30.0915 v 44.8325 h 30.0915 v -4.3225 h -25.6027 v -17.6227 l 21.5573,0.1108 v -4.3779 h -21.5573 z m 36.132,-4.378 h -4.4888 v 44.8325 h 29.8145 v -4.3225 h -25.3257 z m 61.0698,4.378 v -4.378 h -42.0617 v 4.378 h 18.731 v 40.4545 h 4.5442 v -40.4545 z m 7.3705,0 h 25.6027 v -4.378 h -30.0915 v 44.8325 h 30.0915 v -4.3225 h -25.6027 v -17.6227 l 21.5573,0.1108 v -4.3779 h -21.5573 z m 36.132,20.4489 v -24.8269 h -4.4888 v 44.8325 h 4.4888 v -13.3001 l 9.033,-9.8643 16.4035,23.1644 h 5.4863 l -18.7864,-26.5448 16.736,-18.2877 h -6.1513 z m 38.4596,20.0056 v -44.8325 h -4.5442 v 44.8325 z m 45.9963,-40.4545 v -4.378 h -42.0617 v 4.378 h 18.731 v 40.4545 h 4.5443 v -40.4545 z"
       id="text68"
       style="font-size:55.4172px;line-height:1;font-family:'Neutral Face';-inkscape-font-specification:'Neutral Face'"
       aria-label="Svelte, Sveltekit" /><rect
       style="opacity:1;fill:#e0ebe9;fill-opacity:0.75;stroke-width:15;stroke-linecap:round;stroke-linejoin:round;stroke-miterlimit:4.7"
       id="rect7"
       width="437.07202"
       height="47.002777"
       x="3693.4729"
       y="5537.3906" /><path
       d="m 3754.4581,5584.0519 c 11.693,0 12.9676,-5.043 12.9676,-18.731 v -26.9882 h -4.5442 v 27.1544 c 0,10.4185 -0.3879,14.0206 -8.4788,14.0206 -8.368,0 -8.6451,-3.325 -8.6451,-10.8618 h -4.1009 c 0,10.2522 1.4409,15.406 12.8014,15.406 z m 43.8904,-13.7435 4.5996,12.8568 h 4.8768 l -16.7915,-44.8325 h -5.0429 l -16.7914,44.8325 h 4.7658 l 4.5997,-12.8568 z m -9.8643,-27.764 8.3126,23.3861 h -16.6251 z m 47.9359,-4.2117 -13.7435,39.6233 -13.7435,-39.6233 h -4.8767 l 15.5723,44.8879 h 6.0958 l 15.5169,-44.8879 z m 29.3711,31.9757 4.5996,12.8568 h 4.8767 l -16.7914,-44.8325 h -5.043 l -16.7914,44.8325 h 4.7659 l 4.5996,-12.8568 z m -9.8643,-27.764 8.3126,23.3861 h -16.6252 z m 25.6582,6.8718 c 0,-4.8768 4.2671,-7.4259 10.363,-7.4259 6.2067,0 9.9197,3.7129 9.9197,8.645 h 4.5442 c 0,-7.703 -5.5417,-13.1893 -14.4639,-13.1893 -9.5317,0 -14.9072,5.2093 -14.9072,11.8039 0,18.3431 26.8773,8.4234 26.8773,21.0585 0,4.7105 -3.0479,9.2547 -11.3051,9.2547 -7.6476,0 -12.1364,-4.9875 -12.1364,-9.698 h -4.5442 c 0,6.5392 5.4863,14.2422 16.2373,14.2422 12.0809,0 16.2372,-7.4259 16.2372,-13.2447 0,-18.1214 -26.8219,-8.1463 -26.8219,-21.4464 z m 66.6669,17.401 c -1.7733,8.2017 -7.4813,12.7459 -15.9601,12.7459 -8.0909,0 -16.5143,-4.9321 -16.5143,-18.8418 0,-13.411 8.4234,-18.7865 16.5143,-18.7865 6.5392,0 13.3001,3.1588 15.683,11.6376 h 4.6551 c -2.3275,-10.1413 -9.7534,-16.1818 -20.2827,-16.1818 -5.8742,0 -11.1389,2.1059 -14.9072,5.9297 -4.0455,4.1563 -6.2068,10.1967 -6.2068,17.401 0,14.1868 8.2572,23.386 21.114,23.386 8.8667,0 18.2877,-4.655 20.5598,-17.2901 z m 32.0312,-3.2142 h -5.2093 l 10.8064,19.6176 h 5.3201 z m 9.9751,-12.6352 c 0,-9.4209 -9.033,-12.6351 -14.6856,-12.6351 l -18.5093,0.055 v 44.8325 h 4.5996 v -19.6176 h 3.4359 15.1843 c 3.325,-0.4988 9.9751,-3.2142 9.9751,-12.6352 z m -13.7989,8.091 h -14.7964 v -16.071 h 14.7964 c 4.8213,0 9.2547,3.1587 9.2547,7.98 0,5.708 -3.1034,8.091 -9.2547,8.091 z m 23.3306,24.1064 v -44.8325 h -4.5442 v 44.8325 z m 24.2173,-44.8325 h -18.1769 v 44.8879 h 4.5997 v -18.6201 h 13.6326 c 9.5872,0 14.6301,-6.5947 14.6301,-13.0231 0,-6.4284 -5.1538,-13.2447 -14.6855,-13.2447 z m 0.8867,21.6681 h -14.4639 v -17.1239 h 14.4639 c 4.3225,0 9.31,2.9926 9.31,8.7005 0,5.6526 -4.9321,8.4234 -9.31,8.4234 z m 57.4676,-17.2901 v -4.378 h -42.0617 v 4.378 h 18.731 v 40.4545 h 4.5443 v -40.4545 z"
       id="text70"
       style="font-size:55.4172px;line-height:1;font-family:'Neutral Face';-inkscape-font-specification:'Neutral Face'"
       aria-label="Javascript" /><rect
       style="opacity:1;fill:#e0ebe9;fill-opacity:0.75;stroke-width:15;stroke-linecap:round;stroke-linejoin:round;stroke-miterlimit:4.7"
       id="rect4"
       width="363.42212"
       height="47.002777"
       x="3693.4734"
       y="5120.6279" /><rect
       style="opacity:1;fill:#e0ebe9;fill-opacity:0.75;stroke-width:15;stroke-linecap:round;stroke-linejoin:round;stroke-miterlimit:4.7"
       id="rect5"
       width="406.70309"
       height="47.002777"
       x="3693.4729"
       y="5329.0093" /><path
       d="m 3768.2016,5142.2052 c 4.3225,-1.4962 5.7079,-6.1513 5.7079,-9.033 0,-6.5392 -4.9321,-12.6351 -12.7459,-12.6351 h -16.9577 v 44.8325 h 17.5673 c 10.363,0 14.8518,-4.7104 14.8518,-11.8038 0,-4.9876 -1.7734,-10.3631 -8.4234,-11.3606 z m -8.368,-17.2347 c 6.373,0 9.4763,3.2142 9.4763,7.703 0,5.708 -3.325,7.5921 -9.5317,7.5921 -2.7155,0 -7.4814,0 -11.0835,0 v -15.2951 z m 2.7708,36.0212 h -13.9097 v -16.3481 h 13.7989 c 6.0959,0 9.6426,4.0455 9.6426,8.5897 0,5.5971 -3.8792,7.7584 -9.5318,7.7584 z m 23.3307,-40.4546 h -4.4888 v 44.8325 h 29.8145 v -4.3225 h -25.3257 z m 32.6962,4.378 h 25.6027 v -4.378 h -30.0915 v 44.8325 h 30.0915 v -4.3225 h -25.6027 v -17.6227 l 21.5573,0.1109 v -4.378 h -21.5573 z m 63.4527,40.4545 h 5.9296 v -44.8325 h -4.5442 v 39.6233 l -27.2098,-39.6233 h -5.9851 v 44.8325 h 4.5442 v -39.6233 z m 49.543,-22.3885 c 0,-12.3581 -9.5317,-22.444 -21.2248,-22.444 h -16.348 v 44.8325 h 16.348 c 11.6931,0 21.2248,-10.0305 21.2248,-22.3885 z m -33.084,-18.1214 h 11.2496 c 8.7005,0 16.9577,7.5367 17.2348,17.5118 v 0.055 0.055 0.1109 c 0,0.1108 0,0.277 0,0.3879 0,0.4987 0,0.9421 0,1.33 l -0.055,0.1108 v 0.055 c 0,0.056 0,0.056 0,0.1109 v 0.055 0.1662 c -0.8867,9.4764 -8.9776,16.2373 -17.1794,16.2373 h -11.2496 z m 41.8399,0.055 h 25.6027 v -4.378 h -30.0915 v 44.8325 h 30.0915 v -4.3225 h -25.6027 v -17.6227 l 21.5573,0.1109 v -4.378 h -21.5573 z m 54.863,20.8923 h -5.2092 l 10.8064,19.6176 h 5.32 z m 9.9751,-12.6352 c 0,-9.4209 -9.033,-12.6351 -14.6855,-12.6351 l -18.5094,0.055 v 44.8325 h 4.5997 v -19.6176 h 3.4358 15.1843 c 3.3251,-0.4988 9.9751,-3.2142 9.9751,-12.6352 z m -13.7988,8.0909 h -14.7964 v -16.0709 h 14.7964 c 4.8213,0 9.2546,3.1587 9.2546,7.98 0,5.708 -3.1033,8.0909 -9.2546,8.0909 z"
       id="text71"
       style="font-size:55.4172px;line-height:1;font-family:'Neutral Face';-inkscape-font-specification:'Neutral Face'"
       aria-label="Blender" /><rect
       style="opacity:1;fill:#e0ebe9;fill-opacity:0.75;stroke-width:15;stroke-linecap:round;stroke-linejoin:round;stroke-miterlimit:4.7"
       id="rect3"
       width="460.07129"
       height="47.002777"
       x="3693.4734"
       y="4912.2461" /><path
       d="m 3762.3828,4913.4743 h -18.1769 v 44.888 h 4.5997 v -18.6202 h 13.6326 c 9.5872,0 14.6301,-6.5947 14.6301,-13.0231 0,-6.4284 -5.1538,-13.2447 -14.6855,-13.2447 z m 0.8866,21.6682 h -14.4638 v -17.124 h 14.4638 c 4.3226,0 9.3101,2.9926 9.3101,8.7005 0,5.6526 -4.9321,8.4235 -9.3101,8.4235 z m 47.548,23.1643 h 4.5442 v -44.8325 h -4.5442 v 18.6202 h -25.4919 v -18.6202 h -4.5442 v 44.8325 h 4.5442 v -21.8898 h 25.4919 z m 30.1469,-45.7191 c -5.8742,0 -11.1388,2.0504 -14.9072,5.8742 -4.0455,4.2117 -6.2067,10.1967 -6.2067,17.4564 0,14.1868 8.2571,23.3306 21.1139,23.3306 10.1968,0 21.114,-6.1513 21.114,-23.3306 0,-14.4085 -8.3126,-23.3306 -21.114,-23.3306 z m 0,42.117 c -8.1463,0 -16.5697,-4.9321 -16.5697,-18.7864 0,-13.4664 8.4234,-18.7864 16.5697,-18.7864 8.0909,0 16.5144,4.8213 16.5144,18.7864 0,12.0255 -6.1514,18.7864 -16.5144,18.7864 z m 63.2311,-36.8524 v -4.378 h -42.0617 v 4.378 h 18.7311 v 40.4545 h 4.5442 v -40.4545 z m 19.9502,-5.2646 c -5.8742,0 -11.1388,2.0504 -14.9072,5.8742 -4.0455,4.2117 -6.2067,10.1967 -6.2067,17.4564 0,14.1868 8.2571,23.3306 21.1139,23.3306 10.1968,0 21.114,-6.1513 21.114,-23.3306 0,-14.4085 -8.3126,-23.3306 -21.114,-23.3306 z m 0,42.117 c -8.1463,0 -16.5697,-4.9321 -16.5697,-18.7864 0,-13.4664 8.4234,-18.7864 16.5697,-18.7864 8.0909,0 16.5143,4.8213 16.5143,18.7864 0,12.0255 -6.1513,18.7864 -16.5143,18.7864 z m 29.5928,-30.1469 c 0,-4.8767 4.2671,-7.4259 10.363,-7.4259 6.2068,0 9.9197,3.7129 9.9197,8.645 h 4.5442 c 0,-7.7029 -5.5417,-13.1892 -14.4639,-13.1892 -9.5317,0 -14.9072,5.2092 -14.9072,11.8038 0,18.3431 26.8773,8.4234 26.8773,21.0586 0,4.7104 -3.0479,9.2546 -11.3051,9.2546 -7.6475,0 -12.1363,-4.9875 -12.1363,-9.698 h -4.5442 c 0,6.5392 5.4863,14.2422 16.2372,14.2422 12.0809,0 16.2372,-7.4259 16.2372,-13.2447 0,-18.1214 -26.8219,-8.1463 -26.8219,-21.4464 z m 61.2361,33.749 h 4.5442 v -44.8325 h -4.5442 v 18.6202 h -25.492 v -18.6202 h -4.5442 v 44.8325 h 4.5442 v -21.8898 h 25.492 z m 30.1469,-45.7191 c -5.8742,0 -11.1389,2.0504 -14.9072,5.8742 -4.0455,4.2117 -6.2067,10.1967 -6.2067,17.4564 0,14.1868 8.2571,23.3306 21.1139,23.3306 10.1968,0 21.114,-6.1513 21.114,-23.3306 0,-14.4085 -8.3126,-23.3306 -21.114,-23.3306 z m 0,42.117 c -8.1463,0 -16.5697,-4.9321 -16.5697,-18.7864 0,-13.4664 8.4234,-18.7864 16.5697,-18.7864 8.0909,0 16.5143,4.8213 16.5143,18.7864 0,12.0255 -6.1513,18.7864 -16.5143,18.7864 z m 43.835,-41.2304 h -18.1768 v 44.888 h 4.5996 v -18.6202 h 13.6326 c 9.5872,0 14.6302,-6.5947 14.6302,-13.0231 0,-6.4284 -5.1538,-13.2447 -14.6856,-13.2447 z m 0.8867,21.6682 h -14.4639 v -17.124 h 14.4639 c 4.3225,0 9.3101,2.9926 9.3101,8.7005 0,5.6526 -4.9322,8.4235 -9.3101,8.4235 z"
       id="text72"
       style="font-size:55.4172px;line-height:1;font-family:'Neutral Face';-inkscape-font-specification:'Neutral Face'"
       aria-label="Photoshop" /><path
       d="m 3748.7501,4749.6393 v -44.8325 h -4.5442 v 44.8325 z m 10.5293,-44.8325 h -4.4888 v 44.8325 h 29.8145 v -4.3225 h -25.3257 z m 32.6962,0 h -4.4888 v 44.8325 h 29.8144 v -4.3225 h -25.3256 z m 56.858,28.2628 c 0,7.9246 -4.3225,12.9122 -13.0784,12.9122 -8.7005,0 -13.0785,-4.9322 -13.0785,-12.9122 v -28.3182 h -4.5442 v 27.4869 c 0,6.3176 2.1613,18.2877 17.6227,18.2877 15.5168,0 17.678,-11.9701 17.678,-18.2877 v -27.4869 h -4.5996 z m 14.076,-17.1794 c 0,-4.8767 4.2671,-7.4259 10.363,-7.4259 6.2068,0 9.9197,3.713 9.9197,8.6451 h 4.5442 c 0,-7.703 -5.5417,-13.1893 -14.4639,-13.1893 -9.5317,0 -14.9072,5.2092 -14.9072,11.8039 0,18.3431 26.8773,8.4234 26.8773,21.0585 0,4.7105 -3.0479,9.2547 -11.3051,9.2547 -7.6475,0 -12.1363,-4.9876 -12.1363,-9.698 h -4.5442 c 0,6.5392 5.4863,14.2422 16.2372,14.2422 12.081,0 16.2372,-7.4259 16.2372,-13.2447 0,-18.1214 -26.8219,-8.1464 -26.8219,-21.4465 z m 70.269,-6.7055 v -4.3779 h -42.0616 v 4.3779 h 18.731 v 40.4546 h 4.5442 v -40.4546 z m 26.1016,20.8923 h -5.2093 l 10.8064,19.6177 h 5.32 z m 9.9751,-12.6351 c 0,-9.4209 -9.033,-12.6351 -14.6856,-12.6351 l -18.5093,0.055 v 44.8325 h 4.5996 v -19.6177 h 3.4358 15.1844 c 3.325,-0.4987 9.9751,-3.2142 9.9751,-12.6351 z m -13.7989,8.0909 H 3940.66 v -16.071 h 14.7964 c 4.8213,0 9.2546,3.1588 9.2546,7.9801 0,5.708 -3.1033,8.0909 -9.2546,8.0909 z m 44.9987,11.2497 4.5996,12.8568 h 4.8767 l -16.7914,-44.8325 h -5.0429 l -16.7915,44.8325 h 4.7659 l 4.5997,-12.8568 z m -9.8643,-27.764 8.3126,23.386 h -16.6251 z m 56.6918,0.1662 v -4.3779 h -42.0616 v 4.3779 h 18.731 v 40.4546 h 4.5442 v -40.4546 z m 19.9503,-5.2646 c -5.8743,0 -11.1389,2.0504 -14.9073,5.8742 -4.0454,4.2117 -6.2067,10.1968 -6.2067,17.4564 0,14.1868 8.2572,23.3307 21.114,23.3307 10.1967,0 21.1139,-6.1513 21.1139,-23.3307 0,-14.4084 -8.3126,-23.3306 -21.1139,-23.3306 z m 0,42.1171 c -8.1464,0 -16.5698,-4.9322 -16.5698,-18.7865 0,-13.4663 8.4234,-18.7864 16.5698,-18.7864 8.0909,0 16.5143,4.8213 16.5143,18.7864 0,12.0256 -6.1513,18.7865 -16.5143,18.7865 z m 48.8779,-15.9602 h -5.2092 l 10.8064,19.6177 h 5.32 z m 9.9751,-12.6351 c 0,-9.4209 -9.033,-12.6351 -14.6855,-12.6351 l -18.5094,0.055 v 44.8325 h 4.5997 v -19.6177 h 3.4358 15.1843 c 3.3251,-0.4987 9.9751,-3.2142 9.9751,-12.6351 z m -13.7988,8.0909 h -14.7964 v -16.071 h 14.7964 c 4.8213,0 9.2546,3.1588 9.2546,7.9801 0,5.708 -3.1033,8.0909 -9.2546,8.0909 z m 19.673,18.0106 v 6.0959 h 3.9346 c -0.1662,2.4383 -2.2721,4.1009 -4.8213,3.4359 v 1.9396 c 3.3805,0.7758 6.8164,-1.3855 6.8164,-5.3755 v -6.0959 z m 37.3512,6.0959 v -44.8325 h -4.5442 v 44.8325 z m 37.8499,0 h 5.9297 v -44.8325 h -4.5442 v 39.6233 l -27.2099,-39.6233 h -5.985 v 44.8325 h 4.5442 v -39.6233 z m 16.459,-20.0056 v -24.8269 h -4.4888 v 44.8325 h 4.4888 v -13.3001 l 9.033,-9.8643 16.4035,23.1644 h 5.4863 l -18.7864,-26.5448 16.736,-18.2877 h -6.1514 z m 36.0212,-13.7435 c 0,-4.8767 4.2671,-7.4259 10.363,-7.4259 6.2067,0 9.9197,3.713 9.9197,8.6451 h 4.5442 c 0,-7.703 -5.5417,-13.1893 -14.4639,-13.1893 -9.5318,0 -14.9072,5.2092 -14.9072,11.8039 0,18.3431 26.8773,8.4234 26.8773,21.0585 0,4.7105 -3.0479,9.2547 -11.3051,9.2547 -7.6476,0 -12.1364,-4.9876 -12.1364,-9.698 h -4.5442 c 0,6.5392 5.4863,14.2422 16.2373,14.2422 12.0809,0 16.2372,-7.4259 16.2372,-13.2447 0,-18.1214 -26.8219,-8.1464 -26.8219,-21.4465 z m 66.6669,17.401 c -1.7733,8.2018 -7.4813,12.746 -15.9601,12.746 -8.091,0 -16.5144,-4.9322 -16.5144,-18.8419 0,-13.4109 8.4234,-18.7864 16.5144,-18.7864 6.5392,0 13.3001,3.1588 15.683,11.6376 h 4.6551 c -2.3276,-10.1413 -9.7535,-16.1818 -20.2827,-16.1818 -5.8743,0 -11.1389,2.1058 -14.9073,5.9296 -4.0454,4.1563 -6.2067,10.1968 -6.2067,17.401 0,14.1868 8.2572,23.3861 21.114,23.3861 8.8667,0 18.2876,-4.6551 20.5598,-17.2902 z m 33.3057,3.4913 4.5996,12.8568 h 4.8767 l -16.7914,-44.8325 h -5.0429 l -16.7914,44.8325 h 4.7658 l 4.5997,-12.8568 z m -9.8643,-27.764 8.3126,23.386 h -16.6251 z m 40.5654,-4.2117 h -18.1768 v 44.8879 h 4.5996 v -18.6202 h 13.6327 c 9.5871,0 14.6301,-6.5946 14.6301,-13.023 0,-6.4284 -5.1538,-13.2447 -14.6856,-13.2447 z m 0.8867,21.6681 h -14.4639 v -17.1239 h 14.4639 c 4.3226,0 9.3101,2.9925 9.3101,8.7005 0,5.6525 -4.9321,8.4234 -9.3101,8.4234 z m 22.0006,-17.2902 h 25.6028 v -4.3779 h -30.0916 v 44.8325 h 30.0916 v -4.3225 h -25.6028 v -17.6227 l 21.5573,0.1108 v -4.3779 h -21.5573 z"
       id="text73"
       style="font-size:55.4172px;line-height:1;font-family:'Neutral Face';-inkscape-font-specification:'Neutral Face'"
       aria-label="Illustrator, Inkscape" /><text
       xml:space="preserve"
       style="font-style:normal;font-variant:normal;font-weight:normal;font-stretch:normal;font-size:55.4172px;line-height:1;font-family:'Neutral Face';-inkscape-font-specification:'Neutral Face';stroke-width:1"
       x="1386.3129"
       y="4591.2378"
       id="text69"><tspan
         sodipodi:role="line"
         id="tspan69"
         x="1386.3129"
         y="4591.2378"
         style="font-style:normal;font-variant:normal;font-weight:normal;font-stretch:normal;font-family:'Neutral Face';-inkscape-font-specification:'Neutral Face';stroke-width:1">Illustrator, Inkscape</tspan></text><path
       d="m 3771.6927,5374.9277 h 4.5442 v -44.8325 h -4.5442 v 18.6202 h -25.4919 v -18.6202 h -4.5442 v 44.8325 h 4.5442 v -21.8898 h 25.4919 z m 50.5405,-40.4546 v -4.3779 h -42.0617 v 4.3779 h 18.7311 v 40.4546 h 4.5442 v -40.4546 z m 22.9428,40.4546 h 4.1563 l 15.5168,-39.6233 -0.055,39.6233 h 4.5997 v -44.8325 h -7.3151 l -14.7964,38.4041 -14.9072,-38.4041 h -7.2597 v 44.8325 h 4.5442 v -39.6233 z m 34.7466,-44.8325 h -4.4888 v 44.8325 h 29.8145 v -4.3226 h -25.3257 z m 29.094,38.7366 v 6.0959 h 3.9347 c -0.1663,2.4383 -2.2721,4.1009 -4.8213,3.4359 v 1.9396 c 3.3804,0.7758 6.8163,-1.3855 6.8163,-5.3755 v -6.0959 z m 68.274,-10.2522 c -1.7733,8.2018 -7.4813,12.746 -15.9601,12.746 -8.091,0 -16.5144,-4.9322 -16.5144,-18.8419 0,-13.4109 8.4234,-18.7864 16.5144,-18.7864 6.5392,0 13.3001,3.1588 15.683,11.6376 h 4.6551 c -2.3276,-10.1413 -9.7535,-16.1818 -20.2827,-16.1818 -5.8743,0 -11.1389,2.1058 -14.9073,5.9296 -4.0454,4.1563 -6.2067,10.1968 -6.2067,17.401 0,14.1868 8.2572,23.3861 21.114,23.3861 8.8667,0 18.2876,-4.6551 20.5598,-17.2902 z m 12.746,-17.401 c 0,-4.8767 4.2671,-7.4259 10.363,-7.4259 6.2067,0 9.9196,3.713 9.9196,8.6451 h 4.5443 c 0,-7.703 -5.5418,-13.1893 -14.4639,-13.1893 -9.5318,0 -14.9073,5.2092 -14.9073,11.8039 0,18.3431 26.8774,8.4234 26.8774,21.0585 0,4.7105 -3.048,9.2547 -11.3051,9.2547 -7.6476,0 -12.1364,-4.9876 -12.1364,-9.698 h -4.5442 c 0,6.5392 5.4863,14.2422 16.2372,14.2422 12.081,0 16.2373,-7.4259 16.2373,-13.2447 0,-18.1215 -26.8219,-8.1464 -26.8219,-21.4465 z m 35.1345,0 c 0,-4.8767 4.2671,-7.4259 10.363,-7.4259 6.2067,0 9.9197,3.713 9.9197,8.6451 h 4.5442 c 0,-7.703 -5.5417,-13.1893 -14.4639,-13.1893 -9.5318,0 -14.9072,5.2092 -14.9072,11.8039 0,18.3431 26.8773,8.4234 26.8773,21.0585 0,4.7105 -3.0479,9.2547 -11.3051,9.2547 -7.6476,0 -12.1364,-4.9876 -12.1364,-9.698 h -4.5442 c 0,6.5392 5.4863,14.2422 16.2373,14.2422 12.0809,0 16.2372,-7.4259 16.2372,-13.2447 0,-18.1215 -26.8219,-8.1464 -26.8219,-21.4465 z"
       id="text22"
       style="font-size:55.4172px;line-height:1;font-family:'Neutral Face';-inkscape-font-specification:'Neutral Face'"
       aria-label="Html, Css" /><path
       d="m 1425.2156,5908.0402 -12.7459,35.3007 -12.8014,-35.3007 h -10.3629 v 44.8323 h 9.4209 v -25.7135 l 10.0305,25.7135 h 7.4259 l 10.0305,-25.6581 v 25.6581 h 9.4209 v -44.8323 z m 35.0237,18.0104 c -5.3201,-1.1637 -9.8643,-2.2166 -9.8643,-5.3754 0,-3.2142 4.2117,-4.5995 7.0934,-4.5995 4.2672,0 8.7005,2.0505 8.7005,5.4309 v 0.8866 h 9.8088 v -0.8866 c 0,-8.4233 -7.2042,-14.3531 -17.5118,-14.3531 -11.1943,0 -18.4539,5.6526 -18.4539,14.3531 0,8.3681 8.8114,10.4737 15.8493,12.1363 5.5417,1.3301 10.3076,2.4383 10.3076,5.7634 0,4.0455 -3.9901,5.2094 -7.9246,5.2094 -4.1564,0 -8.3127,-1.3302 -8.3127,-5.2094 v -0.8867 h -10.64 v 0.8867 c 0,8.0355 6.7055,14.2977 17.4564,14.2977 12.9122,0 19.6177,-6.2068 19.6177,-15.0735 0,-8.9777 -8.9222,-10.9727 -16.1264,-12.5799 z m 58.7976,-18.9526 c -11.6929,0 -21.3356,8.3681 -21.3356,23.3308 0,15.2951 9.6427,23.2752 21.3356,23.2752 11.693,0 21.391,-7.9246 21.391,-23.2752 0,-14.6856 -9.1437,-23.3308 -21.391,-23.3308 z m 0,37.3511 c -6.6501,0 -11.6929,-4.3779 -11.6929,-14.0204 0,-9.5872 5.0983,-14.0206 11.6929,-14.0206 6.65,0 11.693,4.4334 11.693,14.0206 0,9.6425 -4.9875,14.0204 -11.693,14.0204 z m 34.9128,8.4234 v -18.8972 h 16.6806 v -8.9776 h -16.6806 v -7.98 h 21.6127 v -8.9775 H 1544.03 v 44.8323 z m 33.9708,0 v -18.8972 h 16.6806 v -8.9776 h -16.6806 v -7.98 h 21.6127 v -8.9775 h -31.5324 v 44.8323 z m 33.2503,-44.8323 h -9.1993 v 44.8323 h 9.1993 z m 35.9103,26.7663 c -0.7203,6.5394 -5.3754,9.6426 -10.9725,9.6426 -6.6501,0 -11.693,-4.3779 -11.693,-14.0204 0,-9.5872 5.0983,-14.0206 11.693,-14.0206 5.1537,0 9.3654,2.7155 10.5292,8.3125 h 10.363 c -2.1058,-11.1388 -10.3076,-17.6226 -20.8922,-17.6226 -11.693,0 -21.3357,8.3681 -21.3357,23.3308 0,15.2951 9.6427,23.2752 21.3357,23.2752 10.5292,0 19.3959,-6.3731 21.1139,-18.8974 z m 13.4111,-26.7663 v 44.8323 h 32.0311 v -8.9221 h -22.3332 v -9.975 l 18.6202,0.055 v -8.9222 l -18.6202,-0.1109 v -7.98 h 22.3332 v -8.9775 z"
       id="text30"
       style="font-weight:bold;font-size:84.2909px;line-height:1;font-family:'Neutral Face';-inkscape-font-specification:'Neutral Face Bold';stroke-width:1"
       aria-label="MS Office" /><circle
       style="fill:#e0ebe9;fill-opacity:1;stroke:none;stroke-width:15;stroke-linecap:round;stroke-linejoin:round;stroke-miterlimit:4.7;stroke-dasharray:none;stroke-opacity:1"
       id="circle78"
       cx="3693.4734"
       cy="4727.3662"
       r="23.501314" /><circle
       style="fill:#e0ebe9;fill-opacity:1;stroke:none;stroke-width:15;stroke-linecap:round;stroke-linejoin:round;stroke-miterlimit:4.7;stroke-dasharray:none;stroke-opacity:1"
       id="circle1"
       cx="3693.4734"
       cy="4935.7476"
       r="23.501314" /><circle
       style="fill:#e0ebe9;fill-opacity:1;stroke:none;stroke-width:15;stroke-linecap:round;stroke-linejoin:round;stroke-miterlimit:4.7;stroke-dasharray:none;stroke-opacity:1"
       id="circle90"
       cx="3693.4734"
       cy="5144.1294"
       r="23.501314" /><circle
       style="fill:#e0ebe9;fill-opacity:1;stroke:none;stroke-width:15;stroke-linecap:round;stroke-linejoin:round;stroke-miterlimit:4.7;stroke-dasharray:none;stroke-opacity:1"
       id="circle81"
       cx="3693.4734"
       cy="5352.5107"
       r="23.501314" /><circle
       style="fill:#e0ebe9;fill-opacity:1;stroke:none;stroke-width:15;stroke-linecap:round;stroke-linejoin:round;stroke-miterlimit:4.7;stroke-dasharray:none;stroke-opacity:1"
       id="circle82"
       cx="3693.4734"
       cy="5560.8921"
       r="23.501314" /><circle
       style="fill:#e0ebe9;fill-opacity:1;stroke:none;stroke-width:15;stroke-linecap:round;stroke-linejoin:round;stroke-miterlimit:4.7;stroke-dasharray:none;stroke-opacity:1"
       id="circle83"
       cx="3693.4734"
       cy="5769.2739"
       r="23.501314" /><circle
       style="fill:#e0ebe9;fill-opacity:1;stroke:none;stroke-width:15;stroke-linecap:round;stroke-linejoin:round;stroke-miterlimit:4.7;stroke-dasharray:none;stroke-opacity:1"
       id="path73"
       cx="3693.4734"
       cy="5977.6553"
       r="23.501314" /><circle
       style="fill:#e0ebe9;fill-opacity:1;stroke:none;stroke-width:15;stroke-linecap:round;stroke-linejoin:round;stroke-miterlimit:4.7;stroke-dasharray:none;stroke-opacity:1"
       id="circle97"
       cx="4154.3745"
       cy="4935.7476"
       r="23.501314" /><circle
       style="fill:#e0ebe9;fill-opacity:1;stroke:none;stroke-width:15;stroke-linecap:round;stroke-linejoin:round;stroke-miterlimit:4.7;stroke-dasharray:none;stroke-opacity:1"
       id="circle94"
       cx="4100.1763"
       cy="5352.5107"
       r="23.501314" /><circle
       style="fill:#e0ebe9;fill-opacity:1;stroke:none;stroke-width:15;stroke-linecap:round;stroke-linejoin:round;stroke-miterlimit:4.7;stroke-dasharray:none;stroke-opacity:1"
       id="circle93"
       cx="4091.5869"
       cy="5977.7979"
       r="23.501314" /><circle
       style="fill:#e0ebe9;fill-opacity:1;stroke:none;stroke-width:15;stroke-linecap:round;stroke-linejoin:round;stroke-miterlimit:4.7;stroke-dasharray:none;stroke-opacity:1"
       id="circle96"
       cx="4338.5815"
       cy="5769.2739"
       r="23.501314" /><circle
       style="fill:#e0ebe9;fill-opacity:1;stroke:none;stroke-width:15;stroke-linecap:round;stroke-linejoin:round;stroke-miterlimit:4.7;stroke-dasharray:none;stroke-opacity:1"
       id="circle80"
       cx="4130.5449"
       cy="5560.8921"
       r="23.501314" /></g></svg>
