<?xml version="1.0" encoding="UTF-8" standalone="no"?>
<!-- Created with Inkscape (http://www.inkscape.org/) -->

<svg
   width="2989.5188"
   height="2625.7822"
   viewBox="0 0 790.97683 694.73821"
   version="1.1"
   id="svg1"
   sodipodi:docname="AboutMe_TitleDecorSVG.svg"
   xml:space="preserve"
   inkscape:version="1.3 (0e150ed6c4, 2023-07-21)"
   xmlns:inkscape="http://www.inkscape.org/namespaces/inkscape"
   xmlns:sodipodi="http://sodipodi.sourceforge.net/DTD/sodipodi-0.dtd"
   xmlns="http://www.w3.org/2000/svg"
   xmlns:svg="http://www.w3.org/2000/svg"><sodipodi:namedview
     id="namedview1"
     pagecolor="#505050"
     bordercolor="#000000"
     borderopacity="1"
     inkscape:showpageshadow="0"
     inkscape:pageopacity="0"
     inkscape:pagecheckerboard="0"
     inkscape:deskcolor="#747474"
     inkscape:document-units="mm"
     inkscape:zoom="0.22627417"
     inkscape:cx="901.56114"
     inkscape:cy="1173.3553"
     inkscape:window-width="1920"
     inkscape:window-height="1009"
     inkscape:window-x="-8"
     inkscape:window-y="-8"
     inkscape:window-maximized="1"
     inkscape:current-layer="layer1" /><defs
     id="defs1"><filter
       inkscape:collect="always"
       style="color-interpolation-filters:sRGB"
       id="filter1"
       x="-0.23935223"
       y="-0.33647896"
       width="1.4787045"
       height="1.6729579"><feGaussianBlur
         inkscape:collect="always"
         stdDeviation="53.624959"
         id="feGaussianBlur1" /></filter><filter
       inkscape:collect="always"
       style="color-interpolation-filters:sRGB"
       id="filter2"
       x="-0.16287981"
       y="-0.22897483"
       width="1.3257596"
       height="1.4579497"><feGaussianBlur
         inkscape:collect="always"
         stdDeviation="53.671985"
         id="feGaussianBlur2" /></filter><filter
       inkscape:collect="always"
       style="color-interpolation-filters:sRGB"
       id="filter5"
       x="-0.6704029"
       y="-0.94244568"
       width="2.3408058"
       height="2.8848914"><feGaussianBlur
         inkscape:collect="always"
         stdDeviation="150.19842"
         id="feGaussianBlur5" /></filter></defs><g
     inkscape:label="Слой 1"
     inkscape:groupmode="layer"
     id="layer1"
     transform="translate(-4405.006,-387.22831)"><path
       style="mix-blend-mode:normal;fill:#7d9b95;fill-opacity:1;stroke:none;stroke-width:0.399692px;stroke-linecap:butt;stroke-linejoin:miter;stroke-opacity:1;filter:url(#filter2)"
       d="m 4604.3341,526.59714 c 38.0828,-3.328 71.3114,28.4187 108.5907,36.8813 28.7361,6.5238 61.0214,-1.8493 87.777,10.4991 71.3474,32.9287 105.9884,119.1912 173.1677,159.9546 42.9365,26.053 103.5514,18.3977 141.7879,50.9594 25.992,22.1344 53.4525,55.7183 49.5512,89.6341 -5.1979,45.1878 -60.1428,68.2801 -91.4105,101.3149 -29.979,31.67336 -52.9916,73.70906 -92.1796,92.84676 -34.2154,16.7093 -81.8225,28.0557 -113.4168,13.6271 -28.2762,-12.9134 -35.3059,-47.7238 -61.2965,-59.1663 -37.7247,-16.6092 -83.4631,2.485 -123.4218,-7.6296 -44.4943,-11.263 -91.5974,-26.35246 -124.922,-57.91316 -39.6984,-37.5966 -41.997,-102.8205 -76.9735,-144.8455 -27.4184,-32.9442 -87.1581,-39.2884 -100.7039,-79.9528 -16.0075,-48.0546 0.071,-114.066 38.5745,-146.9747 23.9822,-20.4973 64.0393,-0.1228 94.1689,-9.4765 32.9354,-10.225 56.3514,-46.7566 90.7067,-49.7587 z"
       id="path6"
       sodipodi:nodetypes="aaaaaaaasaaaaaaaa"
       transform="matrix(0.66196945,0,0,0.66196945,1594.3349,275.86679)" /><path
       style="fill:#87a6a2;fill-opacity:1;stroke:none;stroke-width:0.264584px;stroke-linecap:butt;stroke-linejoin:miter;stroke-opacity:1"
       d="m 4634.736,457.60819 c 38.0828,-3.328 71.3114,28.4187 108.5907,36.8813 28.7361,6.5238 61.0214,-1.8493 87.777,10.4991 71.3474,32.9287 105.9884,119.1912 173.1677,159.9546 42.9365,26.053 103.5514,18.3977 141.7879,50.9594 25.992,22.1344 53.4525,55.7183 49.5512,89.6341 -5.1979,45.1878 -60.8739,67.60331 -91.4105,101.3149 -29.8349,32.93698 -49.686,79.29753 -89.6991,98.63461 -34.8631,16.8481 -74.8409,29.8861 -115.8973,7.8393 -25.0188,-13.43479 -35.3059,-47.72381 -61.2965,-59.16631 -37.7247,-16.6092 -82.6647,-1.47619 -123.4218,-7.6296 -59.1106,-8.92439 -91.5974,-26.3525 -124.922,-57.9132 -39.6984,-37.5966 -41.997,-102.8205 -76.9735,-144.8455 -27.4184,-32.9442 -87.1581,-39.2884 -100.7039,-79.9528 -16.0075,-48.0546 0.071,-114.066 38.5745,-146.9747 23.9822,-20.4973 64.0393,-0.1228 94.1689,-9.4765 32.9354,-10.225 56.3514,-46.7566 90.7067,-49.7587 z"
       id="path2"
       sodipodi:nodetypes="aaaaaaaasasaaaaaa" /><path
       style="mix-blend-mode:normal;fill:#afc4c1;fill-opacity:1;stroke:none;stroke-width:0.264584px;stroke-linecap:butt;stroke-linejoin:miter;stroke-opacity:1;filter:url(#filter1)"
       d="m 4683.138,476.23914 c 25.8928,-2.26274 48.4851,19.32205 73.8316,25.07583 19.5378,4.43556 41.4888,-1.25736 59.6801,7.1384 48.5095,22.38844 72.0622,81.03886 117.7378,108.75415 29.1928,17.7136 70.4053,12.50871 96.4025,34.64762 17.6721,15.04932 36.3427,37.88323 33.6901,60.9428 -3.534,30.72347 -40.8914,46.42407 -62.1505,68.88464 -20.3829,21.53495 -36.0293,50.11529 -62.6735,63.12713 -23.2632,11.36077 -55.6316,19.07526 -77.1128,9.26516 -19.2252,-8.7799 -24.0047,-32.44772 -41.6759,-40.22755 -25.6493,-11.2927 -56.7471,1.68957 -83.9152,-5.18741 -30.252,-7.65779 -62.2777,-17.91723 -84.9353,-39.37555 -26.9912,-25.56217 -28.554,-69.90831 -52.3348,-98.48139 -18.642,-22.39896 -59.2593,-26.71243 -68.4692,-54.36041 -10.8836,-32.67263 0.048,-77.5542 26.2271,-99.92904 16.3056,-13.93624 43.5407,-0.0835 64.0259,-6.44313 22.3931,-6.95204 38.3138,-31.79011 61.6721,-33.83125 z"
       id="path4"
       sodipodi:nodetypes="aaaaaaaasaaaaaaaa" /><path
       style="mix-blend-mode:normal;fill:#8fa8a4;fill-opacity:1;stroke:none;stroke-width:0.667626px;stroke-linecap:butt;stroke-linejoin:miter;stroke-opacity:1;filter:url(#filter2)"
       d="m 4604.3341,526.59714 c 38.0828,-3.328 71.3114,28.4187 108.5907,36.8813 28.7361,6.5238 61.0214,-1.8493 87.777,10.4991 71.3474,32.9287 105.9884,119.1912 173.1677,159.9546 42.9365,26.053 103.5514,18.3977 141.7879,50.9594 25.992,22.1344 53.4525,55.7183 49.5512,89.6341 -5.1979,45.1878 -60.1428,68.2801 -91.4105,101.3149 -29.979,31.67336 -52.9916,73.70906 -92.1796,92.84676 -34.2154,16.7093 -81.8225,28.0557 -113.4168,13.6271 -28.2762,-12.9134 -35.3059,-47.7238 -61.2965,-59.1663 -37.7247,-16.6092 -83.4631,2.485 -123.4218,-7.6296 -44.4943,-11.263 -91.5974,-26.35246 -124.922,-57.91316 -39.6984,-37.5966 -41.997,-102.8205 -76.9735,-144.8455 -27.4184,-32.9442 -87.1581,-39.2884 -100.7039,-79.9528 -16.0075,-48.0546 0.071,-114.066 38.5745,-146.9747 23.9822,-20.4973 64.0393,-0.1228 94.1689,-9.4765 32.9354,-10.225 56.3514,-46.7566 90.7067,-49.7587 z"
       id="path1"
       sodipodi:nodetypes="aaaaaaaasaaaaaaaa"
       transform="matrix(0.43222858,0,0,0.36336924,2546.4109,419.65188)" /><path
       style="mix-blend-mode:normal;fill:#96b1ad;fill-opacity:1;stroke:none;stroke-width:0.369738px;stroke-linecap:butt;stroke-linejoin:miter;stroke-opacity:1;filter:url(#filter1)"
       d="m 4761.4813,610.70912 c 25.8928,-2.26274 48.4851,19.32205 73.8316,25.07583 19.5378,4.43556 41.4888,-1.25736 59.6801,7.1384 48.5095,22.38844 72.0622,81.03886 117.7378,108.75415 29.1928,17.7136 70.4053,12.50871 96.4025,34.64762 17.6721,15.04932 36.3427,37.88323 33.6901,60.9428 -3.534,30.72347 -40.8914,46.42407 -62.1505,68.88464 -20.3829,21.53495 -36.0293,50.11529 -62.6735,63.12713 -23.2632,11.36077 -55.6316,19.07526 -77.1128,9.26516 -19.2252,-8.7799 -24.0047,-32.44772 -41.6759,-40.22755 -25.6493,-11.2927 -56.7471,1.68957 -83.9152,-5.18741 -30.252,-7.65779 -62.2777,-17.91723 -84.9353,-39.37555 -26.9912,-25.56217 -28.554,-69.90831 -52.3348,-98.48139 -18.642,-22.39896 -59.2593,-26.71243 -68.4692,-54.36041 -10.8836,-32.67263 0.048,-77.5542 26.2271,-99.92904 16.3056,-13.93624 43.5407,-0.0835 64.0259,-6.44313 22.3931,-6.95204 38.3138,-31.79011 61.6721,-33.83125 z"
       id="path5"
       sodipodi:nodetypes="aaaaaaaasaaaaaaaa"
       transform="matrix(0.71559777,0,0,0.71559777,1348.8231,261.94031)" /><path
       style="mix-blend-mode:normal;fill:#bfcfcd;fill-opacity:1;stroke:none;stroke-width:1.03218px;stroke-linecap:butt;stroke-linejoin:miter;stroke-opacity:1;filter:url(#filter5)"
       d="m 4761.4813,610.70912 c 25.8928,-2.26274 48.4851,19.32205 73.8316,25.07583 19.5378,4.43556 41.4888,-1.25736 59.6801,7.1384 48.5095,22.38844 72.0622,81.03886 117.7378,108.75415 29.1928,17.7136 70.4053,12.50871 96.4025,34.64762 17.6721,15.04932 36.3427,37.88323 33.6901,60.9428 -3.534,30.72347 -40.8914,46.42407 -62.1505,68.88464 -20.3829,21.53495 -36.0293,50.11529 -62.6735,63.12713 -23.2632,11.36077 -55.6316,19.07526 -77.1128,9.26516 -19.2252,-8.7799 -24.0047,-32.44772 -41.6759,-40.22755 -25.6493,-11.2927 -56.7471,1.68957 -83.9152,-5.18741 -30.252,-7.65779 -62.2777,-17.91723 -84.9353,-39.37555 -26.9912,-25.56217 -28.554,-69.90831 -52.3348,-98.48139 -18.642,-22.39896 -59.2593,-26.71243 -68.4692,-54.36041 -10.8836,-32.67263 0.048,-77.5542 26.2271,-99.92904 16.3056,-13.93624 43.5407,-0.0835 64.0259,-6.44313 22.3931,-6.95204 38.3138,-31.79011 61.6721,-33.83125 z"
       id="path3"
       sodipodi:nodetypes="aaaaaaaasaaaaaaaa"
       transform="matrix(0.31469923,0,0,0.20879185,3502.8846,598.64963)" /></g></svg>
