<?xml version="1.0" encoding="UTF-8" standalone="no"?>
<!-- Created with Inkscape (http://www.inkscape.org/) -->

<svg
   width="5618.6689"
   height="2763.915"
   viewBox="0 0 1486.6061 731.28585"
   version="1.1"
   id="svg1"
   sodipodi:docname="AboutMe_SkillsTitleSVG.svg"
   xml:space="preserve"
   inkscape:version="1.3 (0e150ed6c4, 2023-07-21)"
   xmlns:inkscape="http://www.inkscape.org/namespaces/inkscape"
   xmlns:sodipodi="http://sodipodi.sourceforge.net/DTD/sodipodi-0.dtd"
   xmlns="http://www.w3.org/2000/svg"
   xmlns:svg="http://www.w3.org/2000/svg"><sodipodi:namedview
     id="namedview1"
     pagecolor="#505050"
     bordercolor="#000000"
     borderopacity="1"
     inkscape:showpageshadow="0"
     inkscape:pageopacity="0"
     inkscape:pagecheckerboard="0"
     inkscape:deskcolor="#747474"
     inkscape:document-units="mm"
     inkscape:zoom="0.22627418"
     inkscape:cx="1440.73"
     inkscape:cy="1376.6484"
     inkscape:window-width="1920"
     inkscape:window-height="1009"
     inkscape:window-x="-8"
     inkscape:window-y="-8"
     inkscape:window-maximized="1"
     inkscape:current-layer="layer1" /><defs
     id="defs1"><inkscape:path-effect
       effect="spiro"
       id="path-effect12"
       is_visible="true"
       lpeversion="1" /><inkscape:path-effect
       effect="spiro"
       id="path-effect9"
       is_visible="true"
       lpeversion="1" /><inkscape:path-effect
       effect="spiro"
       id="path-effect8"
       is_visible="true"
       lpeversion="1" /><inkscape:path-effect
       effect="spiro"
       id="path-effect6"
       is_visible="true"
       lpeversion="1" /><inkscape:path-effect
       effect="spiro"
       id="path-effect4"
       is_visible="true"
       lpeversion="1" /><inkscape:path-effect
       effect="bend_path"
       id="path-effect22"
       is_visible="true"
       lpeversion="1"
       bendpath="m 3765.0195,3946.8817 c 820.9443,-531.3867 662.6058,529.0304 1344.6224,-125.8466"
       prop_scale="1"
       scale_y_rel="false"
       vertical="false"
       hide_knot="false"
       bendpath-nodetypes="cc" /><inkscape:path-effect
       effect="bend_path"
       id="path-effect11"
       is_visible="true"
       lpeversion="1"
       bendpath="m 3765.0195,3946.8817 c 820.9443,-531.3867 662.6058,529.0304 1344.6224,-125.8466"
       prop_scale="1"
       scale_y_rel="false"
       vertical="false"
       hide_knot="false"
       bendpath-nodetypes="cc" /><filter
       inkscape:collect="always"
       style="color-interpolation-filters:sRGB"
       id="filter3"
       x="-0.060498521"
       y="-0.27483531"
       width="1.120997"
       height="1.5496489"><feGaussianBlur
         inkscape:collect="always"
         stdDeviation="18.148326"
         id="feGaussianBlur3" /></filter><filter
       inkscape:collect="always"
       style="color-interpolation-filters:sRGB"
       id="filter5"
       x="-0.074350152"
       y="-0.35053418"
       width="1.1487003"
       height="1.7010478"><feGaussianBlur
         inkscape:collect="always"
         stdDeviation="5.2608791"
         id="feGaussianBlur5" /></filter><filter
       inkscape:collect="always"
       style="color-interpolation-filters:sRGB"
       id="filter6-0"
       x="-0.66995273"
       y="-0.65099614"
       width="2.3399055"
       height="2.3019923"><feGaussianBlur
         inkscape:collect="always"
         stdDeviation="40.369377"
         id="feGaussianBlur6-6" /></filter><filter
       inkscape:collect="always"
       style="color-interpolation-filters:sRGB"
       id="filter6-0-7"
       x="-0.66995273"
       y="-0.65099614"
       width="2.3399055"
       height="2.3019923"><feGaussianBlur
         inkscape:collect="always"
         stdDeviation="40.369377"
         id="feGaussianBlur6-6-0" /></filter><filter
       inkscape:collect="always"
       style="color-interpolation-filters:sRGB"
       id="filter9"
       x="-0.060498521"
       y="-0.27483531"
       width="1.120997"
       height="1.5496489"><feGaussianBlur
         inkscape:collect="always"
         stdDeviation="18.148326"
         id="feGaussianBlur9" /></filter></defs><g
     inkscape:label="Слой 1"
     inkscape:groupmode="layer"
     id="layer1"
     transform="translate(-3871.3267,-3611.8238)"><g
       id="g9"
       transform="translate(-1287.5819,-258.65443)"><path
         style="fill:none;stroke:#dbe6e3;stroke-width:152.942;stroke-linecap:round;stroke-linejoin:miter;stroke-dasharray:none;stroke-opacity:1;filter:url(#filter5)"
         d="m 5213.6855,4144.5715 c 0,0 -106.1408,-194.2616 -203.6245,-207.591 -122.885,-16.8026 -195.551,185.543 -319.56,182.8904 -144.8684,-3.0987 -220.4917,-232.7863 -365.3234,-229.4536 -127.7267,2.9391 -253.1575,90.9129 -309.8368,216.8978"
         id="path8"
         sodipodi:nodetypes="caaac"
         transform="matrix(-0.84845674,-0.06118367,-0.05915513,0.87755197,10039.602,965.87156)" /><path
         style="fill:none;stroke:#c5d8d6;stroke-width:57.8051;stroke-linecap:round;stroke-linejoin:miter;stroke-dasharray:none;stroke-opacity:1;filter:url(#filter3)"
         d="m 5213.0318,4144.8527 c 0,0 -104.4422,-205.3717 -202.9708,-216.9673 -104.7224,-12.3244 -158.3747,168.8699 -263.6896,174.1849 -158.424,7.9954 -262.6673,-215.1271 -421.1938,-220.7481 -87.1298,-3.0895 -173.6177,47.7867 -239.5632,104.625 -33.4758,28.8529 -70.2736,112.2728 -70.2736,112.2728"
         id="path9"
         sodipodi:nodetypes="caaaac"
         transform="matrix(-0.84845674,-0.06118367,-0.05915513,0.87755197,10039.602,965.87156)" /></g><g
       id="g1"
       transform="matrix(1,0,0,-1,-1272.1032,8233.4115)"><path
         style="fill:none;stroke:#dbe6e3;stroke-width:152.942;stroke-linecap:round;stroke-linejoin:miter;stroke-dasharray:none;stroke-opacity:1;filter:url(#filter5)"
         d="m 5213.6855,4144.5715 c 0,0 -106.1408,-194.2616 -203.6245,-207.591 -122.885,-16.8026 -195.551,185.543 -319.56,182.8904 -144.8684,-3.0987 -220.4917,-232.7863 -365.3234,-229.4536 -127.7267,2.9391 -253.1575,90.9129 -309.8368,216.8978"
         id="path3"
         sodipodi:nodetypes="caaac"
         transform="matrix(-0.84845674,-0.06118367,-0.05915513,0.87755197,10039.602,965.87156)" /><path
         style="fill:none;stroke:#c5d8d6;stroke-width:57.8051;stroke-linecap:round;stroke-linejoin:miter;stroke-dasharray:none;stroke-opacity:1;filter:url(#filter9)"
         d="m 5213.0318,4144.8527 c 0,0 -104.4422,-205.3717 -202.9708,-216.9673 -104.7224,-12.3244 -158.3747,168.8699 -263.6896,174.1849 -158.424,7.9954 -262.6673,-215.1271 -421.1938,-220.7481 -87.1298,-3.0895 -173.6177,47.7867 -239.5632,104.625 -33.4758,28.8529 -70.2736,112.2728 -70.2736,112.2728"
         id="path60"
         sodipodi:nodetypes="caaaac"
         transform="matrix(-0.84845674,-0.06118367,-0.05915513,0.87755197,10039.602,965.87156)" /></g><ellipse
       style="mix-blend-mode:normal;fill:#f0f4f3;fill-opacity:1;stroke:none;stroke-width:6.72917;stroke-linecap:round;stroke-linejoin:round;stroke-miterlimit:4.7;stroke-dasharray:none;stroke-opacity:1;filter:url(#filter6-0)"
       id="ellipse8-3"
       cx="4201.604"
       cy="3761.5027"
       rx="72.308464"
       ry="74.41404"
       transform="matrix(1.1493523,0,0,0.67452821,-290.71723,1456.9313)" /><ellipse
       style="mix-blend-mode:normal;fill:#f0f4f3;fill-opacity:1;stroke:none;stroke-width:6.72917;stroke-linecap:round;stroke-linejoin:round;stroke-miterlimit:4.7;stroke-dasharray:none;stroke-opacity:1;filter:url(#filter6-0-7)"
       id="ellipse8-3-9"
       cx="4201.604"
       cy="3761.5027"
       rx="72.308464"
       ry="74.41404"
       transform="matrix(1.1493523,0,0,0.67452821,-728.73687,1440.0081)" /><path
       style="font-size:254.599px;line-height:1;font-family:Misto;-inkscape-font-specification:Misto;fill:#262626;fill-opacity:1;stroke-width:0.264583"
       d="m 4520.2994,3885.1217 c -68.2325,0 -91.9102,48.6284 -91.9102,70.2693 0,22.6594 25.9691,25.2053 49.6468,25.2053 h 56.7756 c 37.426,0 68.7417,0 68.7417,17.0582 0,19.3495 -45.064,28.7697 -75.1067,28.7697 h -13.7483 c -34.3709,0 -60.253,-13.9811 -79.1803,-29.0243 -2.7753,-2.2058 -10.4386,2.0368 -10.4386,2.0368 11.9662,41.7542 40.2266,71.2877 98.5298,71.2877 53.4658,0 87.5821,-34.8801 87.5821,-70.2693 0,-24.9507 -30.0427,-26.7329 -46.337,-26.7329 h -68.9964 c -46.0824,0 -59.3215,-4.8374 -59.3215,-15.5306 0,-20.6225 48.3738,-28.2605 76.1251,-28.2605 h 13.7483 c 29.0243,0 54.7612,12.6583 78.9257,28.5151 3.0337,1.9907 10.6932,-2.0368 10.6932,-2.0368 -12.4754,-46.8462 -47.6101,-71.2877 -95.7293,-71.2877 z m 241.6147,146.649 -23.9323,-49.9014 67.7233,-93.1832 h -37.0554 c -44.784,0 -129.9615,157.8514 -129.9615,157.8514 v -157.8514 h -7.3834 v 178.2193 h 44.5548 l 57.0302,-78.4165 22.4047,46.337 c 10.9478,22.9139 19.0949,35.8985 42.7727,35.8985 11.4569,0 21.1317,-8.6564 21.1317,-19.0949 0,-9.9294 -8.4018,-18.0766 -18.5858,-18.0766 -10.1839,0 -18.5857,8.1472 -18.5857,18.5858 0,3.0551 0.7638,5.8557 2.0368,8.4017 -7.638,-3.0552 -16.5489,-17.0581 -22.1501,-28.7697 z m 100.5667,-181.0198 c 0,-11.457 -9.1656,-20.6226 -20.3679,-20.6226 -11.2024,0 -20.368,9.1656 -20.368,20.6226 0,11.2023 9.1656,20.3679 20.368,20.3679 11.2023,0 20.3679,-9.1656 20.3679,-20.3679 z m -24.1869,37.9352 v 178.2193 h 7.3833 v -178.2193 z m 41.7541,0 h -7.3833 v 178.2193 h 139.5202 c 0,0 0.851,-38.918 -43.9219,-45.6415 -32.8396,-4.9315 -87.338,6.7235 -87.338,6.7235 z m 154.7962,0 h -7.3834 v 178.2193 h 139.5203 c 0,0 0.8512,-38.918 -43.9218,-45.6412 -32.8397,-4.9313 -87.3381,6.7232 -87.3381,6.7232 z m 227.3566,-3.5644 c -68.2325,0 -91.9102,48.6284 -91.9102,70.2693 0,22.6594 25.9691,25.2053 49.6468,25.2053 h 56.7755 c 37.4261,0 68.7418,0 68.7418,17.0582 0,19.3495 -45.0641,28.7697 -75.1067,28.7697 h -13.7484 c -34.3708,0 -57.0302,-7.1288 -79.1803,-29.0243 l -10.4385,2.0368 c 11.9661,41.7542 40.2266,71.2877 98.5298,71.2877 53.4658,0 87.582,-34.8801 87.582,-70.2693 0,-24.9507 -30.0426,-26.7329 -46.337,-26.7329 h -68.9963 c -46.0824,0 -59.3216,-4.8374 -59.3216,-15.5306 0,-20.6225 48.3738,-28.2605 76.1251,-28.2605 h 13.7484 c 29.0243,0 58.0485,5.3466 78.9257,28.5151 l 10.6931,-2.0368 c -12.4753,-46.8462 -47.61,-71.2877 -95.7292,-71.2877 z"
       id="path16"
       aria-label="MY SKILLS"
       sodipodi:nodetypes="sssssssscsssssssscscccscccccccssssccssssscccccccccsccccccsccsssssssccsssssssccs" /><g
       id="g11"
       transform="matrix(0.61050261,0,0,0.61050261,1369.8435,1130.2605)"
       style="stroke-width:1.63799"><path
         style="fill:#333333;fill-opacity:1;stroke:none;stroke-width:0.433386px;stroke-linecap:butt;stroke-linejoin:miter;stroke-opacity:1"
         d="m 4623.7833,4518.2863 92.2036,115.0432 c 2.8617,3.5706 37.2657,-115.0432 107.9874,-115.0432 h 87.6113 c 0,0 -149.4547,119.6313 -149.4547,197.3933 0,0 13.9417,103.2338 1e-4,103.2338 h -45.201 c 0,0 81.9873,-66.786 -13.2496,-185.5048 -78.5811,-97.9562 -92.3517,-115.1223 -92.3517,-115.1223 z"
         id="path2"
         sodipodi:nodetypes="csscsscscc" /><path
         style="fill:#333333;fill-opacity:1;stroke:none;stroke-width:0.433386px;stroke-linecap:butt;stroke-linejoin:miter;stroke-opacity:1"
         d="m 4098.6037,4818.9134 c 0,0 113.3794,-300.6271 184.2415,-300.6271 h 70.8621 c 0,0 -0.093,240.1859 0,258.9688 0.121,24.5342 90.5241,-258.9688 158.9029,-258.9688 h 70.8621 v 300.6271 h -12.4546 v -260.2572 c 0,0 -123.4719,260.2572 -158.9029,260.2572 h -70.862 v -260.2572 c 0,0 -117.0298,260.2572 -158.9029,260.2572 z"
         id="path3-6"
         sodipodi:nodetypes="cscssccccsccsc" /></g></g></svg>
