<?xml version="1.0" encoding="UTF-8" standalone="no"?>
<!-- Created with Inkscape (http://www.inkscape.org/) -->

<svg
   width="2498.6914"
   height="853.04688"
   viewBox="0 0 661.11209 225.70198"
   version="1.1"
   id="svg1"
   sodipodi:docname="AboutMe_FooterDecor.svg"
   xml:space="preserve"
   inkscape:version="1.3 (0e150ed6c4, 2023-07-21)"
   xmlns:inkscape="http://www.inkscape.org/namespaces/inkscape"
   xmlns:sodipodi="http://sodipodi.sourceforge.net/DTD/sodipodi-0.dtd"
   xmlns="http://www.w3.org/2000/svg"
   xmlns:svg="http://www.w3.org/2000/svg"><sodipodi:namedview
     id="namedview1"
     pagecolor="#505050"
     bordercolor="#000000"
     borderopacity="1"
     inkscape:showpageshadow="0"
     inkscape:pageopacity="0"
     inkscape:pagecheckerboard="0"
     inkscape:deskcolor="#747474"
     inkscape:document-units="mm"
     inkscape:zoom="0.16"
     inkscape:cx="243.75"
     inkscape:cy="415.625"
     inkscape:window-width="1920"
     inkscape:window-height="1009"
     inkscape:window-x="-8"
     inkscape:window-y="-8"
     inkscape:window-maximized="1"
     inkscape:current-layer="layer1" /><defs
     id="defs1" /><g
     inkscape:label="Слой 1"
     inkscape:groupmode="layer"
     id="layer1"
     transform="translate(-4835.211,-7531.0591)"><g
       id="g199"
       transform="matrix(0.26536519,0.99046765,0.98645488,-0.26434949,2837.2525,6252.6183)"
       style="stroke:#000000;stroke-width:2.12012444;stroke-dasharray:none;stroke-opacity:1"><path
         id="rect197"
         style="fill:#8aaba3;fill-opacity:1;stroke:#000000;stroke-width:2.12012444;stroke-linecap:square;stroke-linejoin:miter;stroke-miterlimit:4.7;stroke-dasharray:none;stroke-opacity:1"
         d="m 1246.3666,2180.6035 c 0,-122.122 96.3873,-220.8431 217.5449,-224.7228 l -0.6346,644.2422 c -120.8601,-4.2029 -216.9101,-102.798 -216.9101,-224.7071 z"
         transform="rotate(-15)" /><path
         id="rect198"
         style="fill:#b4cbc6;fill-opacity:1;stroke:#000000;stroke-width:2.12012444;stroke-linecap:square;stroke-linejoin:miter;stroke-miterlimit:4.7;stroke-dasharray:none;stroke-opacity:1"
         d="m 1860.9657,1960.7984 c -3.5019,-13.6721 -5.3628,-28.0151 -5.3628,-42.8088 l -1e-4,-149.5385 c 0,-66.5367 37.6736,-123.9152 92.9186,-152.1729 l 125.7941,471.3269 c -6.8049,0.8171 -13.7196,1.2873 -20.7518,1.2873 h -27.0391 c -79.8953,0 -146.649,-54.2643 -165.5589,-128.094 z" /><path
         id="rect199"
         style="fill:#cbdcd5;fill-opacity:1;stroke:#000000;stroke-width:2.12012556;stroke-linecap:square;stroke-linejoin:miter;stroke-miterlimit:4.7;stroke-dasharray:none;stroke-opacity:1"
         d="m 2364.1799,1407.5696 c -10.5401,-17.3807 -16.5995,-37.807 -16.5995,-59.7003 l -10e-5,-101.4241 c 0,-25.7867 8.4105,-49.5342 22.6432,-68.6711 L 2528.38,1452.565 c -14.5035,6.5784 -30.6181,10.2677 -47.6352,10.2677 l -18.19,10e-5 c -41.8004,0 -78.253,-22.0819 -98.3749,-55.2632 z"
         transform="matrix(0.96573695,0.25952293,-0.2581168,0.96611372,0,0)" /></g></g></svg>
