<?xml version="1.0" encoding="UTF-8" standalone="no"?>
<!-- Created with Inkscape (http://www.inkscape.org/) -->

<svg
   width="1275.6381"
   height="880.57318"
   viewBox="0 0 1275.6381 880.57318"
   version="1.1"
   id="svg1"
   sodipodi:docname="AboutMe_SkillsTitleSVG_Mobile.svg"
   xml:space="preserve"
   inkscape:version="1.3 (0e150ed6c4, 2023-07-21)"
   xmlns:inkscape="http://www.inkscape.org/namespaces/inkscape"
   xmlns:sodipodi="http://sodipodi.sourceforge.net/DTD/sodipodi-0.dtd"
   xmlns="http://www.w3.org/2000/svg"
   xmlns:svg="http://www.w3.org/2000/svg"><sodipodi:namedview
     id="namedview1"
     pagecolor="#505050"
     bordercolor="#000000"
     borderopacity="1"
     inkscape:showpageshadow="0"
     inkscape:pageopacity="0"
     inkscape:pagecheckerboard="0"
     inkscape:deskcolor="#747474"
     inkscape:document-units="px"
     inkscape:zoom="0.45254837"
     inkscape:cx="706.00188"
     inkscape:cy="341.39997"
     inkscape:window-width="1920"
     inkscape:window-height="1009"
     inkscape:window-x="-8"
     inkscape:window-y="-8"
     inkscape:window-maximized="1"
     inkscape:current-layer="layer1" /><defs
     id="defs1"><inkscape:path-effect
       effect="spiro"
       id="path-effect12"
       is_visible="true"
       lpeversion="1" /><inkscape:path-effect
       effect="spiro"
       id="path-effect9"
       is_visible="true"
       lpeversion="1" /><inkscape:path-effect
       effect="spiro"
       id="path-effect8"
       is_visible="true"
       lpeversion="1" /><inkscape:path-effect
       effect="spiro"
       id="path-effect6"
       is_visible="true"
       lpeversion="1" /><inkscape:path-effect
       effect="spiro"
       id="path-effect4"
       is_visible="true"
       lpeversion="1" /><inkscape:path-effect
       effect="bend_path"
       id="path-effect22"
       is_visible="true"
       lpeversion="1"
       bendpath="m 3765.0195,3946.8817 c 820.9443,-531.3867 662.6058,529.0304 1344.6224,-125.8466"
       prop_scale="1"
       scale_y_rel="false"
       vertical="false"
       hide_knot="false"
       bendpath-nodetypes="cc" /><inkscape:path-effect
       effect="bend_path"
       id="path-effect11"
       is_visible="true"
       lpeversion="1"
       bendpath="m 3765.0195,3946.8817 c 820.9443,-531.3867 662.6058,529.0304 1344.6224,-125.8466"
       prop_scale="1"
       scale_y_rel="false"
       vertical="false"
       hide_knot="false"
       bendpath-nodetypes="cc" /><filter
       inkscape:collect="always"
       style="color-interpolation-filters:sRGB"
       id="filter3"
       x="-0.05348583"
       y="-0.24305526"
       width="1.1069717"
       height="1.4860812"><feGaussianBlur
         inkscape:collect="always"
         stdDeviation="15.055248"
         id="feGaussianBlur3" /></filter><filter
       inkscape:collect="always"
       style="color-interpolation-filters:sRGB"
       id="filter5"
       x="-0.072195933"
       y="-0.34028699"
       width="1.1443919"
       height="1.6805139"><feGaussianBlur
         inkscape:collect="always"
         stdDeviation="5.2608791"
         id="feGaussianBlur5" /></filter><filter
       inkscape:collect="always"
       style="color-interpolation-filters:sRGB"
       id="filter6-0"
       x="-0.66995273"
       y="-0.65099614"
       width="2.3399055"
       height="2.3019923"><feGaussianBlur
         inkscape:collect="always"
         stdDeviation="40.369377"
         id="feGaussianBlur6-6" /></filter><filter
       inkscape:collect="always"
       style="color-interpolation-filters:sRGB"
       id="filter6-0-7"
       x="-0.66995273"
       y="-0.65099614"
       width="2.3399055"
       height="2.3019923"><feGaussianBlur
         inkscape:collect="always"
         stdDeviation="40.369377"
         id="feGaussianBlur6-6-0" /></filter><filter
       inkscape:collect="always"
       style="color-interpolation-filters:sRGB"
       id="filter3-5"
       x="-0.05348583"
       y="-0.23815455"
       width="1.1069717"
       height="1.4741769"><feGaussianBlur
         inkscape:collect="always"
         stdDeviation="15.055248"
         id="feGaussianBlur3-5" /></filter><filter
       inkscape:collect="always"
       style="color-interpolation-filters:sRGB"
       id="filter5-4"
       x="-0.072190426"
       y="-0.33922481"
       width="1.1444044"
       height="1.6785329"><feGaussianBlur
         inkscape:collect="always"
         stdDeviation="5.2608791"
         id="feGaussianBlur5-2" /></filter></defs><g
     inkscape:label="Слой 1"
     inkscape:groupmode="layer"
     id="layer1"
     transform="translate(-3921.3136,-3730.837)"><g
       id="g12"
       transform="matrix(-1,0,0,1,9211.0652,-322.4786)"><path
         style="fill:none;stroke:#dbe6e3;stroke-width:147.779;stroke-linecap:round;stroke-linejoin:miter;stroke-dasharray:none;stroke-opacity:1;filter:url(#filter5-4)"
         d="m 5213.6855,4144.5715 c 2.1933,-1.5471 -34.2124,-236.3694 -203.6245,-207.591 -101.418,17.2281 -117.0254,150.2555 -263.6896,174.1849 -156.3427,25.5086 -263.0667,-208.0998 -421.1938,-220.7481 -121.5686,-9.7241 -242.4167,67.0386 -309.8368,216.8978"
         id="path3-2"
         sodipodi:nodetypes="csssc"
         transform="matrix(-0.87777639,0.06334436,-0.06119933,-0.9085425,8971.1288,7648.5692)" /><path
         style="fill:none;stroke:#c5d8d6;stroke-width:55.8538;stroke-linecap:round;stroke-linejoin:miter;stroke-dasharray:none;stroke-opacity:1;filter:url(#filter3-5)"
         d="m 5213.0318,4144.8527 c 0,0 -100.6441,-194.691 -196.5734,-207.3015 -105.7426,-13.9006 -163.5079,161.2712 -270.087,164.5191 -159.2898,4.8542 -281.4602,-158.0705 -421.1938,-220.7481 -53.5093,-24.0016 -210.3792,-4.1732 -309.8368,216.8978"
         id="path60-6"
         sodipodi:nodetypes="caasc"
         transform="matrix(-0.87777639,0.06334436,-0.06119933,-0.9085425,8971.1288,7648.5692)" /></g><g
       id="g1"
       transform="rotate(-90,4726.5083,4140.9668)"><path
         style="fill:none;stroke:#dbe6e3;stroke-width:147.779;stroke-linecap:round;stroke-linejoin:miter;stroke-dasharray:none;stroke-opacity:1;filter:url(#filter5)"
         d="m 5213.6855,4144.5715 c 0,0 -105.3101,-203.4085 -203.6245,-207.591 -178.4637,-7.5922 -142.0936,134.5471 -263.6896,174.1849 -154.6703,50.4194 -262.6673,-215.1271 -421.1938,-220.7481 -87.1298,-3.0895 -173.6177,47.7867 -239.5632,104.625 -33.4758,28.8529 -70.2736,112.2728 -70.2736,112.2728"
         id="path3"
         sodipodi:nodetypes="cssaac"
         transform="matrix(0.06334436,-0.87777639,-0.9085425,-0.06119933,7851.3185,8292.8273)" /><path
         style="fill:none;stroke:#c5d8d6;stroke-width:55.8538;stroke-linecap:round;stroke-linejoin:miter;stroke-dasharray:none;stroke-opacity:1;filter:url(#filter3)"
         d="m 5213.0318,4144.8527 c 0,0 -104.4422,-205.3717 -202.9708,-216.9673 -104.7224,-12.3244 -158.3747,168.8699 -263.6896,174.1849 -158.424,7.9954 -262.6673,-215.1271 -421.1938,-220.7481 -11.5597,-0.4099 -210.3792,-4.1732 -309.8368,216.8978"
         id="path60"
         sodipodi:nodetypes="caaac"
         transform="matrix(0.06334436,-0.87777639,-0.9085425,-0.06119933,7851.3185,8292.8273)" /><ellipse
         style="mix-blend-mode:normal;fill:#f0f4f3;fill-opacity:1;stroke:none;stroke-width:5.91493;stroke-linecap:round;stroke-linejoin:round;stroke-miterlimit:4.7;stroke-dasharray:none;stroke-opacity:1;filter:url(#filter6-0)"
         id="ellipse8-3"
         cx="4201.604"
         cy="3761.5027"
         rx="72.308464"
         ry="74.41404"
         transform="matrix(0,1.4368279,-0.69834901,0,7161.8267,-2415.133)" /><ellipse
         style="mix-blend-mode:normal;fill:#f0f4f3;fill-opacity:1;stroke:none;stroke-width:5.54146;stroke-linecap:round;stroke-linejoin:round;stroke-miterlimit:4.7;stroke-dasharray:none;stroke-opacity:1;filter:url(#filter6-0-7)"
         id="ellipse8-3-9"
         cx="4201.604"
         cy="3761.5027"
         rx="72.308464"
         ry="74.41404"
         transform="matrix(0,1.6370282,-0.69834901,0,7169.0088,-2543.711)" /></g><path
       style="font-size:254.599px;line-height:1;font-family:Misto;-inkscape-font-specification:Misto;fill:#262626;fill-opacity:1;stroke-width:0.264583"
       d="m 4085.4573,4038.7296 c -86.8283,0 -116.9591,61.9267 -116.9591,89.4858 0,28.8559 33.0467,32.0981 63.1774,32.0981 h 72.249 c 47.6259,0 87.4763,0 87.4763,21.723 0,24.641 -57.3454,36.6374 -95.5761,36.6374 h -17.4952 c -43.7381,0 -76.6741,-17.8046 -100.7597,-36.9615 -3.5317,-2.8089 -13.2836,2.5937 -13.2836,2.5937 15.2275,53.1728 51.1898,90.7828 125.383,90.7828 68.0369,0 111.4512,-44.4189 111.4512,-89.4859 0,-31.7739 -38.2306,-34.0433 -58.9654,-34.0433 h -87.8006 c -58.6415,0 -75.4886,-6.1604 -75.4886,-19.7779 0,-26.2622 61.5572,-35.9891 96.8718,-35.9891 h 17.4953 c 36.9344,0 69.6854,16.1201 100.4357,36.3133 3.8604,2.5353 13.6075,-2.5939 13.6075,-2.5939 -15.8753,-59.657 -60.5856,-90.7825 -121.8189,-90.7825 z m 307.4633,186.7528 -30.4546,-63.5478 86.1802,-118.666 h -47.1541 c -56.9893,0 -165.3809,201.0188 -165.3809,201.0188 v -201.0188 h -9.3956 v 226.9569 h 56.6977 l 72.573,-99.8611 28.5108,59.0089 c 13.9317,29.1801 24.2989,45.7156 54.4298,45.7156 14.5794,0 26.8908,-11.0238 26.8908,-24.3168 0,-12.6447 -10.6917,-23.0199 -23.651,-23.0199 -12.9596,0 -23.6509,10.3752 -23.6509,23.6682 0,3.8906 0.9718,7.4571 2.5917,10.6995 -9.7196,-3.8908 -21.059,-21.723 -28.1869,-36.6375 z m 127.9749,-230.523 c 0,-14.5901 -11.6637,-26.2621 -25.9187,-26.2621 -14.2558,0 -25.9191,11.672 -25.9191,26.2621 0,14.2658 11.6633,25.9381 25.9191,25.9381 14.255,0 25.9187,-11.6723 25.9187,-25.9381 z m -30.7788,48.3092 v 226.9569 h 9.3955 v -226.9569 z m 53.1338,0 h -9.3956 v 226.9569 h 177.5445 c 0,0 1.083,-49.5609 -55.8921,-58.1231 -41.7899,-6.2801 -111.141,8.5622 -111.141,8.5622 z m 196.9836,0 h -9.3957 v 226.9569 h 177.5446 c 0,0 1.0834,-49.5609 -55.8919,-58.1226 -41.7896,-6.28 -111.1409,8.5617 -111.1409,8.5617 z m 289.3195,-4.539 c -86.8283,0 -116.9589,61.9267 -116.9589,89.4858 0,28.8559 33.0466,32.0981 63.1773,32.0981 h 72.2488 c 47.6261,0 87.4765,0 87.4765,21.723 0,24.641 -57.3458,36.6374 -95.576,36.6374 h -17.4954 c -43.7381,0 -72.573,-9.0783 -100.7598,-36.9615 l -13.2833,2.5937 c 15.2272,53.1728 51.1899,90.7828 125.3827,90.7828 68.0372,0 111.4513,-44.4189 111.4513,-89.4859 0,-31.7739 -38.2303,-34.0433 -58.9655,-34.0433 h -87.8003 c -58.6415,0 -75.4889,-6.1604 -75.4889,-19.7779 0,-26.2622 61.5574,-35.9891 96.8719,-35.9891 h 17.4953 c 36.9345,0 73.8688,6.809 100.4359,36.3133 l 13.6074,-2.5939 c -15.8753,-59.657 -60.5855,-90.7825 -121.819,-90.7825 z"
       id="path16"
       aria-label="MY SKILLS"
       sodipodi:nodetypes="sssssssscsssssssscscccscccccccssssccssssscccccccccsccccccsccsssssssccsssssssccs" /><g
       id="g11"
       transform="matrix(0.56529647,0,0,0.56571084,1647.447,1268.966)"
       style="fill:#262626;fill-opacity:1;stroke-width:1.76834;stroke-dasharray:none"><path
         style="fill:#262626;fill-opacity:1;stroke:none;stroke-width:1.76834;stroke-linecap:butt;stroke-linejoin:miter;stroke-dasharray:none;stroke-opacity:1"
         d="m 4623.7833,4518.2863 92.2036,115.0432 c 2.8617,3.5706 37.2657,-115.0432 107.9874,-115.0432 h 87.6113 c 0,0 -149.4547,119.6313 -149.4547,197.3933 0,0 13.9417,103.2338 1e-4,103.2338 h -45.201 c 0,0 81.9873,-66.786 -13.2496,-185.5048 -78.5811,-97.9562 -92.3517,-115.1223 -92.3517,-115.1223 z"
         id="path2"
         sodipodi:nodetypes="csscsscscc" /><path
         style="fill:#262626;fill-opacity:1;stroke:none;stroke-width:1.76834;stroke-linecap:butt;stroke-linejoin:miter;stroke-dasharray:none;stroke-opacity:1"
         d="m 4098.6037,4818.9134 c 0,0 113.3794,-300.6271 184.2415,-300.6271 h 70.8621 c 0,0 -0.093,240.1859 0,258.9688 0.121,24.5342 90.5241,-258.9688 158.9029,-258.9688 h 70.8621 v 300.6271 h -12.4546 v -260.2572 c 0,0 -123.4719,260.2572 -158.9029,260.2572 h -70.862 v -260.2572 c 0,0 -117.0298,260.2572 -158.9029,260.2572 z"
         id="path3-6"
         sodipodi:nodetypes="cscssccccsccsc" /></g></g></svg>
