<?xml version="1.0" encoding="UTF-8" standalone="no"?>
<!-- Created with Inkscape (http://www.inkscape.org/) -->

<svg
   width="550"
   height="200"
   viewBox="0 0 550.00001 200"
   version="1.1"
   id="svg1"
   sodipodi:docname="AboutMe_FooterDecor.svg"
   xml:space="preserve"
   inkscape:version="1.3 (0e150ed6c4, 2023-07-21)"
   xmlns:inkscape="http://www.inkscape.org/namespaces/inkscape"
   xmlns:sodipodi="http://sodipodi.sourceforge.net/DTD/sodipodi-0.dtd"
   xmlns="http://www.w3.org/2000/svg"
   xmlns:svg="http://www.w3.org/2000/svg"><sodipodi:namedview
     id="namedview1"
     pagecolor="#505050"
     bordercolor="#000000"
     borderopacity="1"
     inkscape:showpageshadow="0"
     inkscape:pageopacity="0"
     inkscape:pagecheckerboard="0"
     inkscape:deskcolor="#747474"
     inkscape:document-units="mm"
     inkscape:zoom="1.28"
     inkscape:cx="211.71875"
     inkscape:cy="126.95313"
     inkscape:window-width="1920"
     inkscape:window-height="1009"
     inkscape:window-x="-8"
     inkscape:window-y="-8"
     inkscape:window-maximized="1"
     inkscape:current-layer="layer1" /><defs
     id="defs1"><inkscape:path-effect
       effect="simplify"
       id="path-effect2"
       is_visible="true"
       lpeversion="1.3"
       threshold="50.581865"
       steps="1"
       smooth_angles="0"
       helper_size="10"
       simplify_individual_paths="false"
       simplify_just_coalesce="false" /><inkscape:path-effect
       effect="simplify"
       id="path-effect1"
       is_visible="true"
       lpeversion="1.3"
       threshold="50.005"
       steps="1"
       smooth_angles="0"
       helper_size="10"
       simplify_individual_paths="false"
       simplify_just_coalesce="false" /><filter
       inkscape:collect="always"
       style="color-interpolation-filters:sRGB"
       id="filter5-3"
       x="-0.037861744"
       y="-0.11647821"
       width="1.0757235"
       height="1.2329564"><feGaussianBlur
         inkscape:collect="always"
         stdDeviation="8.546538"
         id="feGaussianBlur5-1" /></filter><inkscape:path-effect
       effect="simplify"
       id="path-effect2-4"
       is_visible="true"
       lpeversion="1.3"
       threshold="50.581865"
       steps="1"
       smooth_angles="0"
       helper_size="10"
       simplify_individual_paths="false"
       simplify_just_coalesce="false" /><filter
       inkscape:collect="always"
       style="color-interpolation-filters:sRGB"
       id="filter3"
       x="-0.062031642"
       y="-0.22237832"
       width="1.1240633"
       height="1.4447566"><feGaussianBlur
         inkscape:collect="always"
         stdDeviation="12.822991"
         id="feGaussianBlur3" /></filter><inkscape:path-effect
       effect="simplify"
       id="path-effect1-2"
       is_visible="true"
       lpeversion="1.3"
       threshold="50.005"
       steps="1"
       smooth_angles="0"
       helper_size="10"
       simplify_individual_paths="false"
       simplify_just_coalesce="false" /></defs><g
     inkscape:label="Слой 1"
     inkscape:groupmode="layer"
     id="layer1"
     transform="translate(-5748.3327,-7130.8965)"><path
       style="fill:#6c9d96;fill-opacity:1;stroke:#4c736e;stroke-width:5.29168;stroke-linecap:butt;stroke-linejoin:miter;stroke-dasharray:none;stroke-opacity:1"
       d="m 6264.7779,7335.4867 c 0,0 25.6097,-100.8684 -7.5976,-127.7038 -22.1911,-17.9335 -61.3875,29.2456 -84.6992,12.7888 -12.3852,-8.7432 4.8585,-37.5545 -8.5652,-44.6082 -20.843,-10.9524 -41.2471,26.6619 -64.749,28.2523 -40.9413,2.7708 -81.8789,-52.2266 -118.4216,-33.5705 -15.6114,7.9703 -4.4349,42.5265 -18.0552,49.3874 -32.6189,16.4315 -62.3195,-50.615 -97.5572,-44.5715 -22.5177,3.8619 -26.5497,45.3989 -49.2869,47.6273 -11.6482,1.1418 -16.4931,-14.917 -29.506,-19.0322 -47.2513,-14.942 -3.5226,131.4304 -3.5226,131.4304"
       id="path2-2"
       sodipodi:nodetypes="caaaaasaasc" /><path
       style="fill:#8cb3ae;fill-opacity:1;stroke:none;stroke-width:26.8154;stroke-linecap:round;stroke-linejoin:round;stroke-miterlimit:4.7;filter:url(#filter5-3)"
       d="M 304.27143,175.63748 C 252.12196,147.54088 193.00495,117.83455 144.0891,169.25727 117.3546,162.47373 150.20334,98.963991 100.55809,117.53986 60.456204,154.066 8.2471329,130.13066 19.576335,75.238409 10.345716,49.515398 45.17382,-44.288962 36.983296,27.010587 17.532909,67.200513 58.729144,155.24809 90.880153,84.355117 107.52497,28.861202 146.926,68.592167 146.41001,107.35981 c 31.22217,53.20649 82.32646,-66.899174 106.75996,10.61736 55.487,77.72193 61.9078,-81.850647 118.56982,-54.320804 22.62696,21.67158 94.37742,102.638834 93.38784,28.222509 -18.91058,-22.605744 -23.15802,-90.2924121 11.40633,-40.196603 5.64148,37.027645 62.26014,90.104808 65.05965,21.837989 -1.22935,-24.134492 -24.88137,-110.564029 4.17996,-54.403857 11.83613,37.867239 37.16827,157.531076 -36.23657,101.164036 -34.22781,28.78502 -72.85755,72.7822 -112.86618,16.0041 -80.0933,-64.050353 -31.81207,51.82529 -92.39939,39.35294 z"
       id="path5"
       transform="matrix(-0.93275672,0,0,-0.93184268,6289.5807,7334.4334)"
       sodipodi:nodetypes="sssssccsssssssssssssscsssssssss"
       inkscape:path-effect="#path-effect2-4"
       inkscape:original-d="m 304.27143,175.63748 c -30.48639,-6.68353 -66.27519,-40.83074 -99.26839,-38.74647 -27.98101,1.76765 -48.96573,40.62267 -68.22849,30.79555 -14.21246,-7.25068 8.51905,-39.17558 -13.15449,-49.84544 C 94.434786,104.70467 57.123506,153.61514 34.125627,131.27816 8.8629669,105.60864 22.735644,25.03301 29.597439,-0.82864076 h 11.67816 C 32.638596,46.314925 27.096972,110.96669 60.990692,113.3918 c 27.147214,1.94238 33.459793,-59.530151 57.294668,-59.530151 25.69554,0 15.54335,58.316141 42.55731,68.494321 22.63097,8.06225 38.76508,-25.207058 56.95973,-32.046993 4.12054,-1.549034 9.18225,-1.342614 13.11216,0.534727 17.2728,8.251314 25.93425,47.744256 48.42216,49.081036 5.23796,0.31137 8.97568,-0.52356 14.00211,-3.12778 21.54565,-11.16295 28.20607,-53.522699 46.03433,-70.340965 34.39767,-32.449011 69.54652,48.807225 102.1284,57.293715 10.01905,2.60963 20.9042,-1.49347 24.73522,-9.32382 11.26955,-23.034072 -40.70072,-82.1089 -8.95724,-82.1089 18.87711,0 31.33262,58.747548 51.14854,73.48539 11.02284,8.1981 25.35196,2.3297 30.48842,-12.486332 10.50995,-30.31574 -13.28086,-92.42901085 -13.28177,-93.73036838 4.83046,-0.66467312 9.85051,-0.41432038 14.74496,-0.41432038 2.08958,7.18188896 13.34104,46.87982676 18.16555,83.96893076 1.20661,9.27592 1.68244,30.56607 0.81564,36.49415 -2.05621,14.06248 -6.9384,19.63394 -15.9235,18.17157 -16.19048,-2.63508 -27.44781,-26.85398 -47.51183,-13.80975 -17.34585,11.27705 -23.83419,42.49399 -44.48391,44.05572 -32.81124,2.48152 -64.46491,-58.42914 -97.77394,-46.65913 -23.03944,8.14124 -9.00819,44.22487 -25.09425,52.28704 -5.46402,2.73852 -16.63512,3.63836 -24.30202,1.95756 z" /><path
       style="fill:#8bb1ac;fill-opacity:1;stroke:#c2d6d3;stroke-width:5.29168;stroke-linecap:butt;stroke-linejoin:miter;stroke-dasharray:none;stroke-opacity:1"
       d="m 6248.2976,7335.4867 c 0,0 20.4325,-91.5492 -12.2543,-103.44 -25.2269,-9.177 -32.0943,58.5101 -58.7176,55.0322 -25.2405,-3.2969 -15.7236,-58.2315 -40.3367,-64.7138 -21.3592,-5.6247 -36.2823,34.2637 -58.2119,31.6093 -23.3284,-2.8233 -28.6152,-48.7869 -52.0747,-47.424 -33.2659,1.9332 -32.6566,69.8642 -65.5226,75.3457 -37.9144,6.3231 -67.4136,-78.3345 -99.7981,-57.6673 -23.0884,14.7345 32.4008,70.1786 7.5474,81.7039 -29.6867,13.7666 -38.8018,-82.5868 -68.9296,-69.8094 -30.5544,12.9585 2.5531,99.3634 2.5531,99.3634"
       id="path1-6"
       sodipodi:nodetypes="caaaaaaaaac" /><path
       style="fill:#9abcb8;fill-opacity:1;stroke:#476b66;stroke-width:5.29168;stroke-linecap:butt;stroke-linejoin:miter;stroke-dasharray:none;stroke-opacity:1"
       d="m 6188.7266,7335.4867 c 0,0 -9.0659,-30.1852 -22.0237,-34.5898 -16.3608,-5.5612 -31.8716,21.4129 -48.7404,17.6553 -19.189,-4.2743 -21.9696,-41.2494 -41.6254,-41.7056 -19.0296,-0.4414 -23.1054,38.0795 -42.1365,38.4627 -16.0528,0.3251 -20.7749,-30.5809 -36.8258,-30.9868 -18.889,-0.477 -26.7148,30.0631 -45.1306,34.2297 -19.5171,4.416 -39.4099,-17.1428 -58.7887,-12.1542 -9.0757,2.3365 -12.449,15.3845 -21.3622,18.2797 -11.4826,3.7296 -27.7557,-11.5862 -36.1043,-2.8827 -3.3786,3.5222 1.8051,14.5157 1.8051,14.5157"
       id="path17-5"
       sodipodi:nodetypes="caaaaaaaaac" /><path
       style="fill:#a5c3bf;fill-opacity:1;stroke:none;stroke-width:26.8154;stroke-linecap:round;stroke-linejoin:round;stroke-miterlimit:4.7;filter:url(#filter3)"
       d="m 5182.6331,241.79876 c -21.4394,-43.70555 -64.4863,-66.23886 -97.3114,-17.20273 -42.5592,12.6564 -25.3363,-101.04057 -76.4848,-57.18279 -9.3787,47.04753 -64.9728,67.79358 -59.0452,4.85083 -5.2879,-42.23058 5.0345,-77.233384 52.0987,-64.0662 24.2243,2.29339 30.4587,66.09058 66.5681,30.85573 39.9344,-36.66665 66.6496,84.63375 98.2503,6.96909 27.0991,-39.78176 57.0161,62.37223 85.851,-1.9362 28.9886,-38.64323 77.8306,24.77382 105.068,-22.29371 24.7439,12.83158 42.9625,3.75219 45.5789,-13.62406 44.9496,-7.08551 47.7455,71.52173 34.5506,101.15277 -44.4477,14.89591 -38.2704,-98.77627 -85.8792,-66.03168 -6.5563,25.74337 48.7725,106.77696 -14.0241,75.78315 -26.1778,-33.50208 -85.1687,-89.75842 -110.2904,-23.15527 -10.9338,15.36335 -18.035,57.41282 -44.9305,45.88107 z"
       id="path3-0"
       transform="matrix(-0.93275672,0,0,-0.93184268,10868.522,7438.7952)"
       sodipodi:nodetypes="csssscscssssssssscscssssscc"
       inkscape:path-effect="#path-effect1-2"
       inkscape:original-d="m 5182.6331,241.79876 c -14.2059,-7.72108 -23.5052,-41.339 -43.0869,-47.9861 -24.8981,-8.45185 -41.9092,31.53799 -61.4561,32.95186 -31.5604,2.28289 -14.7167,-71.37276 -52.4157,-69.24259 -26.6375,1.50515 -33.7384,59.24051 -54.7435,59.24051 -31.135,0 -20.3606,-82.46441 -14.6264,-108.59375 h 29.0659 c 28.3881,0 29.0686,0.036 29.1822,1.54374 0.207,2.74792 10.7117,31.86901 23.2631,37.61606 1.9506,0.89316 4.9664,1.43733 8.025,1.44804 15.6521,0.0548 30.1355,-19.48047 43.5799,-19.50646 20.7895,-0.0402 23.6526,44.52362 48.2377,44.52362 23.1954,0 26.7874,-40.625 45.7225,-40.625 14.7261,0 19.5275,34.35469 41.0737,32.62522 25.8427,-2.07441 28.6355,-43.7788 61.4081,-36.09975 23.8196,6.20234 40.8247,25.61703 58.5569,-0.0361 15.3303,-22.17837 41.9898,11.18785 53.505,-5.25246 2.6532,-3.78796 0.638,-11.43788 -1.0552,-16.23688 h 15.8508 c 12.1509,0 15.8546,0.22795 15.8674,0.97656 4.8712,12.30902 36.4233,105.69806 -2.2203,103.48138 -23.0489,-3.09151 -38.3077,-97.57828 -70.871,-73.3801 -24.8992,18.50305 44.1313,88.51475 1.1419,88.44577 -24.132,-0.0387 -52.2516,-54.16082 -80.3514,-63.14713 -7.2404,-2.3155 -10.2161,-2.63338 -15.5675,-1.66299 -39.737,7.20568 -43.9001,97.49735 -78.0862,78.91658 z" /></g></svg>
