<?xml version="1.0" encoding="UTF-8" standalone="no"?>
<!-- Created with Inkscape (http://www.inkscape.org/) -->

<svg
   width="875"
   height="1500"
   viewBox="0 0 875 1500"
   version="1.1"
   id="svg1"
   inkscape:version="1.3 (0e150ed6c4, 2023-07-21)"
   sodipodi:docname="AboutMe_LanguagesDecorMobile.svg"
   inkscape:export-filename="MainPage_Design_Mobile.png"
   inkscape:export-xdpi="150"
   inkscape:export-ydpi="150"
   xmlns:inkscape="http://www.inkscape.org/namespaces/inkscape"
   xmlns:sodipodi="http://sodipodi.sourceforge.net/DTD/sodipodi-0.dtd"
   xmlns="http://www.w3.org/2000/svg"
   xmlns:svg="http://www.w3.org/2000/svg">
  <sodipodi:namedview
     id="namedview1"
     pagecolor="#323232"
     bordercolor="#eeeeee"
     borderopacity="1"
     inkscape:showpageshadow="0"
     inkscape:pageopacity="0"
     inkscape:pagecheckerboard="0"
     inkscape:deskcolor="#626262"
     inkscape:document-units="px"
     showborder="false"
     borderlayer="false"
     inkscape:zoom="0.11313709"
     inkscape:cx="-1241.8562"
     inkscape:cy="1259.5339"
     inkscape:window-width="1920"
     inkscape:window-height="1009"
     inkscape:window-x="-8"
     inkscape:window-y="-8"
     inkscape:window-maximized="1"
     inkscape:current-layer="layer1" />
  <defs
     id="defs1">
    <filter
       inkscape:collect="always"
       style="color-interpolation-filters:sRGB"
       id="filter5-9"
       x="-0.054649368"
       y="-0.078811322"
       width="1.1096555"
       height="1.1576268">
      <feGaussianBlur
         inkscape:collect="always"
         stdDeviation="8.219029"
         id="feGaussianBlur5-6" />
    </filter>
    <filter
       inkscape:collect="always"
       style="color-interpolation-filters:sRGB"
       id="filter2-7"
       x="-0.052474979"
       y="-0.0700529"
       width="1.1049364"
       height="1.1400882">
      <feGaussianBlur
         inkscape:collect="always"
         stdDeviation="9.3017493"
         id="feGaussianBlur2-4" />
    </filter>
    <filter
       inkscape:collect="always"
       style="color-interpolation-filters:sRGB"
       id="filter45"
       x="-0.037260721"
       y="-0.050426309"
       width="1.073611"
       height="1.1007471">
      <feGaussianBlur
         inkscape:collect="always"
         stdDeviation="9.0299736"
         id="feGaussianBlur45" />
    </filter>
    <filter
       inkscape:collect="always"
       style="color-interpolation-filters:sRGB"
       id="filter46"
       x="-0.038366108"
       y="-0.051100232"
       width="1.0767485"
       height="1.1022179">
      <feGaussianBlur
         inkscape:collect="always"
         stdDeviation="10.398 10.743"
         id="feGaussianBlur46" />
    </filter>
    <filter
       inkscape:collect="always"
       style="color-interpolation-filters:sRGB"
       id="filter2"
       x="-0.1340482"
       y="-0.11893343"
       width="1.2708131"
       height="1.2637643">
      <feGaussianBlur
         inkscape:collect="always"
         stdDeviation="12.625857"
         id="feGaussianBlur2" />
    </filter>
    <filter
       inkscape:collect="always"
       style="color-interpolation-filters:sRGB"
       id="filter3"
       x="-0.13667313"
       y="-0.12170385"
       width="1.2760629"
       height="1.2693051">
      <feGaussianBlur
         inkscape:collect="always"
         stdDeviation="12.967081"
         id="feGaussianBlur3" />
    </filter>
    <filter
       inkscape:collect="always"
       style="color-interpolation-filters:sRGB"
       id="filter4"
       x="-0.12085506"
       y="-0.21496089"
       width="1.2416233"
       height="1.4299327">
      <feGaussianBlur
         inkscape:collect="always"
         stdDeviation="31.682855"
         id="feGaussianBlur4" />
    </filter>
  </defs>
  <g
     inkscape:label="Слой 1"
     inkscape:groupmode="layer"
     id="layer1"
     transform="translate(-3020.2475,-1154.1048)">
    <g
       id="g2"
       transform="matrix(0,1.0411675,-1.0411675,0,9670.6386,-3046.3998)"
       style="stroke-width:0.96046">
      <path
         style="fill:none;stroke:#d4e3e0;stroke-width:48.023;stroke-linecap:round;stroke-linejoin:miter;stroke-dasharray:none;stroke-opacity:0.5;filter:url(#filter5-9)"
         d="m 4977.0371,2765.1065 c 54.5263,28.6625 80.6949,215.616 36.7024,361.0395 -118.4358,391.5066 -589.2335,115.7036 -540.9904,-173.4026 23.7028,-142.0435 -189.449,-177.6653 -112.1268,41.2804 45.7552,129.5606 -47.7589,119.9182 -94.9328,86.1221 -51.0949,-36.6052 -10.267,-108.3815 -10.267,-108.3815"
         id="path46"
         sodipodi:nodetypes="cssssc" />
      <path
         style="fill:none;stroke:#d5e4e1;stroke-width:38.4184;stroke-linecap:round;stroke-linejoin:miter;stroke-dasharray:none;stroke-opacity:0.5;filter:url(#filter2-7)"
         d="m 4538.5131,3104.7893 c -99.5532,-38.7743 -113.6166,-234.6356 -26.1944,-387.8953 140.6027,-246.4906 504.1661,-184.9359 508.7296,198.7256 1.9747,166.0158 60.2431,302.5269 135.3219,222.2547 54.2506,-58.0032 -63.6553,-264.1873 -9.9071,-308.5028 51.7461,-42.6647 99.7213,82.5452 99.7213,82.5452"
         id="path5"
         sodipodi:nodetypes="cssssc" />
      <path
         style="mix-blend-mode:normal;fill:none;stroke:#e7eeed;stroke-width:14.4069;stroke-linecap:butt;stroke-linejoin:miter;stroke-dasharray:none;stroke-opacity:1;filter:url(#filter45)"
         d="m 4533.3057,3102.7593 c 0,0 -120.9576,-88.4823 -24.2354,-377.0809 68.5677,-204.5914 530.2644,-220.8706 511.4601,222.8095 -7.0304,165.8786 35.7572,217.4084 100.873,212.1205 108.6369,-8.822 -15.1552,-248.6828 19.5523,-325.3569 32.9605,-72.8151 105.2287,76.6652 105.2287,76.6652"
         id="path77"
         sodipodi:nodetypes="cssssc" />
      <path
         style="fill:none;stroke:none;stroke-width:14.4069;stroke-linecap:butt;stroke-linejoin:miter;stroke-dasharray:none;stroke-opacity:1"
         d="m 5520.6424,3283.7546 c 0,0 120.1356,-463.025 22.1864,-487.056 -102.606,-25.1736 -311.8371,279.847 -514.4939,349.0171 -228.8099,78.0966 -480.3968,-2.2204 -642.5026,-129.7334 -162.1054,-127.5133 -293.5532,-111.1431 -447.2888,-8.2442 -153.7356,102.8985 5.6174,-386.0059 5.6174,-386.0059"
         id="path75"
         sodipodi:nodetypes="cssssc" />
      <path
         style="mix-blend-mode:normal;fill:none;stroke:#f0f5f2;stroke-width:9.6046;stroke-linecap:round;stroke-linejoin:round;stroke-dasharray:none;stroke-opacity:1;paint-order:normal;filter:url(#filter46)"
         d="m 4952.8701,2721.823 c 56.163,26.2626 92.8591,230.5325 66.2124,378.53 -81.0964,450.4158 -624.3712,110.9182 -546.3334,-147.6096 47.978,-158.9442 -232.0706,-135.2052 -115.0207,57.4014 64.18,105.6087 -39.0625,126.1743 -77.9548,96.233 -31.6912,-24.3976 -27.245,-118.4923 -27.245,-118.4923"
         id="path2-6"
         sodipodi:nodetypes="cssssc" />
      <path
         style="opacity:0.5;fill:none;stroke:none;stroke-width:24.0115;stroke-linecap:butt;stroke-linejoin:miter;stroke-dasharray:none;stroke-opacity:1"
         d="m 4055.5509,2712.8735 c 0,0 -136.7781,290.1109 38.6174,311.1585 175.3957,21.0474 199.5839,-197.4312 402.2407,-266.6013 228.8099,-78.0965 480.3968,2.2205 642.5026,129.7334 162.1054,127.5134 260.8127,157.9154 414.5483,55.0164 153.7356,-102.8984 50.5092,250.4329 50.5092,250.4329"
         id="path1-3"
         sodipodi:nodetypes="cssssc" />
    </g>
    <path
       style="mix-blend-mode:normal;fill:none;stroke:#d9e7e3;stroke-width:25;stroke-linecap:butt;stroke-linejoin:miter;stroke-dasharray:none;stroke-opacity:1;filter:url(#filter3)"
       d="m 3280.9931,2479.2381 c 0,0 77.8618,-33.1277 119.3243,-37.565 59.9418,-6.4149 167.6422,75.5575 180.0912,16.5728 19.3363,-91.6174 -280.5168,3.0522 -266.2699,-89.4932 8.9672,-58.2497 164.9107,54.4145 176.7767,-3.3145 7.5665,-36.8117 -98.3084,-9.0862 -102.7514,-46.4039 -3.4744,-29.1817 78.0271,-25.9892 69.5835,-54.1379 -13.5029,-45.0148 -99.8622,12.4728 -140.5567,-11.0351 -24.4172,-14.1051 -47.8688,-69.7493 -47.8688,-69.7493"
       id="path3"
       sodipodi:nodetypes="caaaaaaac"
       transform="rotate(165,3545.0317,2329.8765)" />
    <path
       style="mix-blend-mode:normal;fill:none;stroke:#d9e7e3;stroke-width:25;stroke-linecap:butt;stroke-linejoin:miter;stroke-dasharray:none;stroke-opacity:1;filter:url(#filter2)"
       d="m 3280.9931,2479.2381 c 0,0 77.8618,-33.1277 119.3243,-37.565 59.9418,-6.4149 167.6422,75.5575 180.0912,16.5728 19.3363,-91.6174 -280.5168,3.0522 -266.2699,-89.4932 8.9672,-58.2497 164.9107,54.4145 176.7767,-3.3145 7.5665,-36.8117 -98.3084,-9.0862 -102.7514,-46.4039 -3.4744,-29.1817 78.0271,-25.9892 69.5835,-54.1379 -13.5029,-45.0148 -99.8622,12.4728 -140.5567,-11.0351 -24.4172,-14.1051 -47.8688,-69.7493 -47.8688,-69.7493"
       id="path2"
       sodipodi:nodetypes="caaaaaaac"
       transform="rotate(-15,229.15147,2554.9817)" />
    <path
       style="fill:none;stroke:#d0e1dc;stroke-width:14.235;stroke-linecap:butt;stroke-linejoin:miter;stroke-dasharray:none;stroke-opacity:0.8392157;filter:url(#filter4)"
       d="m 3157.2494,1984.9552 c 20.4096,28.5031 23.409,74.8103 55.2428,89.4932 27.4105,12.6428 60.5276,-22.3366 89.4931,-13.841 14.1523,4.1509 19.3831,24.0073 33.1457,29.309 30.2447,11.6509 65.1001,5.3862 97.2272,1.1048 25.4233,-3.388 48.4156,-22.3964 74.0252,-20.9922 25.4028,1.3929 45.3645,30.9205 70.7107,28.7262 34.6144,-2.9967 54.8516,-46.1638 88.3883,-55.2427 23.8283,-6.4507 53.6753,16.1841 74.0252,2.2097 18.3392,-12.5937 12.9342,-42.7043 22.0971,-62.9767 9.9154,-21.9374 37.3531,-38.9856 35.3554,-62.9767 -3.2168,-38.6325 -61.1466,-53.663 -72.9204,-90.598 -7.3959,-23.2011 20.2367,-54.4055 4.4194,-72.9204 -42.2982,-49.5121 -129.3376,-18.1515 -194.4543,-18.7825 -43.9538,-0.4259 -87.8551,15.5346 -131.4777,10.1321 -37.005,-4.5829 -68.797,-36.725 -106.066,-35.5438 -31.3986,0.9952 -64.1622,14.2772 -87.2835,35.5438 -21.5367,19.8091 -23.115,54.2004 -39.7748,78.2562 -16.7705,24.2156 -52.0538,36.7301 -59.6621,65.1864 -4.3851,16.401 3.5994,34.4629 11.0485,49.7185 8.3795,17.161 25.3418,28.6667 36.4602,44.1941 z"
       id="path4"
       sodipodi:nodetypes="aaaaaaaaaaaaaaaaaaaaa"
       transform="matrix(0.93139446,0,0,1.1921691,236.87747,-366.16865)" />
  </g>
</svg>
