<?xml version="1.0" encoding="UTF-8" standalone="no"?>
<!-- Created with Inkscape (http://www.inkscape.org/) -->

<svg
   width="8119.7627"
   height="2502.1318"
   viewBox="0 0 2148.3538 662.02237"
   version="1.1"
   id="svg1"
   sodipodi:docname="AboutMe_LanguagesDecorSVG.svg"
   xml:space="preserve"
   inkscape:version="1.3 (0e150ed6c4, 2023-07-21)"
   xmlns:inkscape="http://www.inkscape.org/namespaces/inkscape"
   xmlns:sodipodi="http://sodipodi.sourceforge.net/DTD/sodipodi-0.dtd"
   xmlns="http://www.w3.org/2000/svg"
   xmlns:svg="http://www.w3.org/2000/svg"><sodipodi:namedview
     id="namedview1"
     pagecolor="#505050"
     bordercolor="#000000"
     borderopacity="1"
     inkscape:showpageshadow="0"
     inkscape:pageopacity="0"
     inkscape:pagecheckerboard="0"
     inkscape:deskcolor="#747474"
     inkscape:document-units="mm"
     inkscape:zoom="0.64"
     inkscape:cx="5925.7813"
     inkscape:cy="1816.4063"
     inkscape:window-width="1920"
     inkscape:window-height="1009"
     inkscape:window-x="-8"
     inkscape:window-y="-8"
     inkscape:window-maximized="1"
     inkscape:current-layer="layer1" /><defs
     id="defs1"><filter
       inkscape:collect="always"
       style="color-interpolation-filters:sRGB"
       id="filter45"
       x="-0.018693924"
       y="-0.065596056"
       width="1.0379987"
       height="1.116795"><feGaussianBlur
         inkscape:collect="always"
         stdDeviation="9.1642465"
         id="feGaussianBlur45" /></filter><filter
       inkscape:collect="always"
       style="color-interpolation-filters:sRGB"
       id="filter46"
       x="-0.014110768"
       y="-0.045492489"
       width="1.0282006"
       height="1.090985"><feGaussianBlur
         inkscape:collect="always"
         stdDeviation="8.0519012"
         id="feGaussianBlur46" /></filter><filter
       inkscape:collect="always"
       style="color-interpolation-filters:sRGB"
       id="filter3"
       x="-0.25254204"
       y="-0.10938986"
       width="1.5050841"
       height="1.2187797"><feGaussianBlur
         inkscape:collect="always"
         stdDeviation="4.9831597"
         id="feGaussianBlur3" /></filter><filter
       inkscape:collect="always"
       style="color-interpolation-filters:sRGB"
       id="filter4"
       x="-0.1177442"
       y="-0.21392003"
       width="1.2354884"
       height="1.4278401"><feGaussianBlur
         inkscape:collect="always"
         stdDeviation="6.6125139"
         id="feGaussianBlur4" /></filter></defs><g
     inkscape:label="Слой 1"
     inkscape:groupmode="layer"
     id="layer1"
     transform="translate(-3541.6083,-2596.4938)"><path
       style="fill:none;stroke:#b5cac7;stroke-width:40;stroke-linecap:round;stroke-linejoin:miter;stroke-dasharray:none;stroke-opacity:1"
       d="m 3723.2119,3137.3941 c 0,0 48.0642,-92.1159 223.4597,-71.0683 175.3957,21.0474 155.3401,-113.5933 336.5591,-247.9512 174.3431,-129.26 810.3842,-156.7475 733.9089,78.3428 -51.3599,157.8838 -40.8678,256.1368 112.8678,153.2379 153.7356,-102.8985 122.9138,119.94 122.9138,119.94"
       id="path45"
       sodipodi:nodetypes="cssssc" /><path
       style="mix-blend-mode:normal;fill:none;stroke:#dde6e4;stroke-width:15;stroke-linecap:butt;stroke-linejoin:miter;stroke-dasharray:none;stroke-opacity:1;filter:url(#filter45)"
       d="m 3723.2119,3137.3941 c 0,0 48.0642,-92.1159 223.4597,-71.0683 175.3957,21.0474 155.3401,-113.5933 336.5591,-247.9512 174.3431,-129.26 810.3842,-156.7475 733.9089,78.3428 -51.3599,157.8838 -40.8678,256.1368 112.8678,153.2379 153.7356,-102.8985 122.9138,119.94 122.9138,119.94"
       id="path77"
       sodipodi:nodetypes="cssssc" /><path
       style="fill:none;stroke:none;stroke-width:15;stroke-linecap:butt;stroke-linejoin:miter;stroke-dasharray:none;stroke-opacity:1"
       d="m 5375.4562,3258.5162 c 0,0 120.1356,-463.025 22.1864,-487.056 -102.606,-25.1736 -311.8371,279.847 -514.4939,349.0171 -228.8099,78.0966 -480.3968,-2.2204 -642.5026,-129.7334 -162.1054,-127.5133 -293.5532,-111.1431 -447.2888,-8.2442 -153.7356,102.8985 5.6174,-386.0059 5.6174,-386.0059"
       id="path75"
       sodipodi:nodetypes="cssssc" /><path
       style="mix-blend-mode:normal;fill:#9ebab5;fill-opacity:1;stroke:none;stroke-width:0.274441px;stroke-linecap:butt;stroke-linejoin:miter;stroke-opacity:1;filter:url(#filter3)"
       d="m 4974.0059,2979.7531 c 8.1851,-2.9233 44.4336,-43.8489 44.4336,-43.8489 l -5.2619,75.4201 -42.0949,33.9098 z"
       id="path4"
       transform="matrix(0.92945248,0,0,1,350.02939,0)" /><path
       style="mix-blend-mode:normal;fill:#9ebab5;fill-opacity:1;stroke:none;stroke-width:0.274441px;stroke-linecap:butt;stroke-linejoin:miter;stroke-opacity:1;filter:url(#filter4)"
       d="m 4958.2802,2959.2903 c 8.1851,-2.9233 57.0142,0.877 57.0142,0.877 l 77.7698,72.2045 -58.1351,-1.4617 z"
       id="path3"
       transform="matrix(0,0.92945248,-1,0,7206.6049,-1786.5961)"
       sodipodi:nodetypes="ccccc" /><path
       style="fill:none;stroke:#d3dedc;stroke-width:50;stroke-linecap:round;stroke-linejoin:miter;stroke-dasharray:none;stroke-opacity:1"
       d="m 5458.7829,3167.3749 c 0,0 -74.7358,-327.162 -209.4281,-356.897 -123.0589,-27.1667 -129.6154,80.8528 -310.8344,215.2107 -174.3431,129.26 -810.3842,156.7475 -733.9089,-78.3428 51.3599,-157.8838 -3.5658,-277.1843 -157.3014,-174.2854 -153.7356,102.8985 -136.9454,-85.4254 -136.9454,-85.4254"
       id="path46"
       sodipodi:nodetypes="casssc" /><path
       style="fill:none;stroke:#f6f5ee;stroke-width:5;stroke-linecap:round;stroke-linejoin:round;stroke-dasharray:none;stroke-opacity:1;paint-order:normal;filter:url(#filter46)"
       d="m 5458.7829,3167.3749 c 0,0 -74.7358,-327.162 -209.4281,-356.897 -123.0589,-27.1667 -129.6154,80.8528 -310.8344,215.2107 -174.3431,129.26 -810.3842,156.7475 -733.9089,-78.3428 51.3599,-157.8838 -3.5658,-277.1843 -157.3014,-174.2854 -153.7356,102.8985 -136.9454,-85.4254 -136.9454,-85.4254"
       id="path2"
       sodipodi:nodetypes="casssc" /><path
       style="opacity:0.5;fill:none;stroke:none;stroke-width:25;stroke-linecap:butt;stroke-linejoin:miter;stroke-dasharray:none;stroke-opacity:1"
       d="m 3910.3647,2687.635 c 0,0 -136.7781,290.1109 38.6174,311.1585 175.3957,21.0474 199.5839,-197.4312 402.2407,-266.6013 228.8099,-78.0966 480.3968,2.2204 642.5026,129.7334 162.1054,127.5133 260.8127,157.9153 414.5483,55.0164 153.7356,-102.8985 50.5092,250.4329 50.5092,250.4329"
       id="path1"
       sodipodi:nodetypes="cssssc" /></g></svg>
