<?xml version="1.0" encoding="UTF-8" standalone="no"?>
<!-- Created with Inkscape (http://www.inkscape.org/) -->

<svg
   width="2495.8013"
   height="850.24243"
   viewBox="0 0 660.34741 224.95996"
   version="1.1"
   id="svg1"
   sodipodi:docname="AboutMe_FooterDecor.svg"
   xml:space="preserve"
   inkscape:version="1.3 (0e150ed6c4, 2023-07-21)"
   xmlns:inkscape="http://www.inkscape.org/namespaces/inkscape"
   xmlns:sodipodi="http://sodipodi.sourceforge.net/DTD/sodipodi-0.dtd"
   xmlns="http://www.w3.org/2000/svg"
   xmlns:svg="http://www.w3.org/2000/svg"><sodipodi:namedview
     id="namedview1"
     pagecolor="#505050"
     bordercolor="#000000"
     borderopacity="1"
     inkscape:showpageshadow="0"
     inkscape:pageopacity="0"
     inkscape:pagecheckerboard="0"
     inkscape:deskcolor="#747474"
     inkscape:document-units="mm"
     inkscape:zoom="0.45254834"
     inkscape:cx="1166.7262"
     inkscape:cy="655.17863"
     inkscape:window-width="1920"
     inkscape:window-height="1009"
     inkscape:window-x="-8"
     inkscape:window-y="-8"
     inkscape:window-maximized="1"
     inkscape:current-layer="layer1" /><defs
     id="defs1"><filter
       inkscape:collect="always"
       style="color-interpolation-filters:sRGB"
       id="filter6"
       x="-0.046813635"
       y="-0.025768719"
       width="1.0962348"
       height="1.0500519"><feGaussianBlur
         inkscape:collect="always"
         stdDeviation="4.8517918"
         id="feGaussianBlur6" /></filter><filter
       inkscape:collect="always"
       style="color-interpolation-filters:sRGB"
       id="filter8"
       x="-0.030876837"
       y="-0.087240681"
       width="1.0617537"
       height="1.1744814"><feGaussianBlur
         inkscape:collect="always"
         stdDeviation="4.3720084"
         id="feGaussianBlur8" /></filter><filter
       inkscape:collect="always"
       style="color-interpolation-filters:sRGB"
       id="filter9"
       x="-0.046648121"
       y="-0.12407629"
       width="1.0932967"
       height="1.2481529"><feGaussianBlur
         inkscape:collect="always"
         stdDeviation="4.4093719"
         id="feGaussianBlur9" /></filter><filter
       inkscape:collect="always"
       style="color-interpolation-filters:sRGB"
       id="filter13"
       x="-0.069522811"
       y="-0.20703724"
       width="1.1390456"
       height="1.4140745"><feGaussianBlur
         inkscape:collect="always"
         stdDeviation="13.322916"
         id="feGaussianBlur13" /></filter><filter
       inkscape:collect="always"
       style="color-interpolation-filters:sRGB"
       id="filter14"
       x="-0.091814376"
       y="-0.259416"
       width="1.1836289"
       height="1.5188321"><feGaussianBlur
         inkscape:collect="always"
         stdDeviation="13.322916"
         id="feGaussianBlur14" /></filter><filter
       inkscape:collect="always"
       style="color-interpolation-filters:sRGB"
       id="filter15"
       x="-0.13534648"
       y="-0.35999944"
       width="1.2706943"
       height="1.7199997"><feGaussianBlur
         inkscape:collect="always"
         stdDeviation="12.616741"
         id="feGaussianBlur15" /></filter></defs><g
     inkscape:label="Слой 1"
     inkscape:groupmode="layer"
     id="layer1"
     transform="translate(-4835.5934,-6988.3216)"><g
       id="g15"
       style="stroke:#9aaea8;stroke-opacity:1"
       transform="translate(-22.21678,434.98115)"><path
         id="path6"
         style="mix-blend-mode:normal;fill:none;fill-opacity:1;stroke:#9aaea8;stroke-width:18.1211;stroke-linecap:round;stroke-linejoin:round;stroke-miterlimit:4.7;stroke-dasharray:none;stroke-opacity:1;paint-order:normal;filter:url(#filter13)"
         d="m 5071.1819,7588.6829 c -111.8865,-0.1097 -202.2462,87.7088 -205.691,198.2035 l 590.2454,10e-5 c -3.9601,-110.2307 -94.3785,-197.9189 -206.07,-198.0284 z"
         transform="matrix(0.74110081,0,0,0.71913076,1282.3352,2157.6086)" /><path
         id="path7"
         style="mix-blend-mode:normal;fill:none;fill-opacity:1;stroke:#9aaea8;stroke-width:18.1211;stroke-linecap:round;stroke-linejoin:round;stroke-miterlimit:4.7;stroke-dasharray:none;stroke-opacity:1;filter:url(#filter14)"
         d="m 5248.1565,7628.4095 c -12.9296,0.1296 -26.0622,1.863 -39.1507,5.3422 l -132.3018,35.1684 c -58.8673,15.6482 -100.6656,62.3396 -112.5178,117.6658 h 446.938 c -0.8966,-6.1885 -2.1264,-12.3921 -3.8,-18.5888 l -6.4354,-23.8262 c -19.0152,-70.4018 -82.9121,-116.4617 -152.7323,-115.7614 z"
         transform="matrix(0.74110081,0,0,0.71913076,1282.3352,2157.6086)" /><path
         id="path8"
         style="mix-blend-mode:normal;fill:none;fill-opacity:1;stroke:#9aaea8;stroke-width:18.1211;stroke-linecap:round;stroke-linejoin:round;stroke-miterlimit:4.7;stroke-dasharray:none;stroke-opacity:1;filter:url(#filter15)"
         d="m 5258.7334,7677.3335 c -18.6311,-0.4239 -37.6198,4.0765 -54.9882,14.0304 l -80.4619,46.1132 c -20.4572,11.7241 -35.4323,29.1649 -44.0747,49.1088 h 290.6633 c -1.445,-14.448 -5.9221,-28.8551 -13.7407,-42.2977 l -8.3574,-14.3693 c -19.2054,-33.0202 -53.4718,-51.7762 -89.0404,-52.5854 z"
         transform="matrix(0.74110081,0,0,0.71913076,1282.3352,2157.6086)" /></g><path
       id="path9"
       style="fill:none;fill-opacity:1;stroke:#749a91;stroke-width:26.458;stroke-linecap:round;stroke-linejoin:round;stroke-miterlimit:4.7;stroke-dasharray:none;stroke-opacity:1;paint-order:normal"
       d="m 4411.5695,7180.2935 c -111.8865,-0.1097 -202.2462,87.7088 -205.691,198.2035 l 590.2454,10e-5 c -3.9601,-110.2307 -94.3785,-197.9189 -206.07,-198.0284 z" /><path
       id="path1"
       style="mix-blend-mode:normal;fill:none;fill-opacity:1;stroke:#e1eae9;stroke-width:7.23617;stroke-linecap:square;stroke-linejoin:miter;stroke-miterlimit:4.7;stroke-dasharray:none;stroke-opacity:1;filter:url(#filter6)"
       d="m 1770.4333,1791.2446 c -31.6075,-117.9608 35.9446,-238.2649 151.9697,-273.3703 l 166.1292,622.4544 c -117.8297,27.2212 -236.1252,-43.1548 -267.6776,-160.9099 z"
       transform="matrix(0.23800129,0.88117663,0.88473373,-0.23518042,2411.5783,6038.5531)" /><g
       id="g199"
       transform="matrix(0.26536519,0.99046765,0.98645488,-0.26434949,2837.2535,5709.5098)"
       style="stroke:#000000;stroke-width:2.12012;stroke-dasharray:none;stroke-opacity:1"><path
         id="rect197"
         style="fill:#89a9a4;fill-opacity:1;stroke:#000000;stroke-width:2.12012;stroke-linecap:square;stroke-linejoin:miter;stroke-miterlimit:4.7;stroke-dasharray:none;stroke-opacity:1"
         d="m 1246.3666,2180.6035 c 0,-122.122 96.3873,-220.8431 217.5449,-224.7228 l -0.6346,644.2422 c -120.8601,-4.2029 -216.9101,-102.798 -216.9101,-224.7071 z"
         transform="rotate(-15)" /><path
         id="rect198"
         style="fill:#aac5bd;fill-opacity:1;stroke:#000000;stroke-width:2.12012;stroke-linecap:square;stroke-linejoin:miter;stroke-miterlimit:4.7;stroke-dasharray:none;stroke-opacity:1"
         d="m 1860.9657,1960.7984 c -3.5019,-13.6721 -5.3628,-28.0151 -5.3628,-42.8088 l -1e-4,-149.5385 c 0,-66.5367 37.6736,-123.9152 92.9186,-152.1729 l 125.7941,471.3269 c -6.8049,0.8171 -13.7196,1.2873 -20.7518,1.2873 h -27.0391 c -79.8953,0 -146.649,-54.2643 -165.5589,-128.094 z" /><path
         id="rect199"
         style="fill:#d1e0db;fill-opacity:1;stroke:#000000;stroke-width:2.12013;stroke-linecap:square;stroke-linejoin:miter;stroke-miterlimit:4.7;stroke-dasharray:none;stroke-opacity:1"
         d="m 2364.1799,1407.5696 c -10.5401,-17.3807 -16.5995,-37.807 -16.5995,-59.7003 l -10e-5,-101.4241 c 0,-25.7867 8.4105,-49.5342 22.6432,-68.6711 L 2528.38,1452.565 c -14.5035,6.5784 -30.6181,10.2677 -47.6352,10.2677 l -18.19,10e-5 c -41.8004,0 -78.253,-22.0819 -98.3749,-55.2632 z"
         transform="matrix(0.96573695,0.25952293,-0.2581168,0.96611372,0,0)" /></g><path
       id="path10"
       style="fill:none;fill-opacity:1;stroke:#7b9e9a;stroke-width:26.4583;stroke-linecap:round;stroke-linejoin:round;stroke-miterlimit:4.7;stroke-dasharray:none;stroke-opacity:1"
       d="m 4588.5441,7220.0201 c -12.9296,0.1296 -26.0622,1.863 -39.1507,5.3422 l -132.3018,35.1684 c -58.8673,15.6482 -100.6656,62.3396 -112.5178,117.6658 h 446.938 c -0.8966,-6.1885 -2.1264,-12.3921 -3.8,-18.5888 l -6.4354,-23.8262 c -19.0152,-70.4018 -82.9121,-116.4617 -152.7323,-115.7614 z" /><path
       id="path11"
       style="mix-blend-mode:normal;fill:none;fill-opacity:1;stroke:#eaf0ef;stroke-width:6.61458;stroke-linecap:round;stroke-linejoin:round;stroke-miterlimit:4.7;stroke-dasharray:none;stroke-opacity:1;filter:url(#filter8)"
       d="m 4594.0966,7218.6489 c -12.9296,0.1296 -26.0622,1.863 -39.1507,5.3422 l -132.3018,35.1684 c -58.8673,15.6482 -100.6656,62.3396 -112.5178,117.6658 h 446.938 c -0.8966,-6.1885 -2.1264,-12.3921 -3.8,-18.5888 l -6.4354,-23.8262 c -19.0152,-70.4018 -82.9121,-116.4617 -152.7323,-115.7614 z" /><path
       id="path12"
       style="fill:none;fill-opacity:1;stroke:#82a69e;stroke-width:26.4583;stroke-linecap:round;stroke-linejoin:round;stroke-miterlimit:4.7;stroke-dasharray:none;stroke-opacity:1"
       d="m 4599.121,7268.9441 c -18.6311,-0.4239 -37.6198,4.0765 -54.9882,14.0304 l -80.4619,46.1132 c -20.4572,11.7241 -35.4323,29.1649 -44.0747,49.1088 h 290.6633 c -1.445,-14.448 -5.9221,-28.8551 -13.7407,-42.2977 l -8.3574,-14.3693 c -19.2054,-33.0202 -53.4718,-51.7762 -89.0404,-52.5854 z" /><g
       id="g25"
       transform="translate(3.9509292,-91.398902)"><path
         style="color:#000000;fill:#79a098;fill-opacity:1;stroke-linecap:round;stroke-linejoin:round;stroke-miterlimit:4.7;-inkscape-stroke:none"
         d="m 5076.3477,7560.7755 c -118.8156,-0.1165 -215.2633,93.5415 -218.9258,211.0196 a 13.230323,13.230323 0 0 0 13.2226,13.6425 h 590.2442 a 13.230323,13.230323 0 0 0 13.2207,-13.705 c -4.2105,-117.1993 -100.669,-210.665 -219.2774,-210.7813 z m -0.025,26.459 178.4843,0.1738 c 100.0751,0.098 181.3561,74.8856 191.6954,171.5704 h -561.5372 c 9.8672,-96.9529 91.0753,-171.8425 191.3575,-171.7442 z"
         id="path19" /><path
         id="path20"
         style="mix-blend-mode:normal;fill:none;fill-opacity:1;stroke:#e1eae9;stroke-width:7.23617;stroke-linecap:square;stroke-linejoin:miter;stroke-miterlimit:4.7;stroke-dasharray:none;stroke-opacity:1;filter:url(#filter6)"
         d="m 1770.4333,1791.2446 c -31.6075,-117.9608 35.9446,-238.2649 151.9697,-273.3703 l 166.1292,622.4544 c -117.8297,27.2212 -236.1252,-43.1548 -267.6776,-160.9099 z"
         transform="matrix(0.23800129,0.88117663,0.88473373,-0.23518042,3076.3439,6432.2642)" /><path
         style="color:#000000;fill:#79a098;fill-opacity:1;stroke-linecap:round;stroke-linejoin:round;stroke-miterlimit:4.7;-inkscape-stroke:none"
         d="m 5253.1777,7600.5021 c -14.022,0.1405 -28.2605,2.0237 -42.4179,5.7871 l -132.3008,35.168 c -63.679,16.9272 -109.1874,67.6149 -122.0547,127.6797 a 13.230473,13.230473 0 0 0 12.9355,16 h 446.9375 a 13.230473,13.230473 0 0 0 13.0918,-15.127 c -0.9628,-6.6458 -2.2933,-13.3732 -4.1211,-20.1406 l -6.4335,-23.8262 c -20.5818,-76.2017 -89.9185,-126.3005 -165.6368,-125.541 z m 0.2637,26.457 c 63.922,-0.6411 122.3795,41.3807 139.8281,105.9824 l 6.4336,23.8262 c 0.1711,0.6337 0.2878,1.2751 0.4492,1.9102 h -413.3906 c 14.7864,-43.4206 50.2505,-78.8267 98.4922,-91.6504 l 132.3007,-35.168 c 12.0195,-3.195 24.0476,-4.7817 35.8848,-4.9004 z"
         id="path21" /><path
         id="path22"
         style="mix-blend-mode:normal;fill:none;fill-opacity:1;stroke:#eaf0ef;stroke-width:6.61458;stroke-linecap:round;stroke-linejoin:round;stroke-miterlimit:4.7;stroke-dasharray:none;stroke-opacity:1;filter:url(#filter8)"
         d="m 5258.8622,7612.36 c -12.9296,0.1296 -26.0622,1.863 -39.1507,5.3422 l -132.3018,35.1684 c -58.8673,15.6482 -100.6656,62.3396 -112.5178,117.6658 h 446.938 c -0.8966,-6.1885 -2.1264,-12.3921 -3.8,-18.5888 l -6.4354,-23.8262 c -19.0152,-70.4018 -82.9121,-116.4617 -152.7323,-115.7614 z" /><path
         style="color:#000000;fill:#79a098;fill-opacity:1;stroke-linecap:round;stroke-linejoin:round;stroke-miterlimit:4.7;-inkscape-stroke:none"
         d="m 5264.1875,7649.4298 c -20.9641,-0.477 -42.3823,4.6105 -61.8672,15.7774 l -80.4609,46.1132 c -22.9514,13.1536 -39.8964,32.8485 -49.6367,55.3262 a 13.230473,13.230473 0 0 0 12.1386,18.4903 h 290.6641 a 13.230473,13.230473 0 0 0 13.1641,-14.545 c -1.6277,-16.2739 -6.6883,-32.5364 -15.4688,-47.6328 l -8.3574,-14.3691 c -21.5491,-37.0498 -60.1533,-58.2496 -100.1758,-59.1602 z m -0.6016,26.4512 c 31.1147,0.7079 61.0446,17.0211 77.9063,46.0117 l 8.3574,14.3692 c 4.2071,7.2332 7.1699,14.7682 9.2227,22.416 h -251.8184 c 7.2331,-9.6116 16.5263,-17.9625 27.7598,-24.4004 l 80.4629,-46.1133 c 15.2518,-8.7409 31.8113,-12.654 48.1093,-12.2832 z"
         id="path23" /><path
         id="path24"
         style="mix-blend-mode:normal;fill:none;fill-opacity:1;stroke:#f6f8f8;stroke-width:5.95312;stroke-linecap:round;stroke-linejoin:round;stroke-miterlimit:4.7;stroke-dasharray:none;stroke-opacity:1;filter:url(#filter9)"
         d="m 5268.7825,7660.0142 c -18.6311,-0.4239 -37.6198,4.0765 -54.9882,14.0304 l -80.4619,46.1132 c -20.4572,11.7241 -35.4323,29.1649 -44.0747,49.1088 h 290.6633 c -1.445,-14.448 -5.9221,-28.8551 -13.7407,-42.2977 l -8.3574,-14.3693 c -19.2054,-33.0202 -53.4718,-51.7762 -89.0404,-52.5854 z" /></g><path
       id="path13"
       style="mix-blend-mode:normal;fill:none;fill-opacity:1;stroke:#f6f8f8;stroke-width:5.95312;stroke-linecap:round;stroke-linejoin:round;stroke-miterlimit:4.7;stroke-dasharray:none;stroke-opacity:1;filter:url(#filter9)"
       d="m 4604.0169,7266.3031 c -18.6311,-0.4239 -37.6198,4.0765 -54.9882,14.0304 l -80.4619,46.1132 c -20.4572,11.7241 -35.4323,29.1649 -44.0747,49.1088 h 290.6633 c -1.445,-14.448 -5.9221,-28.8551 -13.7407,-42.2977 l -8.3574,-14.3693 c -19.2054,-33.0202 -53.4718,-51.7762 -89.0404,-52.5854 z" /><rect
       style="opacity:1;fill:#ececec;fill-opacity:1;stroke:none;stroke-width:1.98438;stroke-linecap:round;stroke-linejoin:round;stroke-miterlimit:4.7;stroke-dasharray:none;stroke-opacity:1;paint-order:normal"
       id="rect25"
       width="616.70227"
       height="197.97224"
       x="5806.8906"
       y="7735.6826" /></g></svg>
