<?xml version="1.0" encoding="UTF-8" standalone="no"?>
<!-- Created with Inkscape (http://www.inkscape.org/) -->

<svg
   width="1400"
   height="736.09204"
   viewBox="0 0 1400 736.09204"
   version="1.1"
   id="svg1"
   sodipodi:docname="AboutMe_SkillsTitleSVG_Mobile.svg"
   xml:space="preserve"
   inkscape:version="1.3 (0e150ed6c4, 2023-07-21)"
   xmlns:inkscape="http://www.inkscape.org/namespaces/inkscape"
   xmlns:sodipodi="http://sodipodi.sourceforge.net/DTD/sodipodi-0.dtd"
   xmlns="http://www.w3.org/2000/svg"
   xmlns:svg="http://www.w3.org/2000/svg"><sodipodi:namedview
     id="namedview1"
     pagecolor="#505050"
     bordercolor="#000000"
     borderopacity="1"
     inkscape:showpageshadow="0"
     inkscape:pageopacity="0"
     inkscape:pagecheckerboard="0"
     inkscape:deskcolor="#747474"
     inkscape:document-units="px"
     inkscape:zoom="0.64000004"
     inkscape:cx="899.21869"
     inkscape:cy="391.40623"
     inkscape:window-width="1920"
     inkscape:window-height="1009"
     inkscape:window-x="-8"
     inkscape:window-y="-8"
     inkscape:window-maximized="1"
     inkscape:current-layer="layer1" /><defs
     id="defs1"><inkscape:path-effect
       effect="spiro"
       id="path-effect12"
       is_visible="true"
       lpeversion="1" /><inkscape:path-effect
       effect="spiro"
       id="path-effect9"
       is_visible="true"
       lpeversion="1" /><inkscape:path-effect
       effect="spiro"
       id="path-effect8"
       is_visible="true"
       lpeversion="1" /><inkscape:path-effect
       effect="spiro"
       id="path-effect6"
       is_visible="true"
       lpeversion="1" /><inkscape:path-effect
       effect="spiro"
       id="path-effect4"
       is_visible="true"
       lpeversion="1" /><inkscape:path-effect
       effect="bend_path"
       id="path-effect22"
       is_visible="true"
       lpeversion="1"
       bendpath="m 3765.0195,3946.8817 c 820.9443,-531.3867 662.6058,529.0304 1344.6224,-125.8466"
       prop_scale="1"
       scale_y_rel="false"
       vertical="false"
       hide_knot="false"
       bendpath-nodetypes="cc" /><inkscape:path-effect
       effect="bend_path"
       id="path-effect11"
       is_visible="true"
       lpeversion="1"
       bendpath="m 3765.0195,3946.8817 c 820.9443,-531.3867 662.6058,529.0304 1344.6224,-125.8466"
       prop_scale="1"
       scale_y_rel="false"
       vertical="false"
       hide_knot="false"
       bendpath-nodetypes="cc" /><filter
       inkscape:collect="always"
       style="color-interpolation-filters:sRGB"
       id="filter1"
       x="-0.055048732"
       y="-0.23369694"
       width="1.1101018"
       height="1.467398"><feGaussianBlur
         inkscape:collect="always"
         stdDeviation="20.448579"
         id="feGaussianBlur1" /></filter><filter
       inkscape:collect="always"
       style="color-interpolation-filters:sRGB"
       id="filter2"
       x="-0.040521422"
       y="-0.19995229"
       width="1.0811156"
       height="1.3998003"><feGaussianBlur
         inkscape:collect="always"
         stdDeviation="14.053702"
         id="feGaussianBlur2" /></filter><filter
       inkscape:collect="always"
       style="color-interpolation-filters:sRGB"
       id="filter3"
       x="-0.05348583"
       y="-0.24297952"
       width="1.1069717"
       height="1.4859381"><feGaussianBlur
         inkscape:collect="always"
         stdDeviation="15.055248"
         id="feGaussianBlur3" /></filter><filter
       inkscape:collect="always"
       style="color-interpolation-filters:sRGB"
       id="filter5"
       x="-0.072195933"
       y="-0.34028699"
       width="1.1443919"
       height="1.6805139"><feGaussianBlur
         inkscape:collect="always"
         stdDeviation="5.2608791"
         id="feGaussianBlur5" /></filter><filter
       inkscape:collect="always"
       style="color-interpolation-filters:sRGB"
       id="filter8"
       x="-0.040414132"
       y="-0.17712211"
       width="1.0815297"
       height="1.3539642"><feGaussianBlur
         inkscape:collect="always"
         stdDeviation="0.59135392"
         id="feGaussianBlur8" /></filter><filter
       inkscape:collect="always"
       style="color-interpolation-filters:sRGB"
       id="filter10"
       x="-0.051563975"
       y="-0.21674778"
       width="1.1031279"
       height="1.4334982"><feGaussianBlur
         inkscape:collect="always"
         stdDeviation="0.33324981"
         id="feGaussianBlur10" /></filter><filter
       inkscape:collect="always"
       style="color-interpolation-filters:sRGB"
       id="filter7"
       x="-0.57029132"
       y="-0.5541547"
       width="2.1405826"
       height="2.1083094"><feGaussianBlur
         inkscape:collect="always"
         stdDeviation="34.364075"
         id="feGaussianBlur7" /></filter><filter
       inkscape:collect="always"
       style="color-interpolation-filters:sRGB"
       id="filter6"
       x="-0.66995273"
       y="-0.65099614"
       width="2.3399055"
       height="2.3019923"><feGaussianBlur
         inkscape:collect="always"
         stdDeviation="40.369377"
         id="feGaussianBlur6" /></filter><filter
       inkscape:collect="always"
       style="color-interpolation-filters:sRGB"
       id="filter9"
       x="-0.57549516"
       y="-0.55921129"
       width="2.1509903"
       height="2.1184226"><feGaussianBlur
         inkscape:collect="always"
         stdDeviation="34.677644"
         id="feGaussianBlur9" /></filter><filter
       inkscape:collect="always"
       style="color-interpolation-filters:sRGB"
       id="filter11"
       x="-0.56917617"
       y="-0.5530711"
       width="2.1383523"
       height="2.1061422"><feGaussianBlur
         inkscape:collect="always"
         stdDeviation="34.296878"
         id="feGaussianBlur11" /></filter><filter
       inkscape:collect="always"
       style="color-interpolation-filters:sRGB"
       id="filter6-0"
       x="-0.66995273"
       y="-0.65099614"
       width="2.3399055"
       height="2.3019923"><feGaussianBlur
         inkscape:collect="always"
         stdDeviation="40.369377"
         id="feGaussianBlur6-6" /></filter><filter
       inkscape:collect="always"
       style="color-interpolation-filters:sRGB"
       id="filter6-0-7"
       x="-0.66995273"
       y="-0.65099614"
       width="2.3399055"
       height="2.3019923"><feGaussianBlur
         inkscape:collect="always"
         stdDeviation="40.369377"
         id="feGaussianBlur6-6-0" /></filter></defs><g
     inkscape:label="Слой 1"
     inkscape:groupmode="layer"
     id="layer1"
     transform="translate(-3857.8297,-3620.9407)"><ellipse
       style="mix-blend-mode:normal;fill:#d9e5e2;fill-opacity:1;stroke:none;stroke-width:4.4722;stroke-linecap:round;stroke-linejoin:round;stroke-miterlimit:4.7;stroke-opacity:1;filter:url(#filter11)"
       id="ellipse1"
       cx="4201.604"
       cy="3761.5027"
       rx="72.308464"
       ry="74.41404"
       transform="matrix(2.2168751,0,0,0.79170342,-5038.3471,754.03155)" /><ellipse
       style="mix-blend-mode:normal;fill:#d9e5e2;fill-opacity:1;stroke:none;stroke-width:3.83907;stroke-linecap:round;stroke-linejoin:round;stroke-miterlimit:4.7;stroke-opacity:1;filter:url(#filter9)"
       id="ellipse7"
       cx="4201.604"
       cy="3761.5027"
       rx="72.308464"
       ry="74.41404"
       transform="matrix(2.7780407,0,0,0.85734726,-7400.0672,1009.9654)" /><ellipse
       style="mix-blend-mode:normal;fill:#d9e5e2;fill-opacity:1;stroke:none;stroke-width:4.69756;stroke-linecap:round;stroke-linejoin:round;stroke-miterlimit:4.7;stroke-opacity:1;filter:url(#filter7)"
       id="path7"
       cx="4957.3203"
       cy="3761.5027"
       rx="72.308464"
       ry="74.41404"
       transform="matrix(2.262677,0,0,0.99746266,-6307.072,425.75787)" /><path
       style="fill:none;stroke:#dbe6e3;stroke-width:147.779;stroke-linecap:round;stroke-linejoin:miter;stroke-dasharray:none;stroke-opacity:1;filter:url(#filter5)"
       d="m 5213.6855,4144.5715 c 0,0 -105.3101,-203.4085 -203.6245,-207.591 -178.4637,-7.5922 -158.3747,168.8699 -263.6896,174.1849 -158.424,7.9954 -262.6673,-215.1271 -421.1938,-220.7481 -87.1298,-3.0895 -173.6177,47.7867 -239.5632,104.625 -33.4758,28.8529 -70.2736,112.2728 -70.2736,112.2728"
       id="path3"
       sodipodi:nodetypes="csaaac"
       transform="matrix(-0.87777639,-0.06334436,-0.06119933,0.9085425,8855.3379,679.83531)" /><path
       style="fill:none;stroke:#c5d8d6;stroke-width:55.8538;stroke-linecap:round;stroke-linejoin:miter;stroke-dasharray:none;stroke-opacity:1;filter:url(#filter3)"
       d="m 5213.0318,4144.8527 c 0,0 -104.4422,-205.3717 -202.9708,-216.9673 -104.7224,-12.3244 -158.3747,168.8699 -263.6896,174.1849 -158.424,7.9954 -262.6673,-215.1271 -421.1938,-220.7481 -87.1298,-3.0895 -173.6177,47.7867 -239.5632,104.625 -33.4758,28.8529 -70.2736,112.2728 -70.2736,112.2728"
       id="path60"
       sodipodi:nodetypes="caaaac"
       transform="matrix(-0.87777639,-0.06334436,-0.06119933,0.9085425,8855.3379,679.83531)" /><path
       style="fill:none;stroke:#afcac9;stroke-width:120.781;stroke-linecap:round;stroke-linejoin:miter;stroke-dasharray:none;stroke-opacity:0.75;filter:url(#filter10)"
       d="m 5158.0685,3962.7851 c 0,0 -23.7565,233.7815 -196.8717,238.0494 -201.8191,4.9756 -216.5124,-103.5944 -331.3497,-96.6142 -118.9166,7.2281 -209.3464,142.0611 -328.4764,140.868 -105.9264,-1.0608 -214.6357,-13.713 -289.5029,-131.0794 -36.4758,-57.1816 -40.4863,-130.8962 -40.4863,-130.8962"
       id="path1"
       sodipodi:nodetypes="csaasc"
       transform="matrix(1.0345564,0,0,1.0353147,-157.48241,-140.86818)" /><ellipse
       style="mix-blend-mode:normal;fill:#f0f4f3;fill-opacity:1;stroke:none;stroke-width:6.50202;stroke-linecap:round;stroke-linejoin:round;stroke-miterlimit:4.7;stroke-dasharray:none;stroke-opacity:1;filter:url(#filter6-0)"
       id="ellipse8-3"
       cx="4201.604"
       cy="3761.5027"
       rx="72.308464"
       ry="74.41404"
       transform="matrix(1.1890698,0,0,0.69834901,-1021.1244,1379.3271)" /><path
       style="fill:none;stroke:#a1bfbc;stroke-width:33.8186;stroke-linecap:round;stroke-linejoin:miter;stroke-dasharray:none;stroke-opacity:1;filter:url(#filter1)"
       d="m 5158.0685,3979.9119 c 0,0 -98.9032,206.3469 -196.8717,238.0494 -104.6365,33.8603 -209.5296,-88.5501 -319.3612,-82.863 -120.9784,6.2642 -219.3615,130.1127 -340.4649,127.1168 -83.7435,-2.0717 -166.2564,-46.0355 -230.7985,-99.4357 -50.9315,-42.1392 -111.1851,-164.2118 -111.1851,-164.2118"
       id="path58"
       sodipodi:nodetypes="caaaac"
       transform="matrix(1.0345564,0,0,1.0353147,-157.48241,-140.86818)" /><path
       style="fill:none;stroke:#c6dcd7;stroke-width:96.6242;stroke-linecap:round;stroke-linejoin:miter;stroke-dasharray:none;stroke-opacity:0.75;filter:url(#filter8)"
       d="m 5168.5574,3948.0079 c 0,0 -27.2958,-179.4666 -211.058,-184.4036 -166.2443,-4.4664 -209.9448,114.0524 -323.6347,108.7997 -126.8586,-5.8612 -221.4899,-149.2672 -348.3886,-154.1832 -98.9342,-3.8327 -209.0995,-3.5299 -280.1001,98.8326 -65.0557,93.7916 -42.6371,181.2654 -42.6371,181.2654"
       id="path4"
       sodipodi:nodetypes="csaasc"
       transform="matrix(1.0345564,0,0,1.0353147,-157.48241,-140.86818)" /><path
       style="fill:none;stroke:#aac7bf;stroke-width:24.1561;stroke-linecap:round;stroke-linejoin:miter;stroke-dasharray:none;stroke-opacity:1;filter:url(#filter2)"
       d="m 5142.1816,3951.4985 c 0,0 -7.8173,-164.0941 -184.6822,-163.0817 -158.3777,0.9066 -209.9226,113.5237 -323.5333,108.2759 -126.834,-5.8586 -222.0137,-142.4875 -348.49,-153.6594 -78.6604,-6.9483 -168.5181,-3.0339 -230.1551,56.0914 -80.4904,77.2105 -19.2563,170.5811 -19.2563,170.5811"
       id="path94"
       sodipodi:nodetypes="csaasc"
       transform="matrix(1.0345564,0,0,1.0353147,-157.48241,-140.86818)" /><path
       style="fill:none;stroke:#e0ebe7;stroke-width:24.1561;stroke-linecap:round;stroke-linejoin:miter;stroke-dasharray:none;stroke-opacity:1;filter:url(#filter2)"
       d="m 5182.2048,3932.6776 c 0,0 -37.4593,-194.3958 -224.7054,-195.8212 -174.4771,-1.3282 -205.3615,128.2224 -319.4989,123.7816 -130.2565,-5.068 -222.4648,-160.3978 -352.5244,-169.1651 -94.9703,-6.4019 -212.9797,25.8224 -271.6857,87.8589 -71.3953,75.4457 -19.4616,257.4343 -19.4616,257.4343"
       id="path14"
       sodipodi:nodetypes="csaasc"
       transform="matrix(1.0345564,0,0,1.0353147,-157.48241,-140.86818)" /><ellipse
       style="mix-blend-mode:normal;fill:#f9fbfb;fill-opacity:1;stroke:none;stroke-width:2.14587;stroke-linecap:round;stroke-linejoin:round;stroke-miterlimit:4.7;stroke-dasharray:none;stroke-opacity:1;filter:url(#filter6)"
       id="ellipse8"
       cx="4201.604"
       cy="3761.5027"
       rx="72.308464"
       ry="74.41404"
       transform="matrix(4.6275166,0,0,1.6474907,-14886.349,-2208.1658)" /><ellipse
       style="mix-blend-mode:normal;fill:#f0f4f3;fill-opacity:1;stroke:none;stroke-width:6.73657;stroke-linecap:round;stroke-linejoin:round;stroke-miterlimit:4.7;stroke-dasharray:none;stroke-opacity:1;filter:url(#filter6-0-7)"
       id="ellipse8-3-9"
       cx="4201.604"
       cy="3761.5027"
       rx="72.308464"
       ry="74.41404"
       transform="matrix(1.1077121,0,0,0.69834901,490.24699,1348.8929)" /><path
       style="fill:none;stroke:#dfece9;stroke-width:33.8186;stroke-linecap:round;stroke-linejoin:miter;stroke-dasharray:none;stroke-opacity:1;filter:url(#filter1)"
       d="m 5158.0685,3962.7851 c 0,0 10.3626,234.8507 -196.8717,238.0494 -153.5824,2.3705 -210.4536,-132.5404 -327.2156,-126.3798 -124.4354,6.5654 -208.2358,163.0029 -332.6105,170.6336 -88.9407,5.4567 -183.8357,-33.451 -250.9831,-92.0295 -48.793,-42.5664 -91.0005,-171.618 -91.0005,-171.618"
       id="path11"
       sodipodi:nodetypes="csaaac"
       transform="matrix(1.0345564,0,0,1.0353147,-157.48241,-140.86818)" /><path
       style="font-size:254.599px;line-height:1;font-family:Misto;-inkscape-font-specification:Misto;fill:#262626;fill-opacity:1;stroke-width:0.264583"
       d="m 4129.6279,3871.0019 c -82.6634,0 -111.3489,58.9563 -111.3489,85.1935 0,27.4718 31.4616,30.5584 60.147,30.5584 h 68.7835 c 45.3413,0 83.2803,0 83.2803,20.6811 0,23.459 -54.5948,34.88 -90.9916,34.88 h -16.656 c -41.6401,0 -72.9963,-16.9506 -95.9266,-35.1886 -3.3623,-2.6742 -12.6464,2.4693 -12.6464,2.4693 14.4971,50.6222 48.7343,86.4282 119.3687,86.4282 64.7734,0 106.1052,-42.2882 106.1052,-85.1935 0,-30.2498 -36.3968,-32.4104 -56.1369,-32.4104 h -83.5891 c -55.8287,0 -71.8677,-5.8648 -71.8677,-18.8291 0,-25.0025 58.6045,-34.2628 92.2252,-34.2628 h 16.656 c 35.1629,0 66.3429,15.3468 95.6182,34.5714 3.6753,2.4136 12.9548,-2.4695 12.9548,-2.4695 -15.1138,-56.7954 -57.6795,-86.428 -115.9757,-86.428 z m 292.7153,177.7949 -28.9938,-60.4996 82.0464,-112.9739 h -44.8922 c -54.2558,0 -157.4482,191.3765 -157.4482,191.3765 v -191.3765 h -8.9449 v 216.0704 h 53.9781 l 69.0919,-95.071 27.1432,56.1784 c 13.2634,27.7804 23.1334,43.5227 51.819,43.5227 13.88,0 25.6009,-10.495 25.6009,-23.1504 0,-12.0382 -10.1788,-21.9157 -22.5165,-21.9157 -12.3379,0 -22.5165,9.8775 -22.5165,22.5329 0,3.704 0.9252,7.0994 2.4674,10.1863 -9.2533,-3.7041 -20.0488,-20.681 -26.8348,-34.8801 z m 121.8363,-219.4655 c 0,-13.8903 -11.1042,-25.0024 -24.6755,-25.0024 -13.5719,0 -24.6758,11.1121 -24.6758,25.0024 0,13.5815 11.1039,24.6939 24.6758,24.6939 13.5713,0 24.6755,-11.1124 24.6755,-24.6939 z m -29.3024,45.992 v 216.0704 h 8.9448 v -216.0704 z m 50.5851,0 h -8.9449 v 216.0704 h 169.0282 c 0,0 1.0311,-47.1836 -53.2112,-55.3351 -39.7853,-5.9789 -105.8098,8.1515 -105.8098,8.1515 z m 187.5349,0 h -8.945 v 216.0704 h 169.0283 c 0,0 1.0314,-47.1836 -53.211,-55.3346 -39.785,-5.9788 -105.8097,8.151 -105.8097,8.151 z m 275.4417,-4.3214 c -82.6634,0 -111.3487,58.9563 -111.3487,85.1935 0,27.4718 31.4614,30.5584 60.1469,30.5584 h 68.7832 c 45.3416,0 83.2805,0 83.2805,20.6811 0,23.459 -54.595,34.88 -90.9915,34.88 h -16.6562 c -41.6401,0 -69.0919,-8.6428 -95.9266,-35.1886 l -12.6462,2.4693 c 14.4968,50.6222 48.7345,86.4282 119.3685,86.4282 64.7736,0 106.1053,-42.2882 106.1053,-85.1935 0,-30.2498 -36.3965,-32.4104 -56.1371,-32.4104 h -83.5888 c -55.8287,0 -71.8679,-5.8648 -71.8679,-18.8291 0,-25.0025 58.6047,-34.2628 92.2253,-34.2628 h 16.6561 c 35.1628,0 70.3255,6.4823 95.6182,34.5714 l 12.9547,-2.4695 c -15.1138,-56.7954 -57.6794,-86.428 -115.9757,-86.428 z"
       id="path16"
       aria-label="MY SKILLS"
       sodipodi:nodetypes="sssssssscsssssssscscccscccccccssssccssssscccccccccsccccccsccsssssssccsssssssccs" /><g
       id="g11"
       transform="matrix(0.41177235,0,0,0.41207418,2341.7955,1856.8273)"
       style="stroke-width:2.42765;fill:#507c79;fill-opacity:0.91764706"><path
         style="fill:#507c79;fill-opacity:0.91764706;stroke:none;stroke-width:0.642313px;stroke-linecap:butt;stroke-linejoin:miter;stroke-opacity:1"
         d="m 4623.7833,4518.2863 92.2036,115.0432 c 2.8617,3.5706 37.2657,-115.0432 107.9874,-115.0432 h 87.6113 c 0,0 -149.4547,119.6313 -149.4547,197.3933 0,0 13.9417,103.2338 1e-4,103.2338 h -45.201 c 0,0 81.9873,-66.786 -13.2496,-185.5048 -78.5811,-97.9562 -92.3517,-115.1223 -92.3517,-115.1223 z"
         id="path2"
         sodipodi:nodetypes="csscsscscc" /><path
         style="fill:#507c79;fill-opacity:0.91764706;stroke:none;stroke-width:0.642313px;stroke-linecap:butt;stroke-linejoin:miter;stroke-opacity:1"
         d="m 4098.6037,4818.9134 c 0,0 113.3794,-300.6271 184.2415,-300.6271 h 70.8621 c 0,0 -0.093,240.1859 0,258.9688 0.121,24.5342 90.5241,-258.9688 158.9029,-258.9688 h 70.8621 v 300.6271 h -12.4546 v -260.2572 c 0,0 -123.4719,260.2572 -158.9029,260.2572 h -70.862 v -260.2572 c 0,0 -117.0298,260.2572 -158.9029,260.2572 z"
         id="path3-6"
         sodipodi:nodetypes="cscssccccsccsc" /></g></g></svg>
