<?xml version="1.0" encoding="UTF-8" standalone="no"?>
<!-- Created with Inkscape (http://www.inkscape.org/) -->

<svg
   width="6548.6299"
   height="10043.136"
   viewBox="0 0 1732.6582 2657.2462"
   version="1.1"
   id="svg1"
   sodipodi:docname="AboutMe_Skills_Mobile.svg"
   xml:space="preserve"
   inkscape:version="1.3 (0e150ed6c4, 2023-07-21)"
   xmlns:inkscape="http://www.inkscape.org/namespaces/inkscape"
   xmlns:sodipodi="http://sodipodi.sourceforge.net/DTD/sodipodi-0.dtd"
   xmlns="http://www.w3.org/2000/svg"
   xmlns:svg="http://www.w3.org/2000/svg"><sodipodi:namedview
     id="namedview1"
     pagecolor="#505050"
     bordercolor="#000000"
     borderopacity="1"
     inkscape:showpageshadow="0"
     inkscape:pageopacity="0"
     inkscape:pagecheckerboard="0"
     inkscape:deskcolor="#747474"
     inkscape:document-units="mm"
     inkscape:zoom="0.039999998"
     inkscape:cx="3725.0002"
     inkscape:cy="5112.5003"
     inkscape:window-width="1920"
     inkscape:window-height="1009"
     inkscape:window-x="-8"
     inkscape:window-y="-8"
     inkscape:window-maximized="1"
     inkscape:current-layer="layer1" /><defs
     id="defs1"><inkscape:path-effect
       effect="spiro"
       id="path-effect11"
       is_visible="true"
       lpeversion="1" /><inkscape:path-effect
       effect="spiro"
       id="path-effect10"
       is_visible="true"
       lpeversion="1" /><inkscape:path-effect
       effect="spiro"
       id="path-effect11-7"
       is_visible="true"
       lpeversion="1" /><filter
       inkscape:collect="always"
       style="color-interpolation-filters:sRGB"
       id="filter21"
       x="-0.010482894"
       y="-0.18035564"
       width="1.0209658"
       height="1.3607113"><feGaussianBlur
         inkscape:collect="always"
         stdDeviation="7.4034101"
         id="feGaussianBlur21" /></filter><filter
       inkscape:collect="always"
       style="color-interpolation-filters:sRGB"
       id="filter22"
       x="-0.012389068"
       y="-0.18035564"
       width="1.0247781"
       height="1.3607113"><feGaussianBlur
         inkscape:collect="always"
         stdDeviation="7.4034101"
         id="feGaussianBlur22" /></filter><filter
       inkscape:collect="always"
       style="color-interpolation-filters:sRGB"
       id="filter23"
       x="-0.019419638"
       y="-0.18042109"
       width="1.0388393"
       height="1.3608422"><feGaussianBlur
         inkscape:collect="always"
         stdDeviation="7.4034101"
         id="feGaussianBlur23" /></filter><filter
       inkscape:collect="always"
       style="color-interpolation-filters:sRGB"
       id="filter24"
       x="-0.011008847"
       y="-0.18035564"
       width="1.0220177"
       height="1.3607113"><feGaussianBlur
         inkscape:collect="always"
         stdDeviation="7.4034101"
         id="feGaussianBlur24" /></filter><filter
       inkscape:collect="always"
       style="color-interpolation-filters:sRGB"
       id="filter25"
       x="-0.017354098"
       y="-0.1803568"
       width="1.0347082"
       height="1.3607136"><feGaussianBlur
         inkscape:collect="always"
         stdDeviation="7.4034101"
         id="feGaussianBlur25" /></filter><filter
       inkscape:collect="always"
       style="color-interpolation-filters:sRGB"
       id="filter26"
       x="-0.015239476"
       y="-0.1803562"
       width="1.030479"
       height="1.3607124"><feGaussianBlur
         inkscape:collect="always"
         stdDeviation="7.4034101"
         id="feGaussianBlur26" /></filter><filter
       inkscape:collect="always"
       style="color-interpolation-filters:sRGB"
       id="filter27"
       x="-0.023618196"
       y="-0.18186287"
       width="1.0472364"
       height="1.3637257"><feGaussianBlur
         inkscape:collect="always"
         stdDeviation="7.4034101"
         id="feGaussianBlur27" /></filter></defs><g
     inkscape:label="Слой 1"
     inkscape:groupmode="layer"
     id="layer1"
     transform="translate(-3712.635,-4534.2125)"><g
       id="g9"><path
         d="m 3753.2673,4535.9728 q -0.4146,14.6082 -0.4146,36.2618 0,21.4463 0.4146,36.262 h -10.775 q 0.518,-18.4419 0.518,-36.262 0,-17.9238 -0.518,-36.2618 z m 62.7848,0 h 2.383 v 72.5238 h -3.3155 q -6.32,-9.0139 -15.8517,-20.721 -9.5315,-11.7075 -25.4867,-30.7709 l -8.8065,-10.5677 v 62.0596 h -2.3831 v -72.5238 h 8.1851 q 6.1125,8.4954 13.054,17.3021 7.0454,8.7027 17.8201,21.7571 9.3246,11.293 14.4013,17.613 z m 58.019,72.5238 q -3.8332,-6.7346 -8.9101,-14.6084 -4.9731,-7.874 -9.9462,-15.3336 -1.3468,-2.1757 -3.0046,-4.4551 -1.554,-2.3829 -3.2117,-5.0766 l -10.8785,10.7748 q 0,11.0857 0.4145,28.6989 h -10.775 q 0.5179,-18.4419 0.5179,-36.262 0,-17.9238 -0.5179,-36.2618 h 10.775 q -0.4145,20.3066 -0.4145,33.1538 v 7.4595 l 41.1316,-40.6133 h 3.4187 l -26.1085,25.5905 q 9.9461,16.6805 28.595,44.343 0.5182,0.829 0.9324,1.4507 0.4146,0.6214 0.7254,1.1396 z m 62.8884,-59.1586 q -2.1756,-4.9732 -7.3559,-8.3922 -5.1803,-3.5227 -13.0543,-3.5227 -5.3875,0 -9.8425,1.865 -4.4551,1.8649 -7.0453,5.1801 -2.59,3.2118 -2.59,7.1488 0,2.9011 1.3469,5.6985 1.9685,3.8333 6.4235,6.3198 4.5588,2.3829 12.7435,5.4913 6.4236,2.3828 10.4642,4.3512 4.0405,1.8651 7.3557,4.766 3.4192,2.9009 4.7661,6.838 0.7251,2.0721 0.7251,4.7658 0,4.7657 -2.9008,9.221 -2.7974,4.4547 -8.5996,7.356 -5.6979,2.7972 -13.9863,2.7972 -13.0544,0 -20.0996,-5.491 -7.045,-5.4912 -8.4958,-13.4688 l 1.8651,-0.1024 q 2.1757,6.9415 8.392,11.8111 6.3198,4.7658 16.5769,4.7658 5.1802,0 8.9101,-1.865 3.8333,-1.8647 5.8018,-4.8693 1.9683,-3.0044 1.9683,-6.4236 0,-3.6262 -2.279,-6.6307 -2.7976,-3.6263 -7.2524,-6.0091 -4.3514,-2.3832 -11.9147,-5.2839 -7.2523,-2.901 -11.3966,-5.0766 -4.1441,-2.176 -7.0452,-5.6985 -2.9008,-3.6261 -2.9008,-9.0135 0,-5.6984 3.5224,-10.3606 3.5226,-4.6621 9.8426,-7.3559 6.4235,-2.694 14.5049,-2.694 2.1756,0 3.2117,0.1035 8.392,0.5179 13.4686,4.5585 5.1803,3.9371 6.9415,9.2209 z m 77.4968,41.5454 q -2.7974,7.5634 -10.0497,12.8474 -7.2524,5.2838 -18.6491,5.2838 -12.3288,0 -21.1355,-5.1805 -8.7027,-5.2837 -13.1579,-13.6756 -4.3512,-8.4959 -4.3512,-18.0273 0,-9.5319 4.3512,-17.9238 4.4552,-8.4957 13.0544,-13.6762 8.7029,-5.2838 20.8247,-5.2838 12.0183,0 19.2705,5.2838 7.2525,5.2841 9.6355,12.8471 l -7.1488,0.1024 q -1.9686,-6.9418 -7.3561,-11.7075 -5.2839,-4.8692 -13.7795,-4.8692 -9.3245,0 -15.8517,4.5583 -6.4234,4.4552 -9.7389,11.9147 -3.2117,7.3559 -3.2117,15.9552 0,8.703 3.3153,16.6805 3.3155,7.9777 9.739,13.2615 6.5271,5.2838 15.4371,6.1128 1.347,0.2072 3.9371,0.2072 8.5992,0 14.5048,-4.2479 5.9056,-4.3513 8.4956,-10.5677 z m 50.7666,17.6132 q -2.9008,-8.4957 -7.6668,-21.2392 -0.4143,-1.4506 -1.1396,-3.3152 h -26.3158 l -8.8063,24.5544 h -2.5903 l 25.9014,-72.5238 h 4.8694 q 16.0588,44.6538 27.352,72.5238 z m -34.2932,-26.9373 h 24.5544 q -5.3876,-14.6086 -12.6399,-33.4648 z m 80.9158,-45.5865 q 8.8065,0 15.1264,3.4188 6.4235,3.3156 9.7388,8.8067 3.3154,5.3873 3.3154,11.5001 0,5.8019 -3.2117,10.8785 -3.1082,5.0767 -9.4282,8.2887 -6.3197,3.1078 -15.4371,3.1078 h -16.4733 q 0,10.1534 0.4144,26.5232 h -10.775 q 0.5181,-18.4419 0.5181,-36.262 0,-17.9238 -0.5181,-36.2618 h 10.775 z m -2.1757,43.8249 q 6.6306,0 11.293,-2.7971 4.6621,-2.9011 6.9415,-7.4599 2.383,-4.662 2.383,-9.946 0,-5.491 -2.4865,-10.3605 -2.3831,-4.9729 -7.0453,-7.9776 -4.6622,-3.0047 -11.1893,-3.0047 l -13.7795,0.1024 q -0.3109,14.0902 -0.3109,30.7708 v 10.6713 z m 88.2716,26.316 v 2.3829 h -48.6944 q 0.518,-18.4419 0.518,-36.262 0,-17.9238 -0.518,-36.2618 h 46.1044 v 2.2791 h -35.433 q -0.3108,14.0906 -0.3108,30.46 v 7.149 h 25.5906 v 2.3829 h -25.5906 q 0,15.0226 0.3108,28.077 z m 11.5001,10.257 h -3.2116 l 3.2116,-14.1941 h 6.5272 z m 46.3118,-80.3979 q -0.4145,14.6082 -0.4145,36.2618 0,21.4463 0.4145,36.262 h -10.7751 q 0.5183,-18.4419 0.5183,-36.262 0,-17.9238 -0.5183,-36.2618 z m 55.9471,70.1409 v 2.3829 h -46.6226 q 0.5182,-18.4419 0.5182,-36.262 0,-17.9238 -0.5182,-36.2618 h 10.7751 q -0.5181,18.6489 -0.5181,36.6763 0,12.9506 0.4144,33.6717 z m 54.9109,0 v 2.3829 h -46.6224 q 0.5179,-18.4419 0.5179,-36.262 0,-17.9238 -0.5179,-36.2618 h 10.7748 q -0.518,18.6489 -0.518,36.6763 0,12.9506 0.4145,33.6717 z m 1e-4,-70.2446 h 10.0496 l -0.3107,48.0731 q -0.1024,12.6398 6.0092,17.8198 6.1124,5.1804 15.5406,5.1804 10.257,0 15.23,-6.2162 4.9731,-6.3201 4.9731,-17.7165 l -0.1023,-47.0369 h 2.4866 v 46.933 q 0,12.0184 -5.2838,18.96 -5.1805,6.8379 -16.577,7.045 -12.9508,0.311 -22.4823,-4.5583 -9.4283,-4.8698 -9.4283,-19.3744 z m 112.3083,13.4689 q -2.1758,-4.9732 -7.356,-8.3922 -5.1803,-3.5227 -13.0544,-3.5227 -5.3874,0 -9.8424,1.865 -4.455,1.8649 -7.045,5.1801 -2.5905,3.2118 -2.5905,7.1488 0,2.9011 1.347,5.6985 1.9686,3.8333 6.4235,6.3198 4.5587,2.3829 12.7436,5.4913 6.4234,2.3828 10.4642,4.3512 4.0404,1.8651 7.356,4.766 3.4189,2.9009 4.7657,6.838 0.7253,2.0721 0.7253,4.7658 0,4.7657 -2.9009,9.221 -2.7974,4.4547 -8.5994,7.356 -5.6983,2.7972 -13.9867,2.7972 -13.0545,0 -20.0995,-5.491 -7.0452,-5.4912 -8.4955,-13.4688 l 1.8649,-0.1024 q 2.1756,6.9415 8.3918,11.8111 6.3201,4.7658 16.5771,4.7658 5.1803,0 8.91,-1.865 3.8333,-1.8647 5.8018,-4.8693 1.9686,-3.0044 1.9686,-6.4236 0,-3.6262 -2.2792,-6.6307 -2.7974,-3.6263 -7.2526,-6.0091 -4.3514,-2.3832 -11.9145,-5.2839 -7.2523,-2.901 -11.3966,-5.0766 -4.1444,-2.176 -7.0452,-5.6985 -2.901,-3.6261 -2.901,-9.0135 0,-5.6984 3.5226,-10.3606 3.5225,-4.6621 9.8425,-7.3559 6.4236,-2.694 14.5048,-2.694 2.1758,0 3.2117,0.1035 8.392,0.5179 13.4687,4.5585 5.1803,3.9371 6.9416,9.2209 z m 68.0687,-11.0861 h -26.6267 q -0.4141,20.7212 -0.4141,33.5682 0,18.0275 0.5178,36.6765 h -10.775 q 0.518,-18.649 0.518,-36.6765 0,-12.847 -0.4146,-33.5682 h -26.9372 v -2.2791 h 64.1318 z m 47.3477,42.3747 q 5.8018,1.865 9.2209,5.802 3.5226,3.937 7.356,10.464 3.0045,5.1804 5.2838,7.874 2.2796,2.6939 5.5948,3.73 -3.8335,1.4505 -7.7703,1.4505 -6.1129,0 -9.2209,-4.1443 -1.1396,-1.1396 -2.0721,-2.7974 -0.829,-1.7612 -2.4867,-5.3875 -2.0721,-4.6621 -3.7296,-7.6666 -1.5542,-3.0046 -4.1441,-5.3875 -2.5904,-2.3829 -6.113,-2.9012 h -0.3108 -20.2031 q 0,10.2571 0.4146,26.834 h -10.775 q 0.5179,-18.4419 0.5179,-36.262 0,-17.9238 -0.5179,-36.2618 h 10.775 17.0948 q 8.8064,0 15.1264,3.4188 6.3199,3.3156 9.5316,8.8067 3.2117,5.3873 3.2117,11.5001 0,7.1489 -4.3513,12.9507 -4.3514,5.8018 -12.4327,7.9775 z m -28.2843,-42.271 q -0.3108,14.0903 -0.3108,30.5639 v 10.5677 h 17.3021 q 0.9325,-0.1035 2.5902,-0.1035 4.973,-0.518 8.4956,-3.4191 3.6263,-2.9007 5.3876,-7.2523 1.8649,-4.3513 1.8649,-9.2208 0,-5.491 -2.3832,-10.3606 -2.2792,-4.8693 -6.9414,-7.874 -4.5587,-3.0047 -11.0858,-3.0047 z m 109.5109,70.141 q -2.9011,-8.4957 -7.6667,-21.2392 -0.4143,-1.4506 -1.1396,-3.3152 h -26.3158 l -8.8065,24.5544 h -2.5901 l 25.9012,-72.5238 h 4.8698 q 16.0586,44.6538 27.3515,72.5238 z m -34.2933,-26.9373 h 24.5545 q -5.3876,-14.6086 -12.6399,-33.4648 z m 102.7767,-43.3074 h -26.6266 q -0.4143,20.7212 -0.4143,33.5682 0,18.0275 0.518,36.6765 h -10.7751 q 0.5181,-18.649 0.5181,-36.6765 0,-12.847 -0.4143,-33.5682 h -26.9375 v -2.2791 h 64.1317 z m 39.1631,71.1772 q -3.937,0.518 -6.838,0.518 -11.9145,0 -20.7212,-5.6984 -8.7027,-5.6983 -13.2614,-14.8156 -4.4551,-9.1172 -4.4551,-19.1671 0,-9.1172 3.7299,-16.9911 3.8333,-7.8742 11.5002,-13.0543 7.7703,-5.1804 18.856,-5.9057 1.0362,-0.1024 3.1082,-0.1024 11.9148,0 20.5141,5.6984 8.7027,5.5946 13.1577,14.712 4.4552,9.0135 4.4552,19.0631 0,8.5993 -3.419,16.2661 -3.3154,7.6668 -10.1533,12.9507 -6.7345,5.1805 -16.4733,6.5273 z m -0.5182,-1.4507 q 6.7346,-0.9323 11.3966,-5.3872 4.6624,-4.5588 6.9415,-11.2931 2.2795,-6.8381 2.2795,-14.712 0,-10.3604 -3.7298,-19.9959 -3.7298,-9.6353 -10.8786,-15.4372 -7.0451,-5.9056 -16.4734,-5.2839 -8.0811,0.5179 -13.5722,4.9731 -5.491,4.3516 -8.1849,11.3965 -2.59,6.9415 -2.59,15.2299 0,10.0499 3.7297,19.4781 3.8334,9.4281 10.8786,15.4371 7.0453,5.9056 16.3696,5.9056 1.7614,0 3.8334,-0.311 z m 79.8798,-27.3518 q 5.802,1.865 9.221,5.802 3.5226,3.937 7.356,10.464 3.0046,5.1804 5.2839,7.874 2.2794,2.6939 5.5946,3.73 -3.8334,1.4505 -7.7704,1.4505 -6.1127,0 -9.2209,-4.1443 -1.1396,-1.1396 -2.0721,-2.7974 -0.8287,-1.7612 -2.4866,-5.3875 -2.072,-4.6621 -3.7298,-7.6666 -1.5541,-3.0046 -4.1442,-5.3875 -2.5899,-2.3829 -6.1126,-2.9012 h -0.3109 -20.2031 q 0,10.2571 0.4143,26.834 h -10.7748 q 0.518,-18.4419 0.518,-36.262 0,-17.9238 -0.518,-36.2618 h 10.7748 17.0951 q 8.8064,0 15.1264,3.4188 6.3201,3.3156 9.5317,8.8067 3.2118,5.3873 3.2118,11.5001 0,7.1489 -4.3514,12.9507 -4.3515,5.8018 -12.4328,7.9775 z m -28.2841,-42.271 q -0.311,14.0903 -0.311,30.5639 v 10.5677 h 17.3022 q 0.9325,-0.1035 2.5901,-0.1035 4.9731,-0.518 8.4957,-3.4191 3.6263,-2.9007 5.3874,-7.2523 1.8648,-4.3513 1.8648,-9.2208 0,-5.491 -2.3828,-10.3606 -2.2794,-4.8693 -6.9416,-7.874 -4.5587,-3.0047 -11.0856,-3.0047 z"
         id="text4"
         style="font-size:59.445px;line-height:1;font-family:BROLIMO;-inkscape-font-specification:BROLIMO;fill:#1a1a1a;fill-opacity:1;stroke-width:0.264582"
         aria-label="INKSCAPE, ILLUSTRATOR" /><g
         id="g21"
         transform="translate(-0.2019043)"><circle
           style="opacity:1;fill:#abc2bd;fill-opacity:1;stroke:#abc2bd;stroke-width:20;stroke-linecap:round;stroke-linejoin:round;stroke-miterlimit:4.7;stroke-dasharray:none;stroke-opacity:1"
           id="path5"
           cx="3742.6943"
           cy="4754.7988"
           r="19.857384" /><circle
           style="fill:#abc2bd;fill-opacity:1;stroke:#abc2bd;stroke-width:20;stroke-linecap:round;stroke-linejoin:round;stroke-miterlimit:4.7;stroke-dasharray:none;stroke-opacity:1"
           id="path5-1"
           cx="5413.8779"
           cy="4745.3848"
           r="19.857384" /><path
           id="path4"
           style="color:#000000;fill:#abc2bd;stroke:#abc2bd;stroke-width:20;stroke-linecap:round;stroke-linejoin:round;stroke-dasharray:none;stroke-opacity:1"
           d="m 4502.582,4653.9546 c -14.684,0.2364 -29.3962,0.7982 -44.1348,1.7266 -113.7957,7.1682 -212.4164,70.9853 -311.322,71.1403 -36.6663,0.058 -74.6348,-13.8839 -114.8871,-28.3962 -40.2522,-14.5122 -82.9966,-29.6305 -129.6934,-26.1173 -34.5773,2.6013 -75.1281,19.2402 -109.1365,34.785 -34.0083,15.5448 -60.6505,30.549 -60.6505,30.549 l 19.4691,34.584 c 0,0 25.3224,-14.2462 57.6812,-29.037 32.3588,-14.7908 72.5779,-29.5719 95.6154,-31.3051 36.1259,-2.7178 73.4155,9.5139 113.254,23.8771 39.8387,14.3631 82.0197,30.8207 128.4103,30.748 114.7888,-0.1799 214.2794,-64.9542 313.7555,-71.2204 225.2031,-14.1861 452.7728,64.1026 688.0019,67.9121 58.8629,0.9533 136.5507,5.6286 206.0784,4.7615 20.5679,-0.2566 40.2638,-1.0833 58.8543,-2.5885 v -39.8462 c -18.2164,1.5787 -38.1776,2.4872 -59.3504,2.7513 -67.3573,0.8401 -144.5703,-3.7843 -204.9394,-4.762 -212.4792,-3.441 -426.7453,-73.1071 -647.006,-69.5622 z" /><path
           id="path13"
           style="color:#000000;mix-blend-mode:normal;fill:#d3dedc;fill-opacity:1;stroke-width:3;stroke-dasharray:none;filter:url(#filter21)"
           d="m 4502.582,4654.0574 c -14.684,0.2364 -29.3962,0.7982 -44.1348,1.7266 -113.7957,7.1682 -212.4164,70.9853 -311.322,71.1403 -36.6663,0.058 -74.6348,-13.8839 -114.8871,-28.3962 -40.2522,-14.5122 -82.9966,-29.6305 -129.6934,-26.1173 -34.5773,2.6013 -75.1281,19.2402 -109.1365,34.785 -34.0083,15.5448 -60.6505,30.549 -60.6505,30.549 l 19.4691,14.6993 c 0,0 25.3224,-14.2462 57.6812,-29.037 32.3588,-14.7908 72.5779,-29.5719 95.6154,-31.3051 36.1259,-2.7178 73.4155,9.5139 113.254,23.8771 39.8387,14.3631 82.0197,30.8207 128.4103,30.748 114.7888,-0.1799 214.2794,-64.9542 313.7555,-71.2204 225.2031,-14.1861 452.7728,64.1026 688.0019,67.9121 58.8629,0.9533 136.5507,5.6286 206.0784,4.7615 20.5679,-0.2566 54.1131,-1.9101 72.7036,-3.4153 v -19.9615 c -18.2164,1.5787 -52.0269,3.314 -73.1997,3.5781 -67.3573,0.8401 -144.5703,-3.7843 -204.9394,-4.762 -212.4792,-3.441 -426.7453,-73.1071 -647.006,-69.5622 z"
           sodipodi:nodetypes="sscsccccsccssssccsss" /></g></g><g
       id="g8"
       transform="translate(0,-26.265927)"><path
         d="m 3780.8262,4967.0472 q 13.3652,0 20.8246,5.5949 7.4597,5.5945 9.2211,13.7792 l -8.8067,0.1035 q -1.7612,-7.4596 -7.1488,-12.6398 -5.3874,-5.1804 -14.1936,-5.1804 -8.9103,0 -15.2302,4.8696 -6.2163,4.7657 -9.4279,12.6397 -3.1083,7.7705 -3.1083,16.6806 0,9.6352 3.6262,18.131 3.6262,8.3919 10.6712,13.365 7.1489,4.973 17.1986,4.455 6.1127,-0.3106 10.1532,-3.6261 4.1442,-3.3154 5.9057,-6.9416 v -17.613 h -17.5094 v -2.383 h 27.3518 v 21.1356 q -6.9416,6.3201 -13.7794,8.4957 -6.7345,2.1757 -14.2976,2.4865 -12.6397,0.518 -21.6536,-4.4552 -9.0136,-5.0766 -13.5721,-13.5721 -4.5587,-8.4957 -4.5587,-18.2346 0,-9.5316 4.3513,-18.0274 4.455,-8.4956 13.0543,-13.7795 8.7029,-5.2838 20.9283,-5.2838 z m 51.2846,0.6217 q -0.4143,14.6083 -0.4143,36.2618 0,21.4464 0.4143,36.262 h -10.775 q 0.5181,-18.4418 0.5181,-36.262 0,-17.9235 -0.5181,-36.2618 z m 79.2582,0 q -0.4145,21.9642 -0.4145,36.2618 0,14.0905 0.4145,36.262 h -10.6712 q 0.4143,-14.0902 0.4143,-34.708 0,-16.7841 -0.3109,-31.496 l -26.8337,66.204 h -3.1083 q -5.6982,-14.9192 -18.1308,-44.9647 -7.2524,-17.4058 -8.9102,-21.6535 v 66.6182 h -2.3829 v -72.5238 h 11.5002 q 5.1805,13.883 9.739,25.1759 4.6622,11.2931 11.9146,28.3881 0.4144,1.0361 1.0361,2.3828 0.6217,1.3471 1.2431,3.0046 l 23.8295,-58.7441 v -0.2073 z m 36.0545,0 q 8.8066,0 15.1265,3.419 6.4237,3.3153 9.7389,8.8065 3.3154,5.3873 3.3154,11.5 0,5.802 -3.2117,10.8787 -3.1082,5.0765 -9.428,8.2885 -6.3202,3.1081 -15.4373,3.1081 h -16.4733 q 0,10.1533 0.4144,26.523 h -10.775 q 0.5181,-18.4418 0.5181,-36.262 0,-17.9235 -0.5181,-36.2618 h 10.775 z m -2.1755,43.8249 q 6.6308,0 11.2929,-2.7972 4.6623,-2.901 6.9416,-7.4595 2.383,-4.6625 2.383,-9.946 0,-5.4913 -2.4866,-10.3607 -2.3829,-4.973 -7.0452,-7.9776 -4.6622,-3.0045 -11.1893,-3.0045 l -13.7795,0.1024 q -0.3109,14.0904 -0.3109,30.7709 v 10.6713 z m 41.7529,36.573 h -3.2118 l 3.2118,-14.1942 h 6.5271 z m 62.2669,-80.3979 q 8.8063,0 15.1264,3.419 6.4235,3.3153 9.7389,8.8065 3.3155,5.3873 3.3155,11.5 0,5.802 -3.212,10.8787 -3.108,5.0765 -9.4279,8.2885 -6.32,3.1081 -15.4373,3.1081 h -16.4732 q 0,10.1533 0.4144,26.523 h -10.7748 q 0.5179,-18.4418 0.5179,-36.262 0,-17.9235 -0.5179,-36.2618 h 10.7748 z m -2.1758,43.8249 q 6.6309,0 11.2931,-2.7972 4.6622,-2.901 6.9415,-7.4595 2.383,-4.6625 2.383,-9.946 0,-5.4913 -2.4867,-10.3607 -2.3828,-4.973 -7.0451,-7.9776 -4.6622,-3.0045 -11.1893,-3.0045 l -13.7796,0.1024 q -0.3107,14.0904 -0.3107,30.7709 v 10.6713 z m 97.5963,-43.8249 q -0.4143,14.6083 -0.4143,36.2618 0,21.4464 0.4143,36.262 h -10.7749 q 0.4144,-13.5724 0.4144,-33.1538 H 4097.03 q 0,19.5814 0.4143,33.1538 h -10.7749 q 0.5179,-18.4418 0.5179,-36.262 0,-17.9235 -0.5179,-36.2618 h 10.7749 q -0.4143,18.649 -0.4143,30.1492 v 6.8379 h 37.2978 v -6.8379 q 0,-11.5002 -0.4144,-30.1492 z m 53.2531,73.4563 q -3.937,0.5178 -6.8379,0.5178 -11.9146,0 -20.721,-5.6983 -8.703,-5.6981 -13.2617,-14.8154 -4.455,-9.1172 -4.455,-19.167 0,-9.1175 3.7299,-16.9913 3.8334,-7.8739 11.5002,-13.0544 7.7705,-5.1802 18.8562,-5.9053 1.0359,-0.1024 3.108,-0.1024 11.9147,0 20.5141,5.6982 8.7026,5.5946 13.1578,14.7121 4.455,9.0135 4.455,19.0633 0,8.5993 -3.419,16.266 -3.3152,7.6669 -10.1532,12.9508 -6.7344,5.1802 -16.4734,6.5271 z m -0.518,-1.4505 q 6.7345,-0.9325 11.3966,-5.3875 4.6623,-4.5587 6.9415,-11.2929 2.2794,-6.8379 2.2794,-14.7122 0,-10.3605 -3.7297,-19.9958 -3.73,-9.6352 -10.8788,-15.4373 -7.045,-5.9053 -16.4731,-5.2839 -8.0813,0.5182 -13.5724,4.9731 -5.491,4.3515 -8.1849,11.3969 -2.59,6.9415 -2.59,15.2299 0,10.0496 3.7298,19.4777 3.8334,9.4281 10.8785,15.4371 7.0453,5.9056 16.3697,5.9056 1.7613,0 3.8334,-0.3107 z m 86.4068,-69.7264 h -26.6265 q -0.4145,20.721 -0.4145,33.5681 0,18.0272 0.5181,36.6763 h -10.775 q 0.518,-18.6491 0.518,-36.6763 0,-12.8471 -0.4143,-33.5681 h -26.9375 v -2.2794 h 64.1317 z m 39.1631,71.1769 q -3.937,0.5178 -6.838,0.5178 -11.9145,0 -20.7211,-5.6983 -8.7027,-5.6981 -13.2614,-14.8154 -4.4551,-9.1172 -4.4551,-19.167 0,-9.1175 3.7298,-16.9913 3.8334,-7.8739 11.5003,-13.0544 7.7702,-5.1802 18.8559,-5.9053 1.0363,-0.1024 3.1083,-0.1024 11.9149,0 20.514,5.6982 8.7029,5.5946 13.1577,14.7121 4.4553,9.0135 4.4553,19.0633 0,8.5993 -3.419,16.266 -3.3155,7.6669 -10.1534,12.9508 -6.7345,5.1802 -16.4733,6.5271 z m -0.5181,-1.4505 q 6.7345,-0.9325 11.3967,-5.3875 4.6623,-4.5587 6.9413,-11.2929 2.2795,-6.8379 2.2795,-14.7122 0,-10.3605 -3.7298,-19.9958 -3.7298,-9.6352 -10.8786,-15.4373 -7.0452,-5.9053 -16.4732,-5.2839 -8.0812,0.5182 -13.5724,4.9731 -5.4909,4.3515 -8.1848,11.3969 -2.59,6.9415 -2.59,15.2299 0,10.0496 3.7296,19.4777 3.8334,9.4281 10.8786,15.4371 7.0454,5.9056 16.3696,5.9056 1.7615,0 3.8335,-0.3107 z M 4409.4,4981.034 q -2.1757,-4.9732 -7.356,-8.3919 -5.1802,-3.5227 -13.0543,-3.5227 -5.3873,0 -9.8424,1.8647 -4.455,1.8649 -7.0451,5.1805 -2.5903,3.2116 -2.5903,7.1487 0,2.9009 1.347,5.6983 1.9684,3.8332 6.4235,6.3198 4.5586,2.3829 12.7435,5.4913 6.4234,2.3828 10.464,4.3515 4.0408,1.8647 7.3561,4.7659 3.4189,2.9006 4.766,6.8378 0.7251,2.072 0.7251,4.7657 0,4.766 -2.901,9.2209 -2.7974,4.455 -8.5992,7.356 -5.6984,2.7974 -13.9869,2.7974 -13.0542,0 -20.0993,-5.4912 -7.0451,-5.4911 -8.4957,-13.4685 l 1.865,-0.1024 q 2.1756,6.9415 8.3919,11.8112 6.3199,4.7656 16.5768,4.7656 5.1805,0 8.9101,-1.8646 3.8336,-1.865 5.8019,-4.8696 1.9687,-3.0046 1.9687,-6.4236 0,-3.6262 -2.2795,-6.6308 -2.7973,-3.6259 -7.2523,-6.0091 -4.3513,-2.3828 -11.9145,-5.2839 -7.2526,-2.9008 -11.3967,-5.0765 -4.1442,-2.1757 -7.0452,-5.6984 -2.901,-3.6261 -2.901,-9.0137 0,-5.6981 3.5226,-10.3606 3.5228,-4.662 9.8427,-7.3559 6.4235,-2.6936 14.5045,-2.6936 2.1759,0 3.2119,0.1024 8.3921,0.518 13.4688,4.5588 5.1801,3.9369 6.9416,9.2207 z m 70.2444,-13.3651 q -0.4144,14.6083 -0.4144,36.2618 0,21.4464 0.4144,36.262 h -10.7749 q 0.4144,-13.5724 0.4144,-33.1538 h -37.298 q 0,19.5814 0.4145,33.1538 h -10.7749 q 0.518,-18.4418 0.518,-36.262 0,-17.9235 -0.518,-36.2618 h 10.7749 q -0.4145,18.649 -0.4145,30.1492 v 6.8379 h 37.298 v -6.8379 q 0,-11.5002 -0.4144,-30.1492 z m 53.2531,73.4563 q -3.937,0.5178 -6.8379,0.5178 -11.9145,0 -20.7211,-5.6983 -8.7028,-5.6981 -13.2614,-14.8154 -4.4552,-9.1172 -4.4552,-19.167 0,-9.1175 3.7299,-16.9913 3.8334,-7.8739 11.5003,-13.0544 7.7701,-5.1802 18.8559,-5.9053 1.0362,-0.1024 3.1082,-0.1024 11.9149,0 20.5141,5.6982 8.7027,5.5946 13.1578,14.7121 4.4551,9.0135 4.4551,19.0633 0,8.5993 -3.4189,16.266 -3.3155,7.6669 -10.1534,12.9508 -6.7345,5.1802 -16.4734,6.5271 z m -0.518,-1.4505 q 6.7345,-0.9325 11.3966,-5.3875 4.6624,-4.5587 6.9415,-11.2929 2.2793,-6.8379 2.2793,-14.7122 0,-10.3605 -3.7297,-19.9958 -3.7298,-9.6352 -10.8786,-15.4373 -7.0452,-5.9053 -16.4733,-5.2839 -8.0812,0.5182 -13.5722,4.9731 -5.491,4.3515 -8.1849,11.3969 -2.5901,6.9415 -2.5901,15.2299 0,10.0496 3.73,19.4777 3.8332,9.4281 10.8783,15.4371 7.0454,5.9056 16.3697,5.9056 1.7615,0 3.8334,-0.3107 z m 67.6545,-72.0058 q 8.8063,0 15.1262,3.419 6.4236,3.3153 9.739,8.8065 3.3152,5.3873 3.3152,11.5 0,5.802 -3.2116,10.8787 -3.1081,5.0765 -9.4281,8.2885 -6.3199,3.1081 -15.4373,3.1081 h -16.4733 q 0,10.1533 0.4145,26.523 h -10.7749 q 0.518,-18.4418 0.518,-36.262 0,-17.9235 -0.518,-36.2618 h 10.7749 z m -2.1759,43.8249 q 6.6309,0 11.2929,-2.7972 4.6623,-2.901 6.9416,-7.4595 2.3829,-4.6625 2.3829,-9.946 0,-5.4913 -2.4863,-10.3607 -2.3829,-4.973 -7.0453,-7.9776 -4.6623,-3.0045 -11.1894,-3.0045 l -13.7795,0.1024 q -0.3109,14.0904 -0.3109,30.7709 v 10.6713 z"
         id="text6"
         style="font-size:59.445px;line-height:1;font-family:BROLIMO;-inkscape-font-specification:BROLIMO;fill:#1a1a1a;fill-opacity:1;stroke-width:0.264582"
         aria-label="GIMP, PHOTOSHOP&#10;" /><g
         id="g20"
         transform="translate(0.60620117,219.48413)"><g
           id="g52"
           transform="translate(0,57.271201)"
           style="stroke:#abc2bd;stroke-width:20;stroke-linecap:round;stroke-linejoin:round;stroke-dasharray:none;stroke-opacity:1"><path
             id="path31"
             style="color:#000000;fill:#abc2bd;stroke:#abc2bd;stroke-width:20;stroke-linecap:round;stroke-linejoin:round;stroke-dasharray:none;stroke-opacity:1"
             d="m 4502.5822,4804.7353 c -14.684,0.2364 -29.3962,0.7986 -44.1348,1.727 -113.7955,7.1682 -212.4165,70.9853 -311.322,71.1403 -36.6663,0.058 -74.6348,-13.8839 -114.8871,-28.3962 -40.2521,-14.5121 -82.9966,-29.6309 -129.6934,-26.1177 -34.5772,2.6013 -75.1281,19.2406 -109.1365,34.7854 -34.0082,15.5448 -60.6505,30.5486 -60.6505,30.5486 l 19.4691,34.5844 c 0,0 25.3224,-14.2462 57.6812,-29.037 32.3588,-14.7908 72.5779,-29.5718 95.6154,-31.305 36.1258,-2.7178 73.4156,9.5139 113.254,23.877 39.8387,14.3631 82.0197,30.8207 128.4103,30.748 114.7887,-0.1799 214.2795,-64.9542 313.7555,-71.2204 225.2029,-14.1861 452.7731,64.1026 688.0019,67.9121 1.6122,0.026 3.7852,0.1365 5.425,0.168 v -39.7051 c -1.4646,-0.028 -3.3365,-0.1234 -4.7821,-0.1468 -212.479,-3.441 -426.7455,-73.1075 -647.006,-69.5626 z" /></g><circle
           style="fill:#abc2bd;fill-opacity:1;stroke:#abc2bd;stroke-width:20;stroke-linecap:round;stroke-linejoin:round;stroke-miterlimit:4.7;stroke-dasharray:none;stroke-opacity:1"
           id="path5-1-0"
           cx="5154.3701"
           cy="4951.5635"
           r="19.857384" /><circle
           style="fill:#abc2bd;fill-opacity:1;stroke:#abc2bd;stroke-width:20;stroke-linecap:round;stroke-linejoin:round;stroke-miterlimit:4.7;stroke-dasharray:none;stroke-opacity:1"
           id="circle5"
           cx="3741.8862"
           cy="4963.2881"
           r="19.857384" /><path
           id="path12"
           style="color:#000000;fill:#d3dedc;fill-opacity:1;stroke-width:3;stroke-dasharray:none;filter:url(#filter22)"
           d="m 4502.582,4865.2784 c -14.684,0.2364 -29.3962,0.7981 -44.1348,1.7265 -113.7955,7.1682 -212.4165,70.9853 -311.322,71.1403 -36.6663,0.058 -74.6348,-13.8839 -114.8871,-28.3962 -40.2521,-14.5122 -82.9966,-29.6304 -129.6934,-26.1172 -34.5772,2.6013 -75.1281,19.2401 -109.1364,34.7849 -34.0083,15.5448 -60.6506,30.549 -60.6506,30.549 l 19.4691,14.6994 c 0,0 25.3225,-14.2462 57.6812,-29.037 32.3588,-14.7908 72.5779,-29.5718 95.6154,-31.305 36.1258,-2.7178 73.4156,9.5139 113.254,23.8771 39.8387,14.363 82.0197,30.8206 128.4103,30.7479 114.7887,-0.1799 214.2795,-64.9542 313.7555,-71.2204 225.2029,-14.1861 452.7731,64.1026 688.002,67.9121 1.6121,0.026 16.3551,0.2827 17.9949,0.3142 v -19.8205 c -1.4646,-0.028 -15.9064,-0.2696 -17.3521,-0.293 -212.479,-3.441 -426.7455,-73.107 -647.006,-69.5621 z"
           sodipodi:nodetypes="sscscsccsccssscccs" /></g></g><g
       id="g7"
       transform="translate(0,-55.956066)"><path
         d="m 3778.7541,5435.426 q 7.6669,0.2073 13.2616,3.0047 5.6982,2.6937 8.7029,7.0452 3.0044,4.3514 3.0044,9.2209 0,4.973 -3.3153,9.3245 -3.2119,4.2478 -9.8426,6.9416 -6.6307,2.5901 -16.266,2.5901 h -31.8068 q 0.518,-18.4419 0.518,-36.262 0,-17.9236 -0.518,-36.2618 h 27.9734 q 8.2884,0 13.9867,2.5901 5.802,2.59 8.5991,6.7342 2.7974,4.0407 2.7974,8.7027 0,4.041 -2.072,7.6671 -1.9683,3.5226 -5.9055,5.9053 -3.8334,2.3831 -9.1173,2.7974 z m -25.5906,-32.014 q -0.3108,14.2975 -0.3108,30.8745 h 14.2977 q 5.6983,0 9.946,-2.2795 4.2477,-2.2792 6.527,-5.9052 2.2795,-3.7298 2.2795,-7.7705 0,-3.9371 -2.383,-7.3561 -2.2793,-3.419 -7.0451,-5.4911 -4.7657,-2.1756 -11.9145,-2.1756 z m 15.23,68.0688 q 8.0813,0 13.7796,-2.3829 5.8019,-2.4865 8.703,-6.4235 2.9008,-3.937 2.9008,-8.3922 0,-4.5586 -3.1082,-8.5992 -3.0046,-4.1441 -9.0137,-6.6307 -5.9054,-2.4866 -14.4012,-2.4866 l -14.4011,0.1023 v 6.6307 q 0,15.0227 0.3108,28.0769 z m 91.2763,-0.3108 v 2.383 h -46.6223 q 0.5179,-18.4419 0.5179,-36.262 0,-17.9236 -0.5179,-36.2618 h 10.7748 q -0.5178,18.6489 -0.5178,36.6761 0,12.9508 0.4143,33.6716 z m 56.9832,0 v 2.383 h -48.6946 q 0.5179,-18.4419 0.5179,-36.262 0,-17.9236 -0.5179,-36.2618 h 46.1044 v 2.2793 h -35.4331 q -0.3106,14.0903 -0.3106,30.46 v 7.1487 h 25.5903 v 2.383 h -25.5903 q 0,15.0228 0.3106,28.0767 z m 61.7486,-70.1408 h 2.3833 v 72.5238 h -3.3156 q -6.3199,-9.0137 -15.8517,-20.7212 -9.5316,-11.7074 -25.4868,-30.7708 l -8.8067,-10.5678 v 62.0598 h -2.3828 v -72.5238 h 8.185 q 6.1126,8.4956 13.0542,17.3021 7.0451,8.7027 17.8201,21.7571 9.3244,11.2931 14.401,17.6129 z m 37.6089,0 q 11.6039,0 19.8922,5.1801 8.392,5.1803 12.64,13.5723 4.2477,8.2885 4.2477,17.613 0,9.428 -4.3514,17.7165 -4.2478,8.2886 -12.8473,13.3652 -8.5992,5.0767 -20.8245,5.0767 h -13.8831 -10.775 q 0.518,-18.4419 0.518,-36.262 0,-17.9236 -0.518,-36.2618 h 10.775 z m -4.8695,70.3477 q 10.1534,0 17.3022,-4.7655 7.2523,-4.8695 10.8787,-12.64 3.6258,-7.8738 3.6258,-16.7839 0,-8.8065 -3.6258,-16.5771 -3.5228,-7.7704 -10.4645,-12.536 -6.9414,-4.7659 -16.6802,-4.7659 l -11.3968,0.1023 q -0.4145,20.9283 -0.4145,33.9827 0,13.0544 0.4145,33.9825 z m 100.7046,-0.2069 v 2.383 h -48.6948 q 0.518,-18.4419 0.518,-36.262 0,-17.9236 -0.518,-36.2618 h 46.1044 v 2.2793 h -35.433 q -0.3106,14.0903 -0.3106,30.46 v 7.1487 h 25.5904 v 2.383 h -25.5904 q 0,15.0228 0.3106,28.0767 z m 47.2439,-25.487 q 5.8021,1.865 9.2208,5.802 3.5226,3.9368 7.3561,10.4641 3.0045,5.1804 5.2837,7.8742 2.2794,2.6936 5.5948,3.7297 -3.8334,1.4503 -7.7705,1.4503 -6.1127,0 -9.2208,-4.1442 -1.1396,-1.1396 -2.0721,-2.7974 -0.8288,-1.7613 -2.4865,-5.3873 -2.0721,-4.6623 -3.7298,-7.6669 -1.5541,-3.0045 -4.1442,-5.3874 -2.5901,-2.3829 -6.1127,-2.9011 h -0.3108 -20.2032 q 0,10.2569 0.4146,26.834 h -10.7752 q 0.5182,-18.4419 0.5182,-36.262 0,-17.9236 -0.5182,-36.2618 h 10.7752 17.0948 q 8.8063,0 15.1264,3.4189 6.3199,3.3153 9.5316,8.8064 3.2118,5.3875 3.2118,11.5003 0,7.1487 -4.3514,12.9505 -4.3515,5.802 -12.4326,7.9777 z m -28.2844,-42.271 q -0.3108,14.0904 -0.3108,30.5636 v 10.5678 h 17.3022 q 0.9323,-0.1035 2.5902,-0.1035 4.973,-0.5181 8.4955,-3.419 3.6261,-2.9009 5.3876,-7.2524 1.8649,-4.3514 1.8649,-9.2208 0,-5.4912 -2.383,-10.3604 -2.2792,-4.8696 -6.9417,-7.8741 -4.5583,-3.0046 -11.0857,-3.0046 z"
         id="text12"
         style="font-size:59.445px;line-height:1;font-family:BROLIMO;-inkscape-font-specification:BROLIMO;fill:#1a1a1a;fill-opacity:1;stroke-width:0.264582;stroke-linejoin:round"
         aria-label="BLENDER" /><g
         id="g19"
         transform="translate(0.60644531,444.06638)"><g
           id="g51"
           transform="translate(0,84.400364)"
           style="stroke:#abc2bd;stroke-width:20;stroke-linejoin:round;stroke-dasharray:none;stroke-opacity:1"><path
             id="path32"
             style="color:#000000;fill:#abc2bd;stroke:#abc2bd;stroke-width:20;stroke-linejoin:round;stroke-dasharray:none;stroke-opacity:1"
             d="m 4502.582,4980.23 c -14.684,0.2363 -29.3962,0.7988 -44.1348,1.7271 -113.7951,7.1682 -212.4167,70.9852 -311.322,71.1403 -36.6663,0.058 -74.6343,-13.8839 -114.8866,-28.3962 -40.2519,-14.5121 -82.9967,-29.6311 -129.6933,-26.1178 -34.5773,2.6013 -75.1288,19.2407 -109.1371,34.7855 -34.0082,15.5447 -60.6505,30.5485 -60.6505,30.5485 l 19.4691,34.5845 c 0,0 25.3224,-14.2461 57.6812,-29.037 32.3588,-14.7908 72.5779,-29.5719 95.6154,-31.3051 36.1256,-2.7178 73.4158,9.5141 113.254,23.8771 39.8387,14.3631 82.0197,30.8207 128.4103,30.748 114.7885,-0.1799 214.2797,-64.9542 313.7555,-71.2204 57.4281,-3.6176 115.0322,-1.0943 172.869,4.5459 v -40.2817 c -43.5297,-4.0187 -87.2559,-6.3064 -131.2302,-5.5987 z" /></g><circle
           style="fill:#abc2bd;fill-opacity:1;stroke:#abc2bd;stroke-width:20;stroke-linecap:round;stroke-linejoin:round;stroke-miterlimit:4.7;stroke-dasharray:none;stroke-opacity:1"
           id="path5-1-0-9"
           cx="4633.5156"
           cy="5090.3564"
           r="20.154688" /><circle
           style="fill:#abc2bd;fill-opacity:1;stroke:#abc2bd;stroke-width:20;stroke-linecap:round;stroke-linejoin:round;stroke-miterlimit:4.7;stroke-dasharray:none;stroke-opacity:1"
           id="circle6"
           cx="3741.886"
           cy="5165.9312"
           r="19.857384" /><path
           id="path38"
           style="color:#000000;mix-blend-mode:normal;fill:#d3dedc;fill-opacity:1;stroke-width:3;stroke-linejoin:round;stroke-dasharray:none;filter:url(#filter23)"
           d="m 4502.582,5068.6337 c -14.684,0.2364 -29.3962,0.7981 -44.1348,1.7265 -113.7953,7.1682 -212.4166,70.9854 -311.322,71.1404 -36.6663,0.058 -74.6348,-13.8839 -114.8871,-28.3962 -40.252,-14.5122 -82.9966,-29.6305 -129.6934,-26.1173 -34.5771,2.6013 -75.1282,19.2402 -109.1364,34.785 -34.0083,15.5448 -60.6506,30.549 -60.6506,30.549 l 19.4691,14.6994 c 0,0 25.3226,-14.2462 57.6812,-29.037 32.3588,-14.7908 72.5779,-29.5719 95.6154,-31.3051 36.1257,-2.7178 73.4157,9.5139 113.254,23.8771 39.8387,14.363 82.0197,30.8207 128.4103,30.748 114.7886,-0.1799 214.2796,-64.9542 313.7555,-71.2204 57.6139,-3.6293 128.7617,-0.093 186.7741,5.5865 v -20.3161 c -43.7051,-4.0499 -100.9824,-7.4304 -145.1353,-6.7198 z"
           sodipodi:nodetypes="sscsssccsscssccs" /></g></g><g
       id="g6"
       transform="translate(0,-82.303289)"><path
         d="m 3800.5113,5825.3484 q -0.4144,14.6082 -0.4144,36.2618 0,21.4463 0.4144,36.2619 h -10.7749 q 0.4143,-13.5722 0.4143,-33.1536 h -37.298 q 0,19.5814 0.4146,33.1536 h -10.775 q 0.518,-18.4417 0.518,-36.2619 0,-17.9238 -0.518,-36.2618 h 10.775 q -0.4146,18.6489 -0.4146,30.1492 v 6.8378 h 37.298 v -6.8378 q 0,-11.5003 -0.4143,-30.1492 z m 72.42,2.2791 h -26.6266 q -0.4142,20.7212 -0.4142,33.5682 0,18.0276 0.518,36.6764 h -10.775 q 0.518,-18.6488 0.518,-36.6764 0,-12.847 -0.4146,-33.5682 h -26.9374 v -2.2791 h 64.1318 z m 78.326,-2.2791 q -0.4145,21.9643 -0.4145,36.2618 0,14.0903 0.4145,36.2619 h -10.6715 q 0.4144,-14.0904 0.4144,-34.7077 0,-16.7842 -0.3107,-31.4963 l -26.8339,66.2039 h -3.108 q -5.6984,-14.9192 -18.1311,-44.9649 -7.2523,-17.4056 -8.9101,-21.6535 v 66.6184 h -2.3828 v -72.5238 h 11.5001 q 5.1803,13.8831 9.739,25.1761 4.6619,11.2929 11.9146,28.3877 0.4145,1.0362 1.036,2.3832 0.6216,1.3466 1.2434,3.0045 l 23.8291,-58.7444 v -0.2072 z m 55.9468,70.1408 v 2.3829 h -46.6225 q 0.5181,-18.4417 0.5181,-36.2619 0,-17.9238 -0.5181,-36.2618 h 10.7751 q -0.5181,18.6489 -0.5181,36.6762 0,12.9506 0.4144,33.6718 z m 11.5003,10.2569 h -3.2118 l 3.2118,-14.1941 h 6.5271 z m 102.8804,-25.487 q -2.7975,7.5631 -10.0499,12.8469 -7.2524,5.2842 -18.649,5.2842 -12.329,0 -21.1356,-5.1805 -8.7026,-5.2839 -13.1578,-13.6759 -4.3515,-8.4956 -4.3515,-18.0273 0,-9.5318 4.3515,-17.9237 4.4552,-8.4957 13.0544,-13.676 8.7028,-5.2839 20.8246,-5.2839 12.0183,0 19.2706,5.2839 7.2523,5.2838 9.6353,12.8471 l -7.1488,0.1034 q -1.9686,-6.9415 -7.356,-11.7072 -5.2839,-4.8696 -13.7795,-4.8696 -9.3244,0 -15.8518,4.5585 -6.4235,4.4552 -9.7387,11.9147 -3.2117,7.3561 -3.2117,15.9553 0,8.7029 3.3153,16.6805 3.3154,7.9778 9.7389,13.2617 6.5271,5.2838 15.4372,6.1126 1.3468,0.2071 3.9371,0.2071 8.5991,0 14.5046,-4.2475 5.9055,-4.3516 8.4958,-10.568 z m 58.5371,-41.5458 q -2.1758,-4.973 -7.3561,-8.3921 -5.1804,-3.5226 -13.0543,-3.5226 -5.3875,0 -9.8425,1.865 -4.4551,1.8646 -7.0451,5.1801 -2.5902,3.2119 -2.5902,7.1492 0,2.9006 1.3468,5.698 1.9685,3.8334 6.4236,6.32 4.5586,2.3829 12.7434,5.4911 6.4235,2.3829 10.4642,4.3514 4.0406,1.865 7.3559,4.7657 3.4191,2.9011 4.766,6.8381 0.7252,2.072 0.7252,4.7657 0,4.7659 -2.901,9.2211 -2.7973,4.4548 -8.5993,7.3557 -5.6981,2.7976 -13.9867,2.7976 -13.0543,0 -20.0993,-5.4914 -7.0455,-5.491 -8.4958,-13.4686 l 1.865,-0.1024 q 2.1757,6.9417 8.392,11.811 6.3198,4.766 16.5769,4.766 5.1802,0 8.9099,-1.8649 3.8335,-1.8648 5.802,-4.8695 1.9685,-3.0045 1.9685,-6.4235 0,-3.6262 -2.2793,-6.6307 -2.7974,-3.6264 -7.2524,-6.0092 -4.3514,-2.3829 -11.9144,-5.284 -7.2526,-2.9008 -11.3969,-5.0766 -4.1443,-2.1758 -7.045,-5.6983 -2.9009,-3.6263 -2.9009,-9.0136 0,-5.6984 3.5224,-10.3605 3.5227,-4.6622 9.8426,-7.3561 6.4236,-2.6937 14.5047,-2.6937 2.1757,0 3.2118,0.1024 8.392,0.518 13.4687,4.5587 5.1803,3.937 6.9417,9.2208 z m 62.3703,0 q -2.1756,-4.973 -7.356,-8.3921 -5.1804,-3.5226 -13.0545,-3.5226 -5.3873,0 -9.8423,1.865 -4.4552,1.8646 -7.0451,5.1801 -2.5903,3.2119 -2.5903,7.1492 0,2.9006 1.3469,5.698 1.9683,3.8334 6.4234,6.32 4.5587,2.3829 12.7436,5.4911 6.4237,2.3829 10.4642,4.3514 4.0407,1.865 7.3558,4.7657 3.4192,2.9011 4.766,6.8381 0.7253,2.072 0.7253,4.7657 0,4.7659 -2.9011,9.2211 -2.7974,4.4548 -8.5992,7.3557 -5.6983,2.7976 -13.9867,2.7976 -13.0542,0 -20.0995,-5.4914 -7.0453,-5.491 -8.4956,-13.4686 l 1.8649,-0.1024 q 2.1758,6.9417 8.392,11.811 6.3199,4.766 16.5771,4.766 5.1801,0 8.9096,-1.8649 3.8337,-1.8648 5.8022,-4.8695 1.9683,-3.0045 1.9683,-6.4235 0,-3.6262 -2.2791,-6.6307 -2.7975,-3.6264 -7.2523,-6.0092 -4.3516,-2.3829 -11.9147,-5.284 -7.2523,-2.9008 -11.3966,-5.0766 -4.1443,-2.1758 -7.0453,-5.6983 -2.9009,-3.6263 -2.9009,-9.0136 0,-5.6984 3.5227,-10.3605 3.5225,-4.6622 9.8424,-7.3561 6.4235,-2.6937 14.5048,-2.6937 2.1757,0 3.2116,0.1024 8.3921,0.518 13.469,4.5587 5.1801,3.937 6.9414,9.2208 z"
         id="text13"
         style="font-size:59.445px;line-height:1;font-family:BROLIMO;-inkscape-font-specification:BROLIMO;fill:#1a1a1a;fill-opacity:1;stroke-width:0.264582;stroke-linejoin:round"
         aria-label="HTML, CSS" /><g
         id="g18"
         transform="translate(0.45996094,660.52834)"><g
           id="g50"
           transform="translate(0,121.06151)"
           style="stroke:#abc2bd;stroke-width:20;stroke-linejoin:round;stroke-dasharray:none;stroke-opacity:1"><path
             id="path30"
             style="color:#000000;fill:#abc2bd;stroke:#abc2bd;stroke-width:20;stroke-linejoin:round;stroke-dasharray:none;stroke-opacity:1"
             d="m 4502.5822,5155.7253 c -14.684,0.2364 -29.3962,0.7981 -44.1348,1.7265 -113.7955,7.1682 -212.4165,70.9853 -311.322,71.1403 -36.6663,0.058 -74.6348,-13.8839 -114.8871,-28.3962 -40.2521,-14.5121 -82.9966,-29.6304 -129.6934,-26.1172 -34.5772,2.6013 -75.1281,19.2401 -109.1365,34.7849 -34.0082,15.5447 -60.6505,30.5491 -60.6505,30.5491 l 19.4691,34.5838 c 0,0 25.3224,-14.2461 57.6812,-29.037 32.3588,-14.7908 72.5779,-29.5719 95.6154,-31.3051 36.1258,-2.7177 73.4156,9.5141 113.254,23.8771 39.8387,14.3631 82.0197,30.8207 128.4103,30.748 114.7887,-0.1799 214.2795,-64.9542 313.7555,-71.2204 225.2029,-14.1861 452.7731,64.1026 688.0019,67.9121 52.5084,0.8504 119.7692,4.4584 183.0819,4.6561 v -39.687 c -61.6877,-0.2109 -128.6067,-3.7811 -182.439,-4.653 -212.479,-3.441 -426.7455,-73.107 -647.006,-69.562 z" /></g><circle
           style="fill:#abc2bd;fill-opacity:1;stroke:#abc2bd;stroke-width:20;stroke-linecap:round;stroke-linejoin:round;stroke-miterlimit:4.7;stroke-dasharray:none;stroke-opacity:1"
           id="circle7"
           cx="3742.0325"
           cy="5377.9175"
           r="19.857384" /><circle
           style="fill:#abc2bd;fill-opacity:1;stroke:#abc2bd;stroke-width:20;stroke-linecap:round;stroke-linejoin:round;stroke-miterlimit:4.7;stroke-dasharray:none;stroke-opacity:1"
           id="path5-1-0-3"
           cx="5332.0273"
           cy="5370.8594"
           r="19.857384" /><path
           id="path14"
           style="color:#000000;fill:#d3dedc;fill-opacity:1;stroke-width:3;stroke-linejoin:round;stroke-dasharray:none;filter:url(#filter24)"
           d="m 4502.582,5279.4329 c -14.684,0.2363 -29.3962,0.7981 -44.1348,1.7265 -113.7955,7.1682 -212.4165,70.9853 -311.322,71.1403 -36.6663,0.058 -74.6348,-13.8839 -114.8871,-28.3962 -40.2521,-14.5122 -82.9966,-29.6304 -129.6934,-26.1172 -34.5772,2.6012 -75.1281,19.2401 -109.1364,34.7849 -34.0083,15.5448 -60.6506,30.549 -60.6506,30.549 l 19.4691,14.6994 c 0,0 25.3225,-14.2462 57.6812,-29.037 32.3588,-14.7908 72.5779,-29.5718 95.6154,-31.305 36.1258,-2.7178 73.4156,9.5139 113.254,23.8771 39.8387,14.363 82.0197,30.8206 128.4103,30.7479 114.7887,-0.1799 214.2795,-64.9542 313.7555,-71.2204 225.2029,-14.1861 452.7731,64.1026 688.002,67.9121 56.5763,0.9163 130.4068,5.1568 197.8039,4.7238 v -19.7988 c -65.5101,0.4271 -139.0518,-3.7832 -197.1611,-4.7243 -212.479,-3.441 -426.7455,-73.107 -647.006,-69.5621 z" /></g></g><g
       id="g5"
       transform="translate(0,-110.64972)"><path
         d="m 3750.159,6314.1405 q 0.5181,6.3201 3.5225,11.0858 3.1083,4.6625 9.8425,4.6625 7.7705,0 10.5679,-6.2164 2.7973,-6.2163 2.7973,-18.0275 0,-31.8069 -0.518,-47.6585 h 10.2568 v 47.555 q 0,9.7388 -2.6936,15.3335 -2.6938,5.5949 -7.7704,7.8742 -5.0766,2.1755 -12.64,2.1755 -10.1532,0 -15.3336,-4.6622 -5.0766,-4.7658 -5.6981,-12.1219 z m 88.1682,16.4733 q -2.901,-8.4955 -7.6668,-21.2391 -0.4143,-1.4505 -1.1396,-3.3153 h -26.3159 l -8.8064,24.5544 h -2.5899 l 25.901,-72.5236 h 4.8695 q 16.0588,44.6539 27.3518,72.5236 z m -34.2933,-26.9372 h 24.5544 q -5.3875,-14.6087 -12.6398,-33.4648 z m 95.2134,-45.5864 h 2.5902 l -25.9014,72.5236 h -4.8694 q -8.7029,-23.9328 -15.0226,-40.6134 -6.2164,-16.7839 -12.3293,-31.9102 h 11.6037 q 5.8022,16.8875 16.2661,44.5501 l 6.0092,15.9554 z m 42.8927,72.5236 q -2.9008,-8.4955 -7.6668,-21.2391 -0.4143,-1.4505 -1.1396,-3.3153 h -26.3158 l -8.8063,24.5544 h -2.5903 l 25.9015,-72.5236 h 4.8695 q 16.0586,44.6539 27.3518,72.5236 z m -34.2934,-26.9372 h 24.5546 q -5.3873,-14.6087 -12.6399,-33.4648 z m 100.1868,-32.2214 q -2.1761,-4.9731 -7.3561,-8.3921 -5.1804,-3.5226 -13.0543,-3.5226 -5.3876,0 -9.8425,1.8649 -4.4552,1.8649 -7.0451,5.1803 -2.5904,3.2118 -2.5904,7.1489 0,2.9008 1.3468,5.6983 1.9687,3.8334 6.4237,6.3198 4.5587,2.383 12.7433,5.4912 6.4236,2.3828 10.4644,4.3514 4.0404,1.865 7.3559,4.7658 3.4189,2.9009 4.7658,6.838 0.7254,2.0721 0.7254,4.7658 0,4.7657 -2.9011,9.2209 -2.7972,4.4549 -8.5992,7.3561 -5.6985,2.7973 -13.9867,2.7973 -13.0543,0 -20.0994,-5.4911 -7.0454,-5.4912 -8.4957,-13.4686 l 1.8649,-0.1024 q 2.1756,6.9415 8.3919,11.8108 6.32,4.766 16.5769,4.766 5.1803,0 8.9101,-1.8649 3.8334,-1.865 5.8019,-4.8695 1.9686,-3.0045 1.9686,-6.4235 0,-3.6264 -2.2793,-6.631 -2.7974,-3.6259 -7.2525,-6.0087 -4.3515,-2.3831 -11.9145,-5.2841 -7.2525,-2.9011 -11.3967,-5.0767 -4.1443,-2.1756 -7.0453,-5.6982 -2.9009,-3.6262 -2.9009,-9.0137 0,-5.6983 3.5226,-10.3606 3.5225,-4.6622 9.8427,-7.356 6.4235,-2.6938 14.5047,-2.6938 2.1755,0 3.2117,0.1035 8.392,0.5181 13.4686,4.5588 5.1804,3.9371 6.9419,9.2208 z m 77.4966,41.5456 q -2.7974,7.5633 -10.0498,12.8473 -7.2525,5.2839 -18.649,5.2839 -12.3291,0 -21.1355,-5.1805 -8.7028,-5.2837 -13.1578,-13.6758 -4.3515,-8.4957 -4.3515,-18.0274 0,-9.5317 4.3515,-17.9236 4.455,-8.4958 13.0542,-13.6759 8.7029,-5.284 20.8247,-5.284 12.0182,0 19.2708,5.284 7.2521,5.2836 9.6351,12.8469 l -7.1489,0.1024 q -1.9684,-6.9416 -7.3558,-11.7074 -5.2839,-4.8695 -13.7795,-4.8695 -9.3247,0 -15.8515,4.5587 -6.4238,4.4549 -9.7391,11.9145 -3.2117,7.356 -3.2117,15.9555 0,8.7025 3.3153,16.6801 3.3152,7.9777 9.7388,13.2617 6.5272,5.284 15.4373,6.1127 1.3468,0.2072 3.937,0.2072 8.5992,0 14.5047,-4.2476 5.9056,-4.3516 8.4957,-10.5679 z m 47.3478,-10.2567 q 5.8019,1.8648 9.2208,5.8019 3.5224,3.937 7.3559,10.464 3.0046,5.1803 5.284,7.8741 2.2792,2.6938 5.5947,3.7297 -3.8335,1.4506 -7.7705,1.4506 -6.1126,0 -9.2208,-4.1443 -1.1397,-1.1397 -2.0722,-2.7973 -0.8289,-1.7613 -2.4864,-5.3877 -2.0722,-4.6621 -3.7299,-7.6667 -1.5542,-3.0046 -4.1442,-5.3874 -2.5902,-2.3829 -6.1127,-2.901 h -0.3109 -20.2031 q 0,10.257 0.4145,26.8338 h -10.7751 q 0.5182,-18.4417 0.5182,-36.2619 0,-17.9237 -0.5182,-36.2617 h 10.7751 17.0949 q 8.8064,0 15.1265,3.4189 6.3198,3.3153 9.5317,8.8064 3.2116,5.3875 3.2116,11.5002 0,7.1488 -4.3513,12.9508 -4.3514,5.8017 -12.4326,7.9776 z m -28.2844,-42.2711 q -0.3109,14.0903 -0.3109,30.5636 v 10.5679 h 17.3024 q 0.9324,-0.1035 2.5899,-0.1035 4.973,-0.518 8.4958,-3.4192 3.626,-2.9006 5.3873,-7.2522 1.865,-4.3513 1.865,-9.2208 0,-5.4909 -2.3829,-10.3605 -2.2795,-4.8694 -6.9417,-7.874 -4.5585,-3.0045 -11.0857,-3.0045 z m 73.7671,-2.3828 q -0.4143,14.6081 -0.4143,36.2617 0,21.4464 0.4143,36.2619 h -10.7749 q 0.5179,-18.4417 0.5179,-36.2619 0,-17.9237 -0.5179,-36.2617 z m 36.0547,0 q 8.8066,0 15.1265,3.4189 6.4234,3.3153 9.7388,8.8064 3.3156,5.3875 3.3156,11.5002 0,5.8019 -3.2119,10.8785 -3.1082,5.0768 -9.4281,8.2886 -6.32,3.1081 -15.4372,3.1081 h -16.4734 q 0,10.1535 0.4145,26.5229 h -10.775 q 0.518,-18.4417 0.518,-36.2619 0,-17.9237 -0.518,-36.2617 h 10.775 z m -2.1757,43.8249 q 6.6307,0 11.2931,-2.7973 4.6621,-2.9009 6.9416,-7.4595 2.3826,-4.6624 2.3826,-9.9463 0,-5.4911 -2.4864,-10.3605 -2.3829,-4.9729 -7.0451,-7.9775 -4.6622,-3.0046 -11.1892,-3.0046 l -13.7798,0.1024 q -0.3108,14.0902 -0.3108,30.7709 v 10.6711 z m 93.3484,-41.5457 h -26.6266 q -0.4144,20.7212 -0.4144,33.5679 0,18.0276 0.518,36.6765 h -10.7748 q 0.5179,-18.6489 0.5179,-36.6765 0,-12.8467 -0.4145,-33.5679 h -26.9374 v -2.2792 h 64.1318 z"
         id="text14"
         style="font-size:59.445px;line-height:1;font-family:BROLIMO;-inkscape-font-specification:BROLIMO;fill:#1a1a1a;fill-opacity:1;stroke-width:0.264582;stroke-linejoin:round"
         aria-label="JAVASCRIPT" /><g
         id="g17"
         transform="translate(0.60620117,889.60928)"><g
           id="g2"
           transform="translate(0,144.50524)"
           style="stroke:#abc2bd;stroke-width:20;stroke-linejoin:round;stroke-dasharray:none;stroke-opacity:1"><path
             id="path2"
             style="color:#000000;fill:#abc2bd;stroke:#abc2bd;stroke-width:20;stroke-linejoin:round;stroke-dasharray:none;stroke-opacity:1"
             d="m 4502.582,5331.22 c -14.684,0.2364 -29.3962,0.7986 -44.1348,1.727 -113.7951,7.1681 -212.4167,70.9854 -311.322,71.1404 -36.6663,0.058 -74.6339,-13.884 -114.8861,-28.3962 -40.2519,-14.5121 -82.9967,-29.631 -129.6933,-26.1178 -34.5773,2.6013 -75.1292,19.2407 -109.1376,34.7854 -34.0081,15.5448 -60.65,30.5486 -60.65,30.5486 l 19.4691,34.5844 c 0,0 25.3225,-14.2462 57.6812,-29.037 32.3588,-14.7907 72.5779,-29.5718 95.6154,-31.305 36.1256,-2.7178 73.4158,9.514 113.2541,23.8771 39.8385,14.3631 82.0191,30.8207 128.4097,30.748 114.7885,-0.1799 214.2797,-64.9544 313.7555,-71.2205 93.5602,-5.8936 187.5485,4.2562 282.3058,18.3115 v -40.8326 c -79.5498,-11.5395 -159.6964,-20.1165 -240.667,-18.8133 z" /></g><circle
           style="fill:#abc2bd;fill-opacity:1;stroke:#abc2bd;stroke-width:20;stroke-linecap:round;stroke-linejoin:round;stroke-miterlimit:4.7;stroke-dasharray:none;stroke-opacity:1"
           id="circle8"
           cx="3741.8862"
           cy="5577.0386"
           r="19.857384" /><path
           style="fill:#abc2bd;fill-opacity:1;stroke:#abc2bd;stroke-width:20;stroke-linecap:butt;stroke-linejoin:round;stroke-dasharray:none;stroke-opacity:1"
           d="m 4743.249,5494.5385 c -5.345,0 -10.657,2.2003 -14.4365,5.9798 -3.7795,3.7795 -5.9798,9.0915 -5.9798,14.4365 0,5.345 2.2003,10.657 5.9798,14.4365 3.7795,3.7795 9.0915,5.9798 14.4365,5.9798 5.345,0 10.657,-2.2003 14.4365,-5.9798 3.7795,-3.7795 5.9798,-9.0915 5.9798,-14.4365 0,-5.345 -2.2003,-10.657 -5.9798,-14.4365 -3.7795,-3.7795 -9.0915,-5.9798 -14.4365,-5.9798 z"
           id="path10"
           inkscape:path-effect="#path-effect10"
           inkscape:original-d="m 4743.249,5494.5385 c 0,-13.6108 0,27.2218 0,40.8326 0,13.6109 0,-27.2217 0,-40.8326 z" /><path
           id="path17"
           style="color:#000000;fill:#d3dedc;fill-opacity:1;stroke-width:3;stroke-linejoin:round;stroke-dasharray:none;filter:url(#filter25)"
           d="m 4502.582,5478.7995 c -14.684,0.2363 -29.3962,0.7981 -44.1348,1.7265 -113.7953,7.1682 -212.4166,70.9848 -311.322,71.1398 -36.6663,0.058 -74.6348,-13.8839 -114.8871,-28.3962 -40.252,-14.5121 -82.9966,-29.6299 -129.6934,-26.1167 -34.5771,2.6012 -75.1282,19.2402 -109.1364,34.785 -34.0083,15.5447 -60.6506,30.5485 -60.6506,30.5485 l 19.4691,14.6999 c 0,0 25.3226,-14.2468 57.6812,-29.0376 32.3588,-14.7907 72.5779,-29.5713 95.6154,-31.3045 36.1257,-2.7178 73.4157,9.5139 113.254,23.8771 39.8387,14.363 82.0197,30.8202 128.4103,30.7475 114.7886,-0.1799 214.2796,-64.9538 313.7555,-71.22 97.9473,-6.1699 196.3973,5.3818 295.6755,20.4618 v -21.0338 c -83.9457,-12.5326 -168.5304,-22.2535 -254.0367,-20.8773 z" /></g></g><g
       id="g4"
       transform="translate(0,-135.34272)"><path
         d="m 3812.4257,6681.7909 q -0.4142,21.9643 -0.4142,36.2619 0,14.0902 0.4142,36.2618 h -10.6713 q 0.4146,-14.0902 0.4146,-34.7076 0,-16.7843 -0.3107,-31.4962 l -26.8341,66.2038 h -3.108 q -5.6983,-14.9192 -18.131,-44.9647 -7.2523,-17.4057 -8.9101,-21.6537 v 66.6184 h -2.3828 v -72.5237 h 11.5002 q 5.1801,13.8832 9.7389,25.1761 4.6621,11.2929 11.9146,28.3878 0.4145,1.0361 1.0361,2.3831 0.6216,1.3469 1.2433,3.0045 l 23.829,-58.7443 v -0.2072 z m 58.4335,13.365 q -2.1756,-4.9731 -7.3559,-8.392 -5.1804,-3.5225 -13.0544,-3.5225 -5.3874,0 -9.8425,1.8648 -4.4549,1.865 -7.045,5.1805 -2.5902,3.2118 -2.5902,7.1487 0,2.9008 1.3469,5.6981 1.9684,3.8335 6.4234,6.3201 4.5587,2.3829 12.7437,5.491 6.4235,2.3828 10.464,4.3515 4.0406,1.8649 7.3561,4.7656 3.4189,2.9012 4.7658,6.8381 0.7251,2.072 0.7251,4.7659 0,4.7658 -2.901,9.221 -2.7974,4.4549 -8.5991,7.3559 -5.6983,2.7974 -13.9868,2.7974 -13.0543,0 -20.0994,-5.4913 -7.0453,-5.4911 -8.4958,-13.4685 l 1.865,-0.1034 q 2.1757,6.9415 8.3921,11.8109 6.3199,4.7659 16.5768,4.7659 5.1804,0 8.91,-1.8649 3.8336,-1.8647 5.802,-4.8694 1.9685,-3.0044 1.9685,-6.4236 0,-3.626 -2.2793,-6.6307 -2.7973,-3.6263 -7.2524,-6.0091 -4.3513,-2.3829 -11.9146,-5.2838 -7.2525,-2.901 -11.3966,-5.0768 -4.1442,-2.1755 -7.0451,-5.6982 -2.9011,-3.6261 -2.9011,-9.0138 0,-5.6983 3.5227,-10.3604 3.5225,-4.6623 9.8424,-7.3561 6.4237,-2.6936 14.5048,-2.6936 2.1759,0 3.2117,0.1023 8.3922,0.5179 13.4688,4.5585 5.1802,3.9371 6.9415,9.2209 z m 78.2223,60.0912 q -3.9373,0.5181 -6.8381,0.5181 -11.9148,0 -20.721,-5.6985 -8.7029,-5.6981 -13.2617,-14.8154 -4.4548,-9.1175 -4.4548,-19.167 0,-9.1173 3.7296,-16.9914 3.8335,-7.8738 11.5002,-13.0542 7.7705,-5.1802 18.8563,-5.9055 1.0359,-0.1035 3.1081,-0.1035 11.9146,0 20.514,5.6985 8.7027,5.5947 13.1577,14.712 4.4551,9.0137 4.4551,19.0634 0,8.5991 -3.4191,16.2661 -3.3152,7.6667 -10.1533,12.9505 -6.7341,5.1804 -16.473,6.5272 z m -0.5182,-1.4503 q 6.7344,-0.9326 11.3967,-5.3877 4.662,-4.5586 6.9416,-11.2929 2.2792,-6.8382 2.2792,-14.7119 0,-10.3607 -3.7296,-19.9959 -3.7301,-9.6355 -10.8788,-15.4372 -7.0451,-5.9055 -16.4732,-5.284 -8.0813,0.5181 -13.5723,4.9732 -5.4912,4.3514 -8.1849,11.3965 -2.5901,6.9417 -2.5901,15.23 0,10.0497 3.7298,19.4778 3.8334,9.4281 10.8786,15.4373 7.045,5.9055 16.3698,5.9055 1.7611,0 3.8332,-0.3107 z m 51.5955,-69.7266 q -0.3108,14.0902 -0.3108,30.4601 v 7.1486 h 25.5906 v 2.3828 h -25.5906 q 0,17.8203 0.4145,30.2529 h -10.7752 q 0.5183,-18.4416 0.5183,-36.2618 0,-17.9239 -0.5183,-36.2619 h 46.1044 v 2.2793 z m 54.3928,0 q -0.3108,14.0902 -0.3108,30.4601 v 7.1486 h 25.5906 v 2.3828 h -25.5906 q 0,17.8203 0.4146,30.2529 h -10.7752 q 0.5182,-18.4416 0.5182,-36.2618 0,-17.9239 -0.5182,-36.2619 h 46.1044 v 2.2793 z m 54.4964,-2.2793 q -0.4144,14.6083 -0.4144,36.2619 0,21.4462 0.4144,36.2618 h -10.775 q 0.5181,-18.4416 0.5181,-36.2618 0,-17.9239 -0.5181,-36.2619 z m 76.6681,54.9108 q -2.7975,7.5632 -10.0497,12.847 -7.2524,5.284 -18.649,5.284 -12.3291,0 -21.1356,-5.1802 -8.7027,-5.2839 -13.1577,-13.676 -4.3517,-8.4956 -4.3517,-18.0274 0,-9.5317 4.3517,-17.9237 4.455,-8.4957 13.0542,-13.6757 8.7028,-5.284 20.8245,-5.284 12.0185,0 19.2707,5.284 7.2527,5.2838 9.6354,12.8469 l -7.1487,0.1035 q -1.9687,-6.9415 -7.3561,-11.7074 -5.2839,-4.8696 -13.7796,-4.8696 -9.3243,0 -15.8516,4.5589 -6.4236,4.4548 -9.7389,11.9144 -3.2118,7.3561 -3.2118,15.9553 0,8.7028 3.3154,16.6805 3.3155,7.9776 9.7389,13.2615 6.5272,5.2839 15.4374,6.1126 1.3469,0.2071 3.937,0.2071 8.5991,0 14.5047,-4.2475 5.9056,-4.3516 8.4955,-10.5678 z m 57.0866,15.23 v 2.3829 h -48.6945 q 0.5181,-18.4416 0.5181,-36.2618 0,-17.9239 -0.5181,-36.2619 h 46.1043 v 2.2793 h -35.433 q -0.3108,14.0902 -0.3108,30.4601 v 7.1486 h 25.5906 v 2.3828 h -25.5906 q 0,15.0231 0.3108,28.0773 z"
         id="path1"
         style="font-size:59.445px;line-height:1;font-family:BROLIMO;-inkscape-font-specification:BROLIMO;fill:#1a1a1a;fill-opacity:1;stroke-width:0.264582;stroke-linejoin:round"
         aria-label="MS OFFICE" /><g
         id="g16"
         transform="translate(2.9227973,1104.492)"><g
           id="g3"
           transform="matrix(1.0000001,0,0,0.99844946,-5.8137111e-4,191.65632)"
           style="stroke:#abc2bd;stroke-width:20.0155;stroke-linejoin:round;stroke-dasharray:none;stroke-opacity:1"><path
             id="path3"
             style="color:#000000;fill:#abc2bd;stroke:#abc2bd;stroke-width:20.0155;stroke-linejoin:round;stroke-dasharray:none;stroke-opacity:1"
             d="m 4502.5822,5505.3726 c -14.684,0.2364 -29.3962,0.7987 -44.1348,1.7271 -113.7953,7.1681 -212.4166,70.9853 -311.322,71.1403 -36.6663,0.058 -74.6343,-13.8839 -114.8865,-28.3962 -40.252,-14.5121 -82.9966,-29.631 -129.6933,-26.1178 -34.5773,2.6013 -75.1287,19.2407 -109.1371,34.7855 -34.0082,15.5448 -60.6505,30.5485 -60.6505,30.5485 l 19.4691,34.5845 c 0,0 25.3224,-14.2462 57.6812,-29.037 32.3588,-14.7908 72.5779,-29.5719 95.6154,-31.3051 36.1257,-2.7178 73.4157,9.514 113.254,23.8771 39.8386,14.3631 82.0196,30.8207 128.4102,30.748 114.7886,-0.1799 214.2796,-64.9543 313.7555,-71.2204 140.8903,-8.8751 282.7092,18.4394 426.7481,41.0719 v -40.8161 c -126.8658,-20.2656 -254.9241,-43.6855 -385.1093,-41.5903 z" /></g><circle
           style="fill:#abc2bd;fill-opacity:1;stroke:#abc2bd;stroke-width:20;stroke-linecap:round;stroke-linejoin:round;stroke-miterlimit:4.7;stroke-dasharray:none;stroke-opacity:1"
           id="circle9"
           cx="3741.8862"
           cy="5789.645"
           r="19.857384" /><path
           style="fill:#abc2bd;fill-opacity:1;stroke:#abc2bd;stroke-width:20;stroke-linecap:butt;stroke-linejoin:round;stroke-dasharray:none;stroke-opacity:1"
           d="m 4887.6914,5730.0184 c -5.3345,0 -10.6362,2.196 -14.4083,5.9681 -3.7721,3.7721 -5.9681,9.0738 -5.9681,14.4083 0,5.3345 2.196,10.6362 5.9681,14.4083 3.7721,3.7721 9.0738,5.9681 14.4083,5.9681 5.3345,0 10.6362,-2.196 14.4083,-5.9681 3.7721,-3.7721 5.9681,-9.0738 5.9681,-14.4083 0,-5.3345 -2.196,-10.6362 -5.9681,-14.4083 -3.7721,-3.7721 -9.0738,-5.9681 -14.4083,-5.9681 z"
           id="path11"
           inkscape:path-effect="#path-effect11"
           inkscape:original-d="m 4887.6914,5730.0184 c 0,-13.5843 0,27.1686 0,40.7528 0,13.5843 0,-27.1685 0,-40.7528 z" /><path
           id="path15"
           style="color:#000000;fill:#d3dedc;fill-opacity:1;stroke-width:3;stroke-linejoin:round;stroke-dasharray:none;filter:url(#filter26)"
           d="m 4502.582,5692.1198 c -14.684,0.2363 -29.3962,0.7981 -44.1348,1.7265 -113.7953,7.1682 -212.4166,70.9849 -311.322,71.1399 -36.6663,0.058 -74.6348,-13.884 -114.8871,-28.3962 -40.252,-14.5122 -82.9966,-29.63 -129.6934,-26.1168 -34.5771,2.6012 -75.1282,19.2397 -109.1364,34.7844 -34.0083,15.5448 -60.6506,30.5491 -60.6506,30.5491 l 19.4691,14.6993 c 0,0 25.3226,-14.2462 57.6812,-29.0369 32.3588,-14.7908 72.5779,-29.5714 95.6154,-31.3046 36.1257,-2.7178 73.4157,9.5139 113.254,23.8771 39.8387,14.363 82.0197,30.8202 128.4103,30.7475 114.7886,-0.1799 214.2796,-64.9538 313.7555,-71.22 144.4649,-9.1002 289.9359,19.7474 437.7459,42.6832 v -20.776 c -130.4561,-20.6348 -262.1637,-45.5122 -396.1071,-43.3565 z" /></g></g><g
       id="g1"
       transform="translate(0,-158.04656)"><path
         d="m 3792.6373,7115.624 q -2.1758,-4.9731 -7.356,-8.3922 -5.1804,-3.5225 -13.0543,-3.5225 -5.3875,0 -9.8427,1.865 -4.455,1.865 -7.045,5.1803 -2.5901,3.2118 -2.5901,7.1487 0,2.901 1.3468,5.6984 1.9687,3.8332 6.4237,6.3199 4.5585,2.3829 12.7432,5.491 6.4237,2.3829 10.4643,4.3515 4.0406,1.8648 7.356,4.7657 3.4191,2.901 4.7657,6.8379 0.7254,2.0722 0.7254,4.7661 0,4.7659 -2.9012,9.2208 -2.797,4.4549 -8.5991,7.3559 -5.6982,2.7974 -13.9866,2.7974 -13.0544,0 -20.0994,-5.4912 -7.0453,-5.491 -8.4957,-13.4686 l 1.8649,-0.1034 q 2.1757,6.9416 8.392,11.8111 6.3199,4.7658 16.5767,4.7658 5.1804,0 8.9103,-1.8649 3.8334,-1.8649 5.8018,-4.8693 1.9685,-3.0046 1.9685,-6.4236 0,-3.6263 -2.2793,-6.6308 -2.7972,-3.6262 -7.2524,-6.0091 -4.3516,-2.3829 -11.9145,-5.2838 -7.2527,-2.901 -11.3968,-5.0768 -4.1443,-2.1757 -7.0452,-5.6982 -2.9009,-3.6261 -2.9009,-9.0137 0,-5.6982 3.5227,-10.3606 3.5224,-4.6621 9.8425,-7.3558 6.4236,-2.6937 14.5048,-2.6937 2.1755,0 3.2117,0.1023 8.3921,0.5179 13.4687,4.5586 5.1804,3.9371 6.9417,9.2211 z m 63.6136,-13.3652 h 2.59 l -25.9011,72.5239 h -4.8696 q -8.7029,-23.9328 -15.0229,-40.6133 -6.2164,-16.7841 -12.329,-31.9106 h 11.6038 q 5.8019,16.8877 16.2661,44.5506 l 6.009,15.9551 z m 61.5415,70.1411 v 2.3828 h -48.6946 q 0.5183,-18.4418 0.5183,-36.2619 0,-17.9237 -0.5183,-36.262 h 46.1045 v 2.2794 h -35.433 q -0.3108,14.0904 -0.3108,30.46 v 7.1487 h 25.5906 v 2.3829 h -25.5906 q 0,15.0229 0.3108,28.0772 z m 54.9108,0 v 2.3828 h -46.6223 q 0.5179,-18.4418 0.5179,-36.2619 0,-17.9237 -0.5179,-36.262 h 10.7748 q -0.5181,18.6491 -0.5181,36.6763 0,12.9508 0.4147,33.6719 z m 49.6271,-67.8617 h -26.6266 q -0.4144,20.721 -0.4144,33.5682 0,18.0274 0.518,36.6763 h -10.775 q 0.5182,-18.6489 0.5182,-36.6763 0,-12.8472 -0.4145,-33.5682 h -26.9374 v -2.2794 h 64.1317 z m 57.0867,67.8617 v 2.3828 h -48.6947 q 0.5183,-18.4418 0.5183,-36.2619 0,-17.9237 -0.5183,-36.262 h 46.1047 v 2.2794 h -35.433 q -0.311,14.0904 -0.311,30.46 v 7.1487 h 25.5907 v 2.3829 h -25.5907 q 0,15.0229 0.311,28.0772 z m 11.5001,10.2566 h -3.2119 l 3.2119,-14.1938 h 6.5272 z m 85.6819,-67.0325 q -2.1758,-4.9731 -7.3562,-8.3922 -5.1803,-3.5225 -13.0541,-3.5225 -5.3876,0 -9.8427,1.865 -4.455,1.865 -7.045,5.1803 -2.5902,3.2118 -2.5902,7.1487 0,2.901 1.3469,5.6984 1.9684,3.8332 6.4234,6.3199 4.5587,2.3829 12.7436,5.491 6.4236,2.3829 10.4641,4.3515 4.0406,1.8648 7.3561,4.7657 3.4189,2.901 4.7658,6.8379 0.7251,2.0722 0.7251,4.7661 0,4.7659 -2.901,9.2208 -2.7973,4.4549 -8.5991,7.3559 -5.6983,2.7974 -13.9868,2.7974 -13.0541,0 -20.0994,-5.4912 -7.0452,-5.491 -8.4957,-13.4686 l 1.8649,-0.1034 q 2.1758,6.9416 8.3921,11.8111 6.3199,4.7658 16.5768,4.7658 5.1804,0 8.9101,-1.8649 3.8335,-1.8649 5.802,-4.8693 1.9685,-3.0046 1.9685,-6.4236 0,-3.6263 -2.2794,-6.6308 -2.7972,-3.6262 -7.2524,-6.0091 -4.3513,-2.3829 -11.9145,-5.2838 -7.2526,-2.901 -11.3967,-5.0768 -4.1443,-2.1757 -7.045,-5.6982 -2.9011,-3.6261 -2.9011,-9.0137 0,-5.6982 3.5226,-10.3606 3.5226,-4.6621 9.8424,-7.3558 6.4237,-2.6937 14.5048,-2.6937 2.1758,0 3.2119,0.1023 8.392,0.5179 13.4686,4.5586 5.1805,3.9371 6.9417,9.2211 z m 63.6134,-13.3652 h 2.5903 l -25.9015,72.5239 h -4.8694 q -8.7029,-23.9328 -15.0227,-40.6133 -6.2164,-16.7841 -12.3292,-31.9106 h 11.6039 q 5.802,16.8877 16.2661,44.5506 l 6.009,15.9551 z m 61.5416,70.1411 v 2.3828 h -48.6945 q 0.518,-18.4418 0.518,-36.2619 0,-17.9237 -0.518,-36.262 h 46.1043 v 2.2794 h -35.433 q -0.3109,14.0904 -0.3109,30.46 v 7.1487 h 25.5906 v 2.3829 h -25.5906 q 0,15.0229 0.3109,28.0772 z m 54.9109,0 v 2.3828 h -46.6225 q 0.5179,-18.4418 0.5179,-36.2619 0,-17.9237 -0.5179,-36.262 h 10.775 q -0.5179,18.6491 -0.5179,36.6763 0,12.9508 0.4142,33.6719 z m 49.6272,-67.8617 h -26.6268 q -0.4144,20.721 -0.4144,33.5682 0,18.0274 0.5182,36.6763 h -10.775 q 0.5179,-18.6489 0.5179,-36.6763 0,-12.8472 -0.4143,-33.5682 h -26.9375 v -2.2794 h 64.1319 z m 57.0865,67.8617 v 2.3828 h -48.6944 q 0.5179,-18.4418 0.5179,-36.2619 0,-17.9237 -0.5179,-36.262 h 46.1045 v 2.2794 h -35.4332 q -0.3107,14.0904 -0.3107,30.46 v 7.1487 h 25.5905 v 2.3829 h -25.5905 q 0,15.0229 0.3107,28.0772 z m 54.6001,2.3828 q -3.8335,-6.7343 -8.9101,-14.6084 -4.973,-7.8741 -9.9461,-15.3336 -1.3469,-2.1755 -3.0045,-4.455 -1.5543,-2.3831 -3.2118,-5.0766 l -10.8785,10.7748 q 0,11.0859 0.4142,28.6988 h -10.7748 q 0.518,-18.4418 0.518,-36.2619 0,-17.9237 -0.518,-36.262 h 10.7748 q -0.4142,20.3068 -0.4142,33.1538 v 7.4596 l 41.1312,-40.6134 h 3.4189 l -26.1085,25.5906 q 9.9461,16.6804 28.5952,44.3432 0.5179,0.8288 0.9325,1.4504 0.4143,0.6217 0.725,1.1397 z m 31.8069,-72.5239 q -0.4145,14.6084 -0.4145,36.262 0,21.4464 0.4145,36.2619 h -10.7751 q 0.518,-18.4418 0.518,-36.2619 0,-17.9237 -0.518,-36.262 z m 72.4201,2.2794 h -26.6265 q -0.4146,20.721 -0.4146,33.5682 0,18.0274 0.5181,36.6763 h -10.775 q 0.5182,-18.6489 0.5182,-36.6763 0,-12.8472 -0.4145,-33.5682 h -26.9374 v -2.2794 h 64.1317 z"
         id="text6-4"
         style="font-size:59.445px;line-height:1;font-family:BROLIMO;-inkscape-font-specification:BROLIMO;fill:#1a1a1a;fill-opacity:1;stroke-width:0.264582;stroke-linejoin:round"
         aria-label="SVELTE, SVELTEKIT&#10;" /><g
         id="g15"
         transform="translate(0,1106.8267)"><path
           id="path16"
           style="color:#000000;fill:#abc2bd;stroke:#abc2bd;stroke-width:20;stroke-linejoin:round;stroke-dasharray:none;stroke-opacity:1"
           d="m 4470.8141,6113.2818 c -4.0937,0.2021 -8.1732,0.2218 -12.2711,0.4796 -113.7952,7.157 -212.4168,70.8755 -311.3221,71.0303 -36.6663,0.058 -74.6344,-13.8626 -114.8865,-28.3523 -40.252,-14.4896 -82.9968,-29.5852 -129.6934,-26.0775 -34.5773,2.5973 -75.1286,19.2111 -109.137,34.7318 -34.0082,15.5206 -60.6506,30.5009 -60.6506,30.5009 l 19.4691,34.5312 c 0,0 25.3225,-14.2241 57.6813,-28.992 32.3587,-14.7678 72.5778,-29.5259 95.6153,-31.2564 36.1257,-2.7136 73.4158,9.499 113.2541,23.8398 39.8385,14.3409 82.0196,30.773 128.4102,30.7005 114.7885,-0.1797 214.2798,-64.8535 313.7556,-71.1099 3.2569,-0.2049 6.5171,-0.2948 9.7751,-0.4615 z" /><circle
           style="fill:#abc2bd;fill-opacity:1;stroke:#abc2bd;stroke-width:20;stroke-linecap:round;stroke-linejoin:round;stroke-miterlimit:4.7;stroke-dasharray:none;stroke-opacity:1"
           id="path5-8"
           cx="3742.4924"
           cy="6212.8213"
           r="19.857384" /><path
           style="fill:#abc2bd;fill-opacity:1;stroke:#abc2bd;stroke-width:20.574;stroke-linecap:butt;stroke-linejoin:round;stroke-dasharray:none;stroke-opacity:1"
           d="m 4887.6914,5730.0184 c -5.3345,0 -10.6362,2.196 -14.4083,5.9681 -3.7721,3.7721 -5.9681,9.0738 -5.9681,14.4083 0,5.3345 2.196,10.6362 5.9681,14.4083 3.7721,3.7721 9.0738,5.9681 14.4083,5.9681 5.3345,0 10.6362,-2.196 14.4083,-5.9681 3.7721,-3.7721 5.9681,-9.0738 5.9681,-14.4083 0,-5.3345 -2.196,-10.6362 -5.9681,-14.4083 -3.7721,-3.7721 -9.0738,-5.9681 -14.4083,-5.9681 z"
           id="path11-5"
           inkscape:path-effect="#path-effect11-7"
           inkscape:original-d="m 4887.6914,5730.0184 c 0,-13.5843 0,27.1686 0,40.7528 0,13.5843 0,-27.1685 0,-40.7528 z"
           transform="matrix(0.97210298,0,0,0.97210298,-280.62112,543.07526)" /><path
           id="path18"
           style="color:#000000;fill:#d3dedc;fill-opacity:1;stroke-width:3;stroke-linejoin:round;stroke-dasharray:none;filter:url(#filter27)"
           d="m 4485.0668,6117.1432 c -8.8699,0.3023 -17.7301,0.4814 -26.6196,1.0413 -113.7951,7.1682 -212.4167,70.9849 -311.322,71.1399 -36.6663,0.058 -74.6348,-13.8841 -114.8871,-28.3962 -40.2519,-14.5122 -82.9966,-29.63 -129.6934,-26.1168 -34.577,2.6012 -75.1283,19.2398 -109.1364,34.7844 -34.0083,15.5448 -60.6506,30.5491 -60.6506,30.5491 l 19.4691,14.6993 c 0,0 25.3227,-14.2463 57.6812,-29.0369 32.3588,-14.7908 72.5779,-29.5714 95.6154,-31.3046 36.1256,-2.7178 73.4158,9.5139 113.254,23.8771 39.8387,14.363 82.0197,30.8202 128.4103,30.7475 114.7885,-0.1799 214.2797,-64.9538 313.7555,-71.22 8.0377,-0.5063 16.0795,-0.8538 24.1236,-1.1327 z" /></g></g><rect
       style="opacity:1;fill:#c83737;stroke:none;stroke-width:19.9999;stroke-linecap:round;stroke-linejoin:round;stroke-miterlimit:4.7;stroke-dasharray:none;stroke-opacity:1"
       id="rect21"
       width="143.07541"
       height="34.429146"
       x="3143.8083"
       y="6354.9902" /><rect
       style="fill:#262626;stroke:none;stroke-width:0.264583;stroke-linecap:round;stroke-linejoin:round;stroke-miterlimit:4.7"
       id="rect1"
       width="869.48944"
       height="35.193859"
       x="2274.3188"
       y="6354.6079" /></g></svg>
