<?xml version="1.0" encoding="UTF-8" standalone="no"?>
<!-- Created with Inkscape (http://www.inkscape.org/) -->

<svg
   width="2371.426"
   height="911.53357"
   viewBox="0 0 627.43979 241.17659"
   version="1.1"
   id="svg1"
   sodipodi:docname="AboutMe_OutlineTitleDecorSVG.svg"
   xml:space="preserve"
   inkscape:version="1.3 (0e150ed6c4, 2023-07-21)"
   xmlns:inkscape="http://www.inkscape.org/namespaces/inkscape"
   xmlns:sodipodi="http://sodipodi.sourceforge.net/DTD/sodipodi-0.dtd"
   xmlns="http://www.w3.org/2000/svg"
   xmlns:svg="http://www.w3.org/2000/svg"><sodipodi:namedview
     id="namedview1"
     pagecolor="#505050"
     bordercolor="#000000"
     borderopacity="1"
     inkscape:showpageshadow="0"
     inkscape:pageopacity="0"
     inkscape:pagecheckerboard="0"
     inkscape:deskcolor="#747474"
     inkscape:document-units="mm"
     inkscape:zoom="0.16"
     inkscape:cx="1787.5"
     inkscape:cy="246.875"
     inkscape:window-width="1920"
     inkscape:window-height="1009"
     inkscape:window-x="-8"
     inkscape:window-y="-8"
     inkscape:window-maximized="1"
     inkscape:current-layer="layer1" /><defs
     id="defs1" /><g
     inkscape:label="Слой 1"
     inkscape:groupmode="layer"
     id="layer1"
     transform="translate(-4863.8527,-135.00378)"><path
       id="rect178"
       style="color:#000000;fill:#222b25;stroke-linecap:square;stroke-miterlimit:4.7;-inkscape-stroke:none"
       d="m 130.19543,4863.7268 117.80631,-3e-4 c 68.01963,0 122.8715,54.6513 122.8715,122.4452 l -3.4e-4,382.4337 c 0,67.7937 -54.85109,122.4454 -122.87072,122.4454 l -118.42694,-2e-4 0.005,-5.2906 118.42125,-4e-4 c 65.18965,0 117.57848,-52.2106 117.57848,-117.1542 l -1.8e-4,-382.4337 c 0,-64.9436 -52.38819,-117.1541 -117.57783,-117.1541 l -117.81199,-2e-4 z"
       transform="matrix(9.850125e-4,0.99999951,0.99999951,9.8863481e-4,0,0)" /><path
       id="rect179"
       style="color:#000000;fill:#222b25;stroke-linecap:square;stroke-miterlimit:4.7;-inkscape-stroke:none"
       d="m 1414.418,4756.5336 c 10.2316,-2.3203 20.8734,-3.5862 31.8263,-3.5862 h 78.529 c 78.6362,0 142.0351,63.1359 142.0351,141.4707 l 3e-4,196.3475 c 0,72.6494 -54.5425,132.1882 -125.1847,140.4535 l -1.3814,-5.1548 c 68.4555,-7.6007 121.2751,-65.0286 121.2751,-135.2988 l 10e-5,-196.3477 c 0,-75.4832 -60.9367,-136.1794 -136.7444,-136.1794 l -78.5295,-3e-4 c -10.4861,0 -20.6445,1.2676 -30.4395,3.4688 z"
       transform="matrix(0.25878762,0.96593425,0.9659174,-0.25885048,0,0)" /><path
       id="rect181"
       style="color:#000000;fill:#222b25;stroke-linecap:square;stroke-miterlimit:4.7;-inkscape-stroke:none"
       d="m 2663.1487,4341.1685 c 15.4657,-12.4584 35.1485,-19.9378 56.6444,-19.9378 l 65.3652,-1e-4 c 49.8672,0 90.1055,40.092 90.1055,89.8007 l -4e-4,145.4355 c 0,32.6368 -17.4044,61.0411 -43.4324,76.7617 l -2.6263,-4.5473 c 24.4588,-14.786 40.7682,-41.4784 40.7682,-72.2143 l -4e-4,-145.4357 c 0,-46.8587 -37.7773,-84.508 -84.8144,-84.508 l -65.3652,1e-4 c -20.5667,0 -39.3617,7.1992 -54.0034,19.2175 z"
       transform="matrix(0.49972703,0.86618294,0.86586763,-0.50027317,0,0)" /></g></svg>
