<?xml version="1.0" encoding="UTF-8" standalone="no"?>
<!-- Created with Inkscape (http://www.inkscape.org/) -->

<svg
   width="875"
   height="1500"
   viewBox="0 0 875 1500"
   version="1.1"
   id="svg1"
   inkscape:version="1.3 (0e150ed6c4, 2023-07-21)"
   sodipodi:docname="AboutMe_LanguagesDecorMobile.svg"
   inkscape:export-filename="MainPage_Design_Mobile.png"
   inkscape:export-xdpi="150"
   inkscape:export-ydpi="150"
   xmlns:inkscape="http://www.inkscape.org/namespaces/inkscape"
   xmlns:sodipodi="http://sodipodi.sourceforge.net/DTD/sodipodi-0.dtd"
   xmlns="http://www.w3.org/2000/svg"
   xmlns:svg="http://www.w3.org/2000/svg">
  <sodipodi:namedview
     id="namedview1"
     pagecolor="#323232"
     bordercolor="#eeeeee"
     borderopacity="1"
     inkscape:showpageshadow="0"
     inkscape:pageopacity="0"
     inkscape:pagecheckerboard="0"
     inkscape:deskcolor="#626262"
     inkscape:document-units="px"
     showborder="false"
     borderlayer="false"
     inkscape:zoom="0.32000001"
     inkscape:cx="323.43749"
     inkscape:cy="542.18748"
     inkscape:window-width="1920"
     inkscape:window-height="1009"
     inkscape:window-x="-8"
     inkscape:window-y="-8"
     inkscape:window-maximized="1"
     inkscape:current-layer="layer1" />
  <defs
     id="defs1">
    <filter
       inkscape:collect="always"
       style="color-interpolation-filters:sRGB"
       id="filter2"
       x="-0.15872812"
       y="-0.17693572"
       width="1.3386764"
       height="1.3501491">
      <feGaussianBlur
         inkscape:collect="always"
         stdDeviation="19.480995"
         id="feGaussianBlur2" />
    </filter>
    <filter
       inkscape:collect="always"
       style="color-interpolation-filters:sRGB"
       id="filter4"
       x="-0.12038979"
       y="-0.21351462"
       width="1.2407877"
       height="1.427012">
      <feGaussianBlur
         inkscape:collect="always"
         stdDeviation="31.682855"
         id="feGaussianBlur4" />
    </filter>
  </defs>
  <g
     inkscape:label="Слой 1"
     inkscape:groupmode="layer"
     id="layer1"
     transform="translate(-3020.2475,-1154.1048)">
    <path
       style="mix-blend-mode:normal;fill:none;stroke:#d9e7e3;stroke-width:25;stroke-linecap:butt;stroke-linejoin:miter;stroke-dasharray:none;stroke-opacity:0.799685;filter:url(#filter2)"
       d="m 3252.7654,2516.2839 c 0,0 83.7097,-40.3497 128.7511,-49.7225 64.9636,-13.5185 185.4185,56.6575 198.8921,-8.3155 22.5653,-108.8158 -307.2189,-34.3315 -300.0962,-145.2339 4.8824,-76.0214 219.7776,3.6956 216.755,-72.4224 -3.1034,-78.153 -227.7454,-56.4776 -227.7454,-56.4776"
       id="path2"
       sodipodi:nodetypes="caaaac"
       transform="rotate(-105,3048.2984,2020.2558)" />
    <path
       style="mix-blend-mode:normal;fill:none;stroke:#d9e7e3;stroke-width:25;stroke-linecap:butt;stroke-linejoin:miter;stroke-dasharray:none;stroke-opacity:0.799685;filter:url(#filter2)"
       d="m 3252.7654,2516.2839 c 0,0 83.7097,-40.3497 128.7511,-49.7225 64.9636,-13.5185 185.4185,56.6575 198.8921,-8.3155 22.5653,-108.8158 -307.2189,-34.3315 -300.0962,-145.2339 4.8824,-76.0214 219.7776,3.6956 216.755,-72.4224 -3.1034,-78.153 -227.7454,-56.4776 -227.7454,-56.4776"
       id="path1"
       sodipodi:nodetypes="caaaac"
       transform="rotate(75,3582.4161,2441.7978)" />
    <path
       style="fill:none;stroke:#d0e1dc;stroke-width:13.4869;stroke-linecap:butt;stroke-linejoin:miter;stroke-dasharray:none;stroke-opacity:1;filter:url(#filter4)"
       d="m 3157.2494,1984.9552 c 4.859,33.5985 17.567,81.0364 55.2428,89.4932 33.5582,7.5326 54.0268,-57.3022 87.3634,-49.0579 26.3256,6.5105 12.2327,51.6748 35.2754,64.5259 27.2897,15.2196 65.1001,5.3862 97.2272,1.1048 25.4233,-3.388 48.4156,-22.3964 74.0252,-20.9922 25.4028,1.3929 45.6462,34.7793 70.7107,28.7262 36.1265,-8.7246 27.3877,-70.558 62.8324,-81.192 32.9964,-9.8994 68.6256,42.1897 99.5811,28.159 22.3678,-10.1383 12.9342,-42.7043 22.0971,-62.9767 9.9154,-21.9374 39.5246,-39.8961 35.3554,-62.9767 -6.715,-37.1739 -78.3636,-45.078 -89.9576,-81.3304 -8.656,-27.0654 40.1708,-59.2969 21.4566,-82.188 -37.809,-46.2477 -129.6754,-25.3434 -194.4543,-18.7825 -47.7091,4.8321 -88.2772,48.5139 -135.737,42.0858 -42.1529,-5.7092 -59.3889,-63.5441 -101.8067,-67.4975 -31.9391,-2.9768 -69.5832,12.2145 -87.2835,35.5438 -19.2649,25.3915 13.8871,64.8681 -3.5707,91.2308 -18.8236,28.4254 -95.8962,19.4032 -95.8662,52.2118 0.02,21.9802 54.7975,14.5218 64.2899,34.8903 8.7527,18.7814 -19.6893,38.9135 -16.7812,59.0223 z"
       id="path4"
       sodipodi:nodetypes="aaaaaaaaaaaaaaaaaaaaa"
       transform="matrix(1.0375901,0,0,1.1921691,-129.78929,-366.16865)" />
  </g>
</svg>
