<?xml version="1.0" encoding="UTF-8" standalone="no"?>
<!-- Created with Inkscape (http://www.inkscape.org/) -->

<svg
   width="5618.6689"
   height="2763.915"
   viewBox="0 0 1486.6061 731.28585"
   version="1.1"
   id="svg1"
   sodipodi:docname="AboutMe_SkillsTitleSVG.svg"
   xml:space="preserve"
   inkscape:version="1.3 (0e150ed6c4, 2023-07-21)"
   xmlns:inkscape="http://www.inkscape.org/namespaces/inkscape"
   xmlns:sodipodi="http://sodipodi.sourceforge.net/DTD/sodipodi-0.dtd"
   xmlns="http://www.w3.org/2000/svg"
   xmlns:svg="http://www.w3.org/2000/svg"><sodipodi:namedview
     id="namedview1"
     pagecolor="#505050"
     bordercolor="#000000"
     borderopacity="1"
     inkscape:showpageshadow="0"
     inkscape:pageopacity="0"
     inkscape:pagecheckerboard="0"
     inkscape:deskcolor="#747474"
     inkscape:document-units="mm"
     inkscape:zoom="0.16000001"
     inkscape:cx="2487.4999"
     inkscape:cy="984.37495"
     inkscape:window-width="1920"
     inkscape:window-height="1009"
     inkscape:window-x="-8"
     inkscape:window-y="-8"
     inkscape:window-maximized="1"
     inkscape:current-layer="layer1" /><defs
     id="defs1"><inkscape:path-effect
       effect="spiro"
       id="path-effect12"
       is_visible="true"
       lpeversion="1" /><inkscape:path-effect
       effect="spiro"
       id="path-effect9"
       is_visible="true"
       lpeversion="1" /><inkscape:path-effect
       effect="spiro"
       id="path-effect8"
       is_visible="true"
       lpeversion="1" /><inkscape:path-effect
       effect="spiro"
       id="path-effect6"
       is_visible="true"
       lpeversion="1" /><inkscape:path-effect
       effect="spiro"
       id="path-effect4"
       is_visible="true"
       lpeversion="1" /><inkscape:path-effect
       effect="bend_path"
       id="path-effect22"
       is_visible="true"
       lpeversion="1"
       bendpath="m 3765.0195,3946.8817 c 820.9443,-531.3867 662.6058,529.0304 1344.6224,-125.8466"
       prop_scale="1"
       scale_y_rel="false"
       vertical="false"
       hide_knot="false"
       bendpath-nodetypes="cc" /><inkscape:path-effect
       effect="bend_path"
       id="path-effect11"
       is_visible="true"
       lpeversion="1"
       bendpath="m 3765.0195,3946.8817 c 820.9443,-531.3867 662.6058,529.0304 1344.6224,-125.8466"
       prop_scale="1"
       scale_y_rel="false"
       vertical="false"
       hide_knot="false"
       bendpath-nodetypes="cc" /><filter
       inkscape:collect="always"
       style="color-interpolation-filters:sRGB"
       id="filter1"
       x="-0.055541524"
       y="-0.2357287"
       width="1.111083"
       height="1.4714689"><feGaussianBlur
         inkscape:collect="always"
         stdDeviation="20.448579"
         id="feGaussianBlur1" /></filter><filter
       inkscape:collect="always"
       style="color-interpolation-filters:sRGB"
       id="filter2"
       x="-0.038554546"
       y="-0.16550513"
       width="1.0771091"
       height="1.3309968"><feGaussianBlur
         inkscape:collect="always"
         stdDeviation="14.053702"
         id="feGaussianBlur2" /></filter><filter
       inkscape:collect="always"
       style="color-interpolation-filters:sRGB"
       id="filter3"
       x="-0.054300438"
       y="-0.24668062"
       width="1.1086009"
       height="1.4933395"><feGaussianBlur
         inkscape:collect="always"
         stdDeviation="15.055248"
         id="feGaussianBlur3" /></filter><filter
       inkscape:collect="always"
       style="color-interpolation-filters:sRGB"
       id="filter4"
       x="-0.270407"
       y="-0.6413081"
       width="1.540814"
       height="2.2826162"><feGaussianBlur
         inkscape:collect="always"
         stdDeviation="13.094471"
         id="feGaussianBlur4" /></filter><filter
       inkscape:collect="always"
       style="color-interpolation-filters:sRGB"
       id="filter5"
       x="-0.074350152"
       y="-0.35044108"
       width="1.1487003"
       height="1.7008198"><feGaussianBlur
         inkscape:collect="always"
         stdDeviation="5.2608791"
         id="feGaussianBlur5" /></filter><filter
       inkscape:collect="always"
       style="color-interpolation-filters:sRGB"
       id="filter8"
       x="-0.042883187"
       y="-0.18412424"
       width="1.0857664"
       height="1.3682024"><feGaussianBlur
         inkscape:collect="always"
         stdDeviation="0.59135392"
         id="feGaussianBlur8" /></filter><filter
       inkscape:collect="always"
       style="color-interpolation-filters:sRGB"
       id="filter10"
       x="-0.05280786"
       y="-0.22412652"
       width="1.1056157"
       height="1.4482959"><feGaussianBlur
         inkscape:collect="always"
         stdDeviation="0.33324981"
         id="feGaussianBlur10" /></filter><filter
       inkscape:collect="always"
       style="color-interpolation-filters:sRGB"
       id="filter7"
       x="-0.57029132"
       y="-0.5541547"
       width="2.1405826"
       height="2.1083094"><feGaussianBlur
         inkscape:collect="always"
         stdDeviation="34.364075"
         id="feGaussianBlur7" /></filter><filter
       inkscape:collect="always"
       style="color-interpolation-filters:sRGB"
       id="filter6"
       x="-0.66995273"
       y="-0.65099614"
       width="2.3399055"
       height="2.3019923"><feGaussianBlur
         inkscape:collect="always"
         stdDeviation="40.369377"
         id="feGaussianBlur6" /></filter><filter
       inkscape:collect="always"
       style="color-interpolation-filters:sRGB"
       id="filter9"
       x="-0.57549516"
       y="-0.55921129"
       width="2.1509903"
       height="2.1184226"><feGaussianBlur
         inkscape:collect="always"
         stdDeviation="34.677644"
         id="feGaussianBlur9" /></filter><filter
       inkscape:collect="always"
       style="color-interpolation-filters:sRGB"
       id="filter11"
       x="-0.56917617"
       y="-0.5530711"
       width="2.1383523"
       height="2.1061422"><feGaussianBlur
         inkscape:collect="always"
         stdDeviation="34.296878"
         id="feGaussianBlur11" /></filter><filter
       inkscape:collect="always"
       style="color-interpolation-filters:sRGB"
       id="filter6-0"
       x="-0.66995273"
       y="-0.65099614"
       width="2.3399055"
       height="2.3019923"><feGaussianBlur
         inkscape:collect="always"
         stdDeviation="40.369377"
         id="feGaussianBlur6-6" /></filter><filter
       inkscape:collect="always"
       style="color-interpolation-filters:sRGB"
       id="filter6-0-7"
       x="-0.66995273"
       y="-0.65099614"
       width="2.3399055"
       height="2.3019923"><feGaussianBlur
         inkscape:collect="always"
         stdDeviation="40.369377"
         id="feGaussianBlur6-6-0" /></filter></defs><g
     inkscape:label="Слой 1"
     inkscape:groupmode="layer"
     id="layer1"
     transform="translate(-3871.3267,-3611.8238)"><ellipse
       style="mix-blend-mode:normal;fill:#d9e5e2;fill-opacity:1;stroke:none;stroke-width:4.62844;stroke-linecap:round;stroke-linejoin:round;stroke-miterlimit:4.7;stroke-opacity:1;filter:url(#filter11)"
       id="ellipse1"
       cx="4201.604"
       cy="3761.5027"
       rx="72.308464"
       ry="74.41404"
       transform="matrix(2.1428267,0,0,0.76469829,-4659.8675,852.96462)" /><ellipse
       style="mix-blend-mode:normal;fill:#d9e5e2;fill-opacity:1;stroke:none;stroke-width:3.97319;stroke-linecap:round;stroke-linejoin:round;stroke-miterlimit:4.7;stroke-opacity:1;filter:url(#filter9)"
       id="ellipse7"
       cx="4201.604"
       cy="3761.5027"
       rx="72.308464"
       ry="74.41404"
       transform="matrix(2.685248,0,0,0.82810302,-6942.7011,1100.1686)" /><ellipse
       style="mix-blend-mode:normal;fill:#d9e5e2;fill-opacity:1;stroke:none;stroke-width:4.86167;stroke-linecap:round;stroke-linejoin:round;stroke-miterlimit:4.7;stroke-opacity:1;filter:url(#filter7)"
       id="path7"
       cx="4957.3203"
       cy="3761.5027"
       rx="72.308464"
       ry="74.41404"
       transform="matrix(2.1870986,0,0,0.96343905,-5886.2143,535.88844)" /><path
       style="fill:none;stroke:#dbe6e3;stroke-width:152.942;stroke-linecap:round;stroke-linejoin:miter;stroke-dasharray:none;stroke-opacity:1;filter:url(#filter5)"
       d="m 5213.6855,4144.5715 c 0,0 -105.3101,-203.4085 -203.6245,-207.591 -178.4637,-7.5922 -158.3747,168.8699 -263.6896,174.1849 -158.424,7.9954 -262.6673,-215.1271 -421.1938,-220.7481 -87.1298,-3.0895 -173.6177,47.7867 -239.5632,104.625 -33.4758,28.8529 -70.2736,112.2728 -70.2736,112.2728"
       id="path3"
       sodipodi:nodetypes="csaaac"
       transform="matrix(-0.84845674,-0.06118367,-0.05915513,0.87755197,8769.7381,781.29926)" /><path
       style="fill:none;stroke:#c5d8d6;stroke-width:57.8051;stroke-linecap:round;stroke-linejoin:miter;stroke-dasharray:none;stroke-opacity:1;filter:url(#filter3)"
       d="m 5213.0318,4144.8527 c 0,0 -104.4422,-205.3717 -202.9708,-216.9673 -104.7224,-12.3244 -158.3747,168.8699 -263.6896,174.1849 -158.424,7.9954 -262.6673,-215.1271 -421.1938,-220.7481 -87.1298,-3.0895 -173.6177,47.7867 -239.5632,104.625 -33.4758,28.8529 -70.2736,112.2728 -70.2736,112.2728"
       id="path60"
       sodipodi:nodetypes="caaaac"
       transform="matrix(-0.84845674,-0.06118367,-0.05915513,0.87755197,8769.7381,781.29926)" /><path
       style="fill:none;stroke:#afcac9;stroke-width:125;stroke-linecap:round;stroke-linejoin:miter;stroke-dasharray:none;stroke-opacity:0.75;filter:url(#filter10)"
       d="m 5216.0341,3990.4957 c 0,0 -95.0752,222.5464 -196.8717,238.0494 -99.9214,15.2174 -152.5805,-160.4938 -254.0422,-165.5453 -152.6278,-7.5987 -253.0572,204.4569 -405.7839,209.7991 -83.942,2.9363 -166.2564,-46.0355 -230.7985,-99.4357 -50.9315,-42.1392 -111.1851,-164.2118 -111.1851,-164.2118"
       id="path1"
       sodipodi:nodetypes="caaaac" /><path
       style="fill:none;stroke:#a1bfbc;stroke-width:35;stroke-linecap:round;stroke-linejoin:miter;stroke-dasharray:none;stroke-opacity:1;filter:url(#filter1)"
       d="m 5216.0341,3968.502 c 0,0 -95.0752,222.5464 -196.8717,238.0494 -99.9214,15.2174 -152.5805,-160.4938 -254.0422,-165.5453 -152.6278,-7.5987 -253.0572,204.4569 -405.7839,209.7991 -83.942,2.9363 -166.2564,-46.0355 -230.7985,-99.4357 -50.9315,-42.1392 -111.1851,-164.2118 -111.1851,-164.2118"
       id="path58"
       sodipodi:nodetypes="caaaac" /><path
       style="fill:none;stroke:#c6dcd7;stroke-width:99.9998;stroke-linecap:round;stroke-linejoin:miter;stroke-dasharray:none;stroke-opacity:0.75;filter:url(#filter8)"
       d="m 5213.74,3940.4537 c 0,0 -101.0689,-204.7525 -198.275,-216.95 -102.3519,-12.8432 -155.4009,164.5906 -258.7383,169.7709 -155.4492,7.7928 -257.735,-209.6758 -413.285,-215.1544 -85.4937,-3.0112 -179.1886,37.377 -235.0649,101.9739 -47.8603,55.3298 -93.6883,177.2019 -93.6883,177.2019"
       id="path4"
       sodipodi:nodetypes="caaasc" /><path
       style="fill:#94b1ab;fill-opacity:1;stroke:none;stroke-width:0.271732px;stroke-linecap:butt;stroke-linejoin:miter;stroke-opacity:1;filter:url(#filter4)"
       d="m 3961.9478,3970.2155 c -2.4449,0.6218 -4.687,1.9773 -6.4328,3.7983 -1.7459,1.821 -2.9983,4.0975 -3.6805,6.5263 -1.3645,4.8574 -0.406,10.2003 2.0408,14.6128 2.4467,4.4124 6.2847,7.9447 10.5806,10.5908 4.2958,2.6462 9.0531,4.4555 13.8621,5.9821 16.942,5.3781 34.8478,7.4035 52.6187,7.0158 7.5467,-0.1646 15.2658,-0.8034 22.1453,-3.9103 3.4397,-1.5535 6.6281,-3.7249 9.142,-6.54 2.5139,-2.8152 4.3339,-6.2907 4.9611,-10.0125 0.959,-5.6904 -0.9631,-11.6605 -4.5463,-16.1839 -3.5832,-4.5233 -8.7019,-7.6748 -14.1625,-9.5408 -11.0636,-3.7806 -23.1495,-2.4778 -34.7271,-0.8484 -11.5776,1.6294 -23.4668,3.5313 -34.8465,0.8484 -2.8092,-0.6623 -5.5505,-1.5983 -8.3739,-2.1974 -2.8234,-0.5991 -5.7838,-0.8527 -8.581,-0.1412 z"
       id="path5"
       inkscape:path-effect="#path-effect6"
       inkscape:original-d="m 3961.9478,3970.2155 c -5.6517,-0.7795 10.9135,27.6735 16.3702,41.5103 5.4568,13.8368 35.0792,4.6772 52.6187,7.0158 17.5396,2.3386 24.1656,-13.6419 36.2484,-20.4628 12.0828,-6.8209 -12.4725,-17.1498 -18.7088,-25.7247 -6.2363,-8.5749 -46.3824,0 -69.5736,0 -23.1912,0 -11.3033,-1.5591 -16.9549,-2.3386 z"
       transform="matrix(1.0340124,0,0,0.91688996,-124.98254,334.345)" /><path
       style="fill:#94b1ab;fill-opacity:1;stroke:none;stroke-width:0.278841px;stroke-linecap:butt;stroke-linejoin:miter;stroke-opacity:1;filter:url(#filter4)"
       d="m 3961.9478,3970.2155 c -2.4449,0.6218 -4.687,1.9773 -6.4328,3.7983 -1.7459,1.821 -2.9983,4.0975 -3.6805,6.5263 -1.3645,4.8574 -0.406,10.2003 2.0408,14.6128 2.4467,4.4124 6.2847,7.9447 10.5806,10.5908 4.2958,2.6462 9.0531,4.4555 13.8621,5.9821 16.942,5.3781 34.8478,7.4035 52.6187,7.0158 7.5467,-0.1646 15.2658,-0.8034 22.1453,-3.9103 3.4397,-1.5535 6.6281,-3.7249 9.142,-6.54 2.5139,-2.8152 4.3339,-6.2907 4.9611,-10.0125 0.959,-5.6904 -0.9631,-11.6605 -4.5463,-16.1839 -3.5832,-4.5233 -8.7019,-7.6748 -14.1625,-9.5408 -11.0636,-3.7806 -23.1495,-2.4778 -34.7271,-0.8484 -11.5776,1.6294 -23.4668,3.5313 -34.8465,0.8484 -2.8092,-0.6623 -5.5505,-1.5983 -8.3739,-2.1974 -2.8234,-0.5991 -5.7838,-0.8527 -8.581,-0.1412 z"
       id="path6"
       inkscape:path-effect="#path-effect8"
       inkscape:original-d="m 3961.9478,3970.2155 c -5.6517,-0.7795 10.9135,27.6735 16.3702,41.5103 5.4568,13.8368 35.0792,4.6772 52.6187,7.0158 17.5396,2.3386 24.1656,-13.6419 36.2484,-20.4628 12.0828,-6.8209 -12.4725,-17.1498 -18.7088,-25.7247 -6.2363,-8.5749 -46.3824,0 -69.5736,0 -23.1912,0 -11.3033,-1.5591 -16.9549,-2.3386 z"
       transform="matrix(1.0054467,0,0,0.8954649,1186.5024,400.50504)" /><path
       style="fill:none;stroke:#aac7bf;stroke-width:25;stroke-linecap:round;stroke-linejoin:miter;stroke-dasharray:none;stroke-opacity:1;filter:url(#filter2)"
       d="m 5213.74,3965.2662 c 0,0 -101.0689,-204.7525 -198.275,-216.95 -102.3519,-12.8432 -155.4009,164.5906 -258.7383,169.7709 -155.4492,7.7928 -257.735,-209.6758 -413.285,-215.1544 -85.4937,-3.0112 -182.2344,34.8631 -235.0649,101.9739 -44.937,57.0837 -93.6883,177.2019 -93.6883,177.2019"
       id="path94"
       sodipodi:nodetypes="caaasc" /><path
       style="fill:none;stroke:#e0ebe7;stroke-width:25;stroke-linecap:round;stroke-linejoin:miter;stroke-dasharray:none;stroke-opacity:1;filter:url(#filter2)"
       d="m 5213.74,3913.7058 c 0,0 -101.0689,-204.7525 -198.275,-216.95 -102.3519,-12.8432 -155.4009,164.5906 -258.7383,169.7709 -155.4492,7.7928 -257.735,-209.6758 -413.285,-215.1544 -85.4937,-3.0112 -182.2344,34.8631 -235.0649,101.9739 -44.937,57.0837 -93.6883,177.2019 -93.6883,177.2019"
       id="path14"
       sodipodi:nodetypes="caaasc" /><ellipse
       style="mix-blend-mode:normal;fill:#f9fbfb;fill-opacity:1;stroke:none;stroke-width:2.22084;stroke-linecap:round;stroke-linejoin:round;stroke-miterlimit:4.7;stroke-dasharray:none;stroke-opacity:1;filter:url(#filter6)"
       id="ellipse8"
       cx="4201.604"
       cy="3761.5027"
       rx="72.308464"
       ry="74.41404"
       transform="matrix(4.4729475,0,0,1.5912945,-14178.924,-2008.1917)" /><ellipse
       style="mix-blend-mode:normal;fill:#f0f4f3;fill-opacity:1;stroke:none;stroke-width:6.72917;stroke-linecap:round;stroke-linejoin:round;stroke-miterlimit:4.7;stroke-dasharray:none;stroke-opacity:1;filter:url(#filter6-0)"
       id="ellipse8-3"
       cx="4201.604"
       cy="3761.5027"
       rx="72.308464"
       ry="74.41404"
       transform="matrix(1.1493523,0,0,0.67452821,-776.82886,1456.9313)" /><ellipse
       style="mix-blend-mode:normal;fill:#f0f4f3;fill-opacity:1;stroke:none;stroke-width:6.72917;stroke-linecap:round;stroke-linejoin:round;stroke-miterlimit:4.7;stroke-dasharray:none;stroke-opacity:1;filter:url(#filter6-0-7)"
       id="ellipse8-3-9"
       cx="4201.604"
       cy="3761.5027"
       rx="72.308464"
       ry="74.41404"
       transform="matrix(1.1493523,0,0,0.67452821,348.64561,1440.0081)" /><path
       style="fill:none;stroke:#dfece9;stroke-width:35;stroke-linecap:round;stroke-linejoin:miter;stroke-dasharray:none;stroke-opacity:1;filter:url(#filter1)"
       d="m 5216.0341,4000.5034 c 0,0 -95.0752,222.5464 -196.8717,238.0494 -99.9214,15.2174 -152.5805,-160.4938 -254.0422,-165.5453 -152.6278,-7.5987 -253.0572,204.4569 -405.7839,209.7991 -83.942,2.9363 -166.2564,-46.0355 -230.7985,-99.4357 -50.9315,-42.1392 -111.1851,-164.2118 -111.1851,-164.2118"
       id="path11"
       sodipodi:nodetypes="caaaac" /><path
       style="font-size:254.599px;line-height:1;font-family:Misto;-inkscape-font-specification:Misto;fill:#262626;fill-opacity:1;stroke-width:0.264583"
       d="m 4520.2994,3885.1217 c -68.2325,0 -91.9102,48.6284 -91.9102,70.2693 0,22.6594 25.9691,25.2053 49.6468,25.2053 h 56.7756 c 37.426,0 68.7417,0 68.7417,17.0582 0,19.3495 -45.064,28.7697 -75.1067,28.7697 h -13.7483 c -34.3709,0 -60.253,-13.9811 -79.1803,-29.0243 -2.7753,-2.2058 -10.4386,2.0368 -10.4386,2.0368 11.9662,41.7542 40.2266,71.2877 98.5298,71.2877 53.4658,0 87.5821,-34.8801 87.5821,-70.2693 0,-24.9507 -30.0427,-26.7329 -46.337,-26.7329 h -68.9964 c -46.0824,0 -59.3215,-4.8374 -59.3215,-15.5306 0,-20.6225 48.3738,-28.2605 76.1251,-28.2605 h 13.7483 c 29.0243,0 54.7612,12.6583 78.9257,28.5151 3.0337,1.9907 10.6932,-2.0368 10.6932,-2.0368 -12.4754,-46.8462 -47.6101,-71.2877 -95.7293,-71.2877 z m 241.6147,146.649 -23.9323,-49.9014 67.7233,-93.1832 h -37.0554 c -44.784,0 -129.9615,157.8514 -129.9615,157.8514 v -157.8514 h -7.3834 v 178.2193 h 44.5548 l 57.0302,-78.4165 22.4047,46.337 c 10.9478,22.9139 19.0949,35.8985 42.7727,35.8985 11.4569,0 21.1317,-8.6564 21.1317,-19.0949 0,-9.9294 -8.4018,-18.0766 -18.5858,-18.0766 -10.1839,0 -18.5857,8.1472 -18.5857,18.5858 0,3.0551 0.7638,5.8557 2.0368,8.4017 -7.638,-3.0552 -16.5489,-17.0581 -22.1501,-28.7697 z m 100.5667,-181.0198 c 0,-11.457 -9.1656,-20.6226 -20.3679,-20.6226 -11.2024,0 -20.368,9.1656 -20.368,20.6226 0,11.2023 9.1656,20.3679 20.368,20.3679 11.2023,0 20.3679,-9.1656 20.3679,-20.3679 z m -24.1869,37.9352 v 178.2193 h 7.3833 v -178.2193 z m 41.7541,0 h -7.3833 v 178.2193 h 139.5202 c 0,0 0.851,-38.918 -43.9219,-45.6415 -32.8396,-4.9315 -87.338,6.7235 -87.338,6.7235 z m 154.7962,0 h -7.3834 v 178.2193 h 139.5203 c 0,0 0.8512,-38.918 -43.9218,-45.6412 -32.8397,-4.9313 -87.3381,6.7232 -87.3381,6.7232 z m 227.3566,-3.5644 c -68.2325,0 -91.9102,48.6284 -91.9102,70.2693 0,22.6594 25.9691,25.2053 49.6468,25.2053 h 56.7755 c 37.4261,0 68.7418,0 68.7418,17.0582 0,19.3495 -45.0641,28.7697 -75.1067,28.7697 h -13.7484 c -34.3708,0 -57.0302,-7.1288 -79.1803,-29.0243 l -10.4385,2.0368 c 11.9661,41.7542 40.2266,71.2877 98.5298,71.2877 53.4658,0 87.582,-34.8801 87.582,-70.2693 0,-24.9507 -30.0426,-26.7329 -46.337,-26.7329 h -68.9963 c -46.0824,0 -59.3216,-4.8374 -59.3216,-15.5306 0,-20.6225 48.3738,-28.2605 76.1251,-28.2605 h 13.7484 c 29.0243,0 58.0485,5.3466 78.9257,28.5151 l 10.6931,-2.0368 c -12.4753,-46.8462 -47.61,-71.2877 -95.7292,-71.2877 z"
       id="path16"
       aria-label="MY SKILLS"
       sodipodi:nodetypes="sssssssscsssssssscscccscccccccssssccssssscccccccccsccccccsccsssssssccsssssssccs" /><g
       id="g11"
       transform="matrix(0.61050261,0,0,0.61050261,1369.8435,1130.2605)"
       style="stroke-width:1.63799"><path
         style="fill:#333333;fill-opacity:1;stroke:none;stroke-width:0.433386px;stroke-linecap:butt;stroke-linejoin:miter;stroke-opacity:1"
         d="m 4623.7833,4518.2863 92.2036,115.0432 c 2.8617,3.5706 37.2657,-115.0432 107.9874,-115.0432 h 87.6113 c 0,0 -149.4547,119.6313 -149.4547,197.3933 0,0 13.9417,103.2338 1e-4,103.2338 h -45.201 c 0,0 81.9873,-66.786 -13.2496,-185.5048 -78.5811,-97.9562 -92.3517,-115.1223 -92.3517,-115.1223 z"
         id="path2"
         sodipodi:nodetypes="csscsscscc" /><path
         style="fill:#333333;fill-opacity:1;stroke:none;stroke-width:0.433386px;stroke-linecap:butt;stroke-linejoin:miter;stroke-opacity:1"
         d="m 4098.6037,4818.9134 c 0,0 113.3794,-300.6271 184.2415,-300.6271 h 70.8621 c 0,0 -0.093,240.1859 0,258.9688 0.121,24.5342 90.5241,-258.9688 158.9029,-258.9688 h 70.8621 v 300.6271 h -12.4546 v -260.2572 c 0,0 -123.4719,260.2572 -158.9029,260.2572 h -70.862 v -260.2572 c 0,0 -117.0298,260.2572 -158.9029,260.2572 z"
         id="path3-6"
         sodipodi:nodetypes="cscssccccsccsc" /></g></g></svg>
