<?xml version="1.0" encoding="UTF-8" standalone="no"?>
<!-- Created with Inkscape (http://www.inkscape.org/) -->

<svg
   width="2000"
   height="750"
   viewBox="0 0 2000 750"
   version="1.1"
   id="svg1"
   sodipodi:docname="AboutMe_LanguagesDecorSVG.svg"
   xml:space="preserve"
   inkscape:version="1.3 (0e150ed6c4, 2023-07-21)"
   xmlns:inkscape="http://www.inkscape.org/namespaces/inkscape"
   xmlns:sodipodi="http://sodipodi.sourceforge.net/DTD/sodipodi-0.dtd"
   xmlns="http://www.w3.org/2000/svg"
   xmlns:svg="http://www.w3.org/2000/svg"><sodipodi:namedview
     id="namedview1"
     pagecolor="#505050"
     bordercolor="#000000"
     borderopacity="1"
     inkscape:showpageshadow="0"
     inkscape:pageopacity="0"
     inkscape:pagecheckerboard="0"
     inkscape:deskcolor="#747474"
     inkscape:document-units="px"
     inkscape:zoom="0.16"
     inkscape:cx="812.5"
     inkscape:cy="1178.125"
     inkscape:window-width="1920"
     inkscape:window-height="1009"
     inkscape:window-x="-8"
     inkscape:window-y="-8"
     inkscape:window-maximized="1"
     inkscape:current-layer="layer1" /><defs
     id="defs1"><inkscape:path-effect
       effect="spiro"
       id="path-effect19"
       is_visible="true"
       lpeversion="1" /><inkscape:path-effect
       effect="spiro"
       id="path-effect17"
       is_visible="true"
       lpeversion="1" /><inkscape:path-effect
       effect="spiro"
       id="path-effect10"
       is_visible="true"
       lpeversion="1" /><inkscape:path-effect
       effect="spiro"
       id="path-effect8"
       is_visible="true"
       lpeversion="1" /><inkscape:path-effect
       effect="spiro"
       id="path-effect5"
       is_visible="true"
       lpeversion="1" /><inkscape:path-effect
       effect="spiro"
       id="path-effect3"
       is_visible="true"
       lpeversion="1" /><filter
       inkscape:collect="always"
       style="color-interpolation-filters:sRGB"
       id="filter14"
       x="-0.084091495"
       y="-0.10853215"
       width="1.1682282"
       height="1.2170483"><feGaussianBlur
         inkscape:collect="always"
         stdDeviation="5.127474"
         id="feGaussianBlur14" /></filter><filter
       inkscape:collect="always"
       style="color-interpolation-filters:sRGB"
       id="filter15"
       x="-0.084091495"
       y="-0.10853215"
       width="1.1682282"
       height="1.2170483"><feGaussianBlur
         inkscape:collect="always"
         stdDeviation="5.127474"
         id="feGaussianBlur15" /></filter><filter
       inkscape:collect="always"
       style="color-interpolation-filters:sRGB"
       id="filter19"
       x="-0.049042932"
       y="-0.063292363"
       width="1.0980994"
       height="1.12658"><feGaussianBlur
         inkscape:collect="always"
         stdDeviation="5.127474"
         id="feGaussianBlur19" /></filter><filter
       inkscape:collect="always"
       style="color-interpolation-filters:sRGB"
       id="filter20"
       x="-0.049042932"
       y="-0.063292363"
       width="1.0980994"
       height="1.12658"><feGaussianBlur
         inkscape:collect="always"
         stdDeviation="5.127474"
         id="feGaussianBlur20" /></filter></defs><g
     inkscape:label="Слой 1"
     inkscape:groupmode="layer"
     id="layer1"
     transform="translate(-3726.4569,-2577.7434)"><path
       style="mix-blend-mode:normal;fill:none;stroke:#d4e8e5;stroke-width:36.2206;stroke-linecap:round;stroke-linejoin:round;stroke-dasharray:none;stroke-opacity:0.301961;filter:url(#filter14)"
       d="m 3903.2336,2870.5298 c 50.8316,4.0653 103.0038,-12.1066 142.6244,-44.2094 39.6205,-32.1028 66.259,-79.7878 72.8222,-130.3576 2.0221,-15.5806 2.2217,-31.415 5.4225,-46.7968 1.6004,-7.6909 3.9612,-15.2624 7.5615,-22.2445 3.6003,-6.9821 8.4728,-13.3729 14.6373,-18.2422 10.0327,-7.9247 23.2144,-11.4552 35.969,-10.5733 12.7545,0.8818 25.0415,6.0001 35.2818,13.6548 20.4804,15.3093 32.2362,39.721 39.2347,64.3146 8.968,31.5144 11.2877,65.365 3.1448,97.1026 -8.1428,31.7376 -27.3186,61.1546 -55.073,78.5693 -30.1524,18.9193 -67.2036,22.4474 -102.7514,24.3068 -29.0676,1.5204 -58.1762,2.2573 -87.2835,2.2097"
       id="path15"
       inkscape:path-effect="#path-effect17"
       inkscape:original-d="m 3903.2336,2870.5298 c 71.4472,-58.189 143.6311,-116.378 215.4466,-174.567 71.8155,-58.189 18.4142,-58.189 27.6213,-87.2835 9.2072,-29.0945 73.657,44.9308 110.4855,67.3961 36.8285,22.4654 -34.6188,117.1146 -51.9282,175.6719 -17.3093,58.5573 -68.5009,16.2045 -102.7514,24.3068 -34.2505,8.1022 -58.189,1.4731 -87.2835,2.2097"
       transform="matrix(-1.3800408,0,0,1.3808184,9862.6787,-828.09981)" /><path
       style="mix-blend-mode:normal;fill:none;stroke:#eef6f5;stroke-width:10.86618296;stroke-linecap:round;stroke-linejoin:round;stroke-dasharray:none;stroke-opacity:0.3019608;filter:url(#filter19)"
       d="m 3903.2336,2870.5298 c 50.8316,4.0653 103.0038,-12.1066 142.6244,-44.2094 39.6205,-32.1028 66.259,-79.7878 72.8222,-130.3576 2.0221,-15.5806 2.2217,-31.415 5.4225,-46.7968 1.6004,-7.6909 3.9612,-15.2624 7.5615,-22.2445 3.6003,-6.9821 8.4728,-13.3729 14.6373,-18.2422 10.0327,-7.9247 23.2144,-11.4552 35.969,-10.5733 12.7545,0.8818 25.0415,6.0001 35.2818,13.6548 20.4804,15.3093 32.2362,39.721 39.2347,64.3146 8.968,31.5144 11.2877,65.365 3.1448,97.1026 -8.1428,31.7376 -27.3186,61.1546 -55.073,78.5693 -30.1524,18.9193 -67.2036,22.4474 -102.7514,24.3068 -29.0676,1.5204 -58.1762,2.2573 -87.2835,2.2097"
       id="path8"
       inkscape:path-effect="#path-effect10"
       inkscape:original-d="m 3903.2336,2870.5298 c 71.4472,-58.189 143.6311,-116.378 215.4466,-174.567 71.8155,-58.189 18.4142,-58.189 27.6213,-87.2835 9.2072,-29.0945 73.657,44.9308 110.4855,67.3961 36.8285,22.4654 -34.6188,117.1146 -51.9282,175.6719 -17.3093,58.5573 -68.5009,16.2045 -102.7514,24.3068 -34.2505,8.1022 -58.189,1.4731 -87.2835,2.2097"
       transform="matrix(-1.3800408,0,0,1.3808184,9862.6787,-828.09981)" /><path
       style="fill:none;stroke:#d4e8e5;stroke-width:36.2206;stroke-linecap:round;stroke-linejoin:round;stroke-dasharray:none;stroke-opacity:0.301961;filter:url(#filter15)"
       d="m 3903.2336,2870.5298 c 50.8316,4.0653 103.0038,-12.1066 142.6244,-44.2094 39.6205,-32.1028 66.259,-79.7878 72.8222,-130.3576 2.0221,-15.5806 2.2217,-31.415 5.4225,-46.7968 1.6004,-7.6909 3.9612,-15.2624 7.5615,-22.2445 3.6003,-6.9821 8.4728,-13.3729 14.6373,-18.2422 10.0327,-7.9247 23.2144,-11.4552 35.969,-10.5733 12.7545,0.8818 25.0415,6.0001 35.2818,13.6548 20.4804,15.3093 32.2362,39.721 39.2347,64.3146 8.968,31.5144 11.2877,65.365 3.1448,97.1026 -8.1428,31.7376 -27.3186,61.1546 -55.073,78.5693 -30.1524,18.9193 -67.2036,22.4474 -102.7514,24.3068 -29.0676,1.5204 -58.1762,2.2573 -87.2835,2.2097"
       id="path16"
       transform="matrix(1.3800408,0,0,-1.3808184,-376.12134,6733.5866)"
       inkscape:original-d="m 3903.2336,2870.5298 c 71.4472,-58.189 143.6311,-116.378 215.4466,-174.567 71.8155,-58.189 18.4142,-58.189 27.6213,-87.2835 9.2072,-29.0945 73.657,44.9308 110.4855,67.3961 36.8285,22.4654 -34.6188,117.1146 -51.9282,175.6719 -17.3093,58.5573 -68.5009,16.2045 -102.7514,24.3068 -34.2505,8.1022 -58.189,1.4731 -87.2835,2.2097"
       inkscape:path-effect="#path-effect19" /><path
       style="fill:none;stroke:#eef6f5;stroke-width:10.86618296;stroke-linecap:round;stroke-linejoin:round;stroke-dasharray:none;stroke-opacity:0.3019608;filter:url(#filter20)"
       d="m 3903.2336,2870.5298 c 50.8316,4.0653 103.0038,-12.1066 142.6244,-44.2094 39.6205,-32.1028 66.259,-79.7878 72.8222,-130.3576 2.0221,-15.5806 2.2217,-31.415 5.4225,-46.7968 1.6004,-7.6909 3.9612,-15.2624 7.5615,-22.2445 3.6003,-6.9821 8.4728,-13.3729 14.6373,-18.2422 10.0327,-7.9247 23.2144,-11.4552 35.969,-10.5733 12.7545,0.8818 25.0415,6.0001 35.2818,13.6548 20.4804,15.3093 32.2362,39.721 39.2347,64.3146 8.968,31.5144 11.2877,65.365 3.1448,97.1026 -8.1428,31.7376 -27.3186,61.1546 -55.073,78.5693 -30.1524,18.9193 -67.2036,22.4474 -102.7514,24.3068 -29.0676,1.5204 -58.1762,2.2573 -87.2835,2.2097"
       id="path3"
       transform="matrix(1.3800408,0,0,-1.3808184,-376.12134,6733.5866)"
       inkscape:original-d="m 3903.2336,2870.5298 c 71.4472,-58.189 143.6311,-116.378 215.4466,-174.567 71.8155,-58.189 18.4142,-58.189 27.6213,-87.2835 9.2072,-29.0945 73.657,44.9308 110.4855,67.3961 36.8285,22.4654 -34.6188,117.1146 -51.9282,175.6719 -17.3093,58.5573 -68.5009,16.2045 -102.7514,24.3068 -34.2505,8.1022 -58.189,1.4731 -87.2835,2.2097"
       inkscape:path-effect="#path-effect3" /></g></svg>
