<?xml version="1.0" encoding="UTF-8" standalone="no"?>
<!-- Created with Inkscape (http://www.inkscape.org/) -->

<svg
   width="5618.6689"
   height="2763.915"
   viewBox="0 0 1486.6061 731.28585"
   version="1.1"
   id="svg1"
   sodipodi:docname="AboutMe_SkillsTitleSVG.svg"
   xml:space="preserve"
   inkscape:version="1.3 (0e150ed6c4, 2023-07-21)"
   xmlns:inkscape="http://www.inkscape.org/namespaces/inkscape"
   xmlns:sodipodi="http://sodipodi.sourceforge.net/DTD/sodipodi-0.dtd"
   xmlns="http://www.w3.org/2000/svg"
   xmlns:svg="http://www.w3.org/2000/svg"><sodipodi:namedview
     id="namedview1"
     pagecolor="#505050"
     bordercolor="#000000"
     borderopacity="1"
     inkscape:showpageshadow="0"
     inkscape:pageopacity="0"
     inkscape:pagecheckerboard="0"
     inkscape:deskcolor="#747474"
     inkscape:document-units="mm"
     inkscape:zoom="0.11313709"
     inkscape:cx="2112.4814"
     inkscape:cy="861.78635"
     inkscape:window-width="1920"
     inkscape:window-height="1009"
     inkscape:window-x="-8"
     inkscape:window-y="-8"
     inkscape:window-maximized="1"
     inkscape:current-layer="layer1" /><defs
     id="defs1"><inkscape:path-effect
       effect="spiro"
       id="path-effect12"
       is_visible="true"
       lpeversion="1" /><inkscape:path-effect
       effect="spiro"
       id="path-effect9"
       is_visible="true"
       lpeversion="1" /><inkscape:path-effect
       effect="spiro"
       id="path-effect8"
       is_visible="true"
       lpeversion="1" /><inkscape:path-effect
       effect="spiro"
       id="path-effect6"
       is_visible="true"
       lpeversion="1" /><inkscape:path-effect
       effect="spiro"
       id="path-effect4"
       is_visible="true"
       lpeversion="1" /><inkscape:path-effect
       effect="bend_path"
       id="path-effect22"
       is_visible="true"
       lpeversion="1"
       bendpath="m 3765.0195,3946.8817 c 820.9443,-531.3867 662.6058,529.0304 1344.6224,-125.8466"
       prop_scale="1"
       scale_y_rel="false"
       vertical="false"
       hide_knot="false"
       bendpath-nodetypes="cc" /><inkscape:path-effect
       effect="bend_path"
       id="path-effect11"
       is_visible="true"
       lpeversion="1"
       bendpath="m 3765.0195,3946.8817 c 820.9443,-531.3867 662.6058,529.0304 1344.6224,-125.8466"
       prop_scale="1"
       scale_y_rel="false"
       vertical="false"
       hide_knot="false"
       bendpath-nodetypes="cc" /><filter
       inkscape:collect="always"
       style="color-interpolation-filters:sRGB"
       id="filter1"
       x="-0.055541524"
       y="-0.2357287"
       width="1.111083"
       height="1.4714689"><feGaussianBlur
         inkscape:collect="always"
         stdDeviation="20.448579"
         id="feGaussianBlur1" /></filter><filter
       inkscape:collect="always"
       style="color-interpolation-filters:sRGB"
       id="filter2"
       x="-0.038554546"
       y="-0.16550513"
       width="1.0771091"
       height="1.3309968"><feGaussianBlur
         inkscape:collect="always"
         stdDeviation="14.053702"
         id="feGaussianBlur2" /></filter><filter
       inkscape:collect="always"
       style="color-interpolation-filters:sRGB"
       id="filter3"
       x="-0.051042043"
       y="-0.23187639"
       width="1.1020841"
       height="1.4637341"><feGaussianBlur
         inkscape:collect="always"
         stdDeviation="15.055248"
         id="feGaussianBlur3" /></filter><filter
       inkscape:collect="always"
       style="color-interpolation-filters:sRGB"
       id="filter4"
       x="-0.270407"
       y="-0.6413081"
       width="1.540814"
       height="2.2826162"><feGaussianBlur
         inkscape:collect="always"
         stdDeviation="13.094471"
         id="feGaussianBlur4" /></filter><filter
       inkscape:collect="always"
       style="color-interpolation-filters:sRGB"
       id="filter9"
       x="-0.28687842"
       y="-0.35975282"
       width="1.5737568"
       height="1.7195056"><feGaussianBlur
         inkscape:collect="always"
         stdDeviation="14.75571"
         id="feGaussianBlur9" /></filter></defs><g
     inkscape:label="Слой 1"
     inkscape:groupmode="layer"
     id="layer1"
     transform="translate(-3871.3267,-3611.8238)"><path
       style="fill:none;stroke:#dbe6e3;stroke-width:132.292;stroke-linecap:round;stroke-linejoin:miter;stroke-dasharray:none;stroke-opacity:1"
       d="m 5213.0318,4254.1659 c 0,0 -104.4422,-205.3717 -202.9708,-216.9673 -104.7224,-12.3244 -158.3747,168.8699 -263.6896,174.1849 -158.424,7.9954 -262.6673,-215.1271 -421.1938,-220.7481 -87.1298,-3.0895 -173.6177,47.7867 -239.5632,104.625 -33.4758,28.8529 -70.2736,112.2728 -70.2736,112.2728"
       id="path3"
       sodipodi:nodetypes="caaaac" /><path
       style="fill:none;stroke:#c9d9d5;stroke-width:50;stroke-linecap:round;stroke-linejoin:miter;stroke-dasharray:none;stroke-opacity:1;filter:url(#filter3)"
       d="m 5213.0318,4254.1659 c 0,0 -104.4422,-205.3717 -202.9708,-216.9673 -104.7224,-12.3244 -158.3747,168.8699 -263.6896,174.1849 -158.424,7.9954 -262.6673,-215.1271 -421.1938,-220.7481 -87.1298,-3.0895 -173.6177,47.7867 -239.5632,104.625 -33.4758,28.8529 -70.2736,112.2728 -70.2736,112.2728"
       id="path60"
       sodipodi:nodetypes="caaaac" /><path
       style="mix-blend-mode:normal;fill:#9cb7b2;fill-opacity:1;stroke:none;stroke-width:0.264583px;stroke-linecap:butt;stroke-linejoin:miter;stroke-opacity:1;filter:url(#filter9)"
       d="m 5095.0245,4154.2196 c -4.3277,15.0078 -1.2798,32.0587 8.3568,44.3509 4.8183,6.1461 11.1746,11.0869 18.3454,14.1803 7.1709,3.0935 15.1435,4.3268 22.9072,3.4805 13.7472,-1.4986 25.915,-9.1939 38.8607,-14.056 5.6954,-2.1391 11.6043,-3.7481 17.092,-6.3747 5.4877,-2.6267 10.6532,-6.4388 13.5004,-11.8154 2.5378,-4.7923 3.0217,-10.5295 1.8579,-15.8259 -1.1637,-5.2965 -3.8951,-10.1676 -7.3865,-14.3169 -6.9829,-8.2985 -16.731,-13.6589 -25.8906,-19.4665 -8.2542,-5.2336 -16.3361,-11.0364 -25.6315,-14.056 -12.5005,-4.0608 -26.6503,-2.587 -38.1492,3.7791 -11.499,6.3662 -20.2208,17.4916 -23.8626,30.1206 z"
       id="path9"
       inkscape:path-effect="#path-effect12"
       inkscape:original-d="m 5095.0245,4154.2196 c -20.6705,11.2999 33.073,41.3411 49.6094,62.0117 16.5365,20.6706 25.9071,-9.3707 38.8607,-14.056 12.9535,-4.6853 20.395,-12.1267 30.5924,-18.1901 10.1975,-6.0634 -20.9461,-33.0729 -31.4192,-49.6093 -10.4731,-16.5365 -17.0877,-9.3707 -25.6315,-14.056 -8.5439,-4.6854 -41.3412,22.5998 -62.0118,33.8997 z"
       transform="rotate(-5.9481477,5035.0091,4141.8679)" /><path
       style="mix-blend-mode:normal;fill:#9cb7b2;fill-opacity:1;stroke:none;stroke-width:0.264583px;stroke-linecap:butt;stroke-linejoin:miter;stroke-opacity:1;filter:url(#filter9)"
       d="m 5095.0245,4154.2196 c -4.3277,15.0078 -1.2798,32.0587 8.3568,44.3509 4.8183,6.1461 11.1746,11.0869 18.3454,14.1803 7.1709,3.0935 15.1435,4.3268 22.9072,3.4805 13.7472,-1.4986 25.915,-9.1939 38.8607,-14.056 5.6954,-2.1391 11.6043,-3.7481 17.092,-6.3747 5.4877,-2.6267 10.6532,-6.4388 13.5004,-11.8154 2.5378,-4.7923 3.0217,-10.5295 1.8579,-15.8259 -1.1637,-5.2965 -3.8951,-10.1676 -7.3865,-14.3169 -6.9829,-8.2985 -16.731,-13.6589 -25.8906,-19.4665 -8.2542,-5.2336 -16.3361,-11.0364 -25.6315,-14.056 -12.5005,-4.0608 -26.6503,-2.587 -38.1492,3.7791 -11.499,6.3662 -20.2208,17.4916 -23.8626,30.1206 z"
       id="path8"
       inkscape:path-effect="#path-effect9"
       inkscape:original-d="m 5095.0245,4154.2196 c -20.6705,11.2999 33.073,41.3411 49.6094,62.0117 16.5365,20.6706 25.9071,-9.3707 38.8607,-14.056 12.9535,-4.6853 20.395,-12.1267 30.5924,-18.1901 10.1975,-6.0634 -20.9461,-33.0729 -31.4192,-49.6093 -10.4731,-16.5365 -17.0877,-9.3707 -25.6315,-14.056 -8.5439,-4.6854 -41.3412,22.5998 -62.0118,33.8997 z"
       transform="rotate(-170.56883,4603.432,4197.7296)" /><path
       style="fill:none;stroke:#b2c7c3;stroke-width:125;stroke-linecap:round;stroke-linejoin:miter;stroke-dasharray:none;stroke-opacity:1"
       d="m 5216.0341,3990.4957 c 0,0 -95.0752,222.5464 -196.8717,238.0494 -99.9214,15.2174 -152.5805,-160.4938 -254.0422,-165.5453 -152.6278,-7.5987 -253.0572,204.4569 -405.7839,209.7991 -83.942,2.9363 -166.2564,-46.0355 -230.7985,-99.4357 -50.9315,-42.1392 -111.1851,-164.2118 -111.1851,-164.2118"
       id="path1"
       sodipodi:nodetypes="caaaac" /><path
       style="fill:none;stroke:#d3dfda;stroke-width:35;stroke-linecap:round;stroke-linejoin:miter;stroke-dasharray:none;stroke-opacity:1;filter:url(#filter1)"
       d="m 5216.0341,3990.4957 c 0,0 -95.0752,222.5464 -196.8717,238.0494 -99.9214,15.2174 -152.5805,-160.4938 -254.0422,-165.5453 -152.6278,-7.5987 -253.0572,204.4569 -405.7839,209.7991 -83.942,2.9363 -166.2564,-46.0355 -230.7985,-99.4357 -50.9315,-42.1392 -111.1851,-164.2118 -111.1851,-164.2118"
       id="path58"
       sodipodi:nodetypes="caaaac" /><path
       d="m 3926.855,3675.1825 c -0.1612,-0.4253 -0.6114,-0.2553 -1.0613,-0.085 -15.5975,5.9056 -30.8523,12.1362 -45.7677,18.6383 0,0 -10e-5,-1e-4 -0.4301,0.1876 0.1823,0.4168 -0.2474,0.6046 -0.2474,0.6046 0.1826,0.4167 0.1826,0.4167 0.1826,0.4167 2.7592,47.7917 7.7721,95.0486 14.4847,141.7473 6.3254,44.0139 14.1462,87.5463 23.2335,130.6391 -63.0491,-65.1858 -131.0399,-126.7821 -202.1244,-185.5466 -0.6117,-0.1593 -0.8494,-0.5473 -1.2238,-0.3182 -6.6156,4.0479 -13.1796,8.1278 -19.6931,12.2363 -6.3906,4.0311 -12.7326,8.0897 -19.0269,12.1726 0,0 -10e-5,0 -0.3631,0.2356 0.2471,0.3819 0.2471,0.3819 0.2471,0.3819 -0.242,0.1571 -0.4839,0.3142 -0.7258,0.4713 l 0.2473,0.3818 180.4722,278.7844 c 0.4944,0.7637 1.3485,0.7546 1.6515,0.5596 0.6064,-0.3904 0.9664,-1.1626 0.4731,-1.9272 L 3681.5675,3812.579 c 89.0601,70.9741 174.2895,145.8442 252.2025,226.0381 0,0 0.6047,-0.3364 1.046,0.4594 0.2206,0.3978 0.2206,0.3978 0.2206,0.3978 0.3019,-0.1678 0.302,-0.1677 0.302,-0.1677 0,0 -1e-4,-10e-5 0.302,-0.1677 0.1007,-0.056 0.2013,-0.1117 0.302,-0.1675 -0.3302,-0.5968 0.2743,-0.9324 -0.056,-1.5291 -5.3913,-22.1458 -10.4727,-44.4042 -15.2125,-66.7811 -8.8225,-41.5611 -16.4678,-83.5307 -22.7323,-125.9464 -6.9231,-46.8684 -12.1501,-94.2986 -15.1242,-142.2674 l 130.0044,296.767 0.3652,0.8336 c 0.48,0.2862 0.4795,0.2863 0.7767,0.1559 10.2974,-4.5168 20.5004,-8.7353 30.6123,-12.6018 0.2917,-0.1115 0.5833,-0.2226 0.4221,-0.6479 0.087,-0.3577 0.1744,-0.7154 0.262,-1.0731 l -117.3441,-310.6126 c -0.3537,-0.029 -0.7075,-0.058 -1.0613,-0.086 z m 244.5605,-50.3384 c -0.5603,0 -1.1212,0.01 -1.6694,0.9249 -16.5837,38.4351 -29.545,77.6192 -39.2579,117.026 -6.5157,26.5165 -11.5811,53.1031 -15.3584,79.6952 -28.6205,-60.3718 -65.1094,-118.3241 -106.7853,-173.4021 -0.6058,-0.3079 -0.7252,-0.7473 -1.213,-0.6152 -8.6415,2.3393 -17.1613,4.8209 -25.556,7.4334 -8.1805,2.5331 -16.2747,5.1625 -24.2831,7.8816 0,0 -0.4637,0.1569 -1.2418,0.9031 0.1467,0.4305 0.1467,0.4305 0.4401,1.2915 15.7931,18.6882 31.0302,37.7001 45.6376,57.0482 27.2021,35.9811 52.2723,73.2202 74.4291,111.5848 0,0 0,0 0.1042,0.443 l 30.9341,131.5588 c 0,0 0.2085,0.8858 0.4806,0.821 0.1039,0.443 0.3757,0.3784 0.3757,0.3784 9.5129,-2.2573 18.7869,-4.1134 27.7974,-5.4806 0,0 0.2573,-0.039 0.1898,-0.4886 0.5149,-0.078 0.3815,-0.9769 0.3815,-0.9769 l -19.8416,-133.5993 c -0.067,-0.4498 -0.067,-0.4498 -0.067,-0.4498 3.584,-25.2602 8.3346,-50.514 14.3912,-75.7058 10.1097,-41.9393 23.8938,-83.6388 41.8049,-124.4619 -0.01,-0.91 -0.01,-1.3674 -1.6929,-1.8097 z m 223.3857,337.0585 0.2736,-0.3634 c 14.6098,-19.5975 21.3051,-38.2957 23.1161,-55.344 2.1371,-20.1273 -2.6127,-37.297 -8.4623,-49.8794 -5.7964,-12.4678 -12.4648,-19.9687 -13.1592,-20.7717 -3.344,-5.9205 -6.2218,-11.928 -8.6605,-17.9525 -12.6099,-31.1173 -14.2065,-64.2989 -3.4645,-86.9816 9.6948,-20.4713 28.8565,-33.5056 55.6151,-28.7619 4.2824,0.9783 8.6038,2.2778 12.4384,3.7241 1.9167,0.7214 3.697,1.4713 5.2706,2.2239 7.8444,3.0481 12.6166,6.0077 12.6166,6.0077 33.3819,20.506 41.4978,45.4779 40.573,65.5457 -0.1589,3.4718 -0.586,6.8414 -1.2121,10.0752 -2.1023,10.2985 -5.7717,19.5446 -9.6367,26.8497 0.4615,-5.6625 -0.9966,-11.3347 -4.4326,-16.0299 0,0 0,0 0,0 -1.4376,-1.9686 -3.2202,-3.7602 -5.3461,-5.2959 -10.7953,-7.7983 -26.6585,-4.7941 -34.3363,6.4911 -7.6778,11.2853 -5.191,26.7045 5.0776,34.1142 2.0023,1.4449 4.1824,2.4972 6.4582,3.1771 0,0 0,0 0,0 9.3525,2.7874 20.5121,-0.7261 27.1123,-9.4963 1.1911,-1.5828 13.6536,-18.0016 17.6949,-39.5893 0.7432,-4.3787 1.1823,-8.9864 1.1454,-13.748 -0.1475,-20.0444 -8.8571,-44.2631 -41.6691,-64.419 -1.3755,-0.8449 -3.003,-1.8391 -4.8365,-2.9478 -4.2734,-2.4102 -8.4949,-4.4524 -12.6348,-6.1572 0,0 0,0 0,0 -21.2989,-8.7854 -39.9955,-8.1899 -54.7103,-3.8334 -19.6743,5.0634 -36.8797,17.7537 -48.0216,43.3907 -0.5221,1.2607 -0.6962,1.6809 -0.6962,1.6809 0,0 -0.174,0.4202 -0.348,0.8404 -10.6499,27.0458 -9.3296,51.9848 -5.0985,70.7938 4.3121,19.1687 12.2184,34.611 18.1978,44.3923 4.6828,7.6575 8.4398,12.2125 8.7838,12.8687 9.2809,17.7045 11.7193,36.6244 9.7049,53.8377 -2.0211,17.2713 -8.5059,32.975 -17.2976,45.1317 -13.3838,18.5067 -31.2927,29.4298 -48.0748,28.0113 -4.5725,-0.3365 -8.0326,-0.9799 -10.7454,-2.1857 -5.1459,-1.699 -7.7796,-3.287 -7.7796,-3.287 -3.2911,-2.0216 -6.0353,-4.175 -8.3405,-6.4703 -12.3941,-12.3742 -12.9547,-31.5595 -10.8343,-49.5538 1.1129,-10.0562 3.8376,-20.092 5.5895,-27.3437 0.1122,7.4441 3.1001,13.7575 7.896,16.0576 8.0664,3.8686 20.2103,-2.4751 26.6712,-14.5001 6.461,-12.025 4.178,-26.2186 -5.1284,-30.6687 -9.3063,-4.45 -21.4973,2.8481 -26.7183,15.4546 0,0 -7.5868,19.414 -10.202,41.1515 -2.3686,18.75 -1.4411,39.0795 11.3549,51.781 2.309,2.2857 5.0375,4.4234 8.2835,6.4173 0.478,0.2937 0.478,0.2942 0.478,0.2942 0.7545,0.4652 1.6398,1.0149 2.6412,1.6443 13.9818,7.712 30.1064,6.4505 44.1128,1.9538 2.4258,-0.8235 4.9076,-1.759 7.433,-2.8382 0,0 0,0 0,0 13.3843,-5.7082 28.2842,-15.5284 42.7607,-34.7647 0.2736,-0.3635 0.2736,-0.3635 0.5471,-0.727 z m 160.1538,-10.8392 c 2.8445,-1.5019 5.6788,-3.0159 8.5018,-4.543 43.2549,-23.412 83.7633,-49.92 115.9042,-83.0635 0.6504,-1.2001 0.8668,-1.5999 0.8885,-2.1021 -0.3905,-0.205 -0.7847,-0.4149 -1.0034,-0.016 -31.5124,32.1805 -70.8675,58.156 -112.8955,81.1742 -4.1156,2.2526 -8.2558,4.4771 -12.4174,6.6765 -12.7085,6.6657 -25.6171,13.0975 -38.6364,19.3865 -21.3684,10.4156 -43.0354,20.448 -64.6085,30.4965 l 150.9457,-192.1104 c 0,0 0.2811,-0.3577 -0.02,-0.5943 0.2811,-0.3577 -0.02,-0.5945 -0.02,-0.5945 -2.8533,-2.2403 -5.7532,-4.5196 -8.702,-6.8346 -7.9358,-6.2676 -16.1677,-12.7563 -24.7355,-19.4123 0,0 -0.3355,-0.2606 -0.6148,0.099 -0.6718,-0.5218 -0.9512,-0.1625 -0.9512,-0.1625 l -203.7692,262.25 c -0.5583,0.7185 -0.5583,0.7185 -0.5583,0.7185 0,0 -1e-4,-2e-4 0.5811,0.4523 -0.2793,0.3591 -0.2793,0.3591 -0.2793,0.3591 0.2908,0.2265 0.2908,0.2265 0.2908,0.2265 7.4333,5.7901 15.1238,11.8506 23.1112,18.1275 2.9443,2.3277 5.938,4.6912 8.9834,7.0873 0,0 0.3223,0.2535 0.6034,-0.1042 0.3227,0.2538 0.8849,-0.4617 0.8849,-0.4617 l 51.1585,-65.11 c 19.2363,-8.7989 38.5595,-17.5767 57.6886,-26.6207 -7.9954,26.6352 -15.4571,53.5472 -21.8888,81.0112 -5.1256,21.8626 -9.5431,44.0735 -12.8981,66.7319 0.4244,0.2841 0.1705,0.6608 0.5949,0.9449 14.8789,9.9282 31.0215,19.8544 48.531,29.5318 0,0 1.001,0.5532 1.7209,0.4289 0.4335,-0.8 0.4335,-0.8 0.6503,-1.1999 0.096,-67.3493 12.7963,-130.1973 29.6137,-190.9066 1.0981,-3.9634 2.214,-7.9183 3.3463,-11.8656 z m 151.9274,-77.9639 c 0.1185,-0.4391 0,-0.4699 0,-0.4699 -0.2129,-0.058 -0.4255,-0.116 -0.6378,-0.1754 -4.0326,-0.9515 -8.7868,-2.8015 -14.2345,-5.3072 0,0 -0.1646,-0.076 -0.3504,0.3395 -0.3313,-0.1528 -0.5185,0.2615 -0.5185,0.2615 l -136.4633,302.8694 c 0,0 -0.3752,0.831 0.7428,1.3268 -0.186,0.4156 0.3742,0.6632 0.3742,0.6632 18.5728,8.2058 38.5115,15.5192 59.7882,21.6971 1.2112,0.3416 2.424,0.6775 3.6383,1.0077 0,0 0.6515,0.1769 0.7702,-0.2626 0.6514,0.1759 0.8869,-0.7036 0.8869,-0.7036 l 85.9969,-320.7763 c 0,0 0.1176,-0.4393 0,-0.4702 z m 29.6929,333.3918 -9.709,-330.4825 c 0,0 -0.014,-0.4544 -0.1333,-0.4552 -0.013,-0.4545 -0.1314,-0.4556 -0.1314,-0.4556 -0.3676,-0 -0.729,-0.013 -1.0839,-0.028 -3.4626,0.074 -7.1139,-0.1971 -10.7951,-0.7714 0,0 -0.1154,-0.018 -0.185,0.4314 -0.2321,-0.037 -0.3034,0.4123 -0.3034,0.4123 l -51.8758,328.0104 c 0,0 0,0 -0.1421,0.8987 0.4213,0.2199 0.8433,0.4392 1.266,0.6577 0.6687,0.1032 0.6688,0.1026 0.6688,0.1026 21.3385,3.254 43.0113,4.8063 64.8596,4.6157 2.1059,-0.041 4.2048,-0.095 6.2967,-0.1629 41.2971,-1.3401 79.8297,-7.9517 114.917,-18.6968 14.4001,-4.404 28.2916,-9.2247 41.6765,-14.3951 0.5262,-0.2032 0.8854,-0.8305 0.5536,-1.6773 -0.3317,-0.8467 -1.0201,-1.0672 -1.5437,-0.8649 -13.3199,5.1457 -27.1403,9.9416 -41.4633,14.3206 -34.5146,10.5662 -72.3583,17.1134 -112.8722,18.5404 z m 238.1147,-72.9404 -162.6891,-287.9071 c 0,0 -0.2238,-0.3958 -0.4766,-0.2551 -0.2235,-0.396 -0.4761,-0.2556 -0.4761,-0.2556 -0.8214,0.4565 -1.6422,0.9085 -2.4625,1.3561 -8.0152,4.2886 -15.6605,8.2212 -22.9398,11.6673 0,0 -0.2292,0.1085 -0.038,0.5213 -0.4582,0.2165 -0.2678,0.6294 -0.2678,0.6294 l 139.0894,301.6943 c 0,0 0,0 0.3811,0.8266 0.3914,-0.012 0.7828,-0.024 1.174,-0.037 0.4912,-0.2253 0.4911,-0.2255 0.4911,-0.2255 15.5799,-7.1642 30.3737,-14.78 44.3852,-22.7174 1.4363,-0.805 2.8679,-1.6126 4.2948,-2.4228 38.0236,-21.5882 72.7402,-44.9945 104.564,-69.0753 0.3671,-0.2778 0.4596,-0.9189 -0.089,-1.6452 -0.5485,-0.7262 -1.1888,-0.812 -1.5551,-0.5348 -31.5083,23.841 -65.8353,47.007 -103.3857,68.3807 z m 192.3907,-252.5659 -0.315,-0.3281 c -28.3891,-29.2718 -59.4661,-35.8022 -83.0227,-35.341 -23.6949,0.4639 -40.8275,7.9908 -42.1164,8.5416 -39.9213,8.0069 -75.8308,-9.4464 -94.848,-32.6756 -14.3879,-17.5746 -20.414,-37.9363 -13.2814,-55.3288 2.0163,-4.118 4.5863,-8.156 6.9388,-10.814 3.3518,-4.7397 6.2629,-7.3288 6.2629,-7.3288 23.8279,-21.1162 49.5344,-18.3425 69.7236,-9.0832 9.2931,4.3637 17.5215,9.6941 24.0122,14.8296 -7.4575,-2.313 -15.2202,-1.2035 -20.6816,3.9251 -8.1921,7.693 -7.3572,22.3563 1.8716,32.4141 9.2288,10.0577 23.9885,11.9634 32.4043,4.0576 8.4157,-7.9059 7.5006,-22.8027 -1.9517,-32.6475 -1.6755,-1.7451 -15.3648,-15.9436 -35.2441,-24.851 -20.9164,-8.9942 -47.3427,-12.4907 -71.9427,9.3105 -0.8325,0.7378 -1.8129,1.6048 -2.9102,2.5718 -14.6915,14.1536 -18.3874,30.1732 -17.6766,45.4919 0.1801,16.1523 5.6542,35.8891 22.5019,57.7843 0.8465,1.0704 1.1287,1.4273 1.1287,1.4273 0,0 0.2822,0.3568 0.5643,0.7135 26.0275,32.0127 54.8733,41.2118 78.9847,41.7596 23.6897,0.5383 41.1363,-7.4269 42.493,-7.7152 40.5699,-8.6225 78.6731,4.4254 99.3181,26.357 15.5671,16.5371 22.0344,37.491 12.1479,57.6081 -2.6335,5.4786 -5.2868,9.7127 -8.2354,12.9665 -4.9504,6.2721 -8.5869,9.4674 -8.5869,9.4674 -29.8552,26.3642 -57.8905,22.8069 -78.3886,13.2635 -9.7209,-4.4108 -17.9598,-11.2699 -23.8183,-15.8846 7.6104,2.6702 16.5123,1.3449 22.5188,-3.5817 9.9863,-8.1909 10.7759,-23.7941 1.9474,-34.2002 -8.8284,-10.4061 -24.0563,-12.3782 -33.6791,-4.4853 -9.6228,7.8929 -10.7407,23.2603 -2.2757,33.9644 0,0 12.8975,16.5367 33.8345,26.5413 21.0738,10.2868 51.0742,13.4445 81.6694,-13.5727 0.6597,-0.5825 0.6595,-0.5827 0.6595,-0.5827 1.039,-0.9184 2.2557,-1.9962 3.6185,-3.2078 17.7886,-17.0339 22.9576,-36.2878 22.9137,-52.4547 -0.3607,-17.8666 -6.0232,-37.544 -25.9092,-58.2558 -0.3151,-0.3282 -0.3151,-0.3282 -0.6302,-0.6564 z"
       id="path10"
       style="font-size:454.933px;line-height:1;font-family:Vanity;-inkscape-font-specification:Vanity;fill:#dbe6e3;fill-opacity:1;stroke-width:0.413161"
       aria-label="MY SKILLS"
       transform="matrix(-0.64356061,0,0,-0.63722769,7446.8878,7102.4354)"
       inkscape:original-d="m 4059.8955,3791.7242 c 0,-0.4549 -0.4549,-0.4549 -0.9098,-0.4549 h -47.3131 c 0,0 0,0 -0.4549,0 0,0.4549 -0.4549,0.4549 -0.4549,0.4549 0,0.4549 0,0.4549 0,0.4549 l -94.1712,261.5865 -93.2612,-261.5865 c -0.455,-0.4549 -0.455,-0.9098 -0.9099,-0.9098 h -24.1114 -23.6566 c 0,0 0,0 -0.4549,0 0,0.4549 0,0.4549 0,0.4549 h -0.9099 v 0.4549 332.1011 c 0,0.9099 0.9099,1.3648 1.3648,1.3648 0.9099,0 1.8198,-0.4549 1.8198,-1.3648 v -323.9123 l 115.098,323.9123 c 0,0 0.9099,0 0.9099,0.9099 0,0.4549 0,0.4549 0,0.4549 0.4549,0 0.4549,0 0.4549,0 0,0 0,0 0.455,0 h 0.4549 c 0,-0.4549 0.9099,-0.4549 0.9099,-1.3648 l 23.6565,-65.9653 92.3514,-257.947 v 323.9123 0.9099 c 0.4549,0.4549 0.4549,0.4549 0.9098,0.4549 h 47.3131 c 0.4549,0 0.9098,0 0.9098,-0.4549 l 0.9099,-0.9099 v -332.1011 z m 220.1877,-0.4549 c -0.4549,0 -0.9098,0 -1.3648,0.9098 l -69.6047,191.9818 -70.0597,-191.9818 c -0.4549,-0.4549 -0.4549,-0.9098 -0.9099,-0.9098 h -47.7679 c 0,0 -0.455,0 -1.3648,0.4549 0,0.4549 0,0.4549 0,1.3648 l 71.4245,195.6212 c 0,0 0,0 0,0.4549 v 135.1151 c 0,0 0,0.9099 0.4549,0.9099 0,0.4549 0.4549,0.4549 0.4549,0.4549 h 47.768 c 0,0 0.4549,0 0.4549,-0.4549 0.9099,0 0.9099,-0.9099 0.9099,-0.9099 v -135.1151 c 0,-0.4549 0,-0.4549 0,-0.4549 l 70.9695,-195.6212 c 0,-0.9099 0,-1.3648 -1.3648,-1.8197 z m 340.2901,250.2131 v -0.4549 c -0.455,-81.888 -80.0682,-103.7247 -83.2528,-104.6346 -40.9439,-20.472 -61.4159,-56.4117 -61.4159,-86.4373 0,-22.7466 10.4634,-42.3088 32.3002,-50.9525 5.4592,-1.8197 11.3733,-3.1845 15.9227,-3.6394 7.2789,-1.3648 12.2832,-1.3648 12.2832,-1.3648 40.9439,0 61.8709,20.017 71.8794,40.489 4.5493,9.5536 7.2789,19.1072 8.6437,27.296 -4.5493,-6.824 -12.2832,-11.3734 -21.3818,-11.3734 -13.648,0 -25.0214,11.3734 -25.0214,25.0214 0,13.648 11.3734,25.0213 25.0214,25.0213 13.6479,0 25.0213,-11.3733 25.0213,-25.0213 0,-2.2747 0,-22.2918 -10.0086,-42.3088 -10.9184,-20.9269 -31.8453,-41.8538 -74.154,-41.8538 -1.3648,0 -3.1846,0 -5.0043,0 -26.3861,0.9098 -43.6736,10.9183 -55.5018,23.2015 -13.1931,12.7382 -23.2016,31.3904 -23.6565,59.1413 0,1.3648 0,1.8198 0,1.8198 0,0 0,0.4549 0,0.9098 1.3648,81.888 80.978,102.8149 83.7076,104.1797 40.944,20.472 61.416,56.4117 61.416,86.4373 0,22.7466 -10.4635,42.3087 -32.3003,50.4975 -5.9141,2.2747 -10.9184,3.6395 -15.4677,4.0944 -8.1888,1.3648 -13.193,1.3648 -13.193,1.3648 -40.944,0 -60.5061,-20.017 -70.9696,-40.489 -5.0043,-9.5536 -7.2789,-20.0171 -9.0987,-27.296 4.5494,6.824 12.7382,11.3733 20.927,11.3733 13.648,0 25.0213,-11.3733 25.0213,-25.0213 0,-13.648 -11.3733,-25.0213 -25.0213,-25.0213 -13.648,0 -25.0213,11.3733 -25.0213,25.0213 0,0 0,20.9269 10.4634,41.8538 10.4635,21.3819 31.8453,42.3088 73.6992,42.3088 0.9098,0 0.9098,0 0.9098,0 1.3648,0 3.1846,0 5.0043,0 25.4762,-0.9098 43.2186,-11.3733 55.0469,-23.2016 12.7381,-13.193 23.2016,-31.3903 23.2016,-60.0511 0,-0.455 0,-0.455 0,-0.9099 z m 139.6647,-106.4543 81.433,-141.4842 c 0,-1.3648 0,-1.8197 -0.4549,-2.2746 -0.9099,0 -1.8198,0 -1.8198,0.4549 l -81.433,142.394 -22.2917,38.6693 -36.3946,63.6906 v -244.299 c 0,0 0,-0.4549 -0.455,-0.4549 0,-0.4549 -0.4549,-0.4549 -0.4549,-0.4549 h -47.768 c 0,0 -0.4549,0 -0.4549,0.4549 -0.9099,0 -0.9099,0.4549 -0.9099,0.4549 v 332.1011 c 0,0.9099 0,0.9099 0,0.9099 0,0 0,0 0.9099,0 0,0.4549 0,0.4549 0,0.4549 0.4549,0 0.4549,0 0.4549,0 h 47.768 c 0,0 0.4549,0 0.4549,-0.4549 0.455,0 0.455,-0.9099 0.455,-0.9099 v -82.7978 l 32.7551,-56.4117 59.5963,140.1194 c 0.4549,0 0.4549,0.4549 0.9098,0.4549 h 47.768 c 0,0 0.9099,0 1.3648,-0.4549 0,-0.9099 0,-0.9099 0,-1.3648 z m 159.2268,-143.3039 c 0,-0.4549 -0.4549,-0.4549 -0.4549,-0.4549 h -47.768 c 0,0 -0.4549,0 -0.4549,0.4549 -0.9099,0 -0.9099,0.4549 -0.9099,0.4549 v 332.1011 c 0,0 0,0.9099 0.9099,0.9099 0,0.4549 0.4549,0.4549 0.4549,0.4549 h 47.768 c 0,0 0.4549,0 0.4549,-0.4549 0.455,0 0.455,-0.9099 0.455,-0.9099 v -332.1011 c 0,0 0,-0.4549 -0.455,-0.4549 z m 79.1585,331.1912 v -330.7363 c 0,0 0,-0.4549 -0.455,-0.4549 0,-0.4549 -0.4549,-0.4549 -0.4549,-0.4549 h -47.768 c 0,0 -0.4549,0 -0.4549,0.4549 -0.9099,0 -0.9099,0.4549 -0.9099,0.4549 v 332.1011 c 0,0 0,0 0,0.9099 l 0.9099,0.4549 c 0.4549,0 0.4549,0 0.4549,0 h 47.768 118.2826 c 0.4549,0 0.9098,-0.4549 0.9098,-1.3648 0,-0.9098 -0.4549,-1.3648 -0.9098,-1.3648 z m 196.9863,0 v -330.7363 c 0,0 0,-0.4549 -0.4549,-0.4549 0,-0.4549 -0.455,-0.4549 -0.455,-0.4549 h -47.7679 c 0,0 -0.455,0 -0.455,0.4549 -0.9098,0 -0.9098,0.4549 -0.9098,0.4549 v 332.1011 c 0,0 0,0 0,0.9099 l 0.9098,0.4549 c 0.455,0 0.455,0 0.455,0 h 47.7679 118.2826 c 0.4549,0 0.9099,-0.4549 0.9099,-1.3648 0,-0.9098 -0.455,-1.3648 -0.9099,-1.3648 z m 315.2688,-81.433 v -0.4549 c -0.455,-81.888 -80.0682,-103.7247 -83.2528,-104.6346 -40.9439,-20.472 -61.4159,-56.4117 -61.4159,-86.4373 0,-22.7466 10.4634,-42.3088 32.3002,-50.9525 5.4592,-1.8197 11.3734,-3.1845 15.9227,-3.6394 7.2789,-1.3648 12.2832,-1.3648 12.2832,-1.3648 40.9439,0 61.8709,20.017 71.8794,40.489 4.5493,9.5536 7.2789,19.1072 8.6437,27.296 -4.5493,-6.824 -12.2832,-11.3734 -21.3818,-11.3734 -13.648,0 -25.0213,11.3734 -25.0213,25.0214 0,13.648 11.3733,25.0213 25.0213,25.0213 13.648,0 25.0213,-11.3733 25.0213,-25.0213 0,-2.2747 0,-22.2918 -10.0085,-42.3088 -10.9184,-20.9269 -31.8454,-41.8538 -74.1541,-41.8538 -1.3648,0 -3.1846,0 -5.0043,0 -26.3861,0.9098 -43.6736,10.9183 -55.5018,23.2015 -13.1931,12.7382 -23.2016,31.3904 -23.6565,59.1413 0,1.3648 0,1.8198 0,1.8198 0,0 0,0.4549 0,0.9098 1.3648,81.888 80.978,102.8149 83.7076,104.1797 40.944,20.472 61.416,56.4117 61.416,86.4373 0,22.7466 -10.4635,42.3087 -32.3002,50.4975 -5.9142,2.2747 -10.9184,3.6395 -15.4678,4.0944 -8.1888,1.3648 -13.193,1.3648 -13.193,1.3648 -40.944,0 -60.5061,-20.017 -70.9696,-40.489 -5.0042,-9.5536 -7.2789,-20.0171 -9.0986,-27.296 4.5493,6.824 12.7381,11.3733 20.9269,11.3733 13.648,0 25.0213,-11.3733 25.0213,-25.0213 0,-13.648 -11.3733,-25.0213 -25.0213,-25.0213 -13.648,0 -25.0213,11.3733 -25.0213,25.0213 0,0 0,20.9269 10.4634,41.8538 10.4635,21.3819 31.8453,42.3088 73.6992,42.3088 0.9098,0 0.9098,0 0.9098,0 1.3648,0 3.1846,0 5.0043,0 25.4763,-0.9098 43.2186,-11.3733 55.0469,-23.2016 12.7381,-13.193 23.2016,-31.3903 23.2016,-60.0511 0,-0.455 0,-0.455 0,-0.9099 z"
       inkscape:path-effect="#path-effect11" /><path
       d="m 3926.855,3675.1825 c -0.1612,-0.4253 -0.6114,-0.2553 -1.0613,-0.085 -15.5975,5.9056 -30.8523,12.1362 -45.7677,18.6383 0,0 -10e-5,-1e-4 -0.4301,0.1876 0.1823,0.4168 -0.2474,0.6046 -0.2474,0.6046 0.1826,0.4167 0.1826,0.4167 0.1826,0.4167 2.7592,47.7917 7.7721,95.0486 14.4847,141.7473 6.3254,44.0139 14.1462,87.5463 23.2335,130.6391 -63.0491,-65.1858 -131.0399,-126.7821 -202.1244,-185.5466 -0.6117,-0.1593 -0.8494,-0.5473 -1.2238,-0.3182 -6.6156,4.0479 -13.1796,8.1278 -19.6931,12.2363 -6.3906,4.0311 -12.7326,8.0897 -19.0269,12.1726 0,0 -10e-5,0 -0.3631,0.2356 0.2471,0.3819 0.2471,0.3819 0.2471,0.3819 -0.242,0.1571 -0.4839,0.3142 -0.7258,0.4713 l 0.2473,0.3818 180.4722,278.7844 c 0.4944,0.7637 1.3485,0.7546 1.6515,0.5596 0.6064,-0.3904 0.9664,-1.1626 0.4731,-1.9272 L 3681.5675,3812.579 c 89.0601,70.9741 174.2895,145.8442 252.2025,226.0381 0,0 0.6047,-0.3364 1.046,0.4594 0.2206,0.3978 0.2206,0.3978 0.2206,0.3978 0.3019,-0.1678 0.302,-0.1677 0.302,-0.1677 0,0 -1e-4,-10e-5 0.302,-0.1677 0.1007,-0.056 0.2013,-0.1117 0.302,-0.1675 -0.3302,-0.5968 0.2743,-0.9324 -0.056,-1.5291 -5.3913,-22.1458 -10.4727,-44.4042 -15.2125,-66.7811 -8.8225,-41.5611 -16.4678,-83.5307 -22.7323,-125.9464 -6.9231,-46.8684 -12.1501,-94.2986 -15.1242,-142.2674 l 130.0044,296.767 0.3652,0.8336 c 0.48,0.2862 0.4795,0.2863 0.7767,0.1559 10.2974,-4.5168 20.5004,-8.7353 30.6123,-12.6018 0.2917,-0.1115 0.5833,-0.2226 0.4221,-0.6479 0.087,-0.3577 0.1744,-0.7154 0.262,-1.0731 l -117.3441,-310.6126 c -0.3537,-0.029 -0.7075,-0.058 -1.0613,-0.086 z m 244.5605,-50.3384 c -0.5603,0 -1.1212,0.01 -1.6694,0.9249 -16.5837,38.4351 -29.545,77.6192 -39.2579,117.026 -6.5157,26.5165 -11.5811,53.1031 -15.3584,79.6952 -28.6205,-60.3718 -65.1094,-118.3241 -106.7853,-173.4021 -0.6058,-0.3079 -0.7252,-0.7473 -1.213,-0.6152 -8.6415,2.3393 -17.1613,4.8209 -25.556,7.4334 -8.1805,2.5331 -16.2747,5.1625 -24.2831,7.8816 0,0 -0.4637,0.1569 -1.2418,0.9031 0.1467,0.4305 0.1467,0.4305 0.4401,1.2915 15.7931,18.6882 31.0302,37.7001 45.6376,57.0482 27.2021,35.9811 52.2723,73.2202 74.4291,111.5848 0,0 0,0 0.1042,0.443 l 30.9341,131.5588 c 0,0 0.2085,0.8858 0.4806,0.821 0.1039,0.443 0.3757,0.3784 0.3757,0.3784 9.5129,-2.2573 18.7869,-4.1134 27.7974,-5.4806 0,0 0.2573,-0.039 0.1898,-0.4886 0.5149,-0.078 0.3815,-0.9769 0.3815,-0.9769 l -19.8416,-133.5993 c -0.067,-0.4498 -0.067,-0.4498 -0.067,-0.4498 3.584,-25.2602 8.3346,-50.514 14.3912,-75.7058 10.1097,-41.9393 23.8938,-83.6388 41.8049,-124.4619 -0.01,-0.91 -0.01,-1.3674 -1.6929,-1.8097 z m 223.3857,337.0585 0.2736,-0.3634 c 14.6098,-19.5975 21.3051,-38.2957 23.1161,-55.344 2.1371,-20.1273 -2.6127,-37.297 -8.4623,-49.8794 -5.7964,-12.4678 -12.4648,-19.9687 -13.1592,-20.7717 -3.344,-5.9205 -6.2218,-11.928 -8.6605,-17.9525 -12.6099,-31.1173 -14.2065,-64.2989 -3.4645,-86.9816 9.6948,-20.4713 28.8565,-33.5056 55.6151,-28.7619 4.2824,0.9783 8.6038,2.2778 12.4384,3.7241 1.9167,0.7214 3.697,1.4713 5.2706,2.2239 7.8444,3.0481 12.6166,6.0077 12.6166,6.0077 33.3819,20.506 41.4978,45.4779 40.573,65.5457 -0.1589,3.4718 -0.586,6.8414 -1.2121,10.0752 -2.1023,10.2985 -5.7717,19.5446 -9.6367,26.8497 0.4615,-5.6625 -0.9966,-11.3347 -4.4326,-16.0299 0,0 0,0 0,0 -1.4376,-1.9686 -3.2202,-3.7602 -5.3461,-5.2959 -10.7953,-7.7983 -26.6585,-4.7941 -34.3363,6.4911 -7.6778,11.2853 -5.191,26.7045 5.0776,34.1142 2.0023,1.4449 4.1824,2.4972 6.4582,3.1771 0,0 0,0 0,0 9.3525,2.7874 20.5121,-0.7261 27.1123,-9.4963 1.1911,-1.5828 13.6536,-18.0016 17.6949,-39.5893 0.7432,-4.3787 1.1823,-8.9864 1.1454,-13.748 -0.1475,-20.0444 -8.8571,-44.2631 -41.6691,-64.419 -1.3755,-0.8449 -3.003,-1.8391 -4.8365,-2.9478 -4.2734,-2.4102 -8.4949,-4.4524 -12.6348,-6.1572 0,0 0,0 0,0 -21.2989,-8.7854 -39.9955,-8.1899 -54.7103,-3.8334 -19.6743,5.0634 -36.8797,17.7537 -48.0216,43.3907 -0.5221,1.2607 -0.6962,1.6809 -0.6962,1.6809 0,0 -0.174,0.4202 -0.348,0.8404 -10.6499,27.0458 -9.3296,51.9848 -5.0985,70.7938 4.3121,19.1687 12.2184,34.611 18.1978,44.3923 4.6828,7.6575 8.4398,12.2125 8.7838,12.8687 9.2809,17.7045 11.7193,36.6244 9.7049,53.8377 -2.0211,17.2713 -8.5059,32.975 -17.2976,45.1317 -13.3838,18.5067 -31.2927,29.4298 -48.0748,28.0113 -4.5725,-0.3365 -8.0326,-0.9799 -10.7454,-2.1857 -5.1459,-1.699 -7.7796,-3.287 -7.7796,-3.287 -3.2911,-2.0216 -6.0353,-4.175 -8.3405,-6.4703 -12.3941,-12.3742 -12.9547,-31.5595 -10.8343,-49.5538 1.1129,-10.0562 3.8376,-20.092 5.5895,-27.3437 0.1122,7.4441 3.1001,13.7575 7.896,16.0576 8.0664,3.8686 20.2103,-2.4751 26.6712,-14.5001 6.461,-12.025 4.178,-26.2186 -5.1284,-30.6687 -9.3063,-4.45 -21.4973,2.8481 -26.7183,15.4546 0,0 -7.5868,19.414 -10.202,41.1515 -2.3686,18.75 -1.4411,39.0795 11.3549,51.781 2.309,2.2857 5.0375,4.4234 8.2835,6.4173 0.478,0.2937 0.478,0.2942 0.478,0.2942 0.7545,0.4652 1.6398,1.0149 2.6412,1.6443 13.9818,7.712 30.1064,6.4505 44.1128,1.9538 2.4258,-0.8235 4.9076,-1.759 7.433,-2.8382 0,0 0,0 0,0 13.3843,-5.7082 28.2842,-15.5284 42.7607,-34.7647 0.2736,-0.3635 0.2736,-0.3635 0.5471,-0.727 z m 160.1538,-10.8392 c 2.8445,-1.5019 5.6788,-3.0159 8.5018,-4.543 43.2549,-23.412 83.7633,-49.92 115.9042,-83.0635 0.6504,-1.2001 0.8668,-1.5999 0.8885,-2.1021 -0.3905,-0.205 -0.7847,-0.4149 -1.0034,-0.016 -31.5124,32.1805 -70.8675,58.156 -112.8955,81.1742 -4.1156,2.2526 -8.2558,4.4771 -12.4174,6.6765 -12.7085,6.6657 -25.6171,13.0975 -38.6364,19.3865 -21.3684,10.4156 -43.0354,20.448 -64.6085,30.4965 l 150.9457,-192.1104 c 0,0 0.2811,-0.3577 -0.02,-0.5943 0.2811,-0.3577 -0.02,-0.5945 -0.02,-0.5945 -2.8533,-2.2403 -5.7532,-4.5196 -8.702,-6.8346 -7.9358,-6.2676 -16.1677,-12.7563 -24.7355,-19.4123 0,0 -0.3355,-0.2606 -0.6148,0.099 -0.6718,-0.5218 -0.9512,-0.1625 -0.9512,-0.1625 l -203.7692,262.25 c -0.5583,0.7185 -0.5583,0.7185 -0.5583,0.7185 0,0 -1e-4,-2e-4 0.5811,0.4523 -0.2793,0.3591 -0.2793,0.3591 -0.2793,0.3591 0.2908,0.2265 0.2908,0.2265 0.2908,0.2265 7.4333,5.7901 15.1238,11.8506 23.1112,18.1275 2.9443,2.3277 5.938,4.6912 8.9834,7.0873 0,0 0.3223,0.2535 0.6034,-0.1042 0.3227,0.2538 0.8849,-0.4617 0.8849,-0.4617 l 51.1585,-65.11 c 19.2363,-8.7989 38.5595,-17.5767 57.6886,-26.6207 -7.9954,26.6352 -15.4571,53.5472 -21.8888,81.0112 -5.1256,21.8626 -9.5431,44.0735 -12.8981,66.7319 0.4244,0.2841 0.1705,0.6608 0.5949,0.9449 14.8789,9.9282 31.0215,19.8544 48.531,29.5318 0,0 1.001,0.5532 1.7209,0.4289 0.4335,-0.8 0.4335,-0.8 0.6503,-1.1999 0.096,-67.3493 12.7963,-130.1973 29.6137,-190.9066 1.0981,-3.9634 2.214,-7.9183 3.3463,-11.8656 z m 151.9274,-77.9639 c 0.1185,-0.4391 0,-0.4699 0,-0.4699 -0.2129,-0.058 -0.4255,-0.116 -0.6378,-0.1754 -4.0326,-0.9515 -8.7868,-2.8015 -14.2345,-5.3072 0,0 -0.1646,-0.076 -0.3504,0.3395 -0.3313,-0.1528 -0.5185,0.2615 -0.5185,0.2615 l -136.4633,302.8694 c 0,0 -0.3752,0.831 0.7428,1.3268 -0.186,0.4156 0.3742,0.6632 0.3742,0.6632 18.5728,8.2058 38.5115,15.5192 59.7882,21.6971 1.2112,0.3416 2.424,0.6775 3.6383,1.0077 0,0 0.6515,0.1769 0.7702,-0.2626 0.6514,0.1759 0.8869,-0.7036 0.8869,-0.7036 l 85.9969,-320.7763 c 0,0 0.1176,-0.4393 0,-0.4702 z m 29.6929,333.3918 -9.709,-330.4825 c 0,0 -0.014,-0.4544 -0.1333,-0.4552 -0.013,-0.4545 -0.1314,-0.4556 -0.1314,-0.4556 -0.3676,-0 -0.729,-0.013 -1.0839,-0.028 -3.4626,0.074 -7.1139,-0.1971 -10.7951,-0.7714 0,0 -0.1154,-0.018 -0.185,0.4314 -0.2321,-0.037 -0.3034,0.4123 -0.3034,0.4123 l -51.8758,328.0104 c 0,0 0,0 -0.1421,0.8987 0.4213,0.2199 0.8433,0.4392 1.266,0.6577 0.6687,0.1032 0.6688,0.1026 0.6688,0.1026 21.3385,3.254 43.0113,4.8063 64.8596,4.6157 2.1059,-0.041 4.2048,-0.095 6.2967,-0.1629 41.2971,-1.3401 79.8297,-7.9517 114.917,-18.6968 14.4001,-4.404 28.2916,-9.2247 41.6765,-14.3951 0.5262,-0.2032 0.8854,-0.8305 0.5536,-1.6773 -0.3317,-0.8467 -1.0201,-1.0672 -1.5437,-0.8649 -13.3199,5.1457 -27.1403,9.9416 -41.4633,14.3206 -34.5146,10.5662 -72.3583,17.1134 -112.8722,18.5404 z m 238.1147,-72.9404 -162.6891,-287.9071 c 0,0 -0.2238,-0.3958 -0.4766,-0.2551 -0.2235,-0.396 -0.4761,-0.2556 -0.4761,-0.2556 -0.8214,0.4565 -1.6422,0.9085 -2.4625,1.3561 -8.0152,4.2886 -15.6605,8.2212 -22.9398,11.6673 0,0 -0.2292,0.1085 -0.038,0.5213 -0.4582,0.2165 -0.2678,0.6294 -0.2678,0.6294 l 139.0894,301.6943 c 0,0 0,0 0.3811,0.8266 0.3914,-0.012 0.7828,-0.024 1.174,-0.037 0.4912,-0.2253 0.4911,-0.2255 0.4911,-0.2255 15.5799,-7.1642 30.3737,-14.78 44.3852,-22.7174 1.4363,-0.805 2.8679,-1.6126 4.2948,-2.4228 38.0236,-21.5882 72.7402,-44.9945 104.564,-69.0753 0.3671,-0.2778 0.4596,-0.9189 -0.089,-1.6452 -0.5485,-0.7262 -1.1888,-0.812 -1.5551,-0.5348 -31.5083,23.841 -65.8353,47.007 -103.3857,68.3807 z m 192.3907,-252.5659 -0.315,-0.3281 c -28.3891,-29.2718 -59.4661,-35.8022 -83.0227,-35.341 -23.6949,0.4639 -40.8275,7.9908 -42.1164,8.5416 -39.9213,8.0069 -75.8308,-9.4464 -94.848,-32.6756 -14.3879,-17.5746 -20.414,-37.9363 -13.2814,-55.3288 2.0163,-4.118 4.5863,-8.156 6.9388,-10.814 3.3518,-4.7397 6.2629,-7.3288 6.2629,-7.3288 23.8279,-21.1162 49.5344,-18.3425 69.7236,-9.0832 9.2931,4.3637 17.5215,9.6941 24.0122,14.8296 -7.4575,-2.313 -15.2202,-1.2035 -20.6816,3.9251 -8.1921,7.693 -7.3572,22.3563 1.8716,32.4141 9.2288,10.0577 23.9885,11.9634 32.4043,4.0576 8.4157,-7.9059 7.5006,-22.8027 -1.9517,-32.6475 -1.6755,-1.7451 -15.3648,-15.9436 -35.2441,-24.851 -20.9164,-8.9942 -47.3427,-12.4907 -71.9427,9.3105 -0.8325,0.7378 -1.8129,1.6048 -2.9102,2.5718 -14.6915,14.1536 -18.3874,30.1732 -17.6766,45.4919 0.1801,16.1523 5.6542,35.8891 22.5019,57.7843 0.8465,1.0704 1.1287,1.4273 1.1287,1.4273 0,0 0.2822,0.3568 0.5643,0.7135 26.0275,32.0127 54.8733,41.2118 78.9847,41.7596 23.6897,0.5383 41.1363,-7.4269 42.493,-7.7152 40.5699,-8.6225 78.6731,4.4254 99.3181,26.357 15.5671,16.5371 22.0344,37.491 12.1479,57.6081 -2.6335,5.4786 -5.2868,9.7127 -8.2354,12.9665 -4.9504,6.2721 -8.5869,9.4674 -8.5869,9.4674 -29.8552,26.3642 -57.8905,22.8069 -78.3886,13.2635 -9.7209,-4.4108 -17.9598,-11.2699 -23.8183,-15.8846 7.6104,2.6702 16.5123,1.3449 22.5188,-3.5817 9.9863,-8.1909 10.7759,-23.7941 1.9474,-34.2002 -8.8284,-10.4061 -24.0563,-12.3782 -33.6791,-4.4853 -9.6228,7.8929 -10.7407,23.2603 -2.2757,33.9644 0,0 12.8975,16.5367 33.8345,26.5413 21.0738,10.2868 51.0742,13.4445 81.6694,-13.5727 0.6597,-0.5825 0.6595,-0.5827 0.6595,-0.5827 1.039,-0.9184 2.2557,-1.9962 3.6185,-3.2078 17.7886,-17.0339 22.9576,-36.2878 22.9137,-52.4547 -0.3607,-17.8666 -6.0232,-37.544 -25.9092,-58.2558 -0.3151,-0.3282 -0.3151,-0.3282 -0.6302,-0.6564 z"
       id="path21"
       style="font-size:454.933px;line-height:1;font-family:Vanity;-inkscape-font-specification:Vanity;fill:#ffffff;fill-opacity:1;stroke-width:0.413161"
       aria-label="MY SKILLS"
       transform="matrix(0.64356061,0,0,0.63722769,1754.8253,2264.3319)"
       inkscape:original-d="m 4059.8955,3791.7242 c 0,-0.4549 -0.4549,-0.4549 -0.9098,-0.4549 h -47.3131 c 0,0 0,0 -0.4549,0 0,0.4549 -0.4549,0.4549 -0.4549,0.4549 0,0.4549 0,0.4549 0,0.4549 l -94.1712,261.5865 -93.2612,-261.5865 c -0.455,-0.4549 -0.455,-0.9098 -0.9099,-0.9098 h -24.1114 -23.6566 c 0,0 0,0 -0.4549,0 0,0.4549 0,0.4549 0,0.4549 h -0.9099 v 0.4549 332.1011 c 0,0.9099 0.9099,1.3648 1.3648,1.3648 0.9099,0 1.8198,-0.4549 1.8198,-1.3648 v -323.9123 l 115.098,323.9123 c 0,0 0.9099,0 0.9099,0.9099 0,0.4549 0,0.4549 0,0.4549 0.4549,0 0.4549,0 0.4549,0 0,0 0,0 0.455,0 h 0.4549 c 0,-0.4549 0.9099,-0.4549 0.9099,-1.3648 l 23.6565,-65.9653 92.3514,-257.947 v 323.9123 0.9099 c 0.4549,0.4549 0.4549,0.4549 0.9098,0.4549 h 47.3131 c 0.4549,0 0.9098,0 0.9098,-0.4549 l 0.9099,-0.9099 v -332.1011 z m 220.1877,-0.4549 c -0.4549,0 -0.9098,0 -1.3648,0.9098 l -69.6047,191.9818 -70.0597,-191.9818 c -0.4549,-0.4549 -0.4549,-0.9098 -0.9099,-0.9098 h -47.7679 c 0,0 -0.455,0 -1.3648,0.4549 0,0.4549 0,0.4549 0,1.3648 l 71.4245,195.6212 c 0,0 0,0 0,0.4549 v 135.1151 c 0,0 0,0.9099 0.4549,0.9099 0,0.4549 0.4549,0.4549 0.4549,0.4549 h 47.768 c 0,0 0.4549,0 0.4549,-0.4549 0.9099,0 0.9099,-0.9099 0.9099,-0.9099 v -135.1151 c 0,-0.4549 0,-0.4549 0,-0.4549 l 70.9695,-195.6212 c 0,-0.9099 0,-1.3648 -1.3648,-1.8197 z m 340.2901,250.2131 v -0.4549 c -0.455,-81.888 -80.0682,-103.7247 -83.2528,-104.6346 -40.9439,-20.472 -61.4159,-56.4117 -61.4159,-86.4373 0,-22.7466 10.4634,-42.3088 32.3002,-50.9525 5.4592,-1.8197 11.3733,-3.1845 15.9227,-3.6394 7.2789,-1.3648 12.2832,-1.3648 12.2832,-1.3648 40.9439,0 61.8709,20.017 71.8794,40.489 4.5493,9.5536 7.2789,19.1072 8.6437,27.296 -4.5493,-6.824 -12.2832,-11.3734 -21.3818,-11.3734 -13.648,0 -25.0214,11.3734 -25.0214,25.0214 0,13.648 11.3734,25.0213 25.0214,25.0213 13.6479,0 25.0213,-11.3733 25.0213,-25.0213 0,-2.2747 0,-22.2918 -10.0086,-42.3088 -10.9184,-20.9269 -31.8453,-41.8538 -74.154,-41.8538 -1.3648,0 -3.1846,0 -5.0043,0 -26.3861,0.9098 -43.6736,10.9183 -55.5018,23.2015 -13.1931,12.7382 -23.2016,31.3904 -23.6565,59.1413 0,1.3648 0,1.8198 0,1.8198 0,0 0,0.4549 0,0.9098 1.3648,81.888 80.978,102.8149 83.7076,104.1797 40.944,20.472 61.416,56.4117 61.416,86.4373 0,22.7466 -10.4635,42.3087 -32.3003,50.4975 -5.9141,2.2747 -10.9184,3.6395 -15.4677,4.0944 -8.1888,1.3648 -13.193,1.3648 -13.193,1.3648 -40.944,0 -60.5061,-20.017 -70.9696,-40.489 -5.0043,-9.5536 -7.2789,-20.0171 -9.0987,-27.296 4.5494,6.824 12.7382,11.3733 20.927,11.3733 13.648,0 25.0213,-11.3733 25.0213,-25.0213 0,-13.648 -11.3733,-25.0213 -25.0213,-25.0213 -13.648,0 -25.0213,11.3733 -25.0213,25.0213 0,0 0,20.9269 10.4634,41.8538 10.4635,21.3819 31.8453,42.3088 73.6992,42.3088 0.9098,0 0.9098,0 0.9098,0 1.3648,0 3.1846,0 5.0043,0 25.4762,-0.9098 43.2186,-11.3733 55.0469,-23.2016 12.7381,-13.193 23.2016,-31.3903 23.2016,-60.0511 0,-0.455 0,-0.455 0,-0.9099 z m 139.6647,-106.4543 81.433,-141.4842 c 0,-1.3648 0,-1.8197 -0.4549,-2.2746 -0.9099,0 -1.8198,0 -1.8198,0.4549 l -81.433,142.394 -22.2917,38.6693 -36.3946,63.6906 v -244.299 c 0,0 0,-0.4549 -0.455,-0.4549 0,-0.4549 -0.4549,-0.4549 -0.4549,-0.4549 h -47.768 c 0,0 -0.4549,0 -0.4549,0.4549 -0.9099,0 -0.9099,0.4549 -0.9099,0.4549 v 332.1011 c 0,0.9099 0,0.9099 0,0.9099 0,0 0,0 0.9099,0 0,0.4549 0,0.4549 0,0.4549 0.4549,0 0.4549,0 0.4549,0 h 47.768 c 0,0 0.4549,0 0.4549,-0.4549 0.455,0 0.455,-0.9099 0.455,-0.9099 v -82.7978 l 32.7551,-56.4117 59.5963,140.1194 c 0.4549,0 0.4549,0.4549 0.9098,0.4549 h 47.768 c 0,0 0.9099,0 1.3648,-0.4549 0,-0.9099 0,-0.9099 0,-1.3648 z m 159.2268,-143.3039 c 0,-0.4549 -0.4549,-0.4549 -0.4549,-0.4549 h -47.768 c 0,0 -0.4549,0 -0.4549,0.4549 -0.9099,0 -0.9099,0.4549 -0.9099,0.4549 v 332.1011 c 0,0 0,0.9099 0.9099,0.9099 0,0.4549 0.4549,0.4549 0.4549,0.4549 h 47.768 c 0,0 0.4549,0 0.4549,-0.4549 0.455,0 0.455,-0.9099 0.455,-0.9099 v -332.1011 c 0,0 0,-0.4549 -0.455,-0.4549 z m 79.1585,331.1912 v -330.7363 c 0,0 0,-0.4549 -0.455,-0.4549 0,-0.4549 -0.4549,-0.4549 -0.4549,-0.4549 h -47.768 c 0,0 -0.4549,0 -0.4549,0.4549 -0.9099,0 -0.9099,0.4549 -0.9099,0.4549 v 332.1011 c 0,0 0,0 0,0.9099 l 0.9099,0.4549 c 0.4549,0 0.4549,0 0.4549,0 h 47.768 118.2826 c 0.4549,0 0.9098,-0.4549 0.9098,-1.3648 0,-0.9098 -0.4549,-1.3648 -0.9098,-1.3648 z m 196.9863,0 v -330.7363 c 0,0 0,-0.4549 -0.4549,-0.4549 0,-0.4549 -0.455,-0.4549 -0.455,-0.4549 h -47.7679 c 0,0 -0.455,0 -0.455,0.4549 -0.9098,0 -0.9098,0.4549 -0.9098,0.4549 v 332.1011 c 0,0 0,0 0,0.9099 l 0.9098,0.4549 c 0.455,0 0.455,0 0.455,0 h 47.7679 118.2826 c 0.4549,0 0.9099,-0.4549 0.9099,-1.3648 0,-0.9098 -0.455,-1.3648 -0.9099,-1.3648 z m 315.2688,-81.433 v -0.4549 c -0.455,-81.888 -80.0682,-103.7247 -83.2528,-104.6346 -40.9439,-20.472 -61.4159,-56.4117 -61.4159,-86.4373 0,-22.7466 10.4634,-42.3088 32.3002,-50.9525 5.4592,-1.8197 11.3734,-3.1845 15.9227,-3.6394 7.2789,-1.3648 12.2832,-1.3648 12.2832,-1.3648 40.9439,0 61.8709,20.017 71.8794,40.489 4.5493,9.5536 7.2789,19.1072 8.6437,27.296 -4.5493,-6.824 -12.2832,-11.3734 -21.3818,-11.3734 -13.648,0 -25.0213,11.3734 -25.0213,25.0214 0,13.648 11.3733,25.0213 25.0213,25.0213 13.648,0 25.0213,-11.3733 25.0213,-25.0213 0,-2.2747 0,-22.2918 -10.0085,-42.3088 -10.9184,-20.9269 -31.8454,-41.8538 -74.1541,-41.8538 -1.3648,0 -3.1846,0 -5.0043,0 -26.3861,0.9098 -43.6736,10.9183 -55.5018,23.2015 -13.1931,12.7382 -23.2016,31.3904 -23.6565,59.1413 0,1.3648 0,1.8198 0,1.8198 0,0 0,0.4549 0,0.9098 1.3648,81.888 80.978,102.8149 83.7076,104.1797 40.944,20.472 61.416,56.4117 61.416,86.4373 0,22.7466 -10.4635,42.3087 -32.3002,50.4975 -5.9142,2.2747 -10.9184,3.6395 -15.4678,4.0944 -8.1888,1.3648 -13.193,1.3648 -13.193,1.3648 -40.944,0 -60.5061,-20.017 -70.9696,-40.489 -5.0042,-9.5536 -7.2789,-20.0171 -9.0986,-27.296 4.5493,6.824 12.7381,11.3733 20.9269,11.3733 13.648,0 25.0213,-11.3733 25.0213,-25.0213 0,-13.648 -11.3733,-25.0213 -25.0213,-25.0213 -13.648,0 -25.0213,11.3733 -25.0213,25.0213 0,0 0,20.9269 10.4634,41.8538 10.4635,21.3819 31.8453,42.3088 73.6992,42.3088 0.9098,0 0.9098,0 0.9098,0 1.3648,0 3.1846,0 5.0043,0 25.4763,-0.9098 43.2186,-11.3733 55.0469,-23.2016 12.7381,-13.193 23.2016,-31.3903 23.2016,-60.0511 0,-0.455 0,-0.455 0,-0.9099 z"
       inkscape:path-effect="#path-effect22" /><path
       style="fill:#94b1ab;fill-opacity:1;stroke:none;stroke-width:0.288566px;stroke-linecap:butt;stroke-linejoin:miter;stroke-opacity:1;filter:url(#filter4)"
       d="m 3961.9478,3970.2155 c -2.4449,0.6218 -4.687,1.9773 -6.4328,3.7983 -1.7459,1.821 -2.9983,4.0975 -3.6805,6.5263 -1.3645,4.8574 -0.406,10.2003 2.0408,14.6128 2.4467,4.4124 6.2847,7.9447 10.5806,10.5908 4.2958,2.6462 9.0531,4.4555 13.8621,5.9821 16.942,5.3781 34.8478,7.4035 52.6187,7.0158 7.5467,-0.1646 15.2658,-0.8034 22.1453,-3.9103 3.4397,-1.5535 6.6281,-3.7249 9.142,-6.54 2.5139,-2.8152 4.3339,-6.2907 4.9611,-10.0125 0.959,-5.6904 -0.9631,-11.6605 -4.5463,-16.1839 -3.5832,-4.5233 -8.7019,-7.6748 -14.1625,-9.5408 -11.0636,-3.7806 -23.1495,-2.4778 -34.7271,-0.8484 -11.5776,1.6294 -23.4668,3.5313 -34.8465,0.8484 -2.8092,-0.6623 -5.5505,-1.5983 -8.3739,-2.1974 -2.8234,-0.5991 -5.7838,-0.8527 -8.581,-0.1412 z"
       id="path5"
       inkscape:path-effect="#path-effect6"
       inkscape:original-d="m 3961.9478,3970.2155 c -5.6517,-0.7795 10.9135,27.6735 16.3702,41.5103 5.4568,13.8368 35.0792,4.6772 52.6187,7.0158 17.5396,2.3386 24.1656,-13.6419 36.2484,-20.4628 12.0828,-6.8209 -12.4725,-17.1498 -18.7088,-25.7247 -6.2363,-8.5749 -46.3824,0 -69.5736,0 -23.1912,0 -11.3033,-1.5591 -16.9549,-2.3386 z"
       transform="matrix(0.91688996,0,0,0.91688996,351.40489,334.345)" /><path
       style="fill:#94b1ab;fill-opacity:1;stroke:none;stroke-width:0.29547px;stroke-linecap:butt;stroke-linejoin:miter;stroke-opacity:1;filter:url(#filter4)"
       d="m 3961.9478,3970.2155 c -2.4449,0.6218 -4.687,1.9773 -6.4328,3.7983 -1.7459,1.821 -2.9983,4.0975 -3.6805,6.5263 -1.3645,4.8574 -0.406,10.2003 2.0408,14.6128 2.4467,4.4124 6.2847,7.9447 10.5806,10.5908 4.2958,2.6462 9.0531,4.4555 13.8621,5.9821 16.942,5.3781 34.8478,7.4035 52.6187,7.0158 7.5467,-0.1646 15.2658,-0.8034 22.1453,-3.9103 3.4397,-1.5535 6.6281,-3.7249 9.142,-6.54 2.5139,-2.8152 4.3339,-6.2907 4.9611,-10.0125 0.959,-5.6904 -0.9631,-11.6605 -4.5463,-16.1839 -3.5832,-4.5233 -8.7019,-7.6748 -14.1625,-9.5408 -11.0636,-3.7806 -23.1495,-2.4778 -34.7271,-0.8484 -11.5776,1.6294 -23.4668,3.5313 -34.8465,0.8484 -2.8092,-0.6623 -5.5505,-1.5983 -8.3739,-2.1974 -2.8234,-0.5991 -5.7838,-0.8527 -8.581,-0.1412 z"
       id="path6"
       inkscape:path-effect="#path-effect8"
       inkscape:original-d="m 3961.9478,3970.2155 c -5.6517,-0.7795 10.9135,27.6735 16.3702,41.5103 5.4568,13.8368 35.0792,4.6772 52.6187,7.0158 17.5396,2.3386 24.1656,-13.6419 36.2484,-20.4628 12.0828,-6.8209 -12.4725,-17.1498 -18.7088,-25.7247 -6.2363,-8.5749 -46.3824,0 -69.5736,0 -23.1912,0 -11.3033,-1.5591 -16.9549,-2.3386 z"
       transform="matrix(0.8954649,0,0,0.8954649,1627.7464,400.50504)" /><path
       style="fill:none;stroke:#c9d9d5;stroke-width:99.9998;stroke-linecap:round;stroke-linejoin:miter;stroke-dasharray:none;stroke-opacity:1"
       d="m 5213.74,3940.4537 c 0,0 -101.0689,-204.7525 -198.275,-216.95 -102.3519,-12.8432 -155.4009,164.5906 -258.7383,169.7709 -155.4492,7.7928 -257.735,-209.6758 -413.285,-215.1544 -85.4937,-3.0112 -179.1886,37.377 -235.0649,101.9739 -47.8603,55.3298 -93.6883,177.2019 -93.6883,177.2019"
       id="path2"
       sodipodi:nodetypes="caaasc" /><path
       style="fill:none;stroke:#dce7e4;stroke-width:25;stroke-linecap:round;stroke-linejoin:miter;stroke-dasharray:none;stroke-opacity:1;filter:url(#filter2)"
       d="m 5213.74,3940.4537 c 0,0 -101.0689,-204.7525 -198.275,-216.95 -102.3519,-12.8432 -155.4009,164.5906 -258.7383,169.7709 -155.4492,7.7928 -257.735,-209.6758 -413.285,-215.1544 -85.4937,-3.0112 -182.2344,34.8631 -235.0649,101.9739 -44.937,57.0837 -93.6883,177.2019 -93.6883,177.2019"
       id="path94"
       sodipodi:nodetypes="caaasc" /><path
       style="font-size:254.599px;line-height:1;font-family:Misto;-inkscape-font-specification:Misto;fill:#333333;stroke-width:0.264583"
       d="m 3920.9732,4066.9054 94.2017,-154.287 v 154.287 h 42.0088 l 94.2016,-154.287 v 154.287 h 7.3834 v -178.2193 h -42.0088 l -94.2017,153.5232 v -153.5232 h -42.0088 l -109.223,178.2193 z m 434.0915,-178.2193 h -51.9382 l -61.613,85.2907 -62.1221,-85.2907 h -9.1656 l 88.8551,122.2075 v 56.0118 h 7.3833 v -56.0118 z m 165.2347,-3.5644 c -68.2325,0 -91.9102,48.6284 -91.9102,70.2693 0,22.6594 25.9691,25.2053 49.6468,25.2053 h 56.7756 c 37.426,0 68.7417,0 68.7417,17.0582 0,19.3495 -45.064,28.7697 -75.1067,28.7697 h -13.7483 c -34.3709,0 -57.0302,-7.1288 -79.1803,-29.0243 l -10.4386,2.0368 c 11.9662,41.7542 40.2266,71.2877 98.5298,71.2877 53.4658,0 87.5821,-34.8801 87.5821,-70.2693 0,-24.9507 -30.0427,-26.7329 -46.337,-26.7329 h -68.9964 c -46.0824,0 -59.3215,-4.8374 -59.3215,-15.5306 0,-20.6225 48.3738,-28.2605 76.1251,-28.2605 h 13.7483 c 29.0243,0 58.0486,5.3466 78.9257,28.5151 l 10.6932,-2.0368 c -12.4754,-46.8462 -47.6101,-71.2877 -95.7293,-71.2877 z m 241.6147,146.649 -23.9323,-49.9014 67.7233,-93.1832 h -51.9382 l -115.0787,157.8514 v -157.8514 h -7.3834 v 178.2193 h 44.5548 l 57.0302,-78.4165 22.4047,46.337 c 10.9478,22.9139 19.0949,35.8985 42.7727,35.8985 11.4569,0 21.1317,-8.6564 21.1317,-19.0949 0,-9.9294 -8.4018,-18.0766 -18.5858,-18.0766 -10.1839,0 -18.5857,8.1472 -18.5857,18.5858 0,3.0551 0.7638,5.8557 2.0368,8.4017 -7.638,-3.0552 -16.5489,-17.0581 -22.1501,-28.7697 z m 100.5667,-181.0198 c 0,-11.457 -9.1656,-20.6226 -20.3679,-20.6226 -11.2024,0 -20.368,9.1656 -20.368,20.6226 0,11.2023 9.1656,20.3679 20.368,20.3679 11.2023,0 20.3679,-9.1656 20.3679,-20.3679 z m -24.1869,37.9352 v 178.2193 h 7.3833 v -178.2193 z m 41.7541,0 h -7.3833 v 178.2193 h 139.5202 v -44.5548 H 4880.048 Z m 154.7962,0 h -7.3834 v 178.2193 h 139.5203 v -44.5548 h -132.1369 z m 227.3566,-3.5644 c -68.2325,0 -91.9102,48.6284 -91.9102,70.2693 0,22.6594 25.9691,25.2053 49.6468,25.2053 h 56.7755 c 37.4261,0 68.7418,0 68.7418,17.0582 0,19.3495 -45.0641,28.7697 -75.1067,28.7697 h -13.7484 c -34.3708,0 -57.0302,-7.1288 -79.1803,-29.0243 l -10.4385,2.0368 c 11.9661,41.7542 40.2266,71.2877 98.5298,71.2877 53.4658,0 87.582,-34.8801 87.582,-70.2693 0,-24.9507 -30.0426,-26.7329 -46.337,-26.7329 h -68.9963 c -46.0824,0 -59.3216,-4.8374 -59.3216,-15.5306 0,-20.6225 48.3738,-28.2605 76.1251,-28.2605 h 13.7484 c 29.0243,0 58.0485,5.3466 78.9257,28.5151 l 10.6931,-2.0368 c -12.4753,-46.8462 -47.61,-71.2877 -95.7292,-71.2877 z"
       id="path12"
       aria-label="MY SKILLS" /></g></svg>
