<?xml version="1.0" encoding="UTF-8" standalone="no"?>
<!-- Created with Inkscape (http://www.inkscape.org/) -->

<svg
   width="6548.6299"
   height="10016.803"
   viewBox="0 0 1732.6582 2650.2789"
   version="1.1"
   id="svg1"
   sodipodi:docname="AboutMe_Skills_Mobile.svg"
   xml:space="preserve"
   inkscape:version="1.3 (0e150ed6c4, 2023-07-21)"
   xmlns:inkscape="http://www.inkscape.org/namespaces/inkscape"
   xmlns:sodipodi="http://sodipodi.sourceforge.net/DTD/sodipodi-0.dtd"
   xmlns="http://www.w3.org/2000/svg"
   xmlns:svg="http://www.w3.org/2000/svg"><sodipodi:namedview
     id="namedview1"
     pagecolor="#505050"
     bordercolor="#000000"
     borderopacity="1"
     inkscape:showpageshadow="0"
     inkscape:pageopacity="0"
     inkscape:pagecheckerboard="0"
     inkscape:deskcolor="#747474"
     inkscape:document-units="mm"
     inkscape:zoom="0.056568539"
     inkscape:cx="2457.1962"
     inkscape:cy="5930.8585"
     inkscape:window-width="1920"
     inkscape:window-height="1009"
     inkscape:window-x="-8"
     inkscape:window-y="-8"
     inkscape:window-maximized="1"
     inkscape:current-layer="layer1" /><defs
     id="defs1"><inkscape:path-effect
       effect="spiro"
       id="path-effect11"
       is_visible="true"
       lpeversion="1" /><inkscape:path-effect
       effect="spiro"
       id="path-effect10"
       is_visible="true"
       lpeversion="1" /><inkscape:path-effect
       effect="spiro"
       id="path-effect11-7"
       is_visible="true"
       lpeversion="1" /><filter
       inkscape:collect="always"
       style="color-interpolation-filters:sRGB"
       id="filter21"
       x="-0.010482894"
       y="-0.18035564"
       width="1.0209658"
       height="1.3607113"><feGaussianBlur
         inkscape:collect="always"
         stdDeviation="7.4034101"
         id="feGaussianBlur21" /></filter><filter
       inkscape:collect="always"
       style="color-interpolation-filters:sRGB"
       id="filter22"
       x="-0.012389068"
       y="-0.18035564"
       width="1.0247781"
       height="1.3607113"><feGaussianBlur
         inkscape:collect="always"
         stdDeviation="7.4034101"
         id="feGaussianBlur22" /></filter><filter
       inkscape:collect="always"
       style="color-interpolation-filters:sRGB"
       id="filter23"
       x="-0.019419638"
       y="-0.18042109"
       width="1.0388393"
       height="1.3608422"><feGaussianBlur
         inkscape:collect="always"
         stdDeviation="7.4034101"
         id="feGaussianBlur23" /></filter><filter
       inkscape:collect="always"
       style="color-interpolation-filters:sRGB"
       id="filter24"
       x="-0.011008847"
       y="-0.18035564"
       width="1.0220177"
       height="1.3607113"><feGaussianBlur
         inkscape:collect="always"
         stdDeviation="7.4034101"
         id="feGaussianBlur24" /></filter><filter
       inkscape:collect="always"
       style="color-interpolation-filters:sRGB"
       id="filter25"
       x="-0.017354098"
       y="-0.1803568"
       width="1.0347082"
       height="1.3607136"><feGaussianBlur
         inkscape:collect="always"
         stdDeviation="7.4034101"
         id="feGaussianBlur25" /></filter><filter
       inkscape:collect="always"
       style="color-interpolation-filters:sRGB"
       id="filter26"
       x="-0.015239476"
       y="-0.1803562"
       width="1.030479"
       height="1.3607124"><feGaussianBlur
         inkscape:collect="always"
         stdDeviation="7.4034101"
         id="feGaussianBlur26" /></filter><filter
       inkscape:collect="always"
       style="color-interpolation-filters:sRGB"
       id="filter27"
       x="-0.023618196"
       y="-0.18186287"
       width="1.0472364"
       height="1.3637257"><feGaussianBlur
         inkscape:collect="always"
         stdDeviation="7.4034101"
         id="feGaussianBlur27" /></filter></defs><g
     inkscape:label="Слой 1"
     inkscape:groupmode="layer"
     id="layer1"
     transform="translate(-3712.635,-4541.1797)"><g
       id="g9"><path
         d="m 3752.3868,4542.7961 q -0.3807,13.4145 -0.3807,33.2986 0,19.6938 0.3807,33.2988 h -9.8945 q 0.4757,-16.9349 0.4757,-33.2988 0,-16.4591 -0.4757,-33.2986 z m 57.6542,0 h 2.1883 v 66.5974 h -3.0446 q -5.8035,-8.2773 -14.5563,-19.0278 -8.7526,-10.7508 -23.404,-28.2564 l -8.0869,-9.7041 v 56.9883 h -2.1883 v -66.5974 h 7.5162 q 5.613,7.8012 11.9873,15.8882 6.4696,7.9916 16.3639,19.9792 8.5626,10.3702 13.2244,16.1737 z m 53.2779,66.5974 q -3.52,-6.1843 -8.182,-13.4147 -4.5667,-7.2305 -9.1334,-14.0806 -1.2368,-1.9979 -2.7591,-4.091 -1.427,-2.1882 -2.9493,-4.6618 l -9.9895,9.8944 q 0,10.1798 0.3806,26.3537 h -9.8945 q 0.4756,-16.9349 0.4756,-33.2988 0,-16.4591 -0.4756,-33.2986 h 9.8945 q -0.3806,18.6472 -0.3806,30.4446 v 6.8499 l 37.7704,-37.2945 h 3.1394 l -23.975,23.4993 q 9.1333,15.3174 26.2583,40.7194 0.4758,0.7613 0.8562,1.3322 0.3807,0.5706 0.6661,1.0465 z m 57.7493,-54.3244 q -1.9978,-4.5668 -6.7548,-7.7064 -4.757,-3.2348 -11.9875,-3.2348 -4.9473,0 -9.0382,1.7126 -4.0911,1.7125 -6.4696,4.7568 -2.3784,2.9493 -2.3784,6.5646 0,2.664 1.2369,5.2328 1.8076,3.5201 5.8986,5.8034 4.1862,2.1882 11.7021,5.0426 5.8987,2.1881 9.6091,3.9956 3.7103,1.7127 6.7546,4.3765 3.1398,2.6639 4.3766,6.2793 0.6659,1.9027 0.6659,4.3763 0,4.3763 -2.6638,8.4675 -2.5688,4.0907 -7.8968,6.7549 -5.2323,2.5686 -12.8434,2.5686 -11.9876,0 -18.4571,-5.0423 -6.4693,-5.0425 -7.8016,-12.3682 l 1.7127,-0.094 q 1.9979,6.3743 7.7062,10.8459 5.8034,4.3764 15.2223,4.3764 4.7569,0 8.182,-1.7126 3.5201,-1.7123 5.3277,-4.4714 1.8075,-2.7589 1.8075,-5.8987 0,-3.3299 -2.0928,-6.0888 -2.569,-3.33 -6.6598,-5.5181 -3.9958,-2.1884 -10.941,-4.8521 -6.6597,-2.6639 -10.4653,-4.6618 -3.8055,-1.9981 -6.4695,-5.2328 -2.6638,-3.3298 -2.6638,-8.2769 0,-5.2328 3.2346,-9.514 3.2347,-4.2811 9.0383,-6.7548 5.8986,-2.4738 13.3196,-2.4738 1.9978,0 2.9492,0.095 7.7063,0.4756 12.368,4.186 4.757,3.6154 6.3743,8.4674 z m 71.164,38.1505 q -2.5688,6.9453 -9.2285,11.7975 -6.6597,4.852 -17.1251,4.852 -11.3214,0 -19.4084,-4.7571 -7.9915,-4.852 -12.0827,-12.5581 -3.9956,-7.8016 -3.9956,-16.5542 0,-8.7529 3.9956,-16.4591 4.0912,-7.8014 11.9877,-12.5586 7.9917,-4.852 19.1229,-4.852 11.0362,0 17.6958,4.852 6.6598,4.8523 8.8481,11.7973 l -6.5646,0.094 q -1.8077,-6.3745 -6.755,-10.7508 -4.8521,-4.4713 -12.6535,-4.4713 -8.5625,0 -14.5563,4.1858 -5.8985,4.0912 -8.9431,10.9411 -2.9492,6.7548 -2.9492,14.6514 0,7.9918 3.0444,15.3174 3.0445,7.3258 8.9431,12.1778 5.9937,4.852 14.1756,5.6133 1.237,0.1902 3.6154,0.1902 7.8965,0 13.3195,-3.9007 5.423,-3.9958 7.8014,-9.7042 z m 46.6181,16.1739 q -2.6638,-7.8015 -7.0403,-19.5036 -0.3805,-1.3321 -1.0465,-3.0443 h -24.1653 l -8.0867,22.5479 h -2.3786 l 23.7848,-66.5974 h 4.4715 q 14.7465,41.0048 25.1168,66.5974 z m -31.4909,-24.7361 h 22.5479 q -4.9473,-13.4148 -11.607,-30.7301 z m 74.3036,-41.8613 q 8.0869,0 13.8903,3.1394 5.8986,3.0447 8.943,8.0871 3.0445,4.947 3.0445,10.5603 0,5.3278 -2.9493,9.9896 -2.8542,4.6618 -8.6577,7.6113 -5.8033,2.8539 -14.1757,2.8539 h -15.1271 q 0,9.3237 0.3805,24.3558 h -9.8945 q 0.4758,-16.9349 0.4758,-33.2988 0,-16.4591 -0.4758,-33.2986 h 9.8945 z m -1.9979,40.2437 q 6.0888,0 10.3702,-2.5686 4.2811,-2.664 6.3742,-6.8503 2.1883,-4.281 2.1883,-9.1332 0,-5.0423 -2.2833,-9.5139 -2.1884,-4.5665 -6.4696,-7.3257 -4.2812,-2.7591 -10.2749,-2.7591 l -12.6535,0.094 q -0.2855,12.9388 -0.2855,28.2563 v 9.7993 z m 81.0583,24.1655 v 2.1882 h -44.7152 q 0.4756,-16.9349 0.4756,-33.2988 0,-16.4591 -0.4756,-33.2986 h 42.3368 v 2.0929 h -32.5375 q -0.2854,12.9391 -0.2854,27.9709 v 6.5648 h 23.4994 v 2.1881 h -23.4994 q 0,13.795 0.2854,25.7827 z m 10.5603,9.4188 h -2.9491 l 2.9491,-13.0342 h 5.9938 z m 42.5274,-73.828 q -0.3807,13.4145 -0.3807,33.2986 0,19.6938 0.3807,33.2988 h -9.8946 q 0.4759,-16.9349 0.4759,-33.2988 0,-16.4591 -0.4759,-33.2986 z m 51.3752,64.4092 v 2.1882 h -42.8127 q 0.4758,-16.9349 0.4758,-33.2988 0,-16.4591 -0.4758,-33.2986 h 9.8946 q -0.4758,17.125 -0.4758,33.6792 0,11.8923 0.3805,30.9202 z m 50.4237,0 v 2.1882 h -42.8125 q 0.4756,-16.9349 0.4756,-33.2988 0,-16.4591 -0.4756,-33.2986 h 9.8943 q -0.4757,17.125 -0.4757,33.6792 0,11.8923 0.3807,30.9202 z m 1e-4,-64.5044 h 9.2284 l -0.2853,44.1447 q -0.094,11.6069 5.5181,16.3636 5.613,4.7571 14.2707,4.7571 9.4188,0 13.9855,-5.7083 4.5667,-5.8036 4.5667,-16.2687 l -0.094,-43.1932 h 2.2834 v 43.0978 q 0,11.0363 -4.852,17.4106 -4.7572,6.2791 -15.2224,6.4693 -11.8925,0.2856 -20.6451,-4.1858 -8.6578,-4.4718 -8.6578,-17.7912 z m 103.1308,12.3682 q -1.998,-4.5668 -6.7549,-7.7064 -4.757,-3.2348 -11.9876,-3.2348 -4.9472,0 -9.0381,1.7126 -4.091,1.7125 -6.4693,4.7568 -2.3788,2.9493 -2.3788,6.5646 0,2.664 1.2369,5.2328 1.8077,3.5201 5.8986,5.8034 4.1862,2.1882 11.7022,5.0426 5.8985,2.1881 9.6091,3.9956 3.7102,1.7127 6.7549,4.3765 3.1395,2.6639 4.3763,6.2793 0.666,1.9027 0.666,4.3763 0,4.3763 -2.6639,8.4675 -2.5688,4.0907 -7.8966,6.7549 -5.2327,2.5686 -12.8438,2.5686 -11.9877,0 -18.457,-5.0423 -6.4695,-5.0425 -7.8013,-12.3682 l 1.7125,-0.094 q 1.9978,6.3743 7.7061,10.8459 5.8036,4.3764 15.2224,4.3764 4.757,0 8.1819,-1.7126 3.5201,-1.7123 5.3277,-4.4714 1.8078,-2.7589 1.8078,-5.8987 0,-3.3299 -2.093,-6.0888 -2.5688,-3.33 -6.6599,-5.5181 -3.9958,-2.1884 -10.9409,-4.8521 -6.6597,-2.6639 -10.4653,-4.6618 -3.8057,-1.9981 -6.4695,-5.2328 -2.6639,-3.3298 -2.6639,-8.2769 0,-5.2328 3.2347,-9.514 3.2347,-4.2811 9.0382,-6.7548 5.8987,-2.4738 13.3195,-2.4738 1.998,0 2.9493,0.095 7.7062,0.4756 12.368,4.186 4.757,3.6154 6.3744,8.4674 z m 62.5063,-10.1801 h -24.4508 q -0.3803,19.0279 -0.3803,30.8251 0,16.5543 0.4755,33.6794 h -9.8945 q 0.4757,-17.1251 0.4757,-33.6794 0,-11.7972 -0.3807,-30.8251 h -24.736 v -2.0929 h 58.8911 z m 43.4786,38.9119 q 5.3277,1.7126 8.4674,5.3279 3.2347,3.6153 6.7549,9.6089 2.759,4.7571 4.852,7.2306 2.0933,2.4737 5.1376,3.4252 -3.5202,1.3319 -7.1353,1.3319 -5.6134,0 -8.4674,-3.8056 -1.0465,-1.0465 -1.9028,-2.5688 -0.7612,-1.6173 -2.2835,-4.9473 -1.9028,-4.2811 -3.4248,-7.0401 -1.4272,-2.759 -3.8055,-4.9472 -2.3787,-2.1882 -5.6134,-2.6641 h -0.2854 -18.5522 q 0,9.4189 0.3807,24.6412 h -9.8945 q 0.4756,-16.9349 0.4756,-33.2988 0,-16.4591 -0.4756,-33.2986 h 9.8945 15.6979 q 8.0868,0 13.8903,3.1394 5.8035,3.0447 8.7527,8.0871 2.9493,4.947 2.9493,10.5603 0,6.5647 -3.9958,11.8924 -3.9958,5.3277 -11.4167,7.3256 z m -25.973,-38.8167 q -0.2854,12.9389 -0.2854,28.0663 v 9.7041 h 15.8882 q 0.8563,-0.095 2.3786,-0.095 4.5666,-0.4757 7.8013,-3.1397 3.33,-2.6637 4.9474,-6.6597 1.7125,-3.9957 1.7125,-8.4673 0,-5.0423 -2.1885,-9.5139 -2.0929,-4.4714 -6.3741,-7.2306 -4.1862,-2.7592 -10.1799,-2.7592 z m 100.562,64.4093 q -2.664,-7.8015 -7.0402,-19.5036 -0.3805,-1.3321 -1.0465,-3.0443 h -24.1653 l -8.0869,22.5479 h -2.3784 l 23.7846,-66.5974 h 4.4718 q 14.7464,41.0048 25.1165,66.5974 z m -31.491,-24.7361 h 22.548 q -4.9473,-13.4148 -11.607,-30.7301 z m 94.3781,-39.7684 h -24.4507 q -0.3805,19.0279 -0.3805,30.8251 0,16.5543 0.4757,33.6794 h -9.8946 q 0.4758,-17.1251 0.4758,-33.6794 0,-11.7972 -0.3805,-30.8251 h -24.7362 v -2.0929 h 58.891 z m 35.9628,65.3608 q -3.6153,0.4756 -6.2792,0.4756 -10.9409,0 -19.0279,-5.2327 -7.9916,-5.2327 -12.1777,-13.6049 -4.0911,-8.3722 -4.0911,-17.6008 0,-8.3722 3.4251,-15.6027 3.5201,-7.2307 10.5605,-11.9875 7.1353,-4.7571 17.3151,-5.4231 0.9515,-0.094 2.8542,-0.094 10.9412,0 18.8377,5.2327 7.9916,5.1374 12.0825,13.5098 4.0912,8.2769 4.0912,17.5053 0,7.8966 -3.1396,14.9369 -3.0445,7.0403 -9.3236,11.8924 -6.1842,4.7571 -15.1272,5.9939 z m -0.4758,-1.3322 q 6.1842,-0.8561 10.4653,-4.947 4.2814,-4.1862 6.3742,-10.3702 2.0932,-6.2793 2.0932,-13.5098 0,-9.5138 -3.425,-18.3619 -3.425,-8.8479 -9.9896,-14.1757 -6.4694,-5.423 -15.1272,-4.8521 -7.4208,0.4756 -12.4632,4.5667 -5.0422,3.996 -7.516,10.4652 -2.3784,6.3743 -2.3784,13.9854 0,9.2286 3.425,17.8864 3.5201,8.6576 9.9896,14.1756 6.4696,5.423 15.0319,5.423 1.6175,0 3.5202,-0.2856 z m 73.3522,-25.1167 q 5.3279,1.7126 8.4675,5.3279 3.2347,3.6153 6.7549,9.6089 2.759,4.7571 4.8521,7.2306 2.0931,2.4737 5.1374,3.4252 -3.5201,1.3319 -7.1354,1.3319 -5.6132,0 -8.4674,-3.8056 -1.0465,-1.0465 -1.9028,-2.5688 -0.761,-1.6173 -2.2834,-4.9473 -1.9027,-4.2811 -3.425,-7.0401 -1.4271,-2.759 -3.8055,-4.9472 -2.3783,-2.1882 -5.6131,-2.6641 h -0.2855 -18.5522 q 0,9.4189 0.3805,24.6412 h -9.8944 q 0.4757,-16.9349 0.4757,-33.2988 0,-16.4591 -0.4757,-33.2986 h 9.8944 15.6981 q 8.0868,0 13.8903,3.1394 5.8036,3.0447 8.7528,8.0871 2.9493,4.947 2.9493,10.5603 0,6.5647 -3.9958,11.8924 -3.9959,5.3277 -11.4168,7.3256 z m -25.9728,-38.8167 q -0.2856,12.9389 -0.2856,28.0663 v 9.7041 h 15.8883 q 0.8563,-0.095 2.3785,-0.095 4.5667,-0.4757 7.8014,-3.1397 3.33,-2.6637 4.9472,-6.6597 1.7124,-3.9957 1.7124,-8.4673 0,-5.0423 -2.1881,-9.5139 -2.0931,-4.4714 -6.3743,-7.2306 -4.1862,-2.7592 -10.1798,-2.7592 z"
         id="text4"
         style="font-size:59.445px;line-height:1;font-family:BROLIMO;-inkscape-font-specification:BROLIMO;fill:#1a1a1a;fill-opacity:1;stroke-width:0.264582"
         aria-label="INKSCAPE, ILLUSTRATOR" /><g
         id="g21"
         transform="translate(-0.2019043)"><circle
           style="opacity:1;fill:#abc2bd;fill-opacity:1;stroke:#abc2bd;stroke-width:20;stroke-linecap:round;stroke-linejoin:round;stroke-miterlimit:4.7;stroke-dasharray:none;stroke-opacity:1"
           id="path5"
           cx="3742.6943"
           cy="4754.7988"
           r="19.857384" /><circle
           style="fill:#abc2bd;fill-opacity:1;stroke:#abc2bd;stroke-width:20;stroke-linecap:round;stroke-linejoin:round;stroke-miterlimit:4.7;stroke-dasharray:none;stroke-opacity:1"
           id="path5-1"
           cx="5413.8779"
           cy="4745.3848"
           r="19.857384" /><path
           id="path4"
           style="color:#000000;fill:#abc2bd;stroke:#abc2bd;stroke-width:20;stroke-linecap:round;stroke-linejoin:round;stroke-dasharray:none;stroke-opacity:1"
           d="m 4502.582,4653.9546 c -14.684,0.2364 -29.3962,0.7982 -44.1348,1.7266 -113.7957,7.1682 -212.4164,70.9853 -311.322,71.1403 -36.6663,0.058 -74.6348,-13.8839 -114.8871,-28.3962 -40.2522,-14.5122 -82.9966,-29.6305 -129.6934,-26.1173 -34.5773,2.6013 -75.1281,19.2402 -109.1365,34.785 -34.0083,15.5448 -60.6505,30.549 -60.6505,30.549 l 19.4691,34.584 c 0,0 25.3224,-14.2462 57.6812,-29.037 32.3588,-14.7908 72.5779,-29.5719 95.6154,-31.3051 36.1259,-2.7178 73.4155,9.5139 113.254,23.8771 39.8387,14.3631 82.0197,30.8207 128.4103,30.748 114.7888,-0.1799 214.2794,-64.9542 313.7555,-71.2204 225.2031,-14.1861 452.7728,64.1026 688.0019,67.9121 58.8629,0.9533 136.5507,5.6286 206.0784,4.7615 20.5679,-0.2566 40.2638,-1.0833 58.8543,-2.5885 v -39.8462 c -18.2164,1.5787 -38.1776,2.4872 -59.3504,2.7513 -67.3573,0.8401 -144.5703,-3.7843 -204.9394,-4.762 -212.4792,-3.441 -426.7453,-73.1071 -647.006,-69.5622 z" /><path
           id="path13"
           style="color:#000000;mix-blend-mode:normal;fill:#d3dedc;fill-opacity:1;stroke-width:3;stroke-dasharray:none;filter:url(#filter21)"
           d="m 4502.582,4654.0574 c -14.684,0.2364 -29.3962,0.7982 -44.1348,1.7266 -113.7957,7.1682 -212.4164,70.9853 -311.322,71.1403 -36.6663,0.058 -74.6348,-13.8839 -114.8871,-28.3962 -40.2522,-14.5122 -82.9966,-29.6305 -129.6934,-26.1173 -34.5773,2.6013 -75.1281,19.2402 -109.1365,34.785 -34.0083,15.5448 -60.6505,30.549 -60.6505,30.549 l 19.4691,14.6993 c 0,0 25.3224,-14.2462 57.6812,-29.037 32.3588,-14.7908 72.5779,-29.5719 95.6154,-31.3051 36.1259,-2.7178 73.4155,9.5139 113.254,23.8771 39.8387,14.3631 82.0197,30.8207 128.4103,30.748 114.7888,-0.1799 214.2794,-64.9542 313.7555,-71.2204 225.2031,-14.1861 452.7728,64.1026 688.0019,67.9121 58.8629,0.9533 136.5507,5.6286 206.0784,4.7615 20.5679,-0.2566 54.1131,-1.9101 72.7036,-3.4153 v -19.9615 c -18.2164,1.5787 -52.0269,3.314 -73.1997,3.5781 -67.3573,0.8401 -144.5703,-3.7843 -204.9394,-4.762 -212.4792,-3.441 -426.7453,-73.1071 -647.006,-69.5622 z"
           sodipodi:nodetypes="sscsccccsccssssccsss" /></g></g><g
       id="g8"
       transform="translate(0,-26.265927)"><path
         d="m 3777.6937,4973.6227 q 12.273,0 19.1229,5.1377 6.8501,5.1373 8.4675,12.6532 l -8.087,0.095 q -1.6173,-6.85 -6.5646,-11.6069 -4.9472,-4.7571 -13.0338,-4.7571 -8.1821,0 -13.9856,4.4717 -5.7083,4.3763 -8.6575,11.6068 -2.8543,7.1355 -2.8543,15.3175 0,8.8479 3.3299,16.6494 3.3299,7.7062 9.7992,12.2729 6.5647,4.5666 15.7932,4.0909 5.6132,-0.2852 9.3235,-3.3298 3.8055,-3.0444 5.4231,-6.3743 v -16.1737 h -16.0786 v -2.1883 h 25.1167 v 19.4085 q -6.3744,5.8036 -12.6534,7.8014 -6.1842,1.9979 -13.1292,2.2833 -11.6069,0.4757 -19.8842,-4.0911 -8.277,-4.6618 -12.463,-12.463 -4.1862,-7.8015 -4.1862,-16.7446 0,-8.7527 3.9958,-16.5542 4.0909,-7.8014 11.9875,-12.6535 7.9917,-4.852 19.2181,-4.852 z m 47.0938,0.5709 q -0.3805,13.4145 -0.3805,33.2986 0,19.6938 0.3805,33.2987 h -9.8945 q 0.4757,-16.9348 0.4757,-33.2987 0,-16.4589 -0.4757,-33.2986 z m 72.7814,0 q -0.3806,20.1693 -0.3806,33.2986 0,12.939 0.3806,33.2987 h -9.7992 q 0.3805,-12.9388 0.3805,-31.8717 0,-15.4126 -0.2855,-28.9223 l -24.641,60.794 h -2.8543 q -5.2325,-13.7 -16.6492,-41.2903 -6.6597,-15.9834 -8.182,-19.884 v 61.1743 h -2.1882 v -66.5973 h 10.5604 q 4.7572,12.7485 8.9432,23.1186 4.2812,10.3702 10.9409,26.0683 0.3806,0.9514 0.9515,2.1881 0.5709,1.237 1.1415,2.759 l 21.8822,-53.9437 v -0.1903 z m 33.1082,0 q 8.087,0 13.8904,3.1396 5.8988,3.0444 8.9431,8.0868 3.0445,4.9471 3.0445,10.5603 0,5.3279 -2.9493,9.9897 -2.8542,4.6617 -8.6576,7.6112 -5.8037,2.8541 -14.1758,2.8541 h -15.1271 q 0,9.3236 0.3805,24.3556 h -9.8945 q 0.4758,-16.9348 0.4758,-33.2987 0,-16.4589 -0.4758,-33.2986 h 9.8945 z m -1.9977,40.2436 q 6.0889,0 10.3701,-2.5686 4.2813,-2.6639 6.3743,-6.8499 2.1883,-4.2815 2.1883,-9.1333 0,-5.0425 -2.2834,-9.514 -2.1882,-4.5666 -6.4695,-7.3257 -4.2812,-2.759 -10.2749,-2.759 l -12.6535,0.094 q -0.2855,12.939 -0.2855,28.2564 v 9.7993 z m 38.341,33.5844 h -2.9494 l 2.9494,-13.0343 h 5.9937 z m 57.1786,-73.828 q 8.0867,0 13.8903,3.1396 5.8986,3.0444 8.9431,8.0868 3.0445,4.9471 3.0445,10.5603 0,5.3279 -2.9495,9.9897 -2.854,4.6617 -8.6575,7.6112 -5.8035,2.8541 -14.1758,2.8541 h -15.127 q 0,9.3236 0.3805,24.3556 h -9.8943 q 0.4756,-16.9348 0.4756,-33.2987 0,-16.4589 -0.4756,-33.2986 h 9.8943 z m -1.998,40.2436 q 6.089,0 10.3702,-2.5686 4.2813,-2.6639 6.3743,-6.8499 2.1883,-4.2815 2.1883,-9.1333 0,-5.0425 -2.2835,-9.514 -2.1881,-4.5666 -6.4694,-7.3257 -4.2812,-2.759 -10.275,-2.759 l -12.6535,0.094 q -0.2853,12.939 -0.2853,28.2564 v 9.7993 z m 89.621,-40.2436 q -0.3805,13.4145 -0.3805,33.2986 0,19.6938 0.3805,33.2987 h -9.8944 q 0.3805,-12.4633 0.3805,-30.4445 h -34.2499 q 0,17.9812 0.3804,30.4445 h -9.8944 q 0.4756,-16.9348 0.4756,-33.2987 0,-16.4589 -0.4756,-33.2986 h 9.8944 q -0.3804,17.125 -0.3804,27.6855 v 6.2791 h 34.2499 v -6.2791 q 0,-10.5605 -0.3805,-27.6855 z m 48.9014,67.4536 q -3.6153,0.4755 -6.2791,0.4755 -10.941,0 -19.0278,-5.2326 -7.9918,-5.2325 -12.178,-13.6048 -4.0909,-8.3721 -4.0909,-17.6007 0,-8.3724 3.4251,-15.6028 3.5201,-7.2305 10.5604,-11.9876 7.1355,-4.7569 17.3153,-5.4228 0.9513,-0.094 2.8541,-0.094 10.941,0 18.8377,5.2326 7.9915,5.1374 12.0826,13.5098 4.0909,8.277 4.0909,17.5055 0,7.8966 -3.1396,14.9368 -3.0443,7.0404 -9.3235,11.8925 -6.1841,4.7569 -15.1272,5.9937 z m -0.4757,-1.3319 q 6.1842,-0.8563 10.4653,-4.9473 4.2813,-4.1862 6.3743,-10.3701 2.0931,-6.2791 2.0931,-13.5099 0,-9.5139 -3.4249,-18.3618 -3.4252,-8.8479 -9.9898,-14.1758 -6.4693,-5.4228 -15.127,-4.8521 -7.4209,0.4758 -12.4633,4.5667 -5.0423,3.9959 -7.516,10.4655 -2.3784,6.3743 -2.3784,13.9854 0,9.2284 3.425,17.886 3.5202,8.6577 9.9896,14.1757 6.4695,5.423 15.032,5.423 1.6173,0 3.5201,-0.2853 z m 79.3459,-64.0286 h -24.4507 q -0.3806,19.0277 -0.3806,30.825 0,16.5541 0.4758,33.6792 h -9.8945 q 0.4756,-17.1251 0.4756,-33.6792 0,-11.7973 -0.3804,-30.825 h -24.7362 v -2.0931 h 58.891 z m 35.9628,65.3605 q -3.6153,0.4755 -6.2792,0.4755 -10.9409,0 -19.0279,-5.2326 -7.9915,-5.2325 -12.1777,-13.6048 -4.091,-8.3721 -4.091,-17.6007 0,-8.3724 3.425,-15.6028 3.5201,-7.2305 10.5605,-11.9876 7.1353,-4.7569 17.3151,-5.4228 0.9516,-0.094 2.8543,-0.094 10.9412,0 18.8376,5.2326 7.9917,5.1374 12.0825,13.5098 4.0912,8.277 4.0912,17.5055 0,7.8966 -3.1396,14.9368 -3.0445,7.0404 -9.3237,11.8925 -6.1841,4.7569 -15.1271,5.9937 z m -0.4758,-1.3319 q 6.1842,-0.8563 10.4654,-4.9473 4.2813,-4.1862 6.3741,-10.3701 2.0932,-6.2791 2.0932,-13.5099 0,-9.5139 -3.425,-18.3618 -3.425,-8.8479 -9.9896,-14.1758 -6.4695,-5.4228 -15.1271,-4.8521 -7.4208,0.4758 -12.4633,4.5667 -5.0422,3.9959 -7.5159,10.4655 -2.3784,6.3743 -2.3784,13.9854 0,9.2284 3.4248,17.886 3.5202,8.6577 9.9897,14.1757 6.4696,5.423 15.0319,5.423 1.6175,0 3.5202,-0.2853 z m 79.8216,-53.8488 q -1.9979,-4.5668 -6.7549,-7.7061 -4.7569,-3.2349 -11.9876,-3.2349 -4.947,0 -9.0381,1.7124 -4.0909,1.7125 -6.4694,4.7571 -2.3786,2.9492 -2.3786,6.5646 0,2.6638 1.2369,5.2326 1.8076,3.52 5.8986,5.8034 4.1861,2.1881 11.7022,5.0425 5.8985,2.1881 9.6089,3.9959 3.7106,1.7124 6.755,4.3765 3.1395,2.6636 4.3765,6.279 0.6658,1.9027 0.6658,4.3763 0,4.3765 -2.6639,8.4674 -2.5688,4.0909 -7.8965,6.7549 -5.2327,2.5688 -12.8439,2.5688 -11.9875,0 -18.4569,-5.0425 -6.4694,-5.0424 -7.8014,-12.3679 l 1.7126,-0.094 q 1.9978,6.3742 7.7061,10.846 5.8035,4.3762 15.2222,4.3762 4.7572,0 8.182,-1.7123 3.5203,-1.7126 5.3278,-4.4716 1.8078,-2.7591 1.8078,-5.8987 0,-3.3299 -2.0932,-6.089 -2.5687,-3.3296 -6.6597,-5.518 -3.9957,-2.1881 -10.9409,-4.8521 -6.6599,-2.6638 -10.4654,-4.6617 -3.8055,-1.9979 -6.4694,-5.2327 -2.664,-3.3298 -2.664,-8.2772 0,-5.2324 3.2348,-9.5139 3.2349,-4.2811 9.0383,-6.7548 5.8986,-2.4735 13.3193,-2.4735 1.9981,0 2.9494,0.094 7.7063,0.4757 12.3682,4.1863 4.7568,3.6152 6.3743,8.4672 z m 64.5042,-12.2729 q -0.3805,13.4145 -0.3805,33.2986 0,19.6938 0.3805,33.2987 h -9.8944 q 0.3805,-12.4633 0.3805,-30.4445 h -34.2501 q 0,17.9812 0.3806,30.4445 h -9.8944 q 0.4757,-16.9348 0.4757,-33.2987 0,-16.4589 -0.4757,-33.2986 h 9.8944 q -0.3806,17.125 -0.3806,27.6855 v 6.2791 h 34.2501 v -6.2791 q 0,-10.5605 -0.3805,-27.6855 z m 48.9014,67.4536 q -3.6153,0.4755 -6.2791,0.4755 -10.9409,0 -19.0279,-5.2326 -7.9916,-5.2325 -12.1777,-13.6048 -4.0911,-8.3721 -4.0911,-17.6007 0,-8.3724 3.4251,-15.6028 3.5201,-7.2305 10.5605,-11.9876 7.1352,-4.7569 17.3151,-5.4228 0.9515,-0.094 2.8542,-0.094 10.9412,0 18.8377,5.2326 7.9916,5.1374 12.0826,13.5098 4.091,8.277 4.091,17.5055 0,7.8966 -3.1395,14.9368 -3.0445,7.0404 -9.3237,11.8925 -6.1841,4.7569 -15.1272,5.9937 z m -0.4757,-1.3319 q 6.1842,-0.8563 10.4653,-4.9473 4.2814,-4.1862 6.3743,-10.3701 2.093,-6.2791 2.093,-13.5099 0,-9.5139 -3.4249,-18.3618 -3.425,-8.8479 -9.9896,-14.1758 -6.4695,-5.4228 -15.1272,-4.8521 -7.4208,0.4758 -12.4631,4.5667 -5.0423,3.9959 -7.516,10.4655 -2.3785,6.3743 -2.3785,13.9854 0,9.2284 3.4252,17.886 3.52,8.6577 9.9894,14.1757 6.4696,5.423 15.032,5.423 1.6175,0 3.5201,-0.2853 z m 62.126,-66.1217 q 8.0867,0 13.8901,3.1396 5.8987,3.0444 8.9432,8.0868 3.0443,4.9471 3.0443,10.5603 0,5.3279 -2.9492,9.9897 -2.8541,4.6617 -8.6577,7.6112 -5.8034,2.8541 -14.1758,2.8541 h -15.1271 q 0,9.3236 0.3806,24.3556 h -9.8944 q 0.4757,-16.9348 0.4757,-33.2987 0,-16.4589 -0.4757,-33.2986 h 9.8944 z m -1.9981,40.2436 q 6.089,0 10.3701,-2.5686 4.2813,-2.6639 6.3743,-6.8499 2.1882,-4.2815 2.1882,-9.1333 0,-5.0425 -2.2831,-9.514 -2.1882,-4.5666 -6.4696,-7.3257 -4.2813,-2.759 -10.275,-2.759 l -12.6535,0.094 q -0.2855,12.939 -0.2855,28.2564 v 9.7993 z"
         id="text6"
         style="font-size:59.445px;line-height:1;font-family:BROLIMO;-inkscape-font-specification:BROLIMO;fill:#1a1a1a;fill-opacity:1;stroke-width:0.264582"
         aria-label="GIMP, PHOTOSHOP&#10;" /><g
         id="g20"
         transform="translate(0.60620117,219.48413)"><g
           id="g52"
           transform="translate(0,57.271201)"
           style="stroke:#abc2bd;stroke-width:20;stroke-linecap:round;stroke-linejoin:round;stroke-dasharray:none;stroke-opacity:1"><path
             id="path31"
             style="color:#000000;fill:#abc2bd;stroke:#abc2bd;stroke-width:20;stroke-linecap:round;stroke-linejoin:round;stroke-dasharray:none;stroke-opacity:1"
             d="m 4502.5822,4804.7353 c -14.684,0.2364 -29.3962,0.7986 -44.1348,1.727 -113.7955,7.1682 -212.4165,70.9853 -311.322,71.1403 -36.6663,0.058 -74.6348,-13.8839 -114.8871,-28.3962 -40.2521,-14.5121 -82.9966,-29.6309 -129.6934,-26.1177 -34.5772,2.6013 -75.1281,19.2406 -109.1365,34.7854 -34.0082,15.5448 -60.6505,30.5486 -60.6505,30.5486 l 19.4691,34.5844 c 0,0 25.3224,-14.2462 57.6812,-29.037 32.3588,-14.7908 72.5779,-29.5718 95.6154,-31.305 36.1258,-2.7178 73.4156,9.5139 113.254,23.877 39.8387,14.3631 82.0197,30.8207 128.4103,30.748 114.7887,-0.1799 214.2795,-64.9542 313.7555,-71.2204 225.2029,-14.1861 452.7731,64.1026 688.0019,67.9121 1.6122,0.026 3.7852,0.1365 5.425,0.168 v -39.7051 c -1.4646,-0.028 -3.3365,-0.1234 -4.7821,-0.1468 -212.479,-3.441 -426.7455,-73.1075 -647.006,-69.5626 z" /></g><circle
           style="fill:#abc2bd;fill-opacity:1;stroke:#abc2bd;stroke-width:20;stroke-linecap:round;stroke-linejoin:round;stroke-miterlimit:4.7;stroke-dasharray:none;stroke-opacity:1"
           id="path5-1-0"
           cx="5154.3701"
           cy="4951.5635"
           r="19.857384" /><circle
           style="fill:#abc2bd;fill-opacity:1;stroke:#abc2bd;stroke-width:20;stroke-linecap:round;stroke-linejoin:round;stroke-miterlimit:4.7;stroke-dasharray:none;stroke-opacity:1"
           id="circle5"
           cx="3741.8862"
           cy="4963.2881"
           r="19.857384" /><path
           id="path12"
           style="color:#000000;fill:#d3dedc;fill-opacity:1;stroke-width:3;stroke-dasharray:none;filter:url(#filter22)"
           d="m 4502.582,4865.2784 c -14.684,0.2364 -29.3962,0.7981 -44.1348,1.7265 -113.7955,7.1682 -212.4165,70.9853 -311.322,71.1403 -36.6663,0.058 -74.6348,-13.8839 -114.8871,-28.3962 -40.2521,-14.5122 -82.9966,-29.6304 -129.6934,-26.1172 -34.5772,2.6013 -75.1281,19.2401 -109.1364,34.7849 -34.0083,15.5448 -60.6506,30.549 -60.6506,30.549 l 19.4691,14.6994 c 0,0 25.3225,-14.2462 57.6812,-29.037 32.3588,-14.7908 72.5779,-29.5718 95.6154,-31.305 36.1258,-2.7178 73.4156,9.5139 113.254,23.8771 39.8387,14.363 82.0197,30.8206 128.4103,30.7479 114.7887,-0.1799 214.2795,-64.9542 313.7555,-71.2204 225.2029,-14.1861 452.7731,64.1026 688.002,67.9121 1.6121,0.026 16.3551,0.2827 17.9949,0.3142 v -19.8205 c -1.4646,-0.028 -15.9064,-0.2696 -17.3521,-0.293 -212.479,-3.441 -426.7455,-73.107 -647.006,-69.5621 z"
           sodipodi:nodetypes="sscscsccsccssscccs" /></g></g><g
       id="g7"
       transform="translate(0,-55.956066)"><path
         d="m 3775.7909,5435.561 q 7.0404,0.1903 12.1779,2.7591 5.2326,2.4736 7.9917,6.4695 2.7589,3.9958 2.7589,8.4674 0,4.5666 -3.0444,8.5625 -2.9494,3.9007 -9.0382,6.3744 -6.0889,2.3784 -14.9368,2.3784 h -29.2077 q 0.4757,-16.9348 0.4757,-33.2987 0,-16.459 -0.4757,-33.2986 h 25.6875 q 7.6111,0 12.8438,2.3784 5.3278,2.3784 7.8964,6.1839 2.5688,3.7105 2.5688,7.9916 0,3.7107 -1.9027,7.0405 -1.8075,3.2348 -5.4229,5.4228 -3.5202,2.1883 -8.3723,2.5688 z m -23.4994,-29.3979 q -0.2854,13.1291 -0.2854,28.3515 h 13.1293 q 5.2327,0 9.1333,-2.0932 3.9006,-2.093 5.9936,-5.4227 2.0932,-3.425 2.0932,-7.1355 0,-3.6154 -2.1882,-6.755 -2.0931,-3.1396 -6.4694,-5.0424 -4.3763,-1.9978 -10.9409,-1.9978 z m 13.9855,62.5064 q 7.4209,0 12.6535,-2.1882 5.3278,-2.2833 7.9918,-5.8986 2.6638,-3.6153 2.6638,-7.7064 0,-4.1861 -2.8542,-7.8965 -2.7591,-3.8055 -8.2771,-6.0889 -5.4229,-2.2834 -13.2244,-2.2834 l -13.2243,0.094 v 6.0888 q 0,13.7951 0.2854,25.7826 z m 83.8174,-0.2854 v 2.1882 h -42.8124 q 0.4755,-16.9348 0.4755,-33.2987 0,-16.459 -0.4755,-33.2986 h 9.8943 q -0.4755,17.1249 -0.4755,33.679 0,11.8925 0.3804,30.9201 z m 52.3267,0 v 2.1882 h -44.7154 q 0.4756,-16.9348 0.4756,-33.2987 0,-16.459 -0.4756,-33.2986 h 42.3369 v 2.093 h -32.5376 q -0.2853,12.9389 -0.2853,27.9709 v 6.5645 h 23.4992 v 2.1883 h -23.4992 q 0,13.7952 0.2853,25.7824 z m 56.7027,-64.4091 h 2.1885 v 66.5973 h -3.0446 q -5.8035,-8.2771 -14.5564,-19.0279 -8.7527,-10.7507 -23.4041,-28.2563 l -8.087,-9.7042 v 56.9884 h -2.1881 v -66.5973 h 7.5161 q 5.6131,7.8013 11.9875,15.8882 6.4694,7.9915 16.3639,19.9792 8.5624,10.3702 13.2242,16.1736 z m 34.5356,0 q 10.6556,0 18.2666,4.7568 7.7063,4.757 11.6071,12.4632 3.9006,7.6112 3.9006,16.1737 0,8.6576 -3.9958,16.2688 -3.9007,7.6112 -11.7974,12.273 -7.8965,4.6618 -19.1228,4.6618 h -12.7486 -9.8945 q 0.4756,-16.9348 0.4756,-33.2987 0,-16.459 -0.4756,-33.2986 h 9.8945 z m -4.4716,64.5991 q 9.3237,0 15.8883,-4.3761 6.6597,-4.4716 9.9897,-11.6071 3.3295,-7.2304 3.3295,-15.4124 0,-8.0868 -3.3295,-15.2224 -3.2349,-7.1355 -9.6093,-11.5116 -6.3742,-4.3765 -15.3172,-4.3765 l -10.4655,0.094 q -0.3806,19.2181 -0.3806,31.2057 0,11.9876 0.3806,31.2055 z m 92.4753,-0.19 v 2.1882 h -44.7156 q 0.4757,-16.9348 0.4757,-33.2987 0,-16.459 -0.4757,-33.2986 h 42.3369 v 2.093 h -32.5375 q -0.2853,12.9389 -0.2853,27.9709 v 6.5645 h 23.4993 v 2.1883 h -23.4993 q 0,13.7952 0.2853,25.7824 z m 43.3833,-23.4043 q 5.3279,1.7126 8.4673,5.3279 3.2347,3.6151 6.7549,9.609 2.759,4.757 4.852,7.2307 2.0931,2.4735 5.1376,3.4249 -3.5202,1.3318 -7.1355,1.3318 -5.6132,0 -8.4673,-3.8055 -1.0465,-1.0465 -1.9028,-2.5688 -0.7611,-1.6174 -2.2833,-4.9471 -1.9028,-4.2813 -3.425,-7.0404 -1.4271,-2.759 -3.8056,-4.9471 -2.3784,-2.1882 -5.6132,-2.6641 h -0.2854 -18.5522 q 0,9.4188 0.3807,24.6412 h -9.8947 q 0.4759,-16.9348 0.4759,-33.2987 0,-16.459 -0.4759,-33.2986 h 9.8947 15.6979 q 8.0866,0 13.8903,3.1395 5.8034,3.0444 8.7527,8.0868 2.9493,4.9472 2.9493,10.5605 0,6.5645 -3.9958,11.8922 -3.9959,5.3279 -11.4166,7.3258 z m -25.9731,-38.8167 q -0.2854,12.9389 -0.2854,28.066 v 9.7042 h 15.8883 q 0.8561,-0.095 2.3785,-0.095 4.5666,-0.4758 7.8013,-3.1396 3.3298,-2.6639 4.9473,-6.6598 1.7125,-3.9958 1.7125,-8.4673 0,-5.0425 -2.1882,-9.5138 -2.093,-4.4716 -6.3745,-7.2306 -4.1858,-2.7591 -10.1798,-2.7591 z"
         id="text12"
         style="font-size:59.445px;line-height:1;font-family:BROLIMO;-inkscape-font-specification:BROLIMO;fill:#1a1a1a;fill-opacity:1;stroke-width:0.264582;stroke-linejoin:round"
         aria-label="BLENDER" /><g
         id="g19"
         transform="translate(0.60644531,444.06638)"><g
           id="g51"
           transform="translate(0,84.400364)"
           style="stroke:#abc2bd;stroke-width:20;stroke-linejoin:round;stroke-dasharray:none;stroke-opacity:1"><path
             id="path32"
             style="color:#000000;fill:#abc2bd;stroke:#abc2bd;stroke-width:20;stroke-linejoin:round;stroke-dasharray:none;stroke-opacity:1"
             d="m 4502.582,4980.23 c -14.684,0.2363 -29.3962,0.7988 -44.1348,1.7271 -113.7951,7.1682 -212.4167,70.9852 -311.322,71.1403 -36.6663,0.058 -74.6343,-13.8839 -114.8866,-28.3962 -40.2519,-14.5121 -82.9967,-29.6311 -129.6933,-26.1178 -34.5773,2.6013 -75.1288,19.2407 -109.1371,34.7855 -34.0082,15.5447 -60.6505,30.5485 -60.6505,30.5485 l 19.4691,34.5845 c 0,0 25.3224,-14.2461 57.6812,-29.037 32.3588,-14.7908 72.5779,-29.5719 95.6154,-31.3051 36.1256,-2.7178 73.4158,9.5141 113.254,23.8771 39.8387,14.3631 82.0197,30.8207 128.4103,30.748 114.7885,-0.1799 214.2797,-64.9542 313.7555,-71.2204 57.4281,-3.6176 115.0322,-1.0943 172.869,4.5459 v -40.2817 c -43.5297,-4.0187 -87.2559,-6.3064 -131.2302,-5.5987 z" /></g><circle
           style="fill:#abc2bd;fill-opacity:1;stroke:#abc2bd;stroke-width:20;stroke-linecap:round;stroke-linejoin:round;stroke-miterlimit:4.7;stroke-dasharray:none;stroke-opacity:1"
           id="path5-1-0-9"
           cx="4633.5156"
           cy="5090.3564"
           r="20.154688" /><circle
           style="fill:#abc2bd;fill-opacity:1;stroke:#abc2bd;stroke-width:20;stroke-linecap:round;stroke-linejoin:round;stroke-miterlimit:4.7;stroke-dasharray:none;stroke-opacity:1"
           id="circle6"
           cx="3741.886"
           cy="5165.9312"
           r="19.857384" /><path
           id="path38"
           style="color:#000000;mix-blend-mode:normal;fill:#d3dedc;fill-opacity:1;stroke-width:3;stroke-linejoin:round;stroke-dasharray:none;filter:url(#filter23)"
           d="m 4502.582,5068.6337 c -14.684,0.2364 -29.3962,0.7981 -44.1348,1.7265 -113.7953,7.1682 -212.4166,70.9854 -311.322,71.1404 -36.6663,0.058 -74.6348,-13.8839 -114.8871,-28.3962 -40.252,-14.5122 -82.9966,-29.6305 -129.6934,-26.1173 -34.5771,2.6013 -75.1282,19.2402 -109.1364,34.785 -34.0083,15.5448 -60.6506,30.549 -60.6506,30.549 l 19.4691,14.6994 c 0,0 25.3226,-14.2462 57.6812,-29.037 32.3588,-14.7908 72.5779,-29.5719 95.6154,-31.3051 36.1257,-2.7178 73.4157,9.5139 113.254,23.8771 39.8387,14.363 82.0197,30.8207 128.4103,30.748 114.7886,-0.1799 214.2796,-64.9542 313.7555,-71.2204 57.6139,-3.6293 128.7617,-0.093 186.7741,5.5865 v -20.3161 c -43.7051,-4.0499 -100.9824,-7.4304 -145.1353,-6.7198 z"
           sodipodi:nodetypes="sscsssccsscssccs" /></g></g><g
       id="g6"
       transform="translate(0,-82.303289)"><path
         d="m 3795.7702,5828.5236 q -0.3806,13.4145 -0.3806,33.2986 0,19.6938 0.3806,33.2987 h -9.8944 q 0.3804,-12.4631 0.3804,-30.4444 h -34.2501 q 0,17.9813 0.3807,30.4444 h -9.8945 q 0.4757,-16.9347 0.4757,-33.2987 0,-16.4591 -0.4757,-33.2986 h 9.8945 q -0.3807,17.125 -0.3807,27.6855 v 6.2791 h 34.2501 v -6.2791 q 0,-10.5605 -0.3804,-27.6855 z m 66.502,2.0929 h -24.4507 q -0.3804,19.0279 -0.3804,30.8251 0,16.5544 0.4757,33.6793 h -9.8945 q 0.4757,-17.1249 0.4757,-33.6793 0,-11.7972 -0.3808,-30.8251 h -24.7361 v -2.0929 h 58.8911 z m 71.9254,-2.0929 q -0.3806,20.1695 -0.3806,33.2986 0,12.9389 0.3806,33.2987 h -9.7994 q 0.3805,-12.939 0.3805,-31.8715 0,-15.4126 -0.2853,-28.9225 l -24.6411,60.7939 h -2.854 q -5.2328,-13.7 -16.6495,-41.2905 -6.6597,-15.9832 -8.182,-19.884 v 61.1745 h -2.1881 v -66.5973 h 10.5604 q 4.7569,12.7486 8.9431,23.1187 4.281,10.3701 10.941,26.068 0.3806,0.9515 0.9513,2.1884 0.5708,1.2366 1.1418,2.759 l 21.8819,-53.944 v -0.1902 z m 51.375,64.4091 v 2.1882 H 3942.76 q 0.4757,-16.9347 0.4757,-33.2987 0,-16.4591 -0.4757,-33.2986 h 9.8946 q -0.4758,17.125 -0.4758,33.6792 0,11.8923 0.3805,30.9202 z m 10.5605,9.4188 h -2.9493 l 2.9493,-13.0342 h 5.9938 z m 94.4733,-23.4043 q -2.5689,6.9451 -9.2286,11.7971 -6.6598,4.8524 -17.1251,4.8524 -11.3215,0 -19.4084,-4.7572 -7.9915,-4.8521 -12.0826,-12.5583 -3.9959,-7.8014 -3.9959,-16.5542 0,-8.7529 3.9959,-16.459 4.0911,-7.8015 11.9876,-12.5585 7.9917,-4.8521 19.1229,-4.8521 11.0362,0 17.6959,4.8521 6.6596,4.8521 8.8479,11.7973 l -6.5646,0.095 q -1.8078,-6.3743 -6.7549,-10.7506 -4.8521,-4.4716 -12.6535,-4.4716 -8.5624,0 -14.5564,4.186 -5.8986,4.0911 -8.9429,10.941 -2.9493,6.755 -2.9493,14.6515 0,7.9917 3.0444,15.3174 3.0445,7.3259 8.9431,12.178 5.9937,4.852 14.1757,5.6131 1.2367,0.1902 3.6154,0.1902 7.8964,0 13.3193,-3.9004 5.4229,-3.996 7.8015,-9.7044 z m 53.7536,-38.1508 q -1.998,-4.5666 -6.7549,-7.7063 -4.7571,-3.2348 -11.9876,-3.2348 -4.9472,0 -9.0382,1.7126 -4.091,1.7123 -6.4694,4.7568 -2.3785,2.9495 -2.3785,6.565 0,2.6636 1.2367,5.2324 1.8077,3.5201 5.8987,5.8035 4.1861,2.1882 11.7021,5.0424 5.8986,2.1882 9.6091,3.9958 3.7104,1.7126 6.7548,4.3763 3.1397,2.664 4.3765,6.2793 0.6659,1.9027 0.6659,4.3763 0,4.3764 -2.6639,8.4675 -2.5687,4.0908 -7.8966,6.7547 -5.2325,2.5689 -12.8437,2.5689 -11.9876,0 -18.4569,-5.0426 -6.4697,-5.0423 -7.8015,-12.368 l 1.7126,-0.094 q 1.9979,6.3744 7.7062,10.8458 5.8034,4.3765 15.2223,4.3765 4.7569,0 8.1818,-1.7125 3.5202,-1.7124 5.3279,-4.4715 1.8076,-2.759 1.8076,-5.8986 0,-3.3299 -2.093,-6.0889 -2.5688,-3.33 -6.6598,-5.5181 -3.9958,-2.1882 -10.9408,-4.8522 -6.6599,-2.6638 -10.4656,-4.6618 -3.8056,-1.998 -6.4693,-5.2326 -2.6638,-3.33 -2.6638,-8.2771 0,-5.2327 3.2346,-9.5138 3.2348,-4.2813 9.0382,-6.755 5.8987,-2.4736 13.3195,-2.4736 1.9979,0 2.9493,0.094 7.7062,0.4757 12.3681,4.1862 4.757,3.6153 6.3744,8.4673 z m 57.2736,0 q -1.9978,-4.5666 -6.7549,-7.7063 -4.757,-3.2348 -11.9877,-3.2348 -4.9471,0 -9.038,1.7126 -4.0911,1.7123 -6.4694,4.7568 -2.3786,2.9495 -2.3786,6.565 0,2.6636 1.2368,5.2324 1.8075,3.5201 5.8985,5.8035 4.1862,2.1882 11.7022,5.0424 5.8988,2.1882 9.6091,3.9958 3.7105,1.7126 6.7547,4.3763 3.1398,2.664 4.3766,6.2793 0.666,1.9027 0.666,4.3763 0,4.3764 -2.664,8.4675 -2.5688,4.0908 -7.8965,6.7547 -5.2327,2.5689 -12.8438,2.5689 -11.9874,0 -18.457,-5.0426 -6.4696,-5.0423 -7.8014,-12.368 l 1.7125,-0.094 q 1.998,6.3744 7.7063,10.8458 5.8034,4.3765 15.2224,4.3765 4.7568,0 8.1816,-1.7125 3.5204,-1.7124 5.328,-4.4715 1.8075,-2.759 1.8075,-5.8986 0,-3.3299 -2.0929,-6.0889 -2.5689,-3.33 -6.6596,-5.5181 -3.996,-2.1882 -10.9411,-4.8522 -6.6597,-2.6638 -10.4653,-4.6618 -3.8056,-1.998 -6.4696,-5.2326 -2.6638,-3.33 -2.6638,-8.2771 0,-5.2327 3.2348,-9.5138 3.2347,-4.2813 9.0381,-6.755 5.8986,-2.4736 13.3195,-2.4736 1.9979,0 2.9492,0.094 7.7063,0.4757 12.3683,4.1862 4.7568,3.6153 6.3742,8.4673 z"
         id="text13"
         style="font-size:59.445px;line-height:1;font-family:BROLIMO;-inkscape-font-specification:BROLIMO;fill:#1a1a1a;fill-opacity:1;stroke-width:0.264582;stroke-linejoin:round"
         aria-label="HTML, CSS" /><g
         id="g18"
         transform="translate(0.45996094,660.52834)"><g
           id="g50"
           transform="translate(0,121.06151)"
           style="stroke:#abc2bd;stroke-width:20;stroke-linejoin:round;stroke-dasharray:none;stroke-opacity:1"><path
             id="path30"
             style="color:#000000;fill:#abc2bd;stroke:#abc2bd;stroke-width:20;stroke-linejoin:round;stroke-dasharray:none;stroke-opacity:1"
             d="m 4502.5822,5155.7253 c -14.684,0.2364 -29.3962,0.7981 -44.1348,1.7265 -113.7955,7.1682 -212.4165,70.9853 -311.322,71.1403 -36.6663,0.058 -74.6348,-13.8839 -114.8871,-28.3962 -40.2521,-14.5121 -82.9966,-29.6304 -129.6934,-26.1172 -34.5772,2.6013 -75.1281,19.2401 -109.1365,34.7849 -34.0082,15.5447 -60.6505,30.5491 -60.6505,30.5491 l 19.4691,34.5838 c 0,0 25.3224,-14.2461 57.6812,-29.037 32.3588,-14.7908 72.5779,-29.5719 95.6154,-31.3051 36.1258,-2.7177 73.4156,9.5141 113.254,23.8771 39.8387,14.3631 82.0197,30.8207 128.4103,30.748 114.7887,-0.1799 214.2795,-64.9542 313.7555,-71.2204 225.2029,-14.1861 452.7731,64.1026 688.0019,67.9121 52.5084,0.8504 119.7692,4.4584 183.0819,4.6561 v -39.687 c -61.6877,-0.2109 -128.6067,-3.7811 -182.439,-4.653 -212.479,-3.441 -426.7455,-73.107 -647.006,-69.562 z" /></g><circle
           style="fill:#abc2bd;fill-opacity:1;stroke:#abc2bd;stroke-width:20;stroke-linecap:round;stroke-linejoin:round;stroke-miterlimit:4.7;stroke-dasharray:none;stroke-opacity:1"
           id="circle7"
           cx="3742.0325"
           cy="5377.9175"
           r="19.857384" /><circle
           style="fill:#abc2bd;fill-opacity:1;stroke:#abc2bd;stroke-width:20;stroke-linecap:round;stroke-linejoin:round;stroke-miterlimit:4.7;stroke-dasharray:none;stroke-opacity:1"
           id="path5-1-0-3"
           cx="5332.0273"
           cy="5370.8594"
           r="19.857384" /><path
           id="path14"
           style="color:#000000;fill:#d3dedc;fill-opacity:1;stroke-width:3;stroke-linejoin:round;stroke-dasharray:none;filter:url(#filter24)"
           d="m 4502.582,5279.4329 c -14.684,0.2363 -29.3962,0.7981 -44.1348,1.7265 -113.7955,7.1682 -212.4165,70.9853 -311.322,71.1403 -36.6663,0.058 -74.6348,-13.8839 -114.8871,-28.3962 -40.2521,-14.5122 -82.9966,-29.6304 -129.6934,-26.1172 -34.5772,2.6012 -75.1281,19.2401 -109.1364,34.7849 -34.0083,15.5448 -60.6506,30.549 -60.6506,30.549 l 19.4691,14.6994 c 0,0 25.3225,-14.2462 57.6812,-29.037 32.3588,-14.7908 72.5779,-29.5718 95.6154,-31.305 36.1258,-2.7178 73.4156,9.5139 113.254,23.8771 39.8387,14.363 82.0197,30.8206 128.4103,30.7479 114.7887,-0.1799 214.2795,-64.9542 313.7555,-71.2204 225.2029,-14.1861 452.7731,64.1026 688.002,67.9121 56.5763,0.9163 130.4068,5.1568 197.8039,4.7238 v -19.7988 c -65.5101,0.4271 -139.0518,-3.7832 -197.1611,-4.7243 -212.479,-3.441 -426.7455,-73.107 -647.006,-69.5621 z" /></g></g><g
       id="g5"
       transform="translate(0,-110.64972)"><path
         d="m 3749.5325,6310.441 q 0.4758,5.8037 3.2347,10.1799 2.8543,4.2815 9.0382,4.2815 7.1355,0 9.7043,-5.7084 2.5687,-5.7083 2.5687,-16.5543 0,-29.2078 -0.4757,-43.764 h 9.4187 v 43.6689 q 0,8.943 -2.4735,14.0805 -2.4737,5.1377 -7.1354,7.2308 -4.6618,1.9977 -11.6071,1.9977 -9.3235,0 -14.0806,-4.2812 -4.6618,-4.3764 -5.2325,-11.1314 z m 80.9634,15.1272 q -2.664,-7.8013 -7.0403,-19.5035 -0.3805,-1.332 -1.0465,-3.0444 h -24.1654 l -8.0868,22.5479 h -2.3783 l 23.7845,-66.5972 h 4.4716 q 14.7465,41.0049 25.1166,66.5972 z m -31.491,-24.736 h 22.5479 q -4.9472,-13.4149 -11.6069,-30.7301 z m 87.4328,-41.8612 h 2.3786 l -23.7848,66.5972 h -4.4715 q -7.9917,-21.9771 -13.795,-37.2946 -5.7084,-15.4124 -11.3218,-29.3026 h 10.6555 q 5.328,15.5075 14.9369,40.9096 l 5.5181,14.6516 z m 39.3877,66.5972 q -2.6638,-7.8013 -7.0403,-19.5035 -0.3805,-1.332 -1.0465,-3.0444 h -24.1653 l -8.0867,22.5479 h -2.3786 l 23.7849,-66.5972 h 4.4715 q 14.7464,41.0049 25.1167,66.5972 z m -31.4911,-24.736 h 22.5481 q -4.9471,-13.4149 -11.607,-30.7301 z m 91.9998,-29.5883 q -1.9982,-4.5668 -6.7549,-7.7064 -4.7571,-3.2347 -11.9876,-3.2347 -4.9473,0 -9.0382,1.7125 -4.0911,1.7125 -6.4694,4.757 -2.3787,2.9493 -2.3787,6.5647 0,2.6637 1.2368,5.2326 1.8078,3.5202 5.8987,5.8034 4.1862,2.1883 11.702,5.0425 5.8987,2.1881 9.6093,3.9958 3.7102,1.7126 6.7548,4.3763 3.1395,2.6639 4.3763,6.2793 0.6661,1.9027 0.6661,4.3763 0,4.3763 -2.664,8.4674 -2.5686,4.0909 -7.8965,6.755 -5.2328,2.5687 -12.8437,2.5687 -11.9876,0 -18.457,-5.0424 -6.4696,-5.0425 -7.8014,-12.368 l 1.7125,-0.094 q 1.9978,6.3743 7.7061,10.8457 5.8036,4.3765 15.2223,4.3765 4.757,0 8.182,-1.7125 3.5201,-1.7126 5.3278,-4.4716 1.8077,-2.759 1.8077,-5.8986 0,-3.33 -2.093,-6.0891 -2.5688,-3.3296 -6.6599,-5.5177 -3.9959,-2.1884 -10.9409,-4.8523 -6.6598,-2.664 -10.4654,-4.6618 -3.8056,-1.9979 -6.4695,-5.2326 -2.6639,-3.3299 -2.6639,-8.2771 0,-5.2327 3.2348,-9.514 3.2346,-4.2812 9.0383,-6.7549 5.8986,-2.4736 13.3195,-2.4736 1.9977,0 2.9492,0.095 7.7062,0.4758 12.368,4.1863 4.7571,3.6153 6.3746,8.4673 z m 71.1638,38.1506 q -2.5688,6.9452 -9.2285,11.7974 -6.6599,4.8521 -17.1251,4.8521 -11.3216,0 -19.4083,-4.7571 -7.9917,-4.852 -12.0826,-12.5583 -3.9959,-7.8014 -3.9959,-16.5542 0,-8.7528 3.9959,-16.459 4.0909,-7.8015 11.9874,-12.5583 7.9917,-4.8522 19.123,-4.8522 11.0361,0 17.696,4.8522 6.6595,4.8518 8.8478,11.7971 l -6.5647,0.094 q -1.8076,-6.3743 -6.7547,-10.7507 -4.8522,-4.4716 -12.6535,-4.4716 -8.5627,0 -14.5562,4.1862 -5.8988,4.0909 -8.9432,10.9409 -2.9493,6.7549 -2.9493,14.6516 0,7.9914 3.0444,15.3171 3.0443,7.3258 8.943,12.178 5.9938,4.8522 14.1758,5.6132 1.2367,0.1902 3.6153,0.1902 7.8965,0 13.3194,-3.9005 5.423,-3.996 7.8014,-9.7043 z m 43.4787,-9.4186 q 5.3278,1.7124 8.4673,5.3278 3.2346,3.6153 6.7548,9.6089 2.7591,4.757 4.8522,7.2307 2.093,2.4736 5.1375,3.4249 -3.5202,1.332 -7.1355,1.332 -5.6131,0 -8.4673,-3.8056 -1.0466,-1.0466 -1.9029,-2.5687 -0.7611,-1.6174 -2.2832,-4.9474 -1.9028,-4.2812 -3.4251,-7.0402 -1.4272,-2.7591 -3.8055,-4.9472 -2.3786,-2.1882 -5.6132,-2.6639 h -0.2855 -18.5522 q 0,9.4188 0.3807,24.641 h -9.8946 q 0.4758,-16.9347 0.4758,-33.2987 0,-16.459 -0.4758,-33.2985 h 9.8946 15.6979 q 8.0868,0 13.8904,3.1395 5.8034,3.0444 8.7528,8.0868 2.9492,4.9472 2.9492,10.5604 0,6.5646 -3.9958,11.8925 -3.9958,5.3276 -11.4166,7.3257 z m -25.9731,-38.8168 q -0.2855,12.9389 -0.2855,28.066 v 9.7043 h 15.8885 q 0.8562,-0.095 2.3783,-0.095 4.5666,-0.4757 7.8015,-3.1398 3.3297,-2.6636 4.9471,-6.6596 1.7126,-3.9957 1.7126,-8.4673 0,-5.0422 -2.1882,-9.5138 -2.0932,-4.4715 -6.3744,-7.2306 -4.186,-2.759 -10.1798,-2.759 z m 67.7391,-2.1881 q -0.3805,13.4144 -0.3805,33.2985 0,19.6939 0.3805,33.2987 h -9.8944 q 0.4756,-16.9347 0.4756,-33.2987 0,-16.459 -0.4756,-33.2985 z m 33.1084,0 q 8.0869,0 13.8904,3.1395 5.8985,3.0444 8.943,8.0868 3.0446,4.9472 3.0446,10.5604 0,5.3278 -2.9494,9.9896 -2.8542,4.6619 -8.6577,7.6112 -5.8035,2.8542 -14.1757,2.8542 h -15.1272 q 0,9.3237 0.3806,24.3555 h -9.8945 q 0.4757,-16.9347 0.4757,-33.2987 0,-16.459 -0.4757,-33.2985 h 9.8945 z m -1.9979,40.2437 q 6.0888,0 10.3702,-2.5688 4.2812,-2.6638 6.3744,-6.8499 2.1879,-4.2814 2.1879,-9.1335 0,-5.0424 -2.2832,-9.5139 -2.1882,-4.5665 -6.4694,-7.3256 -4.2812,-2.759 -10.2749,-2.759 l -12.6537,0.094 q -0.2854,12.9388 -0.2854,28.2564 v 9.7991 z m 85.7202,-38.1507 h -24.4507 q -0.3806,19.0279 -0.3806,30.8248 0,16.5544 0.4757,33.6794 h -9.8943 q 0.4756,-17.125 0.4756,-33.6794 0,-11.7969 -0.3807,-30.8248 h -24.7361 v -2.093 h 58.8911 z"
         id="text14"
         style="font-size:59.445px;line-height:1;font-family:BROLIMO;-inkscape-font-specification:BROLIMO;fill:#1a1a1a;fill-opacity:1;stroke-width:0.264582;stroke-linejoin:round"
         aria-label="JAVASCRIPT" /><g
         id="g17"
         transform="translate(0.60620117,889.60928)"><g
           id="g2"
           transform="translate(0,144.50524)"
           style="stroke:#abc2bd;stroke-width:20;stroke-linejoin:round;stroke-dasharray:none;stroke-opacity:1"><path
             id="path2"
             style="color:#000000;fill:#abc2bd;stroke:#abc2bd;stroke-width:20;stroke-linejoin:round;stroke-dasharray:none;stroke-opacity:1"
             d="m 4502.582,5331.22 c -14.684,0.2364 -29.3962,0.7986 -44.1348,1.727 -113.7951,7.1681 -212.4167,70.9854 -311.322,71.1404 -36.6663,0.058 -74.6339,-13.884 -114.8861,-28.3962 -40.2519,-14.5121 -82.9967,-29.631 -129.6933,-26.1178 -34.5773,2.6013 -75.1292,19.2407 -109.1376,34.7854 -34.0081,15.5448 -60.65,30.5486 -60.65,30.5486 l 19.4691,34.5844 c 0,0 25.3225,-14.2462 57.6812,-29.037 32.3588,-14.7907 72.5779,-29.5718 95.6154,-31.305 36.1256,-2.7178 73.4158,9.514 113.2541,23.8771 39.8385,14.3631 82.0191,30.8207 128.4097,30.748 114.7885,-0.1799 214.2797,-64.9544 313.7555,-71.2205 93.5602,-5.8936 187.5485,4.2562 282.3058,18.3115 v -40.8326 c -79.5498,-11.5395 -159.6964,-20.1165 -240.667,-18.8133 z" /></g><circle
           style="fill:#abc2bd;fill-opacity:1;stroke:#abc2bd;stroke-width:20;stroke-linecap:round;stroke-linejoin:round;stroke-miterlimit:4.7;stroke-dasharray:none;stroke-opacity:1"
           id="circle8"
           cx="3741.8862"
           cy="5577.0386"
           r="19.857384" /><path
           style="fill:#abc2bd;fill-opacity:1;stroke:#abc2bd;stroke-width:20;stroke-linecap:butt;stroke-linejoin:round;stroke-dasharray:none;stroke-opacity:1"
           d="m 4743.249,5494.5385 c -5.345,0 -10.657,2.2003 -14.4365,5.9798 -3.7795,3.7795 -5.9798,9.0915 -5.9798,14.4365 0,5.345 2.2003,10.657 5.9798,14.4365 3.7795,3.7795 9.0915,5.9798 14.4365,5.9798 5.345,0 10.657,-2.2003 14.4365,-5.9798 3.7795,-3.7795 5.9798,-9.0915 5.9798,-14.4365 0,-5.345 -2.2003,-10.657 -5.9798,-14.4365 -3.7795,-3.7795 -9.0915,-5.9798 -14.4365,-5.9798 z"
           id="path10"
           inkscape:path-effect="#path-effect10"
           inkscape:original-d="m 4743.249,5494.5385 c 0,-13.6108 0,27.2218 0,40.8326 0,13.6109 0,-27.2217 0,-40.8326 z" /><path
           id="path17"
           style="color:#000000;fill:#d3dedc;fill-opacity:1;stroke-width:3;stroke-linejoin:round;stroke-dasharray:none;filter:url(#filter25)"
           d="m 4502.582,5478.7995 c -14.684,0.2363 -29.3962,0.7981 -44.1348,1.7265 -113.7953,7.1682 -212.4166,70.9848 -311.322,71.1398 -36.6663,0.058 -74.6348,-13.8839 -114.8871,-28.3962 -40.252,-14.5121 -82.9966,-29.6299 -129.6934,-26.1167 -34.5771,2.6012 -75.1282,19.2402 -109.1364,34.785 -34.0083,15.5447 -60.6506,30.5485 -60.6506,30.5485 l 19.4691,14.6999 c 0,0 25.3226,-14.2468 57.6812,-29.0376 32.3588,-14.7907 72.5779,-29.5713 95.6154,-31.3045 36.1257,-2.7178 73.4157,9.5139 113.254,23.8771 39.8387,14.363 82.0197,30.8202 128.4103,30.7475 114.7886,-0.1799 214.2796,-64.9538 313.7555,-71.22 97.9473,-6.1699 196.3973,5.3818 295.6755,20.4618 v -21.0338 c -83.9457,-12.5326 -168.5304,-22.2535 -254.0367,-20.8773 z" /></g></g><g
       id="g4"
       transform="translate(0,-135.34272)"><path
         d="m 3806.711,6684.4707 q -0.3804,20.1695 -0.3804,33.2987 0,12.9388 0.3804,33.2986 h -9.7993 q 0.3807,-12.9388 0.3807,-31.8714 0,-15.4127 -0.2853,-28.9224 l -24.6413,60.7938 h -2.854 q -5.2327,-13.7 -16.6494,-41.2903 -6.6597,-15.9834 -8.182,-19.8842 v 61.1745 h -2.1881 v -66.5973 h 10.5605 q 4.7568,12.7487 8.943,23.1188 4.2812,10.3701 10.941,26.068 0.3806,0.9515 0.9514,2.1884 0.5708,1.2368 1.1417,2.759 l 21.8818,-53.9439 v -0.1903 z m 53.6584,12.2729 q -1.9978,-4.5667 -6.7548,-7.7062 -4.757,-3.2347 -11.9876,-3.2347 -4.9471,0 -9.0382,1.7124 -4.0908,1.7126 -6.4693,4.7572 -2.3785,2.9493 -2.3785,6.5645 0,2.6638 1.2368,5.2325 1.8076,3.5202 5.8985,5.8036 4.1862,2.1882 11.7023,5.0423 5.8986,2.1881 9.6089,3.9959 3.7105,1.7125 6.755,4.3762 3.1395,2.6641 4.3764,6.2793 0.6658,1.9027 0.6658,4.3764 0,4.3764 -2.6639,8.4675 -2.5688,4.0909 -7.8964,6.7548 -5.2327,2.5688 -12.8439,2.5688 -11.9875,0 -18.4569,-5.0425 -6.4696,-5.0424 -7.8015,-12.3679 l 1.7126,-0.095 q 1.9979,6.3743 7.7063,10.8458 5.8034,4.3764 15.2222,4.3764 4.757,0 8.1819,-1.7125 3.5203,-1.7123 5.3278,-4.4715 1.8077,-2.7589 1.8077,-5.8987 0,-3.3297 -2.0931,-6.0888 -2.5687,-3.33 -6.6597,-5.5181 -3.9957,-2.1882 -10.941,-4.852 -6.6598,-2.6639 -10.4653,-4.6619 -3.8055,-1.9978 -6.4694,-5.2326 -2.664,-3.3298 -2.664,-8.2772 0,-5.2327 3.2348,-9.5138 3.2347,-4.2813 9.0381,-6.755 5.8988,-2.4735 13.3195,-2.4735 1.9981,0 2.9493,0.094 7.7064,0.4756 12.3682,4.186 4.7568,3.6153 6.3742,8.4674 z m 71.8302,55.1807 q -3.6155,0.4758 -6.2793,0.4758 -10.9411,0 -19.0277,-5.2329 -7.9917,-5.2324 -12.178,-13.6047 -4.0908,-8.3724 -4.0908,-17.6007 0,-8.3723 3.4249,-15.6029 3.5202,-7.2304 10.5604,-11.9875 7.1355,-4.7569 17.3154,-5.4229 0.9513,-0.095 2.8541,-0.095 10.941,0 18.8377,5.2328 7.9915,5.1375 12.0825,13.5098 4.091,8.2771 4.091,17.5056 0,7.8964 -3.1397,14.9368 -3.0443,7.0402 -9.3236,11.8923 -6.1838,4.757 -15.1269,5.9938 z m -0.4758,-1.3318 q 6.1841,-0.8564 10.4654,-4.9474 4.281,-4.1861 6.3743,-10.3701 2.093,-6.2794 2.093,-13.5097 0,-9.514 -3.4249,-18.3619 -3.4252,-8.8481 -9.9898,-14.1757 -6.4694,-5.4229 -15.127,-4.8522 -7.4209,0.4758 -12.4632,4.5668 -5.0425,3.9958 -7.5161,10.4652 -2.3784,6.3745 -2.3784,13.9855 0,9.2284 3.425,17.8861 3.5201,8.6577 9.9896,14.1758 6.4693,5.4229 15.0321,5.4229 1.6172,0 3.52,-0.2853 z m 47.3792,-64.0287 q -0.2854,12.9388 -0.2854,27.971 v 6.5644 h 23.4994 v 2.1881 h -23.4994 q 0,16.3641 0.3807,27.7807 h -9.8947 q 0.4759,-16.9346 0.4759,-33.2986 0,-16.4592 -0.4759,-33.2987 h 42.3369 v 2.0931 z m 49.948,0 q -0.2854,12.9388 -0.2854,27.971 v 6.5644 h 23.4994 v 2.1881 h -23.4994 q 0,16.3641 0.3807,27.7807 h -9.8947 q 0.4759,-16.9346 0.4759,-33.2986 0,-16.4592 -0.4759,-33.2987 h 42.3369 v 2.0931 z m 50.0431,-2.0931 q -0.3805,13.4146 -0.3805,33.2987 0,19.6937 0.3805,33.2986 h -9.8945 q 0.4758,-16.9346 0.4758,-33.2986 0,-16.4592 -0.4758,-33.2987 z m 70.403,50.4237 q -2.5689,6.9451 -9.2285,11.7972 -6.6597,4.8522 -17.125,4.8522 -11.3216,0 -19.4085,-4.7569 -7.9915,-4.8521 -12.0825,-12.5585 -3.9961,-7.8013 -3.9961,-16.5542 0,-8.7528 3.9961,-16.459 4.091,-7.8015 11.9875,-12.5582 7.9916,-4.8522 19.1228,-4.8522 11.0363,0 17.6959,4.8522 6.66,4.852 8.848,11.7971 l -6.5645,0.095 q -1.8078,-6.3742 -6.755,-10.7507 -4.8521,-4.4716 -12.6535,-4.4716 -8.5624,0 -14.5563,4.1863 -5.8987,4.0908 -8.9431,10.9408 -2.9493,6.755 -2.9493,14.6515 0,7.9916 3.0445,15.3174 3.0445,7.3257 8.943,12.1778 5.9939,4.8521 14.1759,5.6131 1.2369,0.1902 3.6153,0.1902 7.8964,0 13.3194,-3.9004 5.423,-3.996 7.8013,-9.7043 z m 52.4216,13.9854 v 2.1882 h -44.7153 q 0.4758,-16.9346 0.4758,-33.2986 0,-16.4592 -0.4758,-33.2987 h 42.3368 v 2.0931 h -32.5375 q -0.2854,12.9388 -0.2854,27.971 v 6.5644 h 23.4994 v 2.1881 h -23.4994 q 0,13.7954 0.2854,25.7829 z"
         id="path1"
         style="font-size:59.445px;line-height:1;font-family:BROLIMO;-inkscape-font-specification:BROLIMO;fill:#1a1a1a;fill-opacity:1;stroke-width:0.264582;stroke-linejoin:round"
         aria-label="MS OFFICE" /><g
         id="g16"
         transform="translate(2.9227973,1104.492)"><g
           id="g3"
           transform="matrix(1.0000001,0,0,0.99844946,-5.8137111e-4,191.65632)"
           style="stroke:#abc2bd;stroke-width:20.0155;stroke-linejoin:round;stroke-dasharray:none;stroke-opacity:1"><path
             id="path3"
             style="color:#000000;fill:#abc2bd;stroke:#abc2bd;stroke-width:20.0155;stroke-linejoin:round;stroke-dasharray:none;stroke-opacity:1"
             d="m 4502.5822,5505.3726 c -14.684,0.2364 -29.3962,0.7987 -44.1348,1.7271 -113.7953,7.1681 -212.4166,70.9853 -311.322,71.1403 -36.6663,0.058 -74.6343,-13.8839 -114.8865,-28.3962 -40.252,-14.5121 -82.9966,-29.631 -129.6933,-26.1178 -34.5773,2.6013 -75.1287,19.2407 -109.1371,34.7855 -34.0082,15.5448 -60.6505,30.5485 -60.6505,30.5485 l 19.4691,34.5845 c 0,0 25.3224,-14.2462 57.6812,-29.037 32.3588,-14.7908 72.5779,-29.5719 95.6154,-31.3051 36.1257,-2.7178 73.4157,9.514 113.254,23.8771 39.8386,14.3631 82.0196,30.8207 128.4102,30.748 114.7886,-0.1799 214.2796,-64.9543 313.7555,-71.2204 140.8903,-8.8751 282.7092,18.4394 426.7481,41.0719 v -40.8161 c -126.8658,-20.2656 -254.9241,-43.6855 -385.1093,-41.5903 z" /></g><circle
           style="fill:#abc2bd;fill-opacity:1;stroke:#abc2bd;stroke-width:20;stroke-linecap:round;stroke-linejoin:round;stroke-miterlimit:4.7;stroke-dasharray:none;stroke-opacity:1"
           id="circle9"
           cx="3741.8862"
           cy="5789.645"
           r="19.857384" /><path
           style="fill:#abc2bd;fill-opacity:1;stroke:#abc2bd;stroke-width:20;stroke-linecap:butt;stroke-linejoin:round;stroke-dasharray:none;stroke-opacity:1"
           d="m 4887.6914,5730.0184 c -5.3345,0 -10.6362,2.196 -14.4083,5.9681 -3.7721,3.7721 -5.9681,9.0738 -5.9681,14.4083 0,5.3345 2.196,10.6362 5.9681,14.4083 3.7721,3.7721 9.0738,5.9681 14.4083,5.9681 5.3345,0 10.6362,-2.196 14.4083,-5.9681 3.7721,-3.7721 5.9681,-9.0738 5.9681,-14.4083 0,-5.3345 -2.196,-10.6362 -5.9681,-14.4083 -3.7721,-3.7721 -9.0738,-5.9681 -14.4083,-5.9681 z"
           id="path11"
           inkscape:path-effect="#path-effect11"
           inkscape:original-d="m 4887.6914,5730.0184 c 0,-13.5843 0,27.1686 0,40.7528 0,13.5843 0,-27.1685 0,-40.7528 z" /><path
           id="path15"
           style="color:#000000;fill:#d3dedc;fill-opacity:1;stroke-width:3;stroke-linejoin:round;stroke-dasharray:none;filter:url(#filter26)"
           d="m 4502.582,5692.1198 c -14.684,0.2363 -29.3962,0.7981 -44.1348,1.7265 -113.7953,7.1682 -212.4166,70.9849 -311.322,71.1399 -36.6663,0.058 -74.6348,-13.884 -114.8871,-28.3962 -40.252,-14.5122 -82.9966,-29.63 -129.6934,-26.1168 -34.5771,2.6012 -75.1282,19.2397 -109.1364,34.7844 -34.0083,15.5448 -60.6506,30.5491 -60.6506,30.5491 l 19.4691,14.6993 c 0,0 25.3226,-14.2462 57.6812,-29.0369 32.3588,-14.7908 72.5779,-29.5714 95.6154,-31.3046 36.1257,-2.7178 73.4157,9.5139 113.254,23.8771 39.8387,14.363 82.0197,30.8202 128.4103,30.7475 114.7886,-0.1799 214.2796,-64.9538 313.7555,-71.22 144.4649,-9.1002 289.9359,19.7474 437.7459,42.6832 v -20.776 c -130.4561,-20.6348 -262.1637,-45.5122 -396.1071,-43.3565 z" /></g></g><g
       id="g1"
       transform="translate(0,-158.04656)"><path
         d="m 3788.5396,7121.1018 q -1.998,-4.5667 -6.7549,-7.7064 -4.757,-3.2347 -11.9875,-3.2347 -4.9473,0 -9.0384,1.7126 -4.0909,1.7126 -6.4693,4.757 -2.3784,2.9493 -2.3784,6.5645 0,2.664 1.2367,5.2328 1.8078,3.5199 5.8988,5.8034 4.186,2.1882 11.7018,5.0423 5.8988,2.1882 9.6092,3.9959 3.7104,1.7124 6.7549,4.3763 3.1397,2.6639 4.3763,6.2791 0.6661,1.9029 0.6661,4.3766 0,4.3765 -2.6641,8.4673 -2.5685,4.0909 -7.8964,6.7548 -5.2326,2.5688 -12.8437,2.5688 -11.9876,0 -18.4569,-5.0424 -6.4696,-5.0423 -7.8015,-12.368 l 1.7125,-0.095 q 1.9979,6.3744 7.7063,10.846 5.8034,4.3763 15.2221,4.3763 4.757,0 8.1821,-1.7125 3.5202,-1.7125 5.3277,-4.4714 1.8077,-2.7591 1.8077,-5.8987 0,-3.3299 -2.0931,-6.0889 -2.5686,-3.3299 -6.6597,-5.5181 -3.996,-2.1881 -10.9409,-4.852 -6.66,-2.6639 -10.4655,-4.6619 -3.8056,-1.9979 -6.4695,-5.2326 -2.6638,-3.3298 -2.6638,-8.2771 0,-5.2326 3.2348,-9.514 3.2346,-4.2811 9.0382,-6.7547 5.8987,-2.4736 13.3195,-2.4736 1.9977,0 2.9493,0.094 7.7063,0.4756 12.368,4.1861 4.7571,3.6153 6.3745,8.4675 z m 58.4153,-12.273 h 2.3783 l -23.7845,66.5974 h -4.4717 q -7.9917,-21.9771 -13.7952,-37.2945 -5.7084,-15.4125 -11.3215,-29.3029 h 10.6555 q 5.3278,15.5076 14.9369,40.91 l 5.518,14.6513 z m 56.5125,64.4093 v 2.1881 h -44.7154 q 0.4759,-16.9348 0.4759,-33.2987 0,-16.459 -0.4759,-33.2987 h 42.3369 v 2.0931 h -32.5375 q -0.2854,12.939 -0.2854,27.9709 v 6.5645 h 23.4994 v 2.1882 h -23.4994 q 0,13.7953 0.2854,25.7828 z m 50.4236,0 v 2.1881 h -42.8124 q 0.4756,-16.9348 0.4756,-33.2987 0,-16.459 -0.4756,-33.2987 h 9.8943 q -0.4758,17.1251 -0.4758,33.6792 0,11.8925 0.3808,30.9203 z m 45.5717,-62.3162 h -24.4507 q -0.3805,19.0277 -0.3805,30.8251 0,16.5542 0.4756,33.6792 h -9.8945 q 0.4759,-17.125 0.4759,-33.6792 0,-11.7974 -0.3806,-30.8251 h -24.7362 v -2.0931 h 58.891 z m 52.4218,62.3162 v 2.1881 h -44.7155 q 0.4759,-16.9348 0.4759,-33.2987 0,-16.459 -0.4759,-33.2987 h 42.3371 v 2.0931 h -32.5375 q -0.2856,12.939 -0.2856,27.9709 v 6.5645 h 23.4995 v 2.1882 h -23.4995 q 0,13.7953 0.2856,25.7828 z m 10.5603,9.4185 h -2.9494 l 2.9494,-13.0339 h 5.9938 z m 78.6802,-61.5548 q -1.998,-4.5667 -6.755,-7.7064 -4.757,-3.2347 -11.9874,-3.2347 -4.9473,0 -9.0384,1.7126 -4.0909,1.7126 -6.4693,4.757 -2.3785,2.9493 -2.3785,6.5645 0,2.664 1.2368,5.2328 1.8076,3.5199 5.8985,5.8034 4.1862,2.1882 11.7022,5.0423 5.8987,2.1882 9.609,3.9959 3.7105,1.7124 6.755,4.3763 3.1395,2.6639 4.3764,6.2791 0.6658,1.9029 0.6658,4.3766 0,4.3765 -2.6639,8.4673 -2.5687,4.0909 -7.8964,6.7548 -5.2327,2.5688 -12.8439,2.5688 -11.9873,0 -18.4569,-5.0424 -6.4695,-5.0423 -7.8014,-12.368 l 1.7125,-0.095 q 1.998,6.3744 7.7063,10.846 5.8034,4.3763 15.2222,4.3763 4.757,0 8.182,-1.7125 3.5202,-1.7125 5.3278,-4.4714 1.8077,-2.7591 1.8077,-5.8987 0,-3.3299 -2.0932,-6.0889 -2.5686,-3.3299 -6.6597,-5.5181 -3.9957,-2.1881 -10.9409,-4.852 -6.6599,-2.6639 -10.4654,-4.6619 -3.8056,-1.9979 -6.4693,-5.2326 -2.664,-3.3298 -2.664,-8.2771 0,-5.2326 3.2347,-9.514 3.2348,-4.2811 9.0381,-6.7547 5.8988,-2.4736 13.3195,-2.4736 1.998,0 2.9495,0.094 7.7062,0.4756 12.368,4.1861 4.7571,3.6153 6.3744,8.4675 z m 58.4151,-12.273 h 2.3786 l -23.7849,66.5974 h -4.4714 q -7.9918,-21.9771 -13.7951,-37.2945 -5.7084,-15.4125 -11.3217,-29.3029 h 10.6556 q 5.3279,15.5076 14.9369,40.91 l 5.518,14.6513 z m 56.5126,64.4093 v 2.1881 h -44.7153 q 0.4757,-16.9348 0.4757,-33.2987 0,-16.459 -0.4757,-33.2987 h 42.3368 v 2.0931 h -32.5375 q -0.2855,12.939 -0.2855,27.9709 v 6.5645 h 23.4994 v 2.1882 h -23.4994 q 0,13.7953 0.2855,25.7828 z m 50.4237,0 v 2.1881 h -42.8126 q 0.4756,-16.9348 0.4756,-33.2987 0,-16.459 -0.4756,-33.2987 h 9.8945 q -0.4756,17.1251 -0.4756,33.6792 0,11.8925 0.3804,30.9203 z m 45.5718,-62.3162 h -24.4509 q -0.3805,19.0277 -0.3805,30.8251 0,16.5542 0.4758,33.6792 h -9.8945 q 0.4756,-17.125 0.4756,-33.6792 0,-11.7974 -0.3804,-30.8251 h -24.7363 v -2.0931 h 58.8912 z m 52.4216,62.3162 v 2.1881 h -44.7152 q 0.4755,-16.9348 0.4755,-33.2987 0,-16.459 -0.4755,-33.2987 h 42.3369 v 2.0931 h -32.5377 q -0.2853,12.939 -0.2853,27.9709 v 6.5645 h 23.4993 v 2.1882 h -23.4993 q 0,13.7953 0.2853,25.7828 z m 50.1383,2.1881 q -3.5202,-6.184 -8.182,-13.4146 -4.5666,-7.2307 -9.1333,-14.0806 -1.2368,-1.9977 -2.759,-4.091 -1.4273,-2.1883 -2.9493,-4.6617 l -9.9896,9.8943 q 0,10.18 0.3804,26.3536 h -9.8943 q 0.4756,-16.9348 0.4756,-33.2987 0,-16.459 -0.4756,-33.2987 h 9.8943 q -0.3804,18.6473 -0.3804,30.4445 v 6.85 l 37.7701,-37.2945 h 3.1395 l -23.975,23.4994 q 9.1334,15.3173 26.2585,40.7196 0.4756,0.761 0.8563,1.3318 0.3805,0.5709 0.6658,1.0466 z m 29.2077,-66.5974 q -0.3806,13.4146 -0.3806,33.2987 0,19.6939 0.3806,33.2987 h -9.8945 q 0.4756,-16.9348 0.4756,-33.2987 0,-16.459 -0.4756,-33.2987 z m 66.5022,2.0931 h -24.4507 q -0.3807,19.0277 -0.3807,30.8251 0,16.5542 0.4758,33.6792 h -9.8945 q 0.4758,-17.125 0.4758,-33.6792 0,-11.7974 -0.3806,-30.8251 h -24.7362 v -2.0931 h 58.8911 z"
         id="text6-4"
         style="font-size:59.445px;line-height:1;font-family:BROLIMO;-inkscape-font-specification:BROLIMO;fill:#1a1a1a;fill-opacity:1;stroke-width:0.264582;stroke-linejoin:round"
         aria-label="SVELTE, SVELTEKIT&#10;" /><g
         id="g15"
         transform="translate(0,1106.8267)"><path
           id="path16"
           style="color:#000000;fill:#abc2bd;stroke:#abc2bd;stroke-width:20;stroke-linejoin:round;stroke-dasharray:none;stroke-opacity:1"
           d="m 4470.8141,6113.2818 c -4.0937,0.2021 -8.1732,0.2218 -12.2711,0.4796 -113.7952,7.157 -212.4168,70.8755 -311.3221,71.0303 -36.6663,0.058 -74.6344,-13.8626 -114.8865,-28.3523 -40.252,-14.4896 -82.9968,-29.5852 -129.6934,-26.0775 -34.5773,2.5973 -75.1286,19.2111 -109.137,34.7318 -34.0082,15.5206 -60.6506,30.5009 -60.6506,30.5009 l 19.4691,34.5312 c 0,0 25.3225,-14.2241 57.6813,-28.992 32.3587,-14.7678 72.5778,-29.5259 95.6153,-31.2564 36.1257,-2.7136 73.4158,9.499 113.2541,23.8398 39.8385,14.3409 82.0196,30.773 128.4102,30.7005 114.7885,-0.1797 214.2798,-64.8535 313.7556,-71.1099 3.2569,-0.2049 6.5171,-0.2948 9.7751,-0.4615 z" /><circle
           style="fill:#abc2bd;fill-opacity:1;stroke:#abc2bd;stroke-width:20;stroke-linecap:round;stroke-linejoin:round;stroke-miterlimit:4.7;stroke-dasharray:none;stroke-opacity:1"
           id="path5-8"
           cx="3742.4924"
           cy="6212.8213"
           r="19.857384" /><path
           style="fill:#abc2bd;fill-opacity:1;stroke:#abc2bd;stroke-width:20.574;stroke-linecap:butt;stroke-linejoin:round;stroke-dasharray:none;stroke-opacity:1"
           d="m 4887.6914,5730.0184 c -5.3345,0 -10.6362,2.196 -14.4083,5.9681 -3.7721,3.7721 -5.9681,9.0738 -5.9681,14.4083 0,5.3345 2.196,10.6362 5.9681,14.4083 3.7721,3.7721 9.0738,5.9681 14.4083,5.9681 5.3345,0 10.6362,-2.196 14.4083,-5.9681 3.7721,-3.7721 5.9681,-9.0738 5.9681,-14.4083 0,-5.3345 -2.196,-10.6362 -5.9681,-14.4083 -3.7721,-3.7721 -9.0738,-5.9681 -14.4083,-5.9681 z"
           id="path11-5"
           inkscape:path-effect="#path-effect11-7"
           inkscape:original-d="m 4887.6914,5730.0184 c 0,-13.5843 0,27.1686 0,40.7528 0,13.5843 0,-27.1685 0,-40.7528 z"
           transform="matrix(0.97210298,0,0,0.97210298,-280.62112,543.07526)" /><path
           id="path18"
           style="color:#000000;fill:#d3dedc;fill-opacity:1;stroke-width:3;stroke-linejoin:round;stroke-dasharray:none;filter:url(#filter27)"
           d="m 4485.0668,6117.1432 c -8.8699,0.3023 -17.7301,0.4814 -26.6196,1.0413 -113.7951,7.1682 -212.4167,70.9849 -311.322,71.1399 -36.6663,0.058 -74.6348,-13.8841 -114.8871,-28.3962 -40.2519,-14.5122 -82.9966,-29.63 -129.6934,-26.1168 -34.577,2.6012 -75.1283,19.2398 -109.1364,34.7844 -34.0083,15.5448 -60.6506,30.5491 -60.6506,30.5491 l 19.4691,14.6993 c 0,0 25.3227,-14.2463 57.6812,-29.0369 32.3588,-14.7908 72.5779,-29.5714 95.6154,-31.3046 36.1256,-2.7178 73.4158,9.5139 113.254,23.8771 39.8387,14.363 82.0197,30.8202 128.4103,30.7475 114.7885,-0.1799 214.2797,-64.9538 313.7555,-71.22 8.0377,-0.5063 16.0795,-0.8538 24.1236,-1.1327 z" /></g></g><rect
       style="opacity:1;fill:#c83737;stroke:none;stroke-width:19.9999;stroke-linecap:round;stroke-linejoin:round;stroke-miterlimit:4.7;stroke-dasharray:none;stroke-opacity:1"
       id="rect21"
       width="143.07541"
       height="34.429146"
       x="3143.8083"
       y="6354.9902" /></g></svg>
