<?xml version="1.0" encoding="UTF-8" standalone="no"?>
<!-- Created with Inkscape (http://www.inkscape.org/) -->

<svg
   width="6803.9775"
   height="5306.5708"
   viewBox="0 0 1800.219 1404.0301"
   version="1.1"
   id="svg1"
   sodipodi:docname="AboutMe_Skills.svg"
   xml:space="preserve"
   inkscape:version="1.3 (0e150ed6c4, 2023-07-21)"
   xmlns:inkscape="http://www.inkscape.org/namespaces/inkscape"
   xmlns:sodipodi="http://sodipodi.sourceforge.net/DTD/sodipodi-0.dtd"
   xmlns="http://www.w3.org/2000/svg"
   xmlns:svg="http://www.w3.org/2000/svg"><sodipodi:namedview
     id="namedview1"
     pagecolor="#505050"
     bordercolor="#000000"
     borderopacity="1"
     inkscape:showpageshadow="0"
     inkscape:pageopacity="0"
     inkscape:pagecheckerboard="0"
     inkscape:deskcolor="#747474"
     inkscape:document-units="mm"
     inkscape:zoom="0.15999999"
     inkscape:cx="2025.0001"
     inkscape:cy="465.62502"
     inkscape:window-width="1920"
     inkscape:window-height="1009"
     inkscape:window-x="-8"
     inkscape:window-y="-8"
     inkscape:window-maximized="1"
     inkscape:current-layer="layer1" /><defs
     id="defs1"><inkscape:path-effect
       effect="spiro"
       id="path-effect11"
       is_visible="true"
       lpeversion="1" /><inkscape:path-effect
       effect="spiro"
       id="path-effect10"
       is_visible="true"
       lpeversion="1" /><filter
       inkscape:collect="always"
       style="color-interpolation-filters:sRGB"
       id="filter4"
       x="-0.012732044"
       y="-0.09781162"
       width="1.0254641"
       height="1.1956232"><feGaussianBlur
         inkscape:collect="always"
         stdDeviation="3.9778518"
         id="feGaussianBlur4" /></filter><filter
       inkscape:collect="always"
       style="color-interpolation-filters:sRGB"
       id="filter9"
       x="-0.011686151"
       y="-0.17012282"
       width="1.0233723"
       height="1.3402456"><feGaussianBlur
         inkscape:collect="always"
         stdDeviation="6.9833638"
         id="feGaussianBlur9" /></filter><inkscape:path-effect
       effect="spiro"
       id="path-effect11-7"
       is_visible="true"
       lpeversion="1" /><filter
       inkscape:collect="always"
       style="color-interpolation-filters:sRGB"
       id="filter13"
       x="-0.01211199"
       y="-0.11252828"
       width="1.024224"
       height="1.2250566"><feGaussianBlur
         inkscape:collect="always"
         stdDeviation="4.6174921"
         id="feGaussianBlur13" /></filter></defs><g
     inkscape:label="Слой 1"
     inkscape:groupmode="layer"
     id="layer1"
     transform="translate(-3709.5064,-4610.9181)"><path
       d="m 3738.9405,4611.9283 q -0.2378,8.3817 -0.2378,20.8057 0,12.3051 0.2378,20.8058 h -6.1823 q 0.2972,-10.5813 0.2972,-20.8058 0,-10.284 -0.2972,-20.8057 z m 36.0236,0 h 1.3673 v 41.6115 h -1.9023 q -3.6261,-5.1718 -9.0951,-11.889 -5.4689,-6.7173 -14.6234,-17.6552 l -5.0528,-6.0634 v 35.6076 h -1.3673 v -41.6115 h 4.6962 q 3.5072,4.8744 7.49,9.9273 4.0423,4.9933 10.2246,12.4834 5.35,6.4795 8.2628,10.1057 z m 33.2892,41.6115 q -2.1994,-3.864 -5.1123,-8.3818 -2.8533,-4.5178 -5.7067,-8.7979 -0.7728,-1.2483 -1.7239,-2.5561 -0.8917,-1.3672 -1.8428,-2.9128 l -6.2417,6.1823 q 0,6.3606 0.2378,16.4663 h -6.1823 q 0.2972,-10.5813 0.2972,-20.8058 0,-10.284 -0.2972,-20.8057 h 6.1823 q -0.2378,11.6512 -0.2378,19.0224 v 4.28 l 23.5997,-23.3024 h 1.9617 l -14.9802,14.6829 q 5.7067,9.5706 16.4068,25.4424 0.2973,0.4756 0.535,0.8323 0.2378,0.3566 0.4162,0.6539 z m 36.0831,-33.9431 q -1.2483,-2.8534 -4.2206,-4.8151 -2.9722,-2.0211 -7.49,-2.0211 -3.0912,0 -5.6473,1.07 -2.5562,1.07 -4.0423,2.9722 -1.4861,1.8428 -1.4861,4.1017 0,1.6645 0.7728,3.2695 1.1294,2.1995 3.6856,3.6262 2.6156,1.3672 7.3117,3.1506 3.6856,1.3672 6.004,2.4966 2.3183,1.0701 4.2205,2.7345 1.9617,1.6645 2.7345,3.9234 0.4161,1.1889 0.4161,2.7345 0,2.7344 -1.6644,5.2906 -1.605,2.5561 -4.934,4.2206 -3.2694,1.605 -8.025,1.605 -7.4901,0 -11.5324,-3.1506 -4.0422,-3.1506 -4.8745,-7.7279 l 1.0701,-0.059 q 1.2483,3.9828 4.815,6.7767 3.6261,2.7345 9.5112,2.7345 2.9722,0 5.1123,-1.07 2.1994,-1.07 3.3289,-2.7939 1.1294,-1.7239 1.1294,-3.6856 0,-2.0806 -1.3077,-3.8045 -1.6051,-2.0806 -4.1612,-3.4478 -2.4967,-1.3673 -6.8362,-3.0317 -4.1611,-1.6645 -6.5389,-2.9128 -2.3778,-1.2484 -4.0423,-3.2695 -1.6644,-2.0806 -1.6644,-5.1717 0,-3.2695 2.0211,-5.9445 2.0211,-2.675 5.6473,-4.2206 3.6856,-1.5456 8.3223,-1.5456 1.2483,0 1.8428,0.06 4.815,0.2972 7.7278,2.6156 2.9723,2.2589 3.9828,5.2906 z m 44.4648,23.8374 q -1.605,4.3395 -5.7662,7.3712 -4.1611,3.0317 -10.7001,3.0317 -7.0739,0 -12.1267,-2.9723 -4.9934,-3.0317 -7.5496,-7.8467 -2.4966,-4.8745 -2.4966,-10.3434 0,-5.469 2.4966,-10.284 2.5562,-4.8745 7.4901,-7.8468 4.9934,-3.0317 11.9485,-3.0317 6.8956,0 11.0567,3.0317 4.1612,3.0317 5.5284,7.3712 l -4.1017,0.059 q -1.1294,-3.9829 -4.2206,-6.7173 -3.0317,-2.7939 -7.9062,-2.7939 -5.35,0 -9.0951,2.6155 -3.6855,2.5562 -5.5878,6.8362 -1.8428,4.2206 -1.8428,9.1545 0,4.9934 1.9023,9.5707 1.9022,4.5773 5.5878,7.6089 3.745,3.0317 8.8573,3.5073 0.7728,0.1189 2.2589,0.1189 4.9339,0 8.3223,-2.4373 3.3884,-2.4966 4.8745,-6.0633 z m 29.1281,10.1057 q -1.6645,-4.8745 -4.399,-12.1863 -0.2377,-0.8322 -0.6539,-1.9022 h -15.099 l -5.0528,14.0885 h -1.4861 l 14.8612,-41.6115 h 2.7939 q 9.214,25.6207 15.6935,41.6115 z m -19.6763,-15.4557 h 14.0884 q -3.0911,-8.3818 -7.2523,-19.2008 z m 46.4265,-26.1558 q 5.0529,0 8.679,1.9616 3.6856,1.9023 5.5878,5.0529 1.9023,3.0911 1.9023,6.5984 0,3.3289 -1.8428,6.2417 -1.7834,2.9128 -5.4095,4.7556 -3.6261,1.7833 -8.8573,1.7833 h -9.4518 q 0,5.8256 0.2378,15.218 h -6.1823 q 0.2973,-10.5813 0.2973,-20.8058 0,-10.284 -0.2973,-20.8057 h 6.1823 z m -1.2483,25.1452 q 3.8045,0 6.4795,-1.605 2.675,-1.6645 3.9828,-4.2801 1.3673,-2.675 1.3673,-5.7067 0,-3.1506 -1.4267,-5.9445 -1.3673,-2.8533 -4.0423,-4.5773 -2.675,-1.7239 -6.42,-1.7239 l -7.9062,0.059 q -0.1784,8.0845 -0.1784,17.6552 v 6.1228 z m 50.6471,15.099 v 1.3673 h -27.9391 q 0.2972,-10.5813 0.2972,-20.8058 0,-10.284 -0.2972,-20.8057 h 26.453 v 1.3077 h -20.3302 q -0.1783,8.0846 -0.1783,17.4769 v 4.1017 h 14.6829 v 1.3672 h -14.6829 q 0,8.6195 0.1783,16.1096 z m 6.5983,5.8851 h -1.8427 l 1.8427,-8.144 h 3.7451 z m 26.572,-46.1293 q -0.2378,8.3817 -0.2378,20.8057 0,12.3051 0.2378,20.8058 h -6.1823 q 0.2973,-10.5813 0.2973,-20.8058 0,-10.284 -0.2973,-20.8057 z m 32.1003,40.2442 v 1.3673 h -26.7502 q 0.2972,-10.5813 0.2972,-20.8058 0,-10.284 -0.2972,-20.8057 h 6.1823 q -0.2973,10.7001 -0.2973,21.0435 0,7.4306 0.2378,19.3196 z m 31.5059,0 v 1.3673 h -26.7502 q 0.2972,-10.5813 0.2972,-20.8058 0,-10.284 -0.2972,-20.8057 h 6.1823 q -0.2973,10.7001 -0.2973,21.0435 0,7.4306 0.2378,19.3196 z m 10e-5,-40.3037 h 5.7661 l -0.1783,27.5825 q -0.059,7.2523 3.4478,10.2245 3.5072,2.9723 8.9167,2.9723 5.8851,0 8.7385,-3.5667 2.8533,-3.6262 2.8533,-10.1651 l -0.059,-26.988 h 1.4267 v 26.9285 q 0,6.8957 -3.0317,10.8785 -2.9723,3.9233 -9.5112,4.0422 -7.4307,0.1784 -12.8996,-2.6155 -5.4095,-2.794 -5.4095,-11.1163 z m 64.4384,7.7279 q -1.2484,-2.8534 -4.2206,-4.8151 -2.9723,-2.0211 -7.4901,-2.0211 -3.0912,0 -5.6473,1.07 -2.5561,1.07 -4.0422,2.9722 -1.4862,1.8428 -1.4862,4.1017 0,1.6645 0.7728,3.2695 1.1295,2.1995 3.6856,3.6262 2.6156,1.3672 7.3117,3.1506 3.6856,1.3672 6.004,2.4966 2.3183,1.0701 4.2206,2.7345 1.9617,1.6645 2.7344,3.9234 0.4162,1.1889 0.4162,2.7345 0,2.7344 -1.6645,5.2906 -1.605,2.5561 -4.9339,4.2206 -3.2695,1.605 -8.0251,1.605 -7.4901,0 -11.5323,-3.1506 -4.0423,-3.1506 -4.8745,-7.7279 l 1.07,-0.059 q 1.2483,3.9828 4.815,6.7767 3.6262,2.7345 9.5112,2.7345 2.9723,0 5.1123,-1.07 2.1995,-1.07 3.3289,-2.7939 1.1295,-1.7239 1.1295,-3.6856 0,-2.0806 -1.3078,-3.8045 -1.605,-2.0806 -4.1612,-3.4478 -2.4967,-1.3673 -6.8361,-3.0317 -4.1612,-1.6645 -6.539,-2.9128 -2.3778,-1.2484 -4.0423,-3.2695 -1.6644,-2.0806 -1.6644,-5.1717 0,-3.2695 2.0211,-5.9445 2.0211,-2.675 5.6473,-4.2206 3.6856,-1.5456 8.3223,-1.5456 1.2483,0 1.8428,0.06 4.815,0.2972 7.7278,2.6156 2.9723,2.2589 3.9829,5.2906 z m 39.0553,-6.3607 h -15.2774 q -0.2377,11.889 -0.2377,19.2602 0,10.3435 0.2972,21.0436 h -6.1823 q 0.2972,-10.7001 0.2972,-21.0436 0,-7.3712 -0.2378,-19.2602 h -15.4557 v -1.3077 h 36.7965 z m 27.1664,24.313 q 3.3289,1.0701 5.2906,3.329 2.0211,2.2589 4.2206,6.0039 1.7239,2.9723 3.0317,4.5178 1.3078,1.5456 3.21,2.1401 -2.1994,0.8322 -4.4583,0.8322 -3.5073,0 -5.2906,-2.3778 -0.6539,-0.6539 -1.1889,-1.605 -0.4756,-1.0106 -1.4267,-3.0912 -1.1889,-2.675 -2.14,-4.3989 -0.8917,-1.7239 -2.3778,-3.0911 -1.4862,-1.3673 -3.5073,-1.6645 h -0.1783 -11.5918 q 0,5.8851 0.2378,15.3963 h -6.1823 q 0.2972,-10.5813 0.2972,-20.8058 0,-10.284 -0.2972,-20.8057 h 6.1823 9.8084 q 5.0528,0 8.679,1.9616 3.6261,1.9023 5.4689,5.0529 1.8428,3.0911 1.8428,6.5984 0,4.1017 -2.4967,7.4306 -2.4967,3.3289 -7.1334,4.5772 z m -16.2285,-24.2535 q -0.1783,8.0845 -0.1783,17.5363 v 6.0634 h 9.9273 q 0.535,-0.06 1.4861,-0.06 2.8534,-0.2972 4.8745,-1.9617 2.0806,-1.6644 3.0912,-4.1611 1.07,-2.4967 1.07,-5.2906 0,-3.1506 -1.3673,-5.9445 -1.3078,-2.7939 -3.9828,-4.5179 -2.6156,-1.7239 -6.3606,-1.7239 z m 62.8334,40.2443 q -1.6645,-4.8745 -4.3989,-12.1863 -0.2378,-0.8322 -0.6539,-1.9022 h -15.099 l -5.0529,14.0885 h -1.4861 l 14.8612,-41.6115 h 2.794 q 9.2139,25.6207 15.6934,41.6115 z m -19.6763,-15.4557 h 14.0885 q -3.0912,-8.3818 -7.2523,-19.2008 z m 58.9695,-24.8481 h -15.2773 q -0.2378,11.889 -0.2378,19.2602 0,10.3435 0.2972,21.0436 h -6.1823 q 0.2973,-10.7001 0.2973,-21.0436 0,-7.3712 -0.2378,-19.2602 h -15.4557 v -1.3077 h 36.7964 z m 22.4703,40.8388 q -2.2589,0.2972 -3.9234,0.2972 -6.8361,0 -11.889,-3.2695 -4.9933,-3.2695 -7.6089,-8.5006 -2.5562,-5.2312 -2.5562,-10.9974 0,-5.2311 2.1401,-9.7489 2.1994,-4.5179 6.5984,-7.4901 4.4583,-2.9723 10.8189,-3.3884 0.5945,-0.059 1.7834,-0.059 6.8362,0 11.7701,3.2695 4.9934,3.21 7.5495,8.4412 2.5562,5.1717 2.5562,10.9378 0,4.934 -1.9617,9.3329 -1.9023,4.3989 -5.8256,7.4306 -3.864,2.9723 -9.4518,3.7451 z m -0.2972,-0.8323 q 3.8639,-0.535 6.5389,-3.0911 2.6751,-2.6156 3.9828,-6.4795 1.3078,-3.9234 1.3078,-8.4412 0,-5.9445 -2.14,-11.4729 -2.14,-5.5284 -6.2417,-8.8573 -4.0423,-3.3884 -9.4518,-3.0317 -4.6367,0.2972 -7.7873,2.8534 -3.1505,2.4967 -4.6961,6.5389 -1.4861,3.9828 -1.4861,8.7384 0,5.7662 2.14,11.1757 2.1994,5.4095 6.2417,8.8573 4.0423,3.3884 9.3923,3.3884 1.0106,0 2.1995,-0.1784 z m 45.8321,-15.6935 q 3.3289,1.0701 5.2906,3.329 2.0211,2.2589 4.2206,6.0039 1.7239,2.9723 3.0317,4.5178 1.3078,1.5456 3.21,2.1401 -2.1995,0.8322 -4.4584,0.8322 -3.5072,0 -5.2906,-2.3778 -0.6539,-0.6539 -1.1889,-1.605 -0.4755,-1.0106 -1.4267,-3.0912 -1.1889,-2.675 -2.14,-4.3989 -0.8917,-1.7239 -2.3778,-3.0911 -1.4861,-1.3673 -3.5072,-1.6645 h -0.1784 -11.5918 q 0,5.8851 0.2378,15.3963 h -6.1823 q 0.2973,-10.5813 0.2973,-20.8058 0,-10.284 -0.2973,-20.8057 h 6.1823 9.8085 q 5.0528,0 8.6789,1.9616 3.6262,1.9023 5.469,5.0529 1.8428,3.0911 1.8428,6.5984 0,4.1017 -2.4967,7.4306 -2.4967,3.3289 -7.1334,4.5772 z m -16.2285,-24.2535 q -0.1784,8.0845 -0.1784,17.5363 v 6.0634 h 9.9274 q 0.535,-0.06 1.4861,-0.06 2.8533,-0.2972 4.8745,-1.9617 2.0806,-1.6644 3.0911,-4.1611 1.07,-2.4967 1.07,-5.2906 0,-3.1506 -1.3672,-5.9445 -1.3078,-2.7939 -3.9828,-4.5179 -2.6156,-1.7239 -6.3606,-1.7239 z"
       id="text4"
       style="font-size:59.445px;line-height:1;font-family:BROLIMO;-inkscape-font-specification:BROLIMO;stroke-width:0.264582;fill:#1a1a1a;fill-opacity:1"
       aria-label="INKSCAPE, ILLUSTRATOR" /><path
       d="m 3754.7528,4820.473 q 7.6684,0 11.9485,3.2101 4.28,3.21 5.2906,7.9061 l -5.0529,0.06 q -1.0105,-4.2801 -4.1017,-7.2523 -3.0911,-2.9723 -8.1439,-2.9723 -5.1123,0 -8.7384,2.794 -3.5667,2.7344 -5.4095,7.2522 -1.7834,4.4584 -1.7834,9.5707 0,5.5284 2.0806,10.4029 2.0806,4.815 6.1228,7.6684 4.1017,2.8533 9.8679,2.5561 3.5073,-0.1783 5.8256,-2.0806 2.3778,-1.9022 3.3884,-3.9828 v -10.1056 h -10.0462 v -1.3673 h 15.6934 v 12.1268 q -3.9828,3.6262 -7.9061,4.8745 -3.864,1.2483 -8.2034,1.4267 -7.2523,0.2972 -12.4241,-2.5562 -5.1717,-2.9128 -7.7872,-7.7872 -2.6156,-4.8745 -2.6156,-10.4624 0,-5.4689 2.4967,-10.3434 2.5561,-4.8745 7.49,-7.9062 4.9934,-3.0317 12.0079,-3.0317 z m 29.4253,0.3567 q -0.2378,8.3817 -0.2378,20.8057 0,12.3052 0.2378,20.8058 h -6.1823 q 0.2972,-10.5812 0.2972,-20.8058 0,-10.2839 -0.2972,-20.8057 z m 45.4754,0 q -0.2378,12.6023 -0.2378,20.8057 0,8.0846 0.2378,20.8058 h -6.1228 q 0.2378,-8.0845 0.2378,-19.9141 0,-9.6301 -0.1784,-18.0713 l -15.3962,37.9854 h -1.7834 q -3.2695,-8.5601 -10.4029,-25.7991 -4.1611,-9.9868 -5.1122,-12.424 v 38.2231 h -1.3673 v -41.6115 h 6.5984 q 2.9723,7.9656 5.5879,14.4451 2.675,6.4795 6.8361,16.288 0.2378,0.5944 0.5945,1.3672 0.3567,0.7728 0.7133,1.7239 l 13.6724,-33.7053 v -0.1189 z m 20.6868,0 q 5.0529,0 8.679,1.9617 3.6856,1.9022 5.5878,5.0528 1.9023,3.0911 1.9023,6.5984 0,3.3289 -1.8428,6.2417 -1.7834,2.9128 -5.4095,4.7556 -3.6262,1.7834 -8.8573,1.7834 h -9.4518 q 0,5.8256 0.2378,15.2179 h -6.1823 q 0.2973,-10.5812 0.2973,-20.8058 0,-10.2839 -0.2973,-20.8057 h 6.1823 z m -1.2483,25.1452 q 3.8045,0 6.4795,-1.605 2.675,-1.6644 3.9828,-4.28 1.3673,-2.6751 1.3673,-5.7067 0,-3.1506 -1.4267,-5.9445 -1.3673,-2.8534 -4.0423,-4.5773 -2.675,-1.7239 -6.42,-1.7239 l -7.9062,0.059 q -0.1784,8.0845 -0.1784,17.6552 v 6.1228 z m 23.9563,20.9841 h -1.8428 l 1.8428,-8.144 h 3.745 z m 35.7265,-46.1293 q 5.0528,0 8.6789,1.9617 3.6856,1.9022 5.5879,5.0528 1.9022,3.0911 1.9022,6.5984 0,3.3289 -1.8428,6.2417 -1.7833,2.9128 -5.4095,4.7556 -3.6261,1.7834 -8.8573,1.7834 h -9.4517 q 0,5.8256 0.2377,15.2179 h -6.1822 q 0.2972,-10.5812 0.2972,-20.8058 0,-10.2839 -0.2972,-20.8057 h 6.1822 z m -1.2484,25.1452 q 3.8045,0 6.4795,-1.605 2.675,-1.6644 3.9828,-4.28 1.3673,-2.6751 1.3673,-5.7067 0,-3.1506 -1.4267,-5.9445 -1.3672,-2.8534 -4.0423,-4.5773 -2.675,-1.7239 -6.42,-1.7239 l -7.9062,0.059 q -0.1783,8.0845 -0.1783,17.6552 v 6.1228 z m 55.9972,-25.1452 q -0.2378,8.3817 -0.2378,20.8057 0,12.3052 0.2378,20.8058 h -6.1823 q 0.2378,-7.7873 0.2378,-19.0224 h -21.4002 q 0,11.2351 0.2378,19.0224 h -6.1823 q 0.2972,-10.5812 0.2972,-20.8058 0,-10.2839 -0.2972,-20.8057 h 6.1823 q -0.2378,10.7001 -0.2378,17.2985 v 3.9234 h 21.4002 v -3.9234 q 0,-6.5984 -0.2378,-17.2985 z m 30.5547,42.1465 q -2.259,0.2972 -3.9234,0.2972 -6.8362,0 -11.889,-3.2695 -4.9934,-3.2694 -7.609,-8.5006 -2.5561,-5.2311 -2.5561,-10.9973 0,-5.2312 2.14,-9.749 2.1995,-4.5178 6.5984,-7.4901 4.4584,-2.9722 10.819,-3.3883 0.5944,-0.059 1.7833,-0.059 6.8362,0 11.7702,3.2695 4.9933,3.21 7.5495,8.4412 2.5561,5.1717 2.5561,10.9379 0,4.9339 -1.9617,9.3328 -1.9022,4.399 -5.8256,7.4307 -3.8639,2.9722 -9.4517,3.745 z m -0.2973,-0.8322 q 3.864,-0.535 6.539,-3.0912 2.675,-2.6156 3.9828,-6.4795 1.3078,-3.9233 1.3078,-8.4412 0,-5.9445 -2.14,-11.4729 -2.1401,-5.5283 -6.2418,-8.8573 -4.0422,-3.3883 -9.4517,-3.0317 -4.6367,0.2973 -7.7873,2.8534 -3.1506,2.4967 -4.6962,6.539 -1.4861,3.9828 -1.4861,8.7384 0,5.7661 2.14,11.1756 2.1995,5.4095 6.2418,8.8573 4.0422,3.3884 9.3923,3.3884 1.0105,0 2.1994,-0.1783 z m 49.5771,-40.0065 h -15.2773 q -0.2378,11.889 -0.2378,19.2602 0,10.3434 0.2972,21.0435 h -6.1823 q 0.2972,-10.7001 0.2972,-21.0435 0,-7.3712 -0.2377,-19.2602 h -15.4557 v -1.3078 h 36.7964 z m 22.4703,40.8387 q -2.2589,0.2972 -3.9234,0.2972 -6.8361,0 -11.889,-3.2695 -4.9933,-3.2694 -7.6089,-8.5006 -2.5562,-5.2311 -2.5562,-10.9973 0,-5.2312 2.1401,-9.749 2.1994,-4.5178 6.5984,-7.4901 4.4583,-2.9722 10.8189,-3.3883 0.5945,-0.059 1.7834,-0.059 6.8362,0 11.7701,3.2695 4.9934,3.21 7.5495,8.4412 2.5562,5.1717 2.5562,10.9379 0,4.9339 -1.9617,9.3328 -1.9023,4.399 -5.8256,7.4307 -3.864,2.9722 -9.4518,3.745 z m -0.2972,-0.8322 q 3.8639,-0.535 6.5389,-3.0912 2.6751,-2.6156 3.9828,-6.4795 1.3078,-3.9233 1.3078,-8.4412 0,-5.9445 -2.14,-11.4729 -2.14,-5.5283 -6.2417,-8.8573 -4.0423,-3.3883 -9.4518,-3.0317 -4.6367,0.2973 -7.7873,2.8534 -3.1505,2.4967 -4.6961,6.539 -1.4861,3.9828 -1.4861,8.7384 0,5.7661 2.14,11.1756 2.1994,5.4095 6.2417,8.8573 4.0423,3.3884 9.3923,3.3884 1.0106,0 2.1995,-0.1783 z m 49.8743,-33.6459 q -1.2484,-2.8534 -4.2206,-4.815 -2.9723,-2.0212 -7.4901,-2.0212 -3.0911,0 -5.6473,1.07 -2.5561,1.07 -4.0422,2.9723 -1.4862,1.8428 -1.4862,4.1017 0,1.6644 0.7728,3.2695 1.1295,2.1994 3.6856,3.6261 2.6156,1.3672 7.3118,3.1506 3.6855,1.3672 6.0039,2.4967 2.3184,1.07 4.2206,2.7345 1.9617,1.6644 2.7345,3.9233 0.4161,1.1889 0.4161,2.7345 0,2.7345 -1.6645,5.2906 -1.605,2.5561 -4.9339,4.2206 -3.2695,1.605 -8.0251,1.605 -7.4901,0 -11.5323,-3.1506 -4.0423,-3.1506 -4.8745,-7.7278 l 1.07,-0.059 q 1.2483,3.9828 4.815,6.7768 3.6262,2.7344 9.5112,2.7344 2.9723,0 5.1123,-1.07 2.1995,-1.07 3.3289,-2.7939 1.1295,-1.7239 1.1295,-3.6856 0,-2.0806 -1.3078,-3.8045 -1.605,-2.0805 -4.1612,-3.4478 -2.4966,-1.3672 -6.8361,-3.0317 -4.1612,-1.6644 -6.539,-2.9128 -2.3778,-1.2483 -4.0422,-3.2695 -1.6645,-2.0805 -1.6645,-5.1717 0,-3.2694 2.0211,-5.9445 2.0212,-2.675 5.6473,-4.2206 3.6856,-1.5455 8.3223,-1.5455 1.2484,0 1.8428,0.059 4.815,0.2972 7.7279,2.6156 2.9722,2.2589 3.9828,5.2906 z m 40.3036,-7.6684 q -0.2377,8.3817 -0.2377,20.8057 0,12.3052 0.2377,20.8058 h -6.1822 q 0.2377,-7.7873 0.2377,-19.0224 h -21.4002 q 0,11.2351 0.2378,19.0224 h -6.1823 q 0.2973,-10.5812 0.2973,-20.8058 0,-10.2839 -0.2973,-20.8057 h 6.1823 q -0.2378,10.7001 -0.2378,17.2985 v 3.9234 h 21.4002 v -3.9234 q 0,-6.5984 -0.2377,-17.2985 z m 30.5547,42.1465 q -2.2589,0.2972 -3.9234,0.2972 -6.8361,0 -11.889,-3.2695 -4.9933,-3.2694 -7.6089,-8.5006 -2.5562,-5.2311 -2.5562,-10.9973 0,-5.2312 2.1401,-9.749 2.1994,-4.5178 6.5984,-7.4901 4.4583,-2.9722 10.8189,-3.3883 0.5945,-0.059 1.7834,-0.059 6.8362,0 11.7701,3.2695 4.9934,3.21 7.5495,8.4412 2.5562,5.1717 2.5562,10.9379 0,4.9339 -1.9617,9.3328 -1.9023,4.399 -5.8256,7.4307 -3.864,2.9722 -9.4518,3.745 z m -0.2972,-0.8322 q 3.8639,-0.535 6.5389,-3.0912 2.6751,-2.6156 3.9828,-6.4795 1.3078,-3.9233 1.3078,-8.4412 0,-5.9445 -2.14,-11.4729 -2.14,-5.5283 -6.2417,-8.8573 -4.0423,-3.3883 -9.4518,-3.0317 -4.6367,0.2973 -7.7873,2.8534 -3.1505,2.4967 -4.6961,6.539 -1.4861,3.9828 -1.4861,8.7384 0,5.7661 2.14,11.1756 2.1994,5.4095 6.2417,8.8573 4.0423,3.3884 9.3923,3.3884 1.0106,0 2.1995,-0.1783 z m 38.8176,-41.3143 q 5.0528,0 8.6789,1.9617 3.6856,1.9022 5.5879,5.0528 1.9022,3.0911 1.9022,6.5984 0,3.3289 -1.8428,6.2417 -1.7833,2.9128 -5.4095,4.7556 -3.6261,1.7834 -8.8573,1.7834 h -9.4518 q 0,5.8256 0.2378,15.2179 h -6.1823 q 0.2973,-10.5812 0.2973,-20.8058 0,-10.2839 -0.2973,-20.8057 h 6.1823 z m -1.2484,25.1452 q 3.8045,0 6.4795,-1.605 2.675,-1.6644 3.9828,-4.28 1.3673,-2.6751 1.3673,-5.7067 0,-3.1506 -1.4267,-5.9445 -1.3672,-2.8534 -4.0423,-4.5773 -2.675,-1.7239 -6.42,-1.7239 l -7.9062,0.059 q -0.1784,8.0845 -0.1784,17.6552 v 6.1228 z"
       id="text6"
       style="font-size:59.445px;line-height:1;font-family:BROLIMO;-inkscape-font-specification:BROLIMO;stroke-width:0.264582;fill:#1a1a1a;fill-opacity:1"
       aria-label="GIMP, PHOTOSHOP&#10;" /><path
       d="m 3753.5639,5041.7946 q 4.399,0.1189 7.609,1.7239 3.2695,1.5456 4.9934,4.0423 1.7239,2.4967 1.7239,5.2906 0,2.8534 -1.9023,5.3501 -1.8428,2.4372 -5.6472,3.9828 -3.8045,1.4861 -9.3329,1.4861 h -18.2496 q 0.2972,-10.5812 0.2972,-20.8058 0,-10.2839 -0.2972,-20.8057 h 16.0501 q 4.7556,0 8.0251,1.4861 3.3289,1.4861 4.9339,3.8639 1.605,2.3184 1.605,4.9934 0,2.3184 -1.1889,4.399 -1.1294,2.0211 -3.3883,3.3883 -2.1995,1.3673 -5.2312,1.605 z m -14.6829,-18.3685 q -0.1783,8.2034 -0.1783,17.7146 h 8.2034 q 3.2695,0 5.7067,-1.3078 2.4372,-1.3077 3.745,-3.3883 1.3078,-2.14 1.3078,-4.4584 0,-2.2589 -1.3672,-4.2206 -1.3078,-1.9617 -4.0423,-3.1506 -2.7344,-1.2483 -6.8361,-1.2483 z m 8.7384,39.0554 q 4.6367,0 7.9062,-1.3672 3.3289,-1.4267 4.9934,-3.6856 1.6644,-2.2589 1.6644,-4.8151 0,-2.6156 -1.7833,-4.9339 -1.7239,-2.3778 -5.1717,-3.8045 -3.3884,-1.4267 -8.2629,-1.4267 l -8.2628,0.059 v 3.8045 q 0,8.6195 0.1783,16.1095 z m 52.371,-0.1783 v 1.3672 h -26.7502 q 0.2972,-10.5812 0.2972,-20.8058 0,-10.2839 -0.2972,-20.8057 h 6.1823 q -0.2972,10.7001 -0.2972,21.0435 0,7.4306 0.2377,19.3196 z m 32.6948,0 v 1.3672 h -27.9391 q 0.2972,-10.5812 0.2972,-20.8058 0,-10.2839 -0.2972,-20.8057 h 26.453 v 1.3078 h -20.3302 q -0.1783,8.0845 -0.1783,17.4768 v 4.1017 h 14.6829 v 1.3673 h -14.6829 q 0,8.6195 0.1783,16.1095 z m 35.4292,-40.2443 h 1.3673 v 41.6115 h -1.9023 q -3.6261,-5.1717 -9.0951,-11.889 -5.4689,-6.7173 -14.6234,-17.6552 l -5.0529,-6.0634 v 35.6076 h -1.3672 v -41.6115 h 4.6962 q 3.5072,4.8745 7.49,9.9273 4.0423,4.9934 10.2246,12.4835 5.35,6.4795 8.2628,10.1056 z m 21.5785,0 q 6.6579,0 11.4135,2.9722 4.815,2.9723 7.2523,7.7873 2.4372,4.7556 2.4372,10.1057 0,5.4095 -2.4967,10.1651 -2.4372,4.7556 -7.3712,7.6684 -4.9339,2.9128 -11.9484,2.9128 h -7.9656 -6.1823 q 0.2972,-10.5812 0.2972,-20.8058 0,-10.2839 -0.2972,-20.8057 h 6.1823 z m -2.7939,40.3631 q 5.8256,0 9.9273,-2.7344 4.1612,-2.7939 6.2418,-7.2523 2.0805,-4.5178 2.0805,-9.6301 0,-5.0528 -2.0805,-9.5112 -2.0212,-4.4584 -6.004,-7.1928 -3.9828,-2.7345 -9.5706,-2.7345 l -6.539,0.059 q -0.2378,12.0079 -0.2378,19.498 0,7.4901 0.2378,19.4979 z m 57.7806,-0.1188 v 1.3672 h -27.9392 q 0.2972,-10.5812 0.2972,-20.8058 0,-10.2839 -0.2972,-20.8057 h 26.453 v 1.3078 h -20.3302 q -0.1783,8.0845 -0.1783,17.4768 v 4.1017 h 14.6829 v 1.3673 h -14.6829 q 0,8.6195 0.1783,16.1095 z m 27.1068,-14.6235 q 3.329,1.07 5.2906,3.3289 2.0212,2.2589 4.2206,6.004 1.7239,2.9722 3.0317,4.5178 1.3078,1.5455 3.2101,2.14 -2.1995,0.8322 -4.4584,0.8322 -3.5073,0 -5.2906,-2.3778 -0.6539,-0.6539 -1.1889,-1.605 -0.4756,-1.0106 -1.4267,-3.0911 -1.1889,-2.6751 -2.14,-4.399 -0.8917,-1.7239 -2.3778,-3.0911 -1.4861,-1.3672 -3.5073,-1.6645 h -0.1783 -11.5918 q 0,5.8851 0.2378,15.3963 h -6.1823 q 0.2972,-10.5812 0.2972,-20.8058 0,-10.2839 -0.2972,-20.8057 h 6.1823 9.8084 q 5.0528,0 8.679,1.9617 3.6261,1.9022 5.4689,5.0528 1.8428,3.0911 1.8428,6.5984 0,4.1017 -2.4967,7.4306 -2.4967,3.3289 -7.1334,4.5773 z m -16.2285,-24.2536 q -0.1783,8.0845 -0.1783,17.5363 v 6.0634 h 9.9273 q 0.535,-0.06 1.4862,-0.06 2.8533,-0.2972 4.8744,-1.9616 2.0806,-1.6645 3.0912,-4.1612 1.07,-2.4967 1.07,-5.2906 0,-3.1506 -1.3672,-5.9445 -1.3078,-2.7939 -3.9829,-4.5178 -2.6155,-1.7239 -6.3606,-1.7239 z"
       id="text12"
       style="font-size:59.445px;line-height:1;font-family:BROLIMO;-inkscape-font-specification:BROLIMO;stroke-width:0.264582;fill:#1a1a1a;fill-opacity:1"
       aria-label="BLENDER" /><path
       d="m 3765.0071,5234.2337 q -0.2378,8.3817 -0.2378,20.8057 0,12.3051 0.2378,20.8058 h -6.1823 q 0.2378,-7.7873 0.2378,-19.0224 h -21.4002 q 0,11.2351 0.2378,19.0224 h -6.1823 q 0.2972,-10.5813 0.2972,-20.8058 0,-10.284 -0.2972,-20.8057 h 6.1823 q -0.2378,10.7001 -0.2378,17.2985 v 3.9233 h 21.4002 v -3.9233 q 0,-6.5984 -0.2378,-17.2985 z m 41.552,1.3077 h -15.2774 q -0.2377,11.889 -0.2377,19.2602 0,10.3435 0.2972,21.0436 h -6.1823 q 0.2972,-10.7001 0.2972,-21.0436 0,-7.3712 -0.2378,-19.2602 h -15.4557 v -1.3077 h 36.7965 z m 44.9405,-1.3077 q -0.2378,12.6023 -0.2378,20.8057 0,8.0845 0.2378,20.8058 h -6.1229 q 0.2378,-8.0846 0.2378,-19.9141 0,-9.6301 -0.1783,-18.0713 l -15.3963,37.9854 h -1.7833 q -3.2695,-8.5601 -10.4029,-25.7992 -4.1611,-9.9867 -5.1123,-12.424 v 38.2232 h -1.3672 v -41.6115 h 6.5984 q 2.9722,7.9656 5.5878,14.4451 2.675,6.4795 6.8362,16.2879 0.2378,0.5945 0.5944,1.3673 0.3567,0.7727 0.7134,1.7239 l 13.6723,-33.7054 v -0.1188 z m 32.1002,40.2442 v 1.3673 h -26.7502 q 0.2972,-10.5813 0.2972,-20.8058 0,-10.284 -0.2972,-20.8057 h 6.1823 q -0.2973,10.7001 -0.2973,21.0435 0,7.4306 0.2378,19.3196 z m 6.5985,5.8851 h -1.8428 l 1.8428,-8.144 h 3.745 z m 59.0289,-14.6235 q -1.605,4.3395 -5.7662,7.3712 -4.1611,3.0317 -10.7001,3.0317 -7.0739,0 -12.1268,-2.9723 -4.9933,-3.0317 -7.5495,-7.8467 -2.4967,-4.8745 -2.4967,-10.3434 0,-5.469 2.4967,-10.284 2.5562,-4.8745 7.4901,-7.8468 4.9934,-3.0317 11.9484,-3.0317 6.8957,0 11.0568,3.0317 4.1612,3.0317 5.5284,7.3712 l -4.1017,0.06 q -1.1295,-3.9829 -4.2206,-6.7173 -3.0317,-2.7939 -7.9062,-2.7939 -5.35,0 -9.0951,2.6155 -3.6856,2.5562 -5.5878,6.8362 -1.8428,4.2206 -1.8428,9.1545 0,4.9934 1.9022,9.5707 1.9023,4.5773 5.5879,7.609 3.745,3.0316 8.8573,3.5072 0.7728,0.1189 2.2589,0.1189 4.9339,0 8.3223,-2.4372 3.3883,-2.4967 4.8745,-6.0634 z m 33.5865,-23.8374 q -1.2484,-2.8534 -4.2206,-4.8151 -2.9723,-2.0211 -7.4901,-2.0211 -3.0911,0 -5.6473,1.07 -2.5561,1.07 -4.0422,2.9722 -1.4862,1.8428 -1.4862,4.1018 0,1.6644 0.7728,3.2694 1.1295,2.1995 3.6856,3.6262 2.6156,1.3672 7.3118,3.1506 3.6855,1.3672 6.0039,2.4966 2.3184,1.0701 4.2206,2.7345 1.9617,1.6645 2.7345,3.9234 0.4161,1.1889 0.4161,2.7345 0,2.7344 -1.6645,5.2906 -1.605,2.5561 -4.9339,4.2206 -3.2695,1.605 -8.0251,1.605 -7.4901,0 -11.5323,-3.1506 -4.0423,-3.1506 -4.8745,-7.7279 l 1.07,-0.059 q 1.2483,3.9828 4.815,6.7767 3.6262,2.7345 9.5112,2.7345 2.9723,0 5.1123,-1.07 2.1995,-1.07 3.3289,-2.7939 1.1295,-1.7239 1.1295,-3.6856 0,-2.0806 -1.3078,-3.8045 -1.605,-2.0806 -4.1612,-3.4478 -2.4966,-1.3672 -6.8361,-3.0317 -4.1612,-1.6645 -6.539,-2.9128 -2.3778,-1.2484 -4.0422,-3.2695 -1.6645,-2.0806 -1.6645,-5.1717 0,-3.2695 2.0211,-5.9445 2.0212,-2.675 5.6473,-4.2206 3.6856,-1.5456 8.3223,-1.5456 1.2484,0 1.8428,0.059 4.815,0.2972 7.7279,2.6156 2.9722,2.2589 3.9828,5.2906 z m 35.7858,0 q -1.2483,-2.8534 -4.2206,-4.8151 -2.9722,-2.0211 -7.4901,-2.0211 -3.0911,0 -5.6472,1.07 -2.5562,1.07 -4.0423,2.9722 -1.4861,1.8428 -1.4861,4.1018 0,1.6644 0.7728,3.2694 1.1294,2.1995 3.6855,3.6262 2.6156,1.3672 7.3118,3.1506 3.6856,1.3672 6.0039,2.4966 2.3184,1.0701 4.2206,2.7345 1.9617,1.6645 2.7345,3.9234 0.4161,1.1889 0.4161,2.7345 0,2.7344 -1.6645,5.2906 -1.605,2.5561 -4.9339,4.2206 -3.2695,1.605 -8.0251,1.605 -7.49,0 -11.5323,-3.1506 -4.0423,-3.1506 -4.8745,-7.7279 l 1.07,-0.059 q 1.2484,3.9828 4.8151,6.7767 3.6261,2.7345 9.5112,2.7345 2.9722,0 5.1122,-1.07 2.1995,-1.07 3.329,-2.7939 1.1294,-1.7239 1.1294,-3.6856 0,-2.0806 -1.3078,-3.8045 -1.605,-2.0806 -4.1611,-3.4478 -2.4967,-1.3672 -6.8362,-3.0317 -4.1611,-1.6645 -6.5389,-2.9128 -2.3778,-1.2484 -4.0423,-3.2695 -1.6645,-2.0806 -1.6645,-5.1717 0,-3.2695 2.0212,-5.9445 2.0211,-2.675 5.6472,-4.2206 3.6856,-1.5456 8.3223,-1.5456 1.2484,0 1.8428,0.059 4.8151,0.2972 7.7279,2.6156 2.9722,2.2589 3.9828,5.2906 z"
       id="text13"
       style="font-size:59.445px;line-height:1;font-family:BROLIMO;-inkscape-font-specification:BROLIMO;stroke-width:0.264582;fill:#1a1a1a;fill-opacity:1"
       aria-label="HTML, CSS" /><path
       d="m 3737.1571,5465.3105 q 0.2972,3.6262 2.0211,6.3606 1.7834,2.6751 5.6473,2.6751 4.4584,0 6.0634,-3.5667 1.605,-3.5667 1.605,-10.3435 0,-18.2496 -0.2972,-27.3447 h 5.885 v 27.2853 q 0,5.5878 -1.5455,8.7978 -1.5456,3.2101 -4.4584,4.5179 -2.9128,1.2483 -7.2523,1.2483 -5.8256,0 -8.7979,-2.675 -2.9128,-2.7345 -3.2694,-6.9551 z m 50.5877,9.4518 q -1.6645,-4.8745 -4.3989,-12.1863 -0.2378,-0.8322 -0.6539,-1.9022 h -15.0991 l -5.0528,14.0885 h -1.4861 l 14.8612,-41.6115 h 2.7939 q 9.214,25.6208 15.6935,41.6115 z m -19.6763,-15.4557 h 14.0885 q -3.0912,-8.3818 -7.2523,-19.2008 z m 54.63,-26.1558 h 1.4862 l -14.8613,41.6115 h -2.7939 q -4.9934,-13.7318 -8.6195,-23.3025 -3.5667,-9.6301 -7.074,-18.309 h 6.6578 q 3.329,9.6895 9.3329,25.5613 l 3.4478,9.1546 z m 24.6103,41.6115 q -1.6644,-4.8745 -4.3989,-12.1863 -0.2378,-0.8322 -0.6539,-1.9022 h -15.099 l -5.0528,14.0885 h -1.4862 l 14.8613,-41.6115 h 2.7939 q 9.214,25.6208 15.6935,41.6115 z m -19.6763,-15.4557 h 14.0885 q -3.0911,-8.3818 -7.2523,-19.2008 z m 57.4834,-18.4874 q -1.2484,-2.8534 -4.2206,-4.8151 -2.9723,-2.0211 -7.4901,-2.0211 -3.0912,0 -5.6473,1.07 -2.5561,1.07 -4.0422,2.9723 -1.4862,1.8428 -1.4862,4.1017 0,1.6644 0.7728,3.2694 1.1295,2.1995 3.6856,3.6262 2.6156,1.3672 7.3117,3.1506 3.6856,1.3672 6.004,2.4967 2.3183,1.07 4.2206,2.7344 1.9617,1.6645 2.7344,3.9234 0.4162,1.1889 0.4162,2.7345 0,2.7344 -1.6645,5.2906 -1.605,2.5561 -4.9339,4.2206 -3.2695,1.605 -8.0251,1.605 -7.4901,0 -11.5323,-3.1506 -4.0423,-3.1506 -4.8745,-7.7278 l 1.07,-0.059 q 1.2483,3.9828 4.815,6.7767 3.6262,2.7345 9.5112,2.7345 2.9723,0 5.1123,-1.07 2.1995,-1.07 3.3289,-2.7939 1.1295,-1.7239 1.1295,-3.6856 0,-2.0806 -1.3078,-3.8045 -1.605,-2.0806 -4.1612,-3.4478 -2.4967,-1.3672 -6.8361,-3.0317 -4.1612,-1.6645 -6.539,-2.9128 -2.3778,-1.2483 -4.0423,-3.2695 -1.6644,-2.0805 -1.6644,-5.1717 0,-3.2695 2.0211,-5.9445 2.0211,-2.675 5.6473,-4.2206 3.6856,-1.5456 8.3223,-1.5456 1.2483,0 1.8428,0.06 4.815,0.2972 7.7278,2.6156 2.9723,2.2589 3.9829,5.2906 z m 44.4647,23.8374 q -1.605,4.3395 -5.7661,7.3712 -4.1612,3.0317 -10.7001,3.0317 -7.074,0 -12.1268,-2.9723 -4.9934,-3.0316 -7.5495,-7.8467 -2.4967,-4.8745 -2.4967,-10.3434 0,-5.469 2.4967,-10.284 2.5561,-4.8745 7.4901,-7.8467 4.9933,-3.0317 11.9484,-3.0317 6.8956,0 11.0568,3.0317 4.1611,3.0316 5.5284,7.3711 l -4.1017,0.059 q -1.1295,-3.9828 -4.2206,-6.7173 -3.0317,-2.7939 -7.9062,-2.7939 -5.3501,0 -9.0951,2.6156 -3.6856,2.5561 -5.5878,6.8361 -1.8428,4.2206 -1.8428,9.1546 0,4.9933 1.9022,9.5706 1.9022,4.5773 5.5878,7.609 3.7451,3.0317 8.8573,3.5072 0.7728,0.1189 2.2589,0.1189 4.934,0 8.3223,-2.4372 3.3884,-2.4967 4.8745,-6.0634 z m 27.1665,-5.885 q 3.3289,1.07 5.2906,3.3289 2.0211,2.2589 4.2206,6.0039 1.7239,2.9723 3.0317,4.5179 1.3077,1.5455 3.21,2.14 -2.1995,0.8322 -4.4584,0.8322 -3.5072,0 -5.2906,-2.3778 -0.6539,-0.6539 -1.1889,-1.605 -0.4756,-1.0106 -1.4267,-3.0912 -1.1889,-2.675 -2.14,-4.3989 -0.8917,-1.7239 -2.3778,-3.0911 -1.4861,-1.3673 -3.5072,-1.6645 h -0.1784 -11.5918 q 0,5.8851 0.2378,15.3963 h -6.1823 q 0.2973,-10.5812 0.2973,-20.8058 0,-10.284 -0.2973,-20.8057 h 6.1823 9.8084 q 5.0529,0 8.679,1.9617 3.6262,1.9022 5.469,5.0528 1.8428,3.0911 1.8428,6.5984 0,4.1017 -2.4967,7.4306 -2.4967,3.3289 -7.1334,4.5773 z m -16.2285,-24.2536 q -0.1784,8.0845 -0.1784,17.5363 v 6.0634 h 9.9274 q 0.535,-0.06 1.4861,-0.06 2.8533,-0.2972 4.8745,-1.9617 2.0805,-1.6644 3.0911,-4.1611 1.07,-2.4967 1.07,-5.2906 0,-3.1506 -1.3672,-5.9445 -1.3078,-2.7939 -3.9828,-4.5178 -2.6156,-1.7239 -6.3606,-1.7239 z m 42.3248,-1.3672 q -0.2377,8.3817 -0.2377,20.8057 0,12.3051 0.2377,20.8058 h -6.1822 q 0.2972,-10.5812 0.2972,-20.8058 0,-10.284 -0.2972,-20.8057 z m 20.6869,0 q 5.0528,0 8.679,1.9617 3.6856,1.9022 5.5878,5.0528 1.9023,3.0911 1.9023,6.5984 0,3.3289 -1.8428,6.2417 -1.7834,2.9128 -5.4095,4.7556 -3.6262,1.7834 -8.8573,1.7834 h -9.4518 q 0,5.8256 0.2378,15.2179 h -6.1823 q 0.2972,-10.5812 0.2972,-20.8058 0,-10.284 -0.2972,-20.8057 h 6.1823 z m -1.2483,25.1452 q 3.8044,0 6.4795,-1.605 2.675,-1.6645 3.9828,-4.28 1.3672,-2.6751 1.3672,-5.7068 0,-3.1506 -1.4267,-5.9445 -1.3672,-2.8533 -4.0422,-4.5772 -2.675,-1.7239 -6.4201,-1.7239 l -7.9062,0.059 q -0.1783,8.0845 -0.1783,17.6552 v 6.1228 z m 53.5599,-23.8374 h -15.2774 q -0.2378,11.889 -0.2378,19.2601 0,10.3435 0.2972,21.0436 h -6.1822 q 0.2972,-10.7001 0.2972,-21.0436 0,-7.3711 -0.2378,-19.2601 h -15.4557 v -1.3078 h 36.7965 z"
       id="text14"
       style="font-size:59.445px;line-height:1;font-family:BROLIMO;-inkscape-font-specification:BROLIMO;stroke-width:0.264582;fill:#1a1a1a;fill-opacity:1"
       aria-label="JAVASCRIPT" /><path
       d="m 3772.8835,5645.9183 q -0.2377,12.6023 -0.2377,20.8057 0,8.0845 0.2377,20.8058 h -6.1228 q 0.2378,-8.0845 0.2378,-19.9141 0,-9.6301 -0.1783,-18.0713 l -15.3963,37.9854 h -1.7833 q -3.2695,-8.5601 -10.4029,-25.7992 -4.1612,-9.9867 -5.1123,-12.424 v 38.2232 h -1.3672 v -41.6115 h 6.5984 q 2.9722,7.9656 5.5878,14.4451 2.675,6.4795 6.8362,16.2879 0.2378,0.5945 0.5944,1.3673 0.3567,0.7728 0.7134,1.7239 l 13.6723,-33.7053 v -0.1189 z m 33.527,7.6684 q -1.2484,-2.8534 -4.2206,-4.8151 -2.9723,-2.0211 -7.4901,-2.0211 -3.0911,0 -5.6473,1.07 -2.5561,1.07 -4.0422,2.9723 -1.4861,1.8428 -1.4861,4.1017 0,1.6644 0.7727,3.2694 1.1295,2.1995 3.6856,3.6262 2.6156,1.3672 7.3118,3.1506 3.6856,1.3672 6.0039,2.4967 2.3184,1.07 4.2206,2.7344 1.9617,1.6645 2.7345,3.9234 0.4161,1.1889 0.4161,2.7345 0,2.7344 -1.6645,5.2906 -1.605,2.5561 -4.9339,4.2206 -3.2695,1.605 -8.0251,1.605 -7.4901,0 -11.5323,-3.1506 -4.0423,-3.1506 -4.8745,-7.7278 l 1.07,-0.06 q 1.2484,3.9828 4.8151,6.7767 3.6261,2.7345 9.5112,2.7345 2.9722,0 5.1122,-1.07 2.1995,-1.07 3.3289,-2.7939 1.1295,-1.7239 1.1295,-3.6856 0,-2.0806 -1.3078,-3.8045 -1.605,-2.0806 -4.1611,-3.4478 -2.4967,-1.3672 -6.8362,-3.0317 -4.1612,-1.6644 -6.539,-2.9128 -2.3778,-1.2483 -4.0422,-3.2695 -1.6645,-2.0805 -1.6645,-5.1717 0,-3.2695 2.0211,-5.9445 2.0212,-2.675 5.6473,-4.2206 3.6856,-1.5455 8.3223,-1.5455 1.2484,0 1.8428,0.059 4.8151,0.2972 7.7279,2.6156 2.9722,2.2589 3.9828,5.2906 z m 44.881,34.4781 q -2.259,0.2972 -3.9234,0.2972 -6.8362,0 -11.889,-3.2695 -4.9934,-3.2694 -7.609,-8.5006 -2.5561,-5.2312 -2.5561,-10.9973 0,-5.2312 2.14,-9.749 2.1995,-4.5178 6.5984,-7.4901 4.4584,-2.9722 10.819,-3.3883 0.5944,-0.06 1.7833,-0.06 6.8362,0 11.7702,3.2695 4.9933,3.21 7.5495,8.4412 2.5561,5.1717 2.5561,10.9379 0,4.9339 -1.9617,9.3328 -1.9022,4.399 -5.8256,7.4306 -3.8639,2.9723 -9.4517,3.7451 z m -0.2973,-0.8322 q 3.864,-0.5351 6.539,-3.0912 2.675,-2.6156 3.9828,-6.4795 1.3078,-3.9234 1.3078,-8.4412 0,-5.9445 -2.14,-11.4729 -2.1401,-5.5284 -6.2418,-8.8573 -4.0422,-3.3883 -9.4517,-3.0317 -4.6367,0.2973 -7.7873,2.8534 -3.1506,2.4967 -4.6962,6.5389 -1.4861,3.9829 -1.4861,8.7385 0,5.7661 2.14,11.1756 2.1995,5.4095 6.2418,8.8573 4.0422,3.3884 9.3923,3.3884 1.0105,0 2.1994,-0.1783 z m 29.6036,-40.0065 q -0.1783,8.0845 -0.1783,17.4768 v 4.1017 h 14.6829 v 1.3672 h -14.6829 q 0,10.2246 0.2378,17.358 h -6.1823 q 0.2972,-10.5812 0.2972,-20.8058 0,-10.284 -0.2972,-20.8057 h 26.453 v 1.3078 z m 31.2086,0 q -0.1783,8.0845 -0.1783,17.4768 v 4.1017 h 14.6829 v 1.3672 h -14.6829 q 0,10.2246 0.2378,17.358 h -6.1823 q 0.2972,-10.5812 0.2972,-20.8058 0,-10.284 -0.2972,-20.8057 h 26.453 v 1.3078 z m 31.2681,-1.3078 q -0.2378,8.3817 -0.2378,20.8057 0,12.3051 0.2378,20.8058 h -6.1823 q 0.2972,-10.5812 0.2972,-20.8058 0,-10.284 -0.2972,-20.8057 z m 43.9893,31.5058 q -1.605,4.3395 -5.7662,7.3712 -4.1611,3.0317 -10.7001,3.0317 -7.0739,0 -12.1268,-2.9722 -4.9933,-3.0317 -7.5495,-7.8468 -2.4967,-4.8745 -2.4967,-10.3434 0,-5.469 2.4967,-10.284 2.5562,-4.8745 7.4901,-7.8467 4.9934,-3.0317 11.9484,-3.0317 6.8957,0 11.0568,3.0317 4.1612,3.0317 5.5284,7.3711 l -4.1017,0.06 q -1.1295,-3.9828 -4.2206,-6.7173 -3.0317,-2.7939 -7.9062,-2.7939 -5.35,0 -9.0951,2.6156 -3.6856,2.5561 -5.5878,6.8361 -1.8428,4.2206 -1.8428,9.1546 0,4.9933 1.9022,9.5706 1.9023,4.5773 5.5879,7.609 3.745,3.0317 8.8573,3.5072 0.7728,0.1189 2.2589,0.1189 4.9339,0 8.3223,-2.4372 3.3884,-2.4967 4.8745,-6.0634 z m 32.7542,8.7384 v 1.3673 h -27.9391 q 0.2972,-10.5812 0.2972,-20.8058 0,-10.284 -0.2972,-20.8057 h 26.453 v 1.3078 h -20.3302 q -0.1783,8.0845 -0.1783,17.4768 v 4.1017 h 14.6829 v 1.3672 h -14.6829 q 0,8.6196 0.1783,16.1096 z"
       id="path1"
       style="font-size:59.445px;line-height:1;font-family:BROLIMO;-inkscape-font-specification:BROLIMO;stroke-width:0.264582;fill:#1a1a1a;fill-opacity:1"
       aria-label="MS OFFICE" /><path
       style="fill:none;stroke:#333333;stroke-width:39.6875;stroke-linecap:butt;stroke-linejoin:miter;stroke-dasharray:none;stroke-opacity:1"
       d="m 3742.4925,4440.7417 c 0,0 103.9269,-58.5039 161.5419,-62.8385 82.8229,-6.231 160.065,54.7005 243.1219,54.5703 106.8474,-0.1675 205.903,-64.4643 312.5391,-71.1816 230.5107,-14.5205 458.6297,64.3465 689.5703,67.8743 115.9967,1.772 300.0683,18.5984 347.2367,-23.4966"
       id="path20"
       sodipodi:nodetypes="caaaac" /><circle
       style="opacity:1;fill:#abc2bd;fill-opacity:1;stroke:none;stroke-width:1;stroke-linecap:round;stroke-linejoin:round;stroke-miterlimit:4.7;stroke-dasharray:none"
       id="path5"
       cx="3742.6943"
       cy="4754.7988"
       r="19.857384" /><circle
       style="fill:#abc2bd;fill-opacity:1;stroke:none;stroke-width:1;stroke-linecap:round;stroke-linejoin:round;stroke-miterlimit:4.7;stroke-dasharray:none"
       id="path5-1"
       cx="5413.8779"
       cy="4745.3848"
       r="19.857384" /><path
       id="path4"
       style="color:#000000;fill:#abc2bd;stroke:none;stroke-width:3;stroke-dasharray:none"
       d="m 4502.582,4653.9546 c -14.684,0.2364 -29.3962,0.7982 -44.1348,1.7266 -113.7957,7.1682 -212.4164,70.9853 -311.322,71.1403 -36.6663,0.058 -74.6348,-13.8839 -114.8871,-28.3962 -40.2522,-14.5122 -82.9966,-29.6305 -129.6934,-26.1173 -34.5773,2.6013 -75.1281,19.2402 -109.1365,34.785 -34.0083,15.5448 -60.6505,30.549 -60.6505,30.549 l 19.4691,34.584 c 0,0 25.3224,-14.2462 57.6812,-29.037 32.3588,-14.7908 72.5779,-29.5719 95.6154,-31.3051 36.1259,-2.7178 73.4155,9.5139 113.254,23.8771 39.8387,14.3631 82.0197,30.8207 128.4103,30.748 114.7888,-0.1799 214.2794,-64.9542 313.7555,-71.2204 225.2031,-14.1861 452.7728,64.1026 688.0019,67.9121 58.8629,0.9533 136.5507,5.6286 206.0784,4.7615 20.5679,-0.2566 40.2638,-1.0833 58.8543,-2.5885 v -39.8462 c -18.2164,1.5787 -38.1776,2.4872 -59.3504,2.7513 -67.3573,0.8401 -144.5703,-3.7843 -204.9394,-4.762 -212.4792,-3.441 -426.7453,-73.1071 -647.006,-69.5622 z" /><path
       id="path13"
       style="color:#000000;fill:#d3dedc;fill-opacity:1;stroke-width:3;stroke-dasharray:none;filter:url(#filter4)"
       d="m 4502.582,4658.6049 c -14.684,0.2364 -29.3962,0.7982 -44.1348,1.7266 -113.7957,7.1682 -212.4164,70.9853 -311.322,71.1403 -36.6663,0.058 -74.6348,-13.8839 -114.8871,-28.3962 -40.2522,-14.5122 -82.9966,-29.6305 -129.6934,-26.1173 -34.5773,2.6013 -75.1281,19.2402 -109.1365,34.785 -34.0083,15.5448 -60.6505,30.549 -60.6505,30.549 l 19.4691,14.6993 c 0,0 25.3224,-14.2462 57.6812,-29.037 32.3588,-14.7908 72.5779,-29.5719 95.6154,-31.3051 36.1259,-2.7178 73.4155,9.5139 113.254,23.8771 39.8387,14.3631 82.0197,30.8207 128.4103,30.748 114.7888,-0.1799 214.2794,-64.9542 313.7555,-71.2204 225.2031,-14.1861 452.7728,64.1026 688.0019,67.9121 58.8629,0.9533 136.5507,5.6286 206.0784,4.7615 20.5679,-0.2566 54.1131,-1.9101 72.7036,-3.4153 v -19.9615 c -18.2164,1.5787 -52.0269,3.314 -73.1997,3.5781 -67.3573,0.8401 -144.5703,-3.7843 -204.9394,-4.762 -212.4792,-3.441 -426.7453,-73.1071 -647.006,-69.5622 z"
       sodipodi:nodetypes="sscsccccsccssssccsss" /><g
       id="g52"
       transform="translate(0,57.271201)"><path
         id="path31"
         style="color:#000000;fill:#abc2bd;-inkscape-stroke:none"
         d="m 4502.5822,4804.7353 c -14.684,0.2364 -29.3962,0.7986 -44.1348,1.727 -113.7955,7.1682 -212.4165,70.9853 -311.322,71.1403 -36.6663,0.058 -74.6348,-13.8839 -114.8871,-28.3962 -40.2521,-14.5121 -82.9966,-29.6309 -129.6934,-26.1177 -34.5772,2.6013 -75.1281,19.2406 -109.1365,34.7854 -34.0082,15.5448 -60.6505,30.5486 -60.6505,30.5486 l 19.4691,34.5844 c 0,0 25.3224,-14.2462 57.6812,-29.037 32.3588,-14.7908 72.5779,-29.5718 95.6154,-31.305 36.1258,-2.7178 73.4156,9.5139 113.254,23.877 39.8387,14.3631 82.0197,30.8207 128.4103,30.748 114.7887,-0.1799 214.2795,-64.9542 313.7555,-71.2204 225.2029,-14.1861 452.7731,64.1026 688.0019,67.9121 1.6122,0.026 3.7852,0.1365 5.425,0.168 v -39.7051 c -1.4646,-0.028 -3.3365,-0.1234 -4.7821,-0.1468 -212.479,-3.441 -426.7455,-73.1075 -647.006,-69.5626 z" /></g><circle
       style="fill:#abc2bd;fill-opacity:1;stroke:none;stroke-width:1;stroke-linecap:round;stroke-linejoin:round;stroke-miterlimit:4.7;stroke-dasharray:none"
       id="path5-1-0"
       cx="5154.3701"
       cy="4951.5635"
       r="19.857384" /><g
       id="g51"
       transform="translate(0,84.400364)"><path
         id="path32"
         style="color:#000000;fill:#abc2bd;-inkscape-stroke:none"
         d="m 4502.582,4980.23 c -14.684,0.2363 -29.3962,0.7988 -44.1348,1.7271 -113.7951,7.1682 -212.4167,70.9852 -311.322,71.1403 -36.6663,0.058 -74.6343,-13.8839 -114.8866,-28.3962 -40.2519,-14.5121 -82.9967,-29.6311 -129.6933,-26.1178 -34.5773,2.6013 -75.1288,19.2407 -109.1371,34.7855 -34.0082,15.5447 -60.6505,30.5485 -60.6505,30.5485 l 19.4691,34.5845 c 0,0 25.3224,-14.2461 57.6812,-29.037 32.3588,-14.7908 72.5779,-29.5719 95.6154,-31.3051 36.1256,-2.7178 73.4158,9.5141 113.254,23.8771 39.8387,14.3631 82.0197,30.8207 128.4103,30.748 114.7885,-0.1799 214.2797,-64.9542 313.7555,-71.2204 57.4281,-3.6176 115.0322,-1.0943 172.869,4.5459 v -40.2817 c -43.5297,-4.0187 -87.2559,-6.3064 -131.2302,-5.5987 z" /></g><circle
       style="fill:#abc2bd;fill-opacity:1;stroke:none;stroke-width:1;stroke-linecap:round;stroke-linejoin:round;stroke-miterlimit:4.7;stroke-dasharray:none"
       id="path5-1-0-9"
       cx="4633.5156"
       cy="5090.3564"
       r="20.154688" /><g
       id="g49"
       transform="translate(0,144.50524)"><path
         id="path40"
         style="color:#000000;fill:#abc2bd;-inkscape-stroke:none"
         d="m 4502.582,5331.22 c -14.684,0.2364 -29.3962,0.7986 -44.1348,1.727 -113.7951,7.1681 -212.4167,70.9854 -311.322,71.1404 -36.6663,0.058 -74.6339,-13.884 -114.8861,-28.3962 -40.2519,-14.5121 -82.9967,-29.631 -129.6933,-26.1178 -34.5773,2.6013 -75.1292,19.2407 -109.1376,34.7854 -34.0081,15.5448 -60.65,30.5486 -60.65,30.5486 l 19.4691,34.5844 c 0,0 25.3225,-14.2462 57.6812,-29.037 32.3588,-14.7907 72.5779,-29.5718 95.6154,-31.305 36.1256,-2.7178 73.4158,9.514 113.2541,23.8771 39.8385,14.3631 82.0191,30.8207 128.4097,30.748 114.7885,-0.1799 214.2797,-64.9544 313.7555,-71.2205 93.5602,-5.8936 187.5485,4.2562 282.3058,18.3115 v -40.8326 c -79.5498,-11.5395 -159.6964,-20.1165 -240.667,-18.8133 z" /></g><g
       id="g3"
       transform="matrix(1.0000001,0,0,0.99844946,-5.8137111e-4,191.65632)"
       style="stroke-width:1.00078"><path
         id="path3"
         style="color:#000000;fill:#abc2bd;stroke-width:1.00078;-inkscape-stroke:none"
         d="m 4502.5822,5505.3726 c -14.684,0.2364 -29.3962,0.7987 -44.1348,1.7271 -113.7953,7.1681 -212.4166,70.9853 -311.322,71.1403 -36.6663,0.058 -74.6343,-13.8839 -114.8865,-28.3962 -40.252,-14.5121 -82.9966,-29.631 -129.6933,-26.1178 -34.5773,2.6013 -75.1287,19.2407 -109.1371,34.7855 -34.0082,15.5448 -60.6505,30.5485 -60.6505,30.5485 l 19.4691,34.5845 c 0,0 25.3224,-14.2462 57.6812,-29.037 32.3588,-14.7908 72.5779,-29.5719 95.6154,-31.3051 36.1257,-2.7178 73.4157,9.514 113.254,23.8771 39.8386,14.3631 82.0196,30.8207 128.4102,30.748 114.7886,-0.1799 214.2796,-64.9543 313.7555,-71.2204 140.8903,-8.8751 282.7092,18.4394 426.7481,41.0719 v -40.8161 c -126.8658,-20.2656 -254.9241,-43.6855 -385.1093,-41.5903 z" /></g><g
       id="g48"
       transform="matrix(1.0000001,0,0,0.99844946,-5.8137111e-4,400.01028)"
       style="stroke-width:1.00078"><path
         style="fill:none;stroke:none;stroke-width:39.7183;stroke-linecap:butt;stroke-linejoin:miter;stroke-dasharray:none;stroke-opacity:1"
         d="m 3742.4926,5606.3522 c 0,0 103.9268,-58.5038 161.5419,-62.8384 82.8229,-6.231 160.065,54.7004 243.1218,54.5703 106.8474,-0.1675 205.9031,-64.4643 312.5391,-71.1816 230.5107,-14.5205 458.6298,64.3465 689.5704,67.8743 115.9967,1.772 300.0683,18.5984 347.2366,-23.4966"
         id="path15"
         sodipodi:nodetypes="caaaac" /><path
         id="path16"
         style="color:#000000;fill:#abc2bd;stroke-width:1.00078;-inkscape-stroke:none"
         d="m 4470.7184,5506.6192 c -4.0937,0.2024 -8.1732,0.2221 -12.2711,0.4803 -113.7952,7.1681 -212.4167,70.9856 -311.322,71.1406 -36.6663,0.058 -74.6344,-13.8841 -114.8865,-28.3963 -40.252,-14.5121 -82.9968,-29.6312 -129.6934,-26.118 -34.5773,2.6013 -75.1286,19.2409 -109.137,34.7857 -34.0082,15.5447 -60.6506,30.5483 -60.6506,30.5483 l 19.4691,34.5848 c 0,0 25.3225,-14.2462 57.6813,-29.037 32.3587,-14.7908 72.5778,-29.5718 95.6153,-31.305 36.1257,-2.7178 73.4158,9.5138 113.2541,23.8769 39.8385,14.3631 82.0196,30.8208 128.4102,30.7481 114.7885,-0.1799 214.2797,-64.9542 313.7555,-71.2203 3.2569,-0.2052 6.5171,-0.2952 9.7751,-0.4622 z" /></g><g
       id="g50"
       transform="translate(0,121.06151)"><path
         id="path30"
         style="color:#000000;fill:#abc2bd;-inkscape-stroke:none"
         d="m 4502.5822,5155.7253 c -14.684,0.2364 -29.3962,0.7981 -44.1348,1.7265 -113.7955,7.1682 -212.4165,70.9853 -311.322,71.1403 -36.6663,0.058 -74.6348,-13.8839 -114.8871,-28.3962 -40.2521,-14.5121 -82.9966,-29.6304 -129.6934,-26.1172 -34.5772,2.6013 -75.1281,19.2401 -109.1365,34.7849 -34.0082,15.5447 -60.6505,30.5491 -60.6505,30.5491 l 19.4691,34.5838 c 0,0 25.3224,-14.2461 57.6812,-29.037 32.3588,-14.7908 72.5779,-29.5719 95.6154,-31.3051 36.1258,-2.7177 73.4156,9.5141 113.254,23.8771 39.8387,14.3631 82.0197,30.8207 128.4103,30.748 114.7887,-0.1799 214.2795,-64.9542 313.7555,-71.2204 225.2029,-14.1861 452.7731,64.1026 688.0019,67.9121 52.5084,0.8504 119.7692,4.4584 183.0819,4.6561 v -39.687 c -61.6877,-0.2109 -128.6067,-3.7811 -182.439,-4.653 -212.479,-3.441 -426.7455,-73.107 -647.006,-69.562 z" /></g><rect
       style="opacity:0.75;fill:#1a1a1a;fill-opacity:1;stroke:none;stroke-width:39.6875;stroke-linecap:square;stroke-miterlimit:4.7;stroke-dasharray:none;stroke-opacity:1"
       id="rect41"
       width="18.25625"
       height="18.25625"
       x="3732.7581"
       y="4888.0146"
       rx="9.1281252"
       ry="9.1281252" /><rect
       style="opacity:0.75;fill:#1a1a1a;fill-opacity:1;stroke:none;stroke-width:39.6875;stroke-linecap:square;stroke-miterlimit:4.7;stroke-dasharray:none;stroke-opacity:1"
       id="rect42"
       width="18.25625"
       height="18.25625"
       x="3732.7581"
       y="4680.6914" /><rect
       style="opacity:0.75;fill:#1a1a1a;fill-opacity:1;stroke:none;stroke-width:39.6875;stroke-linecap:square;stroke-miterlimit:4.7;stroke-dasharray:none;stroke-opacity:1"
       id="rect43"
       width="18.25625"
       height="18.25625"
       x="3732.7578"
       y="5090.6416" /><rect
       style="opacity:0.75;fill:#1a1a1a;fill-opacity:1;stroke:none;stroke-width:39.6875;stroke-linecap:square;stroke-miterlimit:4.7;stroke-dasharray:none;stroke-opacity:1"
       id="rect44"
       width="18.25625"
       height="18.25625"
       x="3732.7581"
       y="5302.7983"
       ry="9.1281252"
       rx="9.1281252" /><rect
       style="opacity:0.75;fill:#1a1a1a;fill-opacity:1;stroke:none;stroke-width:39.6875;stroke-linecap:square;stroke-miterlimit:4.7;stroke-dasharray:none;stroke-opacity:1"
       id="rect45"
       width="18.25625"
       height="18.25625"
       x="3732.7581"
       y="5501.7344" /><rect
       style="opacity:0.75;fill:#1a1a1a;fill-opacity:1;stroke:none;stroke-width:39.6875;stroke-linecap:square;stroke-miterlimit:4.7;stroke-dasharray:none;stroke-opacity:1"
       id="rect3"
       width="18.25625"
       height="18.25625"
       x="3732.7581"
       y="5714.501"
       ry="9.1281252"
       rx="9.1281252" /><rect
       style="opacity:0.75;fill:#1a1a1a;fill-opacity:1;stroke:none;stroke-width:39.6875;stroke-linecap:square;stroke-miterlimit:4.7;stroke-dasharray:none;stroke-opacity:1"
       id="rect100"
       width="18.25625"
       height="18.25625"
       x="3732.7581"
       y="5922.855"
       ry="9.1281252"
       rx="9.1281252" /><path
       d="m 3761.5296,5861.9402 q -1.2484,-2.8534 -4.2206,-4.815 -2.9723,-2.0212 -7.4901,-2.0212 -3.0912,0 -5.6473,1.07 -2.5561,1.0701 -4.0422,2.9723 -1.4862,1.8428 -1.4862,4.1017 0,1.6645 0.7728,3.2695 1.1295,2.1994 3.6856,3.6261 2.6156,1.3673 7.3117,3.1506 3.6856,1.3672 6.004,2.4967 2.3183,1.07 4.2206,2.7345 1.9617,1.6644 2.7344,3.9233 0.4162,1.1889 0.4162,2.7345 0,2.7345 -1.6645,5.2906 -1.605,2.5561 -4.9339,4.2206 -3.2695,1.605 -8.0251,1.605 -7.4901,0 -11.5323,-3.1506 -4.0423,-3.1506 -4.8745,-7.7278 l 1.07,-0.06 q 1.2483,3.9829 4.815,6.7768 3.6262,2.7344 9.5112,2.7344 2.9723,0 5.1123,-1.07 2.1995,-1.07 3.3289,-2.7939 1.1295,-1.7239 1.1295,-3.6856 0,-2.0806 -1.3078,-3.8045 -1.605,-2.0805 -4.1612,-3.4478 -2.4967,-1.3672 -6.8361,-3.0317 -4.1612,-1.6644 -6.539,-2.9128 -2.3778,-1.2483 -4.0423,-3.2694 -1.6644,-2.0806 -1.6644,-5.1718 0,-3.2694 2.0211,-5.9445 2.0211,-2.675 5.6473,-4.2206 3.6856,-1.5455 8.3223,-1.5455 1.2483,0 1.8428,0.059 4.815,0.2972 7.7278,2.6156 2.9723,2.2589 3.9829,5.2906 z m 36.4991,-7.6684 h 1.4861 l -14.8612,41.6115 h -2.794 q -4.9933,-13.7318 -8.6195,-23.3024 -3.5667,-9.6301 -7.0739,-18.3091 h 6.6578 q 3.3289,9.6895 9.3329,25.5614 l 3.4478,9.1545 z m 35.3103,40.2443 v 1.3672 h -27.9391 q 0.2972,-10.5812 0.2972,-20.8057 0,-10.284 -0.2972,-20.8058 h 26.453 v 1.3078 h -20.3302 q -0.1783,8.0845 -0.1783,17.4768 v 4.1017 h 14.6829 v 1.3673 h -14.6829 q 0,8.6195 0.1783,16.1096 z m 31.5058,0 v 1.3672 h -26.7502 q 0.2972,-10.5812 0.2972,-20.8057 0,-10.284 -0.2972,-20.8058 h 6.1822 q -0.2972,10.7001 -0.2972,21.0435 0,7.4307 0.2378,19.3197 z m 28.4742,-38.9365 h -15.2773 q -0.2378,11.889 -0.2378,19.2602 0,10.3434 0.2972,21.0435 h -6.1823 q 0.2973,-10.7001 0.2973,-21.0435 0,-7.3712 -0.2378,-19.2602 h -15.4557 v -1.3078 h 36.7964 z m 32.7543,38.9365 v 1.3672 h -27.9392 q 0.2973,-10.5812 0.2973,-20.8057 0,-10.284 -0.2973,-20.8058 h 26.4531 v 1.3078 h -20.3302 q -0.1784,8.0845 -0.1784,17.4768 v 4.1017 h 14.683 v 1.3673 h -14.683 q 0,8.6195 0.1784,16.1096 z m 6.5983,5.885 h -1.8428 l 1.8428,-8.1439 h 3.7451 z m 49.1611,-38.4609 q -1.2484,-2.8534 -4.2206,-4.815 -2.9723,-2.0212 -7.4901,-2.0212 -3.0911,0 -5.6473,1.07 -2.5561,1.0701 -4.0422,2.9723 -1.4861,1.8428 -1.4861,4.1017 0,1.6645 0.7727,3.2695 1.1295,2.1994 3.6856,3.6261 2.6156,1.3673 7.3118,3.1506 3.6856,1.3672 6.0039,2.4967 2.3184,1.07 4.2206,2.7345 1.9617,1.6644 2.7345,3.9233 0.4161,1.1889 0.4161,2.7345 0,2.7345 -1.6645,5.2906 -1.605,2.5561 -4.9339,4.2206 -3.2695,1.605 -8.0251,1.605 -7.49,0 -11.5323,-3.1506 -4.0423,-3.1506 -4.8745,-7.7278 l 1.07,-0.06 q 1.2484,3.9829 4.8151,6.7768 3.6261,2.7344 9.5112,2.7344 2.9722,0 5.1122,-1.07 2.1995,-1.07 3.3289,-2.7939 1.1295,-1.7239 1.1295,-3.6856 0,-2.0806 -1.3078,-3.8045 -1.605,-2.0805 -4.1611,-3.4478 -2.4967,-1.3672 -6.8362,-3.0317 -4.1612,-1.6644 -6.539,-2.9128 -2.3778,-1.2483 -4.0422,-3.2694 -1.6645,-2.0806 -1.6645,-5.1718 0,-3.2694 2.0211,-5.9445 2.0212,-2.675 5.6473,-4.2206 3.6856,-1.5455 8.3223,-1.5455 1.2484,0 1.8428,0.059 4.8151,0.2972 7.7279,2.6156 2.9722,2.2589 3.9828,5.2906 z m 36.4991,-7.6684 h 1.4862 l -14.8613,41.6115 h -2.7939 q -4.9934,-13.7318 -8.6195,-23.3024 -3.5667,-9.6301 -7.074,-18.3091 h 6.6578 q 3.329,9.6895 9.3329,25.5614 l 3.4478,9.1545 z m 35.3103,40.2443 v 1.3672 h -27.9391 q 0.2972,-10.5812 0.2972,-20.8057 0,-10.284 -0.2972,-20.8058 h 26.453 v 1.3078 h -20.3302 q -0.1783,8.0845 -0.1783,17.4768 v 4.1017 h 14.6829 v 1.3673 h -14.6829 q 0,8.6195 0.1783,16.1096 z m 31.5058,0 v 1.3672 h -26.7502 q 0.2972,-10.5812 0.2972,-20.8057 0,-10.284 -0.2972,-20.8058 h 6.1823 q -0.2972,10.7001 -0.2972,21.0435 0,7.4307 0.2377,19.3197 z m 28.4743,-38.9365 h -15.2774 q -0.2378,11.889 -0.2378,19.2602 0,10.3434 0.2973,21.0435 h -6.1823 q 0.2972,-10.7001 0.2972,-21.0435 0,-7.3712 -0.2378,-19.2602 h -15.4557 v -1.3078 h 36.7965 z m 32.7542,38.9365 v 1.3672 h -27.9391 q 0.2972,-10.5812 0.2972,-20.8057 0,-10.284 -0.2972,-20.8058 h 26.453 v 1.3078 h -20.3302 q -0.1783,8.0845 -0.1783,17.4768 v 4.1017 h 14.6829 v 1.3673 h -14.6829 q 0,8.6195 0.1783,16.1096 z m 31.3275,1.3672 q -2.1995,-3.8639 -5.1123,-8.3817 -2.8533,-4.5179 -5.7067,-8.7979 -0.7728,-1.2483 -1.7239,-2.5561 -0.8917,-1.3673 -1.8428,-2.9128 l -6.2417,6.1822 q 0,6.3607 0.2378,16.4663 h -6.1823 q 0.2972,-10.5812 0.2972,-20.8057 0,-10.284 -0.2972,-20.8058 h 6.1823 q -0.2378,11.6512 -0.2378,19.0224 v 4.28 l 23.5996,-23.3024 h 1.9617 l -14.9801,14.6829 q 5.7067,9.5707 16.4068,25.4425 0.2972,0.4755 0.535,0.8322 0.2378,0.3567 0.4161,0.6539 z m 18.2496,-41.6115 q -0.2378,8.3817 -0.2378,20.8058 0,12.3051 0.2378,20.8057 h -6.1823 q 0.2972,-10.5812 0.2972,-20.8057 0,-10.284 -0.2972,-20.8058 z m 41.5521,1.3078 h -15.2774 q -0.2378,11.889 -0.2378,19.2602 0,10.3434 0.2972,21.0435 h -6.1822 q 0.2972,-10.7001 0.2972,-21.0435 0,-7.3712 -0.2378,-19.2602 h -15.4557 v -1.3078 h 36.7965 z"
       id="text6-4"
       style="font-size:59.445px;line-height:1;font-family:BROLIMO;-inkscape-font-specification:BROLIMO;stroke-width:0.264582;fill:#1a1a1a;fill-opacity:1"
       aria-label="SVELTE, SVELTEKIT&#10;" /><circle
       style="fill:#abc2bd;fill-opacity:1;stroke:none;stroke-width:1;stroke-linecap:round;stroke-linejoin:round;stroke-miterlimit:4.7;stroke-dasharray:none"
       id="circle5"
       cx="3741.8862"
       cy="4963.2881"
       r="19.857384" /><circle
       style="fill:#abc2bd;fill-opacity:1;stroke:none;stroke-width:1;stroke-linecap:round;stroke-linejoin:round;stroke-miterlimit:4.7;stroke-dasharray:none"
       id="circle6"
       cx="3741.886"
       cy="5165.9312"
       r="19.857384" /><circle
       style="fill:#abc2bd;fill-opacity:1;stroke:none;stroke-width:1;stroke-linecap:round;stroke-linejoin:round;stroke-miterlimit:4.7;stroke-dasharray:none"
       id="circle7"
       cx="3742.0325"
       cy="5377.9175"
       r="19.857384" /><circle
       style="fill:#abc2bd;fill-opacity:1;stroke:none;stroke-width:1;stroke-linecap:round;stroke-linejoin:round;stroke-miterlimit:4.7;stroke-dasharray:none"
       id="circle8"
       cx="3741.8862"
       cy="5577.0386"
       r="19.857384" /><circle
       style="fill:#abc2bd;fill-opacity:1;stroke:none;stroke-width:1;stroke-linecap:round;stroke-linejoin:round;stroke-miterlimit:4.7;stroke-dasharray:none"
       id="circle9"
       cx="3741.8862"
       cy="5789.645"
       r="19.857384" /><circle
       style="fill:#abc2bd;fill-opacity:1;stroke:none;stroke-width:1;stroke-linecap:round;stroke-linejoin:round;stroke-miterlimit:4.7;stroke-dasharray:none"
       id="path5-8"
       cx="3742.4924"
       cy="5997.6694"
       r="19.857384" /><path
       id="path12"
       style="color:#000000;fill:#d3dedc;fill-opacity:1;stroke-width:3;stroke-dasharray:none;filter:url(#filter9)"
       d="m 4502.582,4865.2784 c -14.684,0.2364 -29.3962,0.7981 -44.1348,1.7265 -113.7955,7.1682 -212.4165,70.9853 -311.322,71.1403 -36.6663,0.058 -74.6348,-13.8839 -114.8871,-28.3962 -40.2521,-14.5122 -82.9966,-29.6304 -129.6934,-26.1172 -34.5772,2.6013 -75.1281,19.2401 -109.1364,34.7849 -34.0083,15.5448 -60.6506,30.549 -60.6506,30.549 l 19.4691,14.6994 c 0,0 25.3225,-14.2462 57.6812,-29.037 32.3588,-14.7908 72.5779,-29.5718 95.6154,-31.305 36.1258,-2.7178 73.4156,9.5139 113.254,23.8771 39.8387,14.363 82.0197,30.8206 128.4103,30.7479 114.7887,-0.1799 214.2795,-64.9542 313.7555,-71.2204 225.2029,-14.1861 452.7731,64.1026 688.002,67.9121 1.6121,0.026 16.3551,0.2827 17.9949,0.3142 v -19.8205 c -1.4646,-0.028 -15.9064,-0.2696 -17.3521,-0.293 -212.479,-3.441 -426.7455,-73.107 -647.006,-69.5621 z"
       sodipodi:nodetypes="sscscsccsccssscccs" /><path
       id="path38"
       style="color:#000000;mix-blend-mode:normal;fill:#d3dedc;fill-opacity:1;stroke-width:3;stroke-dasharray:none;filter:url(#filter13)"
       d="m 4502.582,5068.6337 c -14.684,0.2364 -29.3962,0.7981 -44.1348,1.7265 -113.7953,7.1682 -212.4166,70.9854 -311.322,71.1404 -36.6663,0.058 -74.6348,-13.8839 -114.8871,-28.3962 -40.252,-14.5122 -82.9966,-29.6305 -129.6934,-26.1173 -34.5771,2.6013 -75.1282,19.2402 -109.1364,34.785 -34.0083,15.5448 -60.6506,30.549 -60.6506,30.549 l 19.4691,14.6994 c 0,0 25.3226,-14.2462 57.6812,-29.037 32.3588,-14.7908 72.5779,-29.5719 95.6154,-31.3051 36.1257,-2.7178 73.4157,9.5139 113.254,23.8771 39.8387,14.363 82.0197,30.8207 128.4103,30.748 114.7886,-0.1799 214.2796,-64.9542 313.7555,-71.2204 57.6139,-3.6293 128.7617,-0.093 186.7741,5.5865 v -20.3161 c -43.7051,-4.0499 -100.9824,-7.4304 -145.1353,-6.7198 z"
       sodipodi:nodetypes="sscsssccsscssccs" /><circle
       style="fill:#abc2bd;fill-opacity:1;stroke:none;stroke-width:1;stroke-linecap:round;stroke-linejoin:round;stroke-miterlimit:4.7;stroke-dasharray:none"
       id="path5-1-0-3"
       cx="5332.0273"
       cy="5370.8594"
       r="19.857384" /><path
       style="fill:#abc2bd;stroke:none;stroke-width:0.264583px;stroke-linecap:butt;stroke-linejoin:miter;stroke-opacity:1;fill-opacity:1"
       d="m 4743.249,5494.5385 c -5.345,0 -10.657,2.2003 -14.4365,5.9798 -3.7795,3.7795 -5.9798,9.0915 -5.9798,14.4365 0,5.345 2.2003,10.657 5.9798,14.4365 3.7795,3.7795 9.0915,5.9798 14.4365,5.9798 5.345,0 10.657,-2.2003 14.4365,-5.9798 3.7795,-3.7795 5.9798,-9.0915 5.9798,-14.4365 0,-5.345 -2.2003,-10.657 -5.9798,-14.4365 -3.7795,-3.7795 -9.0915,-5.9798 -14.4365,-5.9798 z"
       id="path10"
       inkscape:path-effect="#path-effect10"
       inkscape:original-d="m 4743.249,5494.5385 c 0,-13.6108 0,27.2218 0,40.8326 0,13.6109 0,-27.2217 0,-40.8326 z" /><path
       style="fill:#abc2bd;stroke:none;stroke-width:0.264583px;stroke-linecap:butt;stroke-linejoin:miter;stroke-opacity:1;fill-opacity:1"
       d="m 4887.6914,5730.0184 c -5.3345,0 -10.6362,2.196 -14.4083,5.9681 -3.7721,3.7721 -5.9681,9.0738 -5.9681,14.4083 0,5.3345 2.196,10.6362 5.9681,14.4083 3.7721,3.7721 9.0738,5.9681 14.4083,5.9681 5.3345,0 10.6362,-2.196 14.4083,-5.9681 3.7721,-3.7721 5.9681,-9.0738 5.9681,-14.4083 0,-5.3345 -2.196,-10.6362 -5.9681,-14.4083 -3.7721,-3.7721 -9.0738,-5.9681 -14.4083,-5.9681 z"
       id="path11"
       inkscape:path-effect="#path-effect11"
       inkscape:original-d="m 4887.6914,5730.0184 c 0,-13.5843 0,27.1686 0,40.7528 0,13.5843 0,-27.1685 0,-40.7528 z" /><path
       style="fill:#abc2bd;fill-opacity:1;stroke:none;stroke-width:0.272176px;stroke-linecap:butt;stroke-linejoin:miter;stroke-opacity:1"
       d="m 4887.6914,5730.0184 c -5.3345,0 -10.6362,2.196 -14.4083,5.9681 -3.7721,3.7721 -5.9681,9.0738 -5.9681,14.4083 0,5.3345 2.196,10.6362 5.9681,14.4083 3.7721,3.7721 9.0738,5.9681 14.4083,5.9681 5.3345,0 10.6362,-2.196 14.4083,-5.9681 3.7721,-3.7721 5.9681,-9.0738 5.9681,-14.4083 0,-5.3345 -2.196,-10.6362 -5.9681,-14.4083 -3.7721,-3.7721 -9.0738,-5.9681 -14.4083,-5.9681 z"
       id="path11-5"
       inkscape:path-effect="#path-effect11-7"
       inkscape:original-d="m 4887.6914,5730.0184 c 0,-13.5843 0,27.1686 0,40.7528 0,13.5843 0,-27.1685 0,-40.7528 z"
       transform="matrix(0.97210298,0,0,0.97210298,-280.62112,327.92327)" /><path
       id="path14"
       style="color:#000000;fill:#d3dedc;fill-opacity:1;stroke-width:3;stroke-dasharray:none;filter:url(#filter4)"
       d="m 4502.582,5279.4329 c -14.684,0.2363 -29.3962,0.7981 -44.1348,1.7265 -113.7955,7.1682 -212.4165,70.9853 -311.322,71.1403 -36.6663,0.058 -74.6348,-13.8839 -114.8871,-28.3962 -40.2521,-14.5122 -82.9966,-29.6304 -129.6934,-26.1172 -34.5772,2.6012 -75.1281,19.2401 -109.1364,34.7849 -34.0083,15.5448 -60.6506,30.549 -60.6506,30.549 l 19.4691,14.6994 c 0,0 25.3225,-14.2462 57.6812,-29.037 32.3588,-14.7908 72.5779,-29.5718 95.6154,-31.305 36.1258,-2.7178 73.4156,9.5139 113.254,23.8771 39.8387,14.363 82.0197,30.8206 128.4103,30.7479 114.7887,-0.1799 214.2795,-64.9542 313.7555,-71.2204 225.2029,-14.1861 452.7731,64.1026 688.002,67.9121 56.5763,0.9163 130.4068,5.1568 197.8039,4.7238 v -19.7988 c -65.5101,0.4271 -139.0518,-3.7832 -197.1611,-4.7243 -212.479,-3.441 -426.7455,-73.107 -647.006,-69.5621 z" /><path
       id="path17"
       style="color:#000000;fill:#d3dedc;fill-opacity:1;stroke-width:3;stroke-dasharray:none;filter:url(#filter4)"
       d="M 4502.582 5478.7995 C 4487.898 5479.0358 4473.1858 5479.5976 4458.4472 5480.526 C 4344.6519 5487.6942 4246.0306 5551.5108 4147.1252 5551.6658 C 4110.4589 5551.7238 4072.4904 5537.7819 4032.2381 5523.2696 C 3991.9861 5508.7575 3949.2415 5493.6397 3902.5447 5497.1529 C 3867.9676 5499.7541 3827.4165 5516.3931 3793.4083 5531.9379 C 3759.4 5547.4826 3732.7577 5562.4864 3732.7577 5562.4864 L 3752.2268 5577.1863 C 3752.2268 5577.1863 3777.5494 5562.9395 3809.908 5548.1487 C 3842.2668 5533.358 3882.4859 5518.5774 3905.5234 5516.8442 C 3941.6491 5514.1264 3978.9391 5526.3581 4018.7774 5540.7213 C 4058.6161 5555.0843 4100.7971 5571.5415 4147.1877 5571.4688 C 4261.9763 5571.2889 4361.4673 5506.515 4460.9432 5500.2488 C 4558.8905 5494.0789 4657.3405 5505.6306 4756.6187 5520.7106 L 4756.6187 5499.6768 C 4672.673 5487.1442 4588.0883 5477.4233 4502.582 5478.7995 z " /><path
       id="path18"
       style="color:#000000;fill:#d3dedc;fill-opacity:1;stroke-width:3;stroke-dasharray:none;filter:url(#filter4)"
       d="M 4502.582 5692.1198 C 4487.898 5692.3561 4473.1858 5692.9179 4458.4472 5693.8463 C 4344.6519 5701.0145 4246.0306 5764.8312 4147.1252 5764.9862 C 4110.4589 5765.0442 4072.4904 5751.1022 4032.2381 5736.59 C 3991.9861 5722.0778 3949.2415 5706.96 3902.5447 5710.4732 C 3867.9676 5713.0744 3827.4165 5729.7129 3793.4083 5745.2576 C 3759.4 5760.8024 3732.7577 5775.8067 3732.7577 5775.8067 L 3752.2268 5790.506 C 3752.2268 5790.506 3777.5494 5776.2598 3809.908 5761.4691 C 3842.2668 5746.6783 3882.4859 5731.8977 3905.5234 5730.1645 C 3941.6491 5727.4467 3978.9391 5739.6784 4018.7774 5754.0416 C 4058.6161 5768.4046 4100.7971 5784.8618 4147.1877 5784.7891 C 4261.9763 5784.6092 4361.4673 5719.8353 4460.9432 5713.5691 C 4605.4081 5704.4689 4750.8791 5733.3165 4898.6891 5756.2523 L 4898.6891 5735.4763 C 4768.233 5714.8415 4636.5254 5689.9641 4502.582 5692.1198 z " /><path
       id="path9"
       style="color:#000000;fill:#d3dedc;fill-opacity:1;stroke-width:3;stroke-dasharray:none;filter:url(#filter4)"
       d="M 4482.5858 5900.8481 C 4474.541 5901.1433 4466.5082 5901.2845 4458.4472 5901.7923 C 4344.6519 5908.9605 4246.0306 5972.7776 4147.1252 5972.9326 C 4110.4589 5972.9906 4072.4904 5959.0487 4032.2381 5944.5364 C 3991.9861 5930.0243 3949.2415 5914.906 3902.5447 5918.4192 C 3867.9676 5921.0204 3827.4165 5937.6593 3793.4083 5953.2041 C 3759.4 5968.7489 3732.7577 5983.7526 3732.7577 5983.7526 L 3752.2268 5998.4525 C 3752.2268 5998.4525 3777.5494 5984.2063 3809.908 5969.4155 C 3842.2668 5954.6248 3882.4859 5939.8437 3905.5234 5938.1105 C 3941.6491 5935.3927 3978.9391 5947.6244 4018.7774 5961.9876 C 4058.6161 5976.3506 4100.7971 5992.8077 4147.1877 5992.735 C 4261.9763 5992.5551 4361.4673 5927.7813 4460.9432 5921.5151 C 4468.1524 5921.061 4475.3716 5920.9568 4482.5858 5920.6867 L 4482.5858 5900.8481 z " /></g></svg>
