<?xml version="1.0" encoding="UTF-8" standalone="no"?>
<!-- Created with Inkscape (http://www.inkscape.org/) -->

<svg
   width="1641.1842"
   height="2278.3201"
   viewBox="0 0 434.22998 602.80551"
   version="1.1"
   id="svg1"
   sodipodi:docname="AboutMe_EducationSVG.svg"
   xml:space="preserve"
   inkscape:version="1.3 (0e150ed6c4, 2023-07-21)"
   xmlns:inkscape="http://www.inkscape.org/namespaces/inkscape"
   xmlns:sodipodi="http://sodipodi.sourceforge.net/DTD/sodipodi-0.dtd"
   xmlns:xlink="http://www.w3.org/1999/xlink"
   xmlns="http://www.w3.org/2000/svg"
   xmlns:svg="http://www.w3.org/2000/svg"><sodipodi:namedview
     id="namedview1"
     pagecolor="#505050"
     bordercolor="#000000"
     borderopacity="1"
     inkscape:showpageshadow="0"
     inkscape:pageopacity="0"
     inkscape:pagecheckerboard="0"
     inkscape:deskcolor="#747474"
     inkscape:document-units="mm"
     inkscape:zoom="0.35355339"
     inkscape:cx="958.83679"
     inkscape:cy="1571.1913"
     inkscape:window-width="1920"
     inkscape:window-height="1009"
     inkscape:window-x="-8"
     inkscape:window-y="-8"
     inkscape:window-maximized="1"
     inkscape:current-layer="layer1" /><defs
     id="defs1"><linearGradient
       id="linearGradient1"
       inkscape:collect="always"><stop
         style="stop-color:#bacfc9;stop-opacity:1;"
         offset="0"
         id="stop1" /><stop
         style="stop-color:#86aca6;stop-opacity:1;"
         offset="1"
         id="stop2" /></linearGradient><linearGradient
       inkscape:collect="always"
       xlink:href="#linearGradient1"
       id="linearGradient11"
       gradientUnits="userSpaceOnUse"
       gradientTransform="matrix(0,-0.57094156,-0.57094156,0,3213.4381,3268.368)"
       x1="3056.0662"
       y1="-520.8139"
       x2="2698.7551"
       y2="-639.15149" /><filter
       inkscape:collect="always"
       style="color-interpolation-filters:sRGB"
       id="filter2"
       x="-0.5561443"
       y="-0.41075423"
       width="2.1122886"
       height="1.8215085"><feGaussianBlur
         inkscape:collect="always"
         stdDeviation="30.774768"
         id="feGaussianBlur2" /></filter><filter
       inkscape:collect="always"
       style="color-interpolation-filters:sRGB"
       id="filter5"
       x="-0.34057095"
       y="-0.22570145"
       width="1.6811419"
       height="1.4514029"><feGaussianBlur
         inkscape:collect="always"
         stdDeviation="13.156208"
         id="feGaussianBlur5" /></filter></defs><g
     inkscape:label="Слой 1"
     inkscape:groupmode="layer"
     id="layer1"
     transform="translate(-3891.0669,-1519.3338)"><path
       id="path2"
       style="fill:#b2c7c3;fill-opacity:1;stroke:none;stroke-width:13.2293;stroke-linecap:square;stroke-miterlimit:4.7;stroke-dasharray:none;stroke-opacity:1"
       d="m 4001.4542,1731.8468 c -44.0565,-16.3409 -92.9444,-59.209 -92.704,-106.1977 0.208,-40.663 48.3247,-67.0888 81.16,-91.0756 9.656,-7.0539 20.9295,-12.9341 32.772,-14.5929 10.5773,-1.4816 22.3313,-0.5916 31.7255,4.4901 6.0539,3.2749 12.0494,8.8248 13.6101,15.5284 5.6192,24.1366 -17.103,47.1183 -19.2701,71.8054 -3.2724,37.2785 33.0153,82.5192 9.7629,111.8403 -11.9389,15.0549 -39.0414,14.884 -57.0564,8.202 z"
       sodipodi:nodetypes="aaaaaaaaa" /><path
       id="path3"
       style="mix-blend-mode:normal;fill:#d3dfda;fill-opacity:1;stroke:none;stroke-width:21.0741;stroke-linecap:square;stroke-miterlimit:4.7;stroke-dasharray:none;stroke-opacity:1;filter:url(#filter2)"
       d="m 3999.298,1714.07 c -36.5323,-13.5501 -77.0709,-49.097 -76.8715,-88.0607 0.1724,-33.7184 40.0715,-55.631 67.299,-75.5212 8.0069,-5.8492 17.3551,-10.7252 27.1751,-12.1007 8.7708,-1.2285 18.5174,-0.4905 26.3072,3.7233 5.02,2.7156 9.9915,7.3176 11.2857,12.8764 4.6595,20.0144 -14.1821,39.0711 -15.979,59.542 -2.7136,30.9119 27.3767,68.4262 8.0955,92.7397 -9.8999,12.4837 -32.3737,12.342 -47.312,6.8012 z"
       sodipodi:nodetypes="aaaaaaaaa"
       transform="matrix(0.62775167,0,0,0.62775167,1485.9413,578.77744)" /><path
       id="path13"
       style="mix-blend-mode:normal;fill:#aac1b8;fill-opacity:1;stroke:none;stroke-width:18.493;stroke-linecap:square;stroke-miterlimit:4.7;stroke-dasharray:none;stroke-opacity:1;filter:url(#filter2)"
       d="m 3999.298,1714.07 c -36.5323,-13.5501 -77.0709,-49.097 -76.8715,-88.0607 0.1724,-33.7184 40.0715,-55.631 67.299,-75.5212 8.0069,-5.8492 17.3551,-10.7252 27.1751,-12.1007 8.7708,-1.2285 18.5174,-0.4905 26.3072,3.7233 5.02,2.7156 9.9915,7.3176 11.2857,12.8764 4.6595,20.0144 -14.1821,39.0711 -15.979,59.542 -2.7136,30.9119 27.3767,68.4262 8.0955,92.7397 -9.8999,12.4837 -32.3737,12.342 -47.312,6.8012 z"
       sodipodi:nodetypes="aaaaaaaaa"
       transform="matrix(0.71536849,0,0,0.71536849,1180.4788,506.57226)" /><path
       id="path1"
       style="mix-blend-mode:normal;fill:#aac1b8;fill-opacity:1;stroke:none;stroke-width:17.597;stroke-linecap:square;stroke-miterlimit:4.7;stroke-dasharray:none;stroke-opacity:1;filter:url(#filter2)"
       d="m 3999.298,1714.07 c -36.5323,-13.5501 -77.0709,-49.097 -76.8715,-88.0607 0.1724,-33.7184 40.0715,-55.631 67.299,-75.5212 8.0069,-5.8492 17.3551,-10.7252 27.1751,-12.1007 8.7708,-1.2285 18.5174,-0.4905 26.3072,3.7233 5.02,2.7156 9.9915,7.3176 11.2857,12.8764 4.6595,20.0144 -14.1821,39.0711 -15.979,59.542 -2.7136,30.9119 27.3767,68.4262 8.0955,92.7397 -9.8999,12.4837 -32.3737,12.342 -47.312,6.8012 z"
       sodipodi:nodetypes="aaaaaaaaa"
       transform="matrix(-0.71536849,0,0,0.79007547,7052.2366,745.77586)" /><path
       id="path11"
       style="fill:url(#linearGradient11);fill-opacity:1;stroke:none;stroke-width:13.2293;stroke-linecap:square;stroke-miterlimit:4.7;stroke-dasharray:none;stroke-opacity:1"
       d="m 3525.2042,1731.8468 c -44.0565,-16.3409 -92.9444,-59.209 -92.704,-106.1977 0.208,-40.663 48.3247,-67.0888 81.16,-91.0756 9.656,-7.0539 20.9295,-12.9341 32.772,-14.5929 10.5773,-1.4816 22.3313,-0.5916 31.7255,4.4901 6.0539,3.2749 12.0494,8.8248 13.6101,15.5284 5.6192,24.1366 -17.103,47.1183 -19.2701,71.8054 -3.2724,37.2785 33.0153,82.5192 9.7629,111.8403 -11.9389,15.0549 -39.0414,14.884 -57.0564,8.202 z"
       sodipodi:nodetypes="aaaaaaaaa" /><path
       id="path5"
       style="fill:#aac1b8;fill-opacity:1;stroke:none;stroke-width:13.2293;stroke-linecap:square;stroke-miterlimit:4.7;stroke-dasharray:none;stroke-opacity:1"
       d="m 4207.3716,1909.3967 c 40.9559,28.3534 104.8279,55.863 105.6686,105.6686 0.7485,44.3437 -54.7368,71.4606 -90.8519,97.2019 -5.6448,4.0234 -12.2139,7.024 -18.9939,8.4667 -6.4449,1.3714 -13.5993,2.3175 -19.7675,0 -5.3913,-2.0256 -11.2292,-5.8978 -13.0033,-11.3771 -12.7026,-39.2314 31.5314,-79.514 27.6891,-120.5712 -2.3488,-25.0987 -34.3654,-44.4063 -30.3083,-69.2861 1.1777,-7.2226 7.9782,-13.4602 14.7325,-16.2767 3.8359,-1.5995 8.414,-0.4079 12.4554,0.5612 4.4058,1.0565 8.6541,3.0338 12.3793,5.6127 z"
       sodipodi:nodetypes="aaaaaaaaaaa" /><path
       id="path12"
       style="mix-blend-mode:normal;fill:#cad9d3;fill-opacity:1;stroke:none;stroke-width:13.2293;stroke-linecap:square;stroke-miterlimit:4.7;stroke-dasharray:none;stroke-opacity:1;filter:url(#filter5)"
       d="m 4234.6595,1931.8167 c 26.0792,18.0544 66.7506,35.5715 67.2859,67.2859 0.4766,28.2365 -34.8544,45.5036 -57.8512,61.8947 -3.5944,2.562 -7.7774,4.4726 -12.0946,5.3913 -4.1039,0.8733 -8.6596,1.4757 -12.5872,0 -3.433,-1.2898 -7.1504,-3.7555 -8.2801,-7.2445 -8.0885,-24.9812 20.0781,-50.6317 17.6314,-76.7754 -1.4956,-15.982 -21.8826,-28.2764 -19.2992,-44.1189 0.7499,-4.5991 5.0802,-8.571 9.3811,-10.3644 2.4426,-1.0185 5.3578,-0.2598 7.9312,0.3573 2.8054,0.6728 5.5106,1.9318 7.8827,3.574 z"
       sodipodi:nodetypes="aaaaaaaaaaa" /><path
       style="fill:none;stroke:#1a1a1a;stroke-width:2.5;stroke-linecap:round;stroke-linejoin:miter;stroke-dasharray:none;stroke-opacity:1"
       d="m 3892.3169,2094.2619 h 431.73"
       id="path203" /><g
       id="g8"
       transform="translate(0,188.99151)"><path
         style="fill:none;stroke:#1a1a1a;stroke-width:2.5;stroke-linecap:round;stroke-linejoin:miter;stroke-dasharray:none;stroke-opacity:1"
         d="m 3892.3169,1742.8581 h 431.73"
         id="path4" /><path
         style="fill:none;stroke:#1a1a1a;stroke-width:2.5;stroke-linecap:round;stroke-linejoin:miter;stroke-dasharray:none;stroke-opacity:1"
         d="m 3892.3169,1707.292 h 431.73"
         id="path201-8" /></g><g
       id="g10"
       transform="translate(0,-2.2489583)"><path
         style="fill:none;stroke:#1a1a1a;stroke-width:2.5;stroke-linecap:round;stroke-linejoin:miter;stroke-dasharray:none;stroke-opacity:1"
         d="m 3892.3169,1742.8581 h 431.73"
         id="path9" /><path
         style="fill:none;stroke:#1a1a1a;stroke-width:2.5;stroke-linecap:round;stroke-linejoin:miter;stroke-dasharray:none;stroke-opacity:1"
         d="m 3892.3169,1707.292 h 431.73"
         id="path10" /></g><g
       id="text6"
       style="font-size:190.527px;line-height:1;font-family:Misto;-inkscape-font-specification:Misto;stroke-width:0.264583"
       aria-label="EDU&#10;CAT&#10;ION"><path
         d="m 4021.0159,1694.8977 v -33.3422 h -108.2193 v -30.4843 h 92.5961 v -5.5253 h -92.5961 v -30.6749 h 108.2193 v -33.3422 h -113.3636 v 133.3689 z m 77.5443,-133.3689 h -63.636 v 133.3689 h 63.636 c 39.8202,0 68.2087,-24.578 68.2087,-66.6844 0,-39.2486 -28.3885,-66.6845 -68.2087,-66.6845 z m 0,100.0267 h -58.1107 v -66.6845 h 58.1107 c 27.817,0 63.255,8.7643 63.255,33.1517 0,24.7685 -36.7717,33.5328 -63.255,33.5328 z m 84.0225,-35.8191 v -64.2076 h -5.5252 v 63.8266 c 0,32.5801 21.72,72.2097 61.9212,72.2097 h 0.1906 c 39.2485,0 61.9212,-38.4865 61.9212,-72.2097 v -63.8266 h -5.5253 v 64.2076 c 0,20.7674 -24.959,38.4865 -56.5865,38.4865 -31.4369,0 -56.396,-17.9096 -56.396,-38.4865 z"
         id="path6" /><path
         d="m 3903.8418,1818.9308 c 0,38.1054 30.2938,69.3518 71.4476,69.3518 h 7.24 c 35.2475,0 61.9213,-22.6727 69.3519,-52.9665 l -8.7643,-1.7147 c -10.2884,12.5747 -32.9611,21.339 -59.0633,21.339 h -10.2885 c -35.438,0 -64.9697,-16.1948 -64.9697,-36.0096 0,-20.0054 29.5317,-36.2002 64.9697,-36.2002 h 10.2885 c 26.1022,0 48.7749,8.7643 59.0633,21.3391 l 8.7643,-1.7148 c -7.4306,-30.8653 -34.8665,-52.9665 -69.3519,-52.9665 h -7.24 c -41.3443,0 -71.4476,31.0559 -71.4476,69.5424 z m 299.5083,66.4939 -62.4928,-133.3689 h -35.057 l -64.3981,133.3689 h 35.057 l 22.8632,-47.6318 h 75.6392 l 22.2917,47.6318 z m -31.0559,-53.157 h -70.3044 l 35.6285,-73.734 z m 74.6866,-46.8697 v 100.0267 h 5.5253 V 1785.398 h 63.8265 v -33.3422 h -132.9878 v 33.3422 z"
         id="path7" /><path
         d="m 3930.5156,1914.1943 c 0,-8.5737 -6.859,-15.4327 -15.2422,-15.4327 -8.3832,0 -15.2421,6.859 -15.2421,15.4327 0,8.3832 6.8589,15.2421 15.2421,15.2421 8.3832,0 15.2422,-6.8589 15.2422,-15.2421 z m -18.1001,28.3885 v 133.3689 h 5.5253 v -133.3689 z m 100.5982,-2.6674 h -7.24 c -40.9633,0 -71.4476,31.0559 -71.4476,69.3518 0,38.4865 30.4843,69.5424 71.4476,69.5424 h 7.24 c 40.2012,0 71.2571,-31.0559 71.2571,-69.5424 0,-38.2959 -31.0559,-69.3518 -71.2571,-69.3518 z m -73.7339,69.3518 c 0,-19.8148 29.3411,-36.0096 64.9697,-36.0096 h 10.2884 c 35.4381,0 64.7792,16.1948 64.7792,36.0096 0,20.0054 -29.3411,36.2002 -64.7792,36.2002 h -10.2884 c -35.6286,0 -64.9697,-16.1948 -64.9697,-36.2002 z m 156.4226,66.6845 h 5.5253 v -117.1741 l 100.5982,117.1741 h 33.3422 v -133.3689 h -5.5252 v 117.1741 l -100.5983,-117.1741 h -33.3422 z"
         id="path8" /></g></g></svg>
