<?xml version="1.0" encoding="UTF-8" standalone="no"?>
<!-- Created with Inkscape (http://www.inkscape.org/) -->

<svg
   width="8119.7627"
   height="2502.1318"
   viewBox="0 0 2148.3538 662.02237"
   version="1.1"
   id="svg1"
   sodipodi:docname="AboutMe_LanguagesDecorSVG.svg"
   xml:space="preserve"
   inkscape:version="1.3 (0e150ed6c4, 2023-07-21)"
   xmlns:inkscape="http://www.inkscape.org/namespaces/inkscape"
   xmlns:sodipodi="http://sodipodi.sourceforge.net/DTD/sodipodi-0.dtd"
   xmlns="http://www.w3.org/2000/svg"
   xmlns:svg="http://www.w3.org/2000/svg"><sodipodi:namedview
     id="namedview1"
     pagecolor="#505050"
     bordercolor="#000000"
     borderopacity="1"
     inkscape:showpageshadow="0"
     inkscape:pageopacity="0"
     inkscape:pagecheckerboard="0"
     inkscape:deskcolor="#747474"
     inkscape:document-units="mm"
     inkscape:zoom="0.22627417"
     inkscape:cx="2576.5203"
     inkscape:cy="1098.2252"
     inkscape:window-width="1920"
     inkscape:window-height="1009"
     inkscape:window-x="-8"
     inkscape:window-y="-8"
     inkscape:window-maximized="1"
     inkscape:current-layer="layer1" /><defs
     id="defs1"><filter
       inkscape:collect="always"
       style="color-interpolation-filters:sRGB"
       id="filter45"
       x="-0.028729886"
       y="-0.079256486"
       width="1.0574963"
       height="1.1552447"><feGaussianBlur
         inkscape:collect="always"
         stdDeviation="9.0299736"
         id="feGaussianBlur45" /></filter><filter
       inkscape:collect="always"
       style="color-interpolation-filters:sRGB"
       id="filter46"
       x="-0.029183145"
       y="-0.091836048"
       width="1.0584591"
       height="1.1837214"><feGaussianBlur
         inkscape:collect="always"
         stdDeviation="10.398 10.743"
         id="feGaussianBlur46" /></filter><filter
       inkscape:collect="always"
       style="color-interpolation-filters:sRGB"
       id="filter2"
       x="-0.025593346"
       y="-0.069528802"
       width="1.0511701"
       height="1.1389629"><feGaussianBlur
         inkscape:collect="always"
         stdDeviation="2.4527059"
         id="feGaussianBlur2" /></filter><filter
       inkscape:collect="always"
       style="color-interpolation-filters:sRGB"
       id="filter5"
       x="-0.029144024"
       y="-0.085847548"
       width="1.058537"
       height="1.171707"><feGaussianBlur
         inkscape:collect="always"
         stdDeviation="2.4851547"
         id="feGaussianBlur5" /></filter><filter
       inkscape:collect="always"
       style="color-interpolation-filters:sRGB"
       id="filter6"
       x="-0.063281065"
       y="-0.37150969"
       width="1.1267796"
       height="1.7427408"><feGaussianBlur
         inkscape:collect="always"
         stdDeviation="30.250827"
         id="feGaussianBlur6" /></filter><filter
       inkscape:collect="always"
       style="color-interpolation-filters:sRGB"
       id="filter7"
       x="-0.059471006"
       y="-0.4089276"
       width="1.1189395"
       height="1.817593"><feGaussianBlur
         inkscape:collect="always"
         stdDeviation="25.57735"
         id="feGaussianBlur7" /></filter></defs><g
     inkscape:label="Слой 1"
     inkscape:groupmode="layer"
     id="layer1"
     transform="translate(-3541.6083,-2596.4938)"><path
       style="fill:none;stroke:#c1d7d3;stroke-width:50;stroke-linecap:round;stroke-linejoin:miter;stroke-dasharray:none;stroke-opacity:0.5;filter:url(#filter5)"
       d="m 4979.7062,2763.1308 c 54.5263,28.6625 81.8875,173.472 -41.1858,262.5578 -174.3431,129.26 -810.3842,156.7475 -733.9089,-78.3428 51.3599,-157.8838 -189.449,-177.6653 -112.1268,41.2804 45.7552,129.5606 -47.7589,119.9182 -94.9328,86.1221 -51.0949,-36.6052 -10.267,-108.3815 -10.267,-108.3815"
       id="path46"
       sodipodi:nodetypes="cssssc" /><path
       style="fill:none;stroke:#c1d7d3;stroke-width:40;stroke-linecap:round;stroke-linejoin:miter;stroke-dasharray:none;stroke-opacity:0.5;filter:url(#filter2)"
       d="m 4262.9752,3094.4757 c -99.5532,-38.7743 -70.6949,-214.4918 20.2555,-276.1011 185.5921,-125.719 810.3842,-156.7475 733.9089,78.3428 -51.3599,157.8838 37.789,233.5101 112.8678,153.2379 54.2506,-58.0032 -60.4141,-166.5444 -0.6555,-194.9776 81.7293,-38.8868 83.2537,122.1029 83.2537,122.1029"
       id="path5"
       sodipodi:nodetypes="cssssc" /><path
       style="mix-blend-mode:normal;fill:none;stroke:#d4e7e4;stroke-width:40;stroke-linecap:round;stroke-linejoin:miter;stroke-dasharray:none;stroke-opacity:0.65;filter:url(#filter6)"
       d="m 3760.5319,3525.3381 c 0,0 119.0943,-218.7961 294.4898,-197.7485 175.3957,21.0474 190.5771,278.264 419.4979,244.8684 205.5457,-29.9855 600.1151,-456.0866 484.7791,-111.7946 -52.7378,157.4289 -19.1413,54.4559 134.5943,-48.443 153.7356,-102.8985 128.4311,93.1583 128.4311,93.1583"
       id="path6"
       sodipodi:nodetypes="cssssc"
       transform="matrix(-1,0,0,1,9068.4782,-412.02265)" /><path
       style="mix-blend-mode:normal;fill:none;stroke:#e1efed;stroke-width:40;stroke-linecap:round;stroke-linejoin:miter;stroke-dasharray:none;stroke-opacity:0.75;filter:url(#filter7)"
       d="m 4005.417,3315.0395 c 0,0 -59.2049,110.3275 -24.3443,144.5787 50.3907,49.5098 116.0509,-145.4424 208.3345,-38.8693 160.6508,185.5263 131.2207,-131.0226 265.2239,-140.6592 93.2523,-6.706 227.5542,127.3817 296.5225,128.0072 145.3457,1.3183 200.487,-82.2996 304.2059,-72.1462 91.3058,8.9383 166.2054,150.6854 250.3977,114.2397 31.4278,-13.6047 32.8742,-97.3368 32.8742,-97.3368"
       id="path45"
       sodipodi:nodetypes="casssaac"
       transform="matrix(-1,0,0,1,9307.2354,-620.6872)" /><path
       style="mix-blend-mode:normal;fill:none;stroke:#e7eeed;stroke-width:15;stroke-linecap:butt;stroke-linejoin:miter;stroke-dasharray:none;stroke-opacity:1;filter:url(#filter45)"
       d="m 4263.5598,3077.5208 c 0,0 -161.3981,-104.323 24.0279,-262.9956 167.8431,-143.6265 802.3441,-159.461 725.8688,75.6293 -51.3599,157.8838 23.4036,197.4087 86.3971,183.6314 106.4776,-23.2876 -41.7831,-206.6712 46.065,-224.2897 68.4857,-13.7352 66.687,127.5844 66.687,127.5844"
       id="path77"
       sodipodi:nodetypes="cssssc" /><path
       style="fill:none;stroke:none;stroke-width:15;stroke-linecap:butt;stroke-linejoin:miter;stroke-dasharray:none;stroke-opacity:1"
       d="m 5375.4562,3258.5162 c 0,0 120.1356,-463.025 22.1864,-487.056 -102.606,-25.1736 -311.8371,279.847 -514.4939,349.0171 -228.8099,78.0966 -480.3968,-2.2204 -642.5026,-129.7334 -162.1054,-127.5133 -293.5532,-111.1431 -447.2888,-8.2442 -153.7356,102.8985 5.6174,-386.0059 5.6174,-386.0059"
       id="path75"
       sodipodi:nodetypes="cssssc" /><path
       style="mix-blend-mode:normal;fill:none;stroke:#f0f5f2;stroke-width:10;stroke-linecap:round;stroke-linejoin:round;stroke-dasharray:none;stroke-opacity:1;paint-order:normal;filter:url(#filter46)"
       d="m 4961.8417,2775.4853 c 56.163,26.2626 92.317,150.376 -31.8607,239.4209 -174.3431,129.26 -798.9509,151.4088 -722.4756,-83.6815 51.3599,-157.8838 -232.0706,-135.2052 -115.0207,57.4014 64.18,105.6087 -39.0625,126.1743 -77.9548,96.233 -31.6912,-24.3976 -27.245,-118.4923 -27.245,-118.4923"
       id="path2"
       sodipodi:nodetypes="cssssc" /><path
       style="opacity:0.5;fill:none;stroke:none;stroke-width:25;stroke-linecap:butt;stroke-linejoin:miter;stroke-dasharray:none;stroke-opacity:1"
       d="m 3910.3647,2687.635 c 0,0 -136.7781,290.1109 38.6174,311.1585 175.3957,21.0474 199.5839,-197.4312 402.2407,-266.6013 228.8099,-78.0966 480.3968,2.2204 642.5026,129.7334 162.1054,127.5133 260.8127,157.9153 414.5483,55.0164 153.7356,-102.8985 50.5092,250.4329 50.5092,250.4329"
       id="path1"
       sodipodi:nodetypes="cssssc" /></g></svg>
