<?xml version="1.0" encoding="UTF-8" standalone="no"?>
<!-- Created with Inkscape (http://www.inkscape.org/) -->

<svg
   width="587.23431"
   height="223.38249"
   viewBox="0 0 587.23431 223.38249"
   version="1.1"
   id="svg1"
   sodipodi:docname="AboutMe_OutlineTitleDecorSVG.svg"
   xml:space="preserve"
   inkscape:version="1.3 (0e150ed6c4, 2023-07-21)"
   xmlns:inkscape="http://www.inkscape.org/namespaces/inkscape"
   xmlns:sodipodi="http://sodipodi.sourceforge.net/DTD/sodipodi-0.dtd"
   xmlns="http://www.w3.org/2000/svg"
   xmlns:svg="http://www.w3.org/2000/svg"><sodipodi:namedview
     id="namedview1"
     pagecolor="#505050"
     bordercolor="#000000"
     borderopacity="1"
     inkscape:showpageshadow="0"
     inkscape:pageopacity="0"
     inkscape:pagecheckerboard="0"
     inkscape:deskcolor="#747474"
     inkscape:document-units="mm"
     inkscape:zoom="1.8101934"
     inkscape:cx="294.9961"
     inkscape:cy="72.091744"
     inkscape:window-width="1920"
     inkscape:window-height="1009"
     inkscape:window-x="-8"
     inkscape:window-y="-8"
     inkscape:window-maximized="1"
     inkscape:current-layer="layer1" /><defs
     id="defs1"><filter
       inkscape:collect="always"
       style="color-interpolation-filters:sRGB"
       id="filter3"
       x="-0.062232212"
       y="-0.22800027"
       width="1.1244644"
       height="1.4560005"><feGaussianBlur
         inkscape:collect="always"
         stdDeviation="12.822991"
         id="feGaussianBlur3" /></filter><filter
       inkscape:collect="always"
       style="color-interpolation-filters:sRGB"
       id="filter5"
       x="-0.037973195"
       y="-0.11567956"
       width="1.0759464"
       height="1.2313591"><feGaussianBlur
         inkscape:collect="always"
         stdDeviation="8.546538"
         id="feGaussianBlur5" /></filter></defs><g
     inkscape:label="Слой 1"
     inkscape:groupmode="layer"
     id="layer1"
     transform="translate(-4909.0418,-111.99496)"><path
       id="rect178"
       style="color:#000000;fill:#222b25;stroke-linecap:square;stroke-miterlimit:4.7;-inkscape-stroke:none"
       d="m 4863.8527,-359.43629 0.1157,117.80625 c 0.067,68.0196 54.7723,122.92547 122.5662,122.9925 l 382.4335,0.37774 c 67.7937,0.067 122.3913,-54.73001 122.3243,-122.7496 l -0.1169,-118.42688 -5.2905,-2.3e-4 0.1162,118.42119 c 0.064,65.18962 -52.0948,117.5268 -117.0383,117.4626 l -382.4335,-0.37827 c -64.9436,-0.0642 -117.2057,-52.50399 -117.2699,-117.6936 l -0.1162,-117.81193 z" /><path
       id="rect179"
       style="color:#000000;fill:#222b25;stroke-linecap:square;stroke-miterlimit:4.7;-inkscape-stroke:none"
       d="m 4960.4524,-359.43632 c 0.4066,10.48366 1.9378,21.09062 4.7723,31.6704 l 20.3223,75.85385 c 20.3501,75.9574 97.741,120.85381 173.406,100.57681 l 189.6555,-50.82435 c 70.1733,-18.80533 113.568,-86.90145 103.2703,-157.27665 l -5.3366,-2e-5 c 10.3737,68.09096 -31.4278,133.97646 -99.303,152.16594 l -189.6556,50.82479 c -72.9106,19.53886 -147.3078,-23.61074 -166.9259,-96.836 l -20.3227,-75.85425 c -2.7137,-10.12889 -4.1182,-20.26935 -4.5268,-30.30046 z" /><path
       id="rect181"
       style="color:#000000;fill:#222b25;stroke-linecap:square;stroke-miterlimit:4.7;-inkscape-stroke:none"
       d="m 5089.7247,-359.43626 c -3.0587,19.62873 0.3011,40.41938 11.0432,59.03876 l 32.6647,56.61827 c 24.92,43.19412 79.7425,57.99089 122.7837,33.12297 l 125.9276,-72.75783 c 28.2592,-16.32731 44.1561,-45.61262 44.7612,-76.02222 l -5.2498,3e-5 c -0.58,28.58284 -15.5418,56.06325 -42.1551,71.4396 l -125.9282,72.75723 c -40.5735,23.44215 -92.0511,9.55503 -115.5568,-31.1877 l -32.6647,-56.61827 c -10.2777,-17.81452 -13.4365,-37.696 -10.3471,-56.39082 z" /><path
       style="fill:#6c9d96;fill-opacity:1;stroke:#4c736e;stroke-width:5.29167;stroke-linecap:butt;stroke-linejoin:miter;stroke-dasharray:none;stroke-opacity:1"
       d="m 4953.3263,108.75271 c 0,0 -25.6097,100.86842 7.5976,127.70416 22.1912,17.9333 61.3877,-29.24561 84.6993,-12.7889 12.3853,8.74322 -4.8584,37.55444 8.5651,44.60809 20.8431,10.9524 41.2472,-26.6619 64.7491,-28.25229 40.9415,-2.77054 81.8791,52.22652 118.4216,33.57044 15.6113,-7.97003 4.4351,-42.52645 18.0551,-49.38735 32.6188,-16.4314 62.3196,50.61521 97.5574,44.5715 22.5174,-3.86201 26.5496,-45.39867 49.2869,-47.62726 11.648,-1.14169 16.493,14.91709 29.506,19.03211 47.2512,14.942 3.5223,-131.4305 3.5223,-131.4305"
       id="path2"
       sodipodi:nodetypes="caaaaasaasc" /><path
       style="fill:#8cb3ae;fill-opacity:1;stroke:none;stroke-width:26.8154;stroke-linecap:round;stroke-linejoin:round;stroke-miterlimit:4.7;filter:url(#filter5)"
       d="m 304.27143,175.63748 c -10.33244,-2.26518 -19.49137,-6.44374 -43.19197,-19.70543 -25.95357,-14.52233 -41.89896,-19.93667 -56.07642,-19.04104 -10.27289,0.64897 -17.44595,4.31789 -34.355,17.57212 -17.96186,14.07947 -26.02533,17.22726 -33.87349,13.22343 -4.82551,-2.4618 -5.57884,-5.87586 -4.27184,-19.35986 0.51538,-5.31712 0.93062,-11.39132 0.92275,-13.49823 -0.0316,-8.46005 -3.02773,-13.65071 -9.8054,-16.98735 -3.20411,-1.57738 -4.32352,-1.82676 -9.05246,-2.0167 -9.43447,-0.37893 -15.058529,1.32383 -34.590232,10.47267 -20.700701,9.69642 -25.45639,11.26168 -33.103015,10.89535 -5.464887,-0.2618 -8.631655,-1.7309 -12.748726,-5.91428 C 27.999017,125.05288 23.626088,114.84447 21.195862,101.09417 19.709867,92.686375 19.153017,70.116664 20.129298,57.865266 21.54977,40.039699 25.634067,14.109039 29.047787,1.2429611 l 0.549652,-2.07160186 h 5.83908 5.83908 l -0.3254,1.29649879 C 40.122474,3.7657802 37.757378,18.535491 36.778992,26.516504 c -4.945885,40.345177 -1.273111,67.975385 10.641027,80.052276 4.322082,4.38112 8.450224,6.45665 13.570673,6.82302 9.809792,0.70189 16.80186,-5.57094 27.064614,-24.280596 11.484431,-20.936857 14.069754,-25.027801 18.804484,-29.755733 3.99243,-3.986701 7.12682,-5.493822 11.42557,-5.493822 4.77202,0 8.46324,1.963194 11.53386,6.13434 3.83563,5.210338 5.93025,10.995488 11.08001,30.602068 5.07221,19.311303 10.70182,28.275903 19.94344,31.757913 2.68848,1.01295 4.07193,1.18065 8.27474,1.00304 8.64216,-0.36522 13.45411,-3.41992 29.96165,-19.02014 9.51102,-8.988249 13.7383,-12.155861 18.72334,-14.029893 4.12054,-1.549034 9.18225,-1.342614 13.11216,0.534727 4.19427,2.003626 10.88213,9.133444 15.74417,16.784606 11.04907,17.38738 13.72015,21.14292 17.74842,24.95421 5.34776,5.05971 9.3097,7.00815 14.92957,7.34222 5.23796,0.31137 8.97568,-0.52356 14.00211,-3.12778 9.29061,-4.81353 16.38205,-14.96273 27.06848,-38.740126 7.74362,-17.229651 12.97946,-25.953586 18.96585,-31.600839 14.71923,-13.885373 31.69007,-8.695392 55.51927,16.978766 3.39333,3.656057 9.72629,10.516495 14.07324,15.245416 14.44118,15.710153 23.55067,22.729183 32.53589,25.069533 10.01905,2.60963 20.9042,-1.49347 24.73522,-9.32382 3.73306,-7.63008 1.93355,-17.468629 -6.73264,-36.809872 C 450.05486,56.527061 448.21278,51.702657 447.20785,45.412026 445.9207,37.3548 449.7954,32.31699 457.27954,32.31699 c 7.99744,0 14.3291,8.279465 27.5269,35.994961 11.29233,23.714019 16.75442,32.383019 23.62164,37.490429 11.02284,8.1981 25.35196,2.3297 30.48842,-12.486332 5.42315,-15.642964 2.62098,-42.154311 -8.274,-78.280483 -1.49434,-4.955028 -3.23235,-10.3650866 -3.86224,-12.0223532 -0.62989,-1.6572665 -1.14537,-3.19965597 -1.14553,-3.42753218 -1.5e-4,-0.22787621 3.3174,-0.41432038 7.37234,-0.41432038 h 7.37262 l 1.24565,4.28131056 c 6.72125,23.1010722 14.04745,57.6052332 16.9199,79.6876202 1.20661,9.27592 1.68244,30.56607 0.81564,36.49415 -2.05621,14.06248 -6.9384,19.63394 -15.9235,18.17157 -4.56927,-0.74367 -9.05559,-3.11738 -16.69807,-8.83495 -3.79794,-2.84135 -8.35674,-5.8939 -10.13066,-6.78344 -6.2675,-3.14287 -14.1236,-2.45589 -20.6831,1.80864 -5.11364,3.32453 -10.36039,9.47886 -18.48609,21.68382 -11.51165,17.29074 -16.58946,21.66035 -25.99782,22.3719 -11.27381,0.85264 -21.2521,-3.7914 -42.79261,-19.91629 -19.59588,-14.66916 -26.94741,-19.15587 -36.0369,-21.99363 -5.75689,-1.79732 -14.70949,-1.79821 -19.79275,-0.002 -4.67737,1.6528 -7.49728,3.50868 -9.4708,6.23306 -3.14486,4.34134 -4.10852,8.12301 -6.35908,24.95464 -1.39389,10.42471 -3.06403,13.66975 -8.41605,16.35213 -5.46402,2.73852 -16.63512,3.63836 -24.30202,1.95756 z"
       id="path5"
       transform="matrix(0.93275671,0,0,0.9318427,4928.5237,109.80622)" /><path
       style="fill:#8bb1ac;fill-opacity:1;stroke:#c2d6d3;stroke-width:5.29167;stroke-linecap:butt;stroke-linejoin:miter;stroke-dasharray:none;stroke-opacity:1"
       d="m 4969.8068,108.75271 c 0,0 -20.4326,91.54933 12.2541,103.44009 25.2269,9.17705 32.0943,-58.50993 58.7179,-55.03216 25.2403,3.29708 15.7236,58.23177 40.3366,64.71375 21.359,5.62501 36.2821,-34.26368 58.2117,-31.60937 23.3283,2.82364 28.6153,48.78723 52.0748,47.42403 33.2657,-1.933 32.6566,-69.86405 65.5227,-75.34542 37.9143,-6.32324 67.4134,78.33456 99.798,57.66739 23.0883,-14.7346 -32.4009,-70.17869 -7.5475,-81.704 29.6869,-13.7667 38.8019,82.58664 68.9296,69.80933 30.5547,-12.95839 -2.5529,-99.36364 -2.5529,-99.36364"
       id="path1"
       sodipodi:nodetypes="caaaaaaaaac" /><path
       style="fill:#9abcb8;fill-opacity:1;stroke:#476b66;stroke-width:5.29167;stroke-linecap:butt;stroke-linejoin:miter;stroke-dasharray:none;stroke-opacity:1"
       d="m 5029.3777,108.75271 c 0,0 9.0661,30.18543 22.0235,34.58989 16.3609,5.56138 31.8717,-21.41273 48.7407,-17.65526 19.189,4.27429 21.9695,41.24933 41.6254,41.70558 19.0295,0.44171 23.1054,-38.07943 42.1362,-38.46278 16.0531,-0.32338 20.7751,30.5812 36.8262,30.98678 18.8888,0.47728 26.7148,-30.06293 45.1303,-34.22958 19.5173,-4.41596 39.4099,17.14276 58.7887,12.15414 9.076,-2.3364 12.449,-15.38427 21.3625,-18.27943 11.4825,-3.72958 27.7554,11.58612 36.1041,2.88249 3.3784,-3.52199 -1.8051,-14.51546 -1.8051,-14.51546"
       id="path17"
       sodipodi:nodetypes="caaaaaaaaac" /><path
       style="fill:#a5c3bf;fill-opacity:1;stroke:none;stroke-width:26.8154;stroke-linecap:round;stroke-linejoin:round;stroke-miterlimit:4.7;filter:url(#filter3)"
       d="m 5182.6331,241.79876 c -4.4096,-2.39668 -10.6069,-9.86228 -17.8643,-21.52046 -10.8872,-17.48909 -16.6778,-23.56506 -25.2226,-26.46564 -7.096,-2.40879 -14.111,-1.11818 -22.1445,4.07414 -2.5703,1.66125 -9.4631,7.55467 -15.3173,13.09648 -12.7656,12.08434 -17.6935,15.32549 -23.9943,15.78124 -3.4255,0.24778 -5.1925,-0.0513 -7.6203,-1.28987 -6.8082,-3.47326 -10.1881,-9.94965 -15.7619,-30.20147 -6.176,-22.43997 -8.6962,-28.06397 -14.9905,-33.4516 -4.3097,-3.68899 -7.5099,-4.6688 -14.043,-4.29965 -4.7219,0.26681 -5.8902,0.67096 -9.8413,3.40444 -5.8672,4.05899 -10.9193,10.8507 -18.9717,25.50404 -14.0239,25.51994 -18.1377,30.33203 -25.9305,30.33203 -15.1343,0 -23.4821,-24.58799 -21.0197,-61.91262 0.8251,-12.50585 3.5805,-33.86395 5.4932,-42.57957 l 0.9001,-4.10156 h 29.0659 c 28.3881,0 29.0686,0.036 29.1822,1.54374 0.2053,2.72533 6.4351,17.41998 9.7782,23.06427 4.0987,6.92022 9.4652,12.71125 13.4849,14.55179 1.9506,0.89316 4.9664,1.43733 8.025,1.44804 6.2,0.0217 11.5705,-2.3198 23.169,-10.10154 10.9234,-7.32881 15.4081,-9.39525 20.4109,-9.40492 7.7534,-0.015 13.0465,5.17294 22.9599,22.5037 9.6062,16.79384 15.6055,22.01992 25.2778,22.01992 9.2697,0 14.8999,-4.78992 25.0205,-21.28625 9.3709,-15.27447 13.7217,-19.33875 20.702,-19.33875 4.5675,0 8.7068,3.55073 15.4826,13.28125 8.4062,12.07183 11.6314,15.54306 16.5214,17.7818 3.537,1.61927 5.0696,1.88325 9.0697,1.56217 8.682,-0.69691 14.7725,-5.26168 27.5468,-20.64609 12.7475,-15.35216 20.0571,-18.68816 33.8613,-15.45366 2.7929,0.65443 9.2968,2.5533 14.4531,4.21971 22.1928,7.17231 28.5732,6.55663 44.1038,-4.25584 11.7759,-8.19842 14.0642,-8.50571 28.9431,-3.88673 13.7577,4.27092 20.8917,3.87425 24.5619,-1.36573 1.5477,-2.20968 1.5889,-8.74281 0.082,-13.01366 l -1.1372,-3.22322 h 15.8508 c 12.1509,0 15.8546,0.22795 15.8674,0.97656 0.01,0.53711 1.7954,6.4445 3.9693,13.12754 8.427,25.90529 11.4112,41.57699 11.4471,60.11465 0.024,12.55747 -0.1231,14.04636 -1.8081,18.26627 -3.4095,8.5387 -9.1364,12.87054 -15.8286,11.97292 -7.4764,-1.0028 -12.6259,-7.97058 -26.1012,-35.31732 -5.7168,-11.60156 -11.8576,-23.3789 -13.6463,-26.17187 -9.782,-15.27438 -20.8698,-19.51055 -31.1235,-11.89091 -3.9746,2.9536 -5.8475,7.8886 -5.3785,14.17248 0.4922,6.59378 2.9035,13.62846 10.6218,30.98776 7.7648,17.46368 9.6007,22.80885 10.0399,29.23067 0.2743,4.01137 0.031,5.64843 -1.1562,7.79303 -2.1689,3.91656 -7.052,6.27135 -12.9851,6.26183 -9.0952,-0.0146 -17.0731,-5.41864 -32.6736,-22.13239 -27.3332,-29.28365 -37.0008,-37.60024 -47.6778,-41.01474 -7.2404,-2.3155 -10.2161,-2.63338 -15.5675,-1.66299 -14.5619,2.64057 -22.6853,11.83323 -36.5073,41.31257 -4.2926,9.15529 -9.2948,19.15609 -11.116,22.22401 -3.8721,6.523 -9.9208,12.82481 -14.3428,14.94318 -4.5663,2.18748 -12.5034,2.40256 -16.1201,0.43682 z"
       id="path3"
       transform="matrix(0.93275671,0,0,0.9318427,349.58208,5.4445363)" /></g></svg>
