<?xml version="1.0" encoding="UTF-8" standalone="no"?>
<!-- Created with Inkscape (http://www.inkscape.org/) -->

<svg
   width="2500.5137"
   height="848.47266"
   viewBox="0 0 661.59423 224.49172"
   version="1.1"
   id="svg1"
   sodipodi:docname="MainPage_footerDecor.svg"
   xml:space="preserve"
   inkscape:version="1.3 (0e150ed6c4, 2023-07-21)"
   xmlns:inkscape="http://www.inkscape.org/namespaces/inkscape"
   xmlns:sodipodi="http://sodipodi.sourceforge.net/DTD/sodipodi-0.dtd"
   xmlns="http://www.w3.org/2000/svg"
   xmlns:svg="http://www.w3.org/2000/svg"><sodipodi:namedview
     id="namedview1"
     pagecolor="#505050"
     bordercolor="#000000"
     borderopacity="1"
     inkscape:showpageshadow="0"
     inkscape:pageopacity="0"
     inkscape:pagecheckerboard="0"
     inkscape:deskcolor="#747474"
     inkscape:document-units="mm"
     inkscape:zoom="0.32"
     inkscape:cx="1025"
     inkscape:cy="667.1875"
     inkscape:window-width="1920"
     inkscape:window-height="1009"
     inkscape:window-x="-8"
     inkscape:window-y="-8"
     inkscape:window-maximized="1"
     inkscape:current-layer="layer1" /><defs
     id="defs1"><filter
       inkscape:collect="always"
       style="color-interpolation-filters:sRGB"
       id="filter1"
       x="-0.19993258"
       y="-0.49324866"
       width="1.3998652"
       height="1.9864973"><feGaussianBlur
         inkscape:collect="always"
         stdDeviation="21.208632"
         id="feGaussianBlur1" /></filter><filter
       inkscape:collect="always"
       style="color-interpolation-filters:sRGB"
       id="filter2"
       x="-0.17523135"
       y="-0.45337973"
       width="1.3504627"
       height="1.9067595"><feGaussianBlur
         inkscape:collect="always"
         stdDeviation="28.361956"
         id="feGaussianBlur2" /></filter><filter
       inkscape:collect="always"
       style="color-interpolation-filters:sRGB"
       id="filter3"
       x="-0.1277597"
       y="-0.38045225"
       width="1.2555194"
       height="1.7609045"><feGaussianBlur
         inkscape:collect="always"
         stdDeviation="27.686464"
         id="feGaussianBlur3" /></filter><filter
       inkscape:collect="always"
       style="color-interpolation-filters:sRGB"
       id="filter26"
       x="-0.080410496"
       y="-0.23168294"
       width="1.160821"
       height="1.4633659"><feGaussianBlur
         inkscape:collect="always"
         stdDeviation="18.238283"
         id="feGaussianBlur26" /></filter><filter
       inkscape:collect="always"
       style="color-interpolation-filters:sRGB"
       id="filter25"
       x="-0.088337149"
       y="-0.31778712"
       width="1.1766743"
       height="1.6355742"><feGaussianBlur
         inkscape:collect="always"
         stdDeviation="18.238283"
         id="feGaussianBlur25" /></filter></defs><g
     inkscape:label="Слой 1"
     inkscape:groupmode="layer"
     id="layer1"
     transform="translate(-1715.5367,-9486.5772)"><path
       id="path3"
       style="fill:#87aba6;fill-opacity:1;stroke:#000000;stroke-width:2.16958;stroke-linecap:square;stroke-linejoin:miter;stroke-miterlimit:4.7;stroke-dasharray:none;stroke-opacity:1"
       d="m 1758.0648,10420.692 c -22.7783,-0.02 -41.0981,18.363 -41.0756,41.224 l 0.1777,180.352 658.5097,0 -0.1767,-179.701 c -0.022,-22.861 -18.3784,-41.283 -41.1567,-41.306 z" /><path
       id="rect347"
       style="fill:#a5beb8;fill-opacity:1;stroke:none;stroke-width:2.16958;stroke-linecap:square;stroke-linejoin:miter;stroke-miterlimit:4.7;stroke-dasharray:none;stroke-opacity:1;filter:url(#filter3)"
       d="m 1818.7174,10467.614 c -17.9857,-0.02 -32.451,14.475 -32.4332,32.495 l 0.1403,142.159 519.9573,0 -0.1395,-141.647 c -0.017,-18.019 -14.5115,-32.541 -32.4972,-32.558 z" /><path
       id="path2"
       style="fill:#a3bdbc;fill-opacity:1;stroke:#000000;stroke-width:2.16958;stroke-linecap:square;stroke-linejoin:miter;stroke-miterlimit:4.7;stroke-dasharray:none;stroke-opacity:1"
       d="m 2244.8119,10435.517 c -3.8553,-0.153 -7.8014,0.266 -11.7316,1.319 l -409.02,109.609 c -20.9616,5.617 -33.2968,27.085 -27.6573,48.134 l 12.7765,47.689 h 519.4933 l -47.5764,-177.576 c -4.582,-17.103 -19.5786,-28.511 -36.2845,-29.175 z" /><path
       id="rect348"
       style="fill:#c8d9d5;fill-opacity:1;stroke:none;stroke-width:2.34086;stroke-linecap:square;stroke-linejoin:miter;stroke-miterlimit:4.7;stroke-dasharray:none;stroke-opacity:1;filter:url(#filter2)"
       d="m 2195.0804,9559.4761 c -2.8064,-0.1113 -5.6789,0.1927 -8.5399,0.9574 l -297.7389,79.5829 c -15.2586,4.0786 -24.2378,19.6657 -20.1326,34.9487 l 9.3004,34.6249 h 378.156 l -34.6324,-128.9314 c -3.3354,-12.4175 -14.2519,-20.7006 -26.4126,-21.1825 z"
       transform="matrix(0.92683142,0,0,0.92683142,150.86631,1646.4847)" /><path
       id="path1"
       style="fill:#b9cecb;fill-opacity:1;stroke:#000000;stroke-width:2.16958;stroke-linecap:square;stroke-linejoin:miter;stroke-miterlimit:4.7;stroke-dasharray:none;stroke-opacity:1"
       d="m 2199.2151,10492.101 c -6.2632,0.161 -12.5805,1.85 -18.404,5.214 l -225.8178,130.469 c -6.2274,3.598 -11.0419,8.662 -14.3386,14.484 l 368.6353,0 -75.3581,-130.617 c -7.4207,-12.862 -20.9378,-19.904 -34.7168,-19.55 z" /><path
       id="rect349"
       style="fill:#d5e3de;fill-opacity:1;stroke:none;stroke-width:2.41782;stroke-linecap:square;stroke-linejoin:miter;stroke-miterlimit:4.7;stroke-dasharray:none;stroke-opacity:1;filter:url(#filter1)"
       d="m 2176.2491,9607.3144 c -4.3256,0.1106 -8.6884,1.271 -12.7103,3.5829 l -155.9558,89.6507 c -4.3008,2.4724 -7.6259,5.9519 -9.9026,9.9525 h 254.5894 l -52.0444,-89.7526 c -5.1249,-8.8381 -14.4601,-13.6766 -23.9763,-13.4335 z"
       transform="matrix(0.89732752,0,0,0.89732752,218.17647,1934.8835)" /><path
       style="fill:#6c9d96;fill-opacity:1;stroke:#517b75;stroke-width:5.65014;stroke-linecap:butt;stroke-linejoin:miter;stroke-dasharray:none;stroke-opacity:1"
       d="m 2329.3181,9713.0025 c 0,0 30.3977,-117.017 -8.6971,-146.3281 -30.398,-22.7908 -86.4652,54.3161 -111.1127,25.403 -15.802,-18.5369 43.1888,-49.2502 27.3561,-67.761 -33.4107,-39.0613 -100.2171,46.8169 -150.2096,34.8659 -23.6551,-5.6549 -31.6141,-47.3882 -55.9294,-46.8578 -34.3599,0.7489 -60.4804,61.7338 -76.0713,69.5954 -37.339,18.8274 -26.3872,-73.8413 -58.0414,-75.2844 -27.6177,-1.2595 -30.9457,50.0328 -56.4077,60.8023 -23.3262,9.8662 -58.6716,-20.222 -75.962,-1.7154 -33.6527,36.0209 13.3687,147.2801 13.3687,147.2801"
       id="path20"
       sodipodi:nodetypes="caaaaasaaac" /><path
       style="fill:#b0cbc7;fill-opacity:1;stroke:none;stroke-width:25;stroke-linecap:round;stroke-linejoin:round;stroke-miterlimit:4.7;stroke-dasharray:none;stroke-opacity:1;filter:url(#filter26)"
       d="m 425.70938,186.23837 c -4.55375,-3.58198 -9.26951,-14.11089 -14.62959,-32.66362 -7.82374,-27.08009 -13.01218,-35.78852 -22.44688,-37.67545 -5.38761,-1.07752 -13.58144,2.24726 -18.69679,7.58655 -2.46461,2.57248 -9.85368,11.88643 -16.42017,20.69764 -21.33492,28.62815 -35.1373,39.55406 -48.56119,38.44085 -7.99214,-0.66277 -11.84961,-3.78988 -23.01295,-18.65568 -15.98045,-21.2806 -20.32983,-24.4026 -34.97157,-25.10263 -16.05206,-0.76746 -29.15173,3.7134 -59.19027,20.24653 -42.1797,23.21562 -53.37195,26.37209 -66.41243,18.72987 -10.87748,-6.37464 -9.64502,-12.98478 5.76073,-30.8968 12.82988,-14.9171 16.2357,-20.51599 16.82853,-27.66477 0.48058,-5.79525 0.33802,-6.18193 -3.80753,-10.32747 C 129.21029,98.014401 118.06362,100.15315 86.178639,119.30891 61.298755,134.25617 51.086202,138.03662 42.520352,135.47024 21.04668,129.03657 13.95332,88.367375 23.806128,28.173786 24.949994,21.185582 26.7032,11.863374 27.702141,7.4577668 l 1.816257,-8.01019397 h 5.548954 5.548955 L 39.88582,3.5907766 C 30.287069,58.03327 32.212951,91.623187 45.733281,105.57826 c 11.066674,11.42252 23.359128,9.11693 29.797926,-5.588942 1.197276,-2.734514 4.022981,-12.181019 6.279345,-20.992232 6.73624,-26.305347 10.886866,-33.145631 20.112488,-33.145631 10.45233,0 16.49988,6.104215 30.11431,30.396439 12.56474,22.419271 18.53379,29.508566 28.61826,33.989206 3.92407,1.7435 6.60921,2.07284 13.81068,1.69392 12.31245,-0.64786 21.0453,-5.04973 44.44712,-22.403963 28.04535,-20.797765 38.17804,-24.761102 49.01377,-19.171426 4.13224,2.131643 5.23882,3.404356 6.55278,7.5366 1.42634,4.485665 1.34188,6.646467 -0.86379,22.097087 -1.34459,9.418882 -2.41798,19.362572 -2.38531,22.097092 0.16206,13.56267 10.66079,22.14074 25.25466,20.63451 8.69537,-0.89744 19.12112,-6.46509 36.62807,-19.56045 35.03707,-26.208063 42.31524,-27.077669 79.77287,-9.53139 15.16806,7.10517 24.31575,9.79454 33.4747,9.84135 18.9728,0.097 25.93521,-8.51216 30.8825,-38.1867 4.08214,-24.48525 6.39197,-30.592348 12.44041,-32.891961 8.03303,-3.05415 11.1646,2.056328 16.35815,26.695093 5.21155,24.724228 7.73145,29.188868 16.47462,29.188868 10.0419,0 17.5185,-9.354864 19.4119,-24.288542 2.07753,-16.385916 -2.96622,-46.050916 -12.669,-74.5132299 -1.53816,-4.5120421 -2.79664,-8.61381385 -2.79664,-9.11504882 0,-0.50123507 3.18306,-0.91133645 7.07346,-0.91133645 6.9807,0 7.09029,0.0470977 8.3559,3.59077667 14.96423,41.8994555 20.64494,65.3351785 21.75967,89.7694155 0.71457,15.662935 -1.14267,26.458655 -6.05766,35.211545 -6.67347,11.88453 -13.90605,13.21315 -36.7268,6.74671 -7.55674,-2.14126 -17.72142,-4.19539 -22.58819,-4.56472 -7.67892,-0.58276 -9.62075,-0.33938 -14.68914,1.84097 -8.13658,3.50027 -15.82281,12.43956 -24.36992,28.34288 -11.84976,22.04845 -17.57546,27.99252 -26.96413,27.99252 -2.11227,0 -5.04589,-0.95861 -6.54691,-2.1393 z"
       id="path25"
       transform="matrix(-1.0677391,0,0,-1.0677391,2357.7101,9711.3343)" /><path
       style="fill:#8bb1ac;fill-opacity:1;stroke:#c2d6d3;stroke-width:5.65014;stroke-linecap:butt;stroke-linejoin:miter;stroke-dasharray:none;stroke-opacity:1"
       d="m 2310.4526,9713.0025 c 0,0 24.7676,-109.7084 -14.0271,-118.5252 -27.5676,-6.2651 -17.2927,68.5288 -45.391,71.6423 -33.2392,3.6833 -38.2276,-64.0228 -70.9474,-70.9389 -39.1772,-8.281 -77.401,63.3622 -112.0539,43.2975 -21.3678,-12.3727 10.314,-61.1766 -11.2434,-73.2155 -30.5924,-17.0845 -61.9312,37.7683 -96.829,40.9152 -31.4381,2.8351 -63.9711,-34.3441 -92.4157,-20.6592 -24.7851,11.9246 -8.6962,73.3467 -36.1887,74.1545 -23.1428,0.68 -11.7572,-66.683 -34.0763,-60.5252 -36.5964,10.0979 2.9225,113.8545 2.9225,113.8545"
       id="path19"
       sodipodi:nodetypes="caaaaaaaaac" /><path
       style="fill:#9abcb8;fill-opacity:1;stroke:#517b76;stroke-width:5.65014;stroke-linecap:butt;stroke-linejoin:miter;stroke-dasharray:none;stroke-opacity:1"
       d="m 2242.2612,9713.0025 c 0,0 -28.8881,-6.2061 -35.0359,-17.768 -5.136,-9.6599 12.3658,-25.4462 4.0618,-32.5701 -16.0715,-13.7875 -42.2465,26.9805 -61.1091,17.3573 -11.6148,-5.9255 -1.2409,-32.1153 -13.4331,-36.7372 -32.7881,-12.4296 -57.8085,54.8371 -92.5416,50.0222 -35.0742,-4.8621 -42.4879,-84.9063 -76.1856,-74.0293 -23.9239,7.7223 10.1482,64.8247 -13.1522,74.2626 -31.2452,12.6562 -55.0509,-79.5306 -81.9697,-59.2371 -15.9977,12.0606 28.3412,38.113 20.4377,56.5228 -7.5785,17.6523 -52.7894,23.1209 -52.7894,23.1209"
       id="path17"
       sodipodi:nodetypes="caaaaaaaaac" /><path
       style="fill:#95b9b4;fill-opacity:1;stroke:none;stroke-width:25;stroke-linecap:round;stroke-linejoin:round;stroke-miterlimit:4.7;stroke-dasharray:none;stroke-opacity:1;filter:url(#filter25)"
       d="m 284.71885,134.6013 c -7.04957,-3.47424 -8.38785,-11.37801 -5.20578,-30.74499 2.33484,-14.210563 2.18697,-26.687428 -0.3734,-31.505588 -4.13226,-7.776171 -14.93136,-11.94509 -25.66795,-9.908937 -8.96246,1.699696 -18.04742,6.821876 -36.4351,20.542432 -19.8613,14.820133 -27.81356,19.544463 -36.95029,21.951663 -16.95738,4.46764 -25.87391,-2.24534 -42.52461,-32.015493 -10.15863,-18.162823 -15.79595,-25.595588 -22.60613,-29.805998 -4.59484,-2.840771 -6.50027,-3.339633 -12.75592,-3.339633 -6.332584,0 -7.911351,0.424956 -11.364857,3.059074 C 85.192329,47.137562 80.963707,56.74505 75.648278,77.337842 70.970236,95.461302 69.266943,99.922057 65.417004,104.13252 59.120861,111.01826 48.09825,103.28724 43.411605,88.6984 38.819227,74.402999 39.683713,39.567173 45.386546,9.1150484 l 1.810449,-9.66747557 h 30.447294 c 16.746012,0 30.113961,0.33333853 29.706541,0.74075236 -0.40741,0.40741371 4.04175,2.34227621 9.88703,4.29969441 11.77222,3.9421804 19.23707,8.5278514 20.71273,12.7238724 0.73973,2.103425 0.15169,4.803116 -2.47512,11.363285 -5.00539,12.500362 -4.49505,17.74375 2.05678,21.131833 6.88456,3.560142 14.06392,1.538627 29.07803,-8.187581 12.04524,-7.802963 16.98941,-10.03108 22.25886,-10.03108 5.61825,0 7.38741,3.352182 8.45652,16.023309 0.48244,5.717764 1.67835,11.92305 2.66596,13.832873 2.23828,4.328353 7.49083,6.604011 15.24302,6.604011 8.94563,0 17.60483,-4.843056 30.44813,-17.029522 28.18856,-26.746943 33.91383,-30.734181 44.13119,-30.734181 12.68885,0 20.14977,7.617571 36.54858,37.316014 13.54823,24.536 20.19394,31.367747 31.41911,32.298625 16.43366,1.362808 21.38807,-9.819581 16.77905,-37.871324 -1.92949,-11.743462 -2.1568,-25.204157 -0.47857,-28.339956 0.65658,-1.226834 2.82654,-2.912818 4.82213,-3.74663 8.67881,-3.626238 17.50339,3.544845 35.40623,28.772023 12.15558,17.128615 19.62436,25.270345 25.39252,27.680438 10.05768,4.202366 20.46883,-1.032814 20.46883,-10.29262 0,-4.940015 -3.21403,-10.912983 -12.29491,-22.849016 -13.10747,-17.228601 -13.61084,-22.772846 -2.7184,-29.941669 11.8591,-7.8050335 32.28797,-12.74687841 56.43849,-13.6527538 l 17.67083,-0.6628245 3.08373,9.3912619 c 12.45558,37.9324774 16.77243,69.9761844 11.27545,83.6968314 -2.34626,5.856358 -7.57053,10.453841 -11.36113,9.998071 -4.14845,-0.4988 -6.39957,-5.956104 -10.02605,-24.305768 -4.57427,-23.145463 -8.80428,-31.225448 -16.71268,-31.92383 -6.06188,-0.535318 -8.9254,0.243258 -12.52786,3.406264 -5.42958,4.767229 -8.12309,12.112595 -11.2292,30.622591 -1.50824,8.987969 -3.24581,18.081907 -3.86126,20.208751 -4.22491,14.600232 -14.98135,20.186452 -30.99884,16.098852 -3.91692,-0.99957 -14.11381,-4.98826 -22.65974,-8.86373 -22.00239,-9.977803 -29.36208,-12.039561 -40.82834,-11.437736 -12.22204,0.641493 -20.44629,4.702626 -42.15856,20.817876 -25.70363,19.07772 -36.15291,23.118 -46.54452,17.99672 z"
       id="path24"
       transform="matrix(-1.0677391,0,0,-1.0677391,2357.7101,9711.3343)" /></g></svg>
