<?xml version="1.0" encoding="UTF-8" standalone="no"?>
<!-- Created with Inkscape (http://www.inkscape.org/) -->

<svg
   width="1321.7526"
   height="926.03345"
   viewBox="0 0 349.71369 245.01301"
   version="1.1"
   id="svg1"
   sodipodi:docname="MainPage_MyPhotosDecorElement.svg"
   xml:space="preserve"
   inkscape:version="1.3 (0e150ed6c4, 2023-07-21)"
   xmlns:inkscape="http://www.inkscape.org/namespaces/inkscape"
   xmlns:sodipodi="http://sodipodi.sourceforge.net/DTD/sodipodi-0.dtd"
   xmlns="http://www.w3.org/2000/svg"
   xmlns:svg="http://www.w3.org/2000/svg"><sodipodi:namedview
     id="namedview1"
     pagecolor="#505050"
     bordercolor="#000000"
     borderopacity="1"
     inkscape:showpageshadow="0"
     inkscape:pageopacity="0"
     inkscape:pagecheckerboard="0"
     inkscape:deskcolor="#747474"
     inkscape:document-units="mm"
     inkscape:zoom="0.45254834"
     inkscape:cx="574.52426"
     inkscape:cy="535.85436"
     inkscape:window-width="1920"
     inkscape:window-height="1009"
     inkscape:window-x="-8"
     inkscape:window-y="-8"
     inkscape:window-maximized="1"
     inkscape:current-layer="layer1"
     showguides="false" /><defs
     id="defs1"><inkscape:path-effect
       effect="simplify"
       id="path-effect2"
       is_visible="true"
       lpeversion="1.3"
       threshold="81.924885"
       steps="1"
       smooth_angles="0"
       helper_size="10"
       simplify_individual_paths="false"
       simplify_just_coalesce="false" /><inkscape:path-effect
       effect="simplify"
       id="path-effect1"
       is_visible="true"
       lpeversion="1.3"
       threshold="100"
       steps="1"
       smooth_angles="0"
       helper_size="10"
       simplify_individual_paths="false"
       simplify_just_coalesce="false" /><filter
       inkscape:collect="always"
       style="color-interpolation-filters:sRGB"
       id="filter9"
       x="-0.069151388"
       y="-0.10314158"
       width="1.1383028"
       height="1.2062832"><feGaussianBlur
         inkscape:collect="always"
         stdDeviation="32.943361"
         id="feGaussianBlur9" /></filter><filter
       inkscape:collect="always"
       style="color-interpolation-filters:sRGB"
       id="filter10"
       x="-0.071817259"
       y="-0.10700373"
       width="1.1436345"
       height="1.2140075"><feGaussianBlur
         inkscape:collect="always"
         stdDeviation="26.933438"
         id="feGaussianBlur10" /></filter><filter
       inkscape:collect="always"
       style="color-interpolation-filters:sRGB"
       id="filter4"
       x="-0.14616283"
       y="-0.21967554"
       width="1.2923257"
       height="1.4393511"><feGaussianBlur
         inkscape:collect="always"
         stdDeviation="19.030646"
         id="feGaussianBlur4" /></filter><filter
       inkscape:collect="always"
       style="color-interpolation-filters:sRGB"
       id="filter6"
       x="-0.077109013"
       y="-0.11246587"
       width="1.154218"
       height="1.2249317"><feGaussianBlur
         inkscape:collect="always"
         stdDeviation="4.2798848"
         id="feGaussianBlur6" /></filter></defs><g
     inkscape:label="Слой 1"
     inkscape:groupmode="layer"
     id="layer1"
     transform="translate(-1987.2026,-2547.742)"><path
       style="mix-blend-mode:normal;fill:#3e655e;fill-opacity:1;stroke:none;stroke-width:4.71858;stroke-linecap:butt;stroke-linejoin:miter;stroke-dasharray:none;stroke-opacity:1;filter:url(#filter4)"
       d="m 2219.4887,2602.0951 c -21.1502,2.713 -34.9057,-33.6159 -56.0474,-30.837 -11.457,1.5059 -13.948,20.6937 -25.0227,23.9923 -29.7956,8.8746 -71.7659,-41.0775 -91.6688,-17.1943 -8.515,10.2179 19.3825,24.9546 14.3073,37.249 -7.5654,18.3267 -48.6377,5.3068 -54.2848,24.3124 -5.5471,18.6689 30.3273,29.6921 31.631,49.124 1.399,20.8521 -37.7504,39.1019 -26.597,56.7759 12.5739,19.925 49.194,-9.1847 70.6807,0.4813 6.9243,3.115 8.0982,14.3255 15.226,16.9412 10.3984,3.816 21.9362,-5.8628 32.926,-4.48 17.4031,2.1898 31.6284,23.5655 48.7577,19.7903 14.4593,-3.1867 17.0292,-25.9385 30.3224,-32.4594 22.6747,-11.1229 62.5497,14.7047 75.4427,-7.0124 8.2957,-13.9733 -24.4286,-29.3633 -19.2801,-44.7765 6.4208,-19.2221 51.7325,-9.9412 52.7787,-30.1803 0.8306,-16.0682 -36.7491,-12.2528 -39.2082,-28.1535 -1.8729,-12.1105 25.5104,-17.7238 21.9899,-29.4617 -3.3007,-11.0052 -23.2964,-4.7282 -32.4162,-11.7168 -7.6343,-5.8502 -6.959,-22.6786 -16.5278,-23.6519 -15.0756,-1.5335 -17.979,29.3295 -33.0094,31.2574 z"
       id="path1"
       sodipodi:nodetypes="aaaaaaaaaaaaaaaaaaaaa"
       transform="matrix(0.86604875,0,0,0.81685026,289.27607,487.71697)" /><path
       style="fill:#6c9d96;fill-opacity:1;stroke:#56817b;stroke-width:3.96875;stroke-linecap:butt;stroke-linejoin:miter;stroke-dasharray:none;stroke-opacity:1"
       d="m 2219.0967,2597.7267 c -21.1502,2.713 -34.9057,-33.6159 -56.0474,-30.837 -11.457,1.5059 -13.948,20.6937 -25.0227,23.9923 -29.7956,8.8746 -71.7659,-41.0775 -91.6688,-17.1943 -8.515,10.2179 19.3825,24.9546 14.3073,37.249 -7.5654,18.3267 -48.6377,5.3068 -54.2848,24.3124 -5.5471,18.6689 30.3273,29.6921 31.631,49.124 1.399,20.8521 -37.7504,39.1019 -26.597,56.7759 12.5739,19.925 49.194,-9.1847 70.6807,0.4813 6.9243,3.115 8.0982,14.3255 15.226,16.9412 10.3984,3.816 21.9362,-5.8628 32.926,-4.48 17.4031,2.1898 31.6284,23.5655 48.7577,19.7903 14.4593,-3.1867 17.0292,-25.9385 30.3224,-32.4594 22.6747,-11.1229 62.5497,14.7047 75.4427,-7.0124 8.2957,-13.9733 -24.4286,-29.3633 -19.2801,-44.7765 6.4208,-19.2221 51.7325,-9.9412 52.7787,-30.1803 0.8306,-16.0682 -36.7491,-12.2528 -39.2082,-28.1535 -1.8729,-12.1105 25.5104,-17.7238 21.9899,-29.4617 -3.3007,-11.0052 -23.2964,-4.7282 -32.4162,-11.7168 -7.6343,-5.8502 -6.959,-22.6786 -16.5278,-23.6519 -15.0756,-1.5335 -17.979,29.3295 -33.0094,31.2574 z"
       id="path4"
       sodipodi:nodetypes="aaaaaaaaaaaaaaaaaaaaa" /><path
       style="opacity:1;fill:#82aca6;fill-opacity:1;stroke:none;stroke-width:15;stroke-linecap:round;stroke-linejoin:round;stroke-miterlimit:4.7;stroke-dasharray:none;stroke-opacity:1;filter:url(#filter9)"
       d="M 696.05824,825.27263 C 585.20763,770.45949 477.61127,825.36214 388.90172,732.77922 269.0226,795.74259 62.048521,752.75738 239.23951,611.08912 368.41339,486.13364 -19.093523,308.06266 281.84218,301.99946 472.0778,295.13935 178.80267,41.461388 404.25982,110.84785 518.96695,190.7552 665.52345,224.7745 746.25813,96.194466 866.46866,199.20598 984.30407,253.15112 1077.9201,96.910245 c 12.5393,125.844435 291.0883,94.085975 94.5698,211.499855 -3.2377,90.1018 279.2404,140.16513 36.8353,183.59966 -237.01573,23.10807 143.5131,322.95332 -158.6087,246.1172 C 884.27053,638.06812 850.80106,970.93423 696.05824,825.27263 Z m 55.66713,-34.91529 C 776.06698,590.57862 923.53112,673.58781 1053.3317,714.94678 1160.9049,660.05953 929.49383,503.19193 1130.3497,489.75729 1343.7022,348.8307 918.30728,381.73854 978.01691,400.67958 971.58628,332.65038 1248.6617,269.89074 1065.3103,215.93369 763.23182,250.11059 1020.3724,344.84702 758.50461,161.04664 671.62978,391.4219 486.76533,90.631282 381.17475,204.75748 429.21897,481.24789 413.13799,164.146 244.19442,366.77179 c 31.44428,109.73283 203.2171,219.45483 8.5006,290.72099 37.29879,170.40571 296.76881,-115.94653 377.41949,88.05801 31.43222,28.3695 75.5055,69.23381 121.61086,44.80655 z"
       id="path8"
       transform="matrix(0.26458333,0,0,0.26458333,1968.0702,2543.5518)"
       sodipodi:nodetypes="sssssssssssssssssssssssssssscsssssssssssssssss"
       inkscape:path-effect="#path-effect2"
       inkscape:original-d="M 696.05824,825.27263 C 641.64083,790.26512 616.39497,777.52578 553.53203,797.49363 440.58136,833.37156 494.03755,753.69122 416.85591,735.52474 346.01645,718.85102 241.99748,784.18959 189.73803,758.89119 178.18411,753.29805 167.62144,740.07309 165.44586,728.47628 157.10222,684.0008 242.70887,625.44917 265.88235,568.0775 300.44715,482.50368 183.61727,436.18996 157.27879,383.33553 102.61104,273.63163 360.90816,342.5962 359.99872,241.99401 359.63758,202.03911 299.73284,159.66366 298.9219,131.1413 298.49327,116.06609 320.03643,100.16245 342.85417,98.709524 421.32503,93.712878 514.06623,189.8795 613.19416,189.9423 708.73139,190.0029 684.69183,95.725097 746.25813,96.194466 816.72162,96.731664 887.08508,246.24406 965.49301,207.88264 1013.1368,184.57271 1035.52,79.194318 1077.9201,96.910245 c 39.0489,16.315585 4.6054,90.085535 102.7638,101.097455 49.0485,5.50251 62.2352,9.88297 68.5526,22.77239 18.5614,37.87071 -111.9889,66.93964 -76.1161,128.15238 20.4664,34.92317 90.9989,42.47897 123.5535,61.86873 28.2347,16.8167 23.1945,45.77323 -10.6407,61.13291 -61.1381,26.83027 -154.6901,12.81527 -171.6771,93.0319 0,63.11713 114.1851,114.42288 66.3949,162.69093 -20.9987,21.20852 -50.4798,23.58225 -130.0345,10.47002 -145.31257,-55.38481 -152.17689,56.78664 -239.76651,117.0303 -40.80977,22.25292 -81.54544,-8.51572 -114.89175,-29.88463 z m 55.66713,-34.91529 c 42.46426,-21.84402 28.5529,-105.46138 56.94738,-130.39209 61.44864,-48.23688 173.37842,70.01686 244.65895,54.98153 22.1058,-4.66279 41.3836,-24.41845 41.5304,-42.56002 0.2518,-31.16002 -61.8137,-87.51006 -61.8215,-115.07578 7.9965,-74.49347 193.2298,-59.19788 174.7936,-139.35543 -3.1988,-13.90824 -9.4382,-22.44401 -20.8543,-28.52959 -59.0817,-26.14113 -215.81293,57.55103 -215.81293,-6.26585 0,-47.68725 177.15553,-58.6723 159.36393,-124.74548 -3.5653,-13.2403 -14.3703,-28.74663 -24.8602,-35.67696 -44.2871,-29.25879 -132.94025,35.42554 -190.8513,35.70297 -75.16771,0.36011 -84.07763,-118.39391 -156.31479,-97.394 -40.10283,11.65821 -57.54294,76.06836 -86.58994,93.09102 -70.37911,41.24492 -185.50817,-112.2786 -258.21833,-86.33858 -20.5234,7.32193 -32.52159,20.95697 -32.52159,36.9584 0,45.34913 67.56103,91.51856 37.87502,121.20452 -24.55091,24.55096 -108.53292,-3.70528 -146.14251,9.83837 -29.84511,10.74758 -39.46284,45.56338 -21.77883,78.83852 19.61141,36.90186 101.18981,94.03395 107.11893,137.29163 8.61173,62.82943 -150.07689,82.13971 -102.99182,147.1388 48.86798,67.46025 165.83214,-38.6496 249.76658,-34.63665 90.36214,4.32028 160.98315,170.01981 246.70325,125.92467 z" /><path
       style="fill:#8bb1ac;fill-opacity:1;stroke:#c2d6d3;stroke-width:3.96875;stroke-linecap:butt;stroke-linejoin:miter;stroke-dasharray:none;stroke-opacity:1"
       d="m 2222.9244,2647.3078 c 6.2164,19.9207 56.8899,-13.4372 62.449,6.6754 5.0792,18.3758 -40.535,16.0464 -45.8763,34.3483 -3.7595,12.8818 22.7592,27.2698 14.2436,37.6608 -15.152,18.489 -49.647,-22.2532 -70.958,-11.3508 -12.2049,6.2437 -5.2407,32.7699 -18.3827,36.6945 -21.8493,6.525 -36.8419,-29.6899 -59.1973,-34.2019 -22.6289,-4.5671 -57.8577,28.9593 -68.7181,8.6571 -6.866,-12.8355 27.2536,-18.423 28.7795,-32.8884 2.1383,-20.2721 -38.3042,-34.8849 -29.8337,-53.4391 6.6042,-14.4661 38.3807,3.5902 46.8034,-9.9054 6.6117,-10.594 -18.3054,-27.661 -9.2482,-36.2741 17.7004,-16.8325 46.3861,26.8066 70.2212,21.2994 12.7957,-2.9565 15.6727,-26.369 28.8007,-26.7991 13.671,-0.4478 18.804,21.5326 31.7665,25.8847 19.2678,6.4692 51.6411,-26.2643 60.958,-2.1553 6.6026,17.0852 -47.2632,18.3115 -41.8076,35.7939 z"
       id="path3"
       sodipodi:nodetypes="aaaaaaaaaaaaaaasa" /><path
       style="fill:#85ada8;fill-opacity:1;stroke:#4c736d;stroke-width:3.96875;stroke-linecap:butt;stroke-linejoin:miter;stroke-dasharray:none;stroke-opacity:1"
       d="m 2111.4536,2656.4477 c 5.8724,-7.3856 -5.6071,-24.0482 2.8984,-28.1711 14.8013,-7.1746 25.525,29.3502 41.7041,26.3626 9.4125,-1.7381 7.622,-22.2059 17.1621,-22.9861 9.0495,-0.7401 18.8887,9.825 19.6165,18.8684 0.6073,7.5459 -16.7452,11.255 -13.6396,18.1591 3.2856,7.3044 17.6721,-3.0267 23.9488,1.9485 6.2357,4.9427 12.0513,16.3234 7.3162,22.7221 -10.2766,13.8873 -36.3793,-8.324 -51.8784,-0.6638 -8.1662,4.0359 -7.3113,20.3918 -16.2951,21.9128 -7.3964,1.2521 -15.7484,-5.6913 -18.6229,-12.6165 -4.0469,-9.7494 14.8113,-25.3973 5.9329,-31.1072 -11.0636,-7.1154 -19.4751,26.1221 -32.2047,22.8069 -9.9672,-2.5958 -17.3029,-18.3989 -13.3021,-27.8892 3.7398,-8.8711 21.3615,-1.7974 27.3638,-9.3465 z"
       id="path5"
       sodipodi:nodetypes="aaaaaaaaaaaaaaa" /><path
       style="color:#000000;mix-blend-mode:normal;fill:#46746e;stroke-width:1.03761;-inkscape-stroke:none;filter:url(#filter6);fill-opacity:1"
       d="m 2116.7715,2625.5779 c -1.0909,0.1451 -2.1903,0.4674 -3.2852,0.9981 -2.7561,1.336 -4.0762,4.0368 -4.3262,6.7031 -0.25,2.6664 0.265,5.4882 0.8067,8.3184 0.5417,2.8302 1.1315,5.6636 1.2383,8.0859 0.1068,2.4223 -0.2589,4.2999 -1.3047,5.6152 -1.1123,1.3989 -2.8274,2.204 -5.1367,2.6895 -2.3094,0.4855 -5.1088,0.5971 -7.9415,0.7402 -2.8326,0.1431 -5.6996,0.3068 -8.3085,1.1133 -2.609,0.8065 -5.0637,2.4488 -6.252,5.2676 -2.3222,5.5085 -1.3146,12.3013 1.4473,18.1484 2.7618,5.8471 7.3644,10.9162 13.1836,12.4317 4.0165,1.046 7.7048,-0.8715 10.6914,-3.627 2.9866,-2.7555 5.609,-6.4611 8.1425,-9.957 2.5336,-3.496 5.0005,-6.7807 7.211,-8.5742 1.1052,-0.8968 2.1058,-1.3966 2.9512,-1.5391 0.8453,-0.1425 1.5955,-0.03 2.6347,0.6387 0.802,0.5158 1.1285,0.9841 1.3242,1.5527 0.1958,0.5686 0.2344,1.3254 0.049,2.3106 -0.3711,1.9703 -1.6715,4.6802 -3.2071,7.5761 -1.5355,2.896 -3.2825,6.0011 -4.4238,9.1524 -1.1413,3.1512 -1.7285,6.4924 -0.4355,9.6074 1.6081,3.8742 4.6152,7.5596 8.2851,10.2207 3.67,2.6611 8.0874,4.3391 12.502,3.5918 2.8282,-0.4788 4.9616,-2.215 6.4648,-4.291 1.5032,-2.0761 2.5229,-4.5205 3.4981,-6.9375 1.9504,-4.8341 3.7769,-9.3273 6.8808,-10.8613 6.6699,-3.2965 16.641,-0.089 26.459,2.791 4.909,1.44 9.7473,2.7452 14.2734,2.7558 4.5261,0.011 8.9028,-1.4844 11.8614,-5.4824 2.9332,-3.9638 2.4943,-9.1744 0.7129,-13.8008 -1.7815,-4.6264 -4.9271,-8.9109 -8.3907,-11.6562 -2.1203,-1.6807 -4.7659,-1.9723 -7.2949,-1.8008 -2.529,0.1715 -5.09,0.7984 -7.459,1.3164 -2.369,0.518 -4.5556,0.903 -6.041,0.7969 -1.4854,-0.1062 -2.0508,-0.3472 -2.5781,-1.5196 v 0 c -0.4655,-1.0349 -0.2872,-1.4962 0.6308,-2.6133 0.9181,-1.1171 2.664,-2.4315 4.5879,-3.7891 1.924,-1.3575 4.02,-2.778 5.7149,-4.5 1.6949,-1.722 3.0885,-3.9489 2.875,-6.6015 -0.4163,-5.1729 -3.294,-10.381 -7.2637,-14.3477 -3.9697,-3.9667 -9.1446,-6.7752 -14.4922,-6.3379 -3.0925,0.2529 -5.3825,2.2328 -6.8906,4.5801 -1.5082,2.3474 -2.4844,5.1473 -3.4473,7.8692 -0.9628,2.7218 -1.9066,5.3665 -3.0527,7.2773 -1.1461,1.9108 -2.3125,2.979 -3.9707,3.2852 -3.2963,0.6086 -6.3569,-0.7448 -9.6387,-3.4473 -3.2818,-2.7025 -6.5606,-6.6825 -9.8457,-10.6231 -3.2851,-3.9405 -6.5632,-7.849 -10.2265,-10.4472 -2.7476,-1.9487 -5.9403,-3.1129 -9.2129,-2.6778 z m 0.6191,3.8614 c 2.1007,-0.3289 4.037,0.4504 6.2988,2.0547 3.0158,2.1389 6.2044,5.8296 9.4727,9.75 3.2683,3.9203 6.6293,8.0631 10.3711,11.1445 3.7418,3.0814 8.0895,5.1722 12.8828,4.2871 3.0481,-0.5629 5.1887,-2.7044 6.6523,-5.1445 1.4636,-2.4402 2.432,-5.2862 3.3907,-7.9961 0.9586,-2.7099 1.9115,-5.2828 3.0449,-7.0469 1.1334,-1.7641 2.1975,-2.6343 3.875,-2.7715 3.7019,-0.3027 7.971,1.7997 11.3652,5.1914 3.3943,3.3917 5.8018,7.9869 6.1133,11.8574 0.09,1.1203 -0.4572,2.1886 -1.748,3.5 -1.2909,1.3115 -3.2258,2.6651 -5.1758,4.0411 -1.9501,1.3759 -3.9222,2.7538 -5.3653,4.5097 -1.443,1.756 -2.2708,4.3465 -1.1836,6.7637 1.1155,2.4798 3.5819,3.6849 5.9141,3.8516 2.3323,0.1666 4.749,-0.3491 7.1719,-0.8789 2.4229,-0.5299 4.8424,-1.0964 6.8789,-1.2344 2.0364,-0.1381 3.5425,0.1442 4.5605,0.9511 2.7722,2.1974 5.6528,6.0734 7.1543,9.9727 1.5015,3.8993 1.6027,7.5788 -0.1992,10.0137 -2.1797,2.9456 -4.9193,3.8838 -8.6621,3.875 -3.7428,-0.01 -8.3274,-1.1764 -13.166,-2.5957 -9.6773,-2.8388 -20.5048,-6.9047 -29.334,-2.541 -5.0623,2.5018 -6.8931,8.2024 -8.8027,12.9355 -0.9548,2.3665 -1.9149,4.5492 -3.0332,6.0938 -1.1184,1.5445 -2.2484,2.4234 -3.9121,2.705 -2.9819,0.5048 -6.438,-0.6618 -9.5118,-2.8906 -3.0737,-2.2288 -5.6808,-5.4783 -6.9472,-8.5293 -0.7305,-1.7597 -0.4771,-4.0312 0.5019,-6.7344 0.979,-2.7031 2.6339,-5.6961 4.1973,-8.6445 1.5633,-2.9484 3.0602,-5.827 3.6016,-8.7012 0.2706,-1.4371 0.2928,-2.9178 -0.1954,-4.3359 -0.4881,-1.4181 -1.514,-2.6879 -2.9316,-3.5996 -1.7266,-1.1105 -3.6594,-1.5152 -5.4414,-1.2149 -1.782,0.3004 -3.353,1.2043 -4.791,2.3711 -2.8762,2.3337 -5.3823,5.8166 -7.9258,9.3262 -2.5435,3.5096 -5.1027,7.0474 -7.6191,9.3691 -2.5165,2.3218 -4.6518,3.3167 -7,2.7051 -4.1481,-1.0803 -8.1981,-5.2111 -10.5957,-10.2871 -2.3977,-5.076 -3.0575,-10.9303 -1.3789,-14.9121 0.6815,-1.6168 1.833,-2.4176 3.7675,-3.0156 1.9346,-0.5981 4.5474,-0.8004 7.3379,-0.9414 2.7906,-0.141 5.7569,-0.2317 8.5567,-0.8203 2.7997,-0.5886 5.5368,-1.7298 7.4257,-4.1055 1.8904,-2.3774 2.2923,-5.3518 2.1641,-8.2598 -0.1282,-2.9079 -0.7757,-5.8822 -1.3066,-8.6562 -0.531,-2.774 -0.9253,-5.3529 -0.752,-7.2012 0.1733,-1.8482 0.6089,-2.7765 2.1055,-3.5019 0.7552,-0.3661 1.4736,-0.5994 2.1738,-0.709 z"
       id="path2"
       transform="matrix(0.96375756,0,0,0.96375756,77.833368,96.809157)" /><path
       style="opacity:1;mix-blend-mode:normal;fill:#a4c3bf;fill-opacity:1;stroke:none;stroke-width:15;stroke-linecap:round;stroke-linejoin:round;stroke-miterlimit:4.7;stroke-dasharray:none;stroke-opacity:1;filter:url(#filter10)"
       d="m 492.83836,647.03391 c -76.86598,45.16837 -344.49125,88.42155 -148.7679,-36.08764 126.94575,-88.45962 -239.75669,-277.84006 12.17217,-258.3044 190.70208,36.99172 -64.32867,-266.755929 150.43323,-139.4331 104.77531,125.59403 363.75761,-86.7364 282.97089,-32.92936 49.74619,204.29204 284.17205,-26.22518 318.38905,100.16762 -139.87642,12.10987 -217.61682,193.2608 -25.2785,132.59114 229.3429,-23.92845 -93.10354,177.78954 -64.1465,130.44629 64.1272,96.36169 67.7278,210.55555 -73.12715,121.42657 C 762.25089,500.47151 776.60814,931.39808 617.56558,711.44144 584.11932,678.68566 543.40139,643.13886 492.83836,647.03391 Z m 246.7876,-63.82972 C 842.37902,629.7013 1089.4929,602.61468 910.25476,467.36572 676.0344,522.10416 1026.5479,357.27729 811.46542,299.45181 737.63015,356.37791 685.46208,467.27243 602.89121,310.32248 450.08545,184.7119 577.50133,503.59784 402.60004,436.88028 328.48819,627.74254 548.51032,593.64436 598.98697,461.744 c -33.91295,65.90418 -38.19731,312.60456 95.76768,184.28724 11.41669,-21.04374 18.40937,-53.57661 44.87131,-62.82705 z"
       id="path9"
       transform="matrix(0.26458333,0,0,0.26458333,1968.0702,2543.5518)"
       sodipodi:nodetypes="ssssssssssssssssssssssssssscssssssssssss"
       inkscape:path-effect="#path-effect1"
       inkscape:original-d="m 492.83836,647.03391 c -84.59523,5.45133 -186.2166,89.78365 -222.00195,44.29003 -33.41302,-42.4778 82.00125,-59.12841 102.72825,-117.23718 3.92955,-11.01664 3.89039,-16.92228 -0.21746,-32.7963 -16.2287,-62.71286 -165.98466,-151.44038 -97.78376,-188.12321 31.11473,-16.73554 130.20773,22.63195 161.46617,-21.89229 29.86653,-42.54159 -54.51708,-109.10685 -36.56033,-133.15793 8.95067,-11.98845 15.16313,-14.71121 33.56628,-14.71121 59.75235,0 133.66795,94.11054 211.19938,94.59952 67.49193,0.42568 73.818,-78.64411 111.69324,-97.9666 48.48686,-24.73616 73.2644,65.88926 125.46341,90.27616 62.35785,29.13295 166.35321,-58.82093 211.97611,-34.30277 8.7424,4.69829 17.9533,18.05928 19.6476,28.50035 1.0547,6.49891 0.1213,8.98604 -5.9795,15.93455 -26.1945,29.83402 -130.8049,46.45034 -149.95318,86.00536 -11.62344,24.01084 1.74346,49.92558 29.32821,56.85925 16.77087,4.21551 46.21397,1.04305 95.34647,-10.27347 52.6645,-12.13004 81.7968,-14.78699 94.7479,-8.64128 14.4944,6.87802 18.776,23.04909 9.6608,36.4868 -22.6584,33.40315 -151.4808,43.86682 -168.5552,102.60077 -18.3645,63.1721 103.3303,120.73357 40.2383,151.27597 -43.4112,21.015 -125.69842,-46.81264 -191.20362,-60.69661 -39.48471,-8.36887 -69.31138,2.54797 -83.50865,30.56494 -19.69648,39.35927 -5.58565,109.81701 -60.05398,113.84461 C 645.66551,781.592 595.53563,640.41607 492.83836,647.03391 Z m 246.7876,-63.82972 c 59.65801,-19.81517 169.98577,60.50281 219.95197,9.53887 42.07167,-42.91178 -9.4309,-125.4339 -49.32317,-125.37734 -36.29214,0.0504 -87.96666,20.15083 -101.0444,0.19169 -10.51118,-16.04208 89.87241,-27.23532 78.20131,-86.29797 -10.25989,-51.92112 -69.74625,-96.51105 -106.85453,-80.09629 -38.58864,17.06959 -32.50211,94.2476 -69.67138,99.23306 -44.3985,5.95507 -99.87824,-98.58309 -141.30933,-116.91004 -0.76531,-0.33853 -77.12617,-33.87735 -58.02887,70.06722 23.70959,129.04874 -93.38607,33.80722 -124.05621,101.99324 -13.96827,31.05434 -0.40689,84.39933 28.87311,113.57516 92.97072,92.64005 133.44951,-128.05351 182.62251,-107.37779 9.99432,4.20229 12.71058,8.80151 11.5066,19.48318 -23.59478,73.2037 -91.44506,170.0984 21.74329,202.53454 71.27167,17.60436 59.64606,-84.6998 107.3891,-100.55753 z" /></g></svg>
