<?xml version="1.0" encoding="UTF-8" standalone="no"?>
<!-- Created with Inkscape (http://www.inkscape.org/) -->

<svg
   width="2372.2207"
   height="911.54907"
   viewBox="0 0 627.65005 241.18069"
   version="1.1"
   id="svg1"
   sodipodi:docname="MainPage_titlePageDecor.svg"
   xml:space="preserve"
   inkscape:version="1.3 (0e150ed6c4, 2023-07-21)"
   xmlns:inkscape="http://www.inkscape.org/namespaces/inkscape"
   xmlns:sodipodi="http://sodipodi.sourceforge.net/DTD/sodipodi-0.dtd"
   xmlns="http://www.w3.org/2000/svg"
   xmlns:svg="http://www.w3.org/2000/svg"><sodipodi:namedview
     id="namedview1"
     pagecolor="#505050"
     bordercolor="#000000"
     borderopacity="1"
     inkscape:showpageshadow="false"
     inkscape:pageopacity="0"
     inkscape:pagecheckerboard="false"
     inkscape:deskcolor="#747474"
     inkscape:document-units="mm"
     inkscape:zoom="0.22627417"
     inkscape:cx="1701.4757"
     inkscape:cy="815.38251"
     inkscape:window-width="1920"
     inkscape:window-height="1009"
     inkscape:window-x="-8"
     inkscape:window-y="-8"
     inkscape:window-maximized="1"
     inkscape:current-layer="layer1"
     inkscape:clip-to-page="false" /><defs
     id="defs1" /><g
     inkscape:label="Слой 1"
     inkscape:groupmode="layer"
     id="layer1"
     transform="translate(-1748.5195,-138.10734)"><path
       id="rect169"
       style="color:#000000;fill:#222b25;stroke-linecap:square;stroke-miterlimit:4.7;-inkscape-stroke:none;fill-opacity:1"
       d="m -139.84036,1748.8552 -200.9408,10e-5 c -22.26034,0 -40.27964,17.905 -40.27964,40.061 l 2.6e-4,547.3317 c 0,22.156 18.01897,40.0608 40.27931,40.0608 h 200.31914 l 0.005,-5.2911 -200.3243,-10e-5 c -19.43674,0 -34.98669,-15.4702 -34.98669,-34.7697 l 2.6e-4,-547.3317 c 0,-19.2994 15.5496,-34.7697 34.98634,-34.7697 l 200.93564,-10e-5 z"
       transform="matrix(9.8278083e-4,-0.99999952,0.99999951,-9.9088597e-4,0,0)" /><path
       id="rect170"
       style="color:#000000;fill:#222b25;stroke-linecap:square;stroke-miterlimit:4.7;-inkscape-stroke:none;fill-opacity:1"
       d="m 345.80616,1820.3102 -85.37079,1e-4 c -17.21112,0 -31.16376,13.8608 -31.16376,30.9942 l 8e-5,414.1388 c 0,17.1334 13.95264,30.9943 31.16377,30.9943 l 213.21338,2e-4 -1.42076,-5.2915 -211.79254,4e-4 c -14.38811,0 -25.87307,-11.4272 -25.87307,-25.7033 l -7e-5,-414.1389 c 0,-14.2762 11.48491,-25.7028 25.87302,-25.7028 l 86.79151,-10e-5 z"
       transform="matrix(0.25824169,-0.96608034,0.96577064,0.2593975,0,0)" /><path
       id="rect171"
       style="color:#000000;fill:#222b25;stroke-linecap:square;stroke-miterlimit:4.7;-inkscape-stroke:none;fill-opacity:1"
       d="m 851.8418,1748.5762 -28.69521,-3e-4 c -8.28096,0 -15.04103,6.7222 -15.04103,14.9846 l -5e-5,315.0645 c 0,8.2625 6.7599,14.9846 15.04086,14.9846 l 228.22493,-2e-4 -3.0598,-5.291 H 823.14637 c -5.45398,0 -9.7499,-4.284 -9.7499,-9.6933 l 4e-5,-315.0645 c 0,-5.4092 4.29609,-9.6935 9.75008,-9.6935 l 31.75495,10e-5 z"
       transform="matrix(0.49878019,-0.86672852,0.86531936,0.50122092,0,0)"
       sodipodi:nodetypes="ccsscccsssccc" /></g></svg>
