<?xml version="1.0" encoding="UTF-8" standalone="no"?>
<!-- Created with Inkscape (http://www.inkscape.org/) -->

<svg
   width="588.59686"
   height="205"
   viewBox="0 0 155.73292 54.239582"
   version="1.1"
   id="svg1"
   sodipodi:docname="MainPage_footerDecor.svg"
   xml:space="preserve"
   inkscape:version="1.3 (0e150ed6c4, 2023-07-21)"
   xmlns:inkscape="http://www.inkscape.org/namespaces/inkscape"
   xmlns:sodipodi="http://sodipodi.sourceforge.net/DTD/sodipodi-0.dtd"
   xmlns="http://www.w3.org/2000/svg"
   xmlns:svg="http://www.w3.org/2000/svg"><sodipodi:namedview
     id="namedview1"
     pagecolor="#505050"
     bordercolor="#000000"
     borderopacity="1"
     inkscape:showpageshadow="0"
     inkscape:pageopacity="0"
     inkscape:pagecheckerboard="0"
     inkscape:deskcolor="#747474"
     inkscape:document-units="mm"
     inkscape:zoom="1.28"
     inkscape:cx="328.90625"
     inkscape:cy="130.07813"
     inkscape:window-width="1920"
     inkscape:window-height="1009"
     inkscape:window-x="-8"
     inkscape:window-y="-8"
     inkscape:window-maximized="1"
     inkscape:current-layer="layer1" /><defs
     id="defs1"><filter
       inkscape:collect="always"
       style="color-interpolation-filters:sRGB"
       id="filter25-9"
       x="-0.088220868"
       y="-0.31685833"
       width="1.1764417"
       height="1.6337167"><feGaussianBlur
         inkscape:collect="always"
         stdDeviation="18.238283"
         id="feGaussianBlur25-4" /></filter><inkscape:path-effect
       effect="simplify"
       id="path-effect3"
       is_visible="true"
       lpeversion="1.3"
       threshold="22.700038"
       steps="1"
       smooth_angles="0"
       helper_size="10"
       simplify_individual_paths="false"
       simplify_just_coalesce="false" /><filter
       inkscape:collect="always"
       style="color-interpolation-filters:sRGB"
       id="filter26-4"
       x="-0.08042696"
       y="-0.23588992"
       width="1.1608539"
       height="1.4717798"><feGaussianBlur
         inkscape:collect="always"
         stdDeviation="18.238283"
         id="feGaussianBlur26-8" /></filter><inkscape:path-effect
       effect="simplify"
       id="path-effect2"
       is_visible="true"
       lpeversion="1.3"
       threshold="31.929885"
       steps="1"
       smooth_angles="0"
       helper_size="10"
       simplify_individual_paths="false"
       simplify_just_coalesce="false" /></defs><g
     inkscape:label="Слой 1"
     inkscape:groupmode="layer"
     id="layer1"
     transform="translate(-2517.7591,-9575.1713)"><path
       style="fill:#6c9d96;fill-opacity:1;stroke:#4c736e;stroke-width:1.40009;stroke-linecap:butt;stroke-linejoin:miter;stroke-dasharray:none;stroke-opacity:1"
       d="m 2661.0288,9630.1994 c 0,0 7.0175,-26.979 -2.0078,-33.737 -7.0176,-5.255 -19.9611,12.523 -25.6512,5.857 -3.648,-4.274 9.9705,-11.356 6.3154,-15.624 -7.7131,-9.006 -23.136,10.795 -34.6771,8.039 -5.4609,-1.304 -7.2983,-10.926 -12.9117,-10.803 -7.9322,0.172 -13.9623,14.233 -17.5616,16.046 -8.62,4.341 -6.0918,-17.025 -13.3994,-17.358 -6.3756,-0.29 -7.144,11.536 -13.0221,14.019 -5.385,2.274 -13.5447,-4.663 -17.5363,-0.396 -7.769,8.305 3.0862,33.957 3.0862,33.957"
       id="path20-8"
       sodipodi:nodetypes="caaaaasaaac" /><path
       style="fill:#b0cbc8;fill-opacity:1;stroke:none;stroke-width:26.8517;stroke-linecap:round;stroke-linejoin:round;stroke-miterlimit:4.7;stroke-dasharray:none;stroke-opacity:1;filter:url(#filter26-4)"
       d="m 388.63291,115.8993 c -39.02754,4.72567 -58.69233,100.12117 -103.59985,52.43313 -17.47351,-42.92051 -68.55843,-30.01779 -98.4786,-8.73402 C 167.35297,187.15933 85.825191,188.20093 128.30813,145.2876 164.44925,122.56224 126.81563,84.499063 98.505984,111.84993 71.198391,141.6745 16.079826,144.9718 19.999533,92.514198 21.827916,63.796934 15.933113,15.513897 36.629903,-0.55242717 44.105869,27.399652 16.208123,87.217372 54.152504,111.59188 c 38.365212,6.83156 23.189015,-99.030761 67.094456,-53.297289 13.24801,43.759709 60.53092,75.261219 96.78716,32.01755 30.79133,-40.449126 75.93232,-14.572613 53.19674,31.774269 19.49892,50.86143 65.49556,-9.46315 94.88895,-18.73587 34.49265,-9.622883 85.77953,49.1274 107.52059,-0.26467 -0.95747,-20.112396 17.8544,-79.804718 30.8078,-31.25559 -5.36383,30.0263 32.31581,52.7537 37.58401,12.920889 C 552.21922,57.54946 516.59932,12.760533 535.14985,-0.96476573 557.34006,33.328664 576.0419,91.350902 554.5548,132.37191 c -28.01414,16.55504 -75.89955,-24.34466 -91.85435,22.00896 -8.05087,36.01948 -50.51548,44.47265 -51.26146,-0.36079 -4.72754,-13.37977 -7.00961,-33.21906 -22.80608,-38.12078 z"
       id="path25-3"
       transform="matrix(-0.24649568,0,0,-0.24617993,2667.5833,9629.8154)"
       sodipodi:nodetypes="ssssssccsssssssssssssssss"
       inkscape:path-effect="#path-effect2"
       inkscape:original-d="m 388.63291,115.8993 c -27.70411,-5.54081 -43.06296,66.39502 -83.67815,66.72504 -24.05401,-1.99474 -23.86797,-42.12718 -57.98452,-43.75831 -46.28712,-2.21302 -94.9712,56.92763 -125.6027,38.9764 -27.95748,-16.38421 40.20515,-47.46567 18.78173,-68.88904 C 115.01889,83.822988 68.843599,143.35684 42.520352,135.47024 3.3386563,123.73112 25.011279,19.325208 29.518398,-0.55242717 H 40.616307 C 31.807154,49.411658 29.96106,89.298887 45.733281,105.57826 c 11.066674,11.42252 23.359128,9.11693 29.797926,-5.588942 7.136097,-14.855219 7.245442,-52.547864 26.391833,-54.137863 25.51522,0 30.908,52.022883 58.73257,64.385645 39.0188,15.0216 78.23337,-54.861 107.27157,-39.881469 14.61944,7.73398 3.61443,37.549469 3.30368,51.730779 0.16206,13.56267 10.66079,22.14074 25.25466,20.63451 25.00359,-2.58059 52.74586,-41.17002 79.80769,-40.96632 22.24701,0.16747 45.84997,21.59206 70.06795,21.71583 42.90579,0.21936 23.2848,-63.460183 43.32291,-71.078661 20.84762,-7.926243 10.39336,55.883961 32.83277,55.883961 39.39786,-7.60355 9.61763,-83.717038 3.94626,-107.91682072 4.63564,-1.53602478 13.38592,-2.88692198 15.42936,2.67944022 10.71655,34.0988295 33.953,89.4886715 15.70201,124.9809605 -15.08337,26.8614 -48.78275,-6.82692 -74.00413,4.02296 -23.8761,10.27124 -29.16655,56.3354 -51.33405,56.3354 -22.43641,0 -18.53525,-67.46077 -43.62338,-72.47837 z" /><path
       style="fill:#8bb1ac;fill-opacity:1;stroke:#c2d6d3;stroke-width:1.40009;stroke-linecap:butt;stroke-linejoin:miter;stroke-dasharray:none;stroke-opacity:1"
       d="m 2656.6736,9630.1994 c 0,0 5.7178,-25.294 -3.2383,-27.327 -6.3642,-1.445 -3.9921,15.8 -10.4788,16.518 -7.6736,0.849 -8.8252,-14.761 -16.3788,-16.356 -9.0443,-1.909 -17.8686,14.609 -25.8685,9.983 -4.9329,-2.853 2.3811,-14.105 -2.5956,-16.881 -7.0625,-3.939 -14.2973,8.708 -22.3538,9.434 -7.2576,0.653 -14.7681,-7.919 -21.3348,-4.764 -5.7219,2.75 -2.0076,16.911 -8.3544,17.098 -5.3428,0.156 -2.7143,-15.375 -7.8668,-13.955 -8.4486,2.328 0.6747,26.25 0.6747,26.25"
       id="path19-6"
       sodipodi:nodetypes="caaaaaaaaac" /><path
       style="fill:#9abcb8;fill-opacity:1;stroke:#3c5b57;stroke-width:1.40009;stroke-linecap:butt;stroke-linejoin:miter;stroke-dasharray:none;stroke-opacity:1"
       d="m 2640.9311,9630.1994 c 0,0 -6.6691,-1.431 -8.0883,-4.096 -1.1857,-2.228 2.8547,-5.867 0.9377,-7.51 -3.7103,-3.179 -9.753,6.221 -14.1076,4.002 -2.6813,-1.366 -0.2864,-7.404 -3.1011,-8.47 -7.5694,-2.866 -13.3455,12.643 -21.3639,11.533 -8.0971,-1.121 -9.8087,-19.576 -17.588,-17.068 -5.5231,1.78 2.3427,14.946 -3.0363,17.122 -7.2133,2.918 -12.7089,-18.337 -18.9233,-13.658 -3.6932,2.781 6.5428,8.788 4.7181,13.032 -1.7495,4.07 -12.1868,5.331 -12.1868,5.331"
       id="path17-1"
       sodipodi:nodetypes="caaaaaaaaac" /><path
       style="fill:#95b9b4;fill-opacity:1;stroke:none;stroke-width:26.8517;stroke-linecap:round;stroke-linejoin:round;stroke-miterlimit:4.7;stroke-dasharray:none;stroke-opacity:1;filter:url(#filter25-9)"
       d="M 284.71885,134.6013 C 264.86203,116.62444 295.90827,81.668051 272.03317,65.261333 239.36918,52.219121 216.29382,90.191515 189.16428,101.47889 166.13085,116.40911 145.55218,93.091214 137.76189,73.130674 130.61758,53.913837 106.45903,26.059778 86.477465,47.580779 72.946628,62.038929 78.039577,121.23186 48.734859,99.724931 33.292429,68.677313 42.656197,32.11676 47.196995,-0.55242717 71.291475,4.0090612 97.175762,-4.6815226 119.77494,5.2207146 c 37.35141,0.2013486 -6.70231,51.6021724 30.23596,45.0945644 16.37341,-8.858581 51.60827,-35.544701 47.57241,2.803507 8.81658,31.322592 45.22567,4.786879 57.76492,-11.288104 16.19839,-24.8851 52.83444,-28.832464 63.75621,2.749277 11.0801,18.376263 22.36131,52.617882 50.05296,43.495806 21.7663,-17.256004 -12.45872,-56.266884 13.42807,-69.022812 24.23388,7.564109 31.98611,36.356823 49.9922,52.263894 C 456.63215,93.41482 470.20279,54.477008 446.62838,41.853124 419.18495,14.08742 469.03971,0.01833266 490.62589,0.31951293 510.20896,-4.2813655 526.19408,-1.8972793 525.95507,21.539154 c 3.87932,25.129918 20.44442,58.49164 1.52562,79.966756 -26.43974,-1.910789 -5.54004,-59.311323 -38.58945,-55.394171 -24.05215,11.933036 -11.21752,45.297755 -25.87627,64.245811 -22.31994,19.65882 -49.36099,-8.29689 -72.66239,-12.615345 -38.96584,-12.430946 -61.85108,31.796705 -96.04639,38.795775 0,0 -4.85042,-0.32601 -4.85042,-0.32601 z"
       id="path24-8"
       transform="matrix(-0.24649568,0,0,-0.24617993,2667.5833,9629.8154)"
       sodipodi:nodetypes="sssssscssssssssssscsssss"
       inkscape:path-effect="#path-effect3"
       inkscape:original-d="m 284.71885,134.6013 c -16.14036,-7.95445 2.63853,-46.786321 -5.57918,-62.250578 -4.13226,-7.776171 -14.93136,-11.94509 -25.66795,-9.908937 -23.16438,4.393035 -49.44059,36.1855 -73.38539,42.494095 -41.46684,10.92497 -40.63038,-65.161124 -77.88666,-65.161124 -28.520638,0 -22.153471,48.358631 -36.782666,64.357764 -6.428433,7.03042 -38.658986,4.45556 -18.220009,-104.68494717 19.753998,1.85187057 39.06815,1.54829597 60.153835,0.74075236 9.41737,5.69313721 25.30402,6.19252731 30.59976,17.02356681 2.64343,7.516617 -14.11303,25.413319 -0.41834,32.495118 15.83671,8.189474 35.52284,-18.218661 51.33689,-18.218661 17.2592,0 -3.73964,36.460193 26.3655,36.460193 26.23169,0 49.75204,-47.763703 74.57932,-47.763703 31.75605,0 37.72159,67.106399 67.96769,69.614639 39.34135,3.262493 0.95632,-61.531882 21.12261,-69.95791 19.42772,-8.117418 42.30499,48.725267 60.79875,56.452461 10.05768,4.202366 20.46883,-1.032814 20.46883,-10.29262 0,-18.230715 -38.03813,-37.63698 -15.01331,-52.790685 22.25552,-13.35023532 48.93834,-13.37142673 74.10932,-14.3155783 1.59479,4.8567999 34.74016,106.9027343 2.99805,103.0861643 -11.97099,-1.43936 -7.84084,-54.560746 -26.73873,-56.229598 -39.83629,-3.517899 -5.17004,83.975948 -58.61716,70.336458 -19.6138,-5.0053 -40.33233,-21.516832 -63.48808,-20.301466 -33.88902,1.778718 -63.74444,51.114926 -88.70308,38.814596 z" /></g></svg>
