<?xml version="1.0" encoding="UTF-8" standalone="no"?>
<!-- Created with Inkscape (http://www.inkscape.org/) -->

<svg
   width="3828.2524"
   height="1988.2611"
   viewBox="0 0 1012.8918 526.06074"
   version="1.1"
   id="svg1"
   sodipodi:docname="MainPage_titlePageSVG.svg"
   xml:space="preserve"
   inkscape:version="1.3 (0e150ed6c4, 2023-07-21)"
   xmlns:inkscape="http://www.inkscape.org/namespaces/inkscape"
   xmlns:sodipodi="http://sodipodi.sourceforge.net/DTD/sodipodi-0.dtd"
   xmlns="http://www.w3.org/2000/svg"
   xmlns:svg="http://www.w3.org/2000/svg"><sodipodi:namedview
     id="namedview1"
     pagecolor="#505050"
     bordercolor="#000000"
     borderopacity="1"
     inkscape:showpageshadow="0"
     inkscape:pageopacity="0"
     inkscape:pagecheckerboard="0"
     inkscape:deskcolor="#747474"
     inkscape:document-units="mm"
     inkscape:zoom="0.16"
     inkscape:cx="1518.75"
     inkscape:cy="1665.625"
     inkscape:window-width="1920"
     inkscape:window-height="1009"
     inkscape:window-x="-8"
     inkscape:window-y="-8"
     inkscape:window-maximized="1"
     inkscape:current-layer="layer1" /><defs
     id="defs1"><inkscape:path-effect
       effect="simplify"
       id="path-effect8"
       is_visible="true"
       lpeversion="1.3"
       threshold="100"
       steps="2.5076923"
       smooth_angles="100.38462"
       helper_size="10"
       simplify_individual_paths="false"
       simplify_just_coalesce="false" /><inkscape:path-effect
       effect="simplify"
       id="path-effect7"
       is_visible="true"
       lpeversion="1.3"
       threshold="96.923385"
       steps="1"
       smooth_angles="360"
       helper_size="10"
       simplify_individual_paths="false"
       simplify_just_coalesce="false" /><inkscape:path-effect
       effect="simplify"
       id="path-effect6"
       is_visible="true"
       lpeversion="1.3"
       threshold="100"
       steps="2.8846154"
       smooth_angles="120.46154"
       helper_size="10"
       simplify_individual_paths="false"
       simplify_just_coalesce="false" /><inkscape:path-effect
       effect="simplify"
       id="path-effect4"
       is_visible="true"
       lpeversion="1.3"
       threshold="100"
       steps="1"
       smooth_angles="360"
       helper_size="10"
       simplify_individual_paths="false"
       simplify_just_coalesce="false" /><inkscape:path-effect
       effect="simplify"
       id="path-effect2"
       is_visible="true"
       lpeversion="1.3"
       threshold="100"
       steps="1"
       smooth_angles="360"
       helper_size="10"
       simplify_individual_paths="false"
       simplify_just_coalesce="false" /><inkscape:path-effect
       effect="simplify"
       id="path-effect1"
       is_visible="true"
       lpeversion="1.3"
       threshold="100"
       steps="6.8423077"
       smooth_angles="0"
       helper_size="10"
       simplify_individual_paths="false"
       simplify_just_coalesce="false" /><inkscape:path-effect
       effect="spiro"
       id="path-effect5"
       is_visible="false"
       lpeversion="1" /><inkscape:path-effect
       effect="spiro"
       id="path-effect3"
       is_visible="true"
       lpeversion="1" /><filter
       inkscape:collect="always"
       style="color-interpolation-filters:sRGB"
       id="filter2"
       x="-0.11485245"
       y="-0.26027659"
       width="1.2297049"
       height="1.5205532"><feGaussianBlur
         inkscape:collect="always"
         stdDeviation="45.484672"
         id="feGaussianBlur2" /></filter><filter
       inkscape:collect="always"
       style="color-interpolation-filters:sRGB"
       id="filter3"
       x="-0.14439671"
       y="-0.44110892"
       width="1.2887934"
       height="1.8822178"><feGaussianBlur
         inkscape:collect="always"
         stdDeviation="48.694925"
         id="feGaussianBlur3" /></filter><filter
       inkscape:collect="always"
       style="color-interpolation-filters:sRGB"
       id="filter3-6"
       x="-0.27457595"
       y="-0.73350077"
       width="1.5491519"
       height="2.4670015"><feGaussianBlur
         inkscape:collect="always"
         stdDeviation="85.541243"
         id="feGaussianBlur3-2" /></filter><inkscape:path-effect
       effect="spiro"
       id="path-effect5-1"
       is_visible="true"
       lpeversion="1" /><filter
       inkscape:collect="always"
       style="color-interpolation-filters:sRGB"
       id="filter2-5"
       x="-0.20843111"
       y="-0.45234444"
       width="1.4168622"
       height="1.9046889"><feGaussianBlur
         inkscape:collect="always"
         stdDeviation="81.884435"
         id="feGaussianBlur2-0" /></filter><filter
       inkscape:collect="always"
       style="color-interpolation-filters:sRGB"
       id="filter5"
       x="-0.3080116"
       y="-0.58761408"
       width="1.6160232"
       height="2.1752282"><feGaussianBlur
         inkscape:collect="always"
         stdDeviation="122.74289"
         id="feGaussianBlur5" /></filter><filter
       inkscape:collect="always"
       style="color-interpolation-filters:sRGB"
       id="filter6"
       x="-0.57333518"
       y="-1.254838"
       width="2.1466704"
       height="3.509676"><feGaussianBlur
         inkscape:collect="always"
         stdDeviation="224.86469"
         id="feGaussianBlur6" /></filter></defs><g
     inkscape:label="Слой 1"
     inkscape:groupmode="layer"
     id="layer1"
     transform="translate(-981.47414,-507.17491)"><path
       style="mix-blend-mode:normal;fill:#6f9f97;fill-opacity:1;stroke:none;stroke-width:0.994449;stroke-linecap:butt;stroke-linejoin:miter;stroke-dasharray:none;stroke-opacity:1;filter:url(#filter2)"
       d="m 1171.6577,673.32412 c 43.8133,-63.12612 98.5805,-144.19845 184.5572,-53.78686 55.2665,58.11723 101.316,-28.94875 163.7385,-41.61823 90.9387,-18.45727 178.6189,62.77048 269.0549,-6.32236 52.6652,-40.23609 123.7184,-13.22492 81.0908,65.79625 -47.2581,87.60464 58.3105,152.79364 65.9335,234.88733 9.3676,100.882 -81.0628,80.11544 -166.291,49.45602 -81.7955,-29.42456 -164.9046,77.0052 -241.9411,5.72962 -70.1312,2.56239 -130.0777,95.73301 -203.7027,6.43589 -74.8228,-90.74976 -177.6015,64.97796 -250.8538,5.29294 -72.2767,-58.89018 -99.07951,-161.63763 -82.06009,-244.9945 20.47389,-100.27573 124.09959,3.38155 180.47379,-20.8761 z"
       id="path1"
       sodipodi:nodetypes="aaaaaaaasaaaaaaaaa"
       transform="matrix(0.81711507,0,0,0.7797017,292.89998,178.30454)"
       inkscape:path-effect="#path-effect8"
       inkscape:original-d="m 1171.6577,673.32412 c 46.3744,-17.99148 52.7726,-101.63683 101.9744,-108.94821 59.833,-8.89117 96.895,95.74262 157.1749,90.7052 43.4639,-3.63215 58.4822,-73.16087 100.9017,-83.30426 50.7352,-12.13184 100.5594,32.64491 152.6997,34.26351 71.5928,2.22242 166.6037,-89.20505 212.1827,-33.95095 27.948,33.8805 -49.5155,80.06761 -45.1779,123.77301 4.0355,40.66106 50.0083,66.19682 63.845,104.64356 46.7191,129.8138 -15.3875,172.40405 -44.6831,175.69437 -47.1449,5.29506 -78.9132,-62.3765 -126.2357,-65.73145 -46.0396,-3.26401 -84.4521,45.91429 -130.6072,45.98305 -34.6557,0.0516 -63.607,-36.77874 -98.1692,-34.23416 -44.5177,3.27753 -74.0203,63.86067 -118.6252,62.13812 -52.2391,-2.01737 -81.0903,-76.30359 -132.902,-83.27073 -59.9083,-8.05589 -118.3649,76.72026 -173.6463,52.2689 -63.9387,-28.28059 -77.0676,-120.63306 -90.3868,-189.26654 -6.5993,-34.00627 -19.69556,-81.00579 6.4575,-103.72127 41.7014,-36.22008 113.7021,32.93607 165.1975,12.95785 z" /><path
       style="mix-blend-mode:normal;fill:#7fa9a4;fill-opacity:1;stroke:none;stroke-width:0.793757;stroke-linecap:butt;stroke-linejoin:miter;stroke-dasharray:none;stroke-opacity:1"
       d="m 1167.6817,650.61473 c 46.3744,-17.99148 52.7726,-101.63683 101.9744,-108.94821 59.833,-8.89117 96.895,95.74262 157.1749,90.7052 43.4639,-3.63215 58.4822,-73.16087 100.9017,-83.30426 50.7352,-12.13184 100.5594,32.64491 152.6997,34.26351 71.5928,2.22242 166.6037,-89.20505 212.1827,-33.95095 27.948,33.8805 -49.5155,80.06761 -45.1779,123.77301 4.0355,40.66106 50.0083,66.19682 63.845,104.64356 46.7191,129.8138 -15.3875,172.40405 -44.6831,175.69437 -47.1449,5.29506 -78.9132,-62.3765 -126.2357,-65.73145 -46.0396,-3.26401 -84.4521,45.91429 -130.6072,45.98305 -34.6557,0.0516 -63.607,-36.77874 -98.1692,-34.23416 -44.5177,3.27753 -74.0203,63.86067 -118.6252,62.13812 -52.2391,-2.01737 -81.0903,-76.30359 -132.902,-83.27073 -59.9083,-8.05589 -118.3649,76.72026 -173.6463,52.2689 -63.9387,-28.28059 -77.0676,-120.63306 -90.38683,-189.26654 -6.59934,-34.00627 -19.6956,-81.00579 6.45753,-103.72127 41.7014,-36.22008 113.7021,32.93607 165.1975,12.95785 z"
       id="path2"
       sodipodi:nodetypes="aaaaaaaasaaaaaaaaa" /><path
       style="mix-blend-mode:normal;fill:#759a94;fill-opacity:1;stroke:none;stroke-width:4.29737;stroke-linecap:butt;stroke-linejoin:miter;stroke-dasharray:none;stroke-opacity:1;filter:url(#filter5)"
       d="m 1171.6577,673.32412 c 116.8914,-190.05231 235.1685,-94.84763 435.8739,-89.57193 208.025,5.4681 164.2613,-63.25493 272.1287,165.26238 178.3164,377.76393 -332.683,348.91173 -518.2408,222.45896 -153.0545,-104.30269 -510.88376,25.19334 -367.92963,-290.09985 35.73293,-78.81086 121.55373,16.18516 178.16783,-8.04956 z"
       id="path1-6"
       sodipodi:nodetypes="aaaaaaaasaaaaaaaaa"
       transform="matrix(0.11495183,0.2024654,-0.12637905,0.07419741,1759.7311,432.20507)"
       inkscape:path-effect="#path-effect4"
       inkscape:original-d="m 1171.6577,673.32412 c 46.3744,-17.99148 52.7726,-101.63683 101.9744,-108.94821 59.833,-8.89117 96.895,95.74262 157.1749,90.7052 43.4639,-3.63215 58.4822,-73.16087 100.9017,-83.30426 50.7352,-12.13184 100.5594,32.64491 152.6997,34.26351 71.5928,2.22242 166.6037,-89.20505 212.1827,-33.95095 27.948,33.8805 -49.5155,80.06761 -45.1779,123.77301 4.0355,40.66106 50.0083,66.19682 63.845,104.64356 46.7191,129.8138 -15.3875,172.40405 -44.6831,175.69437 -47.1449,5.29506 -78.9132,-62.3765 -126.2357,-65.73145 -46.0396,-3.26401 -84.4521,45.91429 -130.6072,45.98305 -34.6557,0.0516 -63.607,-36.77874 -98.1692,-34.23416 -44.5177,3.27753 -74.0203,63.86067 -118.6252,62.13812 -52.2391,-2.01737 -81.0903,-76.30359 -132.902,-83.27073 -59.9083,-8.05589 -118.3649,76.72026 -173.6463,52.2689 -63.9387,-28.28059 -77.0676,-120.63306 -90.3868,-189.26654 -6.5993,-34.00627 -19.69556,-81.00579 6.4575,-103.72127 41.7014,-36.22008 113.7021,32.93607 165.1975,12.95785 z" /><path
       style="mix-blend-mode:normal;fill:#76a39f;fill-opacity:1;stroke:none;stroke-width:1.51633;stroke-linecap:butt;stroke-linejoin:miter;stroke-dasharray:none;stroke-opacity:1;filter:url(#filter2-5)"
       d="m 1171.6577,673.32412 c 49.7505,-71.71013 96.8088,-141.32018 198.7043,-47.07334 99.4656,91.99937 120.3872,-83.50444 275.325,-27.95298 71.1812,25.52133 319.9077,-121.35221 225.4837,48.12893 -54.1885,97.26265 161.6446,417.62087 -0.5956,329.77362 -78.0268,-42.24867 -139.1227,29.15785 -239.8677,-21.87785 -87.4884,-44.3202 -159.3193,84.131 -233.7696,30.03341 -82.5469,-59.98081 -133.6776,-40.13774 -264.5188,-29.98629 -121.7138,9.4433 -201.2884,-313.63648 -89.7955,-304.4496 43.6308,3.59512 84.2025,37.55376 129.0342,23.4041 z"
       id="path6"
       sodipodi:nodetypes="aaaaaaaasaaaaaaaaa"
       transform="matrix(0.65704073,0,0,0.41705262,630.54457,499.40506)"
       inkscape:path-effect="#path-effect2"
       inkscape:original-d="m 1171.6577,673.32412 c 46.3744,-17.99148 52.7726,-101.63683 101.9744,-108.94821 59.833,-8.89117 96.895,95.74262 157.1749,90.7052 43.4639,-3.63215 58.4822,-73.16087 100.9017,-83.30426 50.7352,-12.13184 100.5594,32.64491 152.6997,34.26351 71.5928,2.22242 166.6037,-89.20505 212.1827,-33.95095 27.948,33.8805 -49.5155,80.06761 -45.1779,123.77301 4.0355,40.66106 50.0083,66.19682 63.845,104.64356 46.7191,129.8138 -15.3875,172.40405 -44.6831,175.69437 -47.1449,5.29506 -78.9132,-62.3765 -126.2357,-65.73145 -46.0396,-3.26401 -84.4521,45.91429 -130.6072,45.98305 -34.6557,0.0516 -63.607,-36.77874 -98.1692,-34.23416 -44.5177,3.27753 -74.0203,63.86067 -118.6252,62.13812 -52.2391,-2.01737 -81.0903,-76.30359 -132.902,-83.27073 -59.9083,-8.05589 -118.3649,76.72026 -173.6463,52.2689 -63.9387,-28.28059 -77.0676,-120.63306 -90.3868,-189.26654 -6.5993,-34.00627 -19.69556,-81.00579 6.4575,-103.72127 41.7014,-36.22008 113.7021,32.93607 165.1975,12.95785 z" /><path
       style="mix-blend-mode:normal;fill:#acc8c3;fill-opacity:1;stroke:none;stroke-width:0.31066px;stroke-linecap:butt;stroke-linejoin:miter;stroke-opacity:1;filter:url(#filter3)"
       d="m 1036.0313,717.99041 c 24.2932,68.51969 82.2472,178.62203 164.7656,107.0277 88.9285,-50.89104 162.6446,60.97922 246.1102,17.20347 60.5519,-35.80702 121.4471,-6.48404 177.7836,5.00078 65.6493,-8.28303 142.7012,-44.23795 200.5719,5.49857 70.0695,-65.1327 -87.4335,-118.98317 -36.682,-194.91892 12.4916,-99.46045 -95.1856,-29.39246 -147.3285,-57.56453 -75.7327,-37.39178 -132.367,18.45335 -192.3857,48.63289 -75.9011,6.49428 -152.2202,-78.20488 -213.345,2.89722 -53.3984,71.72488 -137.2359,3.81973 -197.3954,37.67052 -5.3611,8.74193 -4.3809,19.19196 -2.0947,28.5523 z"
       id="path4"
       transform="matrix(0.88822807,0,0,0.81663338,92.291805,97.335276)"
       sodipodi:nodetypes="aaaaaaaaaaaaaaaaaaasaa"
       inkscape:path-effect="#path-effect1"
       inkscape:original-d="m 1036.0313,717.99041 c 2.6299,24.45 29.8293,37.78874 39.5834,60.00199 9.4504,21.5216 -1.2076,56.48249 17.4674,68.98238 50.2816,33.65532 121.0142,-42.20634 173.6328,-38.03385 64.3684,5.10422 127.4798,69.1724 141.3867,66.97266 17.9068,-2.83242 20.5959,-35.18879 37.207,-42.9948 38.2036,-17.95288 83.7611,-7.18441 124.8503,0 22.351,3.90805 41.8542,23.15858 64.4922,23.15105 40.3502,-0.0134 74.6636,-44.19444 114.9284,-41.34115 30.8413,2.18551 53.3783,51.30643 83.5091,43.82161 12.9444,-3.21552 24.9821,-19.45927 24.8047,-33.89973 -0.3893,-31.67926 -42.9782,-44.54359 -56.224,-72.76042 -13.4223,-28.59271 -23.8224,-61.42662 -21.4974,-93.43099 1.6056,-22.10156 36.1223,-43.37905 23.9779,-61.18489 -9.7457,-14.28886 -32.4589,4.64802 -48.7826,5.78776 -38.7883,2.70823 -78.2381,9.40021 -116.582,2.48047 -23.4309,-4.22846 -43.3015,-28.57645 -66.9727,-26.45834 -41.2094,3.68743 -94.2806,87.81901 -177.7669,71.9336 -34.2247,-6.51212 -57.2177,-57.63609 -91.7773,-53.74349 -29.2209,3.29129 -44.2366,42.10874 -67.3921,61.77244 -83.1428,70.60503 -146.4123,-10.46519 -182.3084,15.12209 -12.1419,8.65492 -18.2234,28.13884 -16.5365,43.82161 z" /><path
       style="mix-blend-mode:normal;fill:#a6c4bf;fill-opacity:1;stroke:none;stroke-width:0.86458px;stroke-linecap:butt;stroke-linejoin:miter;stroke-opacity:1;filter:url(#filter3-6)"
       d="m 1036.0313,717.99041 c 76.729,201.57798 531.2036,93.941 480.2681,115.36507 113.1218,6.32347 263.6734,125.78301 267.4008,-140.12361 3.4207,-244.02789 -334.0674,17.40865 -472.5836,-80.15526 -99.2505,8.1577 -189.8961,56.83278 -275.0853,104.9138 z"
       id="path4-5"
       transform="matrix(0.27383104,-0.1366296,0.1366296,0.27383104,1248.1428,629.12506)"
       inkscape:path-effect="#path-effect6"
       inkscape:original-d="m 1036.0313,717.99041 c -5.5122,14.60721 27.0095,68.35069 40.5143,102.52604 13.5048,34.17536 11.0243,17.6389 16.5365,26.45833 5.5121,8.81944 50.7118,-9.92187 76.0677,-14.88281 25.3559,-4.96094 65.0434,-15.43402 97.5651,-23.15104 32.5217,-7.71702 67.2483,27.56077 100.8724,41.34115 33.6241,13.78037 27.0095,17.08766 40.5143,25.63151 13.5048,8.54384 24.8047,-28.66319 37.207,-42.9948 12.4024,-14.3316 83.2335,0 124.8503,0 41.6168,0 42.9948,15.43402 64.4922,23.15105 21.4974,7.71702 76.6189,-27.56078 114.9284,-41.34115 38.3094,-13.78037 55.6727,29.21442 83.5091,43.82161 27.8363,14.6072 16.5364,-22.59983 24.8047,-33.89973 8.2682,-11.29991 -37.4827,-48.50694 -56.224,-72.76042 -18.7413,-24.25347 -14.3316,-62.28733 -21.4974,-93.43099 -7.1658,-31.14366 15.9853,-40.78993 23.9779,-61.18489 7.9926,-20.39497 -32.5217,3.8585 -48.7826,5.78776 -16.2608,1.92925 -77.7213,1.65364 -116.582,2.48047 -38.8607,0.82682 -44.6484,-17.63889 -66.9727,-26.45834 -22.3242,-8.81944 -63.9409,39.13629 -95.9114,58.70443 -31.9705,19.56814 -54.5703,8.81944 -81.8555,13.22917 -27.2851,4.40972 -61.1849,-35.829 -91.7773,-53.74349 -30.5925,-17.9145 -36.3802,15.98524 -54.5703,23.97786 -18.1901,7.99262 -57.8776,36.93142 -86.8164,55.39714 -28.9388,18.46571 -72.2092,-1.65365 -108.3138,-2.48047 -36.1046,-0.82683 -11.0243,29.21441 -16.5365,43.82161 z" /><path
       style="mix-blend-mode:normal;fill:#87a19e;fill-opacity:1;stroke:none;stroke-width:3.45759;stroke-linecap:butt;stroke-linejoin:miter;stroke-dasharray:none;stroke-opacity:1;filter:url(#filter6)"
       d="m 1171.6577,673.32412 c 46.3744,-17.99148 52.7726,-101.63683 101.9744,-108.94821 59.833,-8.89117 96.895,95.74262 157.1749,90.7052 43.4639,-3.63215 58.4822,-73.16087 100.9017,-83.30426 50.7352,-12.13184 100.5594,32.64491 152.6997,34.26351 71.5928,2.22242 166.6037,-89.20505 212.1827,-33.95095 27.948,33.8805 -49.5155,80.06761 -45.1779,123.77301 4.0355,40.66106 50.0083,66.19682 63.845,104.64356 46.7191,129.8138 -15.3875,172.40405 -44.6831,175.69437 -47.1449,5.29506 -78.9132,-62.3765 -126.2357,-65.73145 -46.0396,-3.26401 -84.4521,45.91429 -130.6072,45.98305 -34.6557,0.0516 -63.607,-36.77874 -98.1692,-34.23416 -44.5177,3.27753 -74.0203,63.86067 -118.6252,62.13812 -52.2391,-2.01737 -81.0903,-76.30359 -132.902,-83.27073 -59.9083,-8.05589 -118.3649,76.72026 -173.6463,52.2689 -63.9387,-28.28059 -77.0676,-120.63306 -90.3868,-189.26654 -6.5993,-34.00627 -19.69556,-81.00579 6.4575,-103.72127 41.7014,-36.22008 113.7021,32.93607 165.1975,12.95785 z"
       id="path5"
       sodipodi:nodetypes="aaaaaaaasaaaaaaaaa"
       transform="matrix(0.29566803,0,0,0.17824508,851.15441,641.03767)" /></g></svg>
