<?xml version="1.0" encoding="UTF-8" standalone="no"?>
<!-- Created with Inkscape (http://www.inkscape.org/) -->

<svg
   width="3228.2893"
   height="2886.4697"
   viewBox="0 0 854.15153 763.71178"
   version="1.1"
   id="svg1"
   sodipodi:docname="MainPage_greetingPageSVG.svg"
   xml:space="preserve"
   inkscape:version="1.3 (0e150ed6c4, 2023-07-21)"
   xmlns:inkscape="http://www.inkscape.org/namespaces/inkscape"
   xmlns:sodipodi="http://sodipodi.sourceforge.net/DTD/sodipodi-0.dtd"
   xmlns:xlink="http://www.w3.org/1999/xlink"
   xmlns="http://www.w3.org/2000/svg"
   xmlns:svg="http://www.w3.org/2000/svg"><sodipodi:namedview
     id="namedview1"
     pagecolor="#505050"
     bordercolor="#000000"
     borderopacity="1"
     inkscape:showpageshadow="0"
     inkscape:pageopacity="0"
     inkscape:pagecheckerboard="0"
     inkscape:deskcolor="#747474"
     inkscape:document-units="mm"
     inkscape:zoom="0.16"
     inkscape:cx="1637.5"
     inkscape:cy="1921.875"
     inkscape:window-width="1920"
     inkscape:window-height="1009"
     inkscape:window-x="-8"
     inkscape:window-y="-8"
     inkscape:window-maximized="1"
     inkscape:current-layer="layer1" /><defs
     id="defs1"><linearGradient
       id="linearGradient1"
       inkscape:collect="always"><stop
         style="stop-color:#5e726f;stop-opacity:1;"
         offset="0"
         id="stop1" /><stop
         style="stop-color:#111514;stop-opacity:1;"
         offset="1"
         id="stop2" /></linearGradient><linearGradient
       inkscape:collect="always"
       xlink:href="#linearGradient1"
       id="linearGradient3"
       gradientUnits="userSpaceOnUse"
       gradientTransform="matrix(0.50306743,-0.29043658,0.29045564,0.50306743,12483.947,3044.2344)"
       x1="1816.0883"
       y1="431.11374"
       x2="1008.7239"
       y2="1115.9746" /></defs><g
     inkscape:label="Слой 1"
     inkscape:groupmode="layer"
     id="layer1"
     transform="translate(-613.61751,-1436.7903)"><g
       id="g104"
       transform="matrix(0.95308335,0,0,0.95311463,-11776.524,-999.95901)"
       style="stroke-width:1.0492"><ellipse
         style="fill:none;fill-opacity:1;stroke:#2e3937;stroke-width:13.8803;stroke-linecap:square;stroke-miterlimit:4.7;stroke-dasharray:none;stroke-opacity:1"
         id="path9"
         cx="13448.16"
         cy="2957.2573"
         rx="393.70163"
         ry="393.69989" /><path
         id="path2"
         style="fill:url(#linearGradient3);fill-opacity:1;stroke:none;stroke-width:5.55204;stroke-linecap:butt;stroke-linejoin:miter;stroke-dasharray:none;stroke-opacity:1"
         d="m 13522.78,2733.6555 c -32.148,8.6234 -67.135,29.0926 -102.451,54.2602 3.944,0.4432 7.882,0.8793 11.861,1.3815 70.746,8.9231 147.414,26.2184 212.564,27.9125 -0.05,-4.4933 -1.033,-9.3472 -3.145,-14.6459 -26.968,-67.6221 -69.573,-82.1205 -118.829,-68.9083 z m -129.726,74.4684 c -42.489,32.6426 -84.488,69.436 -121.733,98.2285 2.128,1.4816 4.244,2.9606 6.433,4.456 12.739,8.7132 26.105,17.612 36.13,28.4561 5.013,5.4217 9.29,11.4517 11.662,18.6026 2.372,7.1509 2.445,15.4822 -0.472,23.2636 -7.017,18.7282 -19.859,32.5858 -35.817,41.547 -15.957,8.9609 -34.812,13.4052 -55.301,15.3472 -40.975,3.8835 -89.057,-2.2172 -135.774,-7.8648 -6.162,-0.7447 -12.176,-1.4032 -18.267,-2.1099 -29.725,21.3774 -55.065,44.0477 -68.809,67.475 20.205,0.3674 40.601,0.8038 58.449,3.4417 11.057,1.6334 21.189,4.0638 29.999,8.4653 8.807,4.402 16.609,11.3691 20.112,21.1238 1.769,4.9306 2.85,10.0068 3.403,15.1832 66.547,-52.5221 143.11,-131.5865 193.97,-92.0909 32.478,25.2217 -47.021,98.9811 -13.39,122.6429 37.157,26.1415 77.674,-0.1556 119.338,-34.1353 -8.465,-8.9447 -14.39,-20.824 -16.781,-35.0989 -6.12,-36.5288 4.044,-66.4048 26.17,-86.898 22.125,-20.4919 54.503,-32.1988 93.218,-39.3864 77.428,-14.3753 181.746,-10.2561 285.733,-6.3543 25.964,0.9743 51.906,1.9335 77.355,2.6152 3.263,-8.8733 4.333,-19.0889 2.775,-30.9196 -1.228,-9.3236 -6.154,-14.6936 -13.662,-17.3127 -6.774,0.077 -13.282,-0.4809 -19.496,-1.8081 -54.181,3.7252 -156.039,57.932 -165.222,11.0636 -7.647,-39.0312 62.721,-42.809 122.722,-50.2119 -3.749,-12.6523 -1.728,-25.4568 4.823,-35.1764 6.726,-9.9808 16.989,-17.0111 28.912,-22.9014 9.001,-4.4455 19.121,-8.2644 29.9,-11.6974 -96.272,-91.9498 -487.692,294.3593 -541.948,133.013 -29.293,-87.1113 240.295,-56.5846 296.953,-109.3219 -66.436,-2.8331 -139.255,-19.7273 -205.079,-28.0293 -12.419,-1.5669 -24.53,-2.7781 -36.306,-3.6075 z m -140.768,112.503 c -7.511,5.4258 -14.805,10.4519 -21.774,14.8421 -33.085,20.8409 -79.486,45.6708 -121.995,73.1346 44.222,5.3189 88.309,10.229 123.307,6.9121 18.507,-1.7543 34.329,-5.7971 46.364,-12.5552 12.031,-6.757 20.497,-15.8531 25.711,-29.7669 1.206,-3.2177 1.134,-5.331 0.18,-8.2094 -0.955,-2.8783 -3.19,-6.4635 -6.8,-10.3667 -7.217,-7.8076 -19.531,-16.4178 -32.287,-25.1422 -4.248,-2.905 -8.505,-5.8525 -12.706,-8.8485 z m 640.263,-84.7987 c -12.57,3.7465 -23.954,7.7462 -33.001,12.2147 -9.952,4.9155 -16.857,10.3411 -20.173,15.2606 -3.314,4.9196 -4.23,9.0287 -1.783,16.6458 0.311,0.9698 0.659,1.8283 0.999,2.7162 37.058,-5.9913 64.453,-15.8204 56.188,-40.9208 -0.684,-2.0708 -1.438,-4.0233 -2.23,-5.9165 z m -890.788,282.1409 c -3.821,16.0028 -1.418,32.2614 9.416,48.6098 20.409,30.7923 52.267,19.7583 88.796,-5.6091 1.269,-9.5098 0.853,-17.9723 -1.587,-24.7718 -1.161,-3.2298 -3.545,-5.8383 -8.943,-8.5353 -5.395,-2.6984 -13.493,-4.8909 -23.196,-6.3249 -17.961,-2.6545 -41.226,-2.8934 -64.486,-3.3687 z m 502.146,-111.0563 c -24.194,6.7442 -43.379,15.9957 -56.165,27.8377 -17.045,15.7882 -24.424,35.5806 -19.233,66.571 1.936,11.5452 5.84,19.065 11.767,24.5016 28.195,-23.707 56.774,-48.1238 85.068,-59.6802 96.423,-39.3813 287.456,-14.5886 347.963,-68.9274 -20.82,-0.6542 -41.801,-1.4151 -62.829,-2.2039 -103.983,-3.9021 -207.753,-7.5645 -280.759,5.9892 -9.127,1.6949 -17.747,3.6634 -25.812,5.912 z"
         inkscape:export-filename="Website\images\MainPage.svg"
         inkscape:export-xdpi="20"
         inkscape:export-ydpi="20" /><path
         d="m 13290.888,3051.9941 v -190.9112 h -40.253 v 71.8792 h -74.466 v -71.8792 h -39.965 v 190.9112 h 39.965 v -85.68 h 74.466 v 85.68 z m 50.315,-84.53 c 1.438,-19.5511 13.801,-31.0518 28.752,-31.0518 14.663,0 28.464,10.0631 29.039,31.0518 z m 96.318,23.5764 c 0,-56.0658 -23.001,-84.2424 -66.416,-84.2424 -43.415,0 -68.429,28.1766 -68.429,71.8792 0,51.178 23.576,77.0546 70.729,77.0546 30.189,0 53.478,-16.3885 62.104,-45.4277 h -38.527 c -2.588,9.7756 -13.226,15.8134 -25.302,15.8134 -18.401,0 -30.477,-13.8008 -31.627,-35.0771 z m 50.316,60.9536 v -193.2114 h -37.377 v 193.2114 z m 53.191,0 v -193.2114 h -37.378 v 193.2114 z m 85.392,-27.6016 c -22.714,0 -34.215,-14.3758 -34.215,-43.1275 0,-28.7517 11.501,-42.8401 34.215,-42.8401 22.714,0 34.214,14.0884 34.214,42.8401 0,28.7517 -11.5,43.1275 -34.214,43.1275 z m 0,31.3394 c 43.99,0 71.879,-29.6143 71.879,-74.4669 0,-45.1402 -27.601,-74.4669 -71.879,-74.4669 -44.853,0 -72.742,29.6142 -72.742,74.4669 0,43.9901 27.027,74.4669 72.742,74.4669 z m 131.683,-3.7378 v -37.6647 h -38.815 v 37.6647 z m -9.201,-52.9031 c 7.475,-45.7152 11.213,-85.105 11.213,-116.7319 0,-7.7629 -0.575,-14.9509 -1.15,-21.2762 h -39.677 c -1.438,5.7503 -1.438,12.6507 -1.438,20.4137 0,32.2019 3.738,71.8792 11.213,117.5944 z"
         id="text1"
         style="font-size:287.517px;line-height:1;font-family:Coolvetica;-inkscape-font-specification:Coolvetica;fill:#ffffff;stroke-width:0.277603"
         aria-label="Hello!" /></g></g></svg>
