<?xml version="1.0" encoding="UTF-8" standalone="no"?>
<!-- Created with Inkscape (http://www.inkscape.org/) -->

<svg
   width="587.23401"
   height="223.382"
   viewBox="0 0 587.23402 223.38201"
   version="1.1"
   id="svg1"
   sodipodi:docname="MainPage_titlePageDecor.svg"
   xml:space="preserve"
   inkscape:version="1.3 (0e150ed6c4, 2023-07-21)"
   xmlns:inkscape="http://www.inkscape.org/namespaces/inkscape"
   xmlns:sodipodi="http://sodipodi.sourceforge.net/DTD/sodipodi-0.dtd"
   xmlns="http://www.w3.org/2000/svg"
   xmlns:svg="http://www.w3.org/2000/svg"><sodipodi:namedview
     id="namedview1"
     pagecolor="#505050"
     bordercolor="#000000"
     borderopacity="1"
     inkscape:showpageshadow="false"
     inkscape:pageopacity="0"
     inkscape:pagecheckerboard="false"
     inkscape:deskcolor="#747474"
     inkscape:document-units="mm"
     inkscape:zoom="1.28"
     inkscape:cx="242.96874"
     inkscape:cy="66.796874"
     inkscape:window-width="1920"
     inkscape:window-height="1009"
     inkscape:window-x="-8"
     inkscape:window-y="-8"
     inkscape:window-maximized="1"
     inkscape:current-layer="layer1"
     inkscape:clip-to-page="false" /><defs
     id="defs1"><inkscape:path-effect
       effect="simplify"
       id="path-effect3"
       is_visible="true"
       lpeversion="1.3"
       threshold="22.700038"
       steps="1"
       smooth_angles="0"
       helper_size="10"
       simplify_individual_paths="false"
       simplify_just_coalesce="false" /><inkscape:path-effect
       effect="simplify"
       id="path-effect2"
       is_visible="true"
       lpeversion="1.3"
       threshold="31.929885"
       steps="1"
       smooth_angles="0"
       helper_size="10"
       simplify_individual_paths="false"
       simplify_just_coalesce="false" /><inkscape:path-effect
       effect="simplify"
       id="path-effect1"
       is_visible="true"
       lpeversion="1.3"
       threshold="9.2398462"
       steps="1"
       smooth_angles="360"
       helper_size="10"
       simplify_individual_paths="false"
       simplify_just_coalesce="false" /><filter
       inkscape:collect="always"
       style="color-interpolation-filters:sRGB"
       id="filter25"
       x="-0.088220868"
       y="-0.31685833"
       width="1.1764417"
       height="1.6337167"><feGaussianBlur
         inkscape:collect="always"
         stdDeviation="18.238283"
         id="feGaussianBlur25" /></filter><filter
       inkscape:collect="always"
       style="color-interpolation-filters:sRGB"
       id="filter26"
       x="-0.080463198"
       y="-0.23588992"
       width="1.1609264"
       height="1.4717798"><feGaussianBlur
         inkscape:collect="always"
         stdDeviation="18.238283"
         id="feGaussianBlur26" /></filter></defs><g
     inkscape:label="Слой 1"
     inkscape:groupmode="layer"
     id="layer1"
     transform="translate(-1796.1613,-113.93955)"><path
       style="fill:#6c9d96;fill-opacity:1;stroke:#4c736e;stroke-width:5.29167;stroke-linecap:butt;stroke-linejoin:miter;stroke-dasharray:none;stroke-opacity:1"
       d="m 1840.8702,111.55912 c 0,0 -26.5228,101.97056 7.5885,127.51246 26.5235,19.86036 75.4436,-47.33168 96.9496,-22.13621 13.7877,16.15325 -37.6837,42.91728 -23.8691,59.04766 29.1519,34.03866 87.4429,-40.79665 131.0628,-30.38256 20.6396,4.92762 27.5841,41.29475 48.8003,40.83275 29.9799,-0.65283 52.7709,-53.79592 66.3745,-60.64653 32.5797,-16.40672 23.024,64.34614 50.6432,65.60396 24.0971,1.09743 27.001,-43.59935 49.2176,-52.98422 20.3529,-8.5976 51.1926,17.62195 66.2789,1.49483 29.3633,-31.38902 -11.6643,-128.34214 -11.6643,-128.34214"
       id="path20"
       sodipodi:nodetypes="caaaaasaaac" /><path
       style="fill:#b0cbc8;fill-opacity:1;stroke:none;stroke-width:26.8517;stroke-linecap:round;stroke-linejoin:round;stroke-miterlimit:4.7;stroke-dasharray:none;stroke-opacity:1;filter:url(#filter26)"
       d="m 388.63291,115.8993 c -39.02754,4.72567 -58.69233,100.12117 -103.59985,52.43313 -17.47351,-42.92051 -68.55843,-30.01779 -98.4786,-8.73402 -16.5368,22.65619 -94.904552,33.2689 -62.23822,-9.66017 32.89397,-17.09648 16.53427,-64.778419 -19.16029,-41.55891 C 78.314578,132.15 21.065265,154.40857 20.51753,97.712087 19.674878,66.345624 18.168408,22.197413 34.257516,-0.55242717 48.058198,21.995368 16.122862,82.33778 49.926915,109.22079 93.758814,129.52583 72.108092,17.722445 117.95141,54.173199 c 15.91187,36.891394 53.12537,82.985771 93.16022,41.24244 20.78722,-30.171293 81.77434,-39.281469 61.78999,13.692691 -5.92076,61.53333 60.35814,19.49873 83.02106,-1.40157 37.21922,-24.681636 77.97758,38.90009 112.49071,5.82152 8.39528,-17.507403 16.50557,-94.214722 36.03481,-41.698 -5.36383,30.0263 32.31581,52.7537 37.58401,12.920889 C 552.21922,57.54946 516.59932,12.760533 535.14985,-0.96476573 557.34006,33.328664 576.0419,91.350902 554.5548,132.37191 c -28.01414,16.55504 -75.89955,-24.34466 -91.85435,22.00896 -8.05087,36.01948 -50.51548,44.47265 -51.26146,-0.36079 -4.72754,-13.37977 -7.00961,-33.21906 -22.80608,-38.12078 z"
       id="path25"
       transform="matrix(0.93163724,0,0,0.93044385,1816.0974,113.01295)"
       sodipodi:nodetypes="ssssssccsssssssssssssssss"
       inkscape:path-effect="#path-effect2"
       inkscape:original-d="m 388.63291,115.8993 c -27.70411,-5.54081 -43.06296,66.39502 -83.67815,66.72504 -24.05401,-1.99474 -23.86797,-42.12718 -57.98452,-43.75831 -46.28712,-2.21302 -94.9712,56.92763 -125.6027,38.9764 -27.95748,-16.38421 40.20515,-47.46567 18.78173,-68.88904 C 115.01889,83.822988 68.843599,143.35684 42.520352,135.47024 3.3386563,123.73112 25.011279,19.325208 29.518398,-0.55242717 H 40.616307 C 31.807154,49.411658 29.96106,89.298887 45.733281,105.57826 c 11.066674,11.42252 23.359128,9.11693 29.797926,-5.588942 7.136097,-14.855219 7.245442,-52.547864 26.391833,-54.137863 25.51522,0 30.908,52.022883 58.73257,64.385645 39.0188,15.0216 78.23337,-54.861 107.27157,-39.881469 14.61944,7.73398 3.61443,37.549469 3.30368,51.730779 0.16206,13.56267 10.66079,22.14074 25.25466,20.63451 25.00359,-2.58059 52.74586,-41.17002 79.80769,-40.96632 22.24701,0.16747 45.84997,21.59206 70.06795,21.71583 42.90579,0.21936 23.2848,-63.460183 43.32291,-71.078661 20.84762,-7.926243 10.39336,55.883961 32.83277,55.883961 39.39786,-7.60355 9.61763,-83.717038 3.94626,-107.91682072 4.63564,-1.53602478 13.38592,-2.88692198 15.42936,2.67944022 10.71655,34.0988295 33.953,89.4886715 15.70201,124.9809605 -15.08337,26.8614 -48.78275,-6.82692 -74.00413,4.02296 -23.8761,10.27124 -29.16655,56.3354 -51.33405,56.3354 -22.43641,0 -18.53525,-67.46077 -43.62338,-72.47837 z" /><path
       style="fill:#8bb1ac;fill-opacity:1;stroke:#c2d6d3;stroke-width:5.29167;stroke-linecap:butt;stroke-linejoin:miter;stroke-dasharray:none;stroke-opacity:1"
       d="m 1857.3309,111.55912 c 0,0 -21.6104,95.60176 12.2394,103.28482 24.0534,5.45953 15.0881,-59.71705 39.6049,-62.43025 29.0025,-3.20962 33.3548,55.79044 61.904,61.81725 34.1832,7.21616 67.5349,-55.2146 97.7707,-37.72994 18.6442,10.78141 -8.9993,53.31005 9.8101,63.80091 26.6929,14.88772 54.037,-32.91182 84.4867,-35.65412 27.4306,-2.47041 55.8167,29.92808 80.6356,18.00263 21.626,-10.3912 7.5877,-63.9152 31.5759,-64.61926 20.1929,-0.59268 10.2587,58.10876 29.7326,52.74245 31.9316,-8.79921 -2.55,-99.21449 -2.55,-99.21449"
       id="path19"
       sodipodi:nodetypes="caaaaaaaaac" /><path
       style="fill:#9abcb8;fill-opacity:1;stroke:#3c5b57;stroke-width:5.29167;stroke-linecap:butt;stroke-linejoin:miter;stroke-dasharray:none;stroke-opacity:1"
       d="m 1916.8303,111.55912 c 0,0 25.2058,5.40825 30.5698,15.48335 4.4815,8.41798 -10.7893,22.17429 -3.544,28.38203 14.0231,12.0149 36.8617,-23.51113 53.3199,-15.12535 10.134,5.16348 1.0826,27.98576 11.7206,32.01332 28.6088,10.83143 50.4398,-47.78585 80.7455,-43.59009 30.6035,4.23694 37.0723,73.9889 66.4746,64.51027 20.8745,-6.72947 -8.8546,-56.48908 11.4758,-64.71364 27.2626,-11.02887 48.0336,69.30447 71.521,51.62028 13.9587,-10.50981 -24.7286,-33.21216 -17.8324,-49.25486 6.6123,-15.38244 46.0604,-20.1477 46.0604,-20.1477"
       id="path17"
       sodipodi:nodetypes="caaaaaaaaac" /><path
       style="fill:#95b9b4;fill-opacity:1;stroke:none;stroke-width:26.8517;stroke-linecap:round;stroke-linejoin:round;stroke-miterlimit:4.7;stroke-dasharray:none;stroke-opacity:1;filter:url(#filter25)"
       d="M 284.71885,134.6013 C 264.86203,116.62444 295.90827,81.668051 272.03317,65.261333 239.36918,52.219121 216.29382,90.191515 189.16428,101.47889 166.13085,116.40911 145.55218,93.091214 137.76189,73.130674 130.61758,53.913837 106.45903,26.059778 86.477465,47.580779 72.946628,62.038929 78.039577,121.23186 48.734859,99.724931 33.292429,68.677313 42.656197,32.11676 47.196995,-0.55242717 71.291475,4.0090612 97.175762,-4.6815226 119.77494,5.2207146 c 37.35141,0.2013486 -6.70231,51.6021724 30.23596,45.0945644 16.37341,-8.858581 51.60827,-35.544701 47.57241,2.803507 8.81658,31.322592 45.22567,4.786879 57.76492,-11.288104 16.19839,-24.8851 52.83444,-28.832464 63.75621,2.749277 11.0801,18.376263 22.36131,52.617882 50.05296,43.495806 21.7663,-17.256004 -12.45872,-56.266884 13.42807,-69.022812 24.23388,7.564109 31.98611,36.356823 49.9922,52.263894 C 456.63215,93.41482 470.20279,54.477008 446.62838,41.853124 419.18495,14.08742 469.03971,0.01833266 490.62589,0.31951293 510.20896,-4.2813655 526.19408,-1.8972793 525.95507,21.539154 c 3.87932,25.129918 20.44442,58.49164 1.52562,79.966756 -26.43974,-1.910789 -5.54004,-59.311323 -38.58945,-55.394171 -24.05215,11.933036 -11.21752,45.297755 -25.87627,64.245811 -22.31994,19.65882 -49.36099,-8.29689 -72.66239,-12.615345 -38.96584,-12.430946 -61.85108,31.796705 -96.04639,38.795775 0,0 -4.85042,-0.32601 -4.85042,-0.32601 z"
       id="path24"
       transform="matrix(0.93163724,0,0,0.93044385,1816.0974,113.01295)"
       sodipodi:nodetypes="sssssscssssssssssscsssss"
       inkscape:path-effect="#path-effect3"
       inkscape:original-d="m 284.71885,134.6013 c -16.14036,-7.95445 2.63853,-46.786321 -5.57918,-62.250578 -4.13226,-7.776171 -14.93136,-11.94509 -25.66795,-9.908937 -23.16438,4.393035 -49.44059,36.1855 -73.38539,42.494095 -41.46684,10.92497 -40.63038,-65.161124 -77.88666,-65.161124 -28.520638,0 -22.153471,48.358631 -36.782666,64.357764 -6.428433,7.03042 -38.658986,4.45556 -18.220009,-104.68494717 19.753998,1.85187057 39.06815,1.54829597 60.153835,0.74075236 9.41737,5.69313721 25.30402,6.19252731 30.59976,17.02356681 2.64343,7.516617 -14.11303,25.413319 -0.41834,32.495118 15.83671,8.189474 35.52284,-18.218661 51.33689,-18.218661 17.2592,0 -3.73964,36.460193 26.3655,36.460193 26.23169,0 49.75204,-47.763703 74.57932,-47.763703 31.75605,0 37.72159,67.106399 67.96769,69.614639 39.34135,3.262493 0.95632,-61.531882 21.12261,-69.95791 19.42772,-8.117418 42.30499,48.725267 60.79875,56.452461 10.05768,4.202366 20.46883,-1.032814 20.46883,-10.29262 0,-18.230715 -38.03813,-37.63698 -15.01331,-52.790685 22.25552,-13.35023532 48.93834,-13.37142673 74.10932,-14.3155783 1.59479,4.8567999 34.74016,106.9027343 2.99805,103.0861643 -11.97099,-1.43936 -7.84084,-54.560746 -26.73873,-56.229598 -39.83629,-3.517899 -5.17004,83.975948 -58.61716,70.336458 -19.6138,-5.0053 -40.33233,-21.516832 -63.48808,-20.301466 -33.88902,1.778718 -63.74444,51.114926 -88.70308,38.814596 z" /></g></svg>
