<?xml version="1.0" encoding="UTF-8" standalone="no"?>
<!-- Created with Inkscape (http://www.inkscape.org/) -->

<svg
   width="1321.7526"
   height="926.03345"
   viewBox="0 0 349.71369 245.01301"
   version="1.1"
   id="svg1"
   sodipodi:docname="MainPage_MyPhotosDecorElement.svg"
   xml:space="preserve"
   inkscape:version="1.3 (0e150ed6c4, 2023-07-21)"
   xmlns:inkscape="http://www.inkscape.org/namespaces/inkscape"
   xmlns:sodipodi="http://sodipodi.sourceforge.net/DTD/sodipodi-0.dtd"
   xmlns="http://www.w3.org/2000/svg"
   xmlns:svg="http://www.w3.org/2000/svg"><sodipodi:namedview
     id="namedview1"
     pagecolor="#505050"
     bordercolor="#000000"
     borderopacity="1"
     inkscape:showpageshadow="0"
     inkscape:pageopacity="0"
     inkscape:pagecheckerboard="0"
     inkscape:deskcolor="#747474"
     inkscape:document-units="mm"
     inkscape:zoom="0.45254834"
     inkscape:cx="360.18252"
     inkscape:cy="787.76115"
     inkscape:window-width="1920"
     inkscape:window-height="1009"
     inkscape:window-x="-8"
     inkscape:window-y="-8"
     inkscape:window-maximized="1"
     inkscape:current-layer="layer1"
     showguides="false" /><defs
     id="defs1"><filter
       inkscape:collect="always"
       style="color-interpolation-filters:sRGB"
       id="filter9"
       x="-0.067946377"
       y="-0.10296069"
       width="1.1358928"
       height="1.2059214"><feGaussianBlur
         inkscape:collect="always"
         stdDeviation="32.943361"
         id="feGaussianBlur9" /></filter><filter
       inkscape:collect="always"
       style="color-interpolation-filters:sRGB"
       id="filter10"
       x="-0.069363683"
       y="-0.10718291"
       width="1.1387274"
       height="1.2143658"><feGaussianBlur
         inkscape:collect="always"
         stdDeviation="26.933438"
         id="feGaussianBlur10" /></filter><filter
       inkscape:collect="always"
       style="color-interpolation-filters:sRGB"
       id="filter4"
       x="-0.14616283"
       y="-0.21967554"
       width="1.2923257"
       height="1.4393511"><feGaussianBlur
         inkscape:collect="always"
         stdDeviation="19.030646"
         id="feGaussianBlur4" /></filter><filter
       inkscape:collect="always"
       style="color-interpolation-filters:sRGB"
       id="filter6"
       x="-0.077109013"
       y="-0.11246587"
       width="1.154218"
       height="1.2249317"><feGaussianBlur
         inkscape:collect="always"
         stdDeviation="4.2798848"
         id="feGaussianBlur6" /></filter></defs><g
     inkscape:label="Слой 1"
     inkscape:groupmode="layer"
     id="layer1"
     transform="translate(-1987.2026,-2547.742)"><path
       style="mix-blend-mode:normal;fill:#3e655e;fill-opacity:1;stroke:none;stroke-width:4.71858;stroke-linecap:butt;stroke-linejoin:miter;stroke-dasharray:none;stroke-opacity:1;filter:url(#filter4)"
       d="m 2219.4887,2602.0951 c -21.1502,2.713 -34.9057,-33.6159 -56.0474,-30.837 -11.457,1.5059 -13.948,20.6937 -25.0227,23.9923 -29.7956,8.8746 -71.7659,-41.0775 -91.6688,-17.1943 -8.515,10.2179 19.3825,24.9546 14.3073,37.249 -7.5654,18.3267 -48.6377,5.3068 -54.2848,24.3124 -5.5471,18.6689 30.3273,29.6921 31.631,49.124 1.399,20.8521 -37.7504,39.1019 -26.597,56.7759 12.5739,19.925 49.194,-9.1847 70.6807,0.4813 6.9243,3.115 8.0982,14.3255 15.226,16.9412 10.3984,3.816 21.9362,-5.8628 32.926,-4.48 17.4031,2.1898 31.6284,23.5655 48.7577,19.7903 14.4593,-3.1867 17.0292,-25.9385 30.3224,-32.4594 22.6747,-11.1229 62.5497,14.7047 75.4427,-7.0124 8.2957,-13.9733 -24.4286,-29.3633 -19.2801,-44.7765 6.4208,-19.2221 51.7325,-9.9412 52.7787,-30.1803 0.8306,-16.0682 -36.7491,-12.2528 -39.2082,-28.1535 -1.8729,-12.1105 25.5104,-17.7238 21.9899,-29.4617 -3.3007,-11.0052 -23.2964,-4.7282 -32.4162,-11.7168 -7.6343,-5.8502 -6.959,-22.6786 -16.5278,-23.6519 -15.0756,-1.5335 -17.979,29.3295 -33.0094,31.2574 z"
       id="path1"
       sodipodi:nodetypes="aaaaaaaaaaaaaaaaaaaaa"
       transform="matrix(0.86604875,0,0,0.81685026,289.27607,487.71697)" /><path
       style="fill:#6c9d96;fill-opacity:1;stroke:#56817b;stroke-width:3.96875;stroke-linecap:butt;stroke-linejoin:miter;stroke-dasharray:none;stroke-opacity:1"
       d="m 2219.0967,2597.7267 c -21.1502,2.713 -34.9057,-33.6159 -56.0474,-30.837 -11.457,1.5059 -13.948,20.6937 -25.0227,23.9923 -29.7956,8.8746 -71.7659,-41.0775 -91.6688,-17.1943 -8.515,10.2179 19.3825,24.9546 14.3073,37.249 -7.5654,18.3267 -48.6377,5.3068 -54.2848,24.3124 -5.5471,18.6689 30.3273,29.6921 31.631,49.124 1.399,20.8521 -37.7504,39.1019 -26.597,56.7759 12.5739,19.925 49.194,-9.1847 70.6807,0.4813 6.9243,3.115 8.0982,14.3255 15.226,16.9412 10.3984,3.816 21.9362,-5.8628 32.926,-4.48 17.4031,2.1898 31.6284,23.5655 48.7577,19.7903 14.4593,-3.1867 17.0292,-25.9385 30.3224,-32.4594 22.6747,-11.1229 62.5497,14.7047 75.4427,-7.0124 8.2957,-13.9733 -24.4286,-29.3633 -19.2801,-44.7765 6.4208,-19.2221 51.7325,-9.9412 52.7787,-30.1803 0.8306,-16.0682 -36.7491,-12.2528 -39.2082,-28.1535 -1.8729,-12.1105 25.5104,-17.7238 21.9899,-29.4617 -3.3007,-11.0052 -23.2964,-4.7282 -32.4162,-11.7168 -7.6343,-5.8502 -6.959,-22.6786 -16.5278,-23.6519 -15.0756,-1.5335 -17.979,29.3295 -33.0094,31.2574 z"
       id="path4"
       sodipodi:nodetypes="aaaaaaaaaaaaaaaaaaaaa" /><path
       style="opacity:1;fill:#82aca6;fill-opacity:1;stroke:none;stroke-width:15;stroke-linecap:round;stroke-linejoin:round;stroke-miterlimit:4.7;stroke-dasharray:none;stroke-opacity:1;filter:url(#filter9)"
       d="m 754.97426,858.59893 c -13.97578,-5.15868 -23.5448,-10.57147 -58.91602,-33.3263 -49.3251,-31.73155 -67.7527,-38.66864 -98.11487,-36.93539 -13.41468,0.76578 -26.46952,3.45733 -44.41134,9.15639 -48.34631,15.35684 -65.71342,12.94244 -80.80364,-11.2334 -24.01734,-38.47788 -31.09314,-44.9031 -55.87248,-50.73549 -26.07045,-6.13629 -54.39775,-2.80869 -115.48115,13.56553 -66.49911,17.82599 -90.67478,19.94844 -111.63673,9.80092 -11.55392,-5.59314 -22.11659,-18.8181 -24.29217,-30.41491 -3.69261,-19.68334 6.53339,-38.08511 48.42483,-87.14082 34.34212,-40.2153 44.37033,-54.33996 52.01166,-73.25796 16.15443,-39.99433 3.76068,-72.474 -44.50032,-116.61965 -40.34444,-36.90417 -57.77962,-55.43247 -64.10324,-68.12232 -13.8009,-27.6948 -3.00339,-52.11699 28.20421,-63.79327 6.8107,-2.54819 27.52535,-6.6898 46.03257,-9.20358 86.18169,-11.70574 107.14316,-19.55847 122.59676,-45.92805 4.62539,-7.89263 5.97135,-13.01832 5.88639,-22.41662 -0.1498,-16.57306 -6.20029,-28.2557 -31.38127,-60.59286 -22.9199,-29.43351 -29.41602,-40.42821 -29.69555,-50.25985 -0.42863,-15.07521 21.11453,-30.97885 43.93227,-32.431776 29.23169,-1.861333 48.74132,4.771636 126.70893,43.079026 85.01902,41.77193 103.97954,48.12863 143.63106,48.15375 21.90951,0.0139 26.99942,-0.69658 36.93254,-5.15514 14.03793,-6.30102 27.44231,-20.24304 43.71622,-45.46967 22.07757,-34.22302 33.07458,-43.270473 52.41521,-43.123024 22.93888,0.174881 44.89474,13.369204 84.71144,50.907164 37.55594,35.4066 52.88202,47.60769 71.21133,56.69139 13.27958,6.58113 19.15382,8.1503 33.65309,8.98965 15.72659,0.9104 18.83136,0.39745 29.65902,-4.90003 16.24107,-7.94602 28.97249,-22.68554 49.44769,-57.24703 28.174,-47.55683 44.4706,-61.458842 62.9794,-53.725365 8.7913,3.673225 14.1349,11.699655 23.4685,35.251125 19.9831,50.42318 32.1929,60.56214 79.2953,65.84633 49.0485,5.50251 62.2352,9.88297 68.5526,22.77239 6.2774,12.80773 -1.1765,22.89501 -35.9994,48.71733 -25.6455,19.01695 -39.644,32.7776 -43.4783,42.73945 -4.1029,10.65955 -2.6588,26.42249 3.3616,36.6956 10.2027,17.40952 25.3046,25.88572 77.1496,43.30132 19.2117,6.4535 40.0934,14.80883 46.4039,18.56741 28.2347,16.8167 23.1945,45.77323 -10.6407,61.13291 -7.3015,3.31457 -24.703,8.71284 -38.6699,11.99614 -13.9669,3.28331 -37.068,8.81892 -51.3359,12.30136 -55.667,13.58701 -81.6713,35.47216 -81.6713,68.7344 0,19.54799 10.1306,38.34879 40.0789,74.38014 44.0289,52.97205 48.0256,66.38412 26.316,88.31079 -20.9987,21.20852 -50.4798,23.58225 -130.0345,10.47002 -121.16703,-19.97082 -152.3827,-10.42525 -194.45438,59.46293 -20.4498,33.97058 -33.02489,49.94677 -45.31213,57.56737 -14.02936,8.70108 -37.7721,10.16091 -55.97573,3.44167 z m -3.24889,-68.24159 c 18.14945,-9.33625 25.90742,-25.13566 35.08322,-71.4482 7.32794,-36.98603 12.3859,-50.62186 21.86416,-58.94389 10.79107,-9.47467 21.15188,-12.20868 40.77007,-10.75834 22.07331,1.63185 40.42497,8.23841 92.95781,33.46478 63.44077,30.46435 87.00807,37.32121 110.93107,32.27509 22.1058,-4.66279 41.3836,-24.41845 41.5304,-42.56002 0.098,-12.1272 -9.0873,-29.91732 -28.8713,-55.9169 -21.2614,-27.94115 -32.9473,-48.92209 -32.9502,-59.15888 0,-8.93935 7.4773,-22.22377 16.8747,-29.96988 12.8899,-10.62501 30.0233,-18.75342 70.2754,-33.34011 48.3626,-17.52581 63.8274,-25.0407 75.4509,-36.66417 11.9874,-11.98747 15.7202,-24.04382 12.1926,-39.38127 -3.1988,-13.90824 -9.4382,-22.44401 -20.8543,-28.52959 -7.9763,-4.25193 -12.45,-4.88578 -33.512,-4.7482 -20.7925,0.13589 -31.0159,1.69707 -70.7106,10.7984 -82.3426,18.87973 -111.59033,15.6517 -111.59033,-12.31605 0,-16.54613 17.47572,-28.11954 79.75553,-52.8186 42.5468,-16.87327 57.3127,-24.7918 68.1462,-36.54487 10.9765,-11.908 14.6935,-23.38186 11.4622,-35.38201 -3.5653,-13.2403 -14.3703,-28.74663 -24.8602,-35.67696 -8.8747,-5.86318 -10.6406,-6.17998 -33.8162,-6.06681 -24.0536,0.11747 -24.9573,0.31092 -55.3885,11.85688 -73.24862,27.79144 -80.10689,29.80971 -101.6466,29.9129 -29.05769,0.13921 -38.21678,-5.99601 -70.63144,-47.31247 -36.23854,-46.19044 -57.10806,-58.38859 -85.68335,-50.08153 -16.28081,4.73296 -27.70889,15.37929 -46.10348,42.94972 -24.9602,37.41118 -30.52575,44.30394 -40.48646,50.1413 -28.32102,16.59723 -61.99817,6.04667 -137.16517,-42.97183 -64.82825,-42.27632 -94.40735,-52.87289 -121.05316,-43.36675 -20.5234,7.32193 -32.52159,20.95697 -32.52159,36.9584 0,15.92981 2.98324,22.54022 30.67511,67.97135 17.72566,29.08066 19.34916,41.08394 7.19991,53.23317 -10.27125,10.27127 -25.31831,12.27902 -66.13897,8.825 -44.72306,-3.78422 -67.48156,-3.49594 -80.00354,1.01337 -29.84511,10.74758 -39.46284,45.56338 -21.77883,78.83852 5.49376,10.33735 18.25419,25.09791 49.39195,57.13392 44.42625,45.70782 55.02166,60.42024 57.72698,80.15771 3.09229,22.56073 -8.08062,35.77202 -55.72152,65.8873 -17.64887,11.1564 -36.48334,24.67885 -41.85437,30.04988 -16.43663,16.43663 -18.2412,33.49684 -5.41593,51.20162 10.91804,15.07191 21.75065,20.78169 41.51673,21.8831 23.82866,1.32779 38.53229,-2.67351 99.73578,-27.14104 64.72584,-25.87566 82.29494,-30.63226 108.51407,-29.37871 32.12461,1.5359 52.19707,13.88108 107.06719,65.8496 43.90245,41.58084 61.59459,54.57316 84.71221,62.20894 16.75651,5.5347 41.91656,4.55719 54.92385,-2.13387 z"
       id="path8"
       transform="matrix(0.26458333,0,0,0.26458333,1968.0702,2543.5518)" /><path
       style="fill:#8bb1ac;fill-opacity:1;stroke:#c2d6d3;stroke-width:3.96875;stroke-linecap:butt;stroke-linejoin:miter;stroke-dasharray:none;stroke-opacity:1"
       d="m 2222.9244,2647.3078 c 6.2164,19.9207 56.8899,-13.4372 62.449,6.6754 5.0792,18.3758 -40.535,16.0464 -45.8763,34.3483 -3.7595,12.8818 22.7592,27.2698 14.2436,37.6608 -15.152,18.489 -49.647,-22.2532 -70.958,-11.3508 -12.2049,6.2437 -5.2407,32.7699 -18.3827,36.6945 -21.8493,6.525 -36.8419,-29.6899 -59.1973,-34.2019 -22.6289,-4.5671 -57.8577,28.9593 -68.7181,8.6571 -6.866,-12.8355 27.2536,-18.423 28.7795,-32.8884 2.1383,-20.2721 -38.3042,-34.8849 -29.8337,-53.4391 6.6042,-14.4661 38.3807,3.5902 46.8034,-9.9054 6.6117,-10.594 -18.3054,-27.661 -9.2482,-36.2741 17.7004,-16.8325 46.3861,26.8066 70.2212,21.2994 12.7957,-2.9565 15.6727,-26.369 28.8007,-26.7991 13.671,-0.4478 18.804,21.5326 31.7665,25.8847 19.2678,6.4692 51.6411,-26.2643 60.958,-2.1553 6.6026,17.0852 -47.2632,18.3115 -41.8076,35.7939 z"
       id="path3"
       sodipodi:nodetypes="aaaaaaaaaaaaaaasa" /><path
       style="fill:#85ada8;fill-opacity:1;stroke:#4c736d;stroke-width:3.96875;stroke-linecap:butt;stroke-linejoin:miter;stroke-dasharray:none;stroke-opacity:1"
       d="m 2111.4536,2656.4477 c 5.8724,-7.3856 -5.6071,-24.0482 2.8984,-28.1711 14.8013,-7.1746 25.525,29.3502 41.7041,26.3626 9.4125,-1.7381 7.622,-22.2059 17.1621,-22.9861 9.0495,-0.7401 18.8887,9.825 19.6165,18.8684 0.6073,7.5459 -16.7452,11.255 -13.6396,18.1591 3.2856,7.3044 17.6721,-3.0267 23.9488,1.9485 6.2357,4.9427 12.0513,16.3234 7.3162,22.7221 -10.2766,13.8873 -36.3793,-8.324 -51.8784,-0.6638 -8.1662,4.0359 -7.3113,20.3918 -16.2951,21.9128 -7.3964,1.2521 -15.7484,-5.6913 -18.6229,-12.6165 -4.0469,-9.7494 14.8113,-25.3973 5.9329,-31.1072 -11.0636,-7.1154 -19.4751,26.1221 -32.2047,22.8069 -9.9672,-2.5958 -17.3029,-18.3989 -13.3021,-27.8892 3.7398,-8.8711 21.3615,-1.7974 27.3638,-9.3465 z"
       id="path5"
       sodipodi:nodetypes="aaaaaaaaaaaaaaa" /><path
       style="color:#000000;mix-blend-mode:normal;fill:#46746e;stroke-width:1.03761;-inkscape-stroke:none;filter:url(#filter6);fill-opacity:1"
       d="m 2116.7715,2625.5779 c -1.0909,0.1451 -2.1903,0.4674 -3.2852,0.9981 -2.7561,1.336 -4.0762,4.0368 -4.3262,6.7031 -0.25,2.6664 0.265,5.4882 0.8067,8.3184 0.5417,2.8302 1.1315,5.6636 1.2383,8.0859 0.1068,2.4223 -0.2589,4.2999 -1.3047,5.6152 -1.1123,1.3989 -2.8274,2.204 -5.1367,2.6895 -2.3094,0.4855 -5.1088,0.5971 -7.9415,0.7402 -2.8326,0.1431 -5.6996,0.3068 -8.3085,1.1133 -2.609,0.8065 -5.0637,2.4488 -6.252,5.2676 -2.3222,5.5085 -1.3146,12.3013 1.4473,18.1484 2.7618,5.8471 7.3644,10.9162 13.1836,12.4317 4.0165,1.046 7.7048,-0.8715 10.6914,-3.627 2.9866,-2.7555 5.609,-6.4611 8.1425,-9.957 2.5336,-3.496 5.0005,-6.7807 7.211,-8.5742 1.1052,-0.8968 2.1058,-1.3966 2.9512,-1.5391 0.8453,-0.1425 1.5955,-0.03 2.6347,0.6387 0.802,0.5158 1.1285,0.9841 1.3242,1.5527 0.1958,0.5686 0.2344,1.3254 0.049,2.3106 -0.3711,1.9703 -1.6715,4.6802 -3.2071,7.5761 -1.5355,2.896 -3.2825,6.0011 -4.4238,9.1524 -1.1413,3.1512 -1.7285,6.4924 -0.4355,9.6074 1.6081,3.8742 4.6152,7.5596 8.2851,10.2207 3.67,2.6611 8.0874,4.3391 12.502,3.5918 2.8282,-0.4788 4.9616,-2.215 6.4648,-4.291 1.5032,-2.0761 2.5229,-4.5205 3.4981,-6.9375 1.9504,-4.8341 3.7769,-9.3273 6.8808,-10.8613 6.6699,-3.2965 16.641,-0.089 26.459,2.791 4.909,1.44 9.7473,2.7452 14.2734,2.7558 4.5261,0.011 8.9028,-1.4844 11.8614,-5.4824 2.9332,-3.9638 2.4943,-9.1744 0.7129,-13.8008 -1.7815,-4.6264 -4.9271,-8.9109 -8.3907,-11.6562 -2.1203,-1.6807 -4.7659,-1.9723 -7.2949,-1.8008 -2.529,0.1715 -5.09,0.7984 -7.459,1.3164 -2.369,0.518 -4.5556,0.903 -6.041,0.7969 -1.4854,-0.1062 -2.0508,-0.3472 -2.5781,-1.5196 v 0 c -0.4655,-1.0349 -0.2872,-1.4962 0.6308,-2.6133 0.9181,-1.1171 2.664,-2.4315 4.5879,-3.7891 1.924,-1.3575 4.02,-2.778 5.7149,-4.5 1.6949,-1.722 3.0885,-3.9489 2.875,-6.6015 -0.4163,-5.1729 -3.294,-10.381 -7.2637,-14.3477 -3.9697,-3.9667 -9.1446,-6.7752 -14.4922,-6.3379 -3.0925,0.2529 -5.3825,2.2328 -6.8906,4.5801 -1.5082,2.3474 -2.4844,5.1473 -3.4473,7.8692 -0.9628,2.7218 -1.9066,5.3665 -3.0527,7.2773 -1.1461,1.9108 -2.3125,2.979 -3.9707,3.2852 -3.2963,0.6086 -6.3569,-0.7448 -9.6387,-3.4473 -3.2818,-2.7025 -6.5606,-6.6825 -9.8457,-10.6231 -3.2851,-3.9405 -6.5632,-7.849 -10.2265,-10.4472 -2.7476,-1.9487 -5.9403,-3.1129 -9.2129,-2.6778 z m 0.6191,3.8614 c 2.1007,-0.3289 4.037,0.4504 6.2988,2.0547 3.0158,2.1389 6.2044,5.8296 9.4727,9.75 3.2683,3.9203 6.6293,8.0631 10.3711,11.1445 3.7418,3.0814 8.0895,5.1722 12.8828,4.2871 3.0481,-0.5629 5.1887,-2.7044 6.6523,-5.1445 1.4636,-2.4402 2.432,-5.2862 3.3907,-7.9961 0.9586,-2.7099 1.9115,-5.2828 3.0449,-7.0469 1.1334,-1.7641 2.1975,-2.6343 3.875,-2.7715 3.7019,-0.3027 7.971,1.7997 11.3652,5.1914 3.3943,3.3917 5.8018,7.9869 6.1133,11.8574 0.09,1.1203 -0.4572,2.1886 -1.748,3.5 -1.2909,1.3115 -3.2258,2.6651 -5.1758,4.0411 -1.9501,1.3759 -3.9222,2.7538 -5.3653,4.5097 -1.443,1.756 -2.2708,4.3465 -1.1836,6.7637 1.1155,2.4798 3.5819,3.6849 5.9141,3.8516 2.3323,0.1666 4.749,-0.3491 7.1719,-0.8789 2.4229,-0.5299 4.8424,-1.0964 6.8789,-1.2344 2.0364,-0.1381 3.5425,0.1442 4.5605,0.9511 2.7722,2.1974 5.6528,6.0734 7.1543,9.9727 1.5015,3.8993 1.6027,7.5788 -0.1992,10.0137 -2.1797,2.9456 -4.9193,3.8838 -8.6621,3.875 -3.7428,-0.01 -8.3274,-1.1764 -13.166,-2.5957 -9.6773,-2.8388 -20.5048,-6.9047 -29.334,-2.541 -5.0623,2.5018 -6.8931,8.2024 -8.8027,12.9355 -0.9548,2.3665 -1.9149,4.5492 -3.0332,6.0938 -1.1184,1.5445 -2.2484,2.4234 -3.9121,2.705 -2.9819,0.5048 -6.438,-0.6618 -9.5118,-2.8906 -3.0737,-2.2288 -5.6808,-5.4783 -6.9472,-8.5293 -0.7305,-1.7597 -0.4771,-4.0312 0.5019,-6.7344 0.979,-2.7031 2.6339,-5.6961 4.1973,-8.6445 1.5633,-2.9484 3.0602,-5.827 3.6016,-8.7012 0.2706,-1.4371 0.2928,-2.9178 -0.1954,-4.3359 -0.4881,-1.4181 -1.514,-2.6879 -2.9316,-3.5996 -1.7266,-1.1105 -3.6594,-1.5152 -5.4414,-1.2149 -1.782,0.3004 -3.353,1.2043 -4.791,2.3711 -2.8762,2.3337 -5.3823,5.8166 -7.9258,9.3262 -2.5435,3.5096 -5.1027,7.0474 -7.6191,9.3691 -2.5165,2.3218 -4.6518,3.3167 -7,2.7051 -4.1481,-1.0803 -8.1981,-5.2111 -10.5957,-10.2871 -2.3977,-5.076 -3.0575,-10.9303 -1.3789,-14.9121 0.6815,-1.6168 1.833,-2.4176 3.7675,-3.0156 1.9346,-0.5981 4.5474,-0.8004 7.3379,-0.9414 2.7906,-0.141 5.7569,-0.2317 8.5567,-0.8203 2.7997,-0.5886 5.5368,-1.7298 7.4257,-4.1055 1.8904,-2.3774 2.2923,-5.3518 2.1641,-8.2598 -0.1282,-2.9079 -0.7757,-5.8822 -1.3066,-8.6562 -0.531,-2.774 -0.9253,-5.3529 -0.752,-7.2012 0.1733,-1.8482 0.6089,-2.7765 2.1055,-3.5019 0.7552,-0.3661 1.4736,-0.5994 2.1738,-0.709 z"
       id="path2"
       transform="matrix(0.96375756,0,0,0.96375756,77.833368,96.809157)" /><path
       style="opacity:1;mix-blend-mode:normal;fill:#a4c3bf;fill-opacity:1;stroke:none;stroke-width:15;stroke-linecap:round;stroke-linejoin:round;stroke-miterlimit:4.7;stroke-dasharray:none;stroke-opacity:1;filter:url(#filter10)"
       d="m 693.84853,772.70501 c -18.80752,-9.14041 -35.31534,-22.13534 -70.71068,-55.66327 -61.62908,-58.37763 -88.31129,-72.71356 -130.29949,-70.00783 -26.04245,1.67818 -42.15647,6.43608 -97.70047,28.84761 -57.84184,23.33868 -73.33302,28.1678 -91.30294,28.46218 -16.05665,0.26304 -25.47259,-3.45208 -32.99854,-13.01976 -14.10238,-17.92828 -6.6259,-29.38995 36.71159,-56.27994 45.43622,-28.19223 58.6972,-40.43691 66.01666,-60.95724 3.92955,-11.01664 3.89039,-16.92228 -0.21746,-32.7963 -5.55459,-21.46471 -15.44698,-34.95076 -57.35886,-78.196 -47.1876,-48.68876 -54.76364,-59.33061 -55.83433,-78.42874 -0.88544,-15.79409 3.72202,-25.21223 15.40943,-31.49847 8.86701,-4.76926 37.51899,-5.23316 79.0948,-1.28063 45.69413,4.34405 68.93369,-1.47115 82.37137,-20.61166 5.18,-7.37834 6.33265,-11.31947 6.33265,-21.65245 0,-14.95562 -5.60461,-27.95142 -27.62279,-64.05082 -18.00756,-29.52388 -21.21516,-39.49203 -15.27019,-47.45466 8.95067,-11.98845 15.16313,-14.71121 33.56628,-14.71121 16.03283,0 18.53696,0.68549 37.94753,10.38788 11.43006,5.71333 34.70311,19.51462 51.71787,30.66954 63.85134,41.86112 89.91307,53.34267 121.53398,53.5421 31.14732,0.19645 46.65095,-10.82045 73.17249,-51.99649 19.50377,-30.28062 28.26776,-40.73943 38.52075,-45.97011 22.55681,-11.50763 39.43342,-1.92329 73.84305,41.93599 22.54599,28.73761 35.37304,40.74957 51.62036,48.34017 10.85334,5.07057 15.21592,5.82416 32.42781,5.60157 22.04392,-0.28508 40.75056,-5.46387 91.0276,-25.20029 14.8204,-5.81778 32.719,-12.30577 39.7748,-14.41775 17.2218,-5.15498 39.4435,-5.28549 48.7459,-0.2863 8.7424,4.69829 17.9533,18.05928 19.6476,28.50035 1.0547,6.49891 0.1213,8.98604 -5.9795,15.93455 -8.7204,9.93202 -25.8859,18.80218 -73.3678,37.91245 -51.69166,20.80456 -68.47833,31.346 -76.58538,48.09291 -11.62344,24.01084 1.74346,49.92558 29.32821,56.85925 16.77087,4.21551 46.21397,1.04305 95.34647,-10.27347 52.6645,-12.13004 81.7968,-14.78699 94.7479,-8.64128 14.4944,6.87802 18.776,23.04909 9.6608,36.4868 -6.9489,10.24412 -26.1681,20.08404 -70.9852,36.34332 -47.4499,17.2144 -67.5952,27.54265 -82.4435,42.26768 -8.8625,8.78901 -12.2858,14.21811 -15.1265,23.98977 -6.4543,22.20218 -0.5037,38.06826 28.6309,76.33883 36.3433,47.73965 38.5368,61.90081 11.6074,74.93714 -20.1278,9.74371 -39.8337,4.99909 -102.04524,-24.56957 -51.90833,-24.67162 -70.33116,-32.13657 -89.15838,-36.12704 -39.48471,-8.36887 -69.31138,2.54797 -83.50865,30.56494 -3.343,6.5971 -8.80711,26.15676 -13.3569,47.81334 -11.94089,56.83742 -17.62507,64.87508 -46.69708,66.03127 -15.02627,0.59759 -18.49885,-0.065 -30.23432,-5.76836 z m -25.28789,-92.17873 c 9.90129,-5.12016 21.35655,-20.42139 28.71733,-38.35882 18.22573,-44.41419 24.39148,-52.99906 42.34799,-58.96327 16.82697,-5.58901 44.28817,-3.22909 80.17596,6.8901 62.81429,17.71159 70.24934,19.31628 90.59806,19.55347 24.46645,0.28523 36.3191,-3.78908 49.17795,-16.9047 15.4566,-15.76525 19.34759,-34.30152 12.62117,-60.12601 -9.28769,-35.65783 -37.41437,-65.28611 -61.94434,-65.25133 -12.73701,0.0177 -23.29066,3.43784 -52.88779,17.13775 -15.63006,7.23485 -30.73488,12.691 -36.7914,13.28978 -9.12873,0.90251 -10.68534,0.3894 -13.95449,-4.59995 -6.82657,-10.41866 -0.17479,-18.10346 41.20293,-47.60156 34.69877,-24.7367 44.32181,-40.37472 39.58766,-64.3323 -10.25989,-51.92112 -69.74625,-96.51105 -106.85453,-80.09629 -12.49479,5.52704 -21.32004,17.14823 -29.402,38.71683 -18.75084,50.04096 -24.29568,58.3737 -40.26938,60.51623 -19.52497,2.61884 -40.35768,-12.63814 -78.59127,-57.55689 -28.09687,-33.00961 -49.97964,-53.71834 -62.71806,-59.35315 -17.91647,-7.92531 -41.94999,-4.58297 -52.90983,7.35816 -10.82391,11.79303 -11.94666,25.54706 -5.11904,62.70906 11.0287,60.02802 5.10547,67.73 -56.21448,73.09551 -47.09493,4.12082 -58.97281,9.1803 -67.84173,28.89773 -13.96827,31.05434 -0.40689,84.39933 28.87311,113.57516 15.8097,15.75347 28.59166,21.97528 45.14549,21.97528 27.89465,0 43.25268,-15.03857 85.13176,-83.36092 23.96078,-39.0901 38.46069,-51.83018 52.34526,-45.99215 9.99432,4.20229 12.71058,8.80151 11.5066,19.48318 -1.16156,10.30526 -4.11804,16.84785 -27.68388,61.26329 -17.36249,32.72377 -23.86766,52.9337 -21.82803,67.81434 4.06149,29.63171 38.79581,65.43931 71.2552,73.45691 10.45669,2.58284 28.11386,1.01008 36.32378,-3.23544 z"
       id="path9"
       transform="matrix(0.26458333,0,0,0.26458333,1968.0702,2543.5518)" /></g></svg>
