<?xml version="1.0" encoding="UTF-8" standalone="no"?>
<!-- Created with Inkscape (http://www.inkscape.org/) -->

<svg
   width="3828.2524"
   height="1988.2611"
   viewBox="0 0 1012.8918 526.06074"
   version="1.1"
   id="svg1"
   sodipodi:docname="MainPage_titlePageSVG.svg"
   xml:space="preserve"
   inkscape:version="1.3 (0e150ed6c4, 2023-07-21)"
   xmlns:inkscape="http://www.inkscape.org/namespaces/inkscape"
   xmlns:sodipodi="http://sodipodi.sourceforge.net/DTD/sodipodi-0.dtd"
   xmlns="http://www.w3.org/2000/svg"
   xmlns:svg="http://www.w3.org/2000/svg"><sodipodi:namedview
     id="namedview1"
     pagecolor="#505050"
     bordercolor="#000000"
     borderopacity="1"
     inkscape:showpageshadow="0"
     inkscape:pageopacity="0"
     inkscape:pagecheckerboard="0"
     inkscape:deskcolor="#747474"
     inkscape:document-units="mm"
     inkscape:zoom="0.22627417"
     inkscape:cx="1789.864"
     inkscape:cy="1164.5165"
     inkscape:window-width="1920"
     inkscape:window-height="1009"
     inkscape:window-x="-8"
     inkscape:window-y="-8"
     inkscape:window-maximized="1"
     inkscape:current-layer="layer1" /><defs
     id="defs1"><inkscape:path-effect
       effect="spiro"
       id="path-effect5"
       is_visible="true"
       lpeversion="1" /><inkscape:path-effect
       effect="spiro"
       id="path-effect3"
       is_visible="true"
       lpeversion="1" /><filter
       inkscape:collect="always"
       style="color-interpolation-filters:sRGB"
       id="filter2"
       x="-0.1159718"
       y="-0.2538233"
       width="1.2319436"
       height="1.5076466"><feGaussianBlur
         inkscape:collect="always"
         stdDeviation="45.484672"
         id="feGaussianBlur2" /></filter><filter
       inkscape:collect="always"
       style="color-interpolation-filters:sRGB"
       id="filter3"
       x="-0.14218802"
       y="-0.39344068"
       width="1.284376"
       height="1.7868814"><feGaussianBlur
         inkscape:collect="always"
         stdDeviation="48.694925"
         id="feGaussianBlur3" /></filter><filter
       inkscape:collect="always"
       style="color-interpolation-filters:sRGB"
       id="filter3-6"
       x="-0.24977841"
       y="-0.69114813"
       width="1.4995568"
       height="2.3822963"><feGaussianBlur
         inkscape:collect="always"
         stdDeviation="85.541243"
         id="feGaussianBlur3-2" /></filter><inkscape:path-effect
       effect="spiro"
       id="path-effect5-1"
       is_visible="true"
       lpeversion="1" /><filter
       inkscape:collect="always"
       style="color-interpolation-filters:sRGB"
       id="filter2-5"
       x="-0.20877991"
       y="-0.45694906"
       width="1.4175598"
       height="1.9138981"><feGaussianBlur
         inkscape:collect="always"
         stdDeviation="81.884435"
         id="feGaussianBlur2-0" /></filter><filter
       inkscape:collect="always"
       style="color-interpolation-filters:sRGB"
       id="filter5"
       x="-0.31295628"
       y="-0.68495613"
       width="1.6259126"
       height="2.3699123"><feGaussianBlur
         inkscape:collect="always"
         stdDeviation="122.74289"
         id="feGaussianBlur5" /></filter><filter
       inkscape:collect="always"
       style="color-interpolation-filters:sRGB"
       id="filter6"
       x="-0.57333518"
       y="-1.254838"
       width="2.1466704"
       height="3.509676"><feGaussianBlur
         inkscape:collect="always"
         stdDeviation="224.86469"
         id="feGaussianBlur6" /></filter></defs><g
     inkscape:label="Слой 1"
     inkscape:groupmode="layer"
     id="layer1"
     transform="translate(-981.47414,-507.17491)"><path
       style="mix-blend-mode:normal;fill:#6f9f97;fill-opacity:1;stroke:none;stroke-width:0.994449;stroke-linecap:butt;stroke-linejoin:miter;stroke-dasharray:none;stroke-opacity:1;filter:url(#filter2)"
       d="m 1171.6577,673.32412 c 46.3744,-17.99148 52.7726,-101.63683 101.9744,-108.94821 59.833,-8.89117 96.895,95.74262 157.1749,90.7052 43.4639,-3.63215 58.4822,-73.16087 100.9017,-83.30426 50.7352,-12.13184 100.5594,32.64491 152.6997,34.26351 71.5928,2.22242 166.6037,-89.20505 212.1827,-33.95095 27.948,33.8805 -49.5155,80.06761 -45.1779,123.77301 4.0355,40.66106 50.0083,66.19682 63.845,104.64356 46.7191,129.8138 -15.3875,172.40405 -44.6831,175.69437 -47.1449,5.29506 -78.9132,-62.3765 -126.2357,-65.73145 -46.0396,-3.26401 -84.4521,45.91429 -130.6072,45.98305 -34.6557,0.0516 -63.607,-36.77874 -98.1692,-34.23416 -44.5177,3.27753 -74.0203,63.86067 -118.6252,62.13812 -52.2391,-2.01737 -81.0903,-76.30359 -132.902,-83.27073 -59.9083,-8.05589 -118.3649,76.72026 -173.6463,52.2689 -63.9387,-28.28059 -77.0676,-120.63306 -90.3868,-189.26654 -6.5993,-34.00627 -19.69556,-81.00579 6.4575,-103.72127 41.7014,-36.22008 113.7021,32.93607 165.1975,12.95785 z"
       id="path1"
       sodipodi:nodetypes="aaaaaaaasaaaaaaaaa"
       transform="matrix(0.81711507,0,0,0.7797017,287.52162,165.87604)" /><path
       style="mix-blend-mode:normal;fill:#7fa9a4;fill-opacity:1;stroke:none;stroke-width:0.793757;stroke-linecap:butt;stroke-linejoin:miter;stroke-dasharray:none;stroke-opacity:1"
       d="m 1162.3033,638.18623 c 46.3744,-17.99148 52.7726,-101.63683 101.9744,-108.94821 59.833,-8.89117 96.895,95.74262 157.1749,90.7052 43.4639,-3.63215 58.4822,-73.16087 100.9017,-83.30426 50.7352,-12.13184 100.5594,32.64491 152.6997,34.26351 71.5928,2.22242 166.6037,-89.20505 212.1827,-33.95095 27.948,33.8805 -49.5155,80.06761 -45.1779,123.77301 4.0355,40.66106 50.0083,66.19682 63.845,104.64356 46.7191,129.8138 -15.3875,172.40405 -44.6831,175.69437 -47.1449,5.29506 -78.9132,-62.3765 -126.2357,-65.73145 -46.0396,-3.26401 -84.4521,45.91429 -130.6072,45.98305 -34.6557,0.0516 -63.607,-36.77874 -98.1692,-34.23416 -44.5177,3.27753 -74.0203,63.86067 -118.6252,62.13812 -52.2391,-2.01737 -81.0903,-76.30359 -132.902,-83.27073 -59.9083,-8.05589 -118.3649,76.72026 -173.6463,52.2689 -63.9387,-28.28059 -77.0676,-120.63306 -90.38679,-189.26654 -6.59934,-34.00627 -19.6956,-81.00579 6.4575,-103.72127 41.70139,-36.22008 113.70209,32.93607 165.19749,12.95785 z"
       id="path2"
       sodipodi:nodetypes="aaaaaaaasaaaaaaaaa" /><path
       style="mix-blend-mode:normal;fill:#759a94;fill-opacity:1;stroke:none;stroke-width:4.29737;stroke-linecap:butt;stroke-linejoin:miter;stroke-dasharray:none;stroke-opacity:1;filter:url(#filter5)"
       d="m 1171.6577,673.32412 c 46.3744,-17.99148 52.7726,-101.63683 101.9744,-108.94821 59.833,-8.89117 96.895,95.74262 157.1749,90.7052 43.4639,-3.63215 58.4822,-73.16087 100.9017,-83.30426 50.7352,-12.13184 100.5594,32.64491 152.6997,34.26351 71.5928,2.22242 166.6037,-89.20505 212.1827,-33.95095 27.948,33.8805 -49.5155,80.06761 -45.1779,123.77301 4.0355,40.66106 50.0083,66.19682 63.845,104.64356 46.7191,129.8138 -15.3875,172.40405 -44.6831,175.69437 -47.1449,5.29506 -78.9132,-62.3765 -126.2357,-65.73145 -46.0396,-3.26401 -84.4521,45.91429 -130.6072,45.98305 -34.6557,0.0516 -63.607,-36.77874 -98.1692,-34.23416 -44.5177,3.27753 -74.0203,63.86067 -118.6252,62.13812 -52.2391,-2.01737 -81.0903,-76.30359 -132.902,-83.27073 -59.9083,-8.05589 -118.3649,76.72026 -173.6463,52.2689 -63.9387,-28.28059 -77.0676,-120.63306 -90.3868,-189.26654 -6.5993,-34.00627 -19.69556,-81.00579 6.4575,-103.72127 41.7014,-36.22008 113.7021,32.93607 165.1975,12.95785 z"
       id="path1-6"
       sodipodi:nodetypes="aaaaaaaasaaaaaaaaa"
       transform="matrix(0.11495183,0.2024654,-0.12637905,0.07419741,1754.3527,419.77657)" /><path
       style="mix-blend-mode:normal;fill:#76a39f;fill-opacity:1;stroke:none;stroke-width:1.51633;stroke-linecap:butt;stroke-linejoin:miter;stroke-dasharray:none;stroke-opacity:1;filter:url(#filter2-5)"
       d="m 1171.6577,673.32412 c 46.3744,-17.99148 52.7726,-101.63683 101.9744,-108.94821 59.833,-8.89117 96.895,95.74262 157.1749,90.7052 43.4639,-3.63215 58.4822,-73.16087 100.9017,-83.30426 50.7352,-12.13184 100.5594,32.64491 152.6997,34.26351 71.5928,2.22242 166.6037,-89.20505 212.1827,-33.95095 27.948,33.8805 -49.5155,80.06761 -45.1779,123.77301 4.0355,40.66106 50.0083,66.19682 63.845,104.64356 46.7191,129.8138 -15.3875,172.40405 -44.6831,175.69437 -47.1449,5.29506 -78.9132,-62.3765 -126.2357,-65.73145 -46.0396,-3.26401 -84.4521,45.91429 -130.6072,45.98305 -34.6557,0.0516 -63.607,-36.77874 -98.1692,-34.23416 -44.5177,3.27753 -74.0203,63.86067 -118.6252,62.13812 -52.2391,-2.01737 -81.0903,-76.30359 -132.902,-83.27073 -59.9083,-8.05589 -118.3649,76.72026 -173.6463,52.2689 -63.9387,-28.28059 -77.0676,-120.63306 -90.3868,-189.26654 -6.5993,-34.00627 -19.69556,-81.00579 6.4575,-103.72127 41.7014,-36.22008 113.7021,32.93607 165.1975,12.95785 z"
       id="path6"
       sodipodi:nodetypes="aaaaaaaasaaaaaaaaa"
       transform="matrix(0.65704073,0,0,0.41705262,625.16621,486.97656)" /><path
       style="mix-blend-mode:normal;fill:#acc8c3;fill-opacity:1;stroke:none;stroke-width:0.31066px;stroke-linecap:butt;stroke-linejoin:miter;stroke-opacity:1;filter:url(#filter3)"
       d="m 1036.0313,717.99041 c 0.7063,18.51366 7.1834,36.35018 15.2088,53.04891 8.0253,16.69874 17.6584,32.60181 25.3055,49.47713 2.1683,4.78489 4.1793,9.65259 6.7377,14.24072 2.5585,4.58813 5.7045,8.92623 9.7988,12.21761 5.3783,4.32356 12.209,6.64622 19.0901,7.16473 6.8812,0.51852 13.8171,-0.69708 20.362,-2.88443 13.0896,-4.37469 24.541,-12.47868 36.6156,-19.16311 29.6035,-16.38834 63.7502,-24.37335 97.5651,-23.15104 37.2237,1.34552 75.0047,14.54045 100.8724,41.34115 5.7879,5.9967 10.9706,12.63732 17.481,17.84071 3.2552,2.6017 6.8416,4.83079 10.7504,6.27518 3.9088,1.4444 8.1548,2.08459 12.2829,1.51562 4.8678,-0.67091 9.4136,-3.00278 13.1844,-6.15339 3.7709,-3.15061 6.8106,-7.09661 9.4063,-11.26889 5.1914,-8.34457 8.7273,-17.70473 14.6163,-25.57252 6.8369,-9.13421 16.6516,-15.85695 27.3939,-19.70162 10.7422,-3.84467 22.3785,-4.89109 33.7398,-3.84363 22.7227,2.09492 43.8732,12.27803 63.7166,23.54525 10.0865,5.72717 20.0243,11.79703 30.6934,16.34766 10.6691,4.55063 22.2245,7.56039 33.7988,6.80339 10.4024,-0.68036 20.4114,-4.3734 29.6559,-9.19123 9.2446,-4.81782 17.8439,-10.76457 26.6517,-16.34105 8.8078,-5.57648 17.927,-10.83184 27.8312,-14.08448 9.9043,-3.25265 20.7178,-4.41358 30.7896,-1.72439 7.8434,2.09418 14.9268,6.42078 21.3198,11.42408 6.393,5.0033 12.1942,10.71287 18.3239,16.03549 6.1298,5.32262 12.6741,10.31018 20.1068,13.57497 7.4327,3.26478 15.8721,4.71236 23.7586,2.78707 7.3265,-1.78857 13.8408,-6.46639 18.1908,-12.62704 4.3501,-6.16065 6.5675,-13.73119 6.6139,-21.27269 0.049,-7.92936 -2.2387,-15.7719 -5.9166,-22.79686 -3.6779,-7.02496 -8.7135,-13.27097 -14.2971,-18.90127 -11.1672,-11.26062 -24.5187,-20.13295 -36.0103,-31.06229 -12.5645,-11.94969 -22.9563,-26.63044 -27.6487,-43.32302 -4.6925,-16.69258 -3.2096,-35.51229 6.1513,-50.10797 6.4959,-10.12851 16.3219,-17.75814 22.9638,-27.7915 3.3209,-5.01668 5.8309,-10.7035 6.3316,-16.69893 0.2504,-2.99772 -0.01,-6.04871 -0.8826,-8.92729 -0.8733,-2.87858 -2.3686,-5.58103 -4.4349,-7.76717 -3.0381,-3.21422 -7.2327,-5.2163 -11.587,-5.9921 -4.3542,-0.7758 -8.863,-0.37704 -13.148,0.71829 -8.57,2.19064 -16.1669,7.0442 -24.0476,11.06157 -35.8145,18.25728 -79.9449,19.02524 -116.582,2.48047 -11.0425,-4.98662 -21.3727,-11.41657 -32.26,-16.73353 -10.8873,-5.31695 -22.5975,-9.56475 -34.7127,-9.72481 -9.5794,-0.12656 -19.0834,2.33017 -27.8061,6.29186 -8.7227,3.96169 -16.7073,9.3995 -24.1876,15.3849 -14.9606,11.97081 -28.0906,26.2285 -43.9177,37.02767 -11.8821,8.1074 -25.2677,14.17975 -39.4113,16.80168 -14.1435,2.62193 -29.0604,1.69893 -42.4442,-3.57251 -16.7334,-6.59073 -30.0946,-19.38231 -43.995,-30.79392 -6.9502,-5.70581 -14.1732,-11.15318 -22.1207,-15.36007 -7.9475,-4.20688 -16.6799,-7.15336 -25.6616,-7.5895 -10.169,-0.49379 -20.3165,2.25506 -29.4595,6.73348 -9.143,4.47841 -17.3617,10.64112 -25.1108,17.24438 -13.3229,11.3529 -25.4406,24.11757 -39.3271,34.77371 -13.8864,10.65614 -30.0367,19.28413 -47.4893,20.62343 -18.5749,1.42542 -36.6306,-5.43715 -54.8129,-9.49461 -9.0911,-2.02874 -18.4307,-3.3707 -27.7143,-2.60947 -9.2836,0.76122 -18.5602,3.7462 -25.7866,9.62361 -6.2806,5.10815 -10.7765,12.21857 -13.4012,19.87687 -2.6247,7.6583 -3.4439,15.85503 -3.1353,23.94474 z"
       id="path4"
       inkscape:path-effect="#path-effect5"
       inkscape:original-d="m 1036.0313,717.99041 c -5.5122,14.60721 27.0095,68.35069 40.5143,102.52604 13.5048,34.17536 11.0243,17.6389 16.5365,26.45833 5.5121,8.81944 50.7118,-9.92187 76.0677,-14.88281 25.3559,-4.96094 65.0434,-15.43402 97.5651,-23.15104 32.5217,-7.71702 67.2483,27.56077 100.8724,41.34115 33.6241,13.78037 27.0095,17.08766 40.5143,25.63151 13.5048,8.54384 24.8047,-28.66319 37.207,-42.9948 12.4024,-14.3316 83.2335,0 124.8503,0 41.6168,0 42.9948,15.43402 64.4922,23.15105 21.4974,7.71702 76.6189,-27.56078 114.9284,-41.34115 38.3094,-13.78037 55.6727,29.21442 83.5091,43.82161 27.8363,14.6072 16.5364,-22.59983 24.8047,-33.89973 8.2682,-11.29991 -37.4827,-48.50694 -56.224,-72.76042 -18.7413,-24.25347 -14.3316,-62.28733 -21.4974,-93.43099 -7.1658,-31.14366 15.9853,-40.78993 23.9779,-61.18489 7.9926,-20.39497 -32.5217,3.8585 -48.7826,5.78776 -16.2608,1.92925 -77.7213,1.65364 -116.582,2.48047 -38.8607,0.82682 -44.6484,-17.63889 -66.9727,-26.45834 -22.3242,-8.81944 -63.9409,39.13629 -95.9114,58.70443 -31.9705,19.56814 -54.5703,8.81944 -81.8555,13.22917 -27.2851,4.40972 -61.1849,-35.829 -91.7773,-53.74349 -30.5925,-17.9145 -36.3802,15.98524 -54.5703,23.97786 -18.1901,7.99262 -57.8776,36.93142 -86.8164,55.39714 -28.9388,18.46571 -72.2092,-1.65365 -108.3138,-2.48047 -36.1046,-0.82683 -11.0243,29.21441 -16.5365,43.82161 z"
       transform="matrix(0.88822807,0,0,0.81663338,92.291805,97.335276)" /><path
       style="mix-blend-mode:normal;fill:#a6c4bf;fill-opacity:1;stroke:none;stroke-width:0.86458px;stroke-linecap:butt;stroke-linejoin:miter;stroke-opacity:1;filter:url(#filter3-6)"
       d="m 1036.0313,717.99041 c 0.7063,18.51366 7.1834,36.35018 15.2088,53.04891 8.0253,16.69874 17.6584,32.60181 25.3055,49.47713 2.1683,4.78489 4.1793,9.65259 6.7377,14.24072 2.5585,4.58813 5.7045,8.92623 9.7988,12.21761 5.3783,4.32356 12.209,6.64622 19.0901,7.16473 6.8812,0.51852 13.8171,-0.69708 20.362,-2.88443 13.0896,-4.37469 24.541,-12.47868 36.6156,-19.16311 29.6035,-16.38834 63.7502,-24.37335 97.5651,-23.15104 37.2237,1.34552 75.0047,14.54045 100.8724,41.34115 5.7879,5.9967 10.9706,12.63732 17.481,17.84071 3.2552,2.6017 6.8416,4.83079 10.7504,6.27518 3.9088,1.4444 8.1548,2.08459 12.2829,1.51562 4.8678,-0.67091 9.4136,-3.00278 13.1844,-6.15339 3.7709,-3.15061 6.8106,-7.09661 9.4063,-11.26889 5.1914,-8.34457 8.7273,-17.70473 14.6163,-25.57252 6.8369,-9.13421 16.6516,-15.85695 27.3939,-19.70162 10.7422,-3.84467 22.3785,-4.89109 33.7398,-3.84363 22.7227,2.09492 43.8732,12.27803 63.7166,23.54525 10.0865,5.72717 20.0243,11.79703 30.6934,16.34766 10.6691,4.55063 22.2245,7.56039 33.7988,6.80339 10.4024,-0.68036 20.4114,-4.3734 29.6559,-9.19123 9.2446,-4.81782 17.8439,-10.76457 26.6517,-16.34105 8.8078,-5.57648 17.927,-10.83184 27.8312,-14.08448 9.9043,-3.25265 20.7178,-4.41358 30.7896,-1.72439 7.8434,2.09418 14.9268,6.42078 21.3198,11.42408 6.393,5.0033 12.1942,10.71287 18.3239,16.03549 6.1298,5.32262 12.6741,10.31018 20.1068,13.57497 7.4327,3.26478 15.8721,4.71236 23.7586,2.78707 7.3265,-1.78857 13.8408,-6.46639 18.1908,-12.62704 4.3501,-6.16065 6.5675,-13.73119 6.6139,-21.27269 0.049,-7.92936 -2.2387,-15.7719 -5.9166,-22.79686 -3.6779,-7.02496 -8.7135,-13.27097 -14.2971,-18.90127 -11.1672,-11.26062 -24.5187,-20.13295 -36.0103,-31.06229 -12.5645,-11.94969 -22.9563,-26.63044 -27.6487,-43.32302 -4.6925,-16.69258 -3.2096,-35.51229 6.1513,-50.10797 6.4959,-10.12851 16.3219,-17.75814 22.9638,-27.7915 3.3209,-5.01668 5.8309,-10.7035 6.3316,-16.69893 0.2504,-2.99772 -0.01,-6.04871 -0.8826,-8.92729 -0.8733,-2.87858 -2.3686,-5.58103 -4.4349,-7.76717 -3.0381,-3.21422 -7.2327,-5.2163 -11.587,-5.9921 -4.3542,-0.7758 -8.863,-0.37704 -13.148,0.71829 -8.57,2.19064 -16.1669,7.0442 -24.0476,11.06157 -35.8145,18.25728 -79.9449,19.02524 -116.582,2.48047 -11.0425,-4.98662 -21.3727,-11.41657 -32.26,-16.73353 -10.8873,-5.31695 -22.5975,-9.56475 -34.7127,-9.72481 -9.5794,-0.12656 -19.0834,2.33017 -27.8061,6.29186 -8.7227,3.96169 -16.7073,9.3995 -24.1876,15.3849 -14.9606,11.97081 -28.0906,26.2285 -43.9177,37.02767 -11.8821,8.1074 -25.2677,14.17975 -39.4113,16.80168 -14.1435,2.62193 -29.0604,1.69893 -42.4442,-3.57251 -16.7334,-6.59073 -30.0946,-19.38231 -43.995,-30.79392 -6.9502,-5.70581 -14.1732,-11.15318 -22.1207,-15.36007 -7.9475,-4.20688 -16.6799,-7.15336 -25.6616,-7.5895 -10.169,-0.49379 -20.3165,2.25506 -29.4595,6.73348 -9.143,4.47841 -17.3617,10.64112 -25.1108,17.24438 -13.3229,11.3529 -25.4406,24.11757 -39.3271,34.77371 -13.8864,10.65614 -30.0367,19.28413 -47.4893,20.62343 -18.5749,1.42542 -36.6306,-5.43715 -54.8129,-9.49461 -9.0911,-2.02874 -18.4307,-3.3707 -27.7143,-2.60947 -9.2836,0.76122 -18.5602,3.7462 -25.7866,9.62361 -6.2806,5.10815 -10.7765,12.21857 -13.4012,19.87687 -2.6247,7.6583 -3.4439,15.85503 -3.1353,23.94474 z"
       id="path4-5"
       inkscape:path-effect="#path-effect5-1"
       inkscape:original-d="m 1036.0313,717.99041 c -5.5122,14.60721 27.0095,68.35069 40.5143,102.52604 13.5048,34.17536 11.0243,17.6389 16.5365,26.45833 5.5121,8.81944 50.7118,-9.92187 76.0677,-14.88281 25.3559,-4.96094 65.0434,-15.43402 97.5651,-23.15104 32.5217,-7.71702 67.2483,27.56077 100.8724,41.34115 33.6241,13.78037 27.0095,17.08766 40.5143,25.63151 13.5048,8.54384 24.8047,-28.66319 37.207,-42.9948 12.4024,-14.3316 83.2335,0 124.8503,0 41.6168,0 42.9948,15.43402 64.4922,23.15105 21.4974,7.71702 76.6189,-27.56078 114.9284,-41.34115 38.3094,-13.78037 55.6727,29.21442 83.5091,43.82161 27.8363,14.6072 16.5364,-22.59983 24.8047,-33.89973 8.2682,-11.29991 -37.4827,-48.50694 -56.224,-72.76042 -18.7413,-24.25347 -14.3316,-62.28733 -21.4974,-93.43099 -7.1658,-31.14366 15.9853,-40.78993 23.9779,-61.18489 7.9926,-20.39497 -32.5217,3.8585 -48.7826,5.78776 -16.2608,1.92925 -77.7213,1.65364 -116.582,2.48047 -38.8607,0.82682 -44.6484,-17.63889 -66.9727,-26.45834 -22.3242,-8.81944 -63.9409,39.13629 -95.9114,58.70443 -31.9705,19.56814 -54.5703,8.81944 -81.8555,13.22917 -27.2851,4.40972 -61.1849,-35.829 -91.7773,-53.74349 -30.5925,-17.9145 -36.3802,15.98524 -54.5703,23.97786 -18.1901,7.99262 -57.8776,36.93142 -86.8164,55.39714 -28.9388,18.46571 -72.2092,-1.65365 -108.3138,-2.48047 -36.1046,-0.82683 -11.0243,29.21441 -16.5365,43.82161 z"
       transform="matrix(0.27383104,-0.1366296,0.1366296,0.27383104,1242.7644,616.69656)" /><path
       style="mix-blend-mode:normal;fill:#87a19e;fill-opacity:1;stroke:none;stroke-width:3.45759;stroke-linecap:butt;stroke-linejoin:miter;stroke-dasharray:none;stroke-opacity:1;filter:url(#filter6)"
       d="m 1171.6577,673.32412 c 46.3744,-17.99148 52.7726,-101.63683 101.9744,-108.94821 59.833,-8.89117 96.895,95.74262 157.1749,90.7052 43.4639,-3.63215 58.4822,-73.16087 100.9017,-83.30426 50.7352,-12.13184 100.5594,32.64491 152.6997,34.26351 71.5928,2.22242 166.6037,-89.20505 212.1827,-33.95095 27.948,33.8805 -49.5155,80.06761 -45.1779,123.77301 4.0355,40.66106 50.0083,66.19682 63.845,104.64356 46.7191,129.8138 -15.3875,172.40405 -44.6831,175.69437 -47.1449,5.29506 -78.9132,-62.3765 -126.2357,-65.73145 -46.0396,-3.26401 -84.4521,45.91429 -130.6072,45.98305 -34.6557,0.0516 -63.607,-36.77874 -98.1692,-34.23416 -44.5177,3.27753 -74.0203,63.86067 -118.6252,62.13812 -52.2391,-2.01737 -81.0903,-76.30359 -132.902,-83.27073 -59.9083,-8.05589 -118.3649,76.72026 -173.6463,52.2689 -63.9387,-28.28059 -77.0676,-120.63306 -90.3868,-189.26654 -6.5993,-34.00627 -19.69556,-81.00579 6.4575,-103.72127 41.7014,-36.22008 113.7021,32.93607 165.1975,12.95785 z"
       id="path5"
       sodipodi:nodetypes="aaaaaaaasaaaaaaaaa"
       transform="matrix(0.29566803,0,0,0.17824508,845.77605,628.60917)" /></g></svg>
