<?xml version="1.0" encoding="UTF-8" standalone="no"?>
<!-- Created with Inkscape (http://www.inkscape.org/) -->

<svg
   width="3228.2893"
   height="2886.4697"
   viewBox="0 0 854.15153 763.71178"
   version="1.1"
   id="svg1"
   sodipodi:docname="MainPage_greetingPageSVG.svg"
   xml:space="preserve"
   inkscape:version="1.3 (0e150ed6c4, 2023-07-21)"
   xmlns:inkscape="http://www.inkscape.org/namespaces/inkscape"
   xmlns:sodipodi="http://sodipodi.sourceforge.net/DTD/sodipodi-0.dtd"
   xmlns="http://www.w3.org/2000/svg"
   xmlns:svg="http://www.w3.org/2000/svg"><sodipodi:namedview
     id="namedview1"
     pagecolor="#505050"
     bordercolor="#000000"
     borderopacity="1"
     inkscape:showpageshadow="0"
     inkscape:pageopacity="0"
     inkscape:pagecheckerboard="0"
     inkscape:deskcolor="#747474"
     inkscape:document-units="mm"
     inkscape:zoom="0.16"
     inkscape:cx="1418.75"
     inkscape:cy="1796.875"
     inkscape:window-width="1920"
     inkscape:window-height="1009"
     inkscape:window-x="-8"
     inkscape:window-y="-8"
     inkscape:window-maximized="1"
     inkscape:current-layer="layer1" /><defs
     id="defs1"><filter
       inkscape:collect="always"
       style="color-interpolation-filters:sRGB"
       id="filter6"
       x="-0.36530841"
       y="-0.92289994"
       width="1.7306168"
       height="2.8457999"><feGaussianBlur
         inkscape:collect="always"
         stdDeviation="27.421866"
         id="feGaussianBlur6" /></filter><filter
       inkscape:collect="always"
       style="color-interpolation-filters:sRGB"
       id="filter23"
       x="-0.12292804"
       y="-0.51983502"
       width="1.2458561"
       height="2.03967"><feGaussianBlur
         inkscape:collect="always"
         stdDeviation="26.703846"
         id="feGaussianBlur23" /></filter></defs><g
     inkscape:label="Слой 1"
     inkscape:groupmode="layer"
     id="layer1"
     transform="translate(-613.61751,-1436.7903)"><path
       style="color:#000000;fill:#0b1111;fill-opacity:1;stroke-width:1.58631;stroke-linecap:square;stroke-miterlimit:4.7;-inkscape-stroke:none"
       d="m 1040.6934,1436.791 c -113.74574,0 -215.91253,49.7958 -285.8804,128.7671 -59.70595,67.3889 -95.96534,156.0227 -95.96534,253.0884 0,101.2717 40.23188,198.4017 111.83984,270.0117 71.60796,71.61 168.73683,111.8438 270.0059,111.8438 101.269,0 198.3979,-40.2338 270.0058,-111.8438 71.608,-71.61 111.8399,-168.74 111.8399,-270.0117 0,-101.2718 -40.2319,-198.4037 -111.8399,-270.0137 -71.6079,-71.61 -168.7368,-111.8418 -270.0058,-111.8418 z m 0,157.0957 c 97.7653,0 191.5197,-105.031 260.6504,-35.8984 69.1306,69.1326 -54.698,162.8899 -54.698,260.6582 0,97.7683 123.8286,191.5256 54.698,260.6582 -69.1307,69.1326 -162.8851,-10.267 -260.6504,-10.267 -97.76543,0 -191.51981,79.3996 -260.65043,10.267 -69.13062,-69.1326 37.61352,-162.8899 37.61352,-260.6582 0,-93.9387 -110.48496,-179.6437 -52.68693,-244.7254 67.51167,-76.0196 166.00082,19.9656 275.72384,19.9656 z"
       id="path4"
       sodipodi:nodetypes="ssssssssssssssssss"
       transform="matrix(0.63032277,0,0,0.63046511,385.01178,684.44538)" /><path
       style="mix-blend-mode:normal;fill:#415350;fill-opacity:1;stroke:none;stroke-width:0.335337px;stroke-linecap:butt;stroke-linejoin:miter;stroke-opacity:1;filter:url(#filter6)"
       d="m 942.69303,1524.8469 c 2.89388,0 44.27849,31.8327 98.00027,23.1511 53.7217,-8.6817 62.4034,-22.7376 69.8448,-30.1791 7.4414,-7.4414 14.056,-25.2181 -19.4304,-31.8326 -33.4863,-6.6146 -64.4921,-12.8158 -107.48694,-1.6537 -42.99479,11.1621 -47.95573,19.4304 -47.12891,26.4584 0.82683,7.0279 6.20118,14.0559 6.20118,14.0559 z"
       id="path8"
       transform="matrix(0,-0.9291037,0.67002894,0,-163.73278,2772.3623)" /><path
       style="mix-blend-mode:normal;fill:#415350;fill-opacity:1;stroke:none;stroke-width:0.335337px;stroke-linecap:butt;stroke-linejoin:miter;stroke-opacity:1;filter:url(#filter6)"
       d="m 942.69303,1524.8469 c 2.89388,0 44.27849,31.8327 98.00027,23.1511 53.7217,-8.6817 62.4034,-22.7376 69.8448,-30.1791 7.4414,-7.4414 14.056,-25.2181 -19.4304,-31.8326 -33.4863,-6.6146 -64.4921,-12.8158 -107.48694,-1.6537 -42.99479,11.1621 -47.95573,19.4304 -47.12891,26.4584 0.82683,7.0279 6.20118,14.0559 6.20118,14.0559 z"
       id="path7"
       transform="matrix(0,-0.9291037,-0.67002894,0,2245.1194,2793.0232)" /><ellipse
       style="mix-blend-mode:normal;fill:#0d1d1b;fill-opacity:1;stroke-width:2.28328;stroke-linecap:round;stroke-linejoin:round;stroke-miterlimit:4.7;filter:url(#filter23)"
       id="ellipse23"
       cx="1043.2772"
       cy="1831.0194"
       rx="260.67783"
       ry="61.643818"
       transform="matrix(1.314484,0,0,2.2984377,-330.67787,-2377.4647)" /><path
       style="font-size:261.289px;line-height:1;font-family:BROLIMO;-inkscape-font-specification:BROLIMO;fill:#f3f3f1;stroke-width:0.264583"
       d="m 909.67033,1733.8582 c -0.69677,24.5611 -1.04516,55.0448 -1.04516,91.4511 0,36.0579 0.34839,66.5417 1.04516,91.4512 h -27.17406 c 0.69677,-22.8193 1.04516,-50.6901 1.04516,-83.6125 h -94.06404 c 0,32.9224 0.34838,60.7932 1.04515,83.6125 h -27.17405 c 0.87096,-31.0063 1.30644,-61.49 1.30644,-91.4512 0,-30.1353 -0.43548,-60.619 -1.30644,-91.4511 h 27.17405 c -0.69677,31.3547 -1.04515,56.6997 -1.04515,76.0351 v 17.2451 h 94.06404 v -17.2451 c 0,-19.3354 -0.34839,-44.6804 -1.04516,-76.0351 z m 101.38007,175.8475 c 11.3225,0 20.5547,-2.8742 27.6966,-8.6225 7.1419,-5.9226 11.9322,-13.1516 14.3709,-21.687 h 3.9193 c -2.6129,9.7548 -8.0128,18.2902 -16.1999,25.6063 -8.1871,7.1419 -19.0741,11.3225 -32.6611,12.5419 -4.1806,0.3483 -7.229,0.5225 -9.14515,0.5225 -14.63221,0 -27.17409,-3.0484 -37.62565,-9.1451 -10.27737,-6.2709 -18.02894,-14.3709 -23.25472,-24.2998 -5.05159,-10.1032 -7.57738,-20.9032 -7.57738,-32.3999 0,-11.6709 2.61289,-22.645 7.83867,-32.9224 5.39997,-10.4515 13.32573,-18.8999 23.77729,-25.345 10.62575,-6.4451 23.25477,-9.6677 37.88704,-9.6677 13.2386,0 24.1256,2.6129 32.661,7.8386 8.5355,5.2258 14.7193,11.6709 18.5516,19.3354 4.0064,7.4903 6.0096,14.8935 6.0096,22.2096 l 0.2613,4.9645 -102.42534,5.2258 c -0.17419,11.1483 1.82902,21.7741 6.00965,31.8772 4.18062,10.1032 10.53865,18.2903 19.0741,24.5612 8.53549,6.2709 18.81289,9.4064 30.83219,9.4064 z m -9.929,-122.022 c -13.41289,0 -24.12576,4.9645 -32.13862,14.8935 -8.01287,9.7548 -12.54188,21.8612 -13.58703,36.3192 l 83.61255,-4.1806 c 0,-8.7097 -2.3516,-18.6387 -7.0548,-29.787 -4.529,-11.3225 -14.8064,-17.0709 -30.8321,-17.2451 z m 102.1638,-68.4577 c -0.6968,24.5612 -1.0452,57.4836 -1.0452,98.7673 0,40.9353 0.3484,73.8577 1.0452,98.7672 h -27.1741 c 0.871,-31.0063 1.3065,-63.9287 1.3065,-98.7672 0,-35.0127 -0.4355,-67.9352 -1.3065,-98.7673 z m 48.0771,0 c -0.6967,24.5612 -1.0451,57.4836 -1.0451,98.7673 0,40.9353 0.3484,73.8577 1.0451,98.7672 h -27.174 c 0.8709,-31.0063 1.3064,-63.9287 1.3064,-98.7672 0,-35.0127 -0.4355,-67.9352 -1.3064,-98.7673 z m 84.919,65.061 c 1.3935,-0.1742 3.3967,-0.2613 6.0096,-0.2613 14.2838,0 26.6515,3.3097 37.1031,9.929 10.6257,6.6193 18.6386,15.2418 24.0385,25.8676 5.5742,10.6257 8.3613,21.8612 8.3613,33.7063 0,11.3225 -2.6129,21.8611 -7.8387,31.6159 -5.0516,9.7548 -12.8903,17.6806 -23.516,23.7773 -10.4515,5.9226 -23.2547,8.8839 -38.4095,8.8839 -14.458,0 -26.9999,-3.2226 -37.6256,-9.6677 -10.4515,-6.6193 -18.4644,-15.1548 -24.0386,-25.6064 -5.3999,-10.4515 -8.0999,-21.5999 -8.0999,-33.445 0,-10.7999 2.3516,-20.9031 7.0548,-30.3095 4.8774,-9.5806 12.1064,-17.5064 21.687,-23.7773 9.7547,-6.2709 21.5127,-9.8419 35.274,-10.7128 z m 2.6129,3.1354 c -9.2323,0 -17.0709,2.7871 -23.516,8.3613 -6.271,5.3999 -11.0613,12.5418 -14.3709,21.4257 -3.1355,8.8838 -4.7032,18.4644 -4.7032,28.7418 0,11.4967 1.9161,22.4709 5.7483,32.9224 3.8323,10.4515 9.4935,18.987 16.9838,25.6063 7.4903,6.4451 16.4612,9.6677 26.9128,9.6677 13.9354,0 24.474,-5.3129 31.6159,-15.9386 7.3161,-10.6258 10.9742,-23.6903 10.9742,-39.1934 0,-11.6709 -2.0903,-22.9934 -6.271,-33.9675 -4.0064,-11.1483 -9.7547,-20.2064 -17.245,-27.1741 -7.4903,-6.9677 -16.2,-10.4516 -26.1289,-10.4516 z m 103.4704,77.0803 0.2612,-9.6677 c 0,-9.929 -0.3484,-19.7709 -1.0451,-29.5257 -0.6968,-9.9289 -1.742,-22.2966 -3.1355,-37.103 -2.4387,-24.0386 -3.8322,-42.1546 -4.1806,-54.3481 h 32.1385 c -0.6967,15.3289 -1.9161,32.574 -3.658,51.7352 -0.1742,2.6129 -0.871,11.4968 -2.0903,26.6515 -1.2193,14.9806 -1.829,29.4386 -1.829,43.374 v 8.8838 z m 7.8386,29.2644 c 3.1355,0 5.8355,1.2193 8.1,3.658 2.4387,2.2645 3.658,5.0516 3.658,8.3613 0,2.9613 -1.2193,5.6612 -3.658,8.0999 -2.2645,2.2645 -4.9645,3.3968 -8.1,3.3968 -3.1355,0 -5.9225,-1.1323 -8.3612,-3.3968 -2.2645,-2.4387 -3.3968,-5.1386 -3.3968,-8.0999 0,-3.3097 1.1323,-6.0968 3.3968,-8.3613 2.4387,-2.4387 5.2257,-3.658 8.3612,-3.658 z"
       id="path22"
       aria-label="Hello!"
       sodipodi:nodetypes="csccccccsccsccsccscccccsccsccssccccssscccccccsccscccsccscccsccsccsccscccsccsscscscssccccccccsccscssscsss" /><ellipse
       style="mix-blend-mode:normal;fill:#13201f;fill-opacity:1;stroke-width:6.27133;stroke-linecap:round;stroke-linejoin:round;stroke-miterlimit:4.7;filter:url(#filter23)"
       id="ellipse24"
       cx="1043.2772"
       cy="1831.0194"
       rx="260.67783"
       ry="61.643818"
       transform="matrix(0.37872476,-0.29258632,0.51160105,0.66221821,-485.80008,775.15609)" /><ellipse
       style="mix-blend-mode:normal;fill:#13201f;fill-opacity:1;stroke-width:6.27133;stroke-linecap:round;stroke-linejoin:round;stroke-miterlimit:4.7;filter:url(#filter23)"
       id="path23"
       cx="1043.2772"
       cy="1831.0194"
       rx="260.67783"
       ry="61.643818"
       transform="matrix(-0.37853508,-0.29283167,-0.51203007,0.66188655,2158.6268,1073.9744)" /><path
       style="color:#000000;fill:#11231f;fill-opacity:1;stroke-width:1.07789;stroke-linecap:square;stroke-miterlimit:4.7;-inkscape-stroke:none"
       d="m 1040.6934,1436.791 c -113.74574,0 -215.91253,49.7958 -285.8804,128.7671 -59.70595,67.3889 -95.96534,156.0227 -95.96534,253.0884 0,101.2717 40.23188,198.4017 111.83984,270.0117 71.60796,71.61 168.73683,111.8438 270.0059,111.8438 101.269,0 198.3979,-40.2338 270.0058,-111.8438 71.608,-71.61 111.8399,-168.74 111.8399,-270.0117 0,-101.2718 -40.2319,-198.4037 -111.8399,-270.0137 -71.6079,-71.61 -168.7368,-111.8418 -270.0058,-111.8418 z m 0,157.0957 c 97.7653,0 191.5197,-105.031 260.6504,-35.8984 69.1306,69.1326 -54.698,162.8899 -54.698,260.6582 0,97.7683 123.8286,191.5256 54.698,260.6582 -69.1307,69.1326 -165.4061,-32.3211 -263.1714,-32.3211 -97.76547,0 -188.99881,101.4537 -258.12943,32.3211 -69.13062,-69.1326 37.61352,-162.8899 37.61352,-260.6582 0,-93.9387 -110.48496,-179.6437 -52.68693,-244.7254 67.51167,-76.0196 166.00082,19.9656 275.72384,19.9656 z"
       id="path11"
       sodipodi:nodetypes="ssssssssssssssssss"
       transform="matrix(0.6559385,-0.6559385,-0.65608662,-0.65608662,1552.4338,3706.859)" /><path
       style="mix-blend-mode:normal;fill:#233835;fill-opacity:1;stroke:none;stroke-width:0.335337px;stroke-linecap:butt;stroke-linejoin:miter;stroke-opacity:1;filter:url(#filter6)"
       d="m 942.69303,1524.8469 c 2.89388,0 44.27849,31.8327 98.00027,23.1511 53.7217,-8.6817 62.4034,-22.7376 69.8448,-30.1791 7.4414,-7.4414 14.056,-25.2181 -19.4304,-31.8326 -33.4863,-6.6146 -64.4921,-12.8158 -107.48694,-1.6537 -42.99479,11.1621 -47.95573,19.4304 -47.12891,26.4584 0.82683,7.0279 6.20118,14.0559 6.20118,14.0559 z"
       id="path5"
       transform="matrix(0.92889393,0,0,0.67018025,87.483712,632.02195)" /><path
       style="mix-blend-mode:normal;fill:#2e4644;fill-opacity:1;stroke:none;stroke-width:0.227859px;stroke-linecap:butt;stroke-linejoin:miter;stroke-opacity:1;filter:url(#filter6)"
       d="m 942.69303,1524.8469 c 2.89388,0 44.27849,31.8327 98.00027,23.1511 53.7217,-8.6817 62.4034,-22.7376 69.8448,-30.1791 7.4414,-7.4414 14.056,-25.2181 -19.4304,-31.8326 -33.4863,-6.6146 -64.4921,-12.8158 -107.48694,-1.6537 -42.99479,11.1621 -47.95573,19.4304 -47.12891,26.4584 0.82683,7.0279 6.20118,14.0559 6.20118,14.0559 z"
       id="path16"
       transform="matrix(0.96664332,-0.96664332,-0.69741575,-0.69741575,1297.3684,4071.0322)" /><path
       style="mix-blend-mode:normal;fill:#233835;fill-opacity:1;stroke:none;stroke-width:0.335337px;stroke-linecap:butt;stroke-linejoin:miter;stroke-opacity:1;filter:url(#filter6)"
       d="m 942.69303,1524.8469 c 2.89388,0 44.27849,31.8327 98.00027,23.1511 53.7217,-8.6817 62.4034,-22.7376 69.8448,-30.1791 7.4414,-7.4414 14.056,-25.2181 -19.4304,-31.8326 -33.4863,-6.6146 -64.4921,-12.8158 -107.48694,-1.6537 -42.99479,11.1621 -47.95573,19.4304 -47.12891,26.4584 0.82683,7.0279 6.20118,14.0559 6.20118,14.0559 z"
       id="path6"
       transform="matrix(0.92889393,0,0,-0.67018025,91.168667,3042.9062)" /><path
       style="mix-blend-mode:normal;fill:#2e4644;fill-opacity:1;stroke:none;stroke-width:0.227859px;stroke-linecap:butt;stroke-linejoin:miter;stroke-opacity:1;filter:url(#filter6)"
       d="m 942.69303,1524.8469 c 2.89388,0 43.15495,48.6279 96.87677,39.9463 53.7217,-8.6817 63.5269,-39.5328 70.9683,-46.9743 7.4414,-7.4414 14.056,-25.2181 -19.4304,-31.8326 -33.4863,-6.6146 -64.4921,-12.8158 -107.48694,-1.6537 -42.99479,11.1621 -47.95573,19.4304 -47.12891,26.4584 0.82683,7.0279 6.20118,14.0559 6.20118,14.0559 z"
       id="path13"
       transform="matrix(0.96664332,-0.96664332,0.69741575,0.69741575,-1207.6572,1558.3372)"
       sodipodi:nodetypes="ccccssc" /><path
       style="mix-blend-mode:normal;fill:#2e4644;fill-opacity:1;stroke:none;stroke-width:0.227859px;stroke-linecap:butt;stroke-linejoin:miter;stroke-opacity:1;filter:url(#filter6)"
       d="m 942.69303,1524.8469 c 2.89388,0 44.27849,31.8327 98.00027,23.1511 53.7217,-8.6817 62.4034,-22.7376 69.8448,-30.1791 7.4414,-7.4414 14.056,-25.2181 -19.4304,-31.8326 -33.4863,-6.6146 -64.4921,-12.8158 -107.48694,-1.6537 -42.99479,11.1621 -47.95573,19.4304 -47.12891,26.4584 0.82683,7.0279 6.20118,14.0559 6.20118,14.0559 z"
       id="path14"
       transform="matrix(0.96686161,0.96686161,-0.69725829,0.69725829,1293.8662,-423.11005)" /><path
       style="mix-blend-mode:normal;fill:#2e4644;fill-opacity:1;stroke:none;stroke-width:0.227859px;stroke-linecap:butt;stroke-linejoin:miter;stroke-opacity:1;filter:url(#filter6)"
       d="m 942.69303,1524.8469 c 2.89388,0 44.27849,31.8327 98.00027,23.1511 53.7217,-8.6817 62.4034,-22.7376 69.8448,-30.1791 7.4414,-7.4414 14.056,-25.2181 -19.4304,-31.8326 -33.4863,-6.6146 -64.4921,-12.8158 -107.48694,-1.6537 -42.99479,11.1621 -47.95573,19.4304 -47.12891,26.4584 0.82683,7.0279 6.20118,14.0559 6.20118,14.0559 z"
       id="path15"
       transform="matrix(0.96686161,0.96686161,0.69725829,-0.69725829,-1191.3791,2105.1362)" /><path
       d="m 1342.3646,1864.5027 0.2612,-9.6677 c 0,-9.929 -0.3484,-19.7709 -1.0451,-29.5257 -0.6968,-9.9289 -1.742,-22.2966 -3.1355,-37.103 -2.4387,-24.0386 -3.8322,-42.1546 -4.1806,-54.3481 h 32.1385 c -0.6967,15.3289 -1.9161,32.574 -3.658,51.7352 -0.1742,2.6129 -0.871,11.4968 -2.0903,26.6515 -1.2193,14.9806 -1.829,29.4386 -1.829,43.374 v 8.8838 z m 7.8386,29.2644 c 3.1355,0 5.8355,1.2193 8.1,3.658 2.4387,2.2645 3.658,5.0516 3.658,8.3613 0,2.9613 -1.2193,5.6612 -3.658,8.0999 -2.2645,2.2645 -4.9645,3.3968 -8.1,3.3968 -3.1355,0 -5.9225,-1.1323 -8.3612,-3.3968 -2.2645,-2.4387 -3.3968,-5.1386 -3.3968,-8.0999 0,-3.3097 1.1323,-6.0968 3.3968,-8.3613 2.4387,-2.4387 5.2257,-3.658 8.3612,-3.658 z"
       style="font-size:261.289px;line-height:1;font-family:BROLIMO;-inkscape-font-specification:BROLIMO;fill:#f3f3f1;stroke-width:0.264583"
       id="path1" /></g></svg>
