<?xml version="1.0" encoding="UTF-8" standalone="no"?>
<!-- Created with Inkscape (http://www.inkscape.org/) -->

<svg
   width="2500.5137"
   height="848.47266"
   viewBox="0 0 661.59423 224.49172"
   version="1.1"
   id="svg1"
   sodipodi:docname="MainPage_footerDecor.svg"
   xml:space="preserve"
   inkscape:version="1.3 (0e150ed6c4, 2023-07-21)"
   xmlns:inkscape="http://www.inkscape.org/namespaces/inkscape"
   xmlns:sodipodi="http://sodipodi.sourceforge.net/DTD/sodipodi-0.dtd"
   xmlns="http://www.w3.org/2000/svg"
   xmlns:svg="http://www.w3.org/2000/svg"><sodipodi:namedview
     id="namedview1"
     pagecolor="#505050"
     bordercolor="#000000"
     borderopacity="1"
     inkscape:showpageshadow="0"
     inkscape:pageopacity="0"
     inkscape:pagecheckerboard="0"
     inkscape:deskcolor="#747474"
     inkscape:document-units="mm"
     inkscape:zoom="0.22627417"
     inkscape:cx="1714.7339"
     inkscape:cy="369.02135"
     inkscape:window-width="1920"
     inkscape:window-height="1009"
     inkscape:window-x="-8"
     inkscape:window-y="-8"
     inkscape:window-maximized="1"
     inkscape:current-layer="layer1" /><defs
     id="defs1" /><g
     inkscape:label="Слой 1"
     inkscape:groupmode="layer"
     id="layer1"
     transform="translate(-1715.5367,-9486.5772)"><g
       id="g349"
       transform="matrix(0.26536793,0.9904777,0.98646503,-0.26435217,-282.11967,8208.3101)"
       style="fill:#88ada5;fill-opacity:1;stroke:#000000;stroke-width:2.12010278;stroke-dasharray:none;stroke-opacity:1"><path
         id="rect347"
         style="fill:#8aaba2;fill-opacity:1;stroke:#000000;stroke-width:2.12010278;stroke-linecap:square;stroke-linejoin:miter;stroke-miterlimit:4.7;stroke-dasharray:none;stroke-opacity:1"
         d="m 1246.3667,1995.9446 c 0,-22.2981 17.953,-40.2495 40.2532,-40.2495 l 175.9272,1e-4 -0.635,644.6287 -175.2926,3e-4 c -22.3002,0 -40.2531,-17.9512 -40.2531,-40.2493 z"
         transform="rotate(-15)" /><path
         id="rect348"
         style="fill:#b4cbc6;fill-opacity:1;stroke:#000000;stroke-width:2.12010278;stroke-linecap:square;stroke-linejoin:miter;stroke-miterlimit:4.7;stroke-dasharray:none;stroke-opacity:1"
         d="m 1857.322,2061.9665 c -1.1175,-3.6075 -1.7192,-7.4459 -1.7192,-11.4301 v -414.632 c 0,-21.2492 17.1087,-38.356 38.3603,-38.356 l 48.147,-2e-4 131.1366,491.3442 -179.2835,-3e-4 c -17.2669,0 -31.7988,-11.2931 -36.6412,-26.9256 z" /><path
         id="rect349"
         style="fill:#cbdcd5;fill-opacity:1;stroke:#000000;stroke-width:2.1201039;stroke-linecap:square;stroke-linejoin:miter;stroke-miterlimit:4.7;stroke-dasharray:none;stroke-opacity:1"
         d="m 2352.1574,1442.9597 c -2.9206,-5.3893 -4.5772,-11.5718 -4.5772,-18.1554 v -255.2936 c 0,-7.0403 1.9277,-13.5996 5.2365,-19.243 l 179.8973,312.5648 h -147.1017 c -14.4855,0 -27.0295,-8.0165 -33.4549,-19.8728 z"
         transform="matrix(0.96573695,0.25952293,-0.2581168,0.96611372,0,0)" /></g></g></svg>
