<?xml version="1.0" encoding="UTF-8" standalone="no"?>
<!-- Created with Inkscape (http://www.inkscape.org/) -->

<svg
   width="4695.2593"
   height="1736.2285"
   viewBox="0 0 1242.2873 459.37713"
   version="1.1"
   id="svg1"
   sodipodi:docname="MY.svg"
   xml:space="preserve"
   inkscape:version="1.3 (0e150ed6c4, 2023-07-21)"
   xmlns:inkscape="http://www.inkscape.org/namespaces/inkscape"
   xmlns:sodipodi="http://sodipodi.sourceforge.net/DTD/sodipodi-0.dtd"
   xmlns="http://www.w3.org/2000/svg"
   xmlns:svg="http://www.w3.org/2000/svg"><sodipodi:namedview
     id="namedview1"
     pagecolor="#505050"
     bordercolor="#000000"
     borderopacity="1"
     inkscape:showpageshadow="0"
     inkscape:pageopacity="0"
     inkscape:pagecheckerboard="0"
     inkscape:deskcolor="#747474"
     inkscape:document-units="mm"
     inkscape:zoom="0.056568544"
     inkscape:cx="1467.2465"
     inkscape:cy="1511.4407"
     inkscape:window-width="1920"
     inkscape:window-height="1009"
     inkscape:window-x="-8"
     inkscape:window-y="-8"
     inkscape:window-maximized="1"
     inkscape:current-layer="layer1" /><defs
     id="defs1"><inkscape:path-effect
       effect="spiro"
       id="path-effect1"
       is_visible="true"
       lpeversion="1" /></defs><g
     inkscape:label="Слой 1"
     inkscape:groupmode="layer"
     id="layer1"
     transform="translate(-613.61757,-2439.2693)"><path
       style="fill:#000000;stroke:none;stroke-width:0.264583px;stroke-linecap:butt;stroke-linejoin:miter;stroke-opacity:1"
       d="m 1416.1249,2439.2693 140.8929,175.7933 c 4.3729,5.4561 56.9443,-175.7933 165.0115,-175.7933 h 133.8756 c 0,0 -228.3762,182.8042 -228.3761,301.6293 0,0 21.3038,157.7478 10e-5,157.7478 h -69.07 c 0,0 125.2818,-102.0532 -20.2462,-283.463 -120.0768,-149.6832 -141.1192,-175.9141 -141.1192,-175.9141 z"
       id="path2"
       sodipodi:nodetypes="csscsscscc" /><path
       style="fill:#000000;stroke:none;stroke-width:0.264583px;stroke-linecap:butt;stroke-linejoin:miter;stroke-opacity:1"
       d="m 613.61755,2898.6464 c 0,0 173.25083,-459.3771 281.53253,-459.3771 h 108.28172 c 0,0 -0.1416,367.0191 0,395.7206 0.1849,37.4898 138.3266,-395.7206 242.8136,-395.7206 h 108.2818 v 459.3771 h -19.0314 v -397.6893 c 0,0 -188.6728,397.6893 -242.8136,397.6893 H 984.40049 v -397.6893 c 0,0 -178.82893,397.6893 -242.8136,397.6893 z"
       id="path3"
       sodipodi:nodetypes="cscssccccsccsc" /></g></svg>
