<?xml version="1.0" encoding="UTF-8" standalone="no"?>
<!-- Created with Inkscape (http://www.inkscape.org/) -->

<svg
   width="1689.5911"
   height="1880.7382"
   viewBox="0 0 447.03763 497.61197"
   version="1.1"
   id="svg1"
   sodipodi:docname="MainPage_earLikeThingSVG.svg"
   xml:space="preserve"
   inkscape:version="1.3 (0e150ed6c4, 2023-07-21)"
   xmlns:inkscape="http://www.inkscape.org/namespaces/inkscape"
   xmlns:sodipodi="http://sodipodi.sourceforge.net/DTD/sodipodi-0.dtd"
   xmlns="http://www.w3.org/2000/svg"
   xmlns:svg="http://www.w3.org/2000/svg"><sodipodi:namedview
     id="namedview1"
     pagecolor="#505050"
     bordercolor="#000000"
     borderopacity="1"
     inkscape:showpageshadow="0"
     inkscape:pageopacity="0"
     inkscape:pagecheckerboard="0"
     inkscape:deskcolor="#747474"
     inkscape:document-units="mm"
     inkscape:zoom="0.056568543"
     inkscape:cx="1767.767"
     inkscape:cy="1087.1767"
     inkscape:window-width="1920"
     inkscape:window-height="1009"
     inkscape:window-x="-8"
     inkscape:window-y="-8"
     inkscape:window-maximized="1"
     inkscape:current-layer="layer1"
     showguides="false" /><defs
     id="defs1"><filter
       inkscape:collect="always"
       style="color-interpolation-filters:sRGB"
       id="filter1"
       x="-0.033361151"
       y="-0.030320297"
       width="1.066674"
       height="1.060578"><feGaussianBlur
         inkscape:collect="always"
         stdDeviation="3.755436"
         id="feGaussianBlur1" /></filter><filter
       inkscape:collect="always"
       style="color-interpolation-filters:sRGB"
       id="filter4"
       x="-0.14545885"
       y="-0.13212701"
       width="1.2907624"
       height="1.2640494"><feGaussianBlur
         inkscape:collect="always"
         stdDeviation="18.641775"
         id="feGaussianBlur4" /></filter></defs><g
     inkscape:label="Слой 1"
     inkscape:groupmode="layer"
     id="layer1"
     transform="translate(-1938.3034,-2429.3033)"><path
       style="fill:none;stroke:#59736e;stroke-width:32.7015;stroke-linecap:round;stroke-linejoin:miter;stroke-dasharray:none;stroke-opacity:0.6;filter:url(#filter4)"
       d="m 2015.964,2793.4603 c 0,0 96.1577,65.0939 123.1947,92.6545 54.7524,55.8127 138.4489,68.7532 182.7763,26.0628 53.4121,-51.4396 6.595,-153.4177 -23.0988,-221.261 -37.385,-85.4168 -94.7168,-184.8646 -184.7367,-209.9549 -60.6456,-16.9032 -154.6076,-1.0926 -180.9367,56.3256 -26.9239,58.7154 32.8807,130.6922 77.0878,177.7892 64.5102,68.7273 170.795,176.8574 251.8095,128.6739 30.6362,-18.221 13.0319,-72.7853 2.7038,-106.9015 -19.922,-65.8072 -59.3339,-134.0152 -118.7077,-168.6883 -36.524,-21.3293 -97.7573,-43.858 -126.2599,-12.6082 -26.0792,28.5929 1.4861,81.2696 22.0883,113.9789 34.7452,55.1643 106.1736,157.7651 157.2186,116.5316 42.0511,-33.9682 -19.2864,-172.3495 -66.7977,-146.6618 -31.1446,16.8388 4.8973,72.9727 4.8973,72.9727"
       id="path1"
       sodipodi:nodetypes="csaaaaaaaaaaasc"
       transform="matrix(0.7638714,0,0,0.76511049,513.54624,632.30434)" /><path
       style="fill:none;stroke:#333333;stroke-width:25;stroke-linecap:round;stroke-linejoin:miter;stroke-dasharray:none;stroke-opacity:1;opacity:0.8"
       d="m 2041.8271,2762.2437 c 0,0 96.1577,65.0939 123.1947,92.6545 54.7524,55.8127 138.4489,68.7532 182.7763,26.0628 53.4121,-51.4396 6.595,-153.4177 -23.0988,-221.261 -37.385,-85.4168 -94.7168,-184.8646 -184.7367,-209.9549 -60.6456,-16.9032 -154.6076,-1.0926 -180.9367,56.3256 -26.9239,58.7154 32.8807,130.6922 77.0878,177.7892 64.5102,68.7273 170.795,176.8574 251.8095,128.6739 30.6362,-18.221 13.0319,-72.7853 2.7038,-106.9015 -19.922,-65.8072 -59.3339,-134.0152 -118.7077,-168.6883 -36.524,-21.3293 -97.7573,-43.858 -126.2599,-12.6082 -26.0792,28.5929 1.4861,81.2696 22.0883,113.9789 34.7452,55.1643 106.1736,157.7651 157.2186,116.5316 42.0511,-33.9682 -19.2864,-172.3495 -66.7977,-146.6618 -31.1446,16.8388 4.8973,72.9727 4.8973,72.9727"
       id="path2"
       sodipodi:nodetypes="csaaaaaaaaaaasc" /><path
       style="opacity:0.8;mix-blend-mode:normal;fill:none;stroke:#cccccc;stroke-width:10;stroke-linecap:round;stroke-linejoin:miter;stroke-dasharray:none;stroke-opacity:1;filter:url(#filter1)"
       d="m 2046.0053,2759.9051 c 0,0 96.1577,65.0939 123.1947,92.6545 54.7524,55.8127 138.4489,68.7532 182.7763,26.0628 53.4121,-51.4396 6.595,-153.4177 -23.0988,-221.261 -37.385,-85.4168 -94.7168,-184.8646 -184.7367,-209.9549 -60.6456,-16.9032 -154.6076,-1.0926 -180.9367,56.3256 -26.9239,58.7154 32.8807,130.6922 77.0878,177.7892 64.5102,68.7273 170.795,176.8574 251.8095,128.6739 30.6362,-18.221 13.0319,-72.7853 2.7038,-106.9015 -19.922,-65.8072 -59.3339,-134.0152 -118.7077,-168.6883 -36.524,-21.3293 -97.7573,-43.858 -126.2599,-12.6082 -26.0792,28.5929 1.4861,81.2696 22.0883,113.9789 34.7452,55.1643 106.1736,157.7651 157.2186,116.5316 42.0511,-33.9682 -19.2864,-172.3495 -66.7977,-146.6618 -31.1446,16.8388 4.8973,72.9727 4.8973,72.9727"
       id="path3"
       sodipodi:nodetypes="csaaaaaaaaaaasc" /></g></svg>
