<?xml version="1.0" encoding="UTF-8" standalone="no"?>
<!-- Created with Inkscape (http://www.inkscape.org/) -->

<svg
   width="1321.7526"
   height="926.03345"
   viewBox="0 0 349.71369 245.01301"
   version="1.1"
   id="svg1"
   sodipodi:docname="MainPage_MyPhotosDecorElement.svg"
   xml:space="preserve"
   inkscape:version="1.3 (0e150ed6c4, 2023-07-21)"
   xmlns:inkscape="http://www.inkscape.org/namespaces/inkscape"
   xmlns:sodipodi="http://sodipodi.sourceforge.net/DTD/sodipodi-0.dtd"
   xmlns="http://www.w3.org/2000/svg"
   xmlns:svg="http://www.w3.org/2000/svg"><sodipodi:namedview
     id="namedview1"
     pagecolor="#505050"
     bordercolor="#000000"
     borderopacity="1"
     inkscape:showpageshadow="0"
     inkscape:pageopacity="0"
     inkscape:pagecheckerboard="0"
     inkscape:deskcolor="#747474"
     inkscape:document-units="mm"
     inkscape:zoom="0.32"
     inkscape:cx="403.125"
     inkscape:cy="595.3125"
     inkscape:window-width="1920"
     inkscape:window-height="1009"
     inkscape:window-x="-8"
     inkscape:window-y="-8"
     inkscape:window-maximized="1"
     inkscape:current-layer="layer1"
     showguides="false" /><defs
     id="defs1"><inkscape:path-effect
       effect="simplify"
       id="path-effect2"
       is_visible="true"
       lpeversion="1.3"
       threshold="81.924885"
       steps="1"
       smooth_angles="0"
       helper_size="10"
       simplify_individual_paths="false"
       simplify_just_coalesce="false" /><inkscape:path-effect
       effect="simplify"
       id="path-effect1"
       is_visible="true"
       lpeversion="1.3"
       threshold="100"
       steps="1"
       smooth_angles="0"
       helper_size="0"
       simplify_individual_paths="false"
       simplify_just_coalesce="false" /><filter
       inkscape:collect="always"
       style="color-interpolation-filters:sRGB"
       id="filter10"
       x="-0.069201546"
       y="-0.10724726"
       width="1.1384031"
       height="1.2144945"><feGaussianBlur
         inkscape:collect="always"
         stdDeviation="26.933438"
         id="feGaussianBlur10" /></filter><filter
       inkscape:collect="always"
       style="color-interpolation-filters:sRGB"
       id="filter11"
       x="-0.089929318"
       y="-0.13515934"
       width="1.1798586"
       height="1.2703187"><feGaussianBlur
         inkscape:collect="always"
         stdDeviation="11.708948"
         id="feGaussianBlur11" /></filter><filter
       inkscape:collect="always"
       style="color-interpolation-filters:sRGB"
       id="filter1"
       x="-0.10515862"
       y="-0.15472207"
       width="1.210181"
       height="1.309965"><feGaussianBlur
         inkscape:collect="always"
         stdDeviation="4.8738362"
         id="feGaussianBlur1" /></filter></defs><g
     inkscape:label="Слой 1"
     inkscape:groupmode="layer"
     id="layer1"
     transform="translate(-1987.2026,-2547.742)"><path
       style="mix-blend-mode:normal;fill:#61847f;fill-opacity:1;stroke:none;stroke-width:4.18253;stroke-linecap:butt;stroke-linejoin:miter;stroke-dasharray:none;stroke-opacity:1;filter:url(#filter11)"
       d="m 2219.1086,2745.8334 c -21.1502,2.713 -34.9057,-33.6159 -56.0474,-30.837 -11.457,1.5059 -13.948,20.6937 -25.0227,23.9923 -29.7956,8.8746 -71.7659,-41.0775 -91.6688,-17.1943 -8.515,10.2179 19.3825,24.9546 14.3073,37.249 -7.5654,18.3267 -48.6377,5.3068 -54.2848,24.3124 -5.5471,18.6689 30.3273,29.6921 31.631,49.124 1.399,20.8521 -37.7504,39.1019 -26.597,56.7759 12.5739,19.925 49.194,-9.1847 70.6807,0.4813 6.9243,3.115 8.0982,14.3255 15.226,16.9412 10.3984,3.816 21.9362,-5.8628 32.926,-4.48 17.4031,2.1898 31.6284,23.5655 48.7577,19.7903 14.4593,-3.1867 17.0292,-25.9385 30.3224,-32.4594 22.6747,-11.1229 62.5497,14.7047 75.4427,-7.0124 8.2957,-13.9733 -24.4286,-29.3633 -19.2801,-44.7765 6.4208,-19.2221 51.7325,-9.9412 52.7787,-30.1803 0.8306,-16.0682 -36.7491,-12.2528 -39.2082,-28.1535 -1.8729,-12.1105 25.5104,-17.7238 21.9899,-29.4617 -3.3007,-11.0052 -23.2964,-4.7282 -32.4162,-11.7168 -7.6343,-5.8502 -6.959,-22.6786 -16.5278,-23.6519 -15.0756,-1.5335 -17.979,29.3295 -33.0094,31.2574 z"
       id="path4-3"
       sodipodi:nodetypes="aaaaaaaaaaaaaaaaaaaaa"
       transform="matrix(0.94888832,0,0,0.94888832,110.44918,5.675844)" /><path
       style="fill:#6c9d96;fill-opacity:1;stroke:#56817b;stroke-width:3.96875;stroke-linecap:butt;stroke-linejoin:miter;stroke-dasharray:none;stroke-opacity:1"
       d="m 2219.1086,2597.6011 c -21.1502,2.713 -34.9057,-33.6159 -56.0474,-30.837 -11.457,1.5059 -13.948,20.6937 -25.0227,23.9923 -29.7956,8.8746 -71.7659,-41.0775 -91.6688,-17.1943 -8.515,10.2179 19.3825,24.9546 14.3073,37.249 -7.5654,18.3267 -48.6377,5.3068 -54.2848,24.3124 -5.5471,18.6689 30.3273,29.6921 31.631,49.124 1.399,20.8521 -37.7504,39.1019 -26.597,56.7759 12.5739,19.925 49.194,-9.1847 70.6807,0.4813 6.9243,3.115 8.0982,14.3255 15.226,16.9412 10.3984,3.816 21.9362,-5.8628 32.926,-4.48 17.4031,2.1898 31.6284,23.5655 48.7577,19.7903 14.4593,-3.1867 17.0292,-25.9385 30.3224,-32.4594 22.6747,-11.1229 62.5497,14.7047 75.4427,-7.0124 8.2957,-13.9733 -24.4286,-29.3633 -19.2801,-44.7765 6.4208,-19.2221 51.7325,-9.9412 52.7787,-30.1803 0.8306,-16.0682 -36.7491,-12.2528 -39.2082,-28.1535 -1.8729,-12.1105 25.5104,-17.7238 21.9899,-29.4617 -3.3007,-11.0052 -23.2964,-4.7282 -32.4162,-11.7168 -7.6343,-5.8502 -6.959,-22.6786 -16.5278,-23.6519 -15.0756,-1.5335 -17.979,29.3295 -33.0094,31.2574 z"
       id="path4"
       sodipodi:nodetypes="aaaaaaaaaaaaaaaaaaaaa" /><path
       style="fill:#8bb1ac;fill-opacity:1;stroke:#c2d6d3;stroke-width:3.96875;stroke-linecap:butt;stroke-linejoin:miter;stroke-dasharray:none;stroke-opacity:1"
       d="m 2222.9363,2647.1822 c 6.2164,19.9207 56.8899,-13.4372 62.449,6.6754 5.0792,18.3758 -40.535,16.0464 -45.8763,34.3483 -3.7595,12.8818 22.7592,27.2698 14.2436,37.6608 -15.152,18.489 -49.647,-22.2532 -70.958,-11.3508 -12.2049,6.2437 -5.2407,32.7699 -18.3827,36.6945 -21.8493,6.525 -36.8419,-29.6899 -59.1973,-34.2019 -22.6289,-4.5671 -57.8577,28.9593 -68.7181,8.6571 -6.866,-12.8355 27.2536,-18.423 28.7795,-32.8884 2.1383,-20.2721 -38.3042,-34.8849 -29.8337,-53.4391 6.6042,-14.4661 38.3807,3.5902 46.8034,-9.9054 6.6117,-10.594 -18.3054,-27.661 -9.2482,-36.2741 17.7004,-16.8325 46.3861,26.8066 70.2212,21.2994 12.7957,-2.9565 15.6727,-26.369 28.8007,-26.7991 13.671,-0.4478 18.804,21.5326 31.7665,25.8847 19.2678,6.4692 51.6411,-26.2643 60.958,-2.1553 6.6026,17.0852 -47.2632,18.3115 -41.8076,35.7939 z"
       id="path3"
       sodipodi:nodetypes="aaaaaaaaaaaaaaasa" /><path
       style="fill:#85ada8;fill-opacity:1;stroke:#4c736d;stroke-width:3.96875;stroke-linecap:butt;stroke-linejoin:miter;stroke-dasharray:none;stroke-opacity:1"
       d="m 2111.4655,2656.3221 c 5.8724,-7.3856 -5.6071,-24.0482 2.8984,-28.1711 14.8013,-7.1746 25.525,29.3502 41.7041,26.3626 9.4125,-1.7381 7.622,-22.2059 17.1621,-22.9861 9.0495,-0.7401 18.8887,9.825 19.6165,18.8684 0.6073,7.5459 -16.7452,11.255 -13.6396,18.1591 3.2856,7.3044 17.6721,-3.0267 23.9488,1.9485 6.2357,4.9427 12.0513,16.3234 7.3162,22.7221 -10.2766,13.8873 -36.3793,-8.324 -51.8784,-0.6638 -8.1662,4.0359 -7.3113,20.3918 -16.2951,21.9128 -7.3964,1.2521 -15.7484,-5.6913 -18.6229,-12.6165 -4.0469,-9.7494 14.8113,-25.3973 5.9329,-31.1072 -11.0636,-7.1154 -19.4751,26.1221 -32.2047,22.8069 -9.9672,-2.5958 -17.3029,-18.3989 -13.3021,-27.8892 3.7398,-8.8711 21.3615,-1.7974 27.3638,-9.3465 z"
       id="path1"
       sodipodi:nodetypes="aaaaaaaaaaaaaaa" /><path
       style="mix-blend-mode:normal;fill:none;fill-opacity:1;stroke:#43706b;stroke-width:3.73819;stroke-linecap:butt;stroke-linejoin:miter;stroke-dasharray:none;stroke-opacity:1;filter:url(#filter1)"
       d="m 2111.4655,2656.3221 c 5.8724,-7.3856 -5.6071,-24.0482 2.8984,-28.1711 14.8013,-7.1746 25.525,29.3502 41.7041,26.3626 9.4125,-1.7381 7.622,-22.2059 17.1621,-22.9861 9.0495,-0.7401 18.8887,9.825 19.6165,18.8684 0.6073,7.5459 -16.7452,11.255 -13.6396,18.1591 3.2856,7.3044 17.6721,-3.0267 23.9488,1.9485 6.2357,4.9427 12.0513,16.3234 7.3162,22.7221 -10.2766,13.8873 -36.3793,-8.324 -51.8784,-0.6638 -8.1662,4.0359 -7.3113,20.3918 -16.2951,21.9128 -7.3964,1.2521 -15.7484,-5.6913 -18.6229,-12.6165 -4.0469,-9.7494 14.8113,-25.3973 5.9329,-31.1072 -11.0636,-7.1154 -19.4751,26.1221 -32.2047,22.8069 -9.9672,-2.5958 -17.3029,-18.3989 -13.3021,-27.8892 3.7398,-8.8711 21.3615,-1.7974 27.3638,-9.3465 z"
       id="path5"
       sodipodi:nodetypes="aaaaaaaaaaaaaaa"
       transform="matrix(1.0615022,0,0,1.061849,-131.66899,-162.46724)" /><path
       style="mix-blend-mode:normal;fill:#a4c3bf;fill-opacity:1;stroke:none;stroke-width:15;stroke-linecap:round;stroke-linejoin:round;stroke-miterlimit:4.7;stroke-dasharray:none;stroke-opacity:1;filter:url(#filter10)"
       d="m 492.83836,647.03391 c -84.59523,5.45133 -186.2166,89.78365 -222.00195,44.29003 -33.41302,-42.4778 82.00125,-59.12841 102.72825,-117.23718 3.92955,-11.01664 3.89039,-16.92228 -0.21746,-32.7963 -16.2287,-62.71286 -165.98466,-151.44038 -97.78376,-188.12321 31.11473,-16.73554 130.20773,22.63195 161.46617,-21.89229 29.86653,-42.54159 -54.51708,-109.10685 -36.56033,-133.15793 8.95067,-11.98845 15.16313,-14.71121 33.56628,-14.71121 59.75235,0 133.66795,94.11054 211.19938,94.59952 67.49193,0.42568 73.818,-78.64411 111.69324,-97.9666 48.48686,-24.73616 73.2644,65.88926 125.46341,90.27616 62.35785,29.13295 166.35321,-58.82093 211.97611,-34.30277 8.7424,4.69829 17.9533,18.05928 19.6476,28.50035 1.0547,6.49891 0.1213,8.98604 -5.9795,15.93455 -26.1945,29.83402 -130.8049,46.45034 -149.95318,86.00536 -11.62344,24.01084 1.74346,49.92558 29.32821,56.85925 16.77087,4.21551 46.21397,1.04305 95.34647,-10.27347 52.6645,-12.13004 81.7968,-14.78699 94.7479,-8.64128 14.4944,6.87802 18.776,23.04909 9.6608,36.4868 -22.6584,33.40315 -151.4808,43.86682 -168.5552,102.60077 -18.3645,63.1721 103.3303,120.73357 40.2383,151.27597 -43.4112,21.015 -125.69842,-46.81264 -191.20362,-60.69661 -39.48471,-8.36887 -69.31138,2.54797 -83.50865,30.56494 -19.69648,39.35927 -5.58565,109.81701 -60.05398,113.84461 C 645.66551,781.592 595.53563,640.41607 492.83836,647.03391 Z m 246.7876,-63.82972 c 59.65801,-19.81517 169.98577,60.50281 219.95197,9.53887 42.07167,-42.91178 -9.4309,-125.4339 -49.32317,-125.37734 -36.29214,0.0504 -87.96666,20.15083 -101.0444,0.19169 -10.51118,-16.04208 89.87241,-27.23532 78.20131,-86.29797 -10.25989,-51.92112 -69.74625,-96.51105 -106.85453,-80.09629 -38.58864,17.06959 -32.50211,94.2476 -69.67138,99.23306 -44.3985,5.95507 -99.87824,-98.58309 -141.30933,-116.91004 -0.76531,-0.33853 -77.12617,-33.87735 -58.02887,70.06722 23.70959,129.04874 -93.38607,33.80722 -124.05621,101.99324 -13.96827,31.05434 -0.40689,84.39933 28.87311,113.57516 92.97072,92.64005 133.44951,-128.05351 182.62251,-107.37779 9.99432,4.20229 12.71058,8.80151 11.5066,19.48318 -23.59478,73.2037 -91.44506,170.0984 21.74329,202.53454 71.27167,17.60436 59.64606,-84.6998 107.3891,-100.55753 z"
       id="path9"
       transform="matrix(0.26458333,0,0,0.26458333,1968.0821,2543.4262)"
       sodipodi:nodetypes="ssssssssssssssssssssssssssscssssssssssss" /></g></svg>
