<?xml version="1.0" encoding="UTF-8" standalone="no"?>
<!-- Created with Inkscape (http://www.inkscape.org/) -->

<svg
   width="2370.5981"
   height="911.50629"
   viewBox="0 0 627.22074 241.16937"
   version="1.1"
   id="svg1"
   sodipodi:docname="Contact_OutlineTitleDecor.svg"
   xml:space="preserve"
   inkscape:version="1.3 (0e150ed6c4, 2023-07-21)"
   xmlns:inkscape="http://www.inkscape.org/namespaces/inkscape"
   xmlns:sodipodi="http://sodipodi.sourceforge.net/DTD/sodipodi-0.dtd"
   xmlns="http://www.w3.org/2000/svg"
   xmlns:svg="http://www.w3.org/2000/svg"><sodipodi:namedview
     id="namedview1"
     pagecolor="#505050"
     bordercolor="#000000"
     borderopacity="1"
     inkscape:showpageshadow="0"
     inkscape:pageopacity="0"
     inkscape:pagecheckerboard="0"
     inkscape:deskcolor="#747474"
     inkscape:document-units="mm"
     inkscape:zoom="0.22627417"
     inkscape:cx="1697.0563"
     inkscape:cy="232.01941"
     inkscape:window-width="1920"
     inkscape:window-height="1009"
     inkscape:window-x="-8"
     inkscape:window-y="-8"
     inkscape:window-maximized="1"
     inkscape:current-layer="layer1" /><defs
     id="defs1" /><g
     inkscape:label="Слой 1"
     inkscape:groupmode="layer"
     id="layer1"
     transform="translate(-11077.797,-135.00321)"><path
       id="rect187"
       style="color:#000000;fill:#222b25;stroke-linecap:square;stroke-miterlimit:4.7;-inkscape-stroke:none"
       d="m -124.05168,-11077.68 h -184.82137 c -30.85312,0 -55.783,-24.836 -55.783,-55.595 l -7e-5,-515.848 c 0,-30.759 24.92974,-55.596 55.78286,-55.596 h 185.44149 l -0.005,5.293 h -185.4358 c -28.02313,0 -50.49267,22.394 -50.49267,50.303 l 7e-5,515.848 c 0,27.909 22.46929,50.304 50.49242,50.304 h 184.82654 z"
       transform="matrix(-9.8501295e-4,-0.99999951,-0.99999951,-9.8862455e-4,0,0)" /><path
       id="rect188"
       style="color:#000000;fill:#222b25;stroke-linecap:square;stroke-miterlimit:4.7;-inkscape-stroke:none"
       d="m -3008.4579,-10701.832 h -137.7859 c -64.8987,0 -117.2384,-52.122 -117.2384,-116.775 v -278.774 c 0,-64.653 52.3392,-116.773 117.2379,-116.773 h 0.4552 l 1.4184,5.291 h -1.8735 c -62.07,0 -111.9471,49.681 -111.9471,111.482 v 278.774 c 0,61.801 49.8773,111.484 111.9474,111.484 h 136.3678 z"
       transform="matrix(-0.25870735,-0.96595575,-0.96589588,0.25893079,0,0)" /><path
       id="rect189"
       style="color:#000000;fill:#222b25;stroke-linecap:square;stroke-miterlimit:4.7;-inkscape-stroke:none"
       d="m -5716.5264,-9627.8627 c -22.0102,35.5806 -61.4498,59.2319 -106.6007,59.2319 -69.2894,0 -125.1621,-55.6749 -125.1621,-124.7383 l 1e-4,-81.8851 c 0,-52.994 32.9139,-98.0705 79.5267,-116.1935 l 2.6653,4.6149 c -45.0728,17.1341 -76.9011,60.4768 -76.9011,111.579 l 3e-4,81.8848 c 0,66.2134 53.4113,119.4451 119.8707,119.4451 44.3427,0 82.8515,-23.7149 103.5885,-59.1544 z"
       transform="matrix(-0.49972813,-0.86618231,-0.86586827,0.50027206,0,0)" /></g></svg>
