<?xml version="1.0" encoding="UTF-8" standalone="no"?>
<!-- Created with Inkscape (http://www.inkscape.org/) -->

<svg
   width="7962.688"
   height="2417.8823"
   viewBox="0 0 2106.7945 639.73136"
   version="1.1"
   id="svg1"
   sodipodi:docname="Contact_BackgroundDecor.svg"
   xml:space="preserve"
   inkscape:version="1.3 (0e150ed6c4, 2023-07-21)"
   xmlns:inkscape="http://www.inkscape.org/namespaces/inkscape"
   xmlns:sodipodi="http://sodipodi.sourceforge.net/DTD/sodipodi-0.dtd"
   xmlns="http://www.w3.org/2000/svg"
   xmlns:svg="http://www.w3.org/2000/svg"><sodipodi:namedview
     id="namedview1"
     pagecolor="#505050"
     bordercolor="#000000"
     borderopacity="1"
     inkscape:showpageshadow="0"
     inkscape:pageopacity="0"
     inkscape:pagecheckerboard="0"
     inkscape:deskcolor="#747474"
     inkscape:document-units="mm"
     inkscape:zoom="0.32000001"
     inkscape:cx="4846.8748"
     inkscape:cy="951.56246"
     inkscape:window-width="1920"
     inkscape:window-height="1009"
     inkscape:window-x="-8"
     inkscape:window-y="-8"
     inkscape:window-maximized="1"
     inkscape:current-layer="layer1" /><defs
     id="defs1"><filter
       inkscape:collect="always"
       style="color-interpolation-filters:sRGB"
       id="filter1"
       x="-0.038381004"
       y="-0.20048565"
       width="1.076762"
       height="1.40096"><feGaussianBlur
         inkscape:collect="always"
         stdDeviation="21.584766"
         id="feGaussianBlur1" /></filter><filter
       inkscape:collect="always"
       style="color-interpolation-filters:sRGB"
       id="filter2"
       x="-0.0196402"
       y="-0.10259189"
       width="1.0392804"
       height="1.2051811"><feGaussianBlur
         inkscape:collect="always"
         stdDeviation="14.292339"
         id="feGaussianBlur2" /></filter></defs><g
     inkscape:label="Слой 1"
     inkscape:groupmode="layer"
     id="layer1"
     transform="translate(-9773.3127,-1585.0615)"><path
       style="fill:none;stroke:#c5d8d6;stroke-width:132.292;stroke-linecap:round;stroke-linejoin:miter;stroke-dasharray:none;stroke-opacity:1"
       d="m 11774.393,1690.7755 c 0,0 -164.735,246.3332 -294.236,255.0289 -146.938,9.8666 -222.462,-234.7297 -369.544,-242.1363 -221.478,-11.1529 -368.655,299.0362 -590.275,306.8645 -121.885,4.3053 -214.089,-154.2169 -335.733,-145.4405 -97.092,7.005 -170.419,107.4387 -248.5307,153.3496 -96.0792,56.4714 -162.7616,55.4194 -162.7616,55.4194"
       id="path1"
       sodipodi:nodetypes="caaaasc" /><path
       style="mix-blend-mode:normal;fill:none;stroke:#f6f5ee;stroke-width:50;stroke-linecap:round;stroke-linejoin:miter;stroke-dasharray:none;stroke-opacity:1;filter:url(#filter1)"
       d="m 11781.408,1663.8815 c 0,0 -164.735,246.3332 -294.236,255.0289 -146.938,9.8666 -222.462,-234.7297 -369.544,-242.1363 -221.478,-11.1529 -368.655,299.0362 -590.275,306.8645 -121.885,4.3053 -214.089,-154.2169 -335.733,-145.4405 -97.092,7.005 -170.419,107.4387 -248.5299,153.3496 -96.0792,56.4714 -162.7616,55.4194 -162.7616,55.4194"
       id="path2"
       sodipodi:nodetypes="caaaasc" /><path
       style="mix-blend-mode:normal;fill:none;stroke:#c4dbd8;stroke-width:10;stroke-linecap:round;stroke-linejoin:miter;stroke-dasharray:none;stroke-opacity:1;filter:url(#filter2)"
       d="m 11770.885,1756.5187 c 0,0 -164.735,246.3332 -294.236,255.0289 -146.938,9.8666 -222.462,-234.7297 -369.544,-242.1363 -221.478,-11.1529 -368.655,299.0362 -590.275,306.8645 -121.885,4.3053 -214.089,-154.2169 -335.733,-145.4405 -97.092,7.005 -170.419,107.4387 -248.5306,153.3496 -96.0792,56.4714 -162.7616,55.4194 -162.7616,55.4194"
       id="path23"
       sodipodi:nodetypes="caaaasc" /></g></svg>
