<?xml version="1.0" encoding="UTF-8" standalone="no"?>
<!-- Created with Inkscape (http://www.inkscape.org/) -->

<svg
   width="2318.0156"
   height="847.54688"
   viewBox="0 0 613.30829 224.24678"
   version="1.1"
   id="svg1"
   sodipodi:docname="Contact_FooterDecor.svg"
   xml:space="preserve"
   inkscape:version="1.3 (0e150ed6c4, 2023-07-21)"
   xmlns:inkscape="http://www.inkscape.org/namespaces/inkscape"
   xmlns:sodipodi="http://sodipodi.sourceforge.net/DTD/sodipodi-0.dtd"
   xmlns="http://www.w3.org/2000/svg"
   xmlns:svg="http://www.w3.org/2000/svg"><sodipodi:namedview
     id="namedview1"
     pagecolor="#505050"
     bordercolor="#000000"
     borderopacity="1"
     inkscape:showpageshadow="0"
     inkscape:pageopacity="0"
     inkscape:pagecheckerboard="0"
     inkscape:deskcolor="#747474"
     inkscape:document-units="mm"
     inkscape:zoom="0.22627417"
     inkscape:cx="1272.7922"
     inkscape:cy="757.93008"
     inkscape:window-width="1920"
     inkscape:window-height="1009"
     inkscape:window-x="-8"
     inkscape:window-y="-8"
     inkscape:window-maximized="1"
     inkscape:current-layer="layer1" /><defs
     id="defs1" /><g
     inkscape:label="Слой 1"
     inkscape:groupmode="layer"
     id="layer1"
     transform="translate(-11091.248,-3011.8699)"><g
       id="g122"
       transform="matrix(0.24591404,0.91776368,0.91414816,-0.24494526,9240.1313,1827.5374)"
       style="stroke:#000000;stroke-width:2.28794924;stroke-dasharray:none;stroke-opacity:1"><path
         id="rect120"
         style="fill:#89a9a4;fill-opacity:1;stroke:#000000;stroke-width:2.28794924;stroke-linecap:square;stroke-linejoin:miter;stroke-miterlimit:4.7;stroke-dasharray:none;stroke-opacity:1"
         d="m 1246.3666,2010.5934 c 0,-30.4135 24.4844,-54.8981 54.8979,-54.8981 l 178.1638,2e-4 -0.635,644.6283 -177.5284,3e-4 c -30.4135,0 -54.8986,-24.4847 -54.8986,-54.8982 z"
         transform="rotate(-15)" /><path
         id="rect121"
         style="fill:#b4cbc6;fill-opacity:1;stroke:#000000;stroke-width:2.28794924;stroke-linecap:square;stroke-linejoin:miter;stroke-miterlimit:4.7;stroke-dasharray:none;stroke-opacity:1"
         d="m 1860.5588,2011.2534 c -3.2218,-10.4021 -4.9558,-21.4705 -4.9558,-32.9588 l -5e-4,-270.1487 c 0,-59.0655 45.8773,-106.8931 104.0672,-110.2698 l 131.049,491.0157 -124.5181,5e-4 c -49.7828,0 -91.6804,-32.5633 -105.6418,-77.6389 z" /><path
         id="rect122"
         style="fill:#c1d2d0;fill-opacity:1;stroke:#000000;stroke-width:2.28795045;stroke-linecap:square;stroke-linejoin:miter;stroke-miterlimit:4.7;stroke-dasharray:none;stroke-opacity:1"
         d="m 2365.4927,1403.1923 c -11.3738,-18.7574 -17.9124,-40.8019 -17.9124,-64.4294 v -83.2109 c 0,-33.8854 13.4663,-64.4974 35.3389,-86.8451 l 157.4098,273.4935 c -19.6433,13.0356 -43.2376,20.6319 -68.679,20.6319 -45.107,0 -84.4436,-23.8303 -106.1573,-59.64 z"
         transform="matrix(0.96573695,0.25952293,-0.2581168,0.96611372,0,0)" /></g></g></svg>
