<?xml version="1.0" encoding="UTF-8" standalone="no"?>
<!-- Created with Inkscape (http://www.inkscape.org/) -->

<svg
   width="587.23401"
   height="223.382"
   viewBox="0 0 587.234 223.382"
   version="1.1"
   id="svg1"
   sodipodi:docname="Contact_OutlineTitleDecor.svg"
   xml:space="preserve"
   inkscape:version="1.3 (0e150ed6c4, 2023-07-21)"
   xmlns:inkscape="http://www.inkscape.org/namespaces/inkscape"
   xmlns:sodipodi="http://sodipodi.sourceforge.net/DTD/sodipodi-0.dtd"
   xmlns="http://www.w3.org/2000/svg"
   xmlns:svg="http://www.w3.org/2000/svg"><sodipodi:namedview
     id="namedview1"
     pagecolor="#505050"
     bordercolor="#000000"
     borderopacity="1"
     inkscape:showpageshadow="0"
     inkscape:pageopacity="0"
     inkscape:pagecheckerboard="0"
     inkscape:deskcolor="#747474"
     inkscape:document-units="mm"
     inkscape:zoom="1.28"
     inkscape:cx="339.45312"
     inkscape:cy="148.82812"
     inkscape:window-width="1920"
     inkscape:window-height="1009"
     inkscape:window-x="-8"
     inkscape:window-y="-8"
     inkscape:window-maximized="1"
     inkscape:current-layer="layer1" /><defs
     id="defs1"><inkscape:path-effect
       effect="simplify"
       id="path-effect2"
       is_visible="true"
       lpeversion="1.3"
       threshold="48.466692"
       steps="1"
       smooth_angles="0"
       helper_size="10"
       simplify_individual_paths="false"
       simplify_just_coalesce="false" /><inkscape:path-effect
       effect="simplify"
       id="path-effect1"
       is_visible="true"
       lpeversion="1.3"
       threshold="100"
       steps="1"
       smooth_angles="0"
       helper_size="10"
       simplify_individual_paths="false"
       simplify_just_coalesce="false" /><filter
       inkscape:collect="always"
       style="color-interpolation-filters:sRGB"
       id="filter2"
       x="-0.048006006"
       y="-0.1736502"
       width="1.096012"
       height="1.3473004"><feGaussianBlur
         inkscape:collect="always"
         stdDeviation="9.3784539"
         id="feGaussianBlur2" /></filter><filter
       inkscape:collect="always"
       style="color-interpolation-filters:sRGB"
       id="filter3"
       x="-0.050123109"
       y="-0.14646827"
       width="1.1002462"
       height="1.2929365"><feGaussianBlur
         inkscape:collect="always"
         stdDeviation="11.575841"
         id="feGaussianBlur3" /></filter></defs><g
     inkscape:label="Слой 1"
     inkscape:groupmode="layer"
     id="layer1"
     transform="translate(-11077.797,-135.00321)"><path
       style="fill:#6c9d96;fill-opacity:1;stroke:#4c736d;stroke-width:5.29167;stroke-linecap:butt;stroke-linejoin:miter;stroke-dasharray:none;stroke-opacity:1"
       d="m 11117.96,132.0522 c 0,0 -27.791,78.12385 -4.475,103.71377 13.021,14.29061 41.128,-6.58415 57.955,2.94654 25.796,14.60993 20.518,67.58363 49.501,73.83852 32.648,7.04562 51.898,-49.64655 85.154,-52.7634 45.629,-4.27669 83.543,59.35823 128.281,49.42347 20.138,-4.47201 22.471,-41.5281 42.872,-44.59054 22.671,-3.40323 37.941,39.18449 60.117,33.37663 17.856,-4.67631 13.344,-37.34338 28.982,-47.14084 16.305,-10.21545 45.742,9.48865 57.45,-5.77243 23.249,-30.30556 -18.58,-113.03172 -18.58,-113.03172"
       id="path20"
       sodipodi:nodetypes="caaaaaaaaac" /><path
       style="fill:#9cbdb9;fill-opacity:1;stroke-width:26.5241;stroke-linecap:round;stroke-linejoin:round;stroke-miterlimit:4.7;filter:url(#filter3)"
       d="M 132.34477,186.43032 C 101.71986,158.00477 98.802962,82.252982 37.244576,110.89537 -3.1659023,99.433227 7.5587165,-11.77001 54.070284,-1.3289293 103.37969,14.749178 45.797608,54.630941 36.998505,77.217967 62.735559,110.82403 128.93344,50.454889 137.5101,114.72276 c 50.56687,19.24904 108.93248,-53.476438 154.21758,10.09544 51.50298,18.79627 90.55674,-61.697025 146.06845,-17.09713 57.71693,32.85788 83.95353,-23.891487 52.8324,-68.3646 12.96215,-47.4139686 65.16631,-54.286486 65.55614,3.765008 22.78602,41.568475 8.31247,98.708862 -47.34581,75.821702 -27.98268,16.7598 -37.92427,86.29574 -76.35944,29.41819 -48.18969,-45.3175 -63.66164,81.55416 -118.66175,23.66604 -41.35327,-39.68244 -110.38389,-59.94754 -144.13798,-0.48378 -9.65925,9.50005 -22.76483,19.69298 -37.33492,14.88669 z"
       id="path2"
       transform="matrix(0.94300987,0,0,0.94206769,11094.309,133.49202)"
       sodipodi:nodetypes="sssssssssssssssssssssssssssss"
       inkscape:path-effect="#path-effect2"
       inkscape:original-d="M 132.34477,186.43032 C 112.12849,179.15994 109.78458,142.95635 96.314927,122.31452 83.394713,102.51471 69.783566,105.00877 50.270873,108.91204 30.719749,113.25624 20.232999,112.11727 14.809091,89.704594 8.2666295,59.359521 27.670054,-0.62860078 27.15301,-0.95828835 26.802932,-1.181512 35.465825,-1.3641496 46.403883,-1.3641496 c 10.938058,0 19.570891,0.2008601 19.184075,0.44635571 C 63.79913,0.21749602 78.020738,24.000413 71.99737,35.355339 64.421104,49.637727 31.546258,59.883862 36.998505,77.217967 c 1.450492,4.61149 4.384315,8.08012 8.693663,10.278416 17.503102,8.928751 52.031526,-12.102531 70.266082,-4.941014 17.27811,6.785904 9.92723,34.826661 35.39927,39.160011 27.89172,4.74495 55.65199,-26.561296 83.62661,-26.47788 28.76182,0.08572 47.50251,34.28142 77.41344,35.80721 33.38549,1.70303 37.831,-38.234738 75.13009,-36.678476 38.3617,1.600605 78.40407,34.890616 107.63209,16.963496 25.40995,-16.023202 0.012,-44.518423 -4.88366,-65.262858 -1.75275,-18.034731 19.33725,-35.215088 32.02289,-45.10358319 0.14041,-0.10169229 -0.0481,-0.67077393 -0.419,-1.2646259 -0.65964,-1.05624741 -0.46093,-1.07954691 9.13596,-1.07127161 5.95931,0.00514 9.50496,0.2017369 9.0325,0.50083161 -0.52106,0.32986869 46.83183,104.36547709 14.64079,121.16542709 -13.14644,6.86092 -44.17287,-11.36663 -60.12735,5.87855 -13.82992,14.94875 -9.76146,45.63265 -29.05142,45.63265 -19.52736,0 -32.98474,-33.64029 -54.83307,-35.47198 -25.62324,-2.14819 -30.12853,37.73412 -47.06795,45.92008 -40.79706,19.71498 -91.87056,-61.64209 -144.87122,-49.98758 -34.92606,9.48621 -53.94226,63.99015 -86.39341,54.16495 z" /><path
       style="fill:#8bb1ac;fill-opacity:1;stroke:#c2d6d3;stroke-width:5.29167;stroke-linecap:butt;stroke-linejoin:miter;stroke-dasharray:none;stroke-opacity:1"
       d="m 11158.064,132.0522 c 0,0 10.414,21.3228 8.099,32.11893 -3.808,17.77133 -41.453,26.27864 -33.833,42.78161 10.467,22.66797 52.875,-8.94297 74.912,2.82667 12.52,6.68699 11.578,29.77277 24.976,34.46548 28.224,9.88568 56.669,-26.28823 86.48,-23.88491 27.117,2.18613 47.011,35.79915 74.159,34.04671 21.203,-1.36863 33.353,-28.85264 54.01,-33.81485 38.689,-9.29342 92.133,39.86855 118.915,10.46806 14.357,-15.7611 -17.149,-42.30173 -11.586,-62.8747 4.145,-15.32863 31.07,-36.133 31.07,-36.133"
       id="path19"
       sodipodi:nodetypes="caaaaaaaaac" /><path
       style="fill:#9abcb8;fill-opacity:1;stroke:#3c5b57;stroke-width:5.29167;stroke-linecap:butt;stroke-linejoin:miter;stroke-dasharray:none;stroke-opacity:1"
       d="m 11194.847,132.0522 c 0,0 7.035,14.0092 8.238,21.63015 1.656,10.49772 -10.917,26.68968 -1.622,31.84151 16.348,9.06085 27.383,-34.06649 45.977,-32.10047 22.134,2.34026 23.846,53.90684 45.51,48.80975 14.54,-3.42106 -1.145,-37.3306 12.701,-42.93479 22.928,-9.28096 39.914,35.73664 64.644,36.42292 28.555,0.79243 48.385,-40.05029 76.866,-37.8522 26.384,2.03631 40.116,54.65062 64.971,45.5763 13.094,-4.78017 4.241,-28.03843 10.665,-40.39766 6.4,-12.31113 26.839,-31.82818 26.839,-31.82818"
       id="path17"
       sodipodi:nodetypes="caaaaaaaaac" /><path
       style="fill:#85ada8;fill-opacity:1;stroke-width:26.5241;stroke-linecap:round;stroke-linejoin:round;stroke-miterlimit:4.7;filter:url(#filter2)"
       d="M 310.46407,125.28245 C 260.71047,57.852674 203.02879,98.381666 144.43971,113.29991 145.42133,39.204273 -11.811022,116.16248 70.807376,46.025309 67.863564,7.249027 99.347204,-30.752332 109.63814,28.269275 c -10.812982,83.249345 68.97795,-61.230804 77.43124,30.239877 44.01992,62.394608 23.73828,-80.080134 72.22833,-9.885534 58.05842,49.951203 132.507,-73.922201 172.49143,37.865018 44.0419,2.509977 9.72888,-110.310946 83.87694,-87.8697039 C 446.30512,24.400407 547.58194,145.46919 442.33154,99.985537 382.29032,56.322646 357.99775,99.464377 310.46407,125.28245 Z"
       id="path1"
       transform="matrix(0.94300987,0,0,0.94206769,11094.309,133.49202)"
       sodipodi:nodetypes="sssssssssscssssssssssssssscsssss"
       inkscape:path-effect="#path-effect1"
       inkscape:original-d="m 310.46407,125.28245 c -20.8563,-2.88431 -41.58515,-37.467556 -62.90992,-43.521328 -5.26427,-1.494442 -12.335,-1.933417 -18.00373,-1.117736 -26.32607,3.788111 -64.54873,46.263794 -85.11071,32.656524 -7.79188,-5.15642 -10.11251,-22.667078 -18.7794,-31.333959 -4.70909,-4.709093 -10.19999,-6.559642 -19.46356,-6.559642 C 88.588585,73.623145 50.372044,97.199872 42.401451,74.06305 41.013311,61.747506 73.940986,51.961472 78.657192,33.809979 c 3.339075,-12.851266 -7.6703,-33.95798595 -7.6703,-34.9835721 0,-0.1141112 7.321786,-0.2074748 16.270635,-0.2074748 h 16.270633 c 2.43757,8.647877 5.91363,28.2485059 6.10998,29.6503429 1.42935,10.204885 -5.27363,20.744257 -0.10581,27.191828 15.35188,14.066193 31.95062,-15.779323 40.23938,-25.202937 8.62734,-8.80366 16.34437,-8.16134 23.97298,1.995367 10.80061,13.617905 13.44937,41.832723 33.84756,43.693072 4.39941,0.01425 6.64329,-0.820791 9.07381,-3.376722 6.88441,-7.239625 2.27598,-28.438187 4.53354,-36.775105 1.58799,-5.864238 6.99265,-8.115426 14.28464,-5.949938 14.29731,4.245848 32.22081,33.126954 50.95343,38.111818 4.31472,1.148175 11.15098,1.03063 16.27485,-0.279838 25.26495,-6.461676 43.66606,-38.1362 68.75766,-38.790405 29.76334,-0.129948 52.39975,80.301235 80.65742,56.280679 9.10889,-9.070338 -0.56243,-40.784293 4.82637,-52.175266 5.56353,-11.760377 27.80088,-32.38964979 27.80088,-33.72604747 0,-0.47876633 4.0161,-0.64684843 15.45562,-0.64684843 h 15.45561 C 485.62952,25.259586 484.57957,33.869685 484.20242,42.506715 c 0,22.687261 27.32557,45.854723 11.9342,60.669365 -25.62335,24.66316 -78.63036,-25.968645 -117.67953,-21.607893 -32.29824,3.606701 -40.74133,47.483023 -67.99302,43.714283 z" /></g></svg>
