<?xml version="1.0" encoding="UTF-8" standalone="no"?>
<!-- Created with Inkscape (http://www.inkscape.org/) -->

<svg
   width="587.23401"
   height="223.382"
   viewBox="0 0 587.234 223.382"
   version="1.1"
   id="svg1"
   sodipodi:docname="Contact_OutlineTitleDecor.svg"
   xml:space="preserve"
   inkscape:version="1.3 (0e150ed6c4, 2023-07-21)"
   xmlns:inkscape="http://www.inkscape.org/namespaces/inkscape"
   xmlns:sodipodi="http://sodipodi.sourceforge.net/DTD/sodipodi-0.dtd"
   xmlns="http://www.w3.org/2000/svg"
   xmlns:svg="http://www.w3.org/2000/svg"><sodipodi:namedview
     id="namedview1"
     pagecolor="#505050"
     bordercolor="#000000"
     borderopacity="1"
     inkscape:showpageshadow="0"
     inkscape:pageopacity="0"
     inkscape:pagecheckerboard="0"
     inkscape:deskcolor="#747474"
     inkscape:document-units="mm"
     inkscape:zoom="1.8101934"
     inkscape:cx="228.70485"
     inkscape:cy="202.46456"
     inkscape:window-width="1920"
     inkscape:window-height="1009"
     inkscape:window-x="-8"
     inkscape:window-y="-8"
     inkscape:window-maximized="1"
     inkscape:current-layer="layer1" /><defs
     id="defs1"><filter
       inkscape:collect="always"
       style="color-interpolation-filters:sRGB"
       id="filter2"
       x="-0.047553936"
       y="-0.17737062"
       width="1.0951079"
       height="1.3547412"><feGaussianBlur
         inkscape:collect="always"
         stdDeviation="9.3784539"
         id="feGaussianBlur2" /></filter><filter
       inkscape:collect="always"
       style="color-interpolation-filters:sRGB"
       id="filter3"
       x="-0.050333809"
       y="-0.14707383"
       width="1.1006676"
       height="1.2941477"><feGaussianBlur
         inkscape:collect="always"
         stdDeviation="11.575841"
         id="feGaussianBlur3" /></filter></defs><g
     inkscape:label="Слой 1"
     inkscape:groupmode="layer"
     id="layer1"
     transform="translate(-11077.797,-135.00321)"><path
       style="fill:#6c9d96;fill-opacity:1;stroke:#4c736d;stroke-width:5.29167;stroke-linecap:butt;stroke-linejoin:miter;stroke-dasharray:none;stroke-opacity:1"
       d="m 11117.96,132.0522 c 0,0 -27.791,78.12385 -4.475,103.71377 13.021,14.29061 41.128,-6.58415 57.955,2.94654 25.796,14.60993 20.518,67.58363 49.501,73.83852 32.648,7.04562 51.898,-49.64655 85.154,-52.7634 45.629,-4.27669 83.543,59.35823 128.281,49.42347 20.138,-4.47201 22.471,-41.5281 42.872,-44.59054 22.671,-3.40323 37.941,39.18449 60.117,33.37663 17.856,-4.67631 13.344,-37.34338 28.982,-47.14084 16.305,-10.21545 45.742,9.48865 57.45,-5.77243 23.249,-30.30556 -18.58,-113.03172 -18.58,-113.03172"
       id="path20"
       sodipodi:nodetypes="caaaaaaaaac" /><path
       style="fill:#9cbdb9;fill-opacity:1;stroke-width:26.5241;stroke-linecap:round;stroke-linejoin:round;stroke-miterlimit:4.7;filter:url(#filter3)"
       d="m 132.34477,186.43032 c -9.74886,-3.50598 -15.53458,-12.32259 -24.09844,-36.72256 -5.32643,-15.17598 -8.07111,-21.47746 -11.931403,-27.39324 -8.256897,-12.65343 -17.713992,-17.4516 -31.379118,-15.92055 -2.596685,0.29094 -9.195907,1.42406 -14.664936,2.51807 -6.815443,1.36333 -11.594708,2.00923 -15.191747,2.05313 -4.724733,0.0577 -5.569648,-0.0934 -8.473047,-1.51518 -5.507017,-2.6967 -9.597306,-9.542884 -11.796988,-19.745396 -1.531713,-7.104351 -1.367978,-27.740981 0.3063,-38.60508 2.251081,-14.606881 6.630467,-33.099883 11.054459,-46.6800966 1.166807,-3.58171711 1.441699,-5.08532334 0.98316,-5.37770575 -0.350078,-0.22322365 8.312815,-0.40586125 19.250873,-0.40586125 10.938058,0 19.570891,0.2008601 19.184075,0.44635571 -0.545402,0.34614242 -0.376986,1.18143075 0.750134,3.72042419 4.443314,10.0091747 6.98239,19.1264777 7.065603,25.3711557 0.05044,3.786866 -0.15083,4.814762 -1.406325,7.181553 -2.157466,4.067144 -6.83621,8.434519 -16.754653,15.639638 -16.652691,12.097123 -20.808511,18.070419 -18.244212,26.22299 1.450492,4.61149 4.384315,8.08012 8.693663,10.278416 3.183611,1.624036 4.344171,1.904674 8.818042,2.132341 6.144464,0.312679 11.038289,-0.460774 26.972798,-4.262976 16.826114,-4.014952 17.40229,-4.111074 24.583012,-4.101131 5.6138,0.0078 7.1289,0.20547 9.89223,1.290752 4.78187,1.878059 7.56126,4.950985 10.91057,12.062888 7.54417,16.019203 8.79407,18.322503 11.3795,20.969983 3.4023,3.48395 6.73876,5.04339 13.1092,6.12714 4.42087,0.75208 5.96422,0.78128 10.56728,0.1999 8.48843,-1.07211 15.42304,-3.72845 33.46406,-12.81859 23.72546,-11.954299 29.25576,-13.890021 39.59527,-13.85919 11.17678,0.03331 18.49892,3.3533 38.25307,17.34457 12.07863,8.55493 14.77781,10.28151 20.80175,13.30623 7.03317,3.53146 11.5891,4.81109 18.35862,5.15641 12.39749,0.63241 19.72115,-3.06195 36.51501,-18.41964 17.27486,-15.797563 23.78845,-18.87746 38.61508,-18.258836 10.97559,0.457946 19.99316,2.684139 41.15583,10.160256 29.14072,10.29451 36.79015,12.10995 48.98113,11.6247 8.03896,-0.31998 12.38248,-1.517 17.49513,-4.82146 4.73133,-3.05801 8.19885,-6.6868 9.94089,-10.40322 1.25634,-2.680243 1.47499,-3.88418 1.4745,-8.118745 -5.5e-4,-6.556012 -1.18422,-10.225007 -8.01851,-24.859222 -5.92569,-12.688612 -7.32235,-16.379377 -8.28054,-21.881671 -1.12527,-6.461788 0.75678,-12.118253 6.74694,-20.277783 4.03878,-5.501433 19.3272,-20.517582 25.27595,-24.82580019 0.14041,-0.10169229 -0.0481,-0.67077393 -0.419,-1.2646259 -0.65964,-1.05624741 -0.46093,-1.07954691 9.13596,-1.07127161 5.95931,0.00514 9.50496,0.2017369 9.0325,0.50083161 -0.63108,0.39951809 -0.0415,2.14293359 3.12647,9.24469589 10.78242,24.1715092 17.652,45.0794262 21.20795,64.5474682 1.74119,9.532761 1.77351,26.23875 0.0627,32.402123 -2.12901,7.6698 -5.4084,12.70203 -9.75633,14.97114 -3.64157,1.90048 -11.24155,1.94737 -22.42561,0.13836 -21.72324,-3.51371 -30.3565,-2.19927 -37.70174,5.74019 -4.12651,4.46034 -6.47573,9.50805 -11.15477,23.96804 -4.12099,12.73542 -6.39979,16.98784 -10.7151,19.99523 -2.21662,1.54478 -2.75264,1.66938 -7.18155,1.66938 -7.88934,0 -10.97067,-2.03307 -27.80944,-18.34875 -13.17946,-12.77002 -18.98619,-16.4494 -27.02363,-17.12323 -4.32359,-0.36248 -8.52167,0.49454 -12.2909,2.50913 -4.06692,2.1737 -10.04669,8.92895 -14.17335,16.01142 -1.97493,3.3895 -5.2004,8.93107 -7.16772,12.3146 -4.30676,7.40705 -9.41437,13.14149 -13.43598,15.08493 -7.35339,3.55349 -18.71354,3.29715 -30.59839,-0.69046 -10.4095,-3.49261 -19.15275,-8.4815 -43.81538,-25.00107 -22.2498,-14.90339 -32.27582,-20.17594 -44.74661,-23.53163 -7.75131,-2.08576 -19.55398,-2.43667 -25.71084,-0.76442 -11.67844,3.17196 -18.30668,8.09459 -39.19935,29.11237 -19.035,19.149 -23.55833,22.69161 -32.27915,25.28053 -4.181,1.2412 -11.12481,1.13508 -14.91491,-0.22795 z"
       id="path2"
       transform="matrix(0.94300987,0,0,0.94206769,11094.309,133.49202)" /><path
       style="fill:#8bb1ac;fill-opacity:1;stroke:#c2d6d3;stroke-width:5.29167;stroke-linecap:butt;stroke-linejoin:miter;stroke-dasharray:none;stroke-opacity:1"
       d="m 11158.064,132.0522 c 0,0 10.414,21.3228 8.099,32.11893 -3.808,17.77133 -41.453,26.27864 -33.833,42.78161 10.467,22.66797 52.875,-8.94297 74.912,2.82667 12.52,6.68699 11.578,29.77277 24.976,34.46548 28.224,9.88568 56.669,-26.28823 86.48,-23.88491 27.117,2.18613 47.011,35.79915 74.159,34.04671 21.203,-1.36863 33.353,-28.85264 54.01,-33.81485 38.689,-9.29342 92.133,39.86855 118.915,10.46806 14.357,-15.7611 -17.149,-42.30173 -11.586,-62.8747 4.145,-15.32863 31.07,-36.133 31.07,-36.133"
       id="path19"
       sodipodi:nodetypes="caaaaaaaaac" /><path
       style="fill:#9abcb8;fill-opacity:1;stroke:#3c5b57;stroke-width:5.29167;stroke-linecap:butt;stroke-linejoin:miter;stroke-dasharray:none;stroke-opacity:1"
       d="m 11194.847,132.0522 c 0,0 4.751,19.89259 5.894,30.02859 0.876,7.7689 -6.273,19.93709 0.722,23.44307 16.712,8.37653 27.383,-34.06649 45.977,-32.10047 22.134,2.34026 23.846,53.90684 45.51,48.80975 14.54,-3.42106 -1.145,-37.3306 12.701,-42.93479 22.928,-9.28096 39.914,35.73664 64.644,36.42292 28.555,0.79243 48.385,-40.05029 76.866,-37.8522 26.384,2.03631 40.116,54.65062 64.971,45.5763 13.094,-4.78017 4.241,-28.03843 10.665,-40.39766 6.4,-12.31113 26.839,-31.82818 26.839,-31.82818"
       id="path17"
       sodipodi:nodetypes="caaaaaaaaac" /><path
       style="fill:#85ada8;fill-opacity:1;stroke-width:26.5241;stroke-linecap:round;stroke-linejoin:round;stroke-miterlimit:4.7;filter:url(#filter2)"
       d="m 310.46407,125.28245 c -9.52324,-1.31701 -14.75867,-4.17567 -40.87961,-22.32114 -8.02983,-5.578094 -17.37802,-10.457689 -23.20194,-12.11101 -5.26427,-1.494442 -12.335,-1.933417 -18.00373,-1.117736 -8.16363,1.174681 -15.71793,4.104357 -32.40165,12.565886 -8.58135,4.35223 -17.70533,8.78363 -20.27551,9.84755 -12.25664,5.07366 -24.64766,5.53102 -31.26192,1.15391 -3.0342,-2.00794 -5.21152,-5.49249 -9.41521,-15.067967 -4.53516,-10.330532 -6.03633,-12.938137 -9.36419,-16.265992 -4.70909,-4.709093 -10.19999,-6.559642 -19.46356,-6.559642 -6.886353,0 -12.146991,0.853964 -25.818596,4.191166 -14.20744,3.467994 -18.344669,4.20607 -23.784326,4.243094 -3.947565,0.02685 -5.237,-0.201968 -7.831826,-1.389918 C 45.072435,80.761511 42.821965,77.793839 42.401451,74.06305 41.85819,69.24325 45.074326,65.623957 58.474293,55.975391 77.395815,42.351067 81.409684,35.253199 78.436424,20.675646 77.44731,15.826129 74.678983,7.3823539 72.356198,2.1301248 71.60308,0.42719116 70.986892,-1.0594819 70.986892,-1.1735931 c 0,-0.1141112 7.321786,-0.2074748 16.270635,-0.2074748 h 16.270633 l 0.58392,2.07160187 c 0.91651,3.25156373 4.91065,23.18502003 5.52606,27.57874103 0.48293,3.44789 0.36873,4.954457 -0.87935,11.600971 -1.74829,9.310377 -1.58253,12.651333 0.77354,15.590857 2.02756,2.529675 5.99063,4.041264 9.65329,3.681949 6.36356,-0.624287 10.85979,-4.334073 20.79143,-17.154755 3.52888,-4.555416 7.93648,-9.833976 9.79466,-11.730131 8.62734,-8.80366 16.34437,-8.16134 23.97298,1.995367 1.5359,2.044883 5.67355,9.577637 9.39508,17.104067 7.27809,14.719229 9.57654,18.483821 13.48457,22.086116 3.61987,3.336671 6.42464,4.488178 10.96791,4.502889 4.39941,0.01425 6.64329,-0.820791 9.07381,-3.376722 3.36878,-3.542599 3.68949,-5.283474 3.80274,-20.641729 0.0609,-8.26316 0.35448,-14.743668 0.7308,-16.133376 1.58799,-5.864238 6.99265,-8.115426 14.28464,-5.949938 4.89019,1.452232 10.70557,5.945303 22.41054,17.314794 14.93568,14.507613 20.70508,18.711335 28.54289,20.797024 4.31472,1.148175 11.15098,1.03063 16.27485,-0.279838 8.73586,-2.234253 15.5533,-6.397361 32.17659,-19.648783 12.33008,-9.82905 15.85362,-12.301515 21.62855,-15.176741 5.73795,-2.856812 9.83243,-3.942523 14.95252,-3.964881 10.65499,-0.04652 17.49296,5.071565 33.7369,25.251448 9.14237,11.357577 15.02102,17.39707 19.59633,20.132468 9.06058,5.416969 18.32971,5.210063 24.10222,-0.538009 3.98759,-3.970713 5.4344,-9.926525 5.45478,-22.454728 0.0141,-8.651364 0.86117,-14.6238 2.59356,-18.285766 2.6598,-5.622372 10.5151,-15.365827 21.28914,-26.4063873 3.58146,-3.6700464 6.51174,-6.96389348 6.51174,-7.31966017 0,-0.47876633 4.0161,-0.64684843 15.45562,-0.64684843 h 15.45561 L 513.0544,0.93533776 C 507.54384,5.8228625 497.78005,15.638111 494.62977,19.457063 c -7.29431,8.842604 -10.42735,15.768182 -10.42735,23.049652 0,7.186308 1.76594,12.331013 11.21983,32.686661 4.32002,9.301648 5.42898,12.868112 5.45597,17.546651 0.0255,4.417423 -1.12935,6.959157 -4.7416,10.436053 -5.68966,5.47645 -13.71937,8.03261 -23.26615,7.40649 -7.85845,-0.51539 -15.4801,-2.41437 -30.92873,-7.70606 -33.14164,-11.352171 -39.32289,-13.079064 -50.91719,-14.225024 -4.37176,-0.432098 -7.67311,-0.442102 -11.32476,-0.03431 -12.35885,1.380096 -18.64831,4.946759 -34.82059,19.746274 -4.26351,3.90162 -9.15213,8.14839 -10.86359,9.43726 -8.01829,6.03846 -15.89479,8.54064 -23.55154,7.48176 z"
       id="path1"
       transform="matrix(0.94300987,0,0,0.94206769,11094.309,133.49202)" /></g></svg>
