<?xml version="1.0" encoding="UTF-8" standalone="no"?>
<!-- Created with Inkscape (http://www.inkscape.org/) -->

<svg
   width="2982.2717"
   height="2051.6846"
   viewBox="0 0 789.05938 542.84154"
   version="1.1"
   id="svg1"
   sodipodi:docname="Contact_TitleDecor.svg"
   xml:space="preserve"
   inkscape:version="1.3 (0e150ed6c4, 2023-07-21)"
   xmlns:inkscape="http://www.inkscape.org/namespaces/inkscape"
   xmlns:sodipodi="http://sodipodi.sourceforge.net/DTD/sodipodi-0.dtd"
   xmlns="http://www.w3.org/2000/svg"
   xmlns:svg="http://www.w3.org/2000/svg"><sodipodi:namedview
     id="namedview1"
     pagecolor="#505050"
     bordercolor="#000000"
     borderopacity="1"
     inkscape:showpageshadow="0"
     inkscape:pageopacity="0"
     inkscape:pagecheckerboard="0"
     inkscape:deskcolor="#747474"
     inkscape:document-units="mm"
     inkscape:zoom="0.16729892"
     inkscape:cx="1165.5784"
     inkscape:cy="702.33568"
     inkscape:window-width="1920"
     inkscape:window-height="1009"
     inkscape:window-x="-8"
     inkscape:window-y="-8"
     inkscape:window-maximized="1"
     inkscape:current-layer="layer1" /><defs
     id="defs1"><filter
       inkscape:collect="always"
       style="color-interpolation-filters:sRGB"
       id="filter1"
       x="-0.30032182"
       y="-0.47609369"
       width="1.6006436"
       height="1.9521874"><feGaussianBlur
         inkscape:collect="always"
         stdDeviation="61.955864"
         id="feGaussianBlur1" /></filter><filter
       inkscape:collect="always"
       style="color-interpolation-filters:sRGB"
       id="filter2"
       x="-0.12533246"
       y="-0.19868695"
       width="1.2506649"
       height="1.3973739"><feGaussianBlur
         inkscape:collect="always"
         stdDeviation="41.206149"
         id="feGaussianBlur2" /></filter><filter
       inkscape:collect="always"
       style="color-interpolation-filters:sRGB"
       id="filter3"
       x="-0.32386775"
       y="-0.51342054"
       width="1.6477355"
       height="2.0268411"><feGaussianBlur
         inkscape:collect="always"
         stdDeviation="66.81335"
         id="feGaussianBlur3" /></filter></defs><g
     inkscape:label="Слой 1"
     inkscape:groupmode="layer"
     id="layer1"
     transform="translate(-10700.993,-495.21941)"><path
       style="mix-blend-mode:normal;fill:#82aba6;fill-opacity:1;stroke:none;stroke-width:1.21933;stroke-linecap:butt;stroke-linejoin:miter;stroke-dasharray:none;stroke-opacity:1;filter:url(#filter2)"
       d="m 10700.993,1019.4686 c 0,0 387.537,-459.01937 624.729,-480.10641 l 148.92,-13.23935 c 0,0 80.353,268.14892 -125.907,427.09789 -206.258,158.94837 0,0 0,0 0,0 -324.076,-57.15819 -617.234,55.46227 -30.207,11.6047 -30.508,10.7856 -30.508,10.7856 z"
       id="path1"
       sodipodi:nodetypes="cscscsc"
       inkscape:export-filename="Portfolio_website_project\src\lib\svg_files\Contact\Contact_OutlineTitleDecor.svg"
       inkscape:export-xdpi="500"
       inkscape:export-ydpi="500"
       transform="matrix(0.65036211,-0.02819938,0.02819938,0.65036211,3808.2508,631.89967)" /><path
       style="fill:#7fa9a4;fill-opacity:1;stroke:none;stroke-width:0.793749;stroke-linecap:butt;stroke-linejoin:miter;stroke-dasharray:none;stroke-opacity:1"
       d="m 10700.993,988.56521 c 0,0 387.537,-459.01941 624.729,-480.10645 l 148.92,-13.23935 c 0,0 80.353,268.14892 -125.907,427.09789 -206.258,158.9484 0,0 0,0 0,0 -324.076,-57.15819 -617.234,55.46231 -30.207,11.6047 -30.508,10.7856 -30.508,10.7856 z"
       id="path2"
       sodipodi:nodetypes="cscscsc"
       inkscape:export-filename="Portfolio_website_project\src\lib\svg_files\Contact\Contact_OutlineTitleDecor.svg"
       inkscape:export-xdpi="500"
       inkscape:export-ydpi="500" /><path
       style="mix-blend-mode:normal;fill:#b3ccc9;fill-opacity:1;stroke:none;stroke-width:0.793751;stroke-linecap:butt;stroke-linejoin:miter;stroke-dasharray:none;stroke-opacity:1;filter:url(#filter1)"
       d="m 10955.581,835.73816 c 0,0 243.17,-288.02376 392.002,-301.25538 l 93.444,-8.30738 c 0,0 50.42,168.25707 -79.004,267.99377 -129.422,99.73634 0,0 0,0 0,0 -203.35,-35.8654 -387.299,34.80128 -18.954,7.28168 -19.143,6.76771 -19.143,6.76771 z"
       id="path3"
       sodipodi:nodetypes="cscscsc"
       inkscape:export-filename="Portfolio_website_project\src\lib\svg_files\Contact\Contact_OutlineTitleDecor.svg"
       inkscape:export-xdpi="500"
       inkscape:export-ydpi="500" /><path
       style="mix-blend-mode:normal;fill:#76a49e;fill-opacity:1;stroke:none;stroke-width:1.7041;stroke-linecap:butt;stroke-linejoin:miter;stroke-dasharray:none;stroke-opacity:1;filter:url(#filter3)"
       d="m 10879.537,889.41607 c 0,0 243.17,-288.02376 392.002,-301.25538 l 93.444,-8.30738 c 0,0 50.42,168.25707 -79.004,267.99377 -129.422,99.73634 0,0 0,0 0,0 -203.35,-35.8654 -387.299,34.80128 -18.954,7.28168 -19.143,6.76771 -19.143,6.76771 z"
       id="path211"
       sodipodi:nodetypes="cscscsc"
       inkscape:export-filename="Portfolio_website_project\src\lib\svg_files\Contact\Contact_OutlineTitleDecor.svg"
       inkscape:export-xdpi="500"
       inkscape:export-ydpi="500"
       transform="matrix(0.45006134,0.12001117,-0.12001117,0.45006134,6383.1211,-891.4732)" /></g></svg>
