<?xml version="1.0" encoding="UTF-8" standalone="no"?>
<!-- Created with Inkscape (http://www.inkscape.org/) -->

<svg
   width="4961.7544"
   height="4789.4072"
   viewBox="0 0 1312.7976 1267.1974"
   version="1.1"
   id="svg1"
   sodipodi:docname="Contact_BackgroundDecor_Mobile_Small.svg"
   xml:space="preserve"
   inkscape:version="1.3 (0e150ed6c4, 2023-07-21)"
   xmlns:inkscape="http://www.inkscape.org/namespaces/inkscape"
   xmlns:sodipodi="http://sodipodi.sourceforge.net/DTD/sodipodi-0.dtd"
   xmlns="http://www.w3.org/2000/svg"
   xmlns:svg="http://www.w3.org/2000/svg"><sodipodi:namedview
     id="namedview1"
     pagecolor="#505050"
     bordercolor="#000000"
     borderopacity="1"
     inkscape:showpageshadow="0"
     inkscape:pageopacity="0"
     inkscape:pagecheckerboard="0"
     inkscape:deskcolor="#747474"
     inkscape:document-units="mm"
     inkscape:zoom="0.22627418"
     inkscape:cx="2413.0018"
     inkscape:cy="753.51063"
     inkscape:window-width="1920"
     inkscape:window-height="1009"
     inkscape:window-x="-8"
     inkscape:window-y="-8"
     inkscape:window-maximized="1"
     inkscape:current-layer="layer1" /><defs
     id="defs1"><filter
       inkscape:collect="always"
       style="color-interpolation-filters:sRGB"
       id="filter1"
       x="-0.053624756"
       y="-0.10835712"
       width="1.1072495"
       height="1.2167547"><feGaussianBlur
         inkscape:collect="always"
         stdDeviation="15.870072"
         id="feGaussianBlur1" /></filter><filter
       inkscape:collect="always"
       style="color-interpolation-filters:sRGB"
       id="filter3"
       x="-0.064847272"
       y="-0.072341426"
       width="1.1296945"
       height="1.1448374"><feGaussianBlur
         inkscape:collect="always"
         stdDeviation="22.135942"
         id="feGaussianBlur3" /></filter></defs><g
     inkscape:label="Слой 1"
     inkscape:groupmode="layer"
     id="layer1"
     transform="translate(-9508.7287,-1134.835)"><path
       style="fill:none;stroke:#c4d4d2;stroke-width:132.292;stroke-linecap:round;stroke-linejoin:miter;stroke-dasharray:none;stroke-opacity:1"
       d="m 10713.502,1754.3008 c 0,0 -107.829,553.3412 -295.744,503.0747 -324.661,-86.8454 320.32,-940.0379 -8.774,-1008.1888 -382.903,-79.2944 -85.664,1106.2649 -475.232,1072.5109 -307.7988,-26.6691 131.732,-929.6393 -224.1365,-899.3468 -215.0174,18.3029 -11.4629,457.7735 -61.5113,571.288 -44.9604,101.9745 -139.3755,55.4194 -139.3755,55.4194"
       id="path3"
       sodipodi:nodetypes="caaassc" /><path
       style="fill:none;stroke:#f6f5ee;stroke-width:50;stroke-linecap:round;stroke-linejoin:round;stroke-dasharray:none;stroke-opacity:1;filter:url(#filter3)"
       d="m 10728.703,1737.9306 c 0,0 -107.829,553.3412 -295.744,503.0747 -324.661,-86.8454 320.32,-940.0379 -8.774,-1008.1888 -382.903,-79.2944 -85.664,1106.2649 -475.232,1072.5109 -307.7988,-26.6691 131.732,-929.6393 -224.1365,-899.3468 -215.0174,18.3029 -11.4629,457.7735 -61.5113,571.288 -44.9604,101.9745 -139.3755,55.4194 -139.3755,55.4194"
       id="path1"
       sodipodi:nodetypes="caaassc" /><path
       style="fill:none;stroke:#f6f5ee;stroke-width:50;stroke-linecap:round;stroke-linejoin:miter;stroke-dasharray:none;stroke-opacity:1;filter:url(#filter1)"
       d="m 10888.03,3735.5044 c 0,0 -87.281,320.5128 -214.529,316.0475 -177.263,-6.2203 -90.394,-473.6131 -267.253,-460.1338 -207.692,15.8293 -20.081,577.3012 -228.329,581.6737 -186.187,3.9092 -39.861,-521.5756 -225.7895,-511.0256 -112.9854,6.411 -51.1504,210.5535 -101.1988,324.068 -44.9604,101.9745 -139.3755,55.4194 -139.3755,55.4194"
       id="path2"
       sodipodi:nodetypes="caaaasc" /></g></svg>
