<?xml version="1.0" encoding="UTF-8" standalone="no"?>
<!-- Created with Inkscape (http://www.inkscape.org/) -->

<svg
   width="100"
   height="100"
   viewBox="0 0 26.458333 26.458333"
   version="1.1"
   id="svg5"
   xml:space="preserve"
   inkscape:version="1.3 (0e150ed6c4, 2023-07-21)"
   sodipodi:docname="Contact_Telegram_Icon.svg"
   xmlns:inkscape="http://www.inkscape.org/namespaces/inkscape"
   xmlns:sodipodi="http://sodipodi.sourceforge.net/DTD/sodipodi-0.dtd"
   xmlns="http://www.w3.org/2000/svg"
   xmlns:svg="http://www.w3.org/2000/svg"><sodipodi:namedview
     id="namedview7"
     pagecolor="#505050"
     bordercolor="#eeeeee"
     borderopacity="1"
     inkscape:showpageshadow="0"
     inkscape:pageopacity="0"
     inkscape:pagecheckerboard="0"
     inkscape:deskcolor="#505050"
     inkscape:document-units="mm"
     showgrid="false"
     inkscape:zoom="5.6568543"
     inkscape:cx="57.098872"
     inkscape:cy="-16.351844"
     inkscape:window-width="1920"
     inkscape:window-height="1009"
     inkscape:window-x="-8"
     inkscape:window-y="-8"
     inkscape:window-maximized="1"
     inkscape:current-layer="layer1" /><defs
     id="defs2" /><g
     inkscape:label="Слой 1"
     inkscape:groupmode="layer"
     id="layer1"><path
       style="fill:#e6e6e6;fill-opacity:1;stroke:none;stroke-width:0.265;stroke-linecap:round;stroke-linejoin:round;stroke-dasharray:none;stroke-opacity:1"
       d="M 1.8726573,11.811819 24.744858,2.3985391 c 0,0 0.641796,-0.1551251 1.035824,0.00896 0.39403,0.1641835 0.571341,0.4005939 0.630446,0.5450707 0.05909,0.1444741 0.04596,1.4907453 0.04596,1.4907453 l -0.75522,5.6543149 -1.182088,7.617893 -0.893133,5.332524 c 0,0 -0.367759,1.582682 -2.567751,0.912834 -2.199998,-0.669851 -7.951095,-5.095974 -7.951095,-5.095974 l -1.223217,-1.050873 c 0,0 -0.610744,-0.735521 0.05252,-1.319998 0.663282,-0.584477 1.562983,-1.405369 1.562983,-1.405369 l 6.266724,-6.1333584 c 0,0 0.372662,-0.3746861 0.431767,-0.6176705 C 20.257669,8.0946485 20.54695,7.0049634 19.144563,7.803676 17.74218,8.6023821 16.098319,9.6982907 16.098319,9.6982907 L 8.1204869,15.084954 c 0,0 -1.0955965,0.673557 -3.354696,0.108766 -2.2590998,-0.564775 -4.2555125,-1.405369 -4.2555125,-1.405369 0,0 -0.88307421,-0.356561 -0.32583195,-0.895228 0.55724113,-0.538667 1.68821665,-1.081306 1.68821665,-1.081306 z"
       id="path6264"
       sodipodi:nodetypes="cccsccccsccsccssccccsc" /></g></svg>
