<?xml version="1.0" encoding="UTF-8" standalone="no"?>
<!-- Created with Inkscape (http://www.inkscape.org/) -->

<svg
   width="6578.6362"
   height="2120.4868"
   viewBox="0 0 1740.5975 561.04547"
   version="1.1"
   id="svg1"
   sodipodi:docname="Contact_BackgroundDecor_Mobile.svg"
   xml:space="preserve"
   inkscape:version="1.3 (0e150ed6c4, 2023-07-21)"
   xmlns:inkscape="http://www.inkscape.org/namespaces/inkscape"
   xmlns:sodipodi="http://sodipodi.sourceforge.net/DTD/sodipodi-0.dtd"
   xmlns="http://www.w3.org/2000/svg"
   xmlns:svg="http://www.w3.org/2000/svg"><sodipodi:namedview
     id="namedview1"
     pagecolor="#505050"
     bordercolor="#000000"
     borderopacity="1"
     inkscape:showpageshadow="0"
     inkscape:pageopacity="0"
     inkscape:pagecheckerboard="0"
     inkscape:deskcolor="#747474"
     inkscape:document-units="mm"
     inkscape:zoom="0.11313709"
     inkscape:cx="3106.8503"
     inkscape:cy="1065.0795"
     inkscape:window-width="1920"
     inkscape:window-height="1009"
     inkscape:window-x="-8"
     inkscape:window-y="-8"
     inkscape:window-maximized="1"
     inkscape:current-layer="layer1" /><defs
     id="defs1"><filter
       inkscape:collect="always"
       style="color-interpolation-filters:sRGB"
       id="filter2"
       x="-0.042692245"
       y="-0.17210397"
       width="1.0853845"
       height="1.3442086"><feGaussianBlur
         inkscape:collect="always"
         stdDeviation="17.982589"
         id="feGaussianBlur2" /></filter><filter
       inkscape:collect="always"
       style="color-interpolation-filters:sRGB"
       id="filter1"
       x="-0.048920215"
       y="-0.19721062"
       width="1.0978404"
       height="1.394423"><feGaussianBlur
         inkscape:collect="always"
         stdDeviation="4.9813265"
         id="feGaussianBlur1" /></filter></defs><g
     inkscape:label="Слой 1"
     inkscape:groupmode="layer"
     id="layer1"
     transform="translate(-9707.1667,-1589.5675)"><path
       style="fill:none;stroke:#c2d6d4;stroke-width:132.292;stroke-linecap:round;stroke-linejoin:miter;stroke-dasharray:none;stroke-opacity:1;filter:url(#filter1)"
       d="m 11303.668,1688.4369 c 0,0 -185.639,262.0621 -326.977,271.3991 -154.335,10.1958 -240.062,-270.3665 -392.93,-246.8135 -159.943,24.6431 -152.492,371.041 -314.319,370.007 -168.171,-1.0747 -156.693,-421.1386 -321.701,-388.6558 -111.0365,21.8581 -51.1504,210.5535 -101.1988,324.068 -44.9604,101.9745 -139.3755,55.4194 -139.3755,55.4194"
       id="path2"
       sodipodi:nodetypes="caaaasc" /><path
       style="fill:none;stroke:#f6f5ee;stroke-width:50;stroke-linecap:round;stroke-linejoin:miter;stroke-dasharray:none;stroke-opacity:1;filter:url(#filter2)"
       d="m 11313.46,1657.7257 c 0,0 -185.639,262.0621 -326.977,271.3991 -154.335,10.1958 -240.062,-270.3665 -392.93,-246.8135 -159.943,24.6431 -152.492,371.041 -314.319,370.007 -168.171,-1.0747 -156.693,-421.1386 -321.701,-388.6558 -111.0363,21.8581 -51.1502,210.5535 -101.1986,324.068 -44.9604,101.9745 -139.3755,55.4194 -139.3755,55.4194"
       id="path1"
       sodipodi:nodetypes="caaaasc" /></g></svg>
