<?xml version="1.0" encoding="UTF-8" standalone="no"?>
<!-- Created with Inkscape (http://www.inkscape.org/) -->

<svg
   width="252.90457"
   height="249.29308"
   viewBox="0 0 66.914335 65.958791"
   version="1.1"
   id="svg1"
   sodipodi:docname="Global_loadingAnimation.svg"
   xml:space="preserve"
   inkscape:version="1.3 (0e150ed6c4, 2023-07-21)"
   inkscape:export-filename="Global_loadingAnimation.webp"
   inkscape:export-xdpi="50"
   inkscape:export-ydpi="50"
   xmlns:inkscape="http://www.inkscape.org/namespaces/inkscape"
   xmlns:sodipodi="http://sodipodi.sourceforge.net/DTD/sodipodi-0.dtd"
   xmlns="http://www.w3.org/2000/svg"
   xmlns:svg="http://www.w3.org/2000/svg"><sodipodi:namedview
     id="namedview1"
     pagecolor="#505050"
     bordercolor="#000000"
     borderopacity="1"
     inkscape:showpageshadow="0"
     inkscape:pageopacity="0"
     inkscape:pagecheckerboard="0"
     inkscape:deskcolor="#747474"
     inkscape:document-units="mm"
     inkscape:zoom="1.28"
     inkscape:cx="85.15625"
     inkscape:cy="224.60938"
     inkscape:window-width="1920"
     inkscape:window-height="1009"
     inkscape:window-x="-8"
     inkscape:window-y="-8"
     inkscape:window-maximized="1"
     inkscape:current-layer="layer1" /><defs
     id="defs1" /><g
     inkscape:label="Слой 1"
     inkscape:groupmode="layer"
     id="layer1"
     transform="translate(-4045.9472,-1950.4736)"><path
       style="fill:none;stroke:#73a29c;stroke-width:2;stroke-linecap:butt;stroke-linejoin:miter;stroke-dasharray:none;stroke-opacity:1"
       d="m 4068.0577,1960.2671 c 5.6703,-2.1707 3.1299,11.3116 7.8577,11.9737 6.0515,0.8475 9.0178,-15.6735 13.8809,-11.9736 6.0258,4.5844 -13.7078,14.104 -9.7103,20.5342 4.436,7.1355 23.79,-7.8626 25.2024,0.4198 1.2855,7.5383 -18.2134,1.0651 -21.5152,7.9627 -1.7485,3.6526 5.8277,7.9789 3.8609,11.5187 -2.9338,5.2804 -13.3001,8.3963 -17.6319,4.1862 -3.9422,-3.8314 6.9678,-12.0083 3.3508,-16.1481 -4.3285,-4.9542 -17.0663,7.4144 -19.6879,1.3805 -1.8167,-4.1812 9.0047,-4.873 10.0093,-9.3198 1.1048,-4.8903 -9.5879,-11.0385 -5.5324,-13.9861 4.4092,-3.2047 8.0977,13.4771 12.607,10.4147 4.346,-2.9515 -9.8418,-14.3249 -2.6913,-16.9628 z"
       id="path14"
       sodipodi:nodetypes="saaaaaaaaaaaass"
       inkscape:export-filename="Global_loadingAnimationPNG.png"
       inkscape:export-xdpi="50"
       inkscape:export-ydpi="50" /><path
       style="fill:none;stroke:#c1d6d4;stroke-width:2;stroke-linecap:butt;stroke-linejoin:miter;stroke-dasharray:none;stroke-opacity:1"
       d="m 4085.368,1991.5287 c -5.6487,1.6034 -3.4832,16.8414 -9.0879,15.0905 -6.7103,-2.0964 7.2968,-17.3157 1.3391,-21.0476 -6.0369,-3.7815 -13.8467,15.836 -18.5973,10.5279 -4.2007,-4.6937 12.9414,-9.3006 11.0696,-15.3149 -1.1637,-3.7391 -10.3349,2.6569 -11.0696,-3.9341 -0.8139,-7.3014 9.2067,-15.1791 15.7966,-11.9317 5.0325,2.48 -1.1812,9.1699 2.0382,11.1429 6.1303,3.7569 16.9499,-12.3276 20.6676,-6.1734 1.925,3.1866 -8.169,4.2799 -7.8087,7.9853 0.5387,5.5406 15.847,4.3076 13.7574,9.4672 -2.0461,5.0522 -13.3563,-7.411 -16.1253,-2.7159 -2.904,4.9242 16.5203,8.2765 10.6762,13.4218 -5.8269,5.1303 -8.091,-7.8138 -12.6559,-6.518 z"
       id="path13"
       sodipodi:nodetypes="aaaaassaaaaasa" /></g></svg>
