<?xml version="1.0" encoding="UTF-8" standalone="no"?>
<!-- Created with Inkscape (http://www.inkscape.org/) -->

<svg
   width="252.90457"
   height="249.29308"
   viewBox="0 0 66.914335 65.958791"
   version="1.1"
   id="svg1"
   sodipodi:docname="Global_loadingAnimation.svg"
   xml:space="preserve"
   inkscape:version="1.3 (0e150ed6c4, 2023-07-21)"
   inkscape:export-filename="Global_loadingAnimation.webp"
   inkscape:export-xdpi="50"
   inkscape:export-ydpi="50"
   xmlns:inkscape="http://www.inkscape.org/namespaces/inkscape"
   xmlns:sodipodi="http://sodipodi.sourceforge.net/DTD/sodipodi-0.dtd"
   xmlns="http://www.w3.org/2000/svg"
   xmlns:svg="http://www.w3.org/2000/svg"><sodipodi:namedview
     id="namedview1"
     pagecolor="#505050"
     bordercolor="#000000"
     borderopacity="1"
     inkscape:showpageshadow="0"
     inkscape:pageopacity="0"
     inkscape:pagecheckerboard="0"
     inkscape:deskcolor="#747474"
     inkscape:document-units="mm"
     inkscape:zoom="0.45254834"
     inkscape:cx="-182.30097"
     inkscape:cy="270.68931"
     inkscape:window-width="1920"
     inkscape:window-height="1009"
     inkscape:window-x="-8"
     inkscape:window-y="-8"
     inkscape:window-maximized="1"
     inkscape:current-layer="layer1" /><defs
     id="defs1" /><g
     inkscape:label="Слой 1"
     inkscape:groupmode="layer"
     id="layer1"
     transform="translate(-4045.9472,-1950.4736)"><g
       id="g1"
       transform="matrix(0.70957202,0,0,0.7091202,1184.5934,576.8592)"
       style="stroke-width:1.40975"><path
         style="fill:none;stroke:#73a29c;stroke-width:2.81949;stroke-linecap:butt;stroke-linejoin:miter;stroke-dasharray:none;stroke-opacity:1"
         d="m 4069.7856,1960.3087 c 4.7139,-1.4609 2.4253,12.0378 7.2866,12.8879 6.1376,1.0733 9.0606,-15.7419 14.1757,-12.184 5.9255,4.1216 -11.3187,14.1684 -7.5203,20.3061 3.4807,5.6244 19.0561,-6.5447 19.7278,2.1343 0.7822,10.1066 -16.4676,0.4525 -18.5254,6.6867 -1.55,4.696 11.4297,8.5971 8.2141,12.354 -3.003,3.5086 -9.7294,-6.8701 -12.5829,-5.798 -3.9467,1.4829 -5.7772,10.2195 -9.4199,8.2028 -4.3575,-2.4125 5.5527,-10.9568 2.335,-14.7588 -3.5762,-4.2256 -14.9629,5.1336 -16.6068,-0.1525 -1.1255,-3.6191 8.5847,-2.8131 9.3053,-6.5341 0.9186,-4.7435 -11.094,-8.5346 -7.8953,-12.1557 3.1912,-3.6126 9.0347,9.0514 13.0062,6.32 4.7716,-3.2818 -7.0318,-15.5945 -1.5001,-17.3087 z"
         id="path14"
         sodipodi:nodetypes="aaaasaasaaaaaaa"
         inkscape:export-filename="Global_loadingAnimationPNG.png"
         inkscape:export-xdpi="50"
         inkscape:export-ydpi="50" /><path
         style="fill:none;stroke:#c1d6d4;stroke-width:2.81949;stroke-linecap:butt;stroke-linejoin:miter;stroke-dasharray:none;stroke-opacity:1"
         d="m 4083.931,1976.8328 c -4.4144,-2.247 2.8483,-14.4251 -2.0968,-14.7115 -5.7915,-0.3354 -0.9728,15.8962 -4.4281,16.8309 -3.5804,0.9685 -7.7676,-14.3314 -12.1935,-11.0799 -4.4158,3.2441 9.7429,10.2222 6.9126,14.914 -1.9738,3.272 -9.5688,-4.2218 -11.4487,0.5863 -2.0829,5.3263 3.5142,14.7264 9.1199,13.6114 4.2812,-0.8517 3.0882,-11.8791 7.6097,-11.3433 5.8521,0.6934 0.2694,17.0249 6.1453,16.5766 4.51,-0.344 -0.623,-10.2581 2.7323,-13.2913 3.4614,-3.1292 13.5105,3.2221 13.9257,-1.4255 0.4427,-4.9558 -12.8195,0.6082 -14.3445,-4.1279 -1.6911,-5.2518 13.6016,-7.9531 10.2471,-12.9988 -3.3446,-5.0308 -8.0852,8.5438 -12.181,6.459 z"
         id="path13"
         sodipodi:nodetypes="aasaassaaaaasa" /></g></g></svg>
