<?xml version="1.0" encoding="UTF-8" standalone="no"?>
<!-- Created with Inkscape (http://www.inkscape.org/) -->

<svg
   width="29.007013"
   height="32.74929"
   viewBox="0 0 29.007013 32.749291"
   version="1.1"
   id="svg1"
   sodipodi:docname="Global_tapIcon.svg"
   xml:space="preserve"
   inkscape:version="1.3 (0e150ed6c4, 2023-07-21)"
   xmlns:inkscape="http://www.inkscape.org/namespaces/inkscape"
   xmlns:sodipodi="http://sodipodi.sourceforge.net/DTD/sodipodi-0.dtd"
   xmlns="http://www.w3.org/2000/svg"
   xmlns:svg="http://www.w3.org/2000/svg"><sodipodi:namedview
     id="namedview1"
     pagecolor="#505050"
     bordercolor="#000000"
     borderopacity="1"
     inkscape:showpageshadow="0"
     inkscape:pageopacity="0"
     inkscape:pagecheckerboard="0"
     inkscape:deskcolor="#747474"
     inkscape:document-units="px"
     inkscape:zoom="14.481547"
     inkscape:cx="12.256978"
     inkscape:cy="9.7710556"
     inkscape:window-width="1920"
     inkscape:window-height="1009"
     inkscape:window-x="-8"
     inkscape:window-y="-8"
     inkscape:window-maximized="1"
     inkscape:current-layer="layer1" /><defs
     id="defs1" /><g
     inkscape:label="Слой 1"
     inkscape:groupmode="layer"
     id="layer1"
     transform="translate(-10205.208,-2214.5621)"><path
       id="rect2"
       style="fill:none;stroke:#94b8b8;stroke-width:2.5;stroke-linecap:round;stroke-linejoin:round;stroke-miterlimit:4.7;stroke-dasharray:none;stroke-opacity:1"
       d="m 10208.339,2219.5022 c -0.826,1.433 -0.339,3.2517 1.092,4.0788 l 7.069,4.0856 c -1.43,-0.827 -3.248,-0.3393 -4.074,1.093 -0.827,1.4322 -0.339,3.2517 1.091,4.0787 -1.43,-0.827 -3.248,-0.3399 -4.074,1.0931 -0.827,1.4322 -0.339,3.251 1.092,4.078 l 5.47,3.1615 c 0.101,0.058 0.2,0.1153 0.306,0.157 0.11,0.073 0.221,0.1477 0.339,0.2156 l 3.877,2.2404 c 1.887,1.0907 4.285,0.4483 5.374,-1.441 l 5.015,-8.6938 c 0.233,-0.404 0.382,-0.8324 0.461,-1.2654 0.135,-0.4927 0.146,-1.0265 0,-1.5578 l -2.237,-8.359 -0.72,-2.6915 c -0.428,-1.5976 -2.057,-2.5393 -3.653,-2.1113 -1.597,0.428 -2.538,2.0593 -2.11,3.657 l 0.954,3.5615 -11.201,-6.4727 c -1.431,-0.827 -3.249,-0.34 -4.074,1.0923 z" /><rect
       style="fill:#d1e1df;stroke:none;stroke-width:6.61458;stroke-linecap:round;stroke-linejoin:round;stroke-miterlimit:4.7"
       id="rect10"
       width="7.015429"
       height="14.44384"
       x="10398.742"
       y="2225.9133"
       ry="3.5077145" /><rect
       style="fill:#d1e1df;stroke:none;stroke-width:1;stroke-linecap:round;stroke-linejoin:round;stroke-miterlimit:4.7;stroke-dasharray:none;stroke-opacity:1"
       id="rect11"
       width="7.015429"
       height="14.44384"
       x="10405.758"
       y="2225.9133"
       ry="3.5077145" /><rect
       style="fill:#d1e1df;stroke:none;stroke-width:6.61458;stroke-linecap:round;stroke-linejoin:round;stroke-miterlimit:4.7"
       id="rect12"
       width="7.015429"
       height="17.182692"
       x="-8955.3232"
       y="5774.8813"
       transform="rotate(-135)"
       ry="3.5077145" /><rect
       style="fill:#d1e1df;stroke:none;stroke-width:6.61458;stroke-linecap:round;stroke-linejoin:round;stroke-miterlimit:4.7"
       id="rect13"
       width="7.015429"
       height="17.182692"
       x="-8955.3232"
       y="5778.1548"
       transform="rotate(-135)"
       ry="3.5077145" /><rect
       style="fill:#d1e1df;stroke:none;stroke-width:6.61458;stroke-linecap:round;stroke-linejoin:round;stroke-miterlimit:4.7"
       id="rect14"
       width="7.015429"
       height="24.043797"
       x="10412.773"
       y="2216.3132"
       ry="3.5077145" /><rect
       style="fill:#d1e1df;fill-opacity:1;stroke:none;stroke-width:6.61458;stroke-linecap:round;stroke-linejoin:round;stroke-miterlimit:4.7"
       id="rect15"
       width="21.046679"
       height="14.517089"
       x="10398.742"
       y="2233.0986"
       ry="4.6262774" /></g></svg>
