<?xml version="1.0" encoding="UTF-8" standalone="no"?>
<!-- Created with Inkscape (http://www.inkscape.org/) -->

<svg
   width="252.90457"
   height="249.29308"
   viewBox="0 0 66.914335 65.958791"
   version="1.1"
   id="svg1"
   sodipodi:docname="Global_loadingAnimation.svg"
   xml:space="preserve"
   inkscape:version="1.3 (0e150ed6c4, 2023-07-21)"
   inkscape:export-filename="Global_loadingAnimation.webp"
   inkscape:export-xdpi="50"
   inkscape:export-ydpi="50"
   xmlns:inkscape="http://www.inkscape.org/namespaces/inkscape"
   xmlns:sodipodi="http://sodipodi.sourceforge.net/DTD/sodipodi-0.dtd"
   xmlns="http://www.w3.org/2000/svg"
   xmlns:svg="http://www.w3.org/2000/svg"><sodipodi:namedview
     id="namedview1"
     pagecolor="#505050"
     bordercolor="#000000"
     borderopacity="1"
     inkscape:showpageshadow="0"
     inkscape:pageopacity="0"
     inkscape:pagecheckerboard="0"
     inkscape:deskcolor="#747474"
     inkscape:document-units="mm"
     inkscape:zoom="1.28"
     inkscape:cx="135.9375"
     inkscape:cy="201.17188"
     inkscape:window-width="1920"
     inkscape:window-height="1009"
     inkscape:window-x="-8"
     inkscape:window-y="-8"
     inkscape:window-maximized="1"
     inkscape:current-layer="layer1" /><defs
     id="defs1" /><g
     inkscape:label="Слой 1"
     inkscape:groupmode="layer"
     id="layer1"
     transform="translate(-4045.9472,-1950.4736)"><g
       id="g1"
       transform="translate(-0.39106666,0.13493169)"><path
         style="fill:none;stroke:#73a29c;stroke-width:2;stroke-linecap:butt;stroke-linejoin:miter;stroke-dasharray:none;stroke-opacity:1"
         d="m 4069.2145,1961.2229 c 5.6703,-2.1707 3.1299,11.3116 7.8577,11.9737 6.0515,0.8475 8.8449,-15.4344 13.8809,-11.9736 5.8666,4.0317 -11.0003,14.0606 -7.2255,20.0957 3.5074,5.6078 18.6745,-8.1221 19.7278,2.1343 1.0356,10.0838 -16.4228,0.4674 -18.5254,6.6867 -1.1872,3.5116 9.2968,5.2204 6.0231,9.3483 -2.9408,3.7081 -7.5384,-3.8644 -10.3919,-2.7923 -3.9467,1.4829 -6.268,9.2663 -10.1257,6.7194 -4.5877,-3.0288 5.7744,-9.6509 3.0408,-13.2754 -3.4794,-4.6135 -15.9676,4.6971 -17.3108,-0.9231 -0.8949,-3.7445 8.8071,-2.106 10.0093,-5.7635 1.7822,-5.4224 -11.4309,-12.2424 -6.876,-15.682 4.3499,-3.2848 8.0977,13.4771 12.607,10.4147 4.346,-2.9515 -9.8418,-14.3249 -2.6913,-16.9628 z"
         id="path14"
         sodipodi:nodetypes="saaasasssaaaaass"
         inkscape:export-filename="Global_loadingAnimationPNG.png"
         inkscape:export-xdpi="50"
         inkscape:export-ydpi="50" /><path
         style="fill:none;stroke:#c1d6d4;stroke-width:2;stroke-linecap:butt;stroke-linejoin:miter;stroke-dasharray:none;stroke-opacity:1"
         d="m 4084.7349,1986.559 c -4.0235,1.9867 1.7275,12.9604 -2.7545,13.1768 -4.5959,0.2219 -0.6578,-12.2421 -4.1131,-13.1768 -3.5804,-0.9685 -7.1975,11.5 -10.9738,8.7413 -3.9585,-2.8918 7.8499,-9.5991 5.2317,-13.7447 -1.6278,-2.5771 -7.2302,4.0786 -9.1101,-0.7295 -2.0829,-5.3263 3.8593,-13.2673 9.465,-12.1523 4.2812,0.8517 1.2035,9.9213 4.926,10.0274 5.3072,0.1513 2.6306,-14.9655 7.8262,-13.8726 3.4705,0.73 -1.1349,7.7949 1.0514,10.5873 2.6702,3.4104 12.7754,0.049 12.2448,4.3488 -0.5195,4.2111 -11.1168,-2.7435 -12.6636,1.2046 -1.7501,4.4671 12.9439,5.6876 9.5894,10.7333 -3.3446,5.0308 -7.1658,-6.8983 -10.7194,-5.1436 z"
         id="path13"
         sodipodi:nodetypes="aasaassaaaaasa" /></g></g></svg>
