<?xml version="1.0" encoding="UTF-8" standalone="no"?>
<!-- Created with Inkscape (http://www.inkscape.org/) -->

<svg
   width="69.262894mm"
   height="69.262894mm"
   viewBox="0 0 69.262893 69.262893"
   version="1.1"
   id="svg1"
   inkscape:version="1.3 (0e150ed6c4, 2023-07-21)"
   sodipodi:docname="Portfolio_workPreviewElement_Tari.svg"
   xmlns:inkscape="http://www.inkscape.org/namespaces/inkscape"
   xmlns:sodipodi="http://sodipodi.sourceforge.net/DTD/sodipodi-0.dtd"
   xmlns="http://www.w3.org/2000/svg"
   xmlns:svg="http://www.w3.org/2000/svg">
  <sodipodi:namedview
     id="namedview1"
     pagecolor="#505050"
     bordercolor="#000000"
     borderopacity="1"
     inkscape:showpageshadow="0"
     inkscape:pageopacity="0"
     inkscape:pagecheckerboard="0"
     inkscape:deskcolor="#4c4c4c"
     inkscape:document-units="px"
     borderlayer="false"
     showborder="false"
     inkscape:zoom="1.0721378"
     inkscape:cx="-21.452466"
     inkscape:cy="221.52003"
     inkscape:window-width="1920"
     inkscape:window-height="1009"
     inkscape:window-x="-8"
     inkscape:window-y="-8"
     inkscape:window-maximized="1"
     inkscape:current-layer="layer1" />
  <defs
     id="defs1">
    <inkscape:path-effect
       effect="spiro"
       id="path-effect6"
       is_visible="true"
       lpeversion="1" />
    <inkscape:path-effect
       effect="spiro"
       id="path-effect4"
       is_visible="true"
       lpeversion="1" />
    <inkscape:path-effect
       effect="spiro"
       id="path-effect3"
       is_visible="true"
       lpeversion="1" />
    <inkscape:path-effect
       effect="spiro"
       id="path-effect1"
       is_visible="true"
       lpeversion="1" />
  </defs>
  <g
     inkscape:label="Слой 1"
     inkscape:groupmode="layer"
     id="layer1"
     transform="translate(-176.8501,-19.523848)">
    <rect
       style="fill:#ffffff;stroke:none;stroke-width:2.38125;stroke-linecap:round;stroke-linejoin:round;stroke-miterlimit:4.7;stroke-dasharray:none;stroke-opacity:0"
       id="rect6"
       width="54.949596"
       height="54.949596"
       x="184.00676"
       y="26.680502"
       ry="15.423817"
       rx="15.423817" />
    <g
       id="g6"
       transform="translate(-0.26343032,2.6147126)">
      <path
         style="fill:#dde9af;stroke:none;stroke-width:3.8566;stroke-linecap:butt;stroke-linejoin:miter;stroke-dasharray:none;stroke-opacity:1"
         d="m 100.80404,32.214306 c 0.86411,2.420467 0.99373,5.161142 0.0171,7.538458 -0.48829,1.188659 -1.247635,2.270936 -2.230475,3.098802 -0.982841,0.827867 -2.190608,1.395806 -3.462613,1.578402 -1.433213,0.205738 -2.904758,-0.07724 -4.251627,-0.608627 -1.346869,-0.531387 -2.584224,-1.303679 -3.788503,-2.107507 -1.20428,-0.803828 -2.387384,-1.645575 -3.660976,-2.334336 -1.273592,-0.688761 -2.651836,-1.225093 -4.092884,-1.365837 -1.936302,-0.189114 -3.861484,0.34021 -5.744888,0.827873 -1.883404,0.487664 -3.842594,0.941175 -5.758153,0.601083 -0.957779,-0.170046 -1.889697,-0.54473 -2.64445,-1.158411 -0.754754,-0.613681 -1.322734,-1.475813 -1.502833,-2.431753 -0.1801,-0.95594 0.05183,-1.999313 0.686373,-2.73661 0.317274,-0.368649 0.72908,-0.657141 1.187839,-0.818711 0.458758,-0.16157 0.96367,-0.194489 1.437057,-0.08283 0.47013,0.110895 0.898614,0.358662 1.28018,0.654851 0.381566,0.296188 0.721791,0.64136 1.066278,0.979958 0.344486,0.338599 0.696203,0.672638 1.089572,0.952961 0.393369,0.280324 0.830024,0.505819 1.298093,0.625116 0.468069,0.119296 0.965579,0.129281 1.434224,0.01227 0.468645,-0.117012 0.903428,-0.360452 1.256431,-0.690163 0.353003,-0.329711 0.62238,-0.741443 0.827122,-1.178937 0.204741,-0.437494 0.346424,-0.901143 0.508829,-1.356055 0.915019,-2.563056 2.638494,-4.830769 4.862987,-6.398618 2.224492,-1.567849 4.939654,-2.42854 7.661145,-2.42854 2.721491,0 5.436653,0.860691 7.661145,2.42854 2.224493,1.567849 3.947968,3.835562 4.862987,6.398618 z"
         id="path2"
         inkscape:path-effect="#path-effect3"
         inkscape:original-d="m 100.80404,32.214306 c 8.34943,0 -3.783963,8.143775 -5.675948,12.215662 -1.891985,4.071887 -10.529327,-4.277537 -15.79399,-6.416307 -5.264663,-2.13877 -8.226036,-3.866237 -12.339055,-5.799355 -4.113017,-1.933119 5.840486,0 8.760729,0 2.920241,0 16.698847,0 25.048264,0 z"
         transform="matrix(0.62049613,0,0,0.61441482,152.71232,26.815454)" />
      <path
         style="fill:none;stroke:#89a02c;stroke-width:3.94942;stroke-linecap:butt;stroke-linejoin:miter;stroke-dasharray:none;stroke-opacity:1"
         d="m 100.80404,32.214306 c 0.86411,2.420467 0.99373,5.161142 0.0171,7.538458 -0.48829,1.188659 -1.247635,2.270936 -2.230475,3.098802 -0.982841,0.827867 -2.190608,1.395806 -3.462613,1.578402 -1.433213,0.205738 -2.904758,-0.07724 -4.251627,-0.608627 -1.346869,-0.531387 -2.584224,-1.303679 -3.788503,-2.107507 -1.20428,-0.803828 -2.387384,-1.645575 -3.660976,-2.334336 -1.273592,-0.688761 -2.651836,-1.225093 -4.092884,-1.365837 -1.936302,-0.189114 -3.861484,0.34021 -5.744888,0.827873 -1.883404,0.487664 -3.842594,0.941175 -5.758153,0.601083 -0.957779,-0.170046 -1.889697,-0.54473 -2.64445,-1.158411 -0.754754,-0.613681 -1.322734,-1.475813 -1.502833,-2.431753 -0.1801,-0.95594 0.05183,-1.999313 0.686373,-2.73661 0.317274,-0.368649 0.72908,-0.657141 1.187839,-0.818711 0.458758,-0.16157 0.96367,-0.194489 1.437057,-0.08283 0.47013,0.110895 0.898614,0.358662 1.28018,0.654851 0.381566,0.296188 0.721791,0.64136 1.066278,0.979958 0.344486,0.338599 0.696203,0.672638 1.089572,0.952961 0.393369,0.280324 0.830024,0.505819 1.298093,0.625116 0.468069,0.119296 0.965579,0.129281 1.434224,0.01227 0.468645,-0.117012 0.903428,-0.360452 1.256431,-0.690163 0.353003,-0.329711 0.62238,-0.741443 0.827122,-1.178937 0.204741,-0.437494 0.346424,-0.901143 0.508829,-1.356055 0.915019,-2.563056 2.638494,-4.830769 4.862987,-6.398618 2.224492,-1.567849 4.939654,-2.42854 7.661145,-2.42854 2.721491,0 5.436653,0.860691 7.661145,2.42854 2.224493,1.567849 3.947968,3.835562 4.862987,6.398618 z"
         id="path1"
         inkscape:path-effect="#path-effect1"
         inkscape:original-d="m 100.80404,32.214306 c 8.34943,0 -3.783963,8.143775 -5.675948,12.215662 -1.891985,4.071887 -10.529327,-4.277537 -15.79399,-6.416307 -5.264663,-2.13877 -8.226036,-3.866237 -12.339055,-5.799355 -4.113017,-1.933119 5.840486,0 8.760729,0 2.920241,0 16.698847,0 25.048264,0 z"
         transform="matrix(-0.60591338,0,0,0.59997498,268.65102,27.3052)" />
      <path
         d="m 202.91406,54.233034 h -2.67256 v -0.813978 h 6.1591 v 0.813978 h -2.67256 v 8.682432 h -0.81398 z m 5.72498,8.682432 q -0.67831,0 -1.30236,-0.257759 -0.61049,-0.25776 -1.09887,-0.732581 -0.47482,-0.488386 -0.73258,-1.09887 -0.25776,-0.62405 -0.25776,-1.302365 0,-0.691881 0.25776,-1.302365 0.25776,-0.624049 0.73258,-1.09887 0.48838,-0.488387 1.09887,-0.746146 0.62405,-0.25776 1.30236,-0.25776 0.67832,0 1.30237,0.25776 0.62405,0.257759 1.09887,0.746146 l 0.18993,0.189928 v -1.180268 h 0.81397 v 6.78315 h -0.81397 v -1.193834 l -0.18993,0.203494 q -0.47482,0.474821 -1.09887,0.732581 -0.62405,0.257759 -1.30237,0.257759 z m 0,-0.813978 q 0.70545,0 1.2888,-0.339157 0.59692,-0.352724 0.94964,-0.949641 0.35273,-0.596917 0.35273,-1.288799 0,-0.705447 -0.35273,-1.288798 -0.35272,-0.596918 -0.94964,-0.949641 -0.58335,-0.352724 -1.2888,-0.352724 -0.69188,0 -1.2888,0.352724 -0.59691,0.352723 -0.94964,0.949641 -0.33915,0.583351 -0.33915,1.288798 0,0.691882 0.33915,1.288799 0.35273,0.596917 0.94964,0.949641 0.59692,0.339157 1.2888,0.339157 z m 5.0331,-5.969172 h 0.81398 v 0.841111 q 0.35272,-0.379857 0.84111,-0.596917 0.55622,-0.244194 1.30236,-0.244194 v 0.813978 q -0.58335,0 -1.0853,0.217061 -0.48839,0.217061 -0.78685,0.868243 -0.24419,0.501953 -0.27132,1.790752 v 3.106683 h -0.81398 z m 4.11058,-2.71326 h 0.84111 v 0.841111 h -0.84111 z m 0.0136,2.71326 h 0.81397 v 6.78315 h -0.81397 z"
         id="text6"
         style="font-size:13.5663px;line-height:1;font-family:Espera;-inkscape-font-specification:Espera;stroke-width:0.264583"
         aria-label="Tari" />
    </g>
  </g>
</svg>
