<?xml version="1.0" encoding="UTF-8" standalone="no"?>
<svg
   sodipodi:docname="Portfolio_workPreviewElement_Lexi.svg"
   inkscape:version="1.3 (0e150ed6c4, 2023-07-21)"
   id="svg8"
   version="1.1"
   viewBox="0 0 106.903 120.41591"
   height="120.41591"
   width="106.903"
   inkscape:export-filename="Logo_Lexi.png"
   inkscape:export-xdpi="500"
   inkscape:export-ydpi="500"
   xmlns:inkscape="http://www.inkscape.org/namespaces/inkscape"
   xmlns:sodipodi="http://sodipodi.sourceforge.net/DTD/sodipodi-0.dtd"
   xmlns="http://www.w3.org/2000/svg"
   xmlns:svg="http://www.w3.org/2000/svg"
   xmlns:rdf="http://www.w3.org/1999/02/22-rdf-syntax-ns#"
   xmlns:cc="http://creativecommons.org/ns#"
   xmlns:dc="http://purl.org/dc/elements/1.1/">
  <defs
     id="defs2">
    <inkscape:path-effect
       effect="spiro"
       id="path-effect5178"
       is_visible="true"
       lpeversion="1" />
    <inkscape:path-effect
       effect="spiro"
       id="path-effect2452"
       is_visible="true"
       lpeversion="1" />
  </defs>
  <sodipodi:namedview
     inkscape:window-maximized="1"
     inkscape:window-y="-8"
     inkscape:window-x="-8"
     inkscape:window-height="1009"
     inkscape:window-width="1920"
     inkscape:snap-others="true"
     inkscape:snap-midpoints="false"
     inkscape:snap-smooth-nodes="false"
     inkscape:snap-intersection-paths="true"
     inkscape:object-paths="true"
     showborder="false"
     showgrid="false"
     inkscape:document-rotation="0"
     inkscape:current-layer="layer1"
     inkscape:document-units="mm"
     inkscape:cy="93.514871"
     inkscape:cx="2.8284271"
     inkscape:zoom="2.8284271"
     inkscape:pageshadow="2"
     inkscape:pageopacity="0.0"
     borderopacity="1.0"
     bordercolor="#666666"
     pagecolor="#ffffff"
     id="base"
     inkscape:showpageshadow="0"
     inkscape:pagecheckerboard="0"
     inkscape:deskcolor="#d1d1d1" />
  <metadata
     id="metadata5">
    <rdf:RDF>
      <cc:Work
         rdf:about="">
        <dc:format>image/svg+xml</dc:format>
        <dc:type
           rdf:resource="http://purl.org/dc/dcmitype/StillImage" />
      </cc:Work>
    </rdf:RDF>
  </metadata>
  <g
     id="layer1"
     inkscape:groupmode="layer"
     inkscape:label="Слой 1"
     transform="translate(-38.618832,-19.166272)">
    <rect
       style="opacity:1;fill:#43c37c;fill-opacity:1;stroke:none;stroke-width:15;stroke-linecap:round;stroke-linejoin:round;stroke-miterlimit:4.7;stroke-opacity:0.170347"
       id="rect1"
       width="106.903"
       height="120.41591"
       x="38.618832"
       y="19.166271"
       ry="7.7781744" />
    <rect
       style="opacity:1;fill:#ffffff;fill-opacity:1;stroke:none;stroke-width:15;stroke-linecap:round;stroke-linejoin:round;stroke-miterlimit:4.7;stroke-opacity:0.170347"
       id="rect3"
       width="53.4515"
       height="60.207954"
       x="92.070335"
       y="19.166271"
       ry="0" />
    <rect
       style="opacity:1;fill:#000000;fill-opacity:1;stroke:none;stroke-width:15;stroke-linecap:round;stroke-linejoin:round;stroke-miterlimit:4.7;stroke-opacity:0.170347"
       id="rect2"
       width="53.4515"
       height="60.207954"
       x="38.618835"
       y="79.374237" />
    <g
       id="g20"
       transform="translate(-4.9399221,0.04947491)">
      <path
         id="path18"
         style="opacity:1;fill:#43c37c;fill-opacity:1;stroke:none;stroke-width:15;stroke-linecap:round;stroke-linejoin:round;stroke-miterlimit:4.7;stroke-opacity:0.170347"
         d="m 118.93671,34.544992 c -1.98916,0 -3.58984,1.60068 -3.58984,3.589844 v 17.800779 a 7.9604487,7.9604487 0 0 1 7.17383,4.51172 c 0.002,-0.04753 0.006,-0.09457 0.006,-0.14258 V 38.134836 c 0,-1.989164 -1.60068,-3.589844 -3.58984,-3.589844 z" />
      <path
         id="path19"
         style="opacity:1;fill:#43c37c;fill-opacity:1;stroke:none;stroke-width:15;stroke-linecap:round;stroke-linejoin:round;stroke-miterlimit:4.7;stroke-opacity:0.170347"
         d="m 118.93671,56.714915 c -0.0474,0 -0.0937,0.006 -0.14062,0.0078 a 7.9604487,7.9604487 0 0 1 4.50976,7.17383 h 8.59375 c 1.98916,0 3.58985,-1.60263 3.58985,-3.5918 0,-1.98916 -1.60069,-3.58984 -3.58985,-3.58984 z" />
      <rect
         style="opacity:1;fill:#43c37c;fill-opacity:1;stroke:none;stroke-width:15;stroke-linecap:round;stroke-linejoin:round;stroke-miterlimit:4.7;stroke-opacity:0.170347"
         id="rect19"
         width="7.1811023"
         height="10.544466"
         x="34.545162"
         y="-122.52703"
         transform="rotate(90)"
         ry="0" />
      <rect
         style="opacity:1;fill:#43c37c;fill-opacity:1;stroke:none;stroke-width:15;stroke-linecap:round;stroke-linejoin:round;stroke-miterlimit:4.7;stroke-opacity:0.170347"
         id="rect20"
         width="7.1811023"
         height="10.544466"
         x="56.715183"
         y="-135.48944"
         transform="rotate(90)"
         ry="0" />
      <path
         id="path20"
         style="opacity:1;fill:#43c37c;fill-opacity:1;stroke:none;stroke-width:15;stroke-linecap:round;stroke-linejoin:round;stroke-miterlimit:4.7;stroke-opacity:0"
         d="m 122.52655,48.031315 a 7.9604487,7.9604487 0 0 0 -7.17968,7.9043 7.9604487,7.9604487 0 0 0 7.95898,7.96094 7.9604487,7.9604487 0 0 0 7.90625,-7.18164 h -5.125 a 3.5600216,3.5600216 0 0 1 -3.56055,-3.56055 z" />
      <ellipse
         style="opacity:1;fill:#000000;fill-opacity:1;stroke:none;stroke-width:15;stroke-linecap:round;stroke-linejoin:round;stroke-miterlimit:4.7;stroke-opacity:0"
         id="ellipse20"
         cx="131.89912"
         cy="38.136036"
         rx="3.5903156"
         ry="3.590872" />
    </g>
    <g
       id="g15"
       transform="translate(-58.391422,60.257441)">
      <path
         id="rect6"
         style="opacity:1;fill:#43c37c;fill-opacity:1;stroke:none;stroke-width:15;stroke-linecap:round;stroke-linejoin:round;stroke-miterlimit:4.7;stroke-opacity:0.170347"
         d="m 118.93671,34.544992 c -1.98916,0 -3.58984,1.60068 -3.58984,3.589844 v 17.800779 a 7.9604487,7.9604487 0 0 1 7.17383,4.51172 c 0.002,-0.04753 0.006,-0.09457 0.006,-0.14258 V 38.134836 c 0,-1.989164 -1.60068,-3.589844 -3.58984,-3.589844 z" />
      <path
         id="rect5"
         style="opacity:1;fill:#43c37c;fill-opacity:1;stroke:none;stroke-width:15;stroke-linecap:round;stroke-linejoin:round;stroke-miterlimit:4.7;stroke-opacity:0.170347"
         d="m 118.93671,56.714915 c -0.0474,0 -0.0937,0.006 -0.14062,0.0078 a 7.9604487,7.9604487 0 0 1 4.50976,7.17383 h 8.59375 c 1.98916,0 3.58985,-1.60263 3.58985,-3.5918 0,-1.98916 -1.60069,-3.58984 -3.58985,-3.58984 z" />
      <rect
         style="opacity:1;fill:#43c37c;fill-opacity:1;stroke:none;stroke-width:15;stroke-linecap:round;stroke-linejoin:round;stroke-miterlimit:4.7;stroke-opacity:0.170347"
         id="rect15"
         width="7.1811023"
         height="10.544466"
         x="34.545162"
         y="-122.52703"
         transform="rotate(90)"
         ry="0" />
      <rect
         style="opacity:1;fill:#43c37c;fill-opacity:1;stroke:none;stroke-width:15;stroke-linecap:round;stroke-linejoin:round;stroke-miterlimit:4.7;stroke-opacity:0.170347"
         id="rect4"
         width="7.1811023"
         height="10.544466"
         x="56.715183"
         y="-135.48944"
         transform="rotate(90)"
         ry="0" />
      <path
         id="circle7"
         style="opacity:1;fill:#43c37c;fill-opacity:1;stroke:none;stroke-width:15;stroke-linecap:round;stroke-linejoin:round;stroke-miterlimit:4.7;stroke-opacity:0"
         d="m 122.52655,48.031315 a 7.9604487,7.9604487 0 0 0 -7.17968,7.9043 7.9604487,7.9604487 0 0 0 7.95898,7.96094 7.9604487,7.9604487 0 0 0 7.90625,-7.18164 h -5.125 a 3.5600216,3.5600216 0 0 1 -3.56055,-3.56055 z" />
      <ellipse
         style="opacity:1;fill:#fefefe;fill-opacity:1;stroke:none;stroke-width:15;stroke-linecap:round;stroke-linejoin:round;stroke-miterlimit:4.7;stroke-opacity:0"
         id="path14"
         cx="131.89912"
         cy="38.136036"
         rx="3.5903156"
         ry="3.590872" />
    </g>
    <g
       id="g23"
       transform="translate(-4.9399221,60.257431)">
      <path
         id="path21"
         style="opacity:1;fill:#ffffff;fill-opacity:1;stroke:none;stroke-width:15;stroke-linecap:round;stroke-linejoin:round;stroke-miterlimit:4.7;stroke-opacity:0.170347"
         d="m 118.93671,34.544992 c -1.98916,0 -3.58984,1.60068 -3.58984,3.589844 v 17.800779 a 7.9604487,7.9604487 0 0 1 7.17383,4.51172 c 0.002,-0.04753 0.006,-0.09457 0.006,-0.14258 V 38.134836 c 0,-1.989164 -1.60068,-3.589844 -3.58984,-3.589844 z" />
      <path
         id="path22"
         style="opacity:1;fill:#ffffff;fill-opacity:1;stroke:none;stroke-width:15;stroke-linecap:round;stroke-linejoin:round;stroke-miterlimit:4.7;stroke-opacity:0.170347"
         d="m 118.93671,56.714915 c -0.0474,0 -0.0937,0.006 -0.14062,0.0078 a 7.9604487,7.9604487 0 0 1 4.50976,7.17383 h 8.59375 c 1.98916,0 3.58985,-1.60263 3.58985,-3.5918 0,-1.98916 -1.60069,-3.58984 -3.58985,-3.58984 z" />
      <rect
         style="opacity:1;fill:#ffffff;fill-opacity:1;stroke:none;stroke-width:15;stroke-linecap:round;stroke-linejoin:round;stroke-miterlimit:4.7;stroke-opacity:0.170347"
         id="rect22"
         width="7.1811023"
         height="10.544466"
         x="34.545162"
         y="-122.52703"
         transform="rotate(90)"
         ry="0" />
      <rect
         style="opacity:1;fill:#ffffff;fill-opacity:1;stroke:none;stroke-width:15;stroke-linecap:round;stroke-linejoin:round;stroke-miterlimit:4.7;stroke-opacity:0.170347"
         id="rect23"
         width="7.1811023"
         height="10.544466"
         x="56.715183"
         y="-135.48944"
         transform="rotate(90)"
         ry="0" />
      <path
         id="path23"
         style="opacity:1;fill:#ffffff;fill-opacity:1;stroke:none;stroke-width:15;stroke-linecap:round;stroke-linejoin:round;stroke-miterlimit:4.7;stroke-opacity:0"
         d="m 122.52655,48.031315 a 7.9604487,7.9604487 0 0 0 -7.17968,7.9043 7.9604487,7.9604487 0 0 0 7.95898,7.96094 7.9604487,7.9604487 0 0 0 7.90625,-7.18164 h -5.125 a 3.5600216,3.5600216 0 0 1 -3.56055,-3.56055 z" />
      <ellipse
         style="opacity:1;fill:#000000;fill-opacity:1;stroke:none;stroke-width:15;stroke-linecap:round;stroke-linejoin:round;stroke-miterlimit:4.7;stroke-opacity:0"
         id="ellipse23"
         cx="131.89912"
         cy="38.136036"
         rx="3.5903156"
         ry="3.590872" />
    </g>
    <g
       id="g17"
       transform="translate(-58.391422,0.04947491)">
      <path
         id="path15"
         style="opacity:1;fill:#ffffff;fill-opacity:1;stroke:none;stroke-width:15;stroke-linecap:round;stroke-linejoin:round;stroke-miterlimit:4.7;stroke-opacity:0.170347"
         d="m 118.93671,34.544992 c -1.98916,0 -3.58984,1.60068 -3.58984,3.589844 v 17.800779 a 7.9604487,7.9604487 0 0 1 7.17383,4.51172 c 0.002,-0.04753 0.006,-0.09457 0.006,-0.14258 V 38.134836 c 0,-1.989164 -1.60068,-3.589844 -3.58984,-3.589844 z" />
      <path
         id="path16"
         style="opacity:1;fill:#ffffff;fill-opacity:1;stroke:none;stroke-width:15;stroke-linecap:round;stroke-linejoin:round;stroke-miterlimit:4.7;stroke-opacity:0.170347"
         d="m 118.93671,56.714915 c -0.0474,0 -0.0937,0.006 -0.14062,0.0078 a 7.9604487,7.9604487 0 0 1 4.50976,7.17383 h 8.59375 c 1.98916,0 3.58985,-1.60263 3.58985,-3.5918 0,-1.98916 -1.60069,-3.58984 -3.58985,-3.58984 z" />
      <rect
         style="opacity:1;fill:#ffffff;fill-opacity:1;stroke:none;stroke-width:15;stroke-linecap:round;stroke-linejoin:round;stroke-miterlimit:4.7;stroke-opacity:0.170347"
         id="rect16"
         width="7.1811023"
         height="10.544466"
         x="34.545162"
         y="-122.52703"
         transform="rotate(90)"
         ry="0" />
      <rect
         style="opacity:1;fill:#ffffff;fill-opacity:1;stroke:none;stroke-width:15;stroke-linecap:round;stroke-linejoin:round;stroke-miterlimit:4.7;stroke-opacity:0.170347"
         id="rect17"
         width="7.1811023"
         height="10.544466"
         x="56.715183"
         y="-135.48944"
         transform="rotate(90)"
         ry="0" />
      <path
         id="path17"
         style="opacity:1;fill:#ffffff;fill-opacity:1;stroke:none;stroke-width:15;stroke-linecap:round;stroke-linejoin:round;stroke-miterlimit:4.7;stroke-opacity:0"
         d="m 122.52655,48.031315 a 7.9604487,7.9604487 0 0 0 -7.17968,7.9043 7.9604487,7.9604487 0 0 0 7.95898,7.96094 7.9604487,7.9604487 0 0 0 7.90625,-7.18164 h -5.125 a 3.5600216,3.5600216 0 0 1 -3.56055,-3.56055 z" />
      <ellipse
         style="opacity:1;fill:#ffffff;fill-opacity:1;stroke:none;stroke-width:15;stroke-linecap:round;stroke-linejoin:round;stroke-miterlimit:4.7;stroke-opacity:0"
         id="ellipse17"
         cx="131.89912"
         cy="38.136036"
         rx="3.5903156"
         ry="3.590872" />
    </g>
  </g>
</svg>
