<?xml version="1.0" encoding="UTF-8" standalone="no"?>
<!-- Created with Inkscape (http://www.inkscape.org/) -->

<svg
   width="110.55793mm"
   height="93.283249mm"
   viewBox="0 0 110.55793 93.283249"
   version="1.1"
   id="svg1"
   xml:space="preserve"
   inkscape:version="1.3 (0e150ed6c4, 2023-07-21)"
   sodipodi:docname="Portfolio_workPreviewElement_Dd_NEW.svg"
   xmlns:inkscape="http://www.inkscape.org/namespaces/inkscape"
   xmlns:sodipodi="http://sodipodi.sourceforge.net/DTD/sodipodi-0.dtd"
   xmlns:xlink="http://www.w3.org/1999/xlink"
   xmlns="http://www.w3.org/2000/svg"
   xmlns:svg="http://www.w3.org/2000/svg"><sodipodi:namedview
     id="namedview1"
     pagecolor="#505050"
     bordercolor="#eeeeee"
     borderopacity="1"
     inkscape:showpageshadow="0"
     inkscape:pageopacity="0"
     inkscape:pagecheckerboard="0"
     inkscape:deskcolor="#5d5d5d"
     inkscape:document-units="px"
     showborder="false"
     inkscape:zoom="1.5162318"
     inkscape:cx="197.1994"
     inkscape:cy="180.38139"
     inkscape:window-width="1920"
     inkscape:window-height="1009"
     inkscape:window-x="-8"
     inkscape:window-y="-8"
     inkscape:window-maximized="1"
     inkscape:current-layer="layer1" /><defs
     id="defs1"><linearGradient
       id="linearGradient8"
       inkscape:collect="always"><stop
         style="stop-color:#adaca7;stop-opacity:1;"
         offset="0.40069085"
         id="stop8" /><stop
         style="stop-color:#c0c0bd;stop-opacity:1;"
         offset="1"
         id="stop9" /></linearGradient><filter
       inkscape:collect="always"
       style="color-interpolation-filters:sRGB"
       id="filter3"
       x="-0.11131604"
       y="-0.15917815"
       width="1.2226321"
       height="1.3183563"><feGaussianBlur
         inkscape:collect="always"
         stdDeviation="1.6975635"
         id="feGaussianBlur3" /></filter><filter
       inkscape:collect="always"
       style="color-interpolation-filters:sRGB"
       id="filter4"
       x="-0.28960207"
       y="-0.28485378"
       width="1.5943305"
       height="1.5880166"><feGaussianBlur
         inkscape:collect="always"
         stdDeviation="0.80203875"
         id="feGaussianBlur4" /></filter><filter
       inkscape:collect="always"
       style="color-interpolation-filters:sRGB"
       id="filter5"
       x="-0.1903265"
       y="-0.31964095"
       width="1.3886857"
       height="1.6326152"><feGaussianBlur
         inkscape:collect="always"
         stdDeviation="0.89588786"
         id="feGaussianBlur5" /></filter><filter
       inkscape:collect="always"
       style="color-interpolation-filters:sRGB"
       id="filter6"
       x="-0.17435716"
       y="-0.4585583"
       width="1.3552544"
       height="1.909702"><feGaussianBlur
         inkscape:collect="always"
         stdDeviation="1.5775682"
         id="feGaussianBlur6" /></filter><filter
       inkscape:collect="always"
       style="color-interpolation-filters:sRGB"
       id="filter7"
       x="-0.38099551"
       y="-0.6920972"
       width="1.7701213"
       height="2.457318"><feGaussianBlur
         inkscape:collect="always"
         stdDeviation="0.9579342"
         id="feGaussianBlur7" /></filter><filter
       inkscape:collect="always"
       style="color-interpolation-filters:sRGB"
       id="filter8"
       x="-0.014136944"
       y="-0.02297616"
       width="1.0297431"
       height="1.0458876"><feGaussianBlur
         inkscape:collect="always"
         stdDeviation="0.171127"
         id="feGaussianBlur8" /></filter><radialGradient
       inkscape:collect="always"
       xlink:href="#linearGradient8"
       id="radialGradient9"
       cx="103.72322"
       cy="189.52981"
       fx="103.72322"
       fy="189.52981"
       r="55.278965"
       gradientTransform="matrix(1,0,0,0.84374996,0,29.61404)"
       gradientUnits="userSpaceOnUse" /><filter
       inkscape:collect="always"
       style="color-interpolation-filters:sRGB"
       id="filter9"
       x="-30.072352"
       y="-0.62910639"
       width="61.172345"
       height="2.2869379"><feGaussianBlur
         inkscape:collect="always"
         stdDeviation="0.59416393"
         id="feGaussianBlur9" /></filter></defs><g
     inkscape:label="Слой 1"
     inkscape:groupmode="layer"
     id="layer1"
     transform="translate(-48.444256,-142.88818)"><rect
       style="fill:url(#radialGradient9);fill-opacity:1;stroke:none;stroke-width:0.264583;stroke-linecap:round;stroke-linejoin:round;stroke-miterlimit:4.7;stroke-dasharray:none"
       id="rect8"
       width="110.55793"
       height="93.283249"
       x="48.444256"
       y="142.88818" /><path
       style="color:#000000;mix-blend-mode:normal;fill:#000000;stroke-width:1.03304;-inkscape-stroke:none;filter:url(#filter3)"
       d="m 106.81641,181.38979 c -4.40688,-0.59213 -10.252167,1.94527 -12.333988,2.79101 -1.203334,0.48885 -2.175545,1.38039 -2.666016,2.36133 -0.245235,0.49047 -0.378823,1.02904 -0.248047,1.57227 0.130776,0.54322 0.580395,1.01215 1.171875,1.22656 0.493276,0.17881 0.945361,0.26768 1.388672,0.21875 0.443311,-0.0489 0.841511,-0.2464 1.171875,-0.51172 0.660728,-0.53063 1.166118,-1.29692 2.03125,-2.32226 0.775523,-0.91912 1.39992,-1.06569 2.054688,-0.97852 0.654771,0.0872 1.326981,0.58688 1.986331,0.98828 2.97756,1.81268 2.52404,3.69194 2.44336,6.58399 -0.0747,2.67883 0.22265,5.01562 0.22265,5.01562 l 1.32227,0.0508 c 0,0 0.0954,-2.44245 -0.23047,-5.2207 -0.32591,-2.77825 -0.97467,-5.94869 -2.94922,-7.47656 -0.69099,-0.53467 -1.56627,-1.11374 -2.61914,-1.25391 -1.052869,-0.14017 -2.250893,0.26266 -3.242188,1.4375 -0.901685,1.06867 -1.455928,1.82993 -1.847656,2.14453 -0.195864,0.1573 -0.320159,0.20996 -0.488281,0.22852 -0.168122,0.0186 -0.413742,-0.009 -0.792969,-0.14649 -0.281022,-0.10187 -0.309162,-0.17558 -0.33789,-0.29492 -0.02873,-0.11933 -0.0064,-0.36423 0.146484,-0.66992 0.305688,-0.61138 1.089797,-1.36473 1.980469,-1.72656 2.106191,-0.85565 7.934971,-3.20757 11.660161,-2.70703 2.86399,0.38481 5.58916,2.16986 7.67968,4.11718 3.18933,2.97086 4.39944,7.54384 4.26758,12.04297 -0.0674,2.29943 -0.64676,3.11545 -1.43945,3.83124 -0.7927,0.71579 -1.72845,0.95613 -2.33203,1.12695 -1.00853,0.28544 -4.02111,1.02831 -5.96289,-0.0187 -0.7247,-0.39077 -1.49934,-0.36628 -2.12696,-0.16407 -0.62761,0.20222 -1.21605,1.15565 -1.65137,1.44116 -0.40655,0.26664 -0.72748,0.43048 -0.83008,0.46484 -0.0129,-0.0192 -0.0161,-0.007 -0.0547,-0.125 -0.16785,-0.51117 -0.23406,-1.55002 -0.41698,-1.94701 -0.18292,-0.397 -0.43994,-0.77365 -0.83008,-1.03516 -0.78028,-0.52301 -1.79525,-0.53969 -3.570313,-0.42187 -1.63109,0.10825 -2.286813,-0.20581 -2.914063,-0.67383 -0.627249,-0.46802 -1.234287,-1.22387 -2.408203,-1.76758 -2.129144,-0.98614 -3.685803,-1.34471 -5.261719,-1.99609 -1.447031,-0.59812 -3.925781,-2.48438 -3.925781,-2.48438 l -1.550896,2.42755 c 0,0 3.024529,0.92024 4.84938,1.67452 1.695966,0.701 3.193743,0.84371 5.208985,1.77709 0.898275,0.41604 1.491997,0.82862 2.297219,1.42943 0.805221,0.60082 1.93828,1.05669 3.792968,0.9336 1.710713,-0.11355 2.460183,0.0108 2.744143,0.20117 0.14198,0.0952 0.24163,0.21774 0.36719,0.49023 0.12555,0.2725 0.2543,0.677 0.42578,1.19922 0.10954,0.33362 0.202,1.23493 0.48143,1.44507 0.27944,0.21014 0.65568,0.25933 0.93946,0.20898 0.56755,-0.10069 1.01644,-0.59065 1.44629,-0.87257 0.42985,-0.28192 0.86962,-0.98201 1.26563,-1.1096 0.39601,-0.12759 0.70601,-0.14072 1.09375,0.0684 2.50799,1.35235 5.64756,0.49706 6.95117,0.12811 0.55248,-0.15636 1.79101,-0.45521 2.85938,-1.41992 1.06836,-0.96471 1.92515,-2.24804 1.875,-4.8371 -0.0914,-4.71736 -1.5944,-9.39746 -4.58789,-12.88086 -2.11462,-2.46067 -5.3023,-4.13401 -8.50586,-4.56445 z"
       id="path1"
       transform="matrix(0.99999256,0,0,0.93705628,5.8905784e-4,11.107612)"
       sodipodi:nodetypes="cssssssssssccsssssssscsssssssssccssssssccssssssssssscsssscc" /><path
       style="mix-blend-mode:normal;fill:none;stroke:#000000;stroke-width:1.03048;stroke-linecap:butt;stroke-linejoin:miter;stroke-dasharray:none;stroke-opacity:1;filter:url(#filter9)"
       d="m 104.6737,191.78791 c 0,0 0.10907,1.96313 0.0436,2.31213"
       id="path9"
       transform="matrix(1,0,0,1.6481115,0,-126.51469)" /><path
       style="fill:none;stroke:#000000;stroke-width:1.32292;stroke-linecap:butt;stroke-linejoin:miter;stroke-dasharray:none;stroke-opacity:1"
       d="m 104.70036,193.529 c 0,0 0.37146,-9.60049 -2.92289,-12.1496 -1.30554,-1.0102 -3.184638,-2.00676 -4.951457,0.0872 -1.766819,2.09401 -2.11582,3.05376 -3.860826,2.4212 -1.745007,-0.63257 -0.32719,-3.07558 1.766818,-3.92626 2.094008,-0.8507 7.930885,-3.29472 11.996915,-2.74839 3.03378,0.40763 6.0974,2.01913 8.09247,4.3407 2.87329,3.34352 4.33846,7.8775 4.4273,12.46247 0.0947,4.88912 -3.09674,5.64197 -4.2528,5.96916 -1.15607,0.32719 -4.23164,0.76344 -6.45653,-0.43626 -2.22488,-1.19969 -4.23382,2.70327 -4.91247,0.63648 -0.67865,-2.0668 -0.72492,-2.57578 -4.210704,-2.34442 -3.485782,0.23135 -3.57174,-1.54213 -5.643933,-2.50188 -2.072195,-0.95976 -3.599077,-1.30875 -5.235019,-1.98494 -1.635943,-0.6762 -4.078952,-2.57389 -4.078952,-2.57389"
       id="path8"
       sodipodi:nodetypes="casssaasssssssc" /><path
       style="fill:none;stroke:#666666;stroke-width:0.264583;stroke-linecap:butt;stroke-linejoin:miter;stroke-dasharray:none;stroke-opacity:1;filter:url(#filter8)"
       d="m 105.06282,193.19739 c 0,0 0.37146,-9.60049 -2.92289,-12.1496 -1.30554,-1.0102 -3.184638,-2.00676 -4.951457,0.0872 -1.766819,2.09401 -2.11582,3.05376 -3.860826,2.4212 -1.745007,-0.63257 -0.32719,-3.07558 1.766818,-3.92626 2.094008,-0.8507 7.930885,-3.29472 11.996915,-2.74839 3.03378,0.40763 6.0974,2.01913 8.09247,4.3407 2.87329,3.34352 4.33846,7.8775 4.4273,12.46247 0.0947,4.88912 -3.09674,5.64197 -4.2528,5.96916 -1.15607,0.32719 -4.23164,0.76344 -6.45653,-0.43626 -2.22488,-1.19969 -4.23382,2.70327 -4.91247,0.63648 -0.67865,-2.0668 -0.72492,-2.57578 -4.210704,-2.34442 -3.485782,0.23135 -3.57174,-1.54213 -5.643933,-2.50188 -2.072195,-0.95976 -3.599077,-1.30875 -5.235019,-1.98494 -1.635943,-0.6762 -4.078952,-2.57389 -4.078952,-2.57389"
       id="path2"
       sodipodi:nodetypes="casssaasssssssc" /><path
       style="mix-blend-mode:normal;fill:none;stroke:#000000;stroke-width:0.264583px;stroke-linecap:butt;stroke-linejoin:miter;stroke-opacity:1;filter:url(#filter4)"
       d="m 119.22019,196.02706 c 0,0 -0.39788,5.38752 -3.41816,6.08666 l -3.33154,0.77119"
       id="path4"
       sodipodi:nodetypes="csc" /><path
       style="mix-blend-mode:normal;fill:none;stroke:#000000;stroke-width:0.264583px;stroke-linecap:butt;stroke-linejoin:miter;stroke-opacity:1;filter:url(#filter4)"
       d="m 119.26381,196.15793 c 0,0 -0.37665,5.65107 -3.46178,5.95579 0,0 -2.14314,0.66815 -3.25208,0.7879 -1.27498,0.13767 -3.84619,-0.0868 -3.84619,-0.0868"
       id="path3"
       sodipodi:nodetypes="csac" /><path
       style="mix-blend-mode:normal;fill:none;stroke:#000000;stroke-width:0.264583px;stroke-linecap:butt;stroke-linejoin:miter;stroke-opacity:1;filter:url(#filter5)"
       d="m 105.8678,180.90952 c 0,0 2.23237,-0.17676 4.64532,0.69164 1.71109,0.61581 3.34288,1.78663 4.2388,3.04092 2.15933,3.02307 2.46781,3.39324 2.46781,3.39324"
       id="path5"
       sodipodi:nodetypes="cssc" /><path
       style="mix-blend-mode:normal;fill:none;stroke:#b3b3b3;stroke-width:1.32292;stroke-linecap:butt;stroke-linejoin:miter;stroke-dasharray:none;stroke-opacity:1;filter:url(#filter6)"
       d="m 82.121703,195.55504 c 0,0 5.459791,1.82859 10.544738,4.21396 1.855066,0.87022 2.975649,2.55267 4.455309,3.43272 0.76795,0.45676 1.9962,0.05 3.64234,0.37477 1.80294,0.35567 4.00867,1.4287 4.27741,1.60302"
       id="path6"
       sodipodi:nodetypes="csssc" /><path
       style="fill:none;stroke:#b3b3b3;stroke-width:0.529167;stroke-linecap:butt;stroke-linejoin:miter;stroke-dasharray:none;stroke-opacity:1;filter:url(#filter7)"
       d="m 91.067492,188.02438 c 0,0 1.788631,2.35576 4.166203,0.58894 2.37757,-1.76682 2.421194,-2.68295 2.421194,-2.68295"
       id="path7" /></g></svg>
