<?xml version="1.0" encoding="UTF-8" standalone="no"?>
<svg
   sodipodi:docname="Portfolio_workPreviewElement_Lexi.svg"
   inkscape:version="1.3 (0e150ed6c4, 2023-07-21)"
   id="svg8"
   version="1.1"
   viewBox="0 0 158.74999 120.41591"
   height="455.11523"
   width="600"
   inkscape:export-filename="Logo_Lexi.png"
   inkscape:export-xdpi="500"
   inkscape:export-ydpi="500"
   xmlns:inkscape="http://www.inkscape.org/namespaces/inkscape"
   xmlns:sodipodi="http://sodipodi.sourceforge.net/DTD/sodipodi-0.dtd"
   xmlns="http://www.w3.org/2000/svg"
   xmlns:svg="http://www.w3.org/2000/svg"
   xmlns:rdf="http://www.w3.org/1999/02/22-rdf-syntax-ns#"
   xmlns:cc="http://creativecommons.org/ns#"
   xmlns:dc="http://purl.org/dc/elements/1.1/">
  <defs
     id="defs2">
    <inkscape:path-effect
       effect="spiro"
       id="path-effect5178"
       is_visible="true"
       lpeversion="1" />
    <inkscape:path-effect
       effect="spiro"
       id="path-effect2452"
       is_visible="true"
       lpeversion="1" />
  </defs>
  <sodipodi:namedview
     inkscape:window-maximized="1"
     inkscape:window-y="-8"
     inkscape:window-x="-8"
     inkscape:window-height="1009"
     inkscape:window-width="1920"
     inkscape:snap-others="true"
     inkscape:snap-midpoints="false"
     inkscape:snap-smooth-nodes="false"
     inkscape:snap-intersection-paths="true"
     inkscape:object-paths="true"
     showborder="false"
     showgrid="false"
     inkscape:document-rotation="0"
     inkscape:current-layer="layer1"
     inkscape:document-units="mm"
     inkscape:cy="259.29197"
     inkscape:cx="196.10317"
     inkscape:zoom="0.68841315"
     inkscape:pageshadow="2"
     inkscape:pageopacity="0.0"
     borderopacity="1.0"
     bordercolor="#666666"
     pagecolor="#ffffff"
     id="base"
     inkscape:showpageshadow="0"
     inkscape:pagecheckerboard="0"
     inkscape:deskcolor="#d1d1d1" />
  <metadata
     id="metadata5">
    <rdf:RDF>
      <cc:Work
         rdf:about="">
        <dc:format>image/svg+xml</dc:format>
        <dc:type
           rdf:resource="http://purl.org/dc/dcmitype/StillImage" />
      </cc:Work>
    </rdf:RDF>
  </metadata>
  <g
     id="layer1"
     inkscape:groupmode="layer"
     inkscape:label="Слой 1"
     transform="translate(-12.694832,-19.166272)">
    <path
       id="rect1058"
       style="fill:#000000;fill-opacity:1;stroke:none;stroke-width:0.564451;stroke-linecap:square"
       d="m 46.170826,19.167822 a 7.5517273,7.5517273 0 0 0 -7.551994,7.551477 V 79.375 H 92.069833 V 19.167822 Z" />
    <path
       id="rect1079"
       style="fill:#b3b3b3;fill-opacity:1;stroke:none;stroke-width:0.564451;stroke-linecap:square"
       d="m 92.07035,19.166272 0.682643,59.544686 52.766807,0.660941 0.001,-52.6526 v 0 c -1.4e-4,-4.170709 -3.38128,-7.551622 -7.55199,-7.551477 v 0 z"
       sodipodi:nodetypes="cccccccc" />
    <path
       id="path6262"
       style="fill:#ffffff;fill-opacity:1;stroke:none;stroke-width:0.564451;stroke-linecap:square"
       d="M 92.069833,19.167822 V 79.375 H 145.52083 V 27.383341 h -0.68316 a 7.5517273,7.5517273 0 0 0 -7.55199,-7.551477 v -0.664042 z" />
    <path
       id="path5825"
       style="fill:#ffffff;fill-opacity:1;stroke:none;stroke-width:0.564451;stroke-linecap:square"
       d="M 92.069683,59.856634 V 120.06381 H 145.52068 V 68.072153 h -0.68316 a 7.5517273,7.5517273 0 0 0 -7.55199,-7.551477 v -0.664042 z" />
    <path
       id="rect1079-7"
       style="fill:#b3b3b3;fill-opacity:1;stroke:none;stroke-width:0.564451;stroke-linecap:square"
       d="m 92.070379,139.58218 0.682643,-59.544689 52.766808,-0.66094 10e-4,52.652599 v 0 c -1.4e-4,4.17071 -3.38128,7.55162 -7.55199,7.55148 v 0 z"
       sodipodi:nodetypes="cccccccc" />
    <path
       id="rect1024"
       style="fill:#ffffff;fill-opacity:1;stroke:none;stroke-width:0.564451;stroke-linecap:square"
       d="m 92.069833,79.375 v 60.20718 h 45.233927 v -0.66404 a 7.5517273,7.5517273 0 0 0 7.552,-7.55148 h 0.66507 V 79.375 Z" />
    <path
       id="rect907"
       style="fill:#c34343;fill-opacity:1;stroke:none;stroke-width:0.564451;stroke-linecap:square"
       d="m 38.618832,79.375 v 52.65518 a 7.5517273,7.5517273 0 0 0 7.551477,7.552 H 92.069833 V 79.375 Z" />
    <path
       inkscape:export-ydpi="961.76636"
       inkscape:export-xdpi="961.76636"
       sodipodi:nodetypes="csccscac"
       d="m 49.820695,54.404077 c 0,4.02454 1.65677,8.024329 4.502519,10.870105 2.845789,2.845784 6.845527,4.502508 10.870135,4.502508 v -7.686314 c -2.012264,0 -4.012331,-0.828476 -5.435205,-2.251366 -1.422874,-1.42289 -2.251142,-3.422661 -2.251142,-5.434933 0,0 -2.562078,0 -3.843155,0 -1.281038,0 -3.843152,0 -3.843152,0 z"
       style="fill:#cf4f4f;fill-opacity:1;stroke:none;stroke-width:2.66507;stroke-linecap:square;stroke-linejoin:miter;stroke-miterlimit:4;stroke-dasharray:none"
       id="path909" />
    <path
       d="m 53.663847,28.335773 c -1.006136,0 -2.006137,0.414138 -2.717582,1.125587 -0.711449,0.711445 -1.12559,1.71145 -1.12559,2.717586 v 22.225135 c 0,4.024539 1.656806,8.024364 4.502554,10.87014 2.845792,2.845784 6.845534,4.502351 10.87014,4.502351 h 10.411027 c 0.0027,4e-6 0.0053,2.04e-4 0.0079,2.04e-4 1.006132,-8e-6 2.006153,-0.414346 2.717586,-1.125791 0.711437,-0.711449 1.125587,-1.711254 1.125591,-2.717382 4e-6,-1.006135 -0.414154,-2.006137 -1.125591,-2.717585 -0.711433,-0.711453 -1.71145,-1.125583 -2.717586,-1.125591 h -10.41895 c -2.012264,0 -4.012297,-0.828488 -5.435172,-2.251378 -1.422874,-1.42289 -2.251177,-3.422696 -2.251177,-5.434968 V 32.178946 c 8e-6,-1.00614 -0.414142,-2.006137 -1.125587,-2.717586 -0.711445,-0.711449 -1.711442,-1.125587 -2.717586,-1.125587 z"
       style="fill:#c34343;fill-opacity:1;stroke:none;stroke-width:2.66507;stroke-linecap:square;stroke-linejoin:miter;stroke-miterlimit:4;stroke-dasharray:none"
       id="path1026" />
    <path
       id="path994"
       style="fill:#ffffff;fill-opacity:1;stroke:none;stroke-width:2.66507;stroke-linecap:square;stroke-linejoin:miter;stroke-miterlimit:4;stroke-dasharray:none"
       d="m 53.936451,88.543069 c -1.006136,0 -2.006137,0.414138 -2.717582,1.125587 -0.711449,0.711445 -1.125591,1.71145 -1.125591,2.717586 v 22.225138 c 0,4.02454 1.656806,8.02436 4.502555,10.87014 2.845793,2.84578 6.845535,4.50235 10.870141,4.50235 H 75.877 c 0.0027,0 0.0053,2e-4 0.0079,2e-4 1.006132,-1e-5 2.006153,-0.41434 2.717586,-1.12579 0.711437,-0.71145 1.125586,-1.71125 1.12559,-2.71738 4e-6,-1.00614 -0.414153,-2.00614 -1.12559,-2.71759 -0.711433,-0.71145 -1.71145,-1.12558 -2.717586,-1.12559 H 65.46595 c -2.012264,0 -4.012298,-0.82849 -5.435172,-2.25138 -1.422874,-1.42289 -2.251177,-3.42269 -2.251177,-5.43496 V 92.386242 c 7e-6,-1.00614 -0.414142,-2.006137 -1.125587,-2.717586 -0.711445,-0.711449 -1.711443,-1.125587 -2.717587,-1.125587 z" />
    <g
       inkscape:export-ydpi="961.76636"
       inkscape:export-xdpi="961.76636"
       style="fill:#ffffff;stroke-width:2.54942"
       transform="matrix(0.16105305,0,0,0.16105305,-63.698474,23.203381)"
       id="g937">
      <g
         style="fill:#ffffff;stroke-width:2.54942"
         id="g919"
         transform="matrix(0,-1.2821043,1.2821043,0,654.89165,344.93794)">
        <rect
           style="fill:#ffffff;stroke-width:41.4828;stroke-linecap:round;stroke-linejoin:round"
           id="rect915"
           width="16.668736"
           height="63.221725"
           x="210.92047"
           y="111.13869" />
        <rect
           y="88.57663"
           x="210.92047"
           height="16.668756"
           width="16.668734"
           id="rect917"
           style="fill:#ffffff;stroke-width:21.3003;stroke-linecap:round;stroke-linejoin:round" />
      </g>
      <g
         style="fill:#ffffff;stroke-width:2.54942"
         id="g925"
         transform="matrix(0,-1.2821043,1.2821043,0,654.22201,315.08625)">
        <rect
           transform="matrix(1,0,-0.64556191,0.76370794,0,0)"
           y="146.20903"
           x="265.35535"
           height="82.782593"
           width="16.668749"
           id="rect921"
           style="fill:#ffffff;stroke-width:47.4686;stroke-linecap:round;stroke-linejoin:round" />
        <rect
           transform="matrix(1,0,0.64556191,0.76370794,0,0)"
           style="fill:#ffffff;stroke-width:47.4686;stroke-linecap:round;stroke-linejoin:round"
           id="rect923"
           width="16.668749"
           height="82.782593"
           x="23.140104"
           y="146.20903" />
      </g>
      <g
         style="fill:#ffffff;stroke-width:2.54942"
         id="g935"
         transform="matrix(0,-1.2821043,1.2821043,0,459.12198,375.15413)">
        <path
           transform="scale(0.26458333)"
           d="m 558.27148,997.11133 a 119.50003,119.50003 0 0 0 -119.31445,119.49997 119.50003,119.50003 0 0 0 119.5,119.5 119.50003,119.50003 0 0 0 112.14649,-78.2246 h -77.8711 v -23.2324 h 83.85547 a 119.50003,119.50003 0 0 0 1.36914,-18.043 119.50003,119.50003 0 0 0 -119.5,-119.49997 119.50003,119.50003 0 0 0 -0.18555,0 z"
           style="fill:#ffffff;stroke:none;stroke-width:21.844;stroke-linecap:square;stroke-linejoin:miter;stroke-miterlimit:4;stroke-dasharray:none"
           id="path927" />
        <path
           d="m 132.38376,297.39166 c 0.33712,3.63837 1.61776,7.20612 3.93189,10.06036 1.36188,1.67976 3.06725,3.09914 5.00873,4.09329 1.94151,0.99417 4.11938,1.55826 6.31057,1.57665 2.21822,0.0186 4.432,-0.5225 6.40879,-1.50738 1.97679,-0.98491 3.71654,-2.40864 5.10486,-4.10157 2.34754,-2.86261 3.64663,-6.45568 3.9847,-10.12135 z"
           style="fill:#000000;stroke:none;stroke-width:0.746302px;stroke-linecap:butt;stroke-linejoin:miter;stroke-opacity:1"
           id="path929" />
        <path
           transform="scale(0.26458333)"
           d="m 558.00586,1049.7715 c -8.07661,0.064 -16.10039,2.2231 -23.23047,6.0176 -7.13008,3.7944 -13.36783,9.2027 -18.32422,15.58 -5.11512,6.5816 -8.80415,14.1402 -11.18555,22.1309 h 106.34766 c -2.44818,-8.1684 -6.26044,-15.8837 -11.55859,-22.5605 -5.04886,-6.3627 -11.38634,-11.7305 -18.60547,-15.4532 -7.21913,-3.7227 -15.32115,-5.7791 -23.44336,-5.7148 z"
           style="fill:#000000;stroke:none;stroke-width:2.77289px;stroke-linecap:butt;stroke-linejoin:miter;stroke-opacity:1"
           id="path931" />
        <rect
           y="287.21036"
           x="117.22977"
           height="13.000028"
           width="61.057503"
           id="rect933"
           style="fill:#ffffff;stroke:none;stroke-width:9.70226;stroke-linecap:square;stroke-linejoin:miter;stroke-miterlimit:4;stroke-dasharray:none" />
      </g>
    </g>
    <g
       inkscape:export-ydpi="961.76636"
       inkscape:export-xdpi="961.76636"
       style="fill:#ffffff;stroke-width:2.54942"
       transform="matrix(0.16105305,0,0,0.16105305,-63.425886,83.410645)"
       id="g1018">
      <g
         style="fill:#000000;stroke-width:2.54942"
         id="g1000"
         transform="matrix(0,-1.2821043,1.2821043,0,654.89165,344.93794)">
        <rect
           style="fill:#ffffff;fill-opacity:1;stroke-width:41.4828;stroke-linecap:round;stroke-linejoin:round"
           id="rect996"
           width="16.668736"
           height="63.221725"
           x="210.92047"
           y="111.13869" />
        <rect
           y="88.57663"
           x="210.92047"
           height="16.668756"
           width="16.668734"
           id="rect998"
           style="fill:#ffffff;fill-opacity:1;stroke-width:21.3003;stroke-linecap:round;stroke-linejoin:round" />
      </g>
      <g
         style="fill:#000000;stroke-width:2.54942"
         id="g1016"
         transform="matrix(0,-1.2821043,1.2821043,0,459.12198,375.15413)">
        <path
           transform="scale(0.26458333)"
           d="m 558.27148,997.11133 a 119.50003,119.50003 0 0 0 -119.31445,119.49997 119.50003,119.50003 0 0 0 119.5,119.5 119.50003,119.50003 0 0 0 112.14649,-78.2246 h -77.8711 v -23.2324 h 83.85547 a 119.50003,119.50003 0 0 0 1.36914,-18.043 119.50003,119.50003 0 0 0 -119.5,-119.49997 119.50003,119.50003 0 0 0 -0.18555,0 z"
           style="fill:#ffffff;fill-opacity:1;stroke:none;stroke-width:21.844;stroke-linecap:square;stroke-linejoin:miter;stroke-miterlimit:4;stroke-dasharray:none"
           id="path1008" />
        <path
           d="m 132.38376,297.39166 c 0.33712,3.63837 1.61776,7.20612 3.93189,10.06036 1.36188,1.67976 3.06725,3.09914 5.00873,4.09329 1.94151,0.99417 4.11938,1.55826 6.31057,1.57665 2.21822,0.0186 4.432,-0.5225 6.40879,-1.50738 1.97679,-0.98491 3.71654,-2.40864 5.10486,-4.10157 2.34754,-2.86261 3.64663,-6.45568 3.9847,-10.12135 z"
           style="fill:#af3030;fill-opacity:1;stroke:none;stroke-width:0.746302px;stroke-linecap:butt;stroke-linejoin:miter;stroke-opacity:1"
           id="path1010" />
        <path
           transform="scale(0.26458333)"
           d="m 558.00586,1049.7715 c -8.07661,0.064 -16.10039,2.2231 -23.23047,6.0176 -7.13008,3.7944 -13.36783,9.2027 -18.32422,15.58 -5.11512,6.5816 -8.80415,14.1402 -11.18555,22.1309 h 106.34766 c -2.44818,-8.1684 -6.26044,-15.8837 -11.55859,-22.5605 -5.04886,-6.3627 -11.38634,-11.7305 -18.60547,-15.4532 -7.21913,-3.7227 -15.32115,-5.7791 -23.44336,-5.7148 z"
           style="fill:#af3030;fill-opacity:1;stroke:none;stroke-width:2.77289px;stroke-linecap:butt;stroke-linejoin:miter;stroke-opacity:1"
           id="path1012" />
        <rect
           y="287.21036"
           x="117.22977"
           height="13.000028"
           width="61.057503"
           id="rect1014"
           style="fill:#ffffff;fill-opacity:1;stroke:none;stroke-width:9.70226;stroke-linecap:square;stroke-linejoin:miter;stroke-miterlimit:4;stroke-dasharray:none" />
      </g>
      <g
         style="fill:#000000;stroke-width:2.54942"
         id="g1006"
         transform="matrix(0,-1.2821043,1.2821043,0,654.22201,315.08625)">
        <rect
           transform="matrix(1,0,-0.64556191,0.76370794,0,0)"
           y="146.20903"
           x="265.35535"
           height="82.782593"
           width="16.668749"
           id="rect1002"
           style="fill:#ffffff;fill-opacity:1;stroke-width:47.4686;stroke-linecap:round;stroke-linejoin:round" />
        <rect
           transform="matrix(1,0,0.64556191,0.76370794,0,0)"
           style="fill:#ffffff;fill-opacity:1;stroke-width:47.4686;stroke-linecap:round;stroke-linejoin:round"
           id="rect1004"
           width="16.668749"
           height="82.782593"
           x="23.140104"
           y="146.20903" />
      </g>
    </g>
    <g
       id="g1111"
       transform="matrix(0.39224652,0,0,0.39224652,91.836143,-21.278225)"
       style="stroke-width:2.54942">
      <path
         id="path1081"
         style="fill:#c34343;fill-opacity:1;stroke:none;stroke-width:6.79438;stroke-linecap:square;stroke-linejoin:miter;stroke-miterlimit:4;stroke-dasharray:none"
         d="m 40.752108,127.03514 c -2.56506,0 -5.11448,1.05581 -6.92825,2.86959 -1.81378,1.81377 -2.8696,4.3632 -2.8696,6.92826 v 56.66114 c 0,10.26023 4.22389,20.45745 11.47889,27.71252 7.25511,7.25509 17.45212,11.47837 27.71252,11.47837 h 26.54205 c 0.007,1e-5 0.0134,5.2e-4 0.0202,5.2e-4 2.56505,-2e-5 5.114522,-1.05634 6.928262,-2.87011 1.81375,-1.81378 2.86959,-4.3627 2.8696,-6.92774 1e-5,-2.56506 -1.05585,-5.11448 -2.8696,-6.92826 -1.81374,-1.81379 -4.363202,-2.86958 -6.928262,-2.8696 h -26.56225 c -5.1301,0 -10.22902,-2.11216 -13.85652,-5.7397 -3.6275,-3.62754 -5.73919,-8.72588 -5.73919,-13.856 v -56.66114 c 2e-5,-2.56507 -1.05582,-5.11448 -2.86959,-6.92826 -1.81377,-1.81378 -4.36318,-2.86959 -6.92826,-2.86959 z" />
      <g
         id="g1105"
         transform="matrix(0.4105914,0,0,0.4105914,-258.45343,113.95045)"
         style="fill:#ffffff;stroke-width:2.54942"
         inkscape:export-xdpi="961.76636"
         inkscape:export-ydpi="961.76636">
        <g
           transform="matrix(0,-1.2821043,1.2821043,0,654.89165,344.93794)"
           id="g1087"
           style="fill:#000000;stroke-width:2.54942">
          <rect
             y="111.13869"
             x="210.92047"
             height="63.221725"
             width="16.668736"
             id="rect1083"
             style="fill:#000000;stroke-width:41.4828;stroke-linecap:round;stroke-linejoin:round" />
          <rect
             style="fill:#000000;stroke-width:21.3003;stroke-linecap:round;stroke-linejoin:round"
             id="rect1085"
             width="16.668734"
             height="16.668756"
             x="210.92047"
             y="88.57663" />
        </g>
        <g
           transform="matrix(0,-1.2821043,1.2821043,0,459.12198,375.15413)"
           id="g1097"
           style="fill:#000000;stroke-width:2.54942">
          <path
             id="path1089"
             style="fill:#000000;stroke:none;stroke-width:21.844;stroke-linecap:square;stroke-linejoin:miter;stroke-miterlimit:4;stroke-dasharray:none"
             d="m 558.27148,997.11133 a 119.50003,119.50003 0 0 0 -119.31445,119.49997 119.50003,119.50003 0 0 0 119.5,119.5 119.50003,119.50003 0 0 0 112.14649,-78.2246 h -77.8711 v -23.2324 h 83.85547 a 119.50003,119.50003 0 0 0 1.36914,-18.043 119.50003,119.50003 0 0 0 -119.5,-119.49997 119.50003,119.50003 0 0 0 -0.18555,0 z"
             transform="scale(0.26458333)" />
          <path
             id="path1091"
             style="fill:#ffffff;fill-opacity:1;stroke:none;stroke-width:0.746302px;stroke-linecap:butt;stroke-linejoin:miter;stroke-opacity:1"
             d="m 132.38376,297.39166 c 0.33712,3.63837 1.61776,7.20612 3.93189,10.06036 1.36188,1.67976 3.06725,3.09914 5.00873,4.09329 1.94151,0.99417 4.11938,1.55826 6.31057,1.57665 2.21822,0.0186 4.432,-0.5225 6.40879,-1.50738 1.97679,-0.98491 3.71654,-2.40864 5.10486,-4.10157 2.34754,-2.86261 3.64663,-6.45568 3.9847,-10.12135 z" />
          <path
             id="path1093"
             style="fill:#ffffff;fill-opacity:1;stroke:none;stroke-width:2.77289px;stroke-linecap:butt;stroke-linejoin:miter;stroke-opacity:1"
             d="m 558.00586,1049.7715 c -8.07661,0.064 -16.10039,2.2231 -23.23047,6.0176 -7.13008,3.7944 -13.36783,9.2027 -18.32422,15.58 -5.11512,6.5816 -8.80415,14.1402 -11.18555,22.1309 h 106.34766 c -2.44818,-8.1684 -6.26044,-15.8837 -11.55859,-22.5605 -5.04886,-6.3627 -11.38634,-11.7305 -18.60547,-15.4532 -7.21913,-3.7227 -15.32115,-5.7791 -23.44336,-5.7148 z"
             transform="scale(0.26458333)" />
          <rect
             style="fill:#000000;stroke:none;stroke-width:9.70226;stroke-linecap:square;stroke-linejoin:miter;stroke-miterlimit:4;stroke-dasharray:none"
             id="rect1095"
             width="61.057503"
             height="13.000028"
             x="117.22977"
             y="287.21036" />
        </g>
        <g
           transform="matrix(0,-1.2821043,1.2821043,0,654.22201,315.08625)"
           id="g1103"
           style="fill:#000000;stroke-width:2.54942">
          <rect
             style="fill:#000000;stroke-width:47.4686;stroke-linecap:round;stroke-linejoin:round"
             id="rect1099"
             width="16.668749"
             height="82.782593"
             x="265.35535"
             y="146.20903"
             transform="matrix(1,0,-0.64556191,0.76370794,0,0)" />
          <rect
             y="146.20903"
             x="23.140104"
             height="82.782593"
             width="16.668749"
             id="rect1101"
             style="fill:#000000;stroke-width:47.4686;stroke-linecap:round;stroke-linejoin:round"
             transform="matrix(1,0,0.64556191,0.76370794,0,0)" />
        </g>
      </g>
    </g>
    <path
       d="m 107.75817,83.491405 c -0.42401,0 -0.84812,0.162386 -1.17302,0.487288 l -5.03159,5.032001 c -0.32492,0.324906 -0.4875,0.748795 -0.4875,1.172817 0,0.170957 0.0283,0.341305 0.0815,0.505531 0.0676,0.182716 0.21469,0.329405 0.38432,0.426278 0.18196,0.10393 0.39166,0.156828 0.6012,0.159119 h 0.0606 0.61561 c 0.30641,3.92e-4 0.61086,0.127001 0.82721,0.34398 0.21541,0.216018 0.34064,0.519123 0.34134,0.824173 v 22.383848 c 0,4.02454 1.6568,8.02437 4.50256,10.87014 2.84579,2.84579 6.84553,4.50235 10.87013,4.50235 h 10.41103 c 0.003,1e-5 0.005,2e-4 0.008,2e-4 1.00613,-1e-5 2.00616,-0.41434 2.71759,-1.12578 0.71144,-0.71146 1.12558,-1.71126 1.12559,-2.71739 0,-1.00614 -0.41415,-2.00614 -1.12559,-2.71759 -0.71143,-0.71145 -1.71146,-1.12558 -2.71759,-1.12558 h -10.41902 c -2.01225,0 -4.01229,-0.82849 -5.43517,-2.25138 -1.42287,-1.42289 -2.25117,-3.4227 -2.25117,-5.43497 V 92.442592 c 7.8e-4,-0.30505 0.12615,-0.608155 0.34156,-0.824173 0.21635,-0.216979 0.52079,-0.343545 0.82721,-0.34398 h 0.48952 0.0608 c 0.20953,-0.0024 0.41923,-0.05519 0.60121,-0.159119 0.16974,-0.09695 0.31698,-0.243769 0.38451,-0.426682 0.0531,-0.164065 0.0813,-0.334351 0.0813,-0.505127 0,-0.424022 -0.16258,-0.847911 -0.48749,-1.172817 l -5.03159,-5.032001 c -0.32491,-0.324902 -0.74901,-0.487288 -1.17302,-0.487288 z"
       style="fill:#c34343;fill-opacity:1;stroke-width:1.47871;stroke-linecap:square"
       id="path1135" />
    <g
       transform="matrix(0.37196105,0,0,0.37196105,93.244258,43.125018)"
       id="g1075"
       style="stroke-width:2.68846">
      <g
         inkscape:export-ydpi="961.76636"
         inkscape:export-xdpi="961.76636"
         style="fill:#ffffff;stroke-width:2.68846"
         transform="matrix(0.4105914,0,0,0.4105914,-258.45343,113.95045)"
         id="g1050">
        <g
           style="fill:#000000;stroke-width:2.68846"
           id="g1032"
           transform="matrix(0,-1.2821043,1.2821043,0,654.89165,344.93794)">
          <rect
             style="fill:#000000;stroke-width:43.7452;stroke-linecap:round;stroke-linejoin:round"
             id="rect1028"
             width="16.668736"
             height="63.221725"
             x="210.92047"
             y="111.13869" />
          <rect
             y="88.57663"
             x="210.92047"
             height="16.668756"
             width="16.668734"
             id="rect1030"
             style="fill:#000000;stroke-width:22.462;stroke-linecap:round;stroke-linejoin:round" />
        </g>
        <g
           style="fill:#000000;stroke-width:2.68846"
           id="g1042"
           transform="matrix(0,-1.2821043,1.2821043,0,459.12198,375.15413)">
          <path
             transform="scale(0.26458333)"
             d="m 558.27148,997.11133 a 119.50003,119.50003 0 0 0 -119.31445,119.49997 119.50003,119.50003 0 0 0 119.5,119.5 119.50003,119.50003 0 0 0 112.14649,-78.2246 h -77.8711 v -23.2324 h 83.85547 a 119.50003,119.50003 0 0 0 1.36914,-18.043 119.50003,119.50003 0 0 0 -119.5,-119.49997 119.50003,119.50003 0 0 0 -0.18555,0 z"
             style="fill:#000000;stroke:none;stroke-width:23.0352;stroke-linecap:square;stroke-linejoin:miter;stroke-miterlimit:4;stroke-dasharray:none"
             id="path1034" />
          <path
             d="m 132.38376,297.39166 c 0.33712,3.63837 1.61776,7.20612 3.93189,10.06036 1.36188,1.67976 3.06725,3.09914 5.00873,4.09329 1.94151,0.99417 4.11938,1.55826 6.31057,1.57665 2.21822,0.0186 4.432,-0.5225 6.40879,-1.50738 1.97679,-0.98491 3.71654,-2.40864 5.10486,-4.10157 2.34754,-2.86261 3.64663,-6.45568 3.9847,-10.12135 z"
             style="fill:#ffffff;fill-opacity:1;stroke:none;stroke-width:0.787002px;stroke-linecap:butt;stroke-linejoin:miter;stroke-opacity:1"
             id="path1036" />
          <path
             transform="scale(0.26458333)"
             d="m 558.00586,1049.7715 c -8.07661,0.064 -16.10039,2.2231 -23.23047,6.0176 -7.13008,3.7944 -13.36783,9.2027 -18.32422,15.58 -5.11512,6.5816 -8.80415,14.1402 -11.18555,22.1309 h 106.34766 c -2.44818,-8.1684 -6.26044,-15.8837 -11.55859,-22.5605 -5.04886,-6.3627 -11.38634,-11.7305 -18.60547,-15.4532 -7.21913,-3.7227 -15.32115,-5.7791 -23.44336,-5.7148 z"
             style="fill:#ffffff;fill-opacity:1;stroke:none;stroke-width:2.92413px;stroke-linecap:butt;stroke-linejoin:miter;stroke-opacity:1"
             id="path1038" />
          <rect
             y="287.21036"
             x="117.22977"
             height="13.000028"
             width="61.057503"
             id="rect1040"
             style="fill:#000000;stroke:none;stroke-width:10.2314;stroke-linecap:square;stroke-linejoin:miter;stroke-miterlimit:4;stroke-dasharray:none" />
        </g>
        <g
           style="fill:#000000;stroke-width:2.68846"
           id="g1048"
           transform="matrix(0,-1.2821043,1.2821043,0,654.22201,315.08625)">
          <rect
             transform="matrix(1,0,-0.64556191,0.76370794,0,0)"
             y="146.20903"
             x="265.35535"
             height="82.782593"
             width="16.668749"
             id="rect1044"
             style="fill:#000000;stroke-width:50.0573;stroke-linecap:round;stroke-linejoin:round" />
          <rect
             transform="matrix(1,0,0.64556191,0.76370794,0,0)"
             style="fill:#000000;stroke-width:50.0573;stroke-linecap:round;stroke-linejoin:round"
             id="rect1046"
             width="16.668749"
             height="82.782593"
             x="23.140104"
             y="146.20903" />
        </g>
      </g>
    </g>
    <path
       style="fill:none;stroke:#b3b3b3;stroke-width:0.664999;stroke-linecap:butt;stroke-linejoin:miter;stroke-dasharray:none;stroke-opacity:1"
       d="M 92.069832,79.375001 H 145.52068"
       id="path27974" />
    <path
       id="path27978"
       style="color:#000000;fill:#b3b3b3;-inkscape-stroke:none"
       d="m 92.07035,19.166272 v 0.665592 h 48.99132 a 7.5517273,7.5517273 0 0 0 -3.09283,-0.664042 h 7.55199 v 0.664042 h 0.001 v -0.665592 z" />
    <path
       id="path27976"
       style="color:#000000;fill:#b3b3b3;stroke-width:0.999996;-inkscape-stroke:none"
       d="M 144.85576,23.621297 V 135.12922 c 0.41711,-0.92428 0.65315,-1.94782 0.66404,-3.02514 V 26.639718 a 7.5517273,7.5517273 0 0 0 -0.66404,-3.018421 z" />
    <path
       id="path25898"
       style="color:#000000;fill:#b3b3b3;-inkscape-stroke:none"
       d="m 92.07035,138.91814 v 0.66404 h 45.89901 c 1.10505,-4e-5 2.15462,-0.23751 3.10058,-0.66404 z" />
  </g>
</svg>
