<?xml version="1.0" encoding="UTF-8" standalone="no"?>
<svg
   width="100.92241"
   height="36.013588"
   viewBox="0 0 100.92241 36.013588"
   version="1.1"
   id="svg8"
   inkscape:version="1.3 (0e150ed6c4, 2023-07-21)"
   sodipodi:docname="Portfolio_workPreviewElement_Lexi_alternate.svg"
   xmlns:inkscape="http://www.inkscape.org/namespaces/inkscape"
   xmlns:sodipodi="http://sodipodi.sourceforge.net/DTD/sodipodi-0.dtd"
   xmlns="http://www.w3.org/2000/svg"
   xmlns:svg="http://www.w3.org/2000/svg"
   xmlns:rdf="http://www.w3.org/1999/02/22-rdf-syntax-ns#"
   xmlns:cc="http://creativecommons.org/ns#"
   xmlns:dc="http://purl.org/dc/elements/1.1/">
  <defs
     id="defs2">
    <inkscape:path-effect
       effect="spiro"
       id="path-effect908"
       is_visible="true"
       lpeversion="1" />
  </defs>
  <sodipodi:namedview
     showguides="false"
     id="base"
     pagecolor="#ffffff"
     bordercolor="#666666"
     borderopacity="1.0"
     inkscape:pageopacity="0.0"
     inkscape:pageshadow="2"
     inkscape:zoom="7.2407734"
     inkscape:cx="39.291383"
     inkscape:cy="18.022937"
     inkscape:document-units="mm"
     inkscape:current-layer="layer1"
     inkscape:document-rotation="0"
     showgrid="false"
     showborder="false"
     inkscape:object-paths="true"
     inkscape:snap-intersection-paths="true"
     inkscape:window-width="1920"
     inkscape:window-height="1009"
     inkscape:window-x="-8"
     inkscape:window-y="-8"
     inkscape:window-maximized="1"
     inkscape:snap-smooth-nodes="true"
     inkscape:snap-midpoints="false"
     inkscape:object-nodes="true"
     inkscape:snap-nodes="true"
     inkscape:showpageshadow="0"
     inkscape:pagecheckerboard="0"
     inkscape:deskcolor="#d1d1d1" />
  <metadata
     id="metadata5">
    <rdf:RDF>
      <cc:Work
         rdf:about="">
        <dc:format>image/svg+xml</dc:format>
        <dc:type
           rdf:resource="http://purl.org/dc/dcmitype/StillImage" />
      </cc:Work>
    </rdf:RDF>
  </metadata>
  <g
     inkscape:label="Vrstva 1"
     inkscape:groupmode="layer"
     id="layer1"
     transform="translate(-20.301136,-15.187475)">
    <rect
       inkscape:export-ydpi="961"
       inkscape:export-xdpi="961"
       y="15.187475"
       x="20.301136"
       height="36.013588"
       width="68.161087"
       id="rect1"
       style="fill:#a02c2c;fill-opacity:1;stroke:none;stroke-width:3.18054;stroke-linecap:square"
       ry="3.0536466"
       rx="2.6893506" />
    <rect
       inkscape:export-ydpi="961"
       inkscape:export-xdpi="961"
       y="15.187477"
       x="88.462227"
       height="36.013588"
       width="32.761322"
       id="rect984"
       style="fill:#a02c2c;fill-opacity:1;stroke:none;stroke-width:3.18054;stroke-linecap:square"
       ry="3.0536466"
       rx="3.0536466" />
    <g
       id="g1"
       transform="translate(-0.63896572)">
      <g
         inkscape:export-ydpi="961"
         inkscape:export-xdpi="961"
         style="fill:#f9f9f9;stroke-width:4.0801"
         transform="matrix(0,-0.12566413,0.12566413,0,90.983885,51.740519)"
         id="g1269">
        <rect
           y="111.13869"
           x="210.92047"
           height="63.221725"
           width="16.668736"
           id="rect1265"
           style="fill:#f9f9f9;stroke-width:66.3895;stroke-linecap:round;stroke-linejoin:round" />
        <rect
           style="fill:#f9f9f9;stroke-width:34.0893;stroke-linecap:round;stroke-linejoin:round"
           id="rect1267"
           width="16.668734"
           height="16.668756"
           x="210.92047"
           y="88.57663" />
      </g>
      <g
         inkscape:export-ydpi="961"
         inkscape:export-xdpi="961"
         style="fill:#f9f9f9;stroke-width:4.0801"
         transform="matrix(0,-0.12566413,0.12566413,0,90.918212,48.814637)"
         id="g1275">
        <rect
           style="fill:#f9f9f9;stroke-width:75.969;stroke-linecap:round;stroke-linejoin:round"
           id="rect1271"
           width="16.668749"
           height="82.782593"
           x="265.35535"
           y="146.20903"
           transform="matrix(1,0,-0.64556191,0.76370794,0,0)" />
        <rect
           y="146.20903"
           x="23.140104"
           height="82.782593"
           width="16.668749"
           id="rect1273"
           style="fill:#f9f9f9;stroke-width:75.969;stroke-linecap:round;stroke-linejoin:round"
           transform="matrix(1,0,0.64556191,0.76370794,0,0)" />
      </g>
      <g
         inkscape:export-ydpi="961"
         inkscape:export-xdpi="961"
         style="fill:#f9f9f9;stroke-width:4.0801"
         id="g1036"
         transform="matrix(0.19661114,0,0,0.19661114,73.34627,-7.0359639)">
        <path
           id="rect930"
           style="fill:#f9f9f9;stroke-width:84.4376;stroke-linecap:round;stroke-linejoin:round"
           d="m 125.74416,153.48411 h 16.66872 v 102.26823 h -16.66872 z" />
        <path
           d="m 125.74439,239.08369 v 16.66875 h 75.40625 v -16.66875 z"
           style="fill:#f9f9f9;stroke-width:82.0703;stroke-linecap:round;stroke-linejoin:round"
           id="path863" />
      </g>
      <g
         inkscape:export-ydpi="961"
         inkscape:export-xdpi="961"
         style="fill:#f9f9f9;stroke-width:4.0801"
         transform="matrix(0,-0.12566413,0.12566413,0,71.795699,54.70213)"
         id="g1285">
        <path
           id="path1277"
           style="fill:#f9f9f9;stroke:none;stroke-width:9.24956;stroke-linecap:square;stroke-linejoin:miter;stroke-miterlimit:4;stroke-dasharray:none"
           d="m 148.95402,263.81915 a 31.617602,31.617602 0 0 0 -31.5685,31.61758 31.617602,31.617602 0 0 0 31.6176,31.6176 31.617602,31.617602 0 0 0 29.67198,-20.69685 h -20.60332 v -6.14689 h 22.18668 a 31.617602,31.617602 0 0 0 0.36225,-4.77386 31.617602,31.617602 0 0 0 -31.61759,-31.61758 31.617602,31.617602 0 0 0 -0.0491,0 z" />
        <path
           id="path1279"
           style="fill:#a02c2c;fill-opacity:1;stroke:none;stroke-width:1.19439px;stroke-linecap:butt;stroke-linejoin:miter;stroke-opacity:1"
           d="m 133.62857,297.39166 c 0.33712,3.63837 1.61776,7.20612 3.93189,10.06036 1.36188,1.67976 3.06725,3.09914 5.00873,4.09329 1.94151,0.99417 4.11938,1.55826 6.31057,1.57665 2.21822,0.0186 4.432,-0.5225 6.40879,-1.50738 1.97679,-0.98491 3.71654,-2.40864 5.10486,-4.10157 2.34754,-2.86261 3.64663,-6.45568 3.9847,-10.12135 z" />
        <path
           id="path1281"
           style="fill:#a02c2c;fill-opacity:1;stroke:none;stroke-width:1.17416px;stroke-linecap:butt;stroke-linejoin:miter;stroke-opacity:1"
           d="m 148.88386,277.75204 c -2.13694,0.0169 -4.2599,0.58819 -6.1464,1.59216 -1.8865,1.00393 -3.5369,2.43488 -4.84828,4.1222 -1.35338,1.74139 -2.32943,3.74127 -2.95951,5.85547 h 28.13782 c -0.64775,-2.16122 -1.65641,-4.20256 -3.05821,-5.96913 -1.33585,-1.68347 -3.01264,-3.1037 -4.9227,-4.08866 -1.91006,-0.98496 -4.05372,-1.52905 -6.20272,-1.51204 z" />
        <rect
           style="fill:#f9f9f9;stroke:none;stroke-width:15.5276;stroke-linecap:square;stroke-linejoin:miter;stroke-miterlimit:4;stroke-dasharray:none"
           id="rect1283"
           width="61.057503"
           height="13.000028"
           x="118.47457"
           y="287.21036" />
      </g>
    </g>
    <g
       id="g4"
       transform="translate(-1.0110292,-1.1634127)">
      <g
         inkscape:export-ydpi="961"
         inkscape:export-xdpi="961"
         style="fill:#f9f9f9;stroke-width:4.0801"
         transform="matrix(0.19661114,0,0,0.19661114,32.286152,8.3026776)"
         id="g1032">
        <rect
           y="111.13869"
           x="210.92047"
           height="63.221725"
           width="16.668736"
           id="rect1028"
           style="fill:#f9f9f9;stroke-width:66.3895;stroke-linecap:round;stroke-linejoin:round" />
        <rect
           style="fill:#f9f9f9;stroke-width:33.9052;stroke-linecap:round;stroke-linejoin:round"
           id="rect1030"
           width="16.668736"
           height="12.212055"
           x="210.92047"
           y="90.680489" />
      </g>
      <g
         inkscape:export-ydpi="961"
         inkscape:export-xdpi="961"
         style="fill:#f9f9f9;stroke-width:4.0801"
         transform="matrix(0.19661114,0,0,0.19661114,34.138091,8.1999869)"
         id="g1026">
        <rect
           style="fill:#f9f9f9;stroke-width:75.969;stroke-linecap:round;stroke-linejoin:round"
           id="rect1022"
           width="16.668749"
           height="82.782593"
           x="272.35205"
           y="146.20905"
           transform="matrix(1,0,-0.64556191,0.76370794,0,0)" />
        <rect
           y="146.20903"
           x="30.136801"
           height="82.782593"
           width="16.668749"
           id="rect1024"
           style="fill:#f9f9f9;stroke-width:75.969;stroke-linecap:round;stroke-linejoin:round"
           transform="matrix(1,0,0.64556191,0.76370794,0,0)" />
      </g>
      <g
         inkscape:export-ydpi="961"
         inkscape:export-xdpi="961"
         style="fill:#f9f9f9;stroke-width:4.0801"
         id="g1013"
         transform="matrix(0.19661114,0,0,0.19661114,33.309199,8.3026776)">
        <rect
           y="90.680489"
           x="9.3725166"
           height="83.679924"
           width="16.668749"
           id="rect1009"
           style="fill:#f9f9f9;stroke-width:81.602;stroke-linecap:round;stroke-linejoin:round" />
        <path
           d="m 9.3725169,157.69166 v 16.66875 H 49.085001 l 16.66875,-16.66875 z"
           style="fill:#f9f9f9;stroke-width:72.7594;stroke-linecap:round;stroke-linejoin:round"
           id="path1011"
           sodipodi:nodetypes="ccccc" />
      </g>
      <g
         id="g3">
        <circle
           inkscape:export-ydpi="961"
           inkscape:export-xdpi="961"
           r="6.2163954"
           cy="36.367496"
           cx="52.453514"
           id="circle948"
           style="fill:#f9f9f9;stroke:none;stroke-width:1.81856;stroke-linecap:square;stroke-linejoin:miter;stroke-miterlimit:4;stroke-dasharray:none" />
        <path
           inkscape:export-ydpi="961"
           inkscape:export-xdpi="961"
           inkscape:original-d="m 60.981253,25.136931 c 0.839462,-1.00232 1.706067,1.995728 2.559028,2.993512 0.852982,0.997783 -1.705985,2.008928 -2.559028,3.013314 -0.853064,1.004383 -1.678965,-1.999963 -2.518508,-3.000026 -0.839545,-1.00006 1.679046,-2.004481 2.518508,-3.0068 z"
           inkscape:path-effect="#path-effect908"
           id="path950"
           d="m 60.981253,25.136931 c 0.364963,-0.0029 0.729027,0.08954 1.05341,0.256815 0.324384,0.167277 0.609137,0.408439 0.836001,0.694339 0.453728,0.5718 0.667252,1.312413 0.669617,2.042358 0.0024,0.733465 -0.208473,1.479099 -0.662453,2.055188 -0.22699,0.288044 -0.512576,0.53112 -0.838279,0.699677 -0.325704,0.168556 -0.691575,0.261606 -1.058296,0.258449 -0.362276,-0.0031 -0.722128,-0.100061 -1.042004,-0.270157 -0.319877,-0.170096 -0.599846,-0.412409 -0.822506,-0.698199 -0.445319,-0.571581 -0.653108,-1.307092 -0.653998,-2.03167 -8.91e-4,-0.725852 0.205862,-1.463206 0.651281,-2.036323 0.22271,-0.286558 0.503004,-0.52954 0.823387,-0.700039 0.320383,-0.170499 0.680925,-0.267568 1.04384,-0.270438 z"
           style="fill:#a02c2c;fill-opacity:1;stroke:none;stroke-width:0.199407px;stroke-linecap:butt;stroke-linejoin:miter;stroke-opacity:1"
           transform="matrix(1.1576981,0,0,1.1576981,-18.167777,3.7894565)" />
      </g>
      <rect
         inkscape:export-ydpi="961"
         inkscape:export-xdpi="961"
         y="35.073017"
         x="47.057495"
         height="1.832557"
         width="29.975187"
         id="rect2"
         style="fill:#f9f9f9;stroke:none;stroke-width:6.19384;stroke-linecap:square;stroke-linejoin:miter;stroke-miterlimit:4;stroke-dasharray:none" />
      <path
         inkscape:export-ydpi="961"
         inkscape:export-xdpi="961"
         sodipodi:nodetypes="ccccc"
         id="rect833"
         style="fill:#a02c2c;fill-opacity:1;stroke:none;stroke-width:1.83267;stroke-linecap:square;stroke-linejoin:miter;stroke-miterlimit:4;stroke-dasharray:none"
         d="m 51.623567,36.905588 v 1.643376 h 25.409157 l 1.1e-5,-1.643376 z" />
    </g>
  </g>
</svg>
