<?xml version="1.0" encoding="UTF-8" standalone="no"?>
<!-- Created with Inkscape (http://www.inkscape.org/) -->

<svg
   width="234.21144mm"
   height="188.46642mm"
   viewBox="0 0 234.21144 188.46642"
   version="1.1"
   id="svg1"
   inkscape:version="1.3 (0e150ed6c4, 2023-07-21)"
   sodipodi:docname="Portfolio_workPreviewElement_Omic.svg"
   xmlns:inkscape="http://www.inkscape.org/namespaces/inkscape"
   xmlns:sodipodi="http://sodipodi.sourceforge.net/DTD/sodipodi-0.dtd"
   xmlns="http://www.w3.org/2000/svg"
   xmlns:svg="http://www.w3.org/2000/svg">
  <sodipodi:namedview
     id="namedview1"
     pagecolor="#505050"
     bordercolor="#000000"
     borderopacity="1"
     inkscape:showpageshadow="0"
     inkscape:pageopacity="0"
     inkscape:pagecheckerboard="0"
     inkscape:deskcolor="#4c4c4c"
     inkscape:document-units="mm"
     borderlayer="false"
     showborder="false"
     inkscape:zoom="0.75811591"
     inkscape:cx="178.07303"
     inkscape:cy="317.23381"
     inkscape:window-width="1920"
     inkscape:window-height="1009"
     inkscape:window-x="-8"
     inkscape:window-y="-8"
     inkscape:window-maximized="1"
     inkscape:current-layer="layer1" />
  <defs
     id="defs1" />
  <g
     inkscape:label="Слой 1"
     inkscape:groupmode="layer"
     id="layer1"
     transform="translate(-110.24941,-273.76295)">
    <rect
       style="fill:#1a1a1a;fill-opacity:1;stroke:#1a1a1a;stroke-width:1.32292;stroke-linecap:round;stroke-linejoin:round;stroke-miterlimit:4.7;stroke-dasharray:none;stroke-opacity:1"
       id="rect19"
       width="232.88852"
       height="187.14349"
       x="110.91087"
       y="274.42441"
       ry="15.053644"
       rx="15.053645" />
    <rect
       style="fill:#ced6c2;fill-opacity:1;stroke:#1a1a1a;stroke-width:1.32292;stroke-linecap:round;stroke-linejoin:round;stroke-miterlimit:4.7;stroke-dasharray:none;stroke-opacity:1"
       id="rect86"
       width="230.83423"
       height="185.49043"
       x="110.91088"
       y="274.42441"
       ry="15.053644"
       rx="15.053646" />
    <g
       id="g77"
       transform="matrix(1.309561,0,0,1.3085727,-114.51344,79.771129)"
       style="stroke:none;stroke-width:0.763902" />
    <path
       id="path71"
       style="fill:#c87137;fill-opacity:1;stroke:none;stroke-width:1.32292;stroke-linecap:round;stroke-linejoin:round;stroke-miterlimit:4.7;stroke-dasharray:none;stroke-opacity:1"
       d="m 283.59399,306.08327 c -5.87479,0.58571 -11.65888,2.25383 -16.83116,5.12357 -6.00189,3.25805 -11.18402,8.00479 -15.00099,13.66407 -3.92237,5.80189 -6.36688,12.57636 -7.09288,19.53984 -0.66398,6.31839 0.1317,12.76585 2.22354,18.76181 2.09918,5.86524 5.46641,11.26351 9.8235,15.7184 4.3809,4.44536 9.72523,7.92212 15.56607,10.12507 4.5551,1.68454 9.3876,2.62401 14.24666,2.70673 0,-4.71995 0,-9.43992 0,-14.15986 -5.015,-0.11923 -9.95876,-1.6311 -14.24506,-4.22415 -4.48228,-2.78114 -8.19758,-6.78471 -10.57924,-11.49721 -2.43554,-4.79184 -3.48659,-10.27359 -2.99154,-15.62832 0.49194,-5.35352 2.51599,-10.55414 5.78657,-14.82463 3.26216,-4.27198 7.74323,-7.59703 12.78274,-9.47365 2.95637,-1.09384 6.09162,-1.72165 9.24653,-1.7995 0,-4.71997 0,-9.43993 0,-14.15988 -0.97825,0.0426 -1.95647,0.0851 -2.93473,0.12775 z" />
    <path
       id="path78"
       style="fill:#c87137;fill-opacity:1;stroke:none;stroke-width:1.32292;stroke-linecap:round;stroke-linejoin:round;stroke-miterlimit:4.7;stroke-dasharray:none;stroke-opacity:1"
       d="m 283.59399,306.08327 c -5.87479,0.58571 -11.65888,2.25383 -16.83116,5.12357 -6.00189,3.25805 -11.18402,8.00479 -15.00099,13.66407 -3.92237,5.80189 -6.36688,12.57636 -7.09288,19.53984 -0.66398,6.31839 0.1317,12.76585 2.22354,18.76181 2.09918,5.86524 5.46641,11.26351 9.8235,15.7184 4.3809,4.44536 9.72523,7.92212 15.56607,10.12507 4.5551,1.68454 9.3876,2.62401 14.24666,2.70673 0,-4.71995 0,-9.43992 0,-14.15986 -5.015,-0.11923 -9.95876,-1.6311 -14.24506,-4.22415 -4.48228,-2.78114 -8.19758,-6.78471 -10.57924,-11.49721 -2.43554,-4.79184 -3.48659,-10.27359 -2.99154,-15.62832 0.49194,-5.35352 2.51599,-10.55414 5.78657,-14.82463 3.26216,-4.27198 7.74323,-7.59703 12.78274,-9.47365 2.95637,-1.09384 6.09162,-1.72165 9.24653,-1.7995 0,-4.71997 0,-9.43993 0,-14.15988 -0.97825,0.0426 -1.95647,0.0851 -2.93473,0.12775 z" />
    <path
       id="path72"
       style="fill:#cf7130;fill-opacity:1;stroke:none;stroke-width:1.32292;stroke-linecap:round;stroke-linejoin:round;stroke-miterlimit:4.7;stroke-dasharray:none;stroke-opacity:1"
       d="m 283.59399,306.08327 c -5.87479,0.58571 -11.65888,2.25383 -16.83116,5.12357 -6.00189,3.25805 -11.18402,8.00479 -15.00099,13.66407 -3.92237,5.80189 -6.36688,12.57636 -7.09288,19.53984 -0.66398,6.31839 0.1317,12.76585 2.22354,18.76181 2.09918,5.86524 5.46641,11.26351 9.8235,15.7184 4.3809,4.44536 9.72523,7.92212 15.56607,10.12507 4.5551,1.68454 9.3876,2.62401 14.24666,2.70673 0,-4.71995 0,-9.43992 0,-14.15986 -5.015,-0.11923 -9.95876,-1.6311 -14.24506,-4.22415 -4.48228,-2.78114 -8.19758,-6.78471 -10.57924,-11.49721 -2.43554,-4.79184 -3.48659,-10.27359 -2.99154,-15.62832 0.49194,-5.35352 2.51599,-10.55414 5.78657,-14.82463 3.26216,-4.27198 7.74323,-7.59703 12.78274,-9.47365 2.95637,-1.09384 6.09162,-1.72165 9.24653,-1.7995 0,-4.71997 0,-9.43993 0,-14.15988 -0.97825,0.0426 -1.95647,0.0851 -2.93473,0.12775 z" />
    <path
       id="path73"
       style="fill:#c87137;fill-opacity:1;stroke:none;stroke-width:1.32292;stroke-linecap:round;stroke-linejoin:round;stroke-miterlimit:4.7;stroke-dasharray:none;stroke-opacity:1"
       d="m 247.37521,306.08327 c 5.8748,0.58571 11.65888,2.25383 16.83115,5.12357 6.00192,3.25805 11.18403,8.00479 15.001,13.66407 3.92236,5.80189 6.36688,12.57636 7.09288,19.53984 0.66397,6.31839 -0.1317,12.76585 -2.22354,18.76181 -2.09918,5.86524 -5.4664,11.26351 -9.8235,15.7184 -4.38089,4.44536 -9.72522,7.92212 -15.56607,10.12507 -4.55511,1.68454 -9.3876,2.62401 -14.24666,2.70673 0,-4.71995 0,-9.43992 0,-14.15986 5.01499,-0.11923 9.95876,-1.6311 14.24506,-4.22415 4.48228,-2.78114 8.19759,-6.78471 10.57923,-11.49721 2.43555,-4.79184 3.48661,-10.27359 2.99155,-15.62832 -0.49194,-5.35352 -2.51599,-10.55414 -5.78657,-14.82463 -3.26216,-4.27198 -7.74322,-7.59703 -12.78274,-9.47365 -2.95638,-1.09384 -6.09162,-1.72165 -9.24653,-1.7995 0,-4.71997 0,-9.43993 0,-14.15988 0.97824,0.0426 1.95648,0.0851 2.93474,0.12775 z" />
    <path
       id="path74"
       style="fill:#cf7130;fill-opacity:1;stroke:none;stroke-width:1.32292;stroke-linecap:round;stroke-linejoin:round;stroke-miterlimit:4.7;stroke-dasharray:none;stroke-opacity:1"
       d="m 247.37521,306.08327 c 5.8748,0.58571 11.65888,2.25383 16.83115,5.12357 6.00192,3.25805 11.18403,8.00479 15.001,13.66407 3.92236,5.80189 6.36688,12.57636 7.09288,19.53984 0.66397,6.31839 -0.1317,12.76585 -2.22354,18.76181 -2.09918,5.86524 -5.4664,11.26351 -9.8235,15.7184 -4.38089,4.44536 -9.72522,7.92212 -15.56607,10.12507 -4.55511,1.68454 -9.3876,2.62401 -14.24666,2.70673 0,-4.71995 0,-9.43992 0,-14.15986 5.01499,-0.11923 9.95876,-1.6311 14.24506,-4.22415 4.48228,-2.78114 8.19759,-6.78471 10.57923,-11.49721 2.43555,-4.79184 3.48661,-10.27359 2.99155,-15.62832 -0.49194,-5.35352 -2.51599,-10.55414 -5.78657,-14.82463 -3.26216,-4.27198 -7.74322,-7.59703 -12.78274,-9.47365 -2.95638,-1.09384 -6.09162,-1.72165 -9.24653,-1.7995 0,-4.71997 0,-9.43993 0,-14.15988 0.97824,0.0426 1.95648,0.0851 2.93474,0.12775 z" />
    <path
       id="path75"
       style="fill:#c87137;fill-opacity:1;stroke:none;stroke-width:1.32292;stroke-linecap:round;stroke-linejoin:round;stroke-miterlimit:4.7;stroke-dasharray:none;stroke-opacity:1"
       d="m 241.50572,306.08327 c -5.87477,0.58571 -11.65888,2.25383 -16.83114,5.12357 -6.00192,3.25805 -11.18404,8.00479 -15.00101,13.66407 -3.92235,5.80189 -6.36687,12.57636 -7.09287,19.53984 -0.66397,6.31839 0.1317,12.76585 2.22353,18.76181 2.09919,5.86524 5.46641,11.26351 9.82351,15.7184 4.38089,4.44536 9.72522,7.92212 15.56607,10.12507 4.55511,1.68454 9.3876,2.62401 14.24667,2.70673 0,-4.71995 0,-9.43992 0,-14.15986 -5.015,-0.11923 -9.95877,-1.6311 -14.24507,-4.22415 -4.48228,-2.78114 -8.1976,-6.78471 -10.57923,-11.49721 -2.43555,-4.79184 -3.48661,-10.27359 -2.99155,-15.62832 0.49193,-5.35352 2.51598,-10.55414 5.78656,-14.82463 3.26217,-4.27198 7.74323,-7.59703 12.78275,-9.47365 2.95637,-1.09384 6.09161,-1.72165 9.24654,-1.7995 0,-4.71997 0,-9.43993 0,-14.15988 -0.97826,0.0426 -1.9565,0.0851 -2.93475,0.12775 z" />
    <path
       id="path76"
       style="fill:#cf7130;fill-opacity:1;stroke:none;stroke-width:1.32292;stroke-linecap:round;stroke-linejoin:round;stroke-miterlimit:4.7;stroke-dasharray:none;stroke-opacity:1"
       d="m 241.50572,306.08327 c -5.87477,0.58571 -11.65888,2.25383 -16.83114,5.12357 -6.00192,3.25805 -11.18404,8.00479 -15.00101,13.66407 -3.92235,5.80189 -6.36687,12.57636 -7.09287,19.53984 -0.66397,6.31839 0.1317,12.76585 2.22353,18.76181 2.09919,5.86524 5.46641,11.26351 9.82351,15.7184 4.38089,4.44536 9.72522,7.92212 15.56607,10.12507 4.55511,1.68454 9.3876,2.62401 14.24667,2.70673 0,-4.71995 0,-9.43992 0,-14.15986 -5.015,-0.11923 -9.95877,-1.6311 -14.24507,-4.22415 -4.48228,-2.78114 -8.1976,-6.78471 -10.57923,-11.49721 -2.43555,-4.79184 -3.48661,-10.27359 -2.99155,-15.62832 0.49193,-5.35352 2.51598,-10.55414 5.78656,-14.82463 3.26217,-4.27198 7.74323,-7.59703 12.78275,-9.47365 2.95637,-1.09384 6.09161,-1.72165 9.24654,-1.7995 0,-4.71997 0,-9.43993 0,-14.15988 -0.97826,0.0426 -1.9565,0.0851 -2.93475,0.12775 z" />
    <g
       id="g76"
       transform="matrix(-1.309561,0,0,-1.3085727,650.92818,484.9249)"
       style="stroke:none;stroke-width:0.763902">
      <circle
         style="fill:#cf7130;fill-opacity:1;stroke:none;stroke-width:1.01058;stroke-linecap:round;stroke-linejoin:round;stroke-miterlimit:4.7;stroke-dasharray:none"
         id="circle76"
         cx="334.78757"
         cy="129.0152"
         r="7.7516322" />
    </g>
    <path
       d="m 182.91021,391.72277 c -9.19793,0 -16.78296,6.5824 -16.78296,18.35227 0,12.03142 7.58503,18.30868 16.78296,18.30868 9.19793,0 16.82655,-6.23367 16.82655,-18.30868 0,-11.55191 -7.1927,-18.35227 -16.82655,-18.35227 z m 0,29.38107 c -5.23105,0 -9.19793,-3.44377 -9.19793,-11.0288 0,-7.54143 4.01047,-11.0288 9.19793,-11.0288 5.23105,0 9.19793,3.48737 9.19793,11.0288 0,7.58503 -3.92329,11.0288 -9.19793,11.0288 z M 230.81795,392.46383 220.79177,420.232 210.722,392.46383 h -8.15173 v 35.26601 h 7.41067 v -20.22673 l 7.89017,20.22673 h 5.84134 l 7.89017,-20.18314 v 20.18314 h 7.41065 v -35.26601 z m 19.48571,0 h -7.23629 v 35.26601 h 7.23629 z m 28.24771,21.05499 c -0.56669,5.14386 -4.22843,7.58502 -8.63122,7.58502 -5.23107,0 -9.19794,-3.44377 -9.19794,-11.0288 0,-7.54143 4.01047,-11.0288 9.19794,-11.0288 4.05405,0 7.36705,2.13601 8.28248,6.53881 h 8.15174 c -1.65651,-8.76201 -8.10814,-13.86228 -16.43422,-13.86228 -9.19794,0 -16.78296,6.5824 -16.78296,18.35227 0,12.03142 7.58502,18.30868 16.78296,18.30868 8.28248,0 15.25722,-5.01309 16.60857,-14.8649 z"
       id="text77"
       style="font-weight:bold;font-size:43.5921px;line-height:1;font-family:'Neutral Face';-inkscape-font-specification:'Neutral Face Bold';fill:#1a1a1a;stroke-width:0.264583"
       aria-label="omic" />
  </g>
</svg>
