<?xml version="1.0" encoding="UTF-8" standalone="no"?>
<!-- Created with Inkscape (http://www.inkscape.org/) -->

<svg
   width="61.231617mm"
   height="69.262901mm"
   viewBox="0 0 61.231616 69.262901"
   version="1.1"
   id="svg1"
   inkscape:version="1.3 (0e150ed6c4, 2023-07-21)"
   sodipodi:docname="Portfolio_workPreviewElement_Tari.svg"
   xmlns:inkscape="http://www.inkscape.org/namespaces/inkscape"
   xmlns:sodipodi="http://sodipodi.sourceforge.net/DTD/sodipodi-0.dtd"
   xmlns="http://www.w3.org/2000/svg"
   xmlns:svg="http://www.w3.org/2000/svg">
  <sodipodi:namedview
     id="namedview1"
     pagecolor="#505050"
     bordercolor="#000000"
     borderopacity="1"
     inkscape:showpageshadow="0"
     inkscape:pageopacity="0"
     inkscape:pagecheckerboard="0"
     inkscape:deskcolor="#4c4c4c"
     inkscape:document-units="px"
     borderlayer="false"
     showborder="false"
     inkscape:zoom="1.0721378"
     inkscape:cx="2.7981478"
     inkscape:cy="181.41325"
     inkscape:window-width="1920"
     inkscape:window-height="1009"
     inkscape:window-x="-8"
     inkscape:window-y="-8"
     inkscape:window-maximized="1"
     inkscape:current-layer="layer1" />
  <defs
     id="defs1">
    <inkscape:path-effect
       effect="spiro"
       id="path-effect6"
       is_visible="true"
       lpeversion="1" />
    <inkscape:path-effect
       effect="spiro"
       id="path-effect4"
       is_visible="true"
       lpeversion="1" />
    <inkscape:path-effect
       effect="spiro"
       id="path-effect3"
       is_visible="true"
       lpeversion="1" />
    <inkscape:path-effect
       effect="spiro"
       id="path-effect1"
       is_visible="true"
       lpeversion="1" />
  </defs>
  <g
     inkscape:label="Слой 1"
     inkscape:groupmode="layer"
     id="layer1"
     transform="translate(-180.86574,-19.523849)">
    <rect
       style="fill:#ffffff;stroke:none;stroke-width:1.5875;stroke-linecap:round;stroke-linejoin:round;stroke-miterlimit:4.7;stroke-dasharray:none;stroke-opacity:1"
       id="rect2"
       width="61.231617"
       height="61.736076"
       x="180.86574"
       y="23.287262"
       ry="12.585835"
       rx="12.585835" />
    <g
       id="g2"
       transform="matrix(1.2898471,0,0,1.3106961,-63.314375,-10.253826)"
       style="stroke-width:0.769095">
      <path
         style="fill:#dde9af;stroke:none;stroke-width:2.96609;stroke-linecap:butt;stroke-linejoin:miter;stroke-dasharray:none;stroke-opacity:1"
         d="m 100.80404,32.214306 c 0.86411,2.420467 0.99373,5.161142 0.0171,7.538458 -0.48829,1.188659 -1.247635,2.270936 -2.230475,3.098802 -0.982841,0.827867 -2.190608,1.395806 -3.462613,1.578402 -1.433213,0.205738 -2.904758,-0.07724 -4.251627,-0.608627 -1.346869,-0.531387 -2.584224,-1.303679 -3.788503,-2.107507 -1.20428,-0.803828 -2.387384,-1.645575 -3.660976,-2.334336 -1.273592,-0.688761 -2.651836,-1.225093 -4.092884,-1.365837 -1.936302,-0.189114 -3.861484,0.34021 -5.744888,0.827873 -1.883404,0.487664 -3.842594,0.941175 -5.758153,0.601083 -0.957779,-0.170046 -1.889697,-0.54473 -2.64445,-1.158411 -0.754754,-0.613681 -1.322734,-1.475813 -1.502833,-2.431753 -0.1801,-0.95594 0.05183,-1.999313 0.686373,-2.73661 0.317274,-0.368649 0.72908,-0.657141 1.187839,-0.818711 0.458758,-0.16157 0.96367,-0.194489 1.437057,-0.08283 0.47013,0.110895 0.898614,0.358662 1.28018,0.654851 0.381566,0.296188 0.721791,0.64136 1.066278,0.979958 0.344486,0.338599 0.696203,0.672638 1.089572,0.952961 0.393369,0.280324 0.830024,0.505819 1.298093,0.625116 0.468069,0.119296 0.965579,0.129281 1.434224,0.01227 0.468645,-0.117012 0.903428,-0.360452 1.256431,-0.690163 0.353003,-0.329711 0.62238,-0.741443 0.827122,-1.178937 0.204741,-0.437494 0.346424,-0.901143 0.508829,-1.356055 0.915019,-2.563056 2.638494,-4.830769 4.862987,-6.398618 2.224492,-1.567849 4.939654,-2.42854 7.661145,-2.42854 2.721491,0 5.436653,0.860691 7.661145,2.42854 2.224493,1.567849 3.947968,3.835562 4.862987,6.398618 z"
         id="path2"
         transform="matrix(0.62049613,0,0,0.61441482,154.02107,21.883255)"
         inkscape:original-d="m 100.80404,32.214306 c 8.34943,0 -3.783963,8.143775 -5.675948,12.215662 -1.891985,4.071887 -10.529327,-4.277537 -15.79399,-6.416307 -5.264663,-2.13877 -8.226036,-3.866237 -12.339055,-5.799355 -4.113017,-1.933119 5.840486,0 8.760729,0 2.920241,0 16.698847,0 25.048264,0 z"
         inkscape:path-effect="#path-effect3" />
      <path
         style="fill:none;stroke:#89a02c;stroke-width:3.03748;stroke-linecap:butt;stroke-linejoin:miter;stroke-dasharray:none;stroke-opacity:1"
         d="m 100.80404,32.214306 c 0.86411,2.420467 0.99373,5.161142 0.0171,7.538458 -0.48829,1.188659 -1.247635,2.270936 -2.230475,3.098802 -0.982841,0.827867 -2.190608,1.395806 -3.462613,1.578402 -1.433213,0.205738 -2.904758,-0.07724 -4.251627,-0.608627 -1.346869,-0.531387 -2.584224,-1.303679 -3.788503,-2.107507 -1.20428,-0.803828 -2.387384,-1.645575 -3.660976,-2.334336 -1.273592,-0.688761 -2.651836,-1.225093 -4.092884,-1.365837 -1.936302,-0.189114 -3.861484,0.34021 -5.744888,0.827873 -1.883404,0.487664 -3.842594,0.941175 -5.758153,0.601083 -0.957779,-0.170046 -1.889697,-0.54473 -2.64445,-1.158411 -0.754754,-0.613681 -1.322734,-1.475813 -1.502833,-2.431753 -0.1801,-0.95594 0.05183,-1.999313 0.686373,-2.73661 0.317274,-0.368649 0.72908,-0.657141 1.187839,-0.818711 0.458758,-0.16157 0.96367,-0.194489 1.437057,-0.08283 0.47013,0.110895 0.898614,0.358662 1.28018,0.654851 0.381566,0.296188 0.721791,0.64136 1.066278,0.979958 0.344486,0.338599 0.696203,0.672638 1.089572,0.952961 0.393369,0.280324 0.830024,0.505819 1.298093,0.625116 0.468069,0.119296 0.965579,0.129281 1.434224,0.01227 0.468645,-0.117012 0.903428,-0.360452 1.256431,-0.690163 0.353003,-0.329711 0.62238,-0.741443 0.827122,-1.178937 0.204741,-0.437494 0.346424,-0.901143 0.508829,-1.356055 0.915019,-2.563056 2.638494,-4.830769 4.862987,-6.398618 2.224492,-1.567849 4.939654,-2.42854 7.661145,-2.42854 2.721491,0 5.436653,0.860691 7.661145,2.42854 2.224493,1.567849 3.947968,3.835562 4.862987,6.398618 z"
         id="path1"
         transform="matrix(-0.60591338,0,0,0.59997498,269.95977,22.373001)"
         inkscape:original-d="m 100.80404,32.214306 c 8.34943,0 -3.783963,8.143775 -5.675948,12.215662 -1.891985,4.071887 -10.529327,-4.277537 -15.79399,-6.416307 -5.264663,-2.13877 -8.226036,-3.866237 -12.339055,-5.799355 -4.113017,-1.933119 5.840486,0 8.760729,0 2.920241,0 16.698847,0 25.048264,0 z"
         inkscape:path-effect="#path-effect1" />
    </g>
    <path
       d="m 199.37232,56.273457 h -4.26545 V 54.94905 h 9.83003 v 1.324407 h -4.26545 v 14.127008 h -1.29913 z m 9.13717,14.127008 c -0.72174,0 -1.4146,-0.139798 -2.07859,-0.419394 -0.64956,-0.279598 -1.23417,-0.676921 -1.75382,-1.191968 -0.50522,-0.529762 -0.89495,-1.125745 -1.16921,-1.787949 -0.27426,-0.676919 -0.41139,-1.38327 -0.41139,-2.119051 0,-0.750497 0.1371,-1.456848 0.41139,-2.119052 0.27426,-0.676919 0.66399,-1.272902 1.16921,-1.787949 0.51965,-0.529762 1.10426,-0.934443 1.75382,-1.214039 0.66399,-0.279597 1.35685,-0.419396 2.07859,-0.419396 0.72173,0 1.41461,0.139799 2.0786,0.419396 0.66399,0.279596 1.2486,0.684277 1.75382,1.214039 l 0.30313,0.309028 v -1.92039 h 1.29911 v 11.036725 h -1.29911 v -1.942463 l -0.30313,0.331101 c -0.50522,0.515047 -1.08983,0.91237 -1.75382,1.191968 -0.66399,0.279596 -1.35687,0.419394 -2.0786,0.419394 z m 0,-1.324407 c 0.7506,0 1.43625,-0.183944 2.05694,-0.551835 0.63514,-0.382606 1.14034,-0.897654 1.51565,-1.545142 0.3753,-0.647488 0.56296,-1.34648 0.56296,-2.096978 0,-0.765213 -0.18766,-1.464204 -0.56296,-2.096977 -0.37531,-0.647488 -0.88051,-1.162536 -1.51565,-1.545142 -0.62069,-0.382606 -1.30634,-0.57391 -2.05694,-0.57391 -0.73616,0 -1.42181,0.191304 -2.05695,0.57391 -0.63512,0.382606 -1.14034,0.897654 -1.51564,1.545142 -0.36086,0.632773 -0.54129,1.331764 -0.54129,2.096977 0,0.750498 0.18043,1.44949 0.54129,2.096978 0.3753,0.647488 0.88052,1.162536 1.51564,1.545142 0.63514,0.367891 1.32079,0.551835 2.05695,0.551835 z m 8.03291,-9.712318 h 1.29913 v 1.368555 c 0.3753,-0.412039 0.82278,-0.735782 1.34242,-0.971232 0.59182,-0.264882 1.28469,-0.397323 2.07859,-0.397323 v 1.324407 c -0.62069,0 -1.19808,0.117719 -1.73215,0.353176 -0.51965,0.23545 -0.93827,0.706351 -1.25583,1.4127 -0.25982,0.544478 -0.40416,1.515711 -0.43303,2.913696 v 5.054821 h -1.29913 z m 7.25682,-4.41469 h 1.34243 v 1.368555 h -1.34243 z m 0.0217,4.41469 h 1.29911 v 11.036725 h -1.29911 z"
       id="text6"
       style="font-size:13.5663px;line-height:1;font-family:Espera;-inkscape-font-specification:Espera;stroke:#000000;stroke-width:1.5875;stroke-dasharray:none;stroke-opacity:1"
       aria-label="Tari"
       sodipodi:nodetypes="cccccccccscccscscssccccccccssscssccsscsccscccccccccccccccccccccc" />
    <text
       xml:space="preserve"
       style="font-style:normal;font-variant:normal;font-weight:normal;font-stretch:normal;font-size:7.05556px;line-height:1;font-family:'Britannic Bold';-inkscape-font-specification:'Britannic Bold, ';stroke-width:0.264583"
       x="189.31255"
       y="69.250237"
       id="text1"><tspan
         sodipodi:role="line"
         id="tspan1"
         style="font-style:normal;font-variant:normal;font-weight:normal;font-stretch:normal;font-family:'Britannic Bold';-inkscape-font-specification:'Britannic Bold, ';stroke-width:0.264583"
         x="189.31255"
         y="69.250237" /></text>
    <text
       xml:space="preserve"
       style="font-weight:bold;font-size:7.05556px;line-height:1;font-family:'Neutral Face';-inkscape-font-specification:'Neutral Face Bold';stroke-width:0.264583"
       x="197.70311"
       y="72.643478"
       id="text2"><tspan
         sodipodi:role="line"
         id="tspan2"
         style="stroke-width:0.264583"
         x="197.70311"
         y="72.643478" /></text>
  </g>
</svg>
