<?xml version="1.0" encoding="UTF-8" standalone="no"?>
<svg
   sodipodi:docname="Portfolio_workPreviewElement_Artsgone.svg"
   inkscape:version="1.3 (0e150ed6c4, 2023-07-21)"
   id="svg8"
   version="1.1"
   viewBox="0 0 384.31122 160.10907"
   height="160.10907mm"
   width="384.31122mm"
   xmlns:inkscape="http://www.inkscape.org/namespaces/inkscape"
   xmlns:sodipodi="http://sodipodi.sourceforge.net/DTD/sodipodi-0.dtd"
   xmlns:xlink="http://www.w3.org/1999/xlink"
   xmlns="http://www.w3.org/2000/svg"
   xmlns:svg="http://www.w3.org/2000/svg"
   xmlns:rdf="http://www.w3.org/1999/02/22-rdf-syntax-ns#"
   xmlns:cc="http://creativecommons.org/ns#"
   xmlns:dc="http://purl.org/dc/elements/1.1/">
  <defs
     id="defs2">
    <linearGradient
       id="linearGradient28"
       inkscape:collect="always">
      <stop
         style="stop-color:#9f8fbf;stop-opacity:1;"
         offset="0"
         id="stop27" />
      <stop
         style="stop-color:#593c83;stop-opacity:1;"
         offset="1"
         id="stop28" />
    </linearGradient>
    <linearGradient
       id="linearGradient26"
       inkscape:collect="always">
      <stop
         style="stop-color:#b298d2;stop-opacity:1;"
         offset="0"
         id="stop25" />
      <stop
         style="stop-color:#4e387b;stop-opacity:1;"
         offset="1"
         id="stop26" />
    </linearGradient>
    <linearGradient
       id="linearGradient20"
       inkscape:collect="always">
      <stop
         style="stop-color:#000000;stop-opacity:1;"
         offset="0"
         id="stop21" />
      <stop
         style="stop-color:#000000;stop-opacity:0;"
         offset="1"
         id="stop22" />
    </linearGradient>
    <linearGradient
       id="linearGradient19"
       inkscape:collect="always">
      <stop
         style="stop-color:#462179;stop-opacity:1;"
         offset="0"
         id="stop19" />
      <stop
         style="stop-color:#462179;stop-opacity:0;"
         offset="1"
         id="stop20" />
    </linearGradient>
    <linearGradient
       id="linearGradient13"
       inkscape:collect="always">
      <stop
         style="stop-color:#7653ad;stop-opacity:1;"
         offset="0"
         id="stop13" />
      <stop
         style="stop-color:#7653ad;stop-opacity:0;"
         offset="1"
         id="stop14" />
    </linearGradient>
    <inkscape:path-effect
       effect="skeletal"
       id="path-effect7752"
       is_visible="true"
       lpeversion="1"
       pattern="m -8.7697814,4.4153479 c 0,-2.76 2.24,-4.99999999 5,-4.99999999 2.76,0 5,2.23999999 5,4.99999999 0,2.76 -2.24,5 -5,5 -2.76,0 -5,-2.24 -5,-5 z"
       copytype="single_stretched"
       prop_scale="3.7582856"
       scale_y_rel="false"
       spacing="0"
       normal_offset="0"
       tang_offset="0"
       prop_units="false"
       vertical_pattern="false"
       hide_knot="false"
       fuse_tolerance="0" />
    <inkscape:path-effect
       effect="spiro"
       id="path-effect7748"
       is_visible="true"
       lpeversion="1" />
    <inkscape:path-effect
       update_on_knot_move="true"
       attempt_force_join="true"
       miter_limit="4"
       offset="350.17669"
       unit="px"
       linejoin_type="miter"
       lpeversion="1.2"
       is_visible="true"
       id="path-effect7744"
       effect="offset" />
    <inkscape:path-effect
       effect="skeletal"
       id="path-effect919"
       is_visible="true"
       lpeversion="1"
       pattern="m -8.7697814,4.4153479 c 0,-2.76 2.24,-4.99999999 5,-4.99999999 2.76,0 5,2.23999999 5,4.99999999 0,2.76 -2.24,5 -5,5 -2.76,0 -5,-2.24 -5,-5 z"
       copytype="single_stretched"
       prop_scale="3.7582856"
       scale_y_rel="false"
       spacing="0"
       normal_offset="0"
       tang_offset="0"
       prop_units="false"
       vertical_pattern="false"
       hide_knot="false"
       fuse_tolerance="0" />
    <inkscape:path-effect
       effect="spiro"
       id="path-effect917"
       is_visible="true"
       lpeversion="1" />
    <inkscape:path-effect
       update_on_knot_move="true"
       attempt_force_join="true"
       miter_limit="4"
       offset="1.7"
       unit="mm"
       linejoin_type="miter"
       lpeversion="1"
       is_visible="true"
       id="path-effect6934"
       effect="offset" />
    <inkscape:path-effect
       fuse_tolerance="0"
       hide_knot="false"
       vertical_pattern="false"
       prop_units="false"
       tang_offset="0"
       normal_offset="0"
       spacing="0"
       scale_y_rel="false"
       prop_scale="6.065203"
       copytype="single_stretched"
       pattern="M 0,5 C 0,2.24 2.24,0 5,0 7.76,0 10,2.24 10,5 10,7.76 7.76,10 5,10 2.24,10 0,7.76 0,5 Z"
       lpeversion="1"
       is_visible="true"
       id="path-effect6725"
       effect="skeletal" />
    <inkscape:path-effect
       lpeversion="1"
       is_visible="true"
       id="path-effect6723"
       effect="spiro" />
    <inkscape:path-effect
       fuse_tolerance="0"
       hide_knot="false"
       vertical_pattern="false"
       prop_units="false"
       tang_offset="0"
       normal_offset="0"
       spacing="0"
       scale_y_rel="false"
       prop_scale="5.2014532"
       copytype="single_stretched"
       pattern="m -272.55405,199.56435 c 0,-2.3 1.86667,-4.16667 4.16667,-4.16667 2.3,0 4.16667,1.86667 4.16667,4.16667 0,2.3 -1.86667,4.16667 -4.16667,4.16667 -2.3,0 -4.16667,-1.86667 -4.16667,-4.16667 z"
       lpeversion="1"
       is_visible="true"
       id="path-effect6719"
       effect="skeletal" />
    <inkscape:path-effect
       lpeversion="1"
       is_visible="true"
       id="path-effect6717"
       effect="spiro" />
    <linearGradient
       id="linearGradient6699"
       inkscape:collect="always">
      <stop
         id="stop6695"
         offset="0"
         style="stop-color:#592f9b;stop-opacity:1;" />
      <stop
         id="stop6697"
         offset="1"
         style="stop-color:#dcd0ec;stop-opacity:1;" />
    </linearGradient>
    <inkscape:path-effect
       update_on_knot_move="true"
       attempt_force_join="true"
       miter_limit="4"
       offset="350.17669"
       unit="px"
       linejoin_type="miter"
       lpeversion="1.2"
       is_visible="true"
       id="path-effect6587"
       effect="offset" />
    <inkscape:path-effect
       update_on_knot_move="true"
       attempt_force_join="true"
       miter_limit="4"
       offset="0"
       unit="mm"
       linejoin_type="miter"
       lpeversion="1"
       is_visible="true"
       id="path-effect6585"
       effect="offset" />
    <inkscape:path-effect
       down_right_point="340.72036,146.76687"
       down_left_point="-222.53082,146.76687"
       up_right_point="293.01461,100.7201"
       up_left_point="-174.82507,100.7201"
       effect="perspective-envelope"
       id="path-effect889"
       is_visible="true"
       lpeversion="1"
       deform_type="perspective"
       horizontal_mirror="false"
       vertical_mirror="true"
       overflow_perspective="true" />
    <inkscape:path-effect
       down_right_point="340.72036,146.76687"
       down_left_point="-222.53082,146.76687"
       up_right_point="293.01461,100.7201"
       up_left_point="-174.82507,100.7201"
       effect="perspective-envelope"
       id="path-effect869"
       is_visible="true"
       lpeversion="1"
       deform_type="perspective"
       horizontal_mirror="false"
       vertical_mirror="true"
       overflow_perspective="true" />
    <inkscape:path-effect
       overflow_perspective="true"
       vertical_mirror="true"
       horizontal_mirror="false"
       deform_type="perspective"
       lpeversion="1"
       is_visible="true"
       id="path-effect874"
       effect="perspective-envelope"
       up_left_point="-174.82507,100.7201"
       up_right_point="293.01461,100.7201"
       down_left_point="-222.53082,146.76687"
       down_right_point="340.72036,146.76687" />
    <inkscape:path-effect
       down_right_point="340.72036,146.76687"
       down_left_point="-222.53082,146.76687"
       up_right_point="293.01461,100.7201"
       up_left_point="-174.82507,100.7201"
       effect="perspective-envelope"
       id="path-effect854"
       is_visible="true"
       lpeversion="1"
       deform_type="perspective"
       horizontal_mirror="false"
       vertical_mirror="true"
       overflow_perspective="true" />
    <linearGradient
       gradientUnits="userSpaceOnUse"
       y2="5148.6279"
       x2="-2212.5837"
       y1="5847.9731"
       x1="-2212.5837"
       id="linearGradient6701"
       xlink:href="#linearGradient6699"
       inkscape:collect="always"
       gradientTransform="matrix(0.04705932,0,0,0.04695203,343.12216,-89.053475)" />
    <linearGradient
       inkscape:collect="always"
       xlink:href="#linearGradient13"
       id="linearGradient14"
       x1="263.33023"
       y1="104.94453"
       x2="334.5538"
       y2="104.94453"
       gradientUnits="userSpaceOnUse"
       gradientTransform="matrix(-0.69825938,0,0,0.70194875,361.26046,20.101791)" />
    <linearGradient
       inkscape:collect="always"
       xlink:href="#linearGradient13"
       id="linearGradient17"
       gradientUnits="userSpaceOnUse"
       gradientTransform="matrix(0.69825938,0,0,0.70194875,129.52584,20.101791)"
       x1="263.33023"
       y1="104.94453"
       x2="334.5538"
       y2="104.94453" />
    <radialGradient
       inkscape:collect="always"
       xlink:href="#linearGradient19"
       id="radialGradient20"
       cx="239.88451"
       cy="178.24619"
       fx="239.88451"
       fy="178.24619"
       r="118.18297"
       gradientTransform="matrix(1,0,0,0.29646302,0,125.40278)"
       gradientUnits="userSpaceOnUse" />
    <radialGradient
       inkscape:collect="always"
       xlink:href="#linearGradient20"
       id="radialGradient22"
       cx="1481.3486"
       cy="1430.9237"
       fx="1481.3486"
       fy="1430.9237"
       r="502.89548"
       gradientTransform="matrix(1,0,0,0.38547981,0,879.33153)"
       gradientUnits="userSpaceOnUse" />
    <radialGradient
       inkscape:collect="always"
       xlink:href="#linearGradient26"
       id="radialGradient24"
       gradientUnits="userSpaceOnUse"
       gradientTransform="matrix(1,0,0,0.2699849,-7.5316946,133.86517)"
       cx="245.58058"
       cy="140.44878"
       fx="245.58058"
       fy="140.44878"
       r="180.12878" />
    <radialGradient
       inkscape:collect="always"
       xlink:href="#linearGradient28"
       id="radialGradient25"
       gradientUnits="userSpaceOnUse"
       gradientTransform="matrix(1,0,0,0.2699849,-9.5547761,133.86517)"
       cx="245.58058"
       cy="140.44878"
       fx="245.58058"
       fy="140.44878"
       r="180.12878" />
    <radialGradient
       inkscape:collect="always"
       xlink:href="#linearGradient20"
       id="radialGradient28"
       gradientUnits="userSpaceOnUse"
       gradientTransform="matrix(1,0,0,0.38547981,0,879.33153)"
       cx="1481.3486"
       cy="1430.9237"
       fx="1481.3486"
       fy="1430.9237"
       r="502.89548" />
  </defs>
  <sodipodi:namedview
     showguides="false"
     inkscape:snap-global="false"
     inkscape:snap-intersection-paths="true"
     inkscape:object-paths="true"
     id="base"
     pagecolor="#797979"
     bordercolor="#666666"
     borderopacity="1.0"
     inkscape:pageopacity="0"
     inkscape:pageshadow="2"
     inkscape:zoom="0.32"
     inkscape:cx="381.25"
     inkscape:cy="104.6875"
     inkscape:document-units="px"
     inkscape:current-layer="layer1"
     inkscape:document-rotation="0"
     showgrid="false"
     showborder="false"
     inkscape:window-width="1920"
     inkscape:window-height="1009"
     inkscape:window-x="-8"
     inkscape:window-y="-8"
     inkscape:window-maximized="1"
     inkscape:snap-smooth-nodes="true"
     inkscape:showpageshadow="false"
     inkscape:pagecheckerboard="false"
     inkscape:deskcolor="#6a6a6a"
     borderlayer="true" />
  <metadata
     id="metadata5">
    <rdf:RDF>
      <cc:Work
         rdf:about="">
        <dc:format>image/svg+xml</dc:format>
        <dc:type
           rdf:resource="http://purl.org/dc/dcmitype/StillImage" />
      </cc:Work>
    </rdf:RDF>
  </metadata>
  <g
     inkscape:label="Слой 1"
     inkscape:groupmode="layer"
     id="layer1"
     transform="translate(-45.52786,-60.307202)">
    <path
       id="path25"
       style="opacity:1;fill:url(#radialGradient25);stroke:#170b28;stroke-width:3.96875;stroke-linecap:square;stroke-miterlimit:4.7"
       d="m 72.193883,124.70806 99.210407,52.57045 71.01762,-52.84179 78.96627,44.36982 98.13346,-49.29213 -40.5244,98.9175 H 89.537866 Z"
       sodipodi:nodetypes="cccccccc" />
    <path
       id="path24"
       style="opacity:1;fill:url(#radialGradient24);stroke:#170b28;stroke-width:3.96875;stroke-linecap:square;stroke-miterlimit:4.7"
       d="m 60.574386,149.09934 95.561254,8.20538 86.65168,-32.06416 93.38886,27.1873 78.75396,-3.32852 -33.90982,69.33257 H 91.560948 Z"
       sodipodi:nodetypes="cccccccc" />
    <path
       style="fill:url(#linearGradient17);stroke:#170b28;stroke-width:3.96875;stroke-linecap:butt;stroke-linejoin:miter;stroke-dasharray:none;stroke-opacity:1"
       d="M 344.66819,125.54301 361.79278,61.295471 327.71748,120.62746 314.78426,72.104983 V 125.54301 Z"
       id="path17" />
    <path
       style="fill:url(#linearGradient14);stroke:#170b28;stroke-width:3.96875;stroke-linecap:butt;stroke-linejoin:miter;stroke-dasharray:none;stroke-opacity:1"
       d="m 146.11812,125.54301 -17.12459,-64.247539 34.0753,59.331989 12.93322,-48.522477 v 53.438027 z"
       id="path7" />
    <g
       transform="matrix(-0.18827962,0,0,0.18827962,633.63658,-281.10714)"
       id="g922"
       style="stroke-width:5.31125">
      <path
         id="path6741"
         style="opacity:1;fill:#cccccc;fill-opacity:1;stroke:none;stroke-width:21.8317;stroke-linecap:round;stroke-linejoin:round;stroke-miterlimit:4;stroke-dasharray:none"
         d="m -1464.4982,1699.7124 c -29.544,20.1696 -93.3404,50.5562 -128.0791,51.1076 -14.7069,0.2335 -15.255,-10.8971 -24.0489,-14.1099 -24.5151,-8.9563 -52.259,-43.8809 -77.4901,-65.5941 -42.7243,-36.7674 -75.9114,-61.8296 -65.3049,-73.8566 7.313,-8.2925 61.8612,3.1048 93.5711,21.8354 32.6728,19.2995 49.2747,39.7912 54.4147,46.2622 12.2767,15.4557 19.9139,23.5937 24.9896,15.0536 14.1054,-23.7328 49.3452,-55.3273 62.8469,-63.9662 54.3997,-34.8071 101.369,-74.7146 124.8809,-27.1383 11.7336,23.7429 1.2746,37.2471 -11.6836,56.0802 -12.1718,17.6902 -25.2313,34.6198 -54.0966,54.3261 z"
         sodipodi:nodetypes="ssssssssssss" />
      <path
         style="fill:#808080;stroke:none;stroke-width:1.40527px;stroke-linecap:butt;stroke-linejoin:miter;stroke-opacity:1"
         d="m -1588.2104,1684.2038 c 0,0 4.6628,4.3466 4.3808,12.524 -0.282,8.1775 -2.1249,19.9039 -2.1249,19.9039 0,0 2.4695,-2.2558 4.4433,-14.945 1.9739,-12.6892 -3.0334,-18.0468 -3.0334,-18.0468 z"
         id="path6936"
         sodipodi:nodetypes="cscscc" />
      <path
         sodipodi:nodetypes="ssccs"
         id="path6940"
         d="m -1667.8501,1623.8325 c -0.5721,2.1351 17.4384,14.7214 23.0213,20.7031 5.583,5.9818 12.5717,15.5767 12.5717,15.5767 0,0 0.1511,-3.3413 -7.4258,-13.7096 -4.1593,-4.7287 -26.5519,-28.5984 -28.1672,-22.5702 z"
         style="fill:#808080;stroke:none;stroke-width:1.40527px;stroke-linecap:butt;stroke-linejoin:miter;stroke-opacity:1" />
      <path
         sodipodi:nodetypes="ssccs"
         id="path6752"
         d="m -1475.5385,1692.9808 c -0.5721,-2.1351 17.4384,-14.7214 23.0213,-20.7031 5.583,-5.9818 12.5717,-15.5767 12.5717,-15.5767 0,0 0.1511,3.3413 -7.4258,13.7096 -4.1593,4.7287 -26.5519,28.5984 -28.1672,22.5702 z"
         style="fill:#808080;stroke:none;stroke-width:1.40527px;stroke-linecap:butt;stroke-linejoin:miter;stroke-opacity:1" />
      <path
         style="fill:#808080;stroke:none;stroke-width:0.935656px;stroke-linecap:butt;stroke-linejoin:miter;stroke-opacity:1"
         d="m -1593.2192,1683.5987 c 0,0 2.7318,3.2482 1.8869,8.6302 -0.8448,5.3822 -3.0072,12.9842 -3.0072,12.9842 0,0 1.8139,-1.2922 4.1403,-9.5199 2.3263,-8.2278 -0.5517,-12.1721 -0.5517,-12.1721 z"
         id="path6750"
         sodipodi:nodetypes="cscscc" />
      <path
         id="path6757"
         style="opacity:1;fill:#ffffff;fill-opacity:1;stroke:none;stroke-width:69.2449;stroke-linecap:round;stroke-linejoin:round;stroke-miterlimit:4;stroke-dasharray:none"
         d="m -1735.8391,1449.7993 c -2.1188,-0.036 -4.3982,0.6788 -5.7598,2.176 -2.7912,3.0638 -1.7886,8.1096 -2.251,12.2282 -0.6127,5.4589 -0.2199,10.9918 -0.6842,16.4647 -0.4687,5.5245 -1.369,11.0041 -2.1193,16.4972 -0.6497,4.7589 -1.4351,9.7185 -2.0629,14.2601 h -5e-4 c -0.2309,1.6698 -1.1088,2.6945 -1.8774,4.1708 -1.3308,1.5277 -2.8893,3.6498 -4.7005,4.1057 -1.7037,0.4274 -4.0548,-1.2859 -6.2472,-2.3808 -0.065,-0.1897 -0.1328,-0.3797 -0.2062,-0.5705 -1.0773,-2.7996 -3.7565,-5.8114 -5.2524,-8.4837 -2.2395,-4.0009 -4.0256,-8.2174 -6.2983,-12.1843 -2.8444,-4.9653 -6.1509,-9.6522 -9.1684,-14.5143 -2.087,-3.364 -4.1673,-6.7324 -6.181,-10.1405 -2.4025,-4.0662 -3.1246,-9.6544 -7.0389,-12.2974 -3.0022,-2.0268 -7.8528,-3.6362 -10.7652,-1.4826 -2.6655,1.9705 -2.1996,6.5575 -1.5906,9.8154 1.0068,5.3742 5.7199,9.3266 8.3054,14.1438 2.1293,3.9672 4.1187,8.0138 5.9252,12.1378 1.7856,4.0748 2.7862,8.4931 4.8483,12.4354 2.3749,4.5393 4.9335,9.1526 8.5793,12.7507 1.8015,1.7779 3.2678,7.1156 5.2571,10.0831 0.8784,2.0979 2.514,4.7431 1.8696,5.4673 -3.1577,3.5477 -3.305,4.2611 -5.1717,5.3387 -5.3123,3.0673 -6.3089,7.2313 -9.185,10.0345 -4.6375,4.5205 -6.1423,4.9908 -5.5898,11.1472 0.3112,3.448 1.7462,8.2215 3.7077,14.1795 1.7225,5.2381 2.6646,12.0633 5.4405,18.3901 2.3796,5.4237 6.8349,10.135 9.2785,13.8157 18.1773,27.3805 45.4485,20.0297 57.8704,1.1146 10.2593,-6.4665 -3.5114,-44.8688 -6.2136,-57.3505 l 5e-4,-5e-4 c -2.0333,-9.39 -2.0815,-18.3141 -4.6415,-27.2665 0.1295,-3.4228 -0.93,-8.0517 -0.5401,-10.7958 0.7203,-5.0716 0.9336,-10.2107 1.0542,-15.3319 0.1005,-4.3074 -0.1369,-8.617 -0.2795,-12.9232 -0.1563,-4.7404 -0.4063,-9.4772 -0.6325,-14.2151 -0.2636,-5.5113 0.7502,-11.2316 -0.8439,-16.5308 -0.6527,-2.1745 -3.1778,-3.7144 -5.4074,-4.1414 -0.4586,-0.088 -0.9389,-0.1359 -1.4279,-0.1441 z" />
      <path
         id="path6779"
         style="opacity:1;fill:#d1d1d1;fill-opacity:1;stroke:none;stroke-width:187.47;stroke-linecap:round;stroke-linejoin:round;stroke-miterlimit:4;stroke-dasharray:none"
         d="m -1786.3532,1550.2362 c -2.8327,-0.236 -4.7591,-7.5325 -4.0845,-11.3134 0.4158,-2.3223 2.2628,-3.9288 3.663,-5.1827 2.9108,-2.6077 9.175,-1.6978 12.458,0.4208 1.3098,0.8453 4.2116,3.1515 3.0283,4.2374 -1.123,1.0297 3.3571,15.2322 1.0244,17.9722 -1.7318,2.0342 -5.279,0.109 -8.1986,-2.2048 -1.9727,-1.5634 -3.6588,-3.5751 -4.305,-3.6292 z"
         sodipodi:nodetypes="sssssssss" />
      <path
         id="path6775"
         style="opacity:1;fill:#999999;fill-opacity:1;stroke:none;stroke-width:78.846;stroke-linecap:round;stroke-linejoin:round;stroke-miterlimit:4;stroke-dasharray:none"
         d="m -1720.1785,1569.5104 c 2.2001,4.0233 3.3973,9.0481 4.226,13.0909 1.1499,5.6212 2.0109,13.0327 0.6487,17.1444 -3.3396,10.0817 -15.0216,13.1999 -23.6898,12.6704 -11.6616,-0.7113 -16.5157,-17.3571 -16.3641,-28.2338 0.091,-6.5014 3.7807,-10.3113 1.8101,-14.9156 -1.8097,-4.2283 -7.2228,-5.7136 -11.0572,-8.2535 -4.7638,-3.1555 -11.4827,-3.9978 -14.8005,-8.65 -2.1511,-3.016 -3.8221,-7.5793 -2.177,-10.8984 1.7497,-3.531 6.6885,-5.0542 10.6273,-5.1798 5.03,-0.1602 9.3885,3.6451 13.9647,5.7388 3.588,1.6422 7.0516,3.5438 10.563,5.3442 4.6883,2.4045 9.821,4.1144 14.0249,7.2908 9.5121,9.2471 9.1472,9.2264 12.2239,14.8516 z"
         sodipodi:nodetypes="assssaaaaaaaca" />
      <path
         sodipodi:nodetypes="sssssss"
         d="m -1771.1055,1557.9968 c 3.9652,1.0876 8.1765,3.2846 8.9897,5.8369 1.2873,4.0497 -3.6287,7.235 -6.0961,7.8961 -4.8581,1.3022 -16.6325,-3.1578 -22.9297,-8.6553 -4.6699,-4.0777 -4.9387,-10.876 -0.664,-13.5264 8.1977,-5.0835 8.6508,2.2842 13.2778,5.0057 2.6804,1.5775 4.9204,2.757 7.4223,3.443 z"
         style="opacity:1;fill:#d1d1d1;fill-opacity:1;stroke:none;stroke-width:187.47;stroke-linecap:round;stroke-linejoin:round;stroke-miterlimit:4;stroke-dasharray:none"
         id="path6782" />
      <path
         id="path6811"
         style="opacity:1;fill:#666666;fill-opacity:1;stroke:none;stroke-width:44.124;stroke-linecap:round;stroke-linejoin:round;stroke-miterlimit:4;stroke-dasharray:none"
         d="m -1729.421,1489.4873 c 0,0.503 -2.4201,1.2561 -6.6323,1.2561 -4.2121,0 -8.3009,-1.1609 -8.1081,-1.8804 0.1654,-0.6171 2.1015,0.1126 6.3136,0.1126 4.2121,0 8.4268,-0.1856 8.4268,0.5117 z"
         sodipodi:nodetypes="sssss" />
      <path
         id="path6813"
         style="opacity:1;fill:#666666;fill-opacity:1;stroke:none;stroke-width:44.124;stroke-linecap:round;stroke-linejoin:round;stroke-miterlimit:4;stroke-dasharray:none"
         d="m -1729.6325,1470.383 c 0,0.503 -1.9971,-0.2595 -6.2093,-0.2595 -4.2121,0 -6.7147,0.249 -6.5219,-0.4705 0.1654,-0.6171 0.8678,-0.8391 5.0799,-0.8391 4.2121,0 7.6513,0.8718 7.6513,1.5691 z"
         sodipodi:nodetypes="sssss" />
      <path
         sodipodi:nodetypes="sssss"
         d="m -1787.5798,1474.366 c 0,0.503 -1.6446,2.3488 -5.5748,3.4062 -4.0675,1.0944 -7.4198,1.1303 -7.227,0.4108 0.1654,-0.6171 2.2885,-0.706 6.3489,-1.8261 4.5998,-1.2689 6.4529,-2.6882 6.4529,-1.9909 z"
         style="opacity:1;fill:#666666;fill-opacity:1;stroke:none;stroke-width:44.124;stroke-linecap:round;stroke-linejoin:round;stroke-miterlimit:4;stroke-dasharray:none"
         id="path6819" />
      <path
         id="path6823"
         style="opacity:1;fill:#666666;fill-opacity:1;stroke:none;stroke-width:44.124;stroke-linecap:round;stroke-linejoin:round;stroke-miterlimit:4;stroke-dasharray:none"
         d="m -1774.6086,1496.4135 c 0,0.503 -2.3143,3.1595 -6.2445,4.2169 -4.0675,1.0944 -7.4551,1.3593 -7.2623,0.6398 0.1654,-0.6171 1.8127,-0.5473 5.8731,-1.6674 4.5998,-1.2689 7.6337,-3.8866 7.6337,-3.1893 z"
         sodipodi:nodetypes="sssss" />
      <path
         id="path6825"
         style="opacity:1;fill:#666666;fill-opacity:1;stroke:none;stroke-width:20.9437;stroke-linecap:round;stroke-linejoin:round;stroke-miterlimit:4;stroke-dasharray:none"
         d="m -1786.9112,1498.5162 c 0,-0.2388 1.0984,-1.4997 2.9639,-2.0016 1.9306,-0.5194 3.5386,-0.6452 3.4471,-0.3036 -0.079,0.2928 -0.9133,0.5064 -2.8406,1.0381 -2.1832,0.6023 -3.5704,1.598 -3.5704,1.2671 z"
         sodipodi:nodetypes="sssss" />
      <path
         id="path6827"
         style="opacity:1;fill:#666666;fill-opacity:1;stroke:none;stroke-width:13.4206;stroke-linecap:round;stroke-linejoin:round;stroke-miterlimit:4;stroke-dasharray:none"
         d="m -1792.4458,1473.9357 c 0,0.1531 -0.7038,0.961 -1.8992,1.2827 -1.2372,0.3328 -2.2676,0.4134 -2.2089,0.1945 0.051,-0.1876 0.5388,-0.3907 1.7738,-0.7314 1.399,-0.386 2.3343,-0.9578 2.3343,-0.7458 z"
         sodipodi:nodetypes="sssss" />
      <path
         id="path6829"
         style="opacity:1;fill:#666666;fill-opacity:1;stroke:none;stroke-width:27.4608;stroke-linecap:round;stroke-linejoin:round;stroke-miterlimit:4;stroke-dasharray:none"
         d="m -1767.6212,1518.7228 c 0,0.3132 -1.4401,1.9663 -3.886,2.6246 -2.5315,0.6809 -4.6399,0.8458 -4.5198,0.3979 0.1044,-0.3838 1.1778,-0.5896 3.7049,-1.2868 2.8625,-0.7898 4.7009,-2.1695 4.7009,-1.7357 z"
         sodipodi:nodetypes="sssss" />
      <path
         id="path6815"
         style="opacity:1;fill:#666666;fill-opacity:1;stroke:none;stroke-width:44.124;stroke-linecap:round;stroke-linejoin:round;stroke-miterlimit:4;stroke-dasharray:none"
         d="m -1759.3816,1519.0954 c 0,0.503 -4.6759,3.1243 -8.6061,4.1817 -4.0675,1.0944 -7.8427,3.5623 -7.6499,2.8428 0.1654,-0.6171 1.1605,-2.6093 5.2209,-3.7294 4.5998,-1.2689 11.0351,-3.9924 11.0351,-3.2951 z"
         sodipodi:nodetypes="sssss" />
      <path
         sodipodi:nodetypes="sssss"
         d="m -1731.4325,1518.9417 c 0,1.1374 -5.4061,2.1474 -9.2658,1.09 -4.0624,-1.113 -8.2047,-2.4361 -8.0119,-3.156 0.1654,-0.6171 4.3852,0.8884 8.5714,1.3555 4.1063,0.4583 8.7063,-0.1278 8.7063,0.7105 z"
         style="opacity:1;fill:#666666;fill-opacity:1;stroke:none;stroke-width:44.124;stroke-linecap:round;stroke-linejoin:round;stroke-miterlimit:4;stroke-dasharray:none"
         id="path6831" />
      <path
         sodipodi:nodetypes="sssss"
         d="m -1734.1608,1516.4776 c 0,0.378 -2.9057,0.8631 -4.1883,0.5117 -1.35,-0.3699 -2.8886,-1.2582 -2.8245,-1.4974 0.055,-0.2051 2.7284,0.5943 4.1195,0.7496 1.3646,0.1523 2.8933,-0.043 2.8933,0.2361 z"
         style="opacity:1;fill:#666666;fill-opacity:1;stroke:none;stroke-width:14.6633;stroke-linecap:round;stroke-linejoin:round;stroke-miterlimit:4;stroke-dasharray:none"
         id="path6833" />
      <path
         sodipodi:nodetypes="sssss"
         d="m -1741.1403,1492.2642 c 0,-0.378 2.9057,-0.8631 4.1883,-0.5117 1.35,0.3699 3.5242,0.7099 3.4601,0.9491 -0.055,0.2051 -3.364,-0.046 -4.7551,-0.2013 -1.3646,-0.1523 -2.8933,0.043 -2.8933,-0.2361 z"
         style="opacity:1;fill:#666666;fill-opacity:1;stroke:none;stroke-width:14.6633;stroke-linecap:round;stroke-linejoin:round;stroke-miterlimit:4;stroke-dasharray:none"
         id="path6835" />
      <path
         id="path6784"
         style="opacity:1;fill:#666666;fill-opacity:1;stroke:none;stroke-width:13.5618;stroke-linecap:round;stroke-linejoin:round;stroke-miterlimit:4;stroke-dasharray:none"
         d="m -1739.3051,1467.766 c 0,-0.3496 3.3883,-0.9776 4.5745,-0.6526 1.2486,0.3421 2.1827,0.7073 2.1234,0.9286 -0.051,0.1897 -1.3335,-0.077 -2.6201,-0.2206 -1.2621,-0.1409 -4.0778,0.2027 -4.0778,-0.056 z"
         sodipodi:nodetypes="sssss" />
      <path
         style="fill:#808080;stroke:none;stroke-width:0.767853px;stroke-linecap:butt;stroke-linejoin:miter;stroke-opacity:1"
         d="m -1760.8715,1611.33 c 0.3126,-1.1667 -9.5286,-8.044 -12.5792,-11.3124 -3.0506,-3.2686 -6.8693,-8.5113 -6.8693,-8.5113 0,0 -0.083,1.8257 4.0575,7.491 2.2727,2.5839 14.5083,15.6266 15.391,12.3327 z"
         id="path6938"
         sodipodi:nodetypes="ssccs" />
    </g>
    <g
       id="g19"
       transform="matrix(0.18073656,0,0,0.18073656,71.213635,-80.37394)"
       style="stroke:none;stroke-width:5.53292">
      <path
         style="color:#000000;fill:#170b28;stroke:none;stroke-width:0;-inkscape-stroke:none"
         d="m 107.36602,1237.0677 8.75703,59.2428 -258.24024,190.0391 202.603518,138.4302 H 176.67773 l 28.27735,-21.6875 20.7539,21.6875 h 67.31836 67.48828 55.78516 12.03516 91.51172 106.05859 25.84375 59.32812 127.43165 173.86913 57.3535 131.2598 95.7266 99.373 67.6992 l 9.4688,-13.3867 23.8086,13.3867 h 24.9628 77.8282 193.3379 l 191.0468,-128.8384 -86.289,-83.291 -62.4766,-60.3047 -73.3711,-70.8223 h -0.01 l -56.6125,-44.4557 h -220.8008 -46.3203 -62.6973 l -3.8731,7.3183 -13.5332,-7.3183 h -60.3867 -59.7226 -123.4512 -76.7559 H 933.46533 836.67822 757.66455 675.1333 580.50439 522.18994 363.52588 Z"
         id="path19"
         sodipodi:nodetypes="cccccccccccccccccccccccccccccccccccccccccccccccccc" />
    </g>
    <path
       id="path7820"
       style="color:#000000;fill:url(#radialGradient20);stroke:none;stroke-width:0;-inkscape-stroke:none"
       d="m 121.70154,143.2093 v 70.07376 h 6.25853 23.03167 31.42444 10.36578 23.72362 17.30127 17.96014 12.23595 l 1.71101,-2.41949 4.30309,2.41949 h 4.51187 14.06633 34.94309 l 34.52915,-23.28592 -15.59543,-15.05334 -11.29181,-10.8996 -13.26069,-12.80025 h -0.002 l -10.23193,-8.03465 h -39.90713 -8.37158 -11.33161 l -0.70022,1.32292 -2.44584,-1.32292 H 234.0151 223.22093 200.90911 187.03657 168.15349 150.6605 136.37972 Z" />
    <g
       id="g18"
       transform="matrix(0.18073656,0,0,0.18073656,-131.3144,-80.373942)"
       style="fill:url(#radialGradient22);stroke:none;stroke-width:5.53292">
      <path
         style="color:#000000;fill:url(#radialGradient28);stroke:none;stroke-width:0;-inkscape-stroke:none"
         d="m 1227.9364,1237.0677 8.757,59.2428 -258.24023,190.0391 202.60353,138.4302 h 612.1406 l 191.0468,-128.8384 -86.289,-83.291 -62.4766,-60.3047 -73.3711,-70.8223 h -0.01 l -56.6125,-44.4557 z"
         id="path18"
         sodipodi:nodetypes="cccccccccccc" />
    </g>
    <path
       style="color:#000000;-inkscape-font-specification:FalconsFont;fill:url(#linearGradient6701);stroke-width:8.30765;stroke-linecap:round;stroke-linejoin:round;-inkscape-stroke:none"
       d="m 100.86097,151.68139 0.90231,4.38102 -14.554656,10.68607 -2.435585,1.78823 -23.434618,17.2058 H 72.20176 l 16.146031,-12.35489 h 15.840059 l -6.569472,12.35489 h 10.333742 l 11.88736,-15.86465 0.61821,-1.34115 0.82427,-1.78823 6.94539,-15.06709 z m 27.36638,0 1.96363,4.38102 -8.00671,10.68607 -1.33991,1.78823 -1.00488,1.34115 -7.31284,15.86465 h 9.2215 l 9.20388,-13.523 h 9.66249 l -0.52407,13.523 h 13.74471 l -0.35285,-13.523 h 4.90171 l 1.96814,-3.6828 0.95561,-1.78823 4.54187,-8.49886 -4.90107,-6.56823 z m 37.62228,6.56823 h 8.9862 l -3.48266,8.49886 -0.73273,1.78823 -7.05052,17.2058 h 14.35097 l 5.82248,-17.2058 0.60516,-1.78823 2.87604,-8.49886 h 12.78166 l 0.57924,-2.18721 -4.24233,-4.38102 h -26.98337 z m 34.73584,-2.18721 -2.34783,10.68607 -0.39283,1.78823 -0.54422,2.4768 h 26.41223 l -0.46113,5.91265 h -27.25028 l -1.93706,8.81635 h 42.29521 l 0.16084,-17.2058 0.0167,-1.78823 0.0312,-3.33155 h -25.33539 l 0.78071,-5.16731 h 24.60329 l 0.02,-2.14172 0.42748,10.64058 0.0719,1.78823 0.69128,17.2058 h 43.25514 l -4.39232,-17.2058 -0.45654,-1.78823 -0.83824,-3.28371 H 255.8048 l 0.47849,3.28371 0.26058,1.78823 0.36084,2.4768 h 8.19494 l 1.13228,5.96805 h -15.56221 l -0.91866,-8.44485 -0.19449,-1.78823 -0.91968,-8.45373 h 25.43879 l -0.55855,-2.18841 -6.54549,-4.42495 h -30.29333 l -0.0414,4.42495 -5.38232,-4.42495 h -29.50941 z m 72.93164,0.0439 3.22485,10.64214 0.54193,1.78823 5.21374,17.2058 h 43.45763 l -8.93253,-17.2058 -0.92843,-1.78823 -5.52459,-10.64141 6.05025,10.64141 1.01673,1.78823 9.78256,17.2058 h 13.79526 l -10.96307,-17.2058 -1.13943,-1.78823 -0.32309,-0.50702 0.90378,0.50702 3.18745,1.78823 30.66898,17.2058 h 7.98418 l -13.55713,-17.2058 -1.40901,-1.78823 -8.42003,-10.68607 -8.85745,-4.38102 h -6.05264 l 10.83798,15.06709 0.92897,1.29147 -2.3936,-1.29147 -27.9252,-15.06709 h -6.41322 l 2.29728,4.42495 -7.72032,-4.42495 h -30.46172 z m 74.63003,-0.0439 8.91039,10.68607 1.4911,1.78823 14.34664,17.2058 h 41.13317 l -9.09734,-8.76095 h -25.61508 l -5.40244,-5.96805 h 24.82021 l -2.5719,-2.4768 -1.85684,-1.78823 -3.45948,-3.33155 h -23.80826 l -4.63663,-5.12218 h 23.1258 l -6.86699,-6.61336 h -33.96433 z m -207.68583,2.18721 h 13.47964 l -3.78533,6.27664 h -13.96688 z m -32.33849,0.0451 h 4.1449 l -3.91347,7.35495 h -9.870784 z m 177.96924,0 h 13.70143 l 3.80878,8.45373 0.8057,1.78823 3.80474,8.44485 H 293.037 l -3.13846,-8.44485 -0.66462,-1.78823 z"
       id="path7844" />
    <path
       style="color:#000000;-inkscape-font-specification:FalconsFont;fill:#c6afe9;stroke-width:1;stroke-linecap:round;stroke-linejoin:round;-inkscape-stroke:none"
       d="m 769.66998,76.203752 a 0.78215877,0.78215877 0 0 0 -0.76599,0.93993 l 0.80093,3.88951 -14.15002,10.38922 -2.43587,1.7883 -23.43456,17.205868 a 0.78215877,0.78215877 0 0 0 0.46297,1.41248 h 10.86322 a 0.78215877,0.78215877 0 0 0 0.47548,-0.16108 l 15.93537,-12.193658 h 14.27358 l -5.95838,11.205568 a 0.78215877,0.78215877 0 0 0 0.6906,1.14917 h 10.33368 a 0.78215877,0.78215877 0 0 0 0.62588,-0.31294 l 7.46169,-9.95823 -4.22306,9.16171 a 0.78215877,0.78215877 0 0 0 0.7101,1.10946 h 9.22165 a 0.78215877,0.78215877 0 0 0 0.64648,-0.342 l 8.97086,-13.181038 h 8.43581 l -0.49239,12.710698 a 0.78215877,0.78215877 0 0 0 0.78143,0.81234 h 13.74478 a 0.78215877,0.78215877 0 0 0 0.7818,-0.8024 l -0.33206,-12.720638 h 4.09913 a 0.78215877,0.78215877 0 0 0 0.6895,-0.41333 l 1.96847,-3.68286 0.95538,-1.78828 4.32087,-8.08537 h 7.35173 l -3.04042,7.42014 -0.7329,1.78828 -7.05055,17.205898 a 0.78215877,0.78215877 0 0 0 0.7237,1.07856 h 14.35117 a 0.78215877,0.78215877 0 0 0 0.74062,-0.53139 l 5.82232,-17.205868 0.6053,-1.78792 2.69622,-7.9677 h 11.34678 l -1.65848,7.54885 -0.39273,1.78828 -0.54426,2.47669 a 0.78215877,0.78215877 0 0 0 0.7638,0.95022 h 25.56667 l -0.33905,4.348448 H 864.8104 a 0.78215877,0.78215877 0 0 0 -0.76377,0.61412 l -1.93723,8.81641 a 0.78215877,0.78215877 0 0 0 0.76377,0.94986 h 42.29527 a 0.78215877,0.78215877 0 0 0 0.73067,-0.65273 0.78215877,0.78215877 0 0 0 0.73731,0.65273 h 43.25541 a 0.78215877,0.78215877 0 0 0 0.71709,-0.51777 0.78215877,0.78215877 0 0 0 0.69757,0.51777 h 43.45767 a 0.78215877,0.78215877 0 0 0 0.70825,-0.52843 l 0.0757,0.13311 a 0.78215877,0.78215877 0 0 0 0.67996,0.39532 h 13.79553 a 0.78215877,0.78215877 0 0 0 0.6593,-1.20213 l -10.7525,-16.875648 1.3761,0.77187 30.669,17.205868 a 0.78215877,0.78215877 0 0 0 0.3824,0.10004 h 7.9842 a 0.78215877,0.78215877 0 0 0 0.6384,-0.42915 l 0.1232,0.14784 a 0.78215877,0.78215877 0 0 0 0.6005,0.28131 h 41.1332 a 0.78215877,0.78215877 0 0 0 0.5424,-1.34554 l -9.0973,-8.76088 a 0.78215877,0.78215877 0 0 0 -0.5424,-0.21882 h -25.2681 l -3.9866,-4.403598 h 23.0572 a 0.78215877,0.78215877 0 0 0 0.5425,-1.34554 l -2.5716,-2.47668 -1.8571,-1.7883 -3.4592,-3.33167 a 0.78215877,0.78215877 0 0 0 -0.5428,-0.2188 h -23.461 l -3.221,-3.55782 h 21.3631 a 0.78215877,0.78215877 0 0 0 0.5424,-1.34552 l -6.8671,-6.61332 a 0.78215877,0.78215877 0 0 0 -0.5424,-0.21882 h -33.9642 a 0.78215877,0.78215877 0 0 0 -0.6145,1.26612 l 1.308,1.66031 -5.7524,-2.84515 a 0.78215877,0.78215877 0 0 0 -0.3468,-0.0813 h -6.0525 a 0.78215877,0.78215877 0 0 0 -0.6347,1.2389 l 9.7824,13.59988 -27.32811,-14.745 a 0.78215877,0.78215877 0 0 0 -0.3714,-0.0938 h -6.41328 a 0.78215877,0.78215877 0 0 0 -0.69428,1.14255 l 1.07084,2.06225 -5.41083,-3.1011 a 0.78215877,0.78215877 0 0 0 -0.38871,-0.1037 h -30.46194 a 0.78215877,0.78215877 0 0 0 -0.75753,0.97561 l 0.62074,2.43108 -4.84048,-3.27247 a 0.78215877,0.78215877 0 0 0 -0.43798,-0.13422 h -30.29349 a 0.78215877,0.78215877 0 0 0 -0.78217,0.77482 l -0.0261,2.78925 -4.11862,-3.38607 a 0.78215877,0.78215877 0 0 0 -0.49679,-0.178 h -29.50952 a 0.78215877,0.78215877 0 0 0 -0.7557,0.58212 l -0.80535,3.04226 -3.27907,-3.38645 a 0.78215877,0.78215877 0 0 0 -0.5619,-0.23793 h -26.98319 a 0.78215877,0.78215877 0 0 0 -0.68987,0.4137 l -2.92973,5.48218 -4.16495,-5.58146 a 0.78215877,0.78215877 0 0 0 -0.62662,-0.31442 h -32.72132 z m 0.95979,1.56434 h 25.18461 l -6.43387,13.95733 -0.82409,1.78828 -0.5836,1.26613 -11.6031,15.485258 h -8.64063 l 5.95838,-11.205948 a 0.78215877,0.78215877 0 0 0 -0.6906,-1.14916 h -15.84012 a 0.78215877,0.78215877 0 0 0 -0.47512,0.16105 l -15.93574,12.194058 h -8.21185 l 21.51094,-15.793438 2.4355,-1.78828 14.55453,-10.68598 a 0.78215877,0.78215877 0 0 0 0.30338,-0.78842 z m 27.61422,0 h 31.1213 l 4.36941,5.85544 -4.30763,8.06072 -0.95574,1.78828 -1.7471,3.26951 h -4.43303 a 0.78215877,0.78215877 0 0 0 -0.7818,0.80241 l 0.33206,12.720638 H 809.7125 l 0.4924,-12.710718 a 0.78215877,0.78215877 0 0 0 -0.78144,-0.81233 h -9.66257 a 0.78215877,0.78215877 0 0 0 -0.64647,0.34199 l -8.97086,13.181058 h -7.58635 l 6.76667,-14.679928 0.95537,-1.27494 1.34002,-1.78828 8.00666,-10.68598 a 0.78215877,0.78215877 0 0 0 0.0875,-0.78878 z m 40.3937,0 h 26.18301 l 3.70455,3.82554 -0.31185,1.17859 h -12.17969 a 0.78215877,0.78215877 0 0 0 -0.74099,0.53136 l -2.87605,8.4987 -0.60528,1.7883 -5.64252,16.674508 h -12.62429 l 6.60854,-16.127328 0.73253,-1.78828 3.4828,-8.4987 a 0.78215877,0.78215877 0 0 0 -0.72369,-1.07856 h -7.6816 z m 32.51832,0 h 28.62733 l 4.87688,4.00941 -0.009,0.99472 h -23.82841 a 0.78215877,0.78215877 0 0 0 -0.77334,0.66523 l -0.7807,5.16701 a 0.78215877,0.78215877 0 0 0 0.77334,0.89911 h 24.54587 l -0.0235,2.54216 -0.0169,1.78828 -0.15372,16.431078 h -40.5478 l 1.59339,-7.25245 h 26.62135 a 0.78215877,0.78215877 0 0 0 0.77996,-0.72113 l 0.46114,-5.912788 a 0.78215877,0.78215877 0 0 0 -0.77997,-0.84284 h -25.43944 l 0.33537,-1.52683 0.39275,-1.78828 2.34393,-10.66723 z m 35.10605,0 h 29.27897 l 6.10069,4.12413 0.23609,0.92485 h -24.43186 a 0.78215877,0.78215877 0 0 0 -0.77775,0.86676 l 0.91971,8.45383 0.19453,1.78828 0.9186,8.444638 a 0.78215877,0.78215877 0 0 0 0.77774,0.69758 h 15.56212 a 0.78215877,0.78215877 0 0 0 0.7682,-0.92778 l -1.13226,-5.968318 a 0.78215877,0.78215877 0 0 0 -0.7682,-0.63618 h -7.51868 l -0.26329,-1.80741 -0.26035,-1.78829 -0.34824,-2.3888 h 18.07889 l 0.68803,2.69513 0.45671,1.78828 4.14326,16.230298 h -41.49726 l -0.66082,-16.455348 -0.0721,-1.78828 -0.42656,-10.62603 z m 35.94119,0 h 29.2466 l 7.34033,4.20688 5.41891,10.43848 0.92854,1.78828 8.33945,16.063358 h -41.59029 l -5.04531,-16.650618 -0.54204,-1.78828 -3.21841,-10.62089 z m 36.16514,0 h 4.92835 l 27.75136,14.97301 2.3936,1.29148 a 0.78215877,0.78215877 0 0 0 1.0061,-1.14475 l -0.9289,-1.29147 -9.9468,-13.82827 h 4.3437 l 8.5354,4.22158 8.3108,10.54733 1.4088,1.7883 12.5596,15.939788 h -6.168 l -30.4906,-17.105878 -3.18756,-1.78828 -0.90351,-0.50711 a 0.78215877,0.78215877 0 0 0 -1.04253,1.10247 l 0.32324,0.50711 1.13923,1.78792 10.19723,16.003768 h -11.91455 l -9.55775,-16.810578 -1.01679,-1.78792 -6.04114,-10.6253 z m 36.74761,0 h 32.037 l 5.2427,5.04898 h -21.1862 a 0.78215877,0.78215877 0 0 0 -0.5795,1.30694 l 4.6363,5.12215 a 0.78215877,0.78215877 0 0 0 0.58,0.25741 h 23.493 l 3.2324,3.11287 1.8567,1.78792 1.1745,1.13115 h -22.8804 a 0.78215877,0.78215877 0 0 0 -0.5799,1.30692 l 5.4027,5.967958 a 0.78215877,0.78215877 0 0 0 0.5796,0.25739 h 25.2997 l 7.4734,7.19694 h -38.8275 l -14.1121,-16.924588 -1.4912,-1.78828 -8.8969,-10.66943 v -0.004 z m -218.08994,1.10763 1.07194,2.391 -5.64986,7.54075 z m 12.24406,3.8965 a 0.78215877,0.78215877 0 0 0 -0.64648,0.34199 l -4.27233,6.27647 a 0.78215877,0.78215877 0 0 0 0.64648,1.22235 h 13.96689 a 0.78215877,0.78215877 0 0 0 0.66964,-0.3784 l 3.78545,-6.27647 a 0.78215877,0.78215877 0 0 0 -0.67001,-1.18594 z m -32.3385,0.0448 a 0.78215877,0.78215877 0 0 0 -0.47438,0.16034 l -9.63903,7.35505 a 0.78215877,0.78215877 0 0 0 0.47438,1.404 h 9.8707 a 0.78215877,0.78215877 0 0 0 0.69024,-0.4148 l 3.91342,-7.35505 a 0.78215877,0.78215877 0 0 0 -0.69024,-1.14954 z m 177.96947,0 a 0.78215877,0.78215877 0 0 0 -0.73326,1.05467 l 3.14192,8.45383 0.66485,1.78828 3.13825,8.444638 a 0.78215877,0.78215877 0 0 0 0.73325,0.50967 h 15.17564 a 0.78215877,0.78215877 0 0 0 0.71303,-1.10319 l -3.80494,-8.444998 -0.8057,-1.78829 -3.80862,-8.45384 a 0.78215877,0.78215877 0 0 0 -0.71303,-0.46077 z m -145.21691,1.51911 h 11.6807 l -2.84185,4.71251 h -12.04695 z m 71.81103,0 h 23.28564 l 0.1445,3.60305 h -23.97438 z m -104.29882,0.0452 h 2.57818 l -3.08124,5.79071 h -7.08623 z m 141.1211,0 h 24.0917 l 1.09253,3.60563 h -18.88791 a 0.78215877,0.78215877 0 0 0 -0.77408,0.89506 l 0.4788,3.2835 0.26035,1.78828 0.36074,2.47707 a 0.78215877,0.78215877 0 0 0 0.77408,0.66927 h 7.54738 l 0.83549,4.403598 h -13.91615 l -0.84285,-7.747028 -0.19453,-1.7883 z m 37.70849,0 h 12.07087 l 3.60121,7.99269 0.8057,1.7883 3.30778,7.341418 h -13.42191 l -2.94886,-7.934948 -0.66487,-1.78828 z"
       id="path7846" />
    <path
       id="path6879"
       style="opacity:0.996;fill:#ececec;fill-opacity:1;stroke:none;stroke-width:8.79857;stroke-linecap:round;stroke-linejoin:round;stroke-miterlimit:4;stroke-dasharray:none"
       d="m 927.85741,-58.649552 a 53.308664,81.239403 0 0 0 -0.089,0.0285 53.308664,81.239403 0 0 0 -0.11812,0.0382 53.308664,81.239403 0 0 0 -0.11802,0.0385 53.308664,81.239403 0 0 0 -0.11792,0.0389 53.308664,81.239403 0 0 0 -0.11793,0.0394 53.308664,81.239403 0 0 0 -0.11784,0.0398 53.308664,81.239403 0 0 0 -0.1178,0.0402 53.308664,81.239403 0 0 0 -0.11773,0.0405 53.308664,81.239403 0 0 0 -0.11764,0.041 53.308664,81.239403 0 0 0 -0.11764,0.0413 53.308664,81.239403 0 0 0 -0.11752,0.0418 53.308664,81.239403 0 0 0 -0.11754,0.0422 53.308664,81.239403 0 0 0 -0.11744,0.0426 53.308664,81.239403 0 0 0 -0.11733,0.043 53.308664,81.239403 0 0 0 -0.11724,0.0434 53.308664,81.239403 0 0 0 -0.11724,0.0438 53.308664,81.239403 0 0 0 -0.11715,0.0443 53.308664,81.239403 0 0 0 -0.11715,0.0446 53.308664,81.239403 0 0 0 -0.11705,0.045 53.308664,81.239403 0 0 0 -0.11694,0.0454 53.308664,81.239403 0 0 0 -0.11685,0.0458 53.308664,81.239403 0 0 0 -0.11686,0.0462 53.308664,81.239403 0 0 0 -0.11676,0.0467 53.308664,81.239403 0 0 0 -0.11665,0.047 53.308664,81.239403 0 0 0 -0.11666,0.0475 53.308664,81.239403 0 0 0 -0.11656,0.0479 53.308664,81.239403 0 0 0 -0.11646,0.0483 53.308664,81.239403 0 0 0 -0.11638,0.0487 53.308664,81.239403 0 0 0 -0.11636,0.0491 53.308664,81.239403 0 0 0 -0.11627,0.0496 53.308664,81.239403 0 0 0 -0.11617,0.0499 53.308664,81.239403 0 0 0 -0.11607,0.0503 53.308664,81.239403 0 0 0 -0.11608,0.0506 53.308664,81.239403 0 0 0 -0.11589,0.0509 53.308664,81.239403 0 0 0 -0.11586,0.0514 53.308664,81.239403 0 0 0 -0.11588,0.0518 53.308664,81.239403 0 0 0 -0.11569,0.0523 53.308664,81.239403 0 0 0 -0.1157,0.0526 53.308664,81.239403 0 0 0 -0.11558,0.053 53.308664,81.239403 0 0 0 -0.11549,0.0535 53.308664,81.239403 0 0 0 -0.1154,0.0538 53.308664,81.239403 0 0 0 -0.11528,0.0543 53.308664,81.239403 0 0 0 -0.11531,0.0547 53.308664,81.239403 0 0 0 -0.11509,0.0551 53.308664,81.239403 0 0 0 -0.11511,0.0555 53.308664,81.239403 0 0 0 -0.115,0.0559 53.308664,81.239403 0 0 0 -0.11491,0.0562 53.308664,81.239403 0 0 0 -0.11491,0.0566 53.308664,81.239403 0 0 0 -0.1147,0.057 53.308664,81.239403 0 0 0 -0.11471,0.0574 53.308664,81.239403 0 0 0 -0.11452,0.0579 53.308664,81.239403 0 0 0 -0.11453,0.0582 53.308664,81.239403 0 0 0 -0.11442,0.0587 53.308664,81.239403 0 0 0 -0.11432,0.059 53.308664,81.239403 0 0 0 -0.11423,0.0594 53.308664,81.239403 0 0 0 -0.11411,0.0598 53.308664,81.239403 0 0 0 -0.11414,0.0602 53.308664,81.239403 0 0 0 -0.11393,0.0606 53.308664,81.239403 0 0 0 -0.11383,0.061 53.308664,81.239403 0 0 0 -0.11384,0.0613 53.308664,81.239403 0 0 0 -0.11365,0.0618 53.308664,81.239403 0 0 0 -0.11363,0.0621 53.308664,81.239403 0 0 0 -0.11356,0.0625 53.308664,81.239403 0 0 0 -0.11334,0.0629 53.308664,81.239403 0 0 0 -0.11334,0.0633 53.308664,81.239403 0 0 0 -0.11325,0.0637 53.308664,81.239403 0 0 0 -0.11316,0.0641 53.308664,81.239403 0 0 0 -0.11297,0.0645 53.308664,81.239403 0 0 0 -0.11297,0.0649 53.308664,81.239403 0 0 0 -0.11285,0.0653 53.308664,81.239403 0 0 0 -0.11278,0.0657 53.308664,81.239403 0 0 0 -0.11267,0.0661 53.308664,81.239403 0 0 0 -0.11246,0.0665 53.308664,81.239403 0 0 0 -0.11248,0.0669 53.308664,81.239403 0 0 0 -0.11238,0.0673 53.308664,81.239403 0 0 0 -0.11227,0.0677 53.308664,81.239403 0 0 0 -0.11211,0.0681 53.308664,81.239403 0 0 0 -0.11207,0.0684 53.308664,81.239403 0 0 0 -0.11198,0.0686 53.308664,81.239403 0 0 0 -0.1118,0.0691 53.308664,81.239403 0 0 0 -0.11179,0.0695 53.308664,81.239403 0 0 0 -0.1116,0.0699 53.308664,81.239403 0 0 0 -0.1115,0.0703 53.308664,81.239403 0 0 0 -0.1115,0.0706 53.308664,81.239403 0 0 0 -0.11131,0.0711 53.308664,81.239403 0 0 0 -0.11121,0.0714 53.308664,81.239403 0 0 0 -0.11111,0.0719 53.308664,81.239403 0 0 0 -0.11101,0.0722 53.308664,81.239403 0 0 0 -0.11091,0.0727 53.308664,81.239403 0 0 0 -0.11073,0.073 53.308664,81.239403 0 0 0 -0.11073,0.0734 53.308664,81.239403 0 0 0 -0.11054,0.0739 53.308664,81.239403 0 0 0 -0.11051,0.0742 53.308664,81.239403 0 0 0 -0.11034,0.0745 53.308664,81.239403 0 0 0 -0.11024,0.0749 53.308664,81.239403 0 0 0 -0.11014,0.0752 53.308664,81.239403 0 0 0 -0.10994,0.0757 53.308664,81.239403 0 0 0 -0.10995,0.0761 53.308664,81.239403 0 0 0 -0.10975,0.0764 53.308664,81.239403 0 0 0 -0.10975,0.0769 53.308664,81.239403 0 0 0 -0.10956,0.0772 53.308664,81.239403 0 0 0 -0.10945,0.0775 53.308664,81.239403 0 0 0 -0.10928,0.078 53.308664,81.239403 0 0 0 -0.10925,0.0783 53.308664,81.239403 0 0 0 -0.10908,0.0787 53.308664,81.239403 0 0 0 -0.10895,0.0791 53.308664,81.239403 0 0 0 -0.10889,0.0794 53.308664,81.239403 0 0 0 -0.10876,0.0798 53.308664,81.239403 0 0 0 -0.10858,0.0802 53.308664,81.239403 0 0 0 -0.1086,0.0806 53.308664,81.239403 0 0 0 -0.10838,0.0809 53.308664,81.239403 0 0 0 -0.10821,0.0813 53.308664,81.239403 0 0 0 -0.10817,0.0817 53.308664,81.239403 0 0 0 -0.108,0.082 53.308664,81.239403 0 0 0 -0.1079,0.0824 53.308664,81.239403 0 0 0 -0.10781,0.0828 53.308664,81.239403 0 0 0 -0.10763,0.0832 53.308664,81.239403 0 0 0 -0.1076,0.0836 53.308664,81.239403 0 0 0 -0.10742,0.084 53.308664,81.239403 0 0 0 -0.10721,0.0843 53.308664,81.239403 0 0 0 -0.10721,0.0847 53.308664,81.239403 0 0 0 -0.10704,0.0851 53.308664,81.239403 0 0 0 -0.10683,0.0855 53.308664,81.239403 0 0 0 -0.10683,0.0858 53.308664,81.239403 0 0 0 -0.10664,0.0862 53.308664,81.239403 0 0 0 -0.10653,0.0865 53.308664,81.239403 0 0 0 -0.10634,0.0868 53.308664,81.239403 0 0 0 -0.10625,0.0872 53.308664,81.239403 0 0 0 -0.10617,0.0876 53.308664,81.239403 0 0 0 -0.10604,0.0879 53.308664,81.239403 0 0 0 -0.10586,0.0883 53.308664,81.239403 0 0 0 -0.10577,0.0887 53.308664,81.239403 0 0 0 -0.10556,0.089 53.308664,81.239403 0 0 0 -0.10548,0.0895 53.308664,81.239403 0 0 0 -0.10536,0.0897 53.308664,81.239403 0 0 0 -0.10517,0.0902 53.308664,81.239403 0 0 0 -0.10508,0.0906 53.308664,81.239403 0 0 0 -0.10498,0.0909 53.308664,81.239403 0 0 0 -0.1048,0.0913 53.308664,81.239403 0 0 0 -0.10468,0.0916 53.308664,81.239403 0 0 0 -0.1045,0.092 53.308664,81.239403 0 0 0 -0.1044,0.0923 53.308664,81.239403 0 0 0 -0.10431,0.0927 53.308664,81.239403 0 0 0 -0.1041,0.093 53.308664,81.239403 0 0 0 -0.1039,0.0934 53.308664,81.239403 0 0 0 -0.10392,0.0938 53.308664,81.239403 0 0 0 -0.10372,0.0942 53.308664,81.239403 0 0 0 -0.10352,0.0945 53.308664,81.239403 0 0 0 -0.10344,0.0948 53.308664,81.239403 0 0 0 -0.10321,0.0952 53.308664,81.239403 0 0 0 -0.10315,0.0956 53.308664,81.239403 0 0 0 -0.10304,0.0959 53.308664,81.239403 0 0 0 -0.10283,0.0962 53.308664,81.239403 0 0 0 -0.10275,0.0966 53.308664,81.239403 0 0 0 -0.10254,0.097 53.308664,81.239403 0 0 0 -0.10246,0.0973 53.308664,81.239403 0 0 0 -0.10225,0.0976 53.308664,81.239403 0 0 0 -0.10216,0.0981 53.308664,81.239403 0 0 0 -0.10198,0.0983 53.308664,81.239403 0 0 0 -0.10186,0.0987 53.308664,81.239403 0 0 0 -0.10168,0.0991 53.308664,81.239403 0 0 0 -0.10148,0.0994 53.308664,81.239403 0 0 0 -0.10148,0.0998 53.308664,81.239403 0 0 0 -0.1012,0.10012 53.308664,81.239403 0 0 0 -0.10108,0.10051 53.308664,81.239403 0 0 0 -0.10099,0.1008 53.308664,81.239403 0 0 0 -0.10081,0.10118 53.308664,81.239403 0 0 0 -0.1006,0.10158 53.308664,81.239403 0 0 0 -0.1005,0.10187 53.308664,81.239403 0 0 0 -0.10041,0.10216 53.308664,81.239403 0 0 0 -0.10013,0.10265 53.308664,81.239403 0 0 0 -0.1001,0.10284 53.308664,81.239403 0 0 0 -0.0998,0.10332 53.308664,81.239403 0 0 0 -0.0997,0.10363 53.308664,81.239403 0 0 0 -0.0996,0.10391 53.308664,81.239403 0 0 0 -0.0994,0.1043 53.308664,81.239403 0 0 0 -0.0992,0.1046 53.308664,81.239403 0 0 0 -0.0992,0.10497 53.308664,81.239403 0 0 0 -0.0989,0.10538 53.308664,81.239403 0 0 0 -0.0987,0.10566 53.308664,81.239403 0 0 0 -0.0986,0.10596 53.308664,81.239403 0 0 0 -0.0985,0.10634 53.308664,81.239403 0 0 0 -0.0983,0.10674 53.308664,81.239403 0 0 0 -0.0981,0.10703 53.308664,81.239403 0 0 0 -0.0979,0.10731 53.308664,81.239403 0 0 0 -0.0978,0.10771 53.308664,81.239403 0 0 0 -0.0977,0.10799 53.308664,81.239403 0 0 0 -0.0975,0.10839 53.308664,81.239403 0 0 0 -0.0973,0.10868 53.308664,81.239403 0 0 0 -0.0972,0.10907 53.308664,81.239403 0 0 0 -0.0971,0.10936 53.308664,81.239403 0 0 0 -0.0969,0.10975 53.308664,81.239403 0 0 0 -0.0967,0.11004 53.308664,81.239403 0 0 0 -0.0965,0.11034 53.308664,81.239403 0 0 0 -0.0965,0.11072 53.308664,81.239403 0 0 0 -0.0962,0.11111 53.308664,81.239403 0 0 0 -0.096,0.11131 53.308664,81.239403 0 0 0 -0.096,0.1117 53.308664,81.239403 0 0 0 -0.0958,0.11209 53.308664,81.239403 0 0 0 -0.0956,0.11237 53.308664,81.239403 0 0 0 -0.0953,0.11267 53.308664,81.239403 0 0 0 -0.0953,0.11306 53.308664,81.239403 0 0 0 -0.0951,0.11335 53.308664,81.239403 0 0 0 -0.0949,0.11364 53.308664,81.239403 0 0 0 -0.0948,0.11403 53.308664,81.239403 0 0 0 -0.0946,0.11432 53.308664,81.239403 0 0 0 -0.0944,0.11472 53.308664,81.239403 0 0 0 -0.0942,0.115 53.308664,81.239403 0 0 0 -0.0941,0.1153 53.308664,81.239403 0 0 0 -0.0938,0.11559 53.308664,81.239403 0 0 0 -0.0937,0.11597 53.308664,81.239403 0 0 0 -0.0936,0.11627 53.308664,81.239403 0 0 0 -0.0933,0.11666 53.308664,81.239403 0 0 0 -0.0932,0.11694 53.308664,81.239403 0 0 0 -0.093,0.11725 53.308664,81.239403 0 0 0 -0.0928,0.11753 53.308664,81.239403 0 0 0 -0.0926,0.11793 53.308664,81.239403 0 0 0 -0.0924,0.11821 53.308664,81.239403 0 0 0 -0.0923,0.11851 53.308664,81.239403 0 0 0 -0.0922,0.11879 53.308664,81.239403 0 0 0 -0.0919,0.1192 53.308664,81.239403 0 0 0 -0.0917,0.11947 53.308664,81.239403 0 0 0 -0.0917,0.11978 53.308664,81.239403 0 0 0 -0.0914,0.12016 53.308664,81.239403 0 0 0 -0.0913,0.12045 53.308664,81.239403 0 0 0 -0.0911,0.12074 53.308664,81.239403 0 0 0 -0.0909,0.12105 53.308664,81.239403 0 0 0 -0.0907,0.12132 53.308664,81.239403 0 0 0 -0.0906,0.12172 53.308664,81.239403 0 0 0 -0.0903,0.12201 53.308664,81.239403 0 0 0 -0.0902,0.1223 53.308664,81.239403 0 0 0 -0.0899,0.12259 53.308664,81.239403 0 0 0 -0.0898,0.12298 53.308664,81.239403 0 0 0 -0.0896,0.12318 53.308664,81.239403 0 0 0 -0.0894,0.12357 53.308664,81.239403 0 0 0 -0.0893,0.12385 53.308664,81.239403 0 0 0 -0.089,0.12415 53.308664,81.239403 0 0 0 -0.0888,0.12444 53.308664,81.239403 0 0 0 -0.0887,0.12484 53.308664,81.239403 0 0 0 -0.0884,0.12502 53.308664,81.239403 0 0 0 -0.0883,0.12541 53.308664,81.239403 0 0 0 -0.0881,0.12572 53.308664,81.239403 0 0 0 -0.0879,0.12599 53.308664,81.239403 0 0 0 -0.0877,0.12629 53.308664,81.239403 0 0 0 -0.0876,0.12658 53.308664,81.239403 0 0 0 -0.0873,0.12688 53.308664,81.239403 0 0 0 -0.0872,0.12727 53.308664,81.239403 0 0 0 -0.087,0.12745 53.308664,81.239403 0 0 0 -0.0867,0.12785 53.308664,81.239403 0 0 0 -0.0867,0.12804 53.308664,81.239403 0 0 0 -0.0864,0.12843 53.308664,81.239403 0 0 0 -0.0863,0.12872 53.308664,81.239403 0 0 0 -0.0861,0.12902 53.308664,81.239403 0 0 0 -0.0858,0.12921 53.308664,81.239403 0 0 0 -0.0858,0.12959 53.308664,81.239403 0 0 0 -0.0855,0.12989 53.308664,81.239403 0 0 0 -0.0854,0.13019 53.308664,81.239403 0 0 0 -0.0851,0.13047 53.308664,81.239403 0 0 0 -0.085,0.13076 53.308664,81.239403 0 0 0 -0.0847,0.13106 53.308664,81.239403 0 0 0 -0.0846,0.13136 53.308664,81.239403 0 0 0 -0.0843,0.13164 53.308664,81.239403 0 0 0 -0.0841,0.13193 53.308664,81.239403 0 0 0 -0.084,0.13223 53.308664,81.239403 0 0 0 -0.0837,0.13251 53.308664,81.239403 0 0 0 -0.0836,0.13282 53.308664,81.239403 0 0 0 -0.0833,0.13309 53.308664,81.239403 0 0 0 -0.0831,0.13339 53.308664,81.239403 0 0 0 -0.083,0.13359 53.308664,81.239403 0 0 0 -0.0827,0.13398 53.308664,81.239403 0 0 0 -0.0825,0.13427 53.308664,81.239403 0 0 0 -0.0823,0.13446 53.308664,81.239403 0 0 0 -0.0822,0.13486 53.308664,81.239403 0 0 0 -0.0819,0.13504 53.308664,81.239403 0 0 0 -0.0817,0.13534 53.308664,81.239403 0 0 0 -0.0814,0.13563 53.308664,81.239403 0 0 0 -0.0813,0.13593 53.308664,81.239403 0 0 0 -0.0811,0.13621 53.308664,81.239403 0 0 0 -0.0809,0.13651 53.308664,81.239403 0 0 0 -0.0806,0.13679 53.308664,81.239403 0 0 0 -0.0805,0.137 53.308664,81.239403 0 0 0 -0.0802,0.13738 53.308664,81.239403 0 0 0 -0.0801,0.13758 53.308664,81.239403 0 0 0 -0.0799,0.13787 53.308664,81.239403 0 0 0 -0.0797,0.13815 53.308664,81.239403 0 0 0 -0.0795,0.13846 53.308664,81.239403 0 0 0 -0.0793,0.13864 53.308664,81.239403 0 0 0 -0.079,0.13904 53.308664,81.239403 0 0 0 -0.0789,0.13923 53.308664,81.239403 0 0 0 -0.0787,0.13953 53.308664,81.239403 0 0 0 -0.0784,0.13972 53.308664,81.239403 0 0 0 -0.0783,0.1401 53.308664,81.239403 0 0 0 -0.078,0.1403 53.308664,81.239403 0 0 0 -0.0779,0.1406 53.308664,81.239403 0 0 0 -0.0776,0.14088 53.308664,81.239403 0 0 0 -0.0775,0.14107 53.308664,81.239403 0 0 0 -0.0772,0.14148 53.308664,81.239403 0 0 0 -0.077,0.14166 53.308664,81.239403 0 0 0 -0.0769,0.14186 53.308664,81.239403 0 0 0 -0.0766,0.14225 53.308664,81.239403 0 0 0 -0.0763,0.14243 53.308664,81.239403 0 0 0 -0.0762,0.14274 53.308664,81.239403 0 0 0 -0.0759,0.14303 53.308664,81.239403 0 0 0 -0.0758,0.14321 53.308664,81.239403 0 0 0 -0.0755,0.14352 53.308664,81.239403 0 0 0 -0.0753,0.1437 53.308664,81.239403 0 0 0 -0.075,0.1441 53.308664,81.239403 0 0 0 -0.0749,0.14429 53.308664,81.239403 0 0 0 -0.0746,0.14448 53.308664,81.239403 0 0 0 -0.0744,0.14478 53.308664,81.239403 0 0 0 -0.0743,0.14507 53.308664,81.239403 0 0 0 -0.0741,0.14536 53.308664,81.239403 0 0 0 -0.0738,0.14555 53.308664,81.239403 0 0 0 -0.0736,0.14586 53.308664,81.239403 0 0 0 -0.0734,0.14603 53.308664,81.239403 0 0 0 -0.0732,0.14634 53.308664,81.239403 0 0 0 -0.0729,0.14663 53.308664,81.239403 0 0 0 -0.0728,0.14681 53.308664,81.239403 0 0 0 -0.0725,0.14702 53.308664,81.239403 0 0 0 -0.0723,0.1474 53.308664,81.239403 0 0 0 -0.072,0.1475 53.308664,81.239403 0 0 0 -0.0718,0.14789 53.308664,81.239403 0 0 0 -0.0716,0.14809 53.308664,81.239403 0 0 0 -0.0714,0.14827 53.308664,81.239403 0 0 0 -0.0711,0.14858 53.308664,81.239403 0 0 0 -0.071,0.14886 53.308664,81.239403 0 0 0 -0.0707,0.14906 53.308664,81.239403 0 0 0 -0.0704,0.14925 53.308664,81.239403 0 0 0 -0.0703,0.14955 53.308664,81.239403 0 0 0 -0.07,0.14983 53.308664,81.239403 0 0 0 -0.0697,0.15004 53.308664,81.239403 0 0 0 -0.0696,0.15022 53.308664,81.239403 0 0 0 -0.0693,0.15052 53.308664,81.239403 0 0 0 -0.0692,0.15071 53.308664,81.239403 0 0 0 -0.0689,0.151 53.308664,81.239403 0 0 0 -0.0686,0.1512 53.308664,81.239403 0 0 0 -0.0684,0.15149 53.308664,81.239403 0 0 0 -0.0684,0.15168 53.308664,81.239403 0 0 0 -0.0681,0.15198 53.308664,81.239403 0 0 0 -0.0678,0.15217 53.308664,81.239403 0 0 0 -0.0677,0.15237 53.308664,81.239403 0 0 0 -0.0674,0.15265 53.308664,81.239403 0 0 0 -0.0672,0.15286 53.308664,81.239403 0 0 0 -0.067,0.15305 53.308664,81.239403 0 0 0 -0.0667,0.15333 53.308664,81.239403 0 0 0 -0.0665,0.15353 53.308664,81.239403 0 0 0 -0.0663,0.15383 53.308664,81.239403 0 0 0 -0.066,0.15402 53.308664,81.239403 0 0 0 -0.0658,0.15421 53.308664,81.239403 0 0 0 -0.0656,0.15451 53.308664,81.239403 0 0 0 -0.0653,0.1547 53.308664,81.239403 0 0 0 -0.0651,0.1549 53.308664,81.239403 0 0 0 -0.0648,0.15518 53.308664,81.239403 0 0 0 -0.0646,0.15529 53.308664,81.239403 0 0 0 -0.0644,0.15558 53.308664,81.239403 0 0 0 -0.0642,0.15587 53.308664,81.239403 0 0 0 -0.0639,0.15606 53.308664,81.239403 0 0 0 -0.0636,0.15616 53.308664,81.239403 0 0 0 -0.0635,0.15654 53.308664,81.239403 0 0 0 -0.0631,0.15666 53.308664,81.239403 0 0 0 -0.063,0.15694 53.308664,81.239403 0 0 0 -0.0628,0.15713 53.308664,81.239403 0 0 0 -0.0625,0.15733 53.308664,81.239403 0 0 0 -0.0623,0.15752 53.308664,81.239403 0 0 0 -0.0621,0.15781 53.308664,81.239403 0 0 0 -0.0618,0.15791 53.308664,81.239403 0 0 0 -0.0616,0.15821 53.308664,81.239403 0 0 0 -0.0614,0.15839 53.308664,81.239403 0 0 0 -0.0611,0.1587 53.308664,81.239403 0 0 0 -0.0609,0.15878 53.308664,81.239403 0 0 0 -0.0606,0.15908 53.308664,81.239403 0 0 0 -0.0604,0.15918 53.308664,81.239403 0 0 0 -0.0601,0.15947 53.308664,81.239403 0 0 0 -0.0599,0.15966 53.308664,81.239403 0 0 0 -0.0597,0.15986 53.308664,81.239403 0 0 0 -0.0595,0.16015 53.308664,81.239403 0 0 0 -0.0593,0.16024 53.308664,81.239403 0 0 0 -0.059,0.16045 53.308664,81.239403 0 0 0 -0.0588,0.16073 53.308664,81.239403 0 0 0 -0.0585,0.16093 53.308664,81.239403 0 0 0 -0.0583,0.16102 53.308664,81.239403 0 0 0 -0.0581,0.16132 53.308664,81.239403 0 0 0 -0.0577,0.16151 53.308664,81.239403 0 0 0 -0.0576,0.16171 53.308664,81.239403 0 0 0 -0.0573,0.16181 53.308664,81.239403 0 0 0 -0.0571,0.16208 53.308664,81.239403 0 0 0 -0.0569,0.1623 53.308664,81.239403 0 0 0 -0.0565,0.16248 53.308664,81.239403 0 0 0 -0.0563,0.16268 53.308664,81.239403 0 0 0 -0.0562,0.16287 53.308664,81.239403 0 0 0 -0.0559,0.16307 53.308664,81.239403 0 0 0 -0.0557,0.16327 53.308664,81.239403 0 0 0 -0.0554,0.16345 53.308664,81.239403 0 0 0 -0.0552,0.16366 53.308664,81.239403 0 0 0 -0.0549,0.16375 53.308664,81.239403 0 0 0 -0.0546,0.16404 53.308664,81.239403 0 0 0 -0.0544,0.16423 53.308664,81.239403 0 0 0 -0.0542,0.16433 53.308664,81.239403 0 0 0 -0.0539,0.16462 53.308664,81.239403 0 0 0 -0.0537,0.16473 53.308664,81.239403 0 0 0 -0.0534,0.16502 53.308664,81.239403 0 0 0 -0.0531,0.1651 53.308664,81.239403 0 0 0 -0.053,0.16532 53.308664,81.239403 0 0 0 -0.0526,0.1655 53.308664,81.239403 0 0 0 -0.0524,0.1657 53.308664,81.239403 0 0 0 -0.0522,0.16578 53.308664,81.239403 0 0 0 -0.0518,0.166089 53.308664,81.239403 0 0 0 -0.0517,0.16618 53.308664,81.239403 0 0 0 -0.0514,0.16637 53.308664,81.239403 0 0 0 -0.0511,0.16658 53.308664,81.239403 0 0 0 -0.051,0.16677 53.308664,81.239403 0 0 0 -0.0507,0.16695 53.308664,81.239403 0 0 0 -0.0504,0.16708 53.308664,81.239403 0 0 0 -0.0503,0.16725 53.308664,81.239403 0 0 0 -0.05,0.16745 53.308664,81.239403 0 0 0 -0.0498,0.16763 53.308664,81.239403 0 0 0 -0.0496,0.16774 53.308664,81.239403 0 0 0 -0.0493,0.16803 53.308664,81.239403 0 0 0 -0.049,0.16812 53.308664,81.239403 0 0 0 -0.0488,0.16824 53.308664,81.239403 0 0 0 -0.0485,0.16851 53.308664,81.239403 0 0 0 -0.0482,0.16862 53.308664,81.239403 0 0 0 -0.048,0.1688 53.308664,81.239403 0 0 0 -0.0478,0.16892 53.308664,81.239403 0 0 0 -0.0475,0.16919 53.308664,81.239403 0 0 0 -0.0472,0.1693 53.308664,81.239403 0 0 0 -0.047,0.16938 53.308664,81.239403 0 0 0 -0.0467,0.16959 53.308664,81.239403 0 0 0 -0.0464,0.16978 53.308664,81.239403 0 0 0 -0.0462,0.16999 53.308664,81.239403 0 0 0 -0.046,0.1700702 53.308664,81.239403 0 0 0 -0.0456,0.17027 53.308664,81.239403 0 0 0 -0.0455,0.17036 53.308664,81.239403 0 0 0 -0.0452,0.17056 53.308664,81.239403 0 0 0 -0.0449,0.17075 53.308664,81.239403 0 0 0 -0.0446,0.17086 53.308664,81.239403 0 0 0 -0.0445,0.17105 53.308664,81.239403 0 0 0 -0.0442,0.17113 53.308664,81.239403 0 0 0 -0.0438,0.17136 53.308664,81.239403 0 0 0 -0.0437,0.17151 53.308664,81.239403 0 0 0 -0.0434,0.17165 53.308664,81.239403 0 0 0 -0.0432,0.17172 53.308664,81.239403 0 0 0 -0.0429,0.17192 53.308664,81.239403 0 0 0 -0.0426,0.17213 53.308664,81.239403 0 0 0 -0.0424,0.1722 53.308664,81.239403 0 0 0 -0.0421,0.1724 53.308664,81.239403 0 0 0 -0.0419,0.17251 53.308664,81.239403 0 0 0 -0.0415,0.17261 53.308664,81.239403 0 0 0 -0.0414,0.1729 53.308664,81.239403 0 0 0 -0.041,0.1729 53.308664,81.239403 0 0 0 -0.0409,0.17309 53.308664,81.239403 0 0 0 -0.0406,0.17317 53.308664,81.239403 0 0 0 -0.0404,0.17339 53.308664,81.239403 0 0 0 -0.0401,0.17357 53.308664,81.239403 0 0 0 -0.0398,0.17358 53.308664,81.239403 0 0 0 -0.0396,0.17378 53.308664,81.239403 0 0 0 -0.0393,0.17395 53.308664,81.239403 0 0 0 -0.039,0.17407 53.308664,81.239403 0 0 0 -0.0388,0.17417 53.308664,81.239403 0 0 0 -0.0385,0.17435 53.308664,81.239403 0 0 0 -0.0383,0.17444 53.308664,81.239403 0 0 0 -0.0381,0.17455 53.308664,81.239403 0 0 0 -0.0378,0.17475 53.308664,81.239403 0 0 0 -0.0375,0.17485 53.308664,81.239403 0 0 0 -0.0373,0.17494 53.308664,81.239403 0 0 0 -0.037,0.17513 53.308664,81.239403 0 0 0 -0.0367,0.17524 53.308664,81.239403 0 0 0 -0.0365,0.17532 53.308664,81.239403 0 0 0 -0.0362,0.17551 53.308664,81.239403 0 0 0 -0.0359,0.17563 53.308664,81.239403 0 0 0 -0.0357,0.1757 53.308664,81.239403 0 0 0 -0.0354,0.17582 53.308664,81.239403 0 0 0 -0.0351,0.17602 53.308664,81.239403 0 0 0 -0.0349,0.1761 53.308664,81.239403 0 0 0 -0.0346,0.17621 53.308664,81.239403 0 0 0 -0.0343,0.17631 53.308664,81.239403 0 0 0 -0.034,0.17649 53.308664,81.239403 0 0 0 -0.0338,0.17649 53.308664,81.239403 0 0 0 -0.0335,0.17669 53.308664,81.239403 0 0 0 -0.0333,0.17679 53.308664,81.239403 0 0 0 -0.0329,0.17698 53.308664,81.239403 0 0 0 -0.0328,0.17699 53.308664,81.239403 0 0 0 -0.0325,0.17716997 53.308664,81.239403 0 0 0 -0.0323,0.17726 53.308664,81.239403 0 0 0 -0.032,0.17729 53.308664,81.239403 0 0 0 -0.0318,0.17756 53.308664,81.239403 0 0 0 -0.0316,0.17757 53.308664,81.239403 0 0 0 -0.0312,0.17766 53.308664,81.239403 0 0 0 -0.031,0.17776 53.308664,81.239403 0 0 0 -0.0307,0.17796 53.308664,81.239403 0 0 0 -0.0304,0.17795 53.308664,81.239403 0 0 0 -0.0302,0.17814 53.308664,81.239403 0 0 0 -0.03,0.17825 53.308664,81.239403 0 0 0 -0.0296,0.17826003 53.308664,81.239403 0 0 0 -0.0294,0.17843 53.308664,81.239403 0 0 0 -0.0291,0.17855 53.308664,81.239403 0 0 0 -0.0288,0.17864 53.308664,81.239403 0 0 0 -0.0285,0.17871 53.308664,81.239403 0 0 0 -0.0283,0.17885 53.308664,81.239403 0 0 0 -0.028,0.17892 53.308664,81.239403 0 0 0 -0.0278,0.17902 53.308664,81.239403 0 0 0 -0.0274,0.179035 53.308664,81.239403 0 0 0 -0.0272,0.17922 53.308664,81.239403 0 0 0 -0.027,0.17932 53.308664,81.239403 0 0 0 -0.0268,0.1794 53.308664,81.239403 0 0 0 -0.0263,0.17941 53.308664,81.239403 0 0 0 -0.0262,0.17961 53.308664,81.239403 0 0 0 -0.0259,0.17971 53.308664,81.239403 0 0 0 -0.0257,0.17969 53.308664,81.239403 0 0 0 -0.0254,0.17981 53.308664,81.239403 0 0 0 -0.025,0.18 53.308664,81.239403 0 0 0 -0.0249,0.17999 53.308664,81.239403 0 0 0 -0.0245,0.18011 53.308664,81.239403 0 0 0 -0.0243,0.18018 53.308664,81.239403 0 0 0 -0.024,0.18021 53.308664,81.239403 0 0 0 -0.0237,0.18037 53.308664,81.239403 0 0 0 -0.0234,0.18039 53.308664,81.239403 0 0 0 -0.0233,0.18058 53.308664,81.239403 0 0 0 -0.0229,0.18058 53.308664,81.239403 0 0 0 -0.0226,0.18069 53.308664,81.239403 0 0 0 -0.0224,0.18068 53.308664,81.239403 0 0 0 -0.0222,0.18087 53.308664,81.239403 0 0 0 -0.0219,0.18086 53.308664,81.239403 0 0 0 -0.0216,0.18098 53.308664,81.239403 0 0 0 -0.0213,0.18106 53.308664,81.239403 0 0 0 -0.0211,0.18107 53.308664,81.239403 0 0 0 -0.0209,0.18128 53.308664,81.239403 0 0 0 -0.0206,0.18126 53.308664,81.239403 0 0 0 -0.0203,0.18126 53.308664,81.239403 0 0 0 -0.0201,0.18145 53.308664,81.239403 0 0 0 -0.0197,0.18145 53.308664,81.239403 0 0 0 -0.0195,0.18156 53.308664,81.239403 0 0 0 -0.0192,0.18155 53.308664,81.239403 0 0 0 -0.019,0.18165 53.308664,81.239403 0 0 0 -0.0186,0.18175 53.308664,81.239403 0 0 0 -0.0183,0.18186 53.308664,81.239403 0 0 0 -0.0181,0.18184 53.308664,81.239403 0 0 0 -0.0179,0.18193 53.308664,81.239403 0 0 0 -0.0175,0.18195 53.308664,81.239403 0 0 0 -0.0173,0.18203 53.308664,81.239403 0 0 0 -0.0169,0.18215 53.308664,81.239403 0 0 0 -0.0167,0.18214 53.308664,81.239403 0 0 0 -0.0166,0.18224 53.308664,81.239403 0 0 0 -0.0162,0.1823198 53.308664,81.239403 0 0 0 -0.016,0.18235 53.308664,81.239403 0 0 0 -0.0156,0.18234 53.308664,81.239403 0 0 0 -0.0154,0.18242 53.308664,81.239403 0 0 0 -0.0152,0.18254 53.308664,81.239403 0 0 0 -0.0148,0.18251 53.308664,81.239403 0 0 0 -0.0144,0.18264 53.308664,81.239403 0 0 0 -0.0143,0.18261 53.308664,81.239403 0 0 0 -0.014,0.18272 53.308664,81.239403 0 0 0 -0.0137,0.18273 53.308664,81.239403 0 0 0 -0.0134,0.18282 53.308664,81.239403 0 0 0 -0.0132,0.18282 53.308664,81.239403 0 0 0 -0.013,0.18292 53.308664,81.239403 0 0 0 -0.0128,0.18291 53.308664,81.239403 0 0 0 -0.0125,0.18293 53.308664,81.239403 0 0 0 -0.0123,0.18301 53.308664,81.239403 0 0 0 -0.0119,0.18309 53.308664,81.239403 0 0 0 -0.0117,0.18303 53.308664,81.239403 0 0 0 -0.0115,0.1832 53.308664,81.239403 0 0 0 -0.0109,0.18312 53.308664,81.239403 0 0 0 -0.0108,0.18322 53.308664,81.239403 0 0 0 -0.0106,0.18328 53.308664,81.239403 0 0 0 -0.0102,0.18322 53.308664,81.239403 0 0 0 -0.01,0.1833 53.308664,81.239403 0 0 0 -0.01,0.18341 53.308664,81.239403 0 0 0 -0.01,0.1834 53.308664,81.239403 0 0 0 -0.009,0.18341 53.308664,81.239403 0 0 0 -0.009,0.1834 53.308664,81.239403 0 0 0 -0.009,0.1835 53.308664,81.239403 0 0 0 -0.008,0.18349 53.308664,81.239403 0 0 0 -0.008,0.18351 53.308664,81.239403 0 0 0 -0.008,0.18361 53.308664,81.239403 0 0 0 -0.008,0.18358 53.308664,81.239403 0 0 0 -0.007,0.18361 53.308664,81.239403 0 0 0 -0.007,0.1837 53.308664,81.239403 0 0 0 -0.007,0.18358 53.308664,81.239403 0 0 0 -0.006,0.18371 53.308664,81.239403 0 0 0 -0.006,0.18368 53.308664,81.239403 0 0 0 -0.006,0.1838 53.308664,81.239403 0 0 0 -0.006,0.1837 53.308664,81.239403 0 0 0 -0.006,0.18378 53.308664,81.239403 0 0 0 -0.005,0.18381 53.308664,81.239403 0 0 0 -0.005,0.18378 53.308664,81.239403 0 0 0 -0.005,0.1838 53.308664,81.239403 0 0 0 -0.004,0.18379 53.308664,81.239403 0 0 0 -0.004,0.1839 53.308664,81.239403 0 0 0 -0.004,0.18387 53.308664,81.239403 0 0 0 -0.003,0.1838 53.308664,81.239403 0 0 0 -0.003,0.18389 53.308664,81.239403 0 0 0 -0.003,0.1839 53.308664,81.239403 0 0 0 -0.002,0.18397 53.308664,81.239403 0 0 0 -0.002,0.1839 53.308664,81.239403 0 0 0 -0.002,0.18389 53.308664,81.239403 0 0 0 -0.002,0.18389 53.308664,81.239403 0 0 0 -0.002,0.18397 53.308664,81.239403 0 0 0 -0.002,0.1839 53.308664,81.239403 0 0 0 -0.002,0.18398 53.308664,81.239403 0 0 0 0,0.1839 53.308664,81.239403 0 0 0 0,0.18399 53.308664,81.239403 0 0 0 -10e-5,0.18398 53.308664,81.239403 0 0 0 10e-5,0.13671 53.308664,81.239403 0 0 0 0,0.18399 53.308664,81.239403 0 0 0 0,0.18389 53.308664,81.239403 0 0 0 0.002,0.18399 53.308664,81.239403 0 0 0 0.002,0.18387 53.308664,81.239403 0 0 0 0.002,0.18401 53.308664,81.239403 0 0 0 0.002,0.18387 53.308664,81.239403 0 0 0 0.002,0.18398 53.308664,81.239403 0 0 0 0.002,0.1839 53.308664,81.239403 0 0 0 0.002,0.18389 53.308664,81.239403 0 0 0 0.003,0.18389 53.308664,81.239403 0 0 0 0.003,0.1839 53.308664,81.239403 0 0 0 0.002,0.0938 c 1.45116,0.67905 3.00322,1.14833 4.6458,1.36187 l 23.26516,3.02444 c 10.85295,1.4109 19.93337,-3.92784 21.3283,-16.12101 2.24017,-13.9256348 3.9559,-29.457854 4.78823,-42.895344 0.36984,-4.63328 0.83538,-12.47384 -2.20861,-18.68107 -1.76808,-3.6054 -5.21414,-6.40273 -9.436,-8.46398 z" />
    <path
       sodipodi:nodetypes="scccsaccssssss"
       d="m 906.56993,-63.163892 c -16.60487,0.0492 -28.39899,8.39291 -29.92434,18.03892 -0.35262,2.30637 -0.45966,4.47149 -0.63163,6.5778 l -2.80008,36.9669192 c 0.57102,18.5155348 0.5571,28.5011848 18.94725,33.4288048 8.13688,2.18028 19.211,2.99822 27.32944,-1.15236 7.29677,-3.73052 13.82811,-7.11218 15.22306,-19.30535 2.24022,-13.9259048 3.95599,-29.458134 4.78832,-42.895614 0.36984,-4.63328 0.83538,-12.47384 -2.20861,-18.68107 -1.76808,-3.6054 -5.21413,-6.40274 -9.43599,-8.46399 -5.07076,-2.47574 -11.26187,-3.88843 -17.02527,-4.34846 -1.17645,-0.0939 -2.33302,-0.14708 -3.46784,-0.1617 -0.26596,-0.003 -0.53074,-0.005 -0.79431,-0.004 z"
       style="opacity:0.996;fill:#ebebeb;fill-opacity:1;stroke:none;stroke-width:8.79857;stroke-linecap:round;stroke-linejoin:round;stroke-miterlimit:4;stroke-dasharray:none"
       id="rect6706" />
    <path
       id="path6881"
       style="opacity:0.996;fill:#dedede;fill-opacity:1;stroke:none;stroke-width:8.79857;stroke-linecap:round;stroke-linejoin:round;stroke-miterlimit:4;stroke-dasharray:none"
       d="m 907.3643,-63.159722 c -17.02219,-0.21937 -29.16909,8.2359 -30.71865,18.03501 -0.35262,2.30638 -0.45966,4.4715 -0.63164,6.57781 l -2.80009,36.9669392 c -0.43776,5.779195 -0.11517,13.9145748 2.14755,20.1351848 1.75977,4.83792 4.88433,8.31579 8.38752,10.0508 0.0436,0.0216 3.60267,1.79402 7.26004,2.92019 3.64926,1.1237 7.39689,1.60116 7.39689,1.60116 -2.45161,-9.17649 -7.02877,-18.62139 -7.25289,-26.1460898 -0.32776,-11.004145 0.29931,-21.3024642 5.02046,-34.9702842 8.44731,-24.45518 39.35948,-31.56051 14.6586,-35.00901 -1.17646,-0.0939 -2.33292,-0.14709 -3.46773,-0.16171 z"
       sodipodi:nodetypes="sccsssscsscss" />
    <path
       sodipodi:nodetypes="sssssss"
       d="m 938.95203,-34.508622 c -1.01319,9.3907 -20.99939,9.56665 -31.25672,8.7479 -1.22701,-0.0979 -2.54817,-0.21042 -3.92926,-0.35175 -12.41941,-1.27099 -29.68667,-4.87595 -26.94315,-21.23293 1.5618,-9.31149 15.18594,-17.1551 34.00918,-15.65261 10.5619,0.84305 22.59607,4.54522 26.55335,11.65906 3.09531,5.56434 2.01113,12.71044 1.5666,16.83033 z"
       style="opacity:0.996;fill:#f7f7f7;fill-opacity:1;stroke:none;stroke-width:8.30765;stroke-linecap:round;stroke-linejoin:round;stroke-miterlimit:4;stroke-dasharray:none"
       id="path6708" />
    <path
       sodipodi:nodetypes="csssssscssc"
       id="path6715"
       d="m 879.58874,4.1300622 c 2.06831,-0.64286 4.43378,3.31781 5.95593,4.137 4.735,2.5483098 9.20802,4.8922298 15.07909,5.7312998 5.8734,0.83939 12.49657,0.052 18.31857,-1.89439 1.52885,-0.51112 5.44843,-4.5844798 7.085,-2.9500598 1.99224,1.9896098 -1.3999,4.7146698 -5.59488,7.1023098 -4.18645,2.38277 -10.8269,4.5786 -18.45304,3.77274 v 0 c -0.39443,-0.0423 -0.78987,-0.0922 -1.18609,-0.14944 -7.8826,-1.1397 -14.51438,-4.10399 -18.0915,-7.67686 C 879.12,8.6250722 876.27471,4.9592122 879.58874,4.1300622 Z"
       style="opacity:0.996;fill:#000000;stroke:none;stroke-width:0.220486px;stroke-linecap:butt;stroke-linejoin:miter;stroke-opacity:1" />
    <g
       id="g1322"
       transform="matrix(0.18827962,0,0,0.18827962,943.44348,-183.16765)"
       style="stroke-width:5.31125">
      <path
         style="opacity:0.996;fill:#000000;stroke:none;stroke-width:1.08304px;stroke-linecap:butt;stroke-linejoin:miter;stroke-opacity:1"
         d="m -343.07039,939.24522 c -13.73551,-25.57253 15.78042,-43.04492 49.96251,-50.33974 30.95936,-5.73304 57.16078,-15.21641 61.95045,-5.14588 4.17328,8.77452 -17.40149,27.21169 -39.83189,46.32601 -23.61545,20.12419 -59.35856,35.90945 -72.08107,9.15961 z"
         id="path6735"
         sodipodi:nodetypes="ccssc" />
      <path
         sodipodi:nodetypes="ccssc"
         id="path6737"
         d="m -267.65664,966.045 c 26.79271,-11.17002 14.92176,-43.35006 -6.99146,-70.57947 -20.39876,-23.98417 -34.73994,-47.87516 -44.81047,-43.0855 -8.77453,4.17326 -3.67272,32.09048 1.66553,61.07295 5.62027,30.51368 23.38659,65.31459 50.1364,52.59202 z"
         style="opacity:0.996;fill:#000000;stroke:none;stroke-width:1.08304px;stroke-linecap:butt;stroke-linejoin:miter;stroke-opacity:1" />
    </g>
    <g
       id="g1326"
       transform="matrix(0.18827962,0,0,0.18827962,945.02053,-178.58055)"
       style="stroke-width:5.31125">
      <path
         sodipodi:nodetypes="ccssc"
         id="path6729"
         d="m -177.33311,967.43551 c -28.10158,-17.39581 -8.94481,-51.42697 20.60683,-78.07914 27.26304,-23.27756 47.69963,-47.54444 58.155345,-40.34131 9.11015,6.27615 -1.667185,36.73783 -12.902705,68.35431 -11.82911,33.28686 -38.08651,69.1995 -65.85947,50.06614 z"
         style="opacity:0.996;fill:#000000;stroke:none;stroke-width:1.23311px;stroke-linecap:butt;stroke-linejoin:miter;stroke-opacity:1" />
      <path
         style="opacity:0.996;fill:#000000;stroke:none;stroke-width:1.23311px;stroke-linecap:butt;stroke-linejoin:miter;stroke-opacity:1"
         d="m -87.716467,950.92906 c 20.05943,-26.26657 -9.965195,-51.23903 -47.073453,-65.61314 -33.7675,-12.03637 -61.50902,-27.42934 -68.71216,-16.97363 -6.27616,9.11014 14.64716,33.7329 36.41004,59.27141 22.91266,26.88779 60.24228,51.08836 79.375573,23.31536 z"
         id="path6727"
         sodipodi:nodetypes="ccssc" />
    </g>
    <path
       style="fill:#ffffff;fill-opacity:1;stroke:none;stroke-width:5.00001;stroke-linecap:butt;stroke-linejoin:miter;stroke-dasharray:none;stroke-opacity:1"
       d="m 893.37559,-35.51504 c -0.36272,0.64254 -1.28276,0.97178 -2.6311,0.67163 -1.33406,-0.29698 -3.02052,-1.22394 -4.46148,-2.94441 -0.87187,-1.03264 -1.61909,-2.31412 -2.10555,-3.79924 -0.35628,-1.08771 -0.53992,-2.18571 -0.57173,-3.24575 0,0 0,-10e-6 0,-10e-6 -0.0647,-2.57641 0.7662,-4.63018 1.73673,-5.84628 0.98261,-1.23127 2.02991,-1.57067 2.74939,-1.23758 0.73148,0.33864 1.10091,1.29605 1.38995,2.42161 0.29366,1.1436 0.52776,2.51429 0.8946,3.92405 0,0 0,0 0,0 0.14604,0.57208 0.31827,1.16013 0.52141,1.77218 0.27441,0.82681 0.58385,1.63269 0.88938,2.38327 0.51438,1.24061 1.04612,2.37359 1.4062,3.3698 0.35456,0.98087 0.54895,1.88106 0.1822,2.53073 z"
       id="path915"
       sodipodi:nodetypes="csc" />
  </g>
</svg>
