<?xml version="1.0" encoding="UTF-8" standalone="no"?>
<svg
   width="300"
   height="209.481"
   viewBox="0 0 79.375004 55.42518"
   version="1.1"
   id="svg8"
   inkscape:version="1.3 (0e150ed6c4, 2023-07-21)"
   sodipodi:docname="Portfolio_workPreviewElement_Architect.svg"
   inkscape:export-filename="Lexi_logo_alternate.png"
   inkscape:export-xdpi="500"
   inkscape:export-ydpi="500"
   xmlns:inkscape="http://www.inkscape.org/namespaces/inkscape"
   xmlns:sodipodi="http://sodipodi.sourceforge.net/DTD/sodipodi-0.dtd"
   xmlns="http://www.w3.org/2000/svg"
   xmlns:svg="http://www.w3.org/2000/svg"
   xmlns:rdf="http://www.w3.org/1999/02/22-rdf-syntax-ns#"
   xmlns:cc="http://creativecommons.org/ns#"
   xmlns:dc="http://purl.org/dc/elements/1.1/">
  <defs
     id="defs2">
    <inkscape:path-effect
       effect="spiro"
       id="path-effect6244"
       is_visible="true"
       lpeversion="1" />
    <inkscape:path-effect
       lpeversion="1"
       is_visible="true"
       id="path-effect6240"
       effect="spiro" />
    <inkscape:path-effect
       lpeversion="1"
       is_visible="true"
       id="path-effect6236"
       effect="spiro" />
    <inkscape:path-effect
       lpeversion="1"
       is_visible="true"
       id="path-effect19863"
       effect="spiro" />
    <inkscape:path-effect
       lpeversion="1"
       is_visible="true"
       id="path-effect19859"
       effect="spiro" />
    <inkscape:path-effect
       effect="spiro"
       id="path-effect1393"
       is_visible="true"
       lpeversion="1" />
  </defs>
  <sodipodi:namedview
     showguides="false"
     id="base"
     pagecolor="#ffffff"
     bordercolor="#666666"
     borderopacity="1.0"
     inkscape:pageopacity="0.0"
     inkscape:pageshadow="2"
     inkscape:zoom="2.1583334"
     inkscape:cx="84.787642"
     inkscape:cy="88.725866"
     inkscape:document-units="mm"
     inkscape:current-layer="layer1"
     inkscape:document-rotation="0"
     showgrid="false"
     showborder="false"
     inkscape:object-paths="true"
     inkscape:snap-intersection-paths="true"
     inkscape:window-width="1920"
     inkscape:window-height="1009"
     inkscape:window-x="-8"
     inkscape:window-y="-8"
     inkscape:window-maximized="1"
     inkscape:snap-smooth-nodes="true"
     inkscape:snap-midpoints="false"
     inkscape:object-nodes="true"
     inkscape:snap-nodes="true"
     inkscape:showpageshadow="0"
     inkscape:pagecheckerboard="0"
     inkscape:deskcolor="#d1d1d1" />
  <metadata
     id="metadata5">
    <rdf:RDF>
      <cc:Work
         rdf:about="">
        <dc:format>image/svg+xml</dc:format>
        <dc:type
           rdf:resource="http://purl.org/dc/dcmitype/StillImage" />
      </cc:Work>
    </rdf:RDF>
  </metadata>
  <g
     inkscape:label="Vrstva 1"
     inkscape:groupmode="layer"
     id="layer1"
     transform="translate(-24.042912,-25.204085)">
    <g
       id="g6232"
       transform="matrix(0.79042058,0,0,0.79042058,11.107749,10.749578)"
       style="stroke-width:1.26515">
      <g
         aria-label="architect"
         transform="scale(0.99976884,1.0002312)"
         id="g6184"
         style="font-weight:bold;font-size:10.6282px;font-family:Blinker;-inkscape-font-specification:'Blinker Bold';letter-spacing:0px;word-spacing:0px;stroke-width:0.96184">
        <path
           d="m 48.498674,88.387776 q -0.807743,0 -1.190359,-0.403871 -0.371986,-0.403872 -0.371986,-1.275384 0,-0.892769 0.446384,-1.254128 0.457012,-0.361359 1.562345,-0.361359 0.255077,0 0.520782,0.03189 0.276333,0.02126 0.478269,0.06377 v -0.382615 q 0,-0.255077 -0.223192,-0.371987 -0.212564,-0.127539 -0.658949,-0.127539 -0.510153,0 -0.914025,0.03189 -0.393243,0.02126 -0.722717,0.08503 v -1.307269 q 0.393243,-0.09565 0.914025,-0.138166 0.520782,-0.05314 1.211615,-0.05314 0.977794,0 1.477319,0.435756 0.510154,0.435756 0.510154,1.286012 v 3.634844 h -1.487948 l -0.05314,-0.4464 h -0.03189 q -0.329474,0.255077 -0.722717,0.403871 -0.393244,0.148795 -0.743974,0.148795 z m 0.658948,-2.24255 q -0.425128,0 -0.573923,0.09565 -0.148794,0.08503 -0.148794,0.371987 0,0.265705 0.11691,0.371987 0.127538,0.09565 0.435756,0.09565 0.23382,0 0.488897,-0.06377 0.255077,-0.06377 0.467641,-0.159423 v -0.64832 q -0.127538,-0.03188 -0.318846,-0.04251 -0.191308,-0.02126 -0.467641,-0.02126 z"
           id="path6166"
           style="stroke-width:0.96184" />
        <path
           d="m 54.025335,88.281494 h -1.59423 v -5.25033 h 1.487948 l 0.05314,0.403871 h 0.02126 q 0.382616,-0.23382 0.775859,-0.35073 0.403872,-0.127539 0.754602,-0.127539 h 0.08503 v 1.541089 q -0.09565,-0.02126 -0.212564,-0.02126 -0.106282,-0.01063 -0.276333,-0.01063 -0.308218,0 -0.584551,0.04251 -0.276334,0.03189 -0.510154,0.106282 z"
           id="path6168"
           style="stroke-width:0.96184" />
        <path
           d="m 59.998376,86.676636 v 1.317897 q -0.255077,0.159423 -0.829,0.276333 -0.573923,0.11691 -1.17973,0.11691 -1.147846,0 -1.615486,-0.605807 -0.457013,-0.616436 -0.457013,-2.12564 0,-1.509204 0.595179,-2.115012 0.595179,-0.616435 2.083127,-0.616435 0.361359,0 0.64832,0.02126 0.286962,0.01063 0.616436,0.05314 v 1.41355 q -0.520782,-0.04251 -0.754602,-0.04251 -0.233821,-0.01063 -0.510154,-0.01063 -0.733345,0 -0.914025,0.212564 -0.170051,0.201936 -0.170051,1.084077 0,0.797115 0.138167,1.020307 0.148794,0.223192 0.669576,0.223192 0.425128,0 0.882141,-0.06377 0.46764,-0.06377 0.797115,-0.159423 z"
           id="path6170"
           style="stroke-width:0.96184" />
        <path
           d="m 62.251564,88.281494 h -1.59423 v -7.067753 h 1.59423 v 2.18941 q 0.393243,-0.223193 0.807743,-0.350731 0.425128,-0.127538 0.807743,-0.127538 0.892769,0 1.328525,0.425128 0.446384,0.425128 0.446384,1.29664 v 3.634844 h -1.59423 v -3.42228 q 0,-0.265705 -0.159423,-0.382615 -0.159423,-0.116911 -0.510153,-0.116911 -0.265705,0 -0.563295,0.05314 -0.297589,0.04251 -0.563294,0.116911 z"
           id="path6172"
           style="stroke-width:0.96184" />
        <path
           d="m 68.171465,82.457241 h -1.679256 v -1.2435 h 1.679256 z m -0.04251,5.824253 h -1.59423 v -5.25033 h 1.59423 z"
           id="path6174"
           style="stroke-width:0.96184" />
        <path
           d="m 69.383081,84.359688 h -0.616435 v -1.328524 h 0.669576 l 0.201936,-1.222243 h 1.339153 v 1.222243 h 1.487948 v 1.328524 h -1.487948 v 2.040615 q 0,0.297589 0.148795,0.403871 0.159423,0.09565 0.616435,0.09565 0.159423,0 0.393244,-0.02126 0.23382,-0.03189 0.393243,-0.06377 v 1.360409 q -0.170051,0.0744 -0.53141,0.138167 -0.35073,0.0744 -0.627064,0.0744 -1.06282,0 -1.53046,-0.446384 -0.457013,-0.457013 -0.457013,-1.47732 z"
           id="path6176"
           style="stroke-width:0.96184" />
        <path
           d="m 77.38613,86.729777 v 1.264756 q -0.255077,0.159423 -0.860884,0.276333 -0.605807,0.11691 -1.275384,0.11691 -1.275384,0 -1.838679,-0.637692 -0.563294,-0.64832 -0.563294,-2.093755 0,-1.413551 0.595179,-2.072499 0.595179,-0.658948 1.881191,-0.658948 1.254128,0 1.764281,0.499525 0.520782,0.488897 0.520782,1.743025 0,0.340102 -0.01063,0.542038 -0.01063,0.201936 -0.04251,0.467641 h -3.103434 q 0.01063,0.435756 0.23382,0.605807 0.223193,0.170051 0.818372,0.170051 0.510153,0 1.041563,-0.06377 0.53141,-0.0744 0.839628,-0.159423 z m -2.061871,-2.444486 q -0.510153,0 -0.690833,0.180679 -0.180679,0.170052 -0.180679,0.680205 h 1.71114 v -0.23382 q -0.01063,-0.371987 -0.180679,-0.499526 -0.159423,-0.127538 -0.658949,-0.127538 z"
           id="path6178"
           style="stroke-width:0.96184" />
        <path
           d="m 82.243222,86.676636 v 1.317897 q -0.255077,0.159423 -0.829,0.276333 -0.573922,0.11691 -1.17973,0.11691 -1.147845,0 -1.615486,-0.605807 -0.457013,-0.616436 -0.457013,-2.12564 0,-1.509204 0.59518,-2.115012 0.595179,-0.616435 2.083127,-0.616435 0.361358,0 0.64832,0.02126 0.286961,0.01063 0.616435,0.05314 v 1.41355 q -0.520781,-0.04251 -0.754602,-0.04251 -0.23382,-0.01063 -0.510153,-0.01063 -0.733346,0 -0.914026,0.212564 -0.170051,0.201936 -0.170051,1.084077 0,0.797115 0.138167,1.020307 0.148795,0.223192 0.669576,0.223192 0.425128,0 0.882141,-0.06377 0.467641,-0.06377 0.797115,-0.159423 z"
           id="path6180"
           style="stroke-width:0.96184" />
        <path
           d="m 83.242283,84.359688 h -0.616436 v -1.328524 h 0.669577 l 0.201935,-1.222243 h 1.339153 v 1.222243 h 1.487948 v 1.328524 h -1.487948 v 2.040615 q 0,0.297589 0.148795,0.403871 0.159423,0.09565 0.616436,0.09565 0.159423,0 0.393243,-0.02126 0.233821,-0.03189 0.393244,-0.06377 v 1.360409 q -0.170052,0.0744 -0.53141,0.138167 -0.350731,0.0744 -0.627064,0.0744 -1.06282,0 -1.530461,-0.446384 -0.457012,-0.457013 -0.457012,-1.47732 z"
           id="path6182"
           style="stroke-width:0.96184" />
      </g>
      <g
         id="g6230"
         style="stroke-width:1.26515">
        <path
           id="path6186"
           style="fill:#000000;stroke-width:27.4221;stroke-linecap:round;stroke-linejoin:round"
           d="m 46.782784,27.021529 h 5.819922 v 39.187349 h -5.819922 z" />
        <path
           id="path6188"
           style="fill:#000000;stroke-width:27.4221;stroke-linecap:round;stroke-linejoin:round"
           d="m 46.782784,27.021529 h 5.819922 v 39.187349 h -5.819922 z" />
        <path
           d="m 58.422593,27.021526 h 5.819922 v 39.187352 h -5.819922 z"
           style="fill:#000000;stroke-width:27.4221;stroke-linecap:round;stroke-linejoin:round"
           id="path6190" />
        <path
           d="m 58.422593,27.021526 h 5.819922 v 39.187352 h -5.819922 z"
           style="fill:#000000;stroke-width:27.4221;stroke-linecap:round;stroke-linejoin:round"
           id="path6192" />
        <path
           d="m 58.422593,72.031527 v 5.822649 h 27.945662 v -5.822649 z"
           style="fill:#000000;stroke-width:26.2184;stroke-linecap:round;stroke-linejoin:round"
           id="path6194" />
        <path
           d="m 58.422593,72.031527 v 5.822649 h 27.945662 v -5.822649 z"
           style="fill:#000000;stroke-width:26.2184;stroke-linecap:round;stroke-linejoin:round"
           id="path6196" />
        <path
           id="path6198"
           style="fill:#000000;stroke-width:26.2184;stroke-linecap:round;stroke-linejoin:round"
           d="m 58.422593,60.38623 v 5.822648 H 86.368255 V 60.38623 Z" />
        <path
           id="path6200"
           style="fill:#000000;stroke-width:26.2184;stroke-linecap:round;stroke-linejoin:round"
           d="m 58.422593,60.38623 v 5.822648 H 86.368255 V 60.38623 Z" />
        <path
           id="path6202"
           style="fill:#b3b3b3;stroke-width:11.9648;stroke-linecap:round;stroke-linejoin:round"
           d="m 58.422593,60.38623 v 5.822648 h 5.819922 V 60.38623 Z" />
        <path
           id="path6204"
           style="fill:#b3b3b3;stroke-width:11.9648;stroke-linecap:round;stroke-linejoin:round"
           d="m 58.422593,60.38623 v 5.822648 h 5.819922 V 60.38623 Z" />
        <path
           d="m 64.242515,60.38623 v 5.822648 h 5.819887 V 60.38623 Z"
           style="fill:#b3b3b3;stroke-width:11.9648;stroke-linecap:round;stroke-linejoin:round"
           id="path6206" />
        <path
           d="m 64.242515,60.38623 v 5.822648 h 5.819887 V 60.38623 Z"
           style="fill:#b3b3b3;stroke-width:11.9648;stroke-linecap:round;stroke-linejoin:round"
           id="path6208" />
        <path
           d="m 52.602706,66.208878 v 5.822649 h 5.819887 v -5.822649 z"
           style="fill:#b3b3b3;stroke-width:11.9648;stroke-linecap:round;stroke-linejoin:round"
           id="path6210" />
        <path
           d="m 52.602706,27.021529 v 5.822649 h 5.819887 v -5.822649 z"
           style="fill:#b3b3b3;stroke-width:11.9648;stroke-linecap:round;stroke-linejoin:round"
           id="path6212" />
        <path
           d="m 52.602706,27.021529 v 5.822649 h 5.819887 v -5.822649 z"
           style="fill:#b3b3b3;stroke-width:11.9648;stroke-linecap:round;stroke-linejoin:round"
           id="path6214" />
        <path
           id="path6216"
           style="fill:#b3b3b3;stroke-width:11.9648;stroke-linecap:round;stroke-linejoin:round"
           d="m 52.602706,21.198877 v 5.822649 h 5.819887 v -5.822649 z" />
        <path
           id="path6218"
           style="fill:#b3b3b3;stroke-width:11.9648;stroke-linecap:round;stroke-linejoin:round"
           d="m 52.602706,21.198877 v 5.822649 h 5.819887 v -5.822649 z" />
        <path
           d="m 58.422593,54.56358 v 5.82265 h 5.819922 v -5.82265 z"
           style="fill:#b3b3b3;stroke-width:11.9648;stroke-linecap:round;stroke-linejoin:round"
           id="path6220" />
        <path
           d="m 58.422593,54.56358 v 5.82265 h 5.819922 v -5.82265 z"
           style="fill:#b3b3b3;stroke-width:11.9648;stroke-linecap:round;stroke-linejoin:round"
           id="path6222" />
        <path
           style="color:#000000;fill:#000000;stroke-width:1.26515;-inkscape-stroke:none"
           d="m 58.421875,59.724609 c -1.705693,-5e-6 -3.376427,0.693973 -4.582031,1.900391 -1.205581,1.206394 -1.898438,2.878597 -1.898438,4.583984 0,1.705388 0.692857,3.377591 1.898438,4.583985 1.205604,1.206418 2.876337,1.900395 4.582031,1.90039 1.705687,-5e-6 3.378388,-0.693973 4.583984,-1.90039 1.205573,-1.206393 1.898438,-2.878603 1.898438,-4.583985 0,-1.705381 -0.692865,-3.377591 -1.898438,-4.583984 -1.205596,-1.206417 -2.878297,-1.900386 -4.583984,-1.900391 z m 0,1.322266 c 1.342318,4e-6 2.699502,0.564091 3.648437,1.513672 0.94896,0.949605 1.509766,2.305814 1.509766,3.648437 0,1.342624 -0.560806,2.698833 -1.509766,3.648438 -0.948935,0.949581 -2.306119,1.511715 -3.648437,1.511719 -1.342323,4e-6 -2.697543,-0.562138 -3.646484,-1.511719 -0.948966,-0.949606 -1.511719,-2.305809 -1.511719,-3.648438 0,-1.342628 0.562753,-2.698832 1.511719,-3.648437 0.948941,-0.949582 2.304162,-1.513676 3.646484,-1.513672 z"
           id="path6224" />
        <path
           style="color:#000000;fill:#000000;stroke-width:1.26515;-inkscape-stroke:none"
           d="m 58.421875,54.564453 c -3.056487,0 -6.070036,1.25021 -8.230469,3.412109 -2.160408,2.161876 -3.408203,5.176242 -3.408203,8.232422 0,3.05618 1.247795,6.070547 3.408203,8.232422 2.160433,2.1619 5.173982,3.41211 8.230469,3.41211 3.056487,0 6.071989,-1.25021 8.232422,-3.41211 2.160408,-2.161875 3.408203,-5.176242 3.408203,-8.232422 0,-3.05618 -1.247795,-6.070546 -3.408203,-8.232422 -2.160433,-2.161899 -5.175935,-3.412109 -8.232422,-3.412109 z m 0,1.322266 c 2.693116,0 5.393105,1.118374 7.296875,3.023437 1.903794,1.905088 3.021484,4.605406 3.021484,7.298828 0,2.693423 -1.11769,5.393741 -3.021484,7.298828 -1.90377,1.905064 -4.603759,3.023438 -7.296875,3.023438 -2.693116,0 -5.391152,-1.118374 -7.294922,-3.023438 -1.903794,-1.905087 -3.021484,-4.605405 -3.021484,-7.298828 0,-2.693422 1.11769,-5.39374 3.021484,-7.298828 1.90377,-1.905063 4.601806,-3.023437 7.294922,-3.023437 z"
           id="path6226" />
        <path
           style="color:#000000;fill:#000000;stroke-width:1.26515;-inkscape-stroke:none"
           d="m 55.511719,18.287109 c -2.294489,-5e-6 -4.550074,0.937646 -6.171875,2.560547 -1.621777,1.622877 -2.55663,3.879649 -2.556641,6.173828 -1.1e-5,2.294188 0.932916,4.552888 2.554688,6.175782 1.621796,1.622918 3.879331,2.558589 6.173828,2.558593 2.294503,4e-6 4.552025,-0.935673 6.173828,-2.558593 1.621778,-1.622897 2.556654,-3.881587 2.55664,-6.175782 -1.3e-5,-2.294171 -0.934872,-4.550954 -2.55664,-6.173828 -1.621793,-1.622898 -3.879348,-2.560541 -6.173828,-2.560547 z m 0,1.324219 c 1.931111,5e-6 3.873147,0.803858 5.238281,2.169922 1.365158,1.366089 2.169911,3.308813 2.169922,5.240234 1.1e-5,1.93144 -0.804755,3.874127 -2.169922,5.240235 -1.365142,1.366083 -3.307151,2.169925 -5.238281,2.169922 -1.931126,-4e-6 -3.871192,-0.803841 -5.236328,-2.169922 -1.365161,-1.366106 -2.169932,-3.3088 -2.169922,-5.240235 9e-6,-1.931427 0.804756,-3.874143 2.169922,-5.240234 1.365141,-1.366067 3.30521,-2.169926 5.236328,-2.169922 z"
           id="path6228" />
      </g>
    </g>
    <g
       id="g32724"
       transform="translate(-196.55847,-35.491545)">
      <g
         aria-label="architect"
         transform="scale(0.99976884,1.0002312)"
         id="text19853"
         style="font-weight:bold;font-size:10.6282px;line-height:1.25;font-family:Blinker;-inkscape-font-specification:'Blinker Bold';letter-spacing:0px;word-spacing:0px;stroke-width:0.760261">
        <path
           d="m 48.498674,88.387776 q -0.807743,0 -1.190359,-0.403871 -0.371986,-0.403872 -0.371986,-1.275384 0,-0.892769 0.446384,-1.254128 0.457012,-0.361359 1.562345,-0.361359 0.255077,0 0.520782,0.03189 0.276333,0.02126 0.478269,0.06377 v -0.382615 q 0,-0.255077 -0.223192,-0.371987 -0.212564,-0.127539 -0.658949,-0.127539 -0.510153,0 -0.914025,0.03189 -0.393243,0.02126 -0.722717,0.08503 v -1.307269 q 0.393243,-0.09565 0.914025,-0.138166 0.520782,-0.05314 1.211615,-0.05314 0.977794,0 1.477319,0.435756 0.510154,0.435756 0.510154,1.286012 v 3.634844 h -1.487948 l -0.05314,-0.4464 h -0.03189 q -0.329474,0.255077 -0.722717,0.403871 -0.393244,0.148795 -0.743974,0.148795 z m 0.658948,-2.24255 q -0.425128,0 -0.573923,0.09565 -0.148794,0.08503 -0.148794,0.371987 0,0.265705 0.11691,0.371987 0.127538,0.09565 0.435756,0.09565 0.23382,0 0.488897,-0.06377 0.255077,-0.06377 0.467641,-0.159423 v -0.64832 q -0.127538,-0.03188 -0.318846,-0.04251 -0.191308,-0.02126 -0.467641,-0.02126 z"
           id="path3843" />
        <path
           d="m 54.025335,88.281494 h -1.59423 v -5.25033 h 1.487948 l 0.05314,0.403871 h 0.02126 q 0.382616,-0.23382 0.775859,-0.35073 0.403872,-0.127539 0.754602,-0.127539 h 0.08503 v 1.541089 q -0.09565,-0.02126 -0.212564,-0.02126 -0.106282,-0.01063 -0.276333,-0.01063 -0.308218,0 -0.584551,0.04251 -0.276334,0.03189 -0.510154,0.106282 z"
           id="path3845" />
        <path
           d="m 59.998376,86.676636 v 1.317897 q -0.255077,0.159423 -0.829,0.276333 -0.573923,0.11691 -1.17973,0.11691 -1.147846,0 -1.615486,-0.605807 -0.457013,-0.616436 -0.457013,-2.12564 0,-1.509204 0.595179,-2.115012 0.595179,-0.616435 2.083127,-0.616435 0.361359,0 0.64832,0.02126 0.286962,0.01063 0.616436,0.05314 v 1.41355 q -0.520782,-0.04251 -0.754602,-0.04251 -0.233821,-0.01063 -0.510154,-0.01063 -0.733345,0 -0.914025,0.212564 -0.170051,0.201936 -0.170051,1.084077 0,0.797115 0.138167,1.020307 0.148794,0.223192 0.669576,0.223192 0.425128,0 0.882141,-0.06377 0.46764,-0.06377 0.797115,-0.159423 z"
           id="path3847" />
        <path
           d="m 62.251564,88.281494 h -1.59423 v -7.067753 h 1.59423 v 2.18941 q 0.393243,-0.223193 0.807743,-0.350731 0.425128,-0.127538 0.807743,-0.127538 0.892769,0 1.328525,0.425128 0.446384,0.425128 0.446384,1.29664 v 3.634844 h -1.59423 v -3.42228 q 0,-0.265705 -0.159423,-0.382615 -0.159423,-0.116911 -0.510153,-0.116911 -0.265705,0 -0.563295,0.05314 -0.297589,0.04251 -0.563294,0.116911 z"
           id="path3849" />
        <path
           d="m 68.171465,82.457241 h -1.679256 v -1.2435 h 1.679256 z m -0.04251,5.824253 h -1.59423 v -5.25033 h 1.59423 z"
           id="path3851" />
        <path
           d="m 69.383081,84.359688 h -0.616435 v -1.328524 h 0.669576 l 0.201936,-1.222243 h 1.339153 v 1.222243 h 1.487948 v 1.328524 h -1.487948 v 2.040615 q 0,0.297589 0.148795,0.403871 0.159423,0.09565 0.616435,0.09565 0.159423,0 0.393244,-0.02126 0.23382,-0.03189 0.393243,-0.06377 v 1.360409 q -0.170051,0.0744 -0.53141,0.138167 -0.35073,0.0744 -0.627064,0.0744 -1.06282,0 -1.53046,-0.446384 -0.457013,-0.457013 -0.457013,-1.47732 z"
           id="path3853" />
        <path
           d="m 77.38613,86.729777 v 1.264756 q -0.255077,0.159423 -0.860884,0.276333 -0.605807,0.11691 -1.275384,0.11691 -1.275384,0 -1.838679,-0.637692 -0.563294,-0.64832 -0.563294,-2.093755 0,-1.413551 0.595179,-2.072499 0.595179,-0.658948 1.881191,-0.658948 1.254128,0 1.764281,0.499525 0.520782,0.488897 0.520782,1.743025 0,0.340102 -0.01063,0.542038 -0.01063,0.201936 -0.04251,0.467641 h -3.103434 q 0.01063,0.435756 0.23382,0.605807 0.223193,0.170051 0.818372,0.170051 0.510153,0 1.041563,-0.06377 0.53141,-0.0744 0.839628,-0.159423 z m -2.061871,-2.444486 q -0.510153,0 -0.690833,0.180679 -0.180679,0.170052 -0.180679,0.680205 h 1.71114 v -0.23382 q -0.01063,-0.371987 -0.180679,-0.499526 -0.159423,-0.127538 -0.658949,-0.127538 z"
           id="path3855" />
        <path
           d="m 82.243222,86.676636 v 1.317897 q -0.255077,0.159423 -0.829,0.276333 -0.573922,0.11691 -1.17973,0.11691 -1.147845,0 -1.615486,-0.605807 -0.457013,-0.616436 -0.457013,-2.12564 0,-1.509204 0.59518,-2.115012 0.595179,-0.616435 2.083127,-0.616435 0.361358,0 0.64832,0.02126 0.286961,0.01063 0.616435,0.05314 v 1.41355 q -0.520781,-0.04251 -0.754602,-0.04251 -0.23382,-0.01063 -0.510153,-0.01063 -0.733346,0 -0.914026,0.212564 -0.170051,0.201936 -0.170051,1.084077 0,0.797115 0.138167,1.020307 0.148795,0.223192 0.669576,0.223192 0.425128,0 0.882141,-0.06377 0.467641,-0.06377 0.797115,-0.159423 z"
           id="path3857" />
        <path
           d="m 83.242283,84.359688 h -0.616436 v -1.328524 h 0.669577 l 0.201935,-1.222243 h 1.339153 v 1.222243 h 1.487948 v 1.328524 h -1.487948 v 2.040615 q 0,0.297589 0.148795,0.403871 0.159423,0.09565 0.616436,0.09565 0.159423,0 0.393243,-0.02126 0.233821,-0.03189 0.393244,-0.06377 v 1.360409 q -0.170052,0.0744 -0.53141,0.138167 -0.350731,0.0744 -0.627064,0.0744 -1.06282,0 -1.530461,-0.446384 -0.457012,-0.457013 -0.457012,-1.47732 z"
           id="path3859" />
      </g>
      <g
         id="g32631">
        <path
           id="path19829"
           style="fill:#000000;stroke-width:21.675;stroke-linecap:round;stroke-linejoin:round"
           d="m 46.782784,27.021529 h 5.819922 v 39.187349 h -5.819922 z" />
        <path
           id="path1225"
           style="fill:#000000;stroke-width:21.675;stroke-linecap:round;stroke-linejoin:round"
           d="m 46.782784,27.021529 h 5.819922 v 39.187349 h -5.819922 z" />
        <path
           d="m 58.422593,27.021526 h 5.819922 v 39.187352 h -5.819922 z"
           style="fill:#000000;stroke-width:21.675;stroke-linecap:round;stroke-linejoin:round"
           id="path19831" />
        <path
           d="m 58.422593,27.021526 h 5.819922 v 39.187352 h -5.819922 z"
           style="fill:#000000;stroke-width:21.675;stroke-linecap:round;stroke-linejoin:round"
           id="path1227" />
        <path
           d="m 58.422593,72.031527 v 5.822649 h 27.945662 v -5.822649 z"
           style="fill:#000000;stroke-width:20.7236;stroke-linecap:round;stroke-linejoin:round"
           id="path19833" />
        <path
           d="m 58.422593,72.031527 v 5.822649 h 27.945662 v -5.822649 z"
           style="fill:#000000;stroke-width:20.7236;stroke-linecap:round;stroke-linejoin:round"
           id="path1231" />
        <path
           id="path19835"
           style="fill:#000000;stroke-width:20.7236;stroke-linecap:round;stroke-linejoin:round"
           d="m 58.422593,60.38623 v 5.822648 H 86.368255 V 60.38623 Z" />
        <path
           id="path1233"
           style="fill:#000000;stroke-width:20.7236;stroke-linecap:round;stroke-linejoin:round"
           d="m 58.422593,60.38623 v 5.822648 H 86.368255 V 60.38623 Z" />
        <path
           id="path19837"
           style="fill:#b3b3b3;stroke-width:9.45726;stroke-linecap:round;stroke-linejoin:round"
           d="m 58.422593,60.38623 v 5.822648 h 5.819922 V 60.38623 Z" />
        <path
           id="path1237"
           style="fill:#b3b3b3;stroke-width:9.45726;stroke-linecap:round;stroke-linejoin:round"
           d="m 58.422593,60.38623 v 5.822648 h 5.819922 V 60.38623 Z" />
        <path
           d="m 64.242515,60.38623 v 5.822648 h 5.819887 V 60.38623 Z"
           style="fill:#b3b3b3;stroke-width:9.45726;stroke-linecap:round;stroke-linejoin:round"
           id="path19839" />
        <path
           d="m 64.242515,60.38623 v 5.822648 h 5.819887 V 60.38623 Z"
           style="fill:#b3b3b3;stroke-width:9.45726;stroke-linecap:round;stroke-linejoin:round"
           id="path22942" />
        <path
           d="m 52.602706,66.208878 v 5.822649 h 5.819887 v -5.822649 z"
           style="fill:#b3b3b3;stroke-width:9.45726;stroke-linecap:round;stroke-linejoin:round"
           id="path1239" />
        <path
           d="m 52.602706,27.021529 v 5.822649 h 5.819887 v -5.822649 z"
           style="fill:#b3b3b3;stroke-width:9.45726;stroke-linecap:round;stroke-linejoin:round"
           id="path19841" />
        <path
           d="m 52.602706,27.021529 v 5.822649 h 5.819887 v -5.822649 z"
           style="fill:#b3b3b3;stroke-width:9.45726;stroke-linecap:round;stroke-linejoin:round"
           id="path1351" />
        <path
           id="path19843"
           style="fill:#b3b3b3;stroke-width:9.45726;stroke-linecap:round;stroke-linejoin:round"
           d="m 52.602706,21.198877 v 5.822649 h 5.819887 v -5.822649 z" />
        <path
           id="path1363"
           style="fill:#b3b3b3;stroke-width:9.45726;stroke-linecap:round;stroke-linejoin:round"
           d="m 52.602706,21.198877 v 5.822649 h 5.819887 v -5.822649 z" />
        <path
           d="m 58.422593,54.56358 v 5.82265 h 5.819922 v -5.82265 z"
           style="fill:#b3b3b3;stroke-width:9.45726;stroke-linecap:round;stroke-linejoin:round"
           id="path19845" />
        <path
           d="m 58.422593,54.56358 v 5.82265 h 5.819922 v -5.82265 z"
           style="fill:#b3b3b3;stroke-width:9.45726;stroke-linecap:round;stroke-linejoin:round"
           id="path1244" />
        <path
           inkscape:original-d="m 52.602671,66.208878 c -1.940056,1.940789 3.880041,3.881857 5.819922,5.822649 1.939881,1.940788 3.880041,-3.881675 5.819888,-5.822649 1.93988,-1.940977 -3.879832,-3.881675 -5.819888,-5.822648 -1.940055,-1.940977 -3.879832,3.881856 -5.819922,5.822648 z"
           inkscape:path-effect="#path-effect19859"
           id="path19847"
           d="m 52.602671,66.208878 c 0,1.52401 0.626851,3.038748 1.704125,4.116749 1.077274,1.078001 2.591787,1.705904 4.115797,1.7059 1.524004,-4e-6 3.038508,-0.627912 4.115775,-1.705912 1.077267,-1.078 1.704113,-2.592733 1.704113,-4.116737 0,-1.524004 -0.626846,-3.038736 -1.704113,-4.116736 -1.077267,-1.078 -2.591771,-1.705908 -4.115775,-1.705912 -1.524009,-4e-6 -3.038523,0.627899 -4.115797,1.7059 -1.077274,1.078001 -1.704125,2.592739 -1.704125,4.116748 z"
           style="fill:none;stroke:#000000;stroke-width:1.32292;stroke-linecap:butt;stroke-linejoin:miter;stroke-dasharray:none;stroke-opacity:1" />
        <path
           inkscape:original-d="m 47.444244,66.208878 c -3.65955,3.661091 7.318998,7.322442 10.978349,10.983536 3.659351,3.661091 7.318999,-7.322271 10.978349,-10.983536 3.659352,-3.661268 -7.318799,-7.322271 -10.978349,-10.983536 -3.659549,-3.661269 -7.318799,7.322442 -10.978349,10.983536 z"
           inkscape:path-effect="#path-effect19863"
           id="path19849"
           d="m 47.444244,66.208878 c 0,2.874804 1.182451,5.73212 3.214554,7.765603 2.032103,2.033483 4.888991,3.217933 7.763795,3.217933 2.874804,0 5.731692,-1.18445 7.763795,-3.217933 2.032103,-2.033483 3.214554,-4.890799 3.214554,-7.765603 0,-2.874804 -1.182451,-5.73212 -3.214554,-7.765603 -2.032103,-2.033483 -4.888991,-3.217933 -7.763795,-3.217933 -2.874804,0 -5.731692,1.18445 -7.763795,3.217933 -2.032103,2.033483 -3.214554,4.890799 -3.214554,7.765603 z"
           style="fill:none;stroke:#000000;stroke-width:1.32292;stroke-linecap:butt;stroke-linejoin:miter;stroke-dasharray:none;stroke-opacity:1;paint-order:normal" />
        <path
           style="fill:none;stroke:#000000;stroke-width:1.32291;stroke-linecap:butt;stroke-linejoin:miter;stroke-dasharray:none;stroke-opacity:1"
           d="m 47.444235,27.021535 c -10e-6,2.112813 0.869007,4.212779 2.362474,5.70728 1.493468,1.494502 3.593111,2.365015 5.705924,2.365019 2.112819,4e-6 4.212471,-0.870508 5.705945,-2.365011 1.493474,-1.494503 2.362494,-3.594476 2.362482,-5.707295 -1.2e-5,-2.112798 -0.869039,-4.21274 -2.362504,-5.707223 -1.493465,-1.494482 -3.593092,-2.364984 -5.70589,-2.364989 -2.112805,-5e-6 -4.212444,0.870494 -5.705917,2.364979 -1.493472,1.494485 -2.362504,3.594435 -2.362514,5.70724 z"
           id="path1391"
           inkscape:path-effect="#path-effect1393"
           inkscape:original-d="m 47.444235,27.021535 c -2.689574,2.690658 5.379016,5.381618 8.068398,8.072299 2.689378,2.690694 5.379048,-5.381442 8.068427,-8.072306 2.689379,-2.690853 -5.378853,-5.381389 -8.068394,-8.072212 -2.689544,-2.690822 -5.37886,5.381571 -8.068431,8.072219 z" />
      </g>
    </g>
  </g>
</svg>
