<?xml version="1.0" encoding="UTF-8" standalone="no"?>
<!-- Created with Inkscape (http://www.inkscape.org/) -->

<svg
   width="284.7652"
   height="210.21515"
   viewBox="0 0 75.344123 55.619423"
   version="1.1"
   id="svg5"
   inkscape:version="1.3 (0e150ed6c4, 2023-07-21)"
   sodipodi:docname="Portfolio_workPreviewElement_LXY.svg"
   xmlns:inkscape="http://www.inkscape.org/namespaces/inkscape"
   xmlns:sodipodi="http://sodipodi.sourceforge.net/DTD/sodipodi-0.dtd"
   xmlns="http://www.w3.org/2000/svg"
   xmlns:svg="http://www.w3.org/2000/svg">
  <sodipodi:namedview
     id="namedview7"
     pagecolor="#505050"
     bordercolor="#eeeeee"
     borderopacity="1"
     inkscape:showpageshadow="0"
     inkscape:pageopacity="0"
     inkscape:pagecheckerboard="0"
     inkscape:deskcolor="#505050"
     inkscape:document-units="mm"
     showgrid="false"
     inkscape:zoom="0.5"
     inkscape:cx="-230"
     inkscape:cy="-29"
     inkscape:window-width="1920"
     inkscape:window-height="1009"
     inkscape:window-x="-8"
     inkscape:window-y="-8"
     inkscape:window-maximized="1"
     inkscape:current-layer="layer1" />
  <defs
     id="defs2" />
  <g
     inkscape:label="Слой 1"
     inkscape:groupmode="layer"
     id="layer1"
     transform="translate(-15.244604,-25.106954)">
    <path
       style="fill:none;stroke:#000000;stroke-width:2;stroke-linecap:butt;stroke-linejoin:miter;stroke-dasharray:none;stroke-opacity:1"
       d="m -245.26875,-53.300906 v 82.550001 h 20.90209 z"
       id="path3450" />
    <path
       style="fill:none;stroke:#000000;stroke-width:2;stroke-linecap:butt;stroke-linejoin:miter;stroke-dasharray:none;stroke-opacity:1"
       d="m -252.36603,149.5906 v 82.55 h 20.90208 z"
       id="path3659" />
    <path
       style="fill:none;stroke:#000000;stroke-width:2;stroke-linecap:butt;stroke-linejoin:miter;stroke-dasharray:none;stroke-opacity:1"
       d="m -247.74915,48.418749 v 82.550001 h 20.90209 z"
       id="path1525" />
    <path
       style="fill:none;stroke:#000000;stroke-width:2;stroke-linecap:butt;stroke-linejoin:miter;stroke-dasharray:none;stroke-opacity:1"
       d="m -245.26875,29.249095 13.89063,0.13229 -13.89063,-82.682291 z"
       id="path3452" />
    <path
       style="fill:none;stroke:#000000;stroke-width:2;stroke-linecap:butt;stroke-linejoin:miter;stroke-dasharray:none;stroke-opacity:1"
       d="m -252.36603,232.1406 13.89062,0.13229 -13.89062,-82.68229 z"
       id="path3661" />
    <path
       style="fill:none;stroke:#000000;stroke-width:2;stroke-linecap:butt;stroke-linejoin:miter;stroke-dasharray:none;stroke-opacity:1"
       d="m -247.74915,130.96875 13.89063,0.13229 -13.89063,-82.682291 z"
       id="path1527" />
    <path
       style="fill:none;stroke:#000000;stroke-width:1.865;stroke-linecap:butt;stroke-linejoin:miter;stroke-dasharray:none;stroke-opacity:1"
       d="m -228.37845,13.405065 15.31501,-42.567363 -11.30322,58.411393 z"
       id="path3454"
       sodipodi:nodetypes="cccc" />
    <path
       style="fill:none;stroke:#000000;stroke-width:1.865;stroke-linecap:butt;stroke-linejoin:bevel;stroke-dasharray:none;stroke-opacity:1"
       d="m -238.76163,203.31939 29.15432,-53.97424 h 7.24547 l -29.10211,82.79545 z"
       id="path3663"
       sodipodi:nodetypes="ccccc" />
    <path
       style="fill:none;stroke:#000000;stroke-width:1.865;stroke-linecap:butt;stroke-linejoin:miter;stroke-dasharray:none;stroke-opacity:1"
       d="m -234.14474,102.14754 29.90266,-47.642224 -22.60498,76.463434 z"
       id="path2257"
       sodipodi:nodetypes="cccc" />
    <path
       style="fill:none;stroke:#000000;stroke-width:2;stroke-linecap:butt;stroke-linejoin:miter;stroke-dasharray:none;stroke-opacity:1"
       d="m -221.63002,-53.333378 -15.15322,0.01056 21.29854,36.672787 16.64014,46.165746 h 14.21874 l -20.95393,-41.49171 -7.48369,-17.186303 z"
       id="path3456"
       sodipodi:nodetypes="cccccccc" />
    <path
       style="fill:none;stroke:#000000;stroke-width:2;stroke-linecap:butt;stroke-linejoin:miter;stroke-dasharray:none;stroke-opacity:1"
       d="m -228.72731,149.55813 -15.15322,0.0106 18.31975,32.71853 5.39932,11.62167 3.55556,38.4606 24.8828,0.0377 -25.57964,-48.16818 -3.26106,-9.91318 z"
       id="path3665"
       sodipodi:nodetypes="ccccccccc" />
    <path
       style="fill:none;stroke:#000000;stroke-width:2;stroke-linecap:butt;stroke-linejoin:miter;stroke-dasharray:none;stroke-opacity:1"
       d="m -224.11042,48.386277 -15.15323,0.01056 18.31976,32.71853 5.39932,11.621664 3.55556,38.460609 24.88279,0.0377 -25.57963,-48.168188 -3.26107,-9.913178 z"
       id="path2259"
       sodipodi:nodetypes="ccccccccc" />
    <path
       style="fill:none;stroke:#000000;stroke-width:1.665;stroke-linecap:butt;stroke-linejoin:miter;stroke-dasharray:none;stroke-opacity:1"
       d="m -224.36666,29.249095 15.98058,-82.582473 h 15.15418 l -24.6957,82.714763 z"
       id="path3458" />
    <path
       style="fill:none;stroke:#000000;stroke-width:2;stroke-linecap:butt;stroke-linejoin:miter;stroke-dasharray:none;stroke-opacity:1"
       d="m -184.62582,29.515715 28.99874,-82.981475 h -18.1476 l -13.49861,77.739115 z"
       id="path3460"
       sodipodi:nodetypes="ccccc" />
    <path
       style="fill:none;stroke:#000000;stroke-width:2;stroke-linecap:butt;stroke-linejoin:miter;stroke-dasharray:none;stroke-opacity:1"
       d="m -191.7231,232.40719 22.04326,-82.98144 h -18.14759 l -10.53732,82.94374 z"
       id="path3667"
       sodipodi:nodetypes="ccccc" />
    <path
       style="fill:none;stroke:#000000;stroke-width:2;stroke-linecap:butt;stroke-linejoin:miter;stroke-dasharray:none;stroke-opacity:1"
       d="m -187.10622,131.23534 22.04327,-82.981445 h -18.1476 l -10.53732,82.943745 z"
       id="path2261"
       sodipodi:nodetypes="ccccc" />
    <path
       style="fill:none;stroke:#000000;stroke-width:2;stroke-linecap:butt;stroke-linejoin:miter;stroke-dasharray:none;stroke-opacity:1"
       d="m -180.37891,-14.903798 -17.04469,-24.390061 4.1917,-14.039519 9.9157,-0.132382 6.19948,19.514087 z"
       id="path3462" />
    <path
       style="fill:none;stroke:#000000;stroke-width:2;stroke-linecap:butt;stroke-linejoin:miter;stroke-dasharray:none;stroke-opacity:1"
       d="m -187.27329,24.273355 -6.65849,-13.18475 11.89274,-28.367959 1.66013,2.375554 z"
       id="path3464" />
    <path
       style="fill:none;stroke:#000000;stroke-width:2;stroke-linecap:butt;stroke-linejoin:bevel;stroke-dasharray:none;stroke-opacity:1"
       d="m -194.15865,197.84222 -8.20319,-48.49707 11.6004,22.51776 -1.76729,13.51485 z"
       id="path3669"
       sodipodi:nodetypes="ccccc" />
    <path
       style="fill:none;stroke:#000000;stroke-width:2;stroke-linecap:butt;stroke-linejoin:miter;stroke-dasharray:none;stroke-opacity:1"
       d="m -189.54177,96.670367 -14.70031,-42.165051 18.09752,16.185735 -1.76729,13.514856 z"
       id="path3474"
       sodipodi:nodetypes="ccccc" />
    <ellipse
       style="opacity:0.8;fill:none;stroke:#000000;stroke-width:2;stroke-linecap:round;stroke-linejoin:round;stroke-miterlimit:4.7;stroke-dasharray:none"
       id="path3619"
       cx="-204.24208"
       cy="54.505314"
       rx="5.0757775"
       ry="5.3320274" />
    <g
       id="g3825"
       style="fill:#ffffff;stroke-width:2.39471;stroke-linecap:round;stroke-dasharray:none"
       transform="matrix(0.62678881,0,0,0.62597194,-267.993,-176.21493)">
      <path
         style="fill:#ffffff;stroke:#000000;stroke-width:2.39471;stroke-linecap:round;stroke-linejoin:miter;stroke-dasharray:none;stroke-opacity:1"
         d="m 77.93018,64.67904 -21.3877,83.06205 42.289784,-0.51205 z"
         id="path3821"
         sodipodi:nodetypes="cccc" />
      <path
         style="fill:#ffffff;stroke:#000000;stroke-width:2.39471;stroke-linecap:round;stroke-linejoin:miter;stroke-dasharray:none;stroke-opacity:1"
         d="M 56.54248,147.74109 91.820805,147.36133 77.680718,135.82435 77.93018,64.67904 Z"
         id="path3823"
         sodipodi:nodetypes="ccccc" />
    </g>
    <path
       style="fill:#ffffff;stroke:#000000;stroke-width:1.5;stroke-linecap:round;stroke-linejoin:bevel;stroke-dasharray:none;stroke-opacity:1"
       d="m -210.62015,-102.09495 18.2736,-33.78637 h 4.54138 l -18.24088,51.827635 z"
       id="path3778"
       sodipodi:nodetypes="ccccc" />
    <path
       style="fill:#ffffff;stroke:#000000;stroke-width:1.5;stroke-linecap:round;stroke-linejoin:bevel;stroke-dasharray:none;stroke-opacity:1"
       d="m -204.33075,-135.748 -9.49787,0.007 11.48262,20.48089 3.38423,7.27483 2.22859,24.075264 8.75563,-12.953182 -9.19241,-17.175152 -2.044,-6.20537 z"
       id="path3780"
       sodipodi:nodetypes="ccccccccc" />
    <path
       style="fill:#ffffff;stroke:#000000;stroke-width:1.5;stroke-linecap:round;stroke-linejoin:miter;stroke-dasharray:none;stroke-opacity:1"
       d="m -196.73318,-83.910406 17.51126,-25.906364 4.33739,-26.06455 h 7.15317 l -13.40557,51.994513 z"
       id="path4251"
       sodipodi:nodetypes="cccccc" />
    <path
       style="fill:#ffffff;stroke:#000000;stroke-width:1.5;stroke-linecap:round;stroke-linejoin:miter;stroke-dasharray:none;stroke-opacity:1"
       d="m -179.22192,-109.81677 -13.12463,-26.06455 h 4.54138 l 15.78443,16.63666 z"
       id="path3993"
       sodipodi:nodetypes="ccccc" />
    <path
       style="fill:none;stroke:#000000;stroke-width:5;stroke-linecap:butt;stroke-linejoin:miter;stroke-dasharray:none;stroke-opacity:1"
       d="m -171.00813,-83.886807 13.40557,-51.994513"
       id="path4319" />
    <path
       style="fill:none;stroke:#000000;stroke-width:5;stroke-linecap:butt;stroke-linejoin:miter;stroke-dasharray:none;stroke-opacity:1"
       d="m -241.37811,-83.886807 13.40557,-51.994513"
       id="path4317" />
    <g
       id="g1660"
       transform="translate(-13.229821,-0.04998017)">
      <g
         id="g29432"
         style="fill:#ffffff;stroke-width:2.81659;stroke-linecap:round"
         transform="matrix(0.53290847,0,0,0.53221394,7.9035768,-8.4977556)">
        <g
           id="path29428"
           style="stroke-width:2.81659">
          <path
             style="color:#000000;stroke-width:2.81659;-inkscape-stroke:none"
             d="m 77.93018,64.67904 -21.3877,83.06205 42.289784,-0.51205 z"
             id="path29456" />
          <path
             style="color:#000000;fill:#000000;stroke-width:2.81659;-inkscape-stroke:none"
             d="M 76.771484,64.380859 54.992187,148.95703 100.36523,148.4082 79.091797,64.384766 Z m 1.148438,5.138672 19.378906,76.529299 -39.207031,0.47461 z"
             id="path29458" />
        </g>
        <g
           id="path29430"
           style="stroke-width:2.81659">
          <path
             style="color:#000000;stroke-width:2.81659;-inkscape-stroke:none"
             d="M 56.54248,147.74109 91.820805,147.36133 77.680718,135.82435 77.93018,64.67904 Z"
             id="path29462" />
          <path
             style="color:#000000;fill:#000000;stroke-width:2.81659;-inkscape-stroke:none"
             d="m 76.771484,64.380859 -21.777343,84.574221 1.560546,-0.0176 38.583985,-0.41406 -16.257813,-13.26563 0.246094,-70.574216 z m -0.07227,9.882813 -0.21875,62.126948 12.023437,9.8086 -30.414062,0.32617 z"
             id="path29464" />
        </g>
      </g>
      <g
         id="path29434"
         transform="matrix(0.85022013,0,0,0.85022013,9.9074122,7.9333376)"
         style="stroke-width:1.17616">
        <path
           style="color:#000000;fill:#ffffff;stroke-width:1.76425;stroke-linecap:round;stroke-linejoin:bevel;-inkscape-stroke:none"
           d="M 55.016012,54.794286 73.28961,21.007921 h 4.541379 L 59.590115,72.835555 Z"
           id="path29468" />
        <path
           style="color:#000000;fill:#000000;stroke-width:1.17616;stroke-linecap:round;stroke-linejoin:bevel;-inkscape-stroke:none"
           d="m 73.289062,20.257812 -0.658203,0.392579 -18.27539,33.787109 -0.06641,0.541016 4.574219,18.041015 1.433594,0.06445 18.242187,-51.826172 -0.708984,-1 z m 0.447266,1.5 h 3.035156 L 59.707031,70.246094 55.814453,54.894531 Z"
           id="path29470" />
      </g>
      <g
         id="path29436"
         transform="matrix(0.85022013,0,0,0.85022013,9.9074122,7.9333376)"
         style="stroke-width:1.17616">
        <path
           style="color:#000000;fill:#ffffff;stroke-width:1.76425;stroke-linecap:round;stroke-linejoin:bevel;-inkscape-stroke:none"
           d="m 61.305408,21.141245 -9.497867,0.0066 11.482619,20.480882 3.384233,7.274834 2.228585,24.075263 8.755632,-12.953182 -9.192403,-17.175153 -2.044002,-6.205371 z"
           id="path29474" />
        <path
           style="color:#000000;fill:#000000;stroke-width:1.17616;stroke-linecap:round;stroke-linejoin:bevel;-inkscape-stroke:none"
           d="m 61.304687,20.390625 -9.498046,0.0078 -0.652344,1.115235 11.46875,20.457031 3.316406,7.130859 2.216797,23.947266 1.367187,0.349609 8.75586,-12.953125 0.04102,-0.773437 L 69.158203,42.554687 67.134766,36.410156 62.017578,20.90625 Z m -0.541015,1.5 4.945312,14.990234 2.044922,6.205078 0.05078,0.119141 8.978516,16.775391 L 69.45703,70.820312 67.421874,48.833984 67.353514,48.587891 63.970701,41.3125 63.945311,41.26172 53.085936,21.896485 Z"
           id="path29476" />
      </g>
      <g
         id="path29438"
         transform="matrix(0.85022013,0,0,0.85022013,9.9074122,7.9333376)"
         style="stroke-width:1.17616">
        <path
           style="color:#000000;fill:#ffffff;stroke-width:1.76425;stroke-linecap:round;-inkscape-stroke:none"
           d="m 68.902978,72.978834 17.511264,-25.906363 4.337391,-26.06455 h 7.153171 L 84.499233,73.002433 Z"
           id="path29480" />
        <path
           style="color:#000000;fill:#000000;stroke-width:1.17616;stroke-linecap:round;-inkscape-stroke:none"
           d="m 90.115234,20.257812 -4.414062,26.529297 -18.208985,26.939453 1.410157,0.002 16.177734,0.02539 13.792969,-53.496094 z m 1.271485,1.5 h 5.548828 L 83.917969,72.251953 70.3125,72.230469 87.126953,47.357422 Z"
           id="path29482" />
      </g>
      <g
         id="path29440"
         transform="matrix(0.85022013,0,0,0.85022013,9.9074122,7.9333376)"
         style="stroke-width:1.17616">
        <path
           style="color:#000000;fill:#ffffff;stroke-width:1.76425;stroke-linecap:round;-inkscape-stroke:none"
           d="M 86.414242,47.072471 73.28961,21.007921 h 4.541379 l 15.784442,16.636658 z"
           id="path29486" />
        <path
           style="color:#000000;fill:#000000;stroke-width:1.17616;stroke-linecap:round;-inkscape-stroke:none"
           d="m 72.072266,20.257812 14.210937,28.222657 0.726563,-0.953125 7.589843,-9.935547 -16.447265,-17.333985 z m 2.433593,1.5 h 3.001953 l 15.123047,15.939454 -6.085937,7.96875 z"
           id="path29488" />
      </g>
      <path
         style="color:#000000;fill:#000000;stroke-width:0.999994;-inkscape-stroke:none"
         d="M 99.701947,25.263214 88.303683,69.471338 92.420277,70.532453 103.81855,26.32599 Z"
         id="path29442" />
      <path
         style="color:#000000;fill:#000000;stroke-width:0.999994;-inkscape-stroke:none"
         d="M 39.871028,25.263214 28.474425,69.471338 32.591018,70.532453 43.98762,26.32599 Z"
         id="path29444" />
      <g
         id="g29452"
         transform="matrix(0.42841671,0,0,0.42785836,16.270951,8.493515)"
         style="stroke-width:2.33569">
        <rect
           style="opacity:0.8;fill:#000000;fill-opacity:1;stroke:none;stroke-width:5.83926;stroke-linecap:round;stroke-linejoin:bevel;stroke-miterlimit:4.7;stroke-dasharray:none;stroke-opacity:1"
           id="rect29446"
           width="9.541522"
           height="9.541522"
           x="79.872505"
           y="159.39954" />
        <ellipse
           style="opacity:0.8;fill:#000000;fill-opacity:1;stroke:none;stroke-width:5.83926;stroke-linecap:round;stroke-linejoin:bevel;stroke-miterlimit:4.7;stroke-dasharray:none;stroke-opacity:1"
           id="ellipse29448"
           cx="105"
           cy="164.17029"
           rx="4.8868809"
           ry="4.770761" />
        <path
           style="fill:#000000;stroke:none;stroke-width:0.617985px;stroke-linecap:butt;stroke-linejoin:miter;stroke-opacity:1"
           d="m 120.58597,168.94105 4.77076,-9.54152 4.77076,9.54152 z"
           id="path29450" />
      </g>
    </g>
    <g
       id="g5893"
       transform="matrix(0.50388916,0,0,0.50323246,-258.15158,-156.23038)"
       style="stroke-width:1.98585">
      <rect
         style="opacity:0.8;fill:#000000;fill-opacity:1;stroke:none;stroke-width:4.96465;stroke-linecap:round;stroke-linejoin:bevel;stroke-miterlimit:4.7;stroke-dasharray:none;stroke-opacity:1"
         id="rect5743"
         width="9.541522"
         height="9.541522"
         x="79.872505"
         y="159.39954" />
      <ellipse
         style="opacity:0.8;fill:#000000;fill-opacity:1;stroke:none;stroke-width:4.96465;stroke-linecap:round;stroke-linejoin:bevel;stroke-miterlimit:4.7;stroke-dasharray:none;stroke-opacity:1"
         id="path5849"
         cx="105"
         cy="164.17029"
         rx="4.8868809"
         ry="4.770761" />
      <path
         style="fill:#000000;stroke:none;stroke-width:0.525423px;stroke-linecap:butt;stroke-linejoin:miter;stroke-opacity:1"
         d="m 120.58597,168.94105 4.77076,-9.54152 4.77076,9.54152 z"
         id="path5851" />
    </g>
  </g>
</svg>
