<?xml version="1.0" encoding="UTF-8" standalone="no"?>
<!-- Created with Inkscape (http://www.inkscape.org/) -->

<svg
   width="250.95312mm"
   height="262.7233mm"
   viewBox="0 0 250.95312 262.72328"
   version="1.1"
   id="svg1"
   inkscape:version="1.3 (0e150ed6c4, 2023-07-21)"
   sodipodi:docname="Portfolio_workPreviewElement_GeometryFontType.svg"
   inkscape:export-filename="Portfolio_growthBanner.png"
   inkscape:export-xdpi="100"
   inkscape:export-ydpi="100"
   xmlns:inkscape="http://www.inkscape.org/namespaces/inkscape"
   xmlns:sodipodi="http://sodipodi.sourceforge.net/DTD/sodipodi-0.dtd"
   xmlns="http://www.w3.org/2000/svg"
   xmlns:svg="http://www.w3.org/2000/svg">
  <sodipodi:namedview
     id="namedview1"
     pagecolor="#505050"
     bordercolor="#000000"
     borderopacity="1"
     inkscape:showpageshadow="0"
     inkscape:pageopacity="0"
     inkscape:pagecheckerboard="0"
     inkscape:deskcolor="#4c4c4c"
     inkscape:document-units="px"
     borderlayer="false"
     showborder="false"
     inkscape:zoom="0.35355339"
     inkscape:cx="220.61731"
     inkscape:cy="731.14841"
     inkscape:window-width="1920"
     inkscape:window-height="1009"
     inkscape:window-x="-8"
     inkscape:window-y="-8"
     inkscape:window-maximized="1"
     inkscape:current-layer="layer1" />
  <defs
     id="defs1">
    <inkscape:path-effect
       effect="spiro"
       id="path-effect189"
       is_visible="true"
       lpeversion="1" />
    <inkscape:path-effect
       effect="spiro"
       id="path-effect6"
       is_visible="true"
       lpeversion="1" />
    <inkscape:path-effect
       effect="spiro"
       id="path-effect4"
       is_visible="true"
       lpeversion="1" />
    <inkscape:path-effect
       effect="spiro"
       id="path-effect3"
       is_visible="true"
       lpeversion="1" />
    <inkscape:path-effect
       effect="spiro"
       id="path-effect1"
       is_visible="true"
       lpeversion="1" />
    <filter
       inkscape:collect="always"
       style="color-interpolation-filters:sRGB"
       id="filter11"
       x="-0.03118274"
       y="-0.054629373"
       width="1.0623655"
       height="1.1092587">
      <feGaussianBlur
         inkscape:collect="always"
         stdDeviation="3.0707066"
         id="feGaussianBlur11" />
    </filter>
    <filter
       inkscape:collect="always"
       style="color-interpolation-filters:sRGB"
       id="filter12"
       x="-0.066601394"
       y="-0.035741434"
       width="1.1332028"
       height="1.0714829">
      <feGaussianBlur
         inkscape:collect="always"
         stdDeviation="2.7030337"
         id="feGaussianBlur12" />
    </filter>
    <filter
       inkscape:collect="always"
       style="color-interpolation-filters:sRGB"
       id="filter13"
       x="-0.036981678"
       y="-0.057042309"
       width="1.0739634"
       height="1.1140846">
      <feGaussianBlur
         inkscape:collect="always"
         stdDeviation="1.4046352"
         id="feGaussianBlur13" />
    </filter>
  </defs>
  <g
     inkscape:label="Слой 1"
     inkscape:groupmode="layer"
     id="layer1"
     transform="translate(-434.06027,-450.50693)">
    <rect
       style="fill:#ffffff;fill-opacity:1;stroke:none;stroke-width:1.37123;stroke-linecap:square;stroke-linejoin:bevel;stroke-miterlimit:4.7;stroke-opacity:0.301961"
       id="rect149"
       width="250.95312"
       height="262.7233"
       x="434.06027"
       y="450.50693" />
    <path
       style="fill:#faf5ff;fill-opacity:1;stroke:none;stroke-width:0.264583px;stroke-linecap:butt;stroke-linejoin:miter;stroke-opacity:1;filter:url(#filter13)"
       d="m 434.06027,450.50693 c -12.75941,15.89241 7.07952,51.2202 27.14592,54.7854 26.12415,4.64148 70.42017,-31.47447 57.74677,-54.7854 -7.03298,-12.93617 -28.21559,10.40427 -42.93991,10.36481 -14.40467,-0.0386 -32.93463,-21.59731 -41.95278,-10.36481 z"
       id="path11"
       sodipodi:nodetypes="aaaaa" />
    <path
       style="fill:#1eb6ca;stroke:none;stroke-width:0.264583px;stroke-linecap:butt;stroke-linejoin:miter;stroke-opacity:1;fill-opacity:1"
       d="m 484.35204,501.11441 v 1.5201 l 0.74836,0.20462 z"
       id="path22" />
    <path
       style="fill:#f6f9fe;fill-opacity:1;stroke:none;stroke-width:0.264583px;stroke-linecap:butt;stroke-linejoin:miter;stroke-opacity:1;filter:url(#filter11)"
       d="m 434.06027,713.23022 c -15.50748,-18.8073 -1.95168,-55.80828 17.01399,-71.12166 28.13662,-22.71825 93.66271,-35.43926 108.46257,-2.44301 10.72285,23.90658 -67.59155,35.36913 -53.58232,57.51062 24.86506,39.29904 90.50545,-61.18951 132.96944,-42.22914 16.19547,7.23135 31.16514,33.41038 21.8618,48.51116 -39.67817,64.40387 -178.60186,68.13582 -226.72548,9.77203 z"
       id="path5"
       sodipodi:nodetypes="aaaaaaa" />
    <text
       xml:space="preserve"
       style="font-style:normal;font-variant:normal;font-weight:normal;font-stretch:normal;font-size:7.05556px;line-height:1;font-family:'Britannic Bold';-inkscape-font-specification:'Britannic Bold, ';stroke-width:0.264583"
       x="189.31255"
       y="69.250237"
       id="text1"><tspan
         sodipodi:role="line"
         id="tspan1"
         style="font-style:normal;font-variant:normal;font-weight:normal;font-stretch:normal;font-family:'Britannic Bold';-inkscape-font-specification:'Britannic Bold, ';stroke-width:0.264583"
         x="189.31255"
         y="69.250237" /></text>
    <text
       xml:space="preserve"
       style="font-weight:bold;font-size:7.05556px;line-height:1;font-family:'Neutral Face';-inkscape-font-specification:'Neutral Face Bold';stroke-width:0.264583"
       x="197.70311"
       y="72.643478"
       id="text2"><tspan
         sodipodi:role="line"
         id="tspan2"
         style="stroke-width:0.264583"
         x="197.70311"
         y="72.643478" /></text>
    <path
       style="fill:#fcfef1;fill-opacity:1;stroke:none;stroke-width:0.264583px;stroke-linecap:butt;stroke-linejoin:miter;stroke-opacity:1;filter:url(#filter12)"
       d="m 683.48391,466.34421 c 16.32022,16.92039 21.59964,59.66099 0.75021,70.52148 -14.82297,7.7213 -28.48481,-40.49466 -40.77962,-29.17315 -12.10391,11.14572 34.18798,28.51437 25.31926,42.37357 -11.74195,18.34921 -55.03323,-26.31326 -64.98472,-6.93454 -18.58224,36.18553 45.66087,110.82263 81.22436,91.07597 51.66985,-28.68973 -86.44305,-123.65819 -49.92589,-170.12722 9.97866,-12.6981 37.1848,-9.36001 48.3964,2.26389 z"
       id="path13"
       sodipodi:nodetypes="aaaaaaaa" />
    <path
       style="fill:#f1fbfe;fill-opacity:1;stroke:none;stroke-width:0.264583px;stroke-linecap:butt;stroke-linejoin:miter;stroke-opacity:1;filter:url(#filter12)"
       d="m 551.56148,507.64669 c 16.32022,16.92039 21.59964,59.66099 0.75021,70.52148 -14.82297,7.7213 -28.48481,-40.49466 -40.77962,-29.17315 -12.10391,11.14572 34.18798,28.51437 25.31926,42.37357 -11.74195,18.34921 -55.03323,-26.31326 -64.98472,-6.93454 -18.58224,36.18553 45.66087,110.82263 81.22436,91.07597 51.66985,-28.68973 -86.44305,-123.65819 -49.92589,-170.12722 9.97866,-12.6981 37.1848,-9.36001 48.3964,2.26389 z"
       id="path4"
       sodipodi:nodetypes="aaaaaaaa"
       transform="matrix(0,-1,-1,0,1060.8414,1091.2052)" />
    <g
       id="text20"
       style="font-size:23.8929px;line-height:1;font-family:'Neutral Face';-inkscape-font-specification:'Neutral Face';fill:#1eb6ca;stroke-width:0.264585"
       aria-label="future&#10;development">
      <path
         style="font-weight:bold;-inkscape-font-specification:'Neutral Face Bold'"
         d="m 455.82421,496.87164 v -8.14748 h 7.19176 v -3.87065 h -7.19176 v -3.44057 h 9.31823 v -3.87065 h -13.59506 v 19.32935 z m 22.24431,-19.35325 v 11.89867 0 0.11946 c 0,3.05829 -2.24594,3.89455 -4.15737,3.89455 -1.88754,0 -4.15736,-0.83626 -4.15736,-3.87065 v -0.14336 0 -11.89867 h -3.77508 v 11.94645 c 0,4.25294 2.43708,7.7652 7.93244,7.7652 5.59094,0 7.95634,-3.51226 7.95634,-7.7652 v -11.94645 z m 4.89802,0.0239 v 3.87065 h 6.7378 v 15.4587 h 4.27683 v -15.4587 h 6.7378 v -3.87065 z m 31.72982,-0.0239 v 11.89867 0 0.11946 c 0,3.05829 -2.24594,3.89455 -4.15737,3.89455 -1.88754,0 -4.15736,-0.83626 -4.15736,-3.87065 v -0.14336 0 -11.89867 h -3.77508 v 11.94645 c 0,4.25294 2.43707,7.7652 7.93244,7.7652 5.59094,0 7.95634,-3.51226 7.95634,-7.7652 v -11.94645 z m 17.82408,11.97035 c 2.26983,-0.86015 3.72729,-3.24944 3.72729,-5.71041 0,-3.20165 -2.58043,-6.23604 -6.78558,-6.23604 h -8.93594 v 19.32935 h 4.27682 v -6.95283 c 0,0 0.47786,0 3.53615,0 l 3.82287,6.95283 h 4.92194 z m -7.71741,-3.32112 v -4.87415 h 4.99362 c 1.48136,0 2.6999,0.97961 2.6999,2.48486 0,1.48136 -1.21854,2.38929 -2.6999,2.38929 z m 13.49948,-8.62533 v 19.32935 h 13.8101 v -3.84675 h -9.62884 v -4.30073 l 8.02801,0.0239 v -3.84676 l -8.02801,-0.0478 v -3.44057 h 9.62884 v -3.87065 z"
         id="path23" />
      <path
         style="font-weight:bold;-inkscape-font-specification:'Neutral Face Bold'"
         d="m 458.95418,502.61999 h -7.4068 v 19.32936 h 7.4068 c 5.06529,0 9.19876,-4.32462 9.19876,-9.67663 0,-5.32812 -4.13347,-9.65273 -9.19876,-9.65273 z m -3.12997,3.82286 h 3.27332 c 2.60433,0 4.82637,2.67601 4.92194,5.66262 0,0.0717 0,0.11947 0,0.16725 0,0.16725 0,0.31061 -0.0239,0.45397 0,0.0478 0,0.0717 0,0.11946 0,0 0,0 0,0.0239 -0.26282,2.79547 -2.41319,5.25644 -4.89805,5.25644 h -3.27332 z m 13.78621,-3.82286 v 19.32936 h 13.8101 v -3.84676 h -9.62884 v -4.30072 l 8.02801,0.0239 V 509.979 l -8.02801,-0.0478 v -3.44058 h 9.62884 v -3.87065 z m 25.70875,19.32936 6.4033,-19.32936 h -4.0618 l -4.63522,13.95345 -4.61133,-13.95345 h -4.06179 l 6.3794,19.32936 z m 7.33512,-19.32936 v 19.32936 h 13.81009 v -3.84676 h -9.62884 v -4.30072 l 8.02802,0.0239 V 509.979 l -8.02802,-0.0478 v -3.44058 h 9.62884 v -3.87065 z m 20.30895,15.45871 v -15.45871 h -4.27683 v 19.32936 h 13.71453 v -3.87065 z m 18.80374,-15.86489 c -5.0414,0 -9.19876,3.60783 -9.19876,10.05891 0,6.59444 4.15736,10.03502 9.19876,10.03502 5.04141,0 9.22266,-3.41669 9.22266,-10.03502 0,-6.33162 -3.94232,-10.05891 -9.22266,-10.05891 z m 0,16.10381 c -2.86714,0 -5.0414,-1.88753 -5.0414,-6.0449 0,-4.13347 2.19815,-6.0449 5.0414,-6.0449 2.86715,0 5.04141,1.91143 5.04141,6.0449 0,4.15737 -2.15036,6.0449 -5.04141,6.0449 z m 10.77571,-15.69763 v 19.32936 h 4.27683 v -6.95284 c 0,0 -0.26282,0 3.82287,0 4.20515,0 6.76169,-2.93882 6.76169,-6.14047 0,-3.20165 -2.55654,-6.23605 -6.78559,-6.23605 z m 8.4103,8.62534 h -4.13347 v -4.87416 h 4.13347 c 1.50526,0 2.6999,0.97961 2.6999,2.48487 0,1.48136 -1.19464,2.38929 -2.6999,2.38929 z m 23.19999,-8.62534 -5.49536,15.21978 -5.51926,-15.21978 h -4.46797 v 19.32936 h 4.06179 v -11.08631 l 4.32461,11.08631 h 3.20165 l 4.32462,-11.06242 v 11.06242 h 4.06179 v -19.32936 z m 6.71393,0 v 19.32936 h 13.8101 v -3.84676 h -9.62884 v -4.30072 l 8.02801,0.0239 V 509.979 l -8.02801,-0.0478 v -3.44058 h 9.62884 v -3.87065 z m 29.45993,0 v 13.04552 l -9.48548,-13.04552 h -3.94233 v 19.32936 h 3.94233 l 0.11946,-13.1411 9.36602,13.1411 h 3.96622 v -19.32936 z m 5.25643,0 v 3.87065 h 6.73779 v 15.45871 h 4.27683 v -15.45871 h 6.7378 v -3.87065 z"
         id="path24" />
    </g>
    <path
       style="fill:#1eb6ca;fill-opacity:1;stroke:none;stroke-width:0.264583px;stroke-linecap:butt;stroke-linejoin:miter;stroke-opacity:1"
       d="m 501.72182,501.11753 v 1.5201 l -0.74836,0.20462 z"
       id="path22-6" />
    <g
       id="text6"
       style="font-size:23.8929px;line-height:1;font-family:'Neutral Face';-inkscape-font-specification:'Neutral Face';fill:#6ddbe9;stroke-width:0.264585"
       aria-label="future&#10;development">
      <path
         style="font-weight:bold;-inkscape-font-specification:'Neutral Face Bold'"
         d="m 455.82421,495.36707 v -8.14748 h 7.19176 v -3.87065 h -7.19176 v -3.44058 h 9.31823 v -3.87065 h -13.59506 v 19.32936 z m 22.24431,-19.35325 v 11.89866 0 0.11946 c 0,3.0583 -2.24594,3.89455 -4.15737,3.89455 -1.88754,0 -4.15736,-0.83625 -4.15736,-3.87065 v -0.14336 0 -11.89866 h -3.77508 v 11.94645 c 0,4.25293 2.43708,7.76519 7.93244,7.76519 5.59094,0 7.95634,-3.51226 7.95634,-7.76519 v -11.94645 z m 4.89802,0.0239 v 3.87065 h 6.7378 v 15.45871 h 4.27683 v -15.45871 h 6.7378 v -3.87065 z m 31.72982,-0.0239 v 11.89866 0 0.11946 c 0,3.0583 -2.24594,3.89455 -4.15737,3.89455 -1.88754,0 -4.15736,-0.83625 -4.15736,-3.87065 v -0.14336 0 -11.89866 h -3.77508 v 11.94645 c 0,4.25293 2.43707,7.76519 7.93244,7.76519 5.59094,0 7.95634,-3.51226 7.95634,-7.76519 v -11.94645 z m 17.82408,11.97034 c 2.26983,-0.86015 3.72729,-3.24944 3.72729,-5.7104 0,-3.20165 -2.58043,-6.23605 -6.78558,-6.23605 h -8.93594 v 19.32936 h 4.27682 v -6.95284 c 0,0 0.47786,0 3.53615,0 l 3.82287,6.95284 h 4.92194 z m -7.71741,-3.32111 v -4.87416 h 4.99362 c 1.48136,0 2.6999,0.97961 2.6999,2.48487 0,1.48136 -1.21854,2.38929 -2.6999,2.38929 z m 13.49948,-8.62534 v 19.32936 h 13.8101 v -3.84676 h -9.62884 v -4.30072 l 8.02801,0.0239 v -3.84676 l -8.02801,-0.0478 v -3.44058 h 9.62884 v -3.87065 z"
         id="path25" />
      <path
         style="font-weight:bold;-inkscape-font-specification:'Neutral Face Bold'"
         d="m 458.95418,501.11541 h -7.4068 v 19.32936 h 7.4068 c 5.06529,0 9.19876,-4.32462 9.19876,-9.67663 0,-5.32811 -4.13347,-9.65273 -9.19876,-9.65273 z m -3.12997,3.82287 h 3.27332 c 2.60433,0 4.82637,2.676 4.92194,5.66261 0,0.0717 0,0.11947 0,0.16725 0,0.16725 0,0.31061 -0.0239,0.45397 0,0.0478 0,0.0717 0,0.11946 0,0 0,0 0,0.0239 -0.26282,2.79547 -2.41319,5.25643 -4.89805,5.25643 h -3.27332 z m 13.78621,-3.82287 v 19.32936 h 13.8101 v -3.84676 h -9.62884 v -4.30072 l 8.02801,0.0239 v -3.84675 l -8.02801,-0.0478 v -3.44058 h 9.62884 v -3.87065 z m 25.70875,19.32936 6.4033,-19.32936 h -4.0618 l -4.63522,13.95346 -4.61133,-13.95346 h -4.06179 l 6.3794,19.32936 z m 7.33512,-19.32936 v 19.32936 h 13.81009 v -3.84676 h -9.62884 v -4.30072 l 8.02802,0.0239 v -3.84675 l -8.02802,-0.0478 v -3.44058 h 9.62884 v -3.87065 z m 20.30895,15.45871 v -15.45871 h -4.27683 v 19.32936 h 13.71453 v -3.87065 z m 18.80374,-15.86489 c -5.0414,0 -9.19876,3.60783 -9.19876,10.05891 0,6.59444 4.15736,10.03502 9.19876,10.03502 5.04141,0 9.22266,-3.41668 9.22266,-10.03502 0,-6.33162 -3.94232,-10.05891 -9.22266,-10.05891 z m 0,16.10382 c -2.86714,0 -5.0414,-1.88754 -5.0414,-6.04491 0,-4.13347 2.19815,-6.0449 5.0414,-6.0449 2.86715,0 5.04141,1.91143 5.04141,6.0449 0,4.15737 -2.15036,6.04491 -5.04141,6.04491 z m 10.77571,-15.69764 v 19.32936 h 4.27683 v -6.95284 c 0,0 -0.26282,0 3.82287,0 4.20515,0 6.76169,-2.93882 6.76169,-6.14047 0,-3.20165 -2.55654,-6.23605 -6.78559,-6.23605 z m 8.4103,8.62534 h -4.13347 v -4.87415 h 4.13347 c 1.50526,0 2.6999,0.97961 2.6999,2.48486 0,1.48136 -1.19464,2.38929 -2.6999,2.38929 z m 23.19999,-8.62534 -5.49536,15.21978 -5.51926,-15.21978 h -4.46797 v 19.32936 h 4.06179 v -11.08631 l 4.32461,11.08631 h 3.20165 l 4.32462,-11.06241 v 11.06241 h 4.06179 v -19.32936 z m 6.71393,0 v 19.32936 h 13.8101 v -3.84676 h -9.62884 v -4.30072 l 8.02801,0.0239 v -3.84675 l -8.02801,-0.0478 v -3.44058 h 9.62884 v -3.87065 z m 29.45993,0 v 13.04553 l -9.48548,-13.04553 h -3.94233 v 19.32936 h 3.94233 l 0.11946,-13.1411 9.36602,13.1411 h 3.96622 v -19.32936 z m 5.25643,0 v 3.87065 h 6.73779 v 15.45871 h 4.27683 v -15.45871 h 6.7378 v -3.87065 z"
         id="path26" />
    </g>
    <g
       id="text3"
       style="font-size:13.4565px;line-height:1;font-family:'Neutral Face';-inkscape-font-specification:'Neutral Face';fill:#ded4f7;stroke-width:0.264585"
       aria-label="Opportunity &#10;to&#10;bring dreams&#10;into reality">
      <path
         d="m 456.84066,545.28425 c -1.42639,0 -2.70476,0.49789 -3.6198,1.42639 -0.98233,1.02269 -1.50713,2.476 -1.50713,4.2388 0,3.44486 2.00502,5.66518 5.12693,5.66518 2.47599,0 5.12692,-1.49367 5.12692,-5.66518 0,-3.49869 -2.01847,-5.66519 -5.12692,-5.66519 z m 0,10.22694 c -1.97811,0 -4.0235,-1.19763 -4.0235,-4.56175 0,-3.26993 2.04539,-4.56176 4.0235,-4.56176 1.96465,0 4.01003,1.17072 4.01003,4.56176 0,2.92006 -1.49367,4.56175 -4.01003,4.56175 z m 10.64409,-10.01163 h -4.41373 v 10.89976 h 1.11689 v -4.52138 h 3.31029 c 2.32798,0 3.55252,-1.60133 3.55252,-3.16228 0,-1.56095 -1.25145,-3.2161 -3.56597,-3.2161 z m 0.2153,5.26149 h -3.51214 v -4.15806 h 3.51214 c 1.04961,0 2.26069,0.72665 2.26069,2.11267 0,1.37256 -1.19762,2.04539 -2.26069,2.04539 z m 8.66599,-5.26149 h -4.41374 v 10.89976 h 1.11689 v -4.52138 h 3.3103 c 2.32798,0 3.55252,-1.60133 3.55252,-3.16228 0,-1.56095 -1.25146,-3.2161 -3.56597,-3.2161 z m 0.2153,5.26149 h -3.51215 v -4.15806 h 3.51215 c 1.04961,0 2.26069,0.72665 2.26069,2.11267 0,1.37256 -1.19763,2.04539 -2.26069,2.04539 z m 9.0024,-5.4768 c -1.42639,0 -2.70476,0.49789 -3.6198,1.42639 -0.98233,1.02269 -1.50713,2.476 -1.50713,4.2388 0,3.44486 2.00502,5.66518 5.12693,5.66518 2.47599,0 5.12692,-1.49367 5.12692,-5.66518 0,-3.49869 -2.01847,-5.66519 -5.12692,-5.66519 z m 0,10.22694 c -1.97811,0 -4.0235,-1.19763 -4.0235,-4.56175 0,-3.26993 2.04539,-4.56176 4.0235,-4.56176 1.96465,0 4.01003,1.17072 4.01003,4.56176 0,2.92006 -1.49367,4.56175 -4.01003,4.56175 z m 11.86863,-3.87547 h -1.26491 l 2.62402,4.7636 h 1.29182 z m 2.42217,-3.06808 c 0,-2.28761 -2.19341,-3.06808 -3.56597,-3.06808 l -4.49447,0.0135 v 10.88631 h 1.11688 v -4.7636 h 0.83431 3.68708 c 0.80739,-0.12111 2.42217,-0.78048 2.42217,-3.06808 z m -3.35067,1.96465 h -3.59289 v -3.90239 h 3.59289 c 1.17072,0 2.24724,0.76702 2.24724,1.93774 0,1.38602 -0.75357,1.96465 -2.24724,1.96465 z m 14.26388,-3.96967 v -1.06306 h -10.21348 v 1.06306 h 4.54829 v 9.82324 h 1.10344 v -9.82324 z m 8.03354,5.79975 c 0,1.92428 -1.04961,3.13537 -3.17574,3.13537 -2.11267,0 -3.17573,-1.19763 -3.17573,-3.13537 v -6.87627 h -1.10343 v 6.67442 c 0,1.53404 0.5248,4.44065 4.27916,4.44065 3.76782,0 4.29263,-2.90661 4.29263,-4.44065 v -6.67442 h -1.11689 z m 10.18658,4.02349 h 1.43985 v -10.8863 h -1.10344 v 9.62139 l -6.60714,-9.62139 h -1.4533 v 10.8863 h 1.10343 v -9.62139 z m 4.01005,0 v -10.8863 h -1.10343 v 10.8863 z m 11.16889,-9.82324 v -1.06306 h -10.21348 v 1.06306 h 4.5483 v 9.82324 h 1.10343 v -9.82324 z m 7.26652,-1.06306 -2.90661,5.1942 -2.92006,-5.1942 h -1.26491 l 3.63326,6.48603 v 4.41373 h 1.10343 v -4.41373 l 3.63326,-6.48603 z"
         id="path27" />
      <path
         d="m 461.79265,560.01912 v -1.06306 h -10.21348 v 1.06306 h 4.54829 v 9.82324 h 1.10344 v -9.82324 z m 4.84435,-1.27837 c -1.42639,0 -2.70476,0.49789 -3.6198,1.42639 -0.98233,1.02269 -1.50713,2.476 -1.50713,4.2388 0,3.44486 2.00502,5.66518 5.12693,5.66518 2.47599,0 5.12692,-1.49367 5.12692,-5.66518 0,-3.49869 -2.01847,-5.66519 -5.12692,-5.66519 z m 0,10.22694 c -1.97811,0 -4.0235,-1.19763 -4.0235,-4.56175 0,-3.26993 2.04539,-4.56176 4.0235,-4.56176 1.96465,0 4.01003,1.17072 4.01003,4.56176 0,2.92006 -1.49367,4.56175 -4.01003,4.56175 z"
         id="path28" />
      <path
         d="m 457.91718,577.67405 c 1.0496,-0.36333 1.38602,-1.49367 1.38602,-2.19341 0,-1.58787 -1.19763,-3.06808 -3.095,-3.06808 h -4.11769 v 10.8863 h 4.26571 c 2.51637,0 3.60634,-1.1438 3.60634,-2.86623 0,-1.21109 -0.4306,-2.51637 -2.04538,-2.75858 z m -2.03193,-4.18497 c 1.54749,0 2.30106,0.78047 2.30106,1.87045 0,1.38602 -0.80739,1.84354 -2.31452,1.84354 -0.65937,0 -1.81663,0 -2.6913,0 v -3.71399 z m 0.67282,8.74672 h -3.37758 v -3.96967 h 3.35067 c 1.48021,0 2.34143,0.98233 2.34143,2.08576 0,1.35911 -0.94196,1.88391 -2.31452,1.88391 z m 10.2135,-3.68708 h -1.26492 l 2.62402,4.7636 h 1.29183 z m 2.42217,-3.06808 c 0,-2.28761 -2.19341,-3.06808 -3.56598,-3.06808 l -4.49447,0.0135 v 10.88631 h 1.11689 v -4.7636 h 0.8343 3.68709 c 0.80739,-0.12111 2.42217,-0.78048 2.42217,-3.06808 z m -3.35067,1.96465 h -3.59289 v -3.90239 h 3.59289 c 1.17071,0 2.24723,0.76702 2.24723,1.93774 0,1.38602 -0.75356,1.96465 -2.24723,1.96465 z m 5.66517,5.85357 v -10.8863 h -1.10343 v 10.8863 z m 9.19079,0 h 1.43985 v -10.8863 h -1.10344 v 9.62139 l -6.60714,-9.62139 h -1.4533 v 10.8863 h 1.10343 v -9.62139 z m 7.95281,-4.30608 h 3.32375 c 0,2.81241 -2.15304,3.41796 -3.6198,3.41796 -1.83008,0 -4.02349,-1.15726 -4.02349,-4.56176 0,-3.28338 2.04539,-4.56175 4.02349,-4.56175 1.42639,0 2.93352,0.68628 3.56598,2.40871 h 1.15725 c -0.76702,-2.42217 -2.52982,-3.51214 -4.72323,-3.51214 -1.42639,0 -2.70475,0.51134 -3.6198,1.43984 -0.98232,1.00924 -1.50712,2.476 -1.50712,4.22534 0,3.44487 2.00502,5.66519 5.12692,5.66519 1.48022,0 2.73167,-0.49789 3.6198,-1.41293 l 0.16148,1.19762 h 0.94195 v -5.36914 h -4.42718 z m 19.87524,-1.13034 c 0,-3.0008 -2.31451,-5.44988 -5.15384,-5.44988 h -3.96966 v 10.8863 h 3.96966 c 2.83933,0 5.15384,-2.43562 5.15384,-5.43642 z m -8.03353,-4.40028 h 2.73167 c 2.11267,0 4.11769,1.83009 4.18497,4.25226 v 0.0135 0.0135 0.0269 c 0,0.0269 0,0.0673 0,0.0942 0,0.12111 0,0.22876 0,0.32295 l -0.0134,0.0269 v 0.0135 c 0,0.0135 0,0.0135 0,0.0269 v 0.0134 0.0404 c -0.21531,2.30106 -2.17996,3.94276 -4.17152,3.94276 h -2.73167 z m 14.70795,5.08656 h -1.26492 l 2.62402,4.7636 h 1.29183 z m 2.42217,-3.06808 c 0,-2.28761 -2.19341,-3.06808 -3.56598,-3.06808 l -4.49447,0.0135 v 10.88631 h 1.11689 v -4.7636 h 0.8343 3.68709 c 0.80739,-0.12111 2.42217,-0.78048 2.42217,-3.06808 z m -3.35067,1.96465 h -3.59289 v -3.90239 h 3.59289 c 1.17071,0 2.24723,0.76702 2.24723,1.93774 0,1.38602 -0.75356,1.96465 -2.24723,1.96465 z m 5.65172,-3.96967 h 6.2169 v -1.06306 h -7.30688 v 10.8863 h 7.30688 v -1.0496 h -6.2169 v -4.27917 l 5.23458,0.0269 v -1.06306 h -5.23458 z m 14.04859,6.70134 1.11689,3.1219 h 1.18417 l -4.07732,-10.8863 h -1.22454 l -4.07732,10.8863 h 1.15726 l 1.11689,-3.1219 z m -2.39525,-6.74171 2.01847,5.67864 h -4.03695 z m 10.30766,9.86361 h 1.00924 l 3.76782,-9.62139 -0.0135,9.62139 h 1.11689 v -10.8863 h -1.77625 l -3.59289,9.32535 -3.6198,-9.32535 h -1.7628 v 10.8863 h 1.10343 v -9.62139 z m 8.30267,-8.195 c 0,-1.18418 1.03616,-1.80318 2.51637,-1.80318 1.50713,0 2.40871,0.90159 2.40871,2.09922 h 1.10344 c 0,-1.87045 -1.34565,-3.20265 -3.51215,-3.20265 -2.31452,0 -3.6198,1.26491 -3.6198,2.86624 0,4.4541 6.5264,2.04538 6.5264,5.11347 0,1.1438 -0.7401,2.24723 -2.74512,2.24723 -1.857,0 -2.94698,-1.21108 -2.94698,-2.35489 h -1.10343 c 0,1.58787 1.3322,3.45832 3.94276,3.45832 2.93351,0 3.94275,-1.80317 3.94275,-3.2161 0,-4.40027 -6.51295,-1.9781 -6.51295,-5.20766 z"
         id="path29" />
      <path
         d="m 453.19395,596.75536 v -10.8863 h -1.10344 v 10.8863 z m 9.19078,0 h 1.43985 v -10.8863 h -1.10343 v 9.62139 l -6.60714,-9.62139 h -1.45331 v 10.8863 h 1.10344 v -9.62139 z m 12.60876,-9.82324 v -1.06306 H 464.78 v 1.06306 h 4.5483 v 9.82324 h 1.10343 v -9.82324 z m 4.84435,-1.27837 c -1.42639,0 -2.70476,0.49789 -3.6198,1.42639 -0.98233,1.02269 -1.50713,2.476 -1.50713,4.2388 0,3.44486 2.00502,5.66518 5.12693,5.66518 2.47599,0 5.12692,-1.49367 5.12692,-5.66518 0,-3.49869 -2.01847,-5.66519 -5.12692,-5.66519 z m 0,10.22694 c -1.97811,0 -4.0235,-1.19763 -4.0235,-4.56175 0,-3.26993 2.04539,-4.56176 4.0235,-4.56176 1.96465,0 4.01003,1.17072 4.01003,4.56176 0,2.92006 -1.49367,4.56175 -4.01003,4.56175 z m 16.92826,-3.87547 h -1.26491 l 2.62402,4.7636 h 1.29183 z m 2.42217,-3.06808 c 0,-2.28761 -2.1934,-3.06808 -3.56597,-3.06808 l -4.49447,0.0135 v 10.88631 h 1.11689 v -4.7636 h 0.8343 3.68708 c 0.80739,-0.12111 2.42217,-0.78048 2.42217,-3.06808 z m -3.35066,1.96465 h -3.59289 v -3.90239 h 3.59289 c 1.17071,0 2.24723,0.76702 2.24723,1.93774 0,1.38602 -0.75356,1.96465 -2.24723,1.96465 z m 5.65172,-3.96967 h 6.2169 v -1.06306 h -7.30688 v 10.8863 h 7.30688 v -1.0496 h -6.2169 v -4.27917 l 5.23458,0.0269 v -1.06306 h -5.23458 z m 14.04859,6.70134 1.11689,3.1219 h 1.18417 l -4.07732,-10.8863 h -1.22454 l -4.07732,10.8863 h 1.15726 l 1.11689,-3.1219 z m -2.39526,-6.74171 2.01848,5.67864 h -4.03695 z m 6.5264,-1.02269 h -1.08998 v 10.8863 h 7.2396 v -1.0496 h -6.14962 z m 7.95279,10.8863 v -10.8863 h -1.10344 v 10.8863 z m 11.16889,-9.82324 v -1.06306 h -10.21348 v 1.06306 h 4.54829 v 9.82324 h 1.10344 v -9.82324 z m 7.26652,-1.06306 -2.90661,5.1942 -2.92006,-5.1942 h -1.26491 l 3.63326,6.48603 v 4.41373 h 1.10343 v -4.41373 l 3.63325,-6.48603 z"
         id="path30" />
    </g>
    <g
       id="text18"
       style="font-size:13.4565px;line-height:1;font-family:'Neutral Face';-inkscape-font-specification:'Neutral Face';fill:#ba7bec;stroke-width:0.264585"
       aria-label="Opportunity &#10;to&#10;bring dreams&#10;into reality">
      <path
         d="m 456.84066,544.21998 c -1.42639,0 -2.70476,0.49789 -3.6198,1.42639 -0.98233,1.02269 -1.50713,2.476 -1.50713,4.2388 0,3.44486 2.00502,5.66518 5.12693,5.66518 2.47599,0 5.12692,-1.49367 5.12692,-5.66518 0,-3.49869 -2.01847,-5.66519 -5.12692,-5.66519 z m 0,10.22694 c -1.97811,0 -4.0235,-1.19763 -4.0235,-4.56175 0,-3.26993 2.04539,-4.56176 4.0235,-4.56176 1.96465,0 4.01003,1.17072 4.01003,4.56176 0,2.92006 -1.49367,4.56175 -4.01003,4.56175 z m 10.64409,-10.01163 h -4.41373 v 10.89976 h 1.11689 v -4.52138 h 3.31029 c 2.32798,0 3.55252,-1.60133 3.55252,-3.16228 0,-1.56095 -1.25145,-3.2161 -3.56597,-3.2161 z m 0.2153,5.26149 h -3.51214 v -4.15806 h 3.51214 c 1.04961,0 2.26069,0.72665 2.26069,2.11267 0,1.37256 -1.19762,2.04539 -2.26069,2.04539 z m 8.66599,-5.26149 h -4.41374 v 10.89976 h 1.11689 v -4.52138 h 3.3103 c 2.32798,0 3.55252,-1.60133 3.55252,-3.16228 0,-1.56095 -1.25146,-3.2161 -3.56597,-3.2161 z m 0.2153,5.26149 h -3.51215 v -4.15806 h 3.51215 c 1.04961,0 2.26069,0.72665 2.26069,2.11267 0,1.37256 -1.19763,2.04539 -2.26069,2.04539 z m 9.0024,-5.4768 c -1.42639,0 -2.70476,0.49789 -3.6198,1.42639 -0.98233,1.02269 -1.50713,2.476 -1.50713,4.2388 0,3.44486 2.00502,5.66518 5.12693,5.66518 2.47599,0 5.12692,-1.49367 5.12692,-5.66518 0,-3.49869 -2.01847,-5.66519 -5.12692,-5.66519 z m 0,10.22694 c -1.97811,0 -4.0235,-1.19763 -4.0235,-4.56175 0,-3.26993 2.04539,-4.56176 4.0235,-4.56176 1.96465,0 4.01003,1.17072 4.01003,4.56176 0,2.92006 -1.49367,4.56175 -4.01003,4.56175 z m 11.86863,-3.87547 h -1.26491 l 2.62402,4.7636 h 1.29182 z m 2.42217,-3.06808 c 0,-2.28761 -2.19341,-3.06808 -3.56597,-3.06808 l -4.49447,0.0135 v 10.88631 h 1.11688 v -4.7636 h 0.83431 3.68708 c 0.80739,-0.12111 2.42217,-0.78048 2.42217,-3.06808 z m -3.35067,1.96465 h -3.59289 v -3.90239 h 3.59289 c 1.17072,0 2.24724,0.76702 2.24724,1.93774 0,1.38602 -0.75357,1.96465 -2.24724,1.96465 z m 14.26388,-3.96967 v -1.06306 h -10.21348 v 1.06306 h 4.54829 v 9.82324 h 1.10344 v -9.82324 z m 8.03354,5.79975 c 0,1.92428 -1.04961,3.13537 -3.17574,3.13537 -2.11267,0 -3.17573,-1.19763 -3.17573,-3.13537 v -6.87627 h -1.10343 v 6.67442 c 0,1.53404 0.5248,4.44065 4.27916,4.44065 3.76782,0 4.29263,-2.90661 4.29263,-4.44065 v -6.67442 h -1.11689 z m 10.18658,4.02349 h 1.43985 v -10.8863 h -1.10344 v 9.62139 l -6.60714,-9.62139 h -1.4533 v 10.8863 h 1.10343 v -9.62139 z m 4.01005,0 v -10.8863 h -1.10343 v 10.8863 z m 11.16889,-9.82324 v -1.06306 h -10.21348 v 1.06306 h 4.5483 v 9.82324 h 1.10343 v -9.82324 z m 7.26652,-1.06306 -2.90661,5.1942 -2.92006,-5.1942 h -1.26491 l 3.63326,6.48603 v 4.41373 h 1.10343 v -4.41373 l 3.63326,-6.48603 z"
         id="path31" />
      <path
         d="m 461.79265,558.95485 v -1.06306 h -10.21348 v 1.06306 h 4.54829 v 9.82324 h 1.10344 v -9.82324 z m 4.84435,-1.27837 c -1.42639,0 -2.70476,0.49789 -3.6198,1.42639 -0.98233,1.02269 -1.50713,2.476 -1.50713,4.2388 0,3.44486 2.00502,5.66518 5.12693,5.66518 2.47599,0 5.12692,-1.49367 5.12692,-5.66518 0,-3.49869 -2.01847,-5.66519 -5.12692,-5.66519 z m 0,10.22694 c -1.97811,0 -4.0235,-1.19763 -4.0235,-4.56175 0,-3.26993 2.04539,-4.56176 4.0235,-4.56176 1.96465,0 4.01003,1.17072 4.01003,4.56176 0,2.92006 -1.49367,4.56175 -4.01003,4.56175 z"
         id="path32" />
      <path
         d="m 457.91718,576.60978 c 1.0496,-0.36333 1.38602,-1.49367 1.38602,-2.19341 0,-1.58787 -1.19763,-3.06808 -3.095,-3.06808 h -4.11769 v 10.8863 h 4.26571 c 2.51637,0 3.60634,-1.1438 3.60634,-2.86623 0,-1.21109 -0.4306,-2.51637 -2.04538,-2.75858 z m -2.03193,-4.18497 c 1.54749,0 2.30106,0.78047 2.30106,1.87045 0,1.38602 -0.80739,1.84354 -2.31452,1.84354 -0.65937,0 -1.81663,0 -2.6913,0 v -3.71399 z m 0.67282,8.74672 h -3.37758 v -3.96967 h 3.35067 c 1.48021,0 2.34143,0.98233 2.34143,2.08576 0,1.35911 -0.94196,1.88391 -2.31452,1.88391 z m 10.2135,-3.68708 h -1.26492 l 2.62402,4.7636 h 1.29183 z m 2.42217,-3.06808 c 0,-2.28761 -2.19341,-3.06808 -3.56598,-3.06808 l -4.49447,0.0135 v 10.88631 h 1.11689 v -4.7636 h 0.8343 3.68709 c 0.80739,-0.12111 2.42217,-0.78048 2.42217,-3.06808 z m -3.35067,1.96465 h -3.59289 v -3.90239 h 3.59289 c 1.17071,0 2.24723,0.76702 2.24723,1.93774 0,1.38602 -0.75356,1.96465 -2.24723,1.96465 z m 5.66517,5.85357 v -10.8863 h -1.10343 v 10.8863 z m 9.19079,0 h 1.43985 v -10.8863 h -1.10344 v 9.62139 l -6.60714,-9.62139 h -1.4533 v 10.8863 h 1.10343 v -9.62139 z m 7.95281,-4.30608 h 3.32375 c 0,2.81241 -2.15304,3.41796 -3.6198,3.41796 -1.83008,0 -4.02349,-1.15726 -4.02349,-4.56176 0,-3.28338 2.04539,-4.56175 4.02349,-4.56175 1.42639,0 2.93352,0.68628 3.56598,2.40871 h 1.15725 c -0.76702,-2.42217 -2.52982,-3.51214 -4.72323,-3.51214 -1.42639,0 -2.70475,0.51134 -3.6198,1.43984 -0.98232,1.00924 -1.50712,2.476 -1.50712,4.22534 0,3.44487 2.00502,5.66519 5.12692,5.66519 1.48022,0 2.73167,-0.49789 3.6198,-1.41293 l 0.16148,1.19762 h 0.94195 v -5.36914 h -4.42718 z m 19.87524,-1.13034 c 0,-3.0008 -2.31451,-5.44988 -5.15384,-5.44988 h -3.96966 v 10.8863 h 3.96966 c 2.83933,0 5.15384,-2.43562 5.15384,-5.43642 z m -8.03353,-4.40028 h 2.73167 c 2.11267,0 4.11769,1.83009 4.18497,4.25226 v 0.0134 0.0135 0.0269 c 0,0.0269 0,0.0673 0,0.0942 0,0.12111 0,0.22876 0,0.32295 l -0.0134,0.0269 v 0.0134 c 0,0.0135 0,0.0135 0,0.0269 v 0.0135 0.0404 c -0.21531,2.30106 -2.17996,3.94276 -4.17152,3.94276 h -2.73167 z m 14.70795,5.08656 h -1.26492 l 2.62402,4.7636 h 1.29183 z m 2.42217,-3.06808 c 0,-2.28761 -2.19341,-3.06808 -3.56598,-3.06808 l -4.49447,0.0135 v 10.88631 h 1.11689 v -4.7636 h 0.8343 3.68709 c 0.80739,-0.12111 2.42217,-0.78048 2.42217,-3.06808 z m -3.35067,1.96465 h -3.59289 v -3.90239 h 3.59289 c 1.17071,0 2.24723,0.76702 2.24723,1.93774 0,1.38602 -0.75356,1.96465 -2.24723,1.96465 z m 5.65172,-3.96967 h 6.2169 v -1.06306 h -7.30688 v 10.8863 h 7.30688 v -1.0496 h -6.2169 v -4.27917 l 5.23458,0.0269 v -1.06306 h -5.23458 z m 14.04859,6.70134 1.11689,3.1219 h 1.18417 l -4.07732,-10.8863 h -1.22454 l -4.07732,10.8863 h 1.15726 l 1.11689,-3.1219 z m -2.39525,-6.74171 2.01847,5.67864 h -4.03695 z m 10.30766,9.86361 h 1.00924 l 3.76782,-9.62139 -0.0135,9.62139 h 1.11689 v -10.8863 h -1.77625 l -3.59289,9.32535 -3.6198,-9.32535 h -1.7628 v 10.8863 h 1.10343 v -9.62139 z m 8.30267,-8.195 c 0,-1.18418 1.03616,-1.80318 2.51637,-1.80318 1.50713,0 2.40871,0.90159 2.40871,2.09922 h 1.10344 c 0,-1.87045 -1.34565,-3.20265 -3.51215,-3.20265 -2.31452,0 -3.6198,1.26491 -3.6198,2.86624 0,4.4541 6.5264,2.04538 6.5264,5.11347 0,1.1438 -0.7401,2.24723 -2.74512,2.24723 -1.857,0 -2.94698,-1.21108 -2.94698,-2.35489 h -1.10343 c 0,1.58787 1.3322,3.45832 3.94276,3.45832 2.93351,0 3.94275,-1.80317 3.94275,-3.2161 0,-4.40027 -6.51295,-1.9781 -6.51295,-5.20766 z"
         id="path33" />
      <path
         d="m 453.19395,595.69109 v -10.8863 h -1.10344 v 10.8863 z m 9.19078,0 h 1.43985 v -10.8863 h -1.10343 v 9.62139 l -6.60714,-9.62139 h -1.45331 v 10.8863 h 1.10344 v -9.62139 z m 12.60876,-9.82324 v -1.06306 H 464.78 v 1.06306 h 4.5483 v 9.82324 h 1.10343 v -9.82324 z m 4.84435,-1.27837 c -1.42639,0 -2.70476,0.49789 -3.6198,1.42639 -0.98233,1.02269 -1.50713,2.476 -1.50713,4.2388 0,3.44486 2.00502,5.66518 5.12693,5.66518 2.47599,0 5.12692,-1.49367 5.12692,-5.66518 0,-3.49869 -2.01847,-5.66519 -5.12692,-5.66519 z m 0,10.22694 c -1.97811,0 -4.0235,-1.19763 -4.0235,-4.56175 0,-3.26993 2.04539,-4.56176 4.0235,-4.56176 1.96465,0 4.01003,1.17072 4.01003,4.56176 0,2.92006 -1.49367,4.56175 -4.01003,4.56175 z m 16.92826,-3.87547 h -1.26491 l 2.62402,4.7636 h 1.29183 z m 2.42217,-3.06808 c 0,-2.28761 -2.1934,-3.06808 -3.56597,-3.06808 l -4.49447,0.0134 v 10.88631 h 1.11689 v -4.7636 h 0.8343 3.68708 c 0.80739,-0.12111 2.42217,-0.78048 2.42217,-3.06808 z m -3.35066,1.96465 h -3.59289 v -3.90239 h 3.59289 c 1.17071,0 2.24723,0.76702 2.24723,1.93774 0,1.38602 -0.75356,1.96465 -2.24723,1.96465 z m 5.65172,-3.96967 h 6.2169 v -1.06306 h -7.30688 v 10.8863 h 7.30688 v -1.0496 h -6.2169 v -4.27917 l 5.23458,0.0269 v -1.06306 h -5.23458 z m 14.04859,6.70134 1.11689,3.1219 h 1.18417 l -4.07732,-10.8863 h -1.22454 l -4.07732,10.8863 h 1.15726 l 1.11689,-3.1219 z m -2.39526,-6.74171 2.01848,5.67864 h -4.03695 z m 6.5264,-1.02269 h -1.08998 v 10.8863 h 7.2396 v -1.0496 h -6.14962 z m 7.95279,10.8863 v -10.8863 h -1.10344 v 10.8863 z m 11.16889,-9.82324 v -1.06306 h -10.21348 v 1.06306 h 4.54829 v 9.82324 h 1.10344 v -9.82324 z m 7.26652,-1.06306 -2.90661,5.1942 -2.92006,-5.1942 h -1.26491 l 3.63326,6.48603 v 4.41373 h 1.10343 v -4.41373 l 3.63325,-6.48603 z"
         id="path34" />
    </g>
    <path
       style="font-weight:bold;font-size:9.01562px;line-height:1;font-family:'Neutral Face';-inkscape-font-specification:'Neutral Face Bold';fill:#60d0f1;stroke-width:0.264582"
       d="m 451.54738,671.97913 v 7.29364 h 5.21103 v -1.45152 h -3.6333 v -1.62281 l 3.02925,0.009 v -1.45152 l -3.02925,-0.018 v -1.29825 h 3.6333 v -1.46053 z m 11.11625,0 v 4.92253 l -3.5792,-4.92253 h -1.48757 v 7.29364 h 1.48757 l 0.0451,-4.9586 3.53412,4.9586 h 1.4966 v -7.29364 z m 5.12988,0 h -2.79484 v 7.29364 h 2.79484 c 1.91132,0 3.47102,-1.63183 3.47102,-3.65133 0,-2.01048 -1.5597,-3.64231 -3.47102,-3.64231 z m -1.18104,1.4425 h 1.23514 c 0.9827,0 1.82115,1.00975 1.85722,2.1367 0,0.0271 0,0.0451 0,0.0631 0,0.0631 0,0.1172 -0.009,0.1713 0,0.018 0,0.027 0,0.0451 0,0 0,0 0,0.009 -0.0992,1.05483 -0.91058,1.98344 -1.8482,1.98344 h -1.23514 z m 6.81581,4.39061 v -5.83311 h -1.61379 v 7.29364 h 5.17496 v -1.46053 z m 3.94885,-5.83311 v 7.29364 h 5.21103 v -1.45152 h -3.6333 v -1.62281 l 3.02925,0.009 v -1.45152 l -3.02925,-0.018 v -1.29825 h 3.6333 v -1.46053 z m 9.21396,2.93008 c -0.8655,-0.18933 -1.60478,-0.36063 -1.60478,-0.87452 0,-0.52291 0.68518,-0.7483 1.154,-0.7483 0.6942,0 1.41545,0.33358 1.41545,0.88354 v 0.14424 h 1.59576 v -0.14424 c 0,-1.37038 -1.17203,-2.33505 -2.84893,-2.33505 -1.82116,0 -3.0022,0.91959 -3.0022,2.33505 0,1.36135 1.43348,1.70395 2.57846,1.97442 0.90157,0.21637 1.67691,0.39668 1.67691,0.93762 0,0.65814 -0.64913,0.84747 -1.28923,0.84747 -0.67618,0 -1.35235,-0.21638 -1.35235,-0.84747 v -0.14425 h -1.731 v 0.14425 c 0,1.30727 1.09089,2.32603 2.83992,2.32603 2.10064,0 3.19153,-1.00975 3.19153,-2.45225 0,-1.46053 -1.45151,-1.78509 -2.62354,-2.04654 z m 6.41011,0 c -0.8655,-0.18933 -1.60478,-0.36063 -1.60478,-0.87452 0,-0.52291 0.68519,-0.7483 1.154,-0.7483 0.6942,0 1.41545,0.33358 1.41545,0.88354 v 0.14424 h 1.59576 v -0.14424 c 0,-1.37038 -1.17203,-2.33505 -2.84893,-2.33505 -1.82116,0 -3.0022,0.91959 -3.0022,2.33505 0,1.36135 1.43348,1.70395 2.57846,1.97442 0.90157,0.21637 1.67691,0.39668 1.67691,0.93762 0,0.65814 -0.64912,0.84747 -1.28923,0.84747 -0.67618,0 -1.35235,-0.21638 -1.35235,-0.84747 v -0.14425 h -1.731 v 0.14425 c 0,1.30727 1.09089,2.32603 2.83992,2.32603 2.10064,0 3.19153,-1.00975 3.19153,-2.45225 0,-1.46053 -1.45151,-1.78509 -2.62354,-2.04654 z m 6.347,-2.93008 v 7.29364 h 1.61379 v -2.62355 c 0,0 -0.0992,0 1.4425,0 1.58675,0 2.55142,-1.10892 2.55142,-2.31701 0,-1.2081 -0.96467,-2.35308 -2.56043,-2.35308 z m 3.1735,3.25464 h -1.55971 v -1.83919 h 1.55971 c 0.56798,0 1.01876,0.36964 1.01876,0.93763 0,0.55896 -0.45078,0.90156 -1.01876,0.90156 z m 6.81579,4.039 h 1.54167 l -2.52437,-7.29364 h -1.69494 l -2.67764,7.29364 h 1.53266 l 0.56798,-1.50561 h 2.68666 z m -2.74976,-2.84894 0.83845,-2.21784 0.83845,2.21784 z m 3.20054,-4.4447 v 1.46053 h 2.54241 v 5.83311 h 1.61379 v -5.83311 h 2.54241 v -1.46053 z m 8.80827,0 h -1.6138 v 7.29364 h 1.6138 v -3.07433 h 3.07432 v 3.07433 h 1.62282 v -7.29364 h -1.62282 v 2.75878 h -3.07432 z m 8.28535,0 v 1.46053 h 2.5424 v 5.83311 h 1.6138 v -5.83311 h 2.5424 v -1.46053 z m 10.34994,-0.15327 c -1.9023,0 -3.47102,1.36136 -3.47102,3.79558 0,2.48831 1.56872,3.78656 3.47102,3.78656 1.90229,0 3.48003,-1.28923 3.48003,-3.78656 0,-2.38914 -1.48758,-3.79558 -3.48003,-3.79558 z m 0,6.07653 c -1.08188,0 -1.9023,-0.71223 -1.9023,-2.28095 0,-1.5597 0.82944,-2.28095 1.9023,-2.28095 1.08187,0 1.90229,0.72125 1.90229,2.28095 0,1.56872 -0.8114,2.28095 -1.90229,2.28095 z m 7.16742,-5.92326 v 7.29364 h 1.61379 v -2.62355 c 0,0 -0.0992,0 1.4425,0 1.58675,0 2.55142,-1.10892 2.55142,-2.31701 0,-1.2081 -0.96467,-2.35308 -2.56043,-2.35308 z m 3.17349,3.25464 h -1.5597 v -1.83919 h 1.5597 c 0.56799,0 1.01877,0.36964 1.01877,0.93763 0,0.55896 -0.45078,0.90156 -1.01877,0.90156 z m 2.91205,-3.25464 v 7.29364 h 5.21103 v -1.45152 h -3.6333 v -1.62281 l 3.02925,0.009 v -1.45152 l -3.02925,-0.018 v -1.29825 h 3.6333 v -1.46053 z m 10.57531,4.50781 c 0.85649,-0.32456 1.40644,-1.22612 1.40644,-2.15473 0,-1.2081 -0.97369,-2.35308 -2.56043,-2.35308 h -3.37185 v 7.29364 h 1.6138 v -2.62355 c 0,0 0.18031,0 1.33431,0 l 1.4425,2.62355 h 1.85722 z m -2.91204,-1.25317 v -1.83919 h 1.88426 c 0.55897,0 1.01877,0.36964 1.01877,0.93763 0,0.55896 -0.4598,0.90156 -1.01877,0.90156 z m 6.70762,4.039 v -3.07433 h 2.7137 v -1.46053 h -2.7137 v -1.29825 h 3.51609 v -1.46053 h -5.12989 v 7.29364 z m 3.91278,-7.29364 v 7.29364 h 5.21103 v -1.45152 h -3.63329 v -1.62281 l 3.02924,0.009 v -1.45152 l -3.02924,-0.018 v -1.29825 h 3.63329 v -1.46053 z m 7.66328,7.29364 v -3.07433 h 2.7137 v -1.46053 h -2.7137 v -1.29825 h 3.51609 v -1.46053 h -5.12989 v 7.29364 z m 8.86235,-2.9391 c -0.1172,1.06385 -0.87452,1.56872 -1.78509,1.56872 -1.08188,0 -1.9023,-0.71223 -1.9023,-2.28095 0,-1.5597 0.82944,-2.28095 1.9023,-2.28095 0.83845,0 1.52364,0.44176 1.71296,1.35234 h 1.68593 c -0.3426,-1.81214 -1.67691,-2.86697 -3.39889,-2.86697 -1.9023,0 -3.47102,1.36136 -3.47102,3.79558 0,2.48831 1.56872,3.78656 3.47102,3.78656 1.71296,0 3.15546,-1.0368 3.43495,-3.07433 z m 1.83018,-4.35454 v 1.46053 h 2.5424 v 5.83311 h 1.6138 v -5.83311 h 2.5424 v -1.46053 z m 8.79023,0 h -1.49659 v 7.29364 h 1.49659 z m 4.05704,-0.15327 c -1.9023,0 -3.47102,1.36136 -3.47102,3.79558 0,2.48831 1.56872,3.78656 3.47102,3.78656 1.90229,0 3.48003,-1.28923 3.48003,-3.78656 0,-2.38914 -1.48758,-3.79558 -3.48003,-3.79558 z m 0,6.07653 c -1.08188,0 -1.9023,-0.71223 -1.9023,-2.28095 0,-1.5597 0.82944,-2.28095 1.9023,-2.28095 1.08187,0 1.90229,0.72125 1.90229,2.28095 0,1.56872 -0.8114,2.28095 -1.90229,2.28095 z m 9.13284,-5.92326 v 4.92253 l -3.57921,-4.92253 h -1.48757 v 7.29364 h 1.48757 l 0.0451,-4.9586 3.53413,4.9586 h 1.49659 v -7.29364 z"
       id="text13"
       aria-label="Endless path to perfefction" />
    <path
       style="font-weight:bold;font-size:9.01562px;line-height:1;font-family:'Neutral Face';-inkscape-font-specification:'Neutral Face Bold';fill:#a4e4f7;stroke-width:0.264582;fill-opacity:1"
       d="m 451.54738,671.14496 v 7.29364 h 5.21103 v -1.45152 h -3.6333 v -1.62281 l 3.02925,0.009 v -1.45152 l -3.02925,-0.018 v -1.29825 h 3.6333 v -1.46053 z m 11.11625,0 v 4.92253 l -3.5792,-4.92253 h -1.48757 v 7.29364 h 1.48757 l 0.0451,-4.95859 3.53412,4.95859 h 1.4966 v -7.29364 z m 5.12988,0 h -2.79484 v 7.29364 h 2.79484 c 1.91132,0 3.47102,-1.63183 3.47102,-3.65133 0,-2.01048 -1.5597,-3.64231 -3.47102,-3.64231 z m -1.18104,1.4425 h 1.23514 c 0.9827,0 1.82115,1.00975 1.85722,2.1367 0,0.0271 0,0.0451 0,0.0631 0,0.0631 0,0.11721 -0.009,0.1713 0,0.018 0,0.0271 0,0.0451 0,0 0,0 0,0.009 -0.0992,1.05483 -0.91058,1.98344 -1.8482,1.98344 h -1.23514 z m 6.81581,4.39061 v -5.83311 h -1.61379 v 7.29364 h 5.17496 v -1.46053 z m 3.94885,-5.83311 v 7.29364 h 5.21103 v -1.45152 h -3.6333 v -1.62281 l 3.02925,0.009 v -1.45152 l -3.02925,-0.018 v -1.29825 h 3.6333 v -1.46053 z m 9.21396,2.93008 c -0.8655,-0.18933 -1.60478,-0.36063 -1.60478,-0.87452 0,-0.5229 0.68518,-0.74829 1.154,-0.74829 0.6942,0 1.41545,0.33357 1.41545,0.88353 v 0.14425 h 1.59576 v -0.14425 c 0,-1.37038 -1.17203,-2.33505 -2.84893,-2.33505 -1.82116,0 -3.0022,0.9196 -3.0022,2.33505 0,1.36136 1.43348,1.70395 2.57846,1.97442 0.90157,0.21637 1.67691,0.39669 1.67691,0.93762 0,0.65814 -0.64913,0.84747 -1.28923,0.84747 -0.67618,0 -1.35235,-0.21637 -1.35235,-0.84747 v -0.14425 h -1.731 v 0.14425 c 0,1.30727 1.09089,2.32603 2.83992,2.32603 2.10064,0 3.19153,-1.00975 3.19153,-2.45225 0,-1.46053 -1.45151,-1.78509 -2.62354,-2.04654 z m 6.41011,0 c -0.8655,-0.18933 -1.60478,-0.36063 -1.60478,-0.87452 0,-0.5229 0.68519,-0.74829 1.154,-0.74829 0.6942,0 1.41545,0.33357 1.41545,0.88353 v 0.14425 h 1.59576 v -0.14425 c 0,-1.37038 -1.17203,-2.33505 -2.84893,-2.33505 -1.82116,0 -3.0022,0.9196 -3.0022,2.33505 0,1.36136 1.43348,1.70395 2.57846,1.97442 0.90157,0.21637 1.67691,0.39669 1.67691,0.93762 0,0.65814 -0.64912,0.84747 -1.28923,0.84747 -0.67618,0 -1.35235,-0.21637 -1.35235,-0.84747 v -0.14425 h -1.731 v 0.14425 c 0,1.30727 1.09089,2.32603 2.83992,2.32603 2.10064,0 3.19153,-1.00975 3.19153,-2.45225 0,-1.46053 -1.45151,-1.78509 -2.62354,-2.04654 z m 6.347,-2.93008 v 7.29364 h 1.61379 v -2.62355 c 0,0 -0.0992,0 1.4425,0 1.58675,0 2.55142,-1.10892 2.55142,-2.31701 0,-1.20809 -0.96467,-2.35308 -2.56043,-2.35308 z m 3.1735,3.25464 h -1.55971 v -1.83919 h 1.55971 c 0.56798,0 1.01876,0.36964 1.01876,0.93763 0,0.55897 -0.45078,0.90156 -1.01876,0.90156 z m 6.81579,4.039 h 1.54167 l -2.52437,-7.29364 h -1.69494 l -2.67764,7.29364 h 1.53266 l 0.56798,-1.50561 h 2.68666 z m -2.74976,-2.84894 0.83845,-2.21784 0.83845,2.21784 z m 3.20054,-4.4447 v 1.46053 h 2.54241 v 5.83311 h 1.61379 v -5.83311 h 2.54241 v -1.46053 z m 8.80827,0 h -1.6138 v 7.29364 h 1.6138 v -3.07433 h 3.07432 v 3.07433 h 1.62282 v -7.29364 h -1.62282 v 2.75878 h -3.07432 z m 8.28535,0 v 1.46053 h 2.5424 v 5.83311 h 1.6138 v -5.83311 h 2.5424 v -1.46053 z m 10.34994,-0.15326 c -1.9023,0 -3.47102,1.36135 -3.47102,3.79557 0,2.48831 1.56872,3.78656 3.47102,3.78656 1.90229,0 3.48003,-1.28923 3.48003,-3.78656 0,-2.38914 -1.48758,-3.79557 -3.48003,-3.79557 z m 0,6.07652 c -1.08188,0 -1.9023,-0.71223 -1.9023,-2.28095 0,-1.5597 0.82944,-2.28095 1.9023,-2.28095 1.08187,0 1.90229,0.72125 1.90229,2.28095 0,1.56872 -0.8114,2.28095 -1.90229,2.28095 z m 7.16742,-5.92326 v 7.29364 h 1.61379 v -2.62355 c 0,0 -0.0992,0 1.4425,0 1.58675,0 2.55142,-1.10892 2.55142,-2.31701 0,-1.20809 -0.96467,-2.35308 -2.56043,-2.35308 z m 3.17349,3.25464 h -1.5597 v -1.83919 h 1.5597 c 0.56799,0 1.01877,0.36964 1.01877,0.93763 0,0.55897 -0.45078,0.90156 -1.01877,0.90156 z m 2.91205,-3.25464 v 7.29364 h 5.21103 v -1.45152 h -3.6333 v -1.62281 l 3.02925,0.009 v -1.45152 l -3.02925,-0.018 v -1.29825 h 3.6333 v -1.46053 z m 10.57531,4.50781 c 0.85649,-0.32456 1.40644,-1.22612 1.40644,-2.15473 0,-1.20809 -0.97369,-2.35308 -2.56043,-2.35308 h -3.37185 v 7.29364 h 1.6138 v -2.62355 c 0,0 0.18031,0 1.33431,0 l 1.4425,2.62355 h 1.85722 z m -2.91204,-1.25317 v -1.83919 h 1.88426 c 0.55897,0 1.01877,0.36964 1.01877,0.93763 0,0.55897 -0.4598,0.90156 -1.01877,0.90156 z m 6.70762,4.039 v -3.07433 h 2.7137 v -1.46053 h -2.7137 v -1.29825 h 3.51609 v -1.46053 h -5.12989 v 7.29364 z m 3.91278,-7.29364 v 7.29364 h 5.21103 v -1.45152 h -3.63329 v -1.62281 l 3.02924,0.009 v -1.45152 l -3.02924,-0.018 v -1.29825 h 3.63329 v -1.46053 z m 7.66328,7.29364 v -3.07433 h 2.7137 v -1.46053 h -2.7137 v -1.29825 h 3.51609 v -1.46053 h -5.12989 v 7.29364 z m 8.86235,-2.93909 c -0.1172,1.06384 -0.87452,1.56871 -1.78509,1.56871 -1.08188,0 -1.9023,-0.71223 -1.9023,-2.28095 0,-1.5597 0.82944,-2.28095 1.9023,-2.28095 0.83845,0 1.52364,0.44177 1.71296,1.35234 h 1.68593 c -0.3426,-1.81214 -1.67691,-2.86696 -3.39889,-2.86696 -1.9023,0 -3.47102,1.36135 -3.47102,3.79557 0,2.48831 1.56872,3.78656 3.47102,3.78656 1.71296,0 3.15546,-1.03679 3.43495,-3.07432 z m 1.83018,-4.35455 v 1.46053 h 2.5424 v 5.83311 h 1.6138 v -5.83311 h 2.5424 v -1.46053 z m 8.79023,0 h -1.49659 v 7.29364 h 1.49659 z m 4.05704,-0.15326 c -1.9023,0 -3.47102,1.36135 -3.47102,3.79557 0,2.48831 1.56872,3.78656 3.47102,3.78656 1.90229,0 3.48003,-1.28923 3.48003,-3.78656 0,-2.38914 -1.48758,-3.79557 -3.48003,-3.79557 z m 0,6.07652 c -1.08188,0 -1.9023,-0.71223 -1.9023,-2.28095 0,-1.5597 0.82944,-2.28095 1.9023,-2.28095 1.08187,0 1.90229,0.72125 1.90229,2.28095 0,1.56872 -0.8114,2.28095 -1.90229,2.28095 z m 9.13284,-5.92326 v 4.92253 l -3.57921,-4.92253 h -1.48757 v 7.29364 h 1.48757 l 0.0451,-4.95859 3.53413,4.95859 h 1.49659 v -7.29364 z"
       id="text21"
       aria-label="Endless path to perfefction" />
    <path
       style="fill:none;stroke:#e5dcf9;stroke-width:7.9375;stroke-linecap:round;stroke-linejoin:bevel;stroke-dasharray:none;stroke-opacity:1"
       d="m 434.06027,664.66206 c 0,0 19.81425,-39.08912 34.90897,-33.44593 7.67571,2.86958 -5.44922,21.65001 2.24066,24.48138 7.10653,2.61658 8.89024,-17.67379 16.24755,-15.87956 5.41472,1.32049 0.009,13.94364 5.23501,15.87956 5.64892,2.09243 9.54317,-10.39192 15.47386,-9.33578 3.92577,0.6991 3.49324,9.24692 7.47979,9.33578 19.26042,0.42932 19.43262,-48.16658 38.11139,-43.44944 12.93356,3.26624 -4.2834,37.25367 8.94043,39.00738 37.94376,5.03199 16.13721,-107.3708 53.93991,-101.37028 26.54006,4.21276 -12.85323,77.76921 13.96974,79.39741 62.17585,3.77419 54.4058,-178.77565 54.4058,-178.77565"
       id="path15"
       sodipodi:nodetypes="caaaaaaaaaac" />
    <path
       style="fill:none;stroke:#f6f0ff;stroke-width:7.9375;stroke-linecap:round;stroke-linejoin:bevel;stroke-dasharray:none;stroke-opacity:1"
       d="m 434.06027,658.45673 c 0,0 19.81425,-39.08912 34.90897,-33.44593 7.67571,2.86958 -5.44922,21.65001 2.24066,24.48138 7.10653,2.61658 8.89024,-17.67379 16.24755,-15.87956 5.41472,1.32049 0.009,13.94364 5.23501,15.87956 5.64892,2.09243 9.54317,-10.39192 15.47386,-9.33578 3.92577,0.6991 3.49324,9.24692 7.47979,9.33578 19.26042,0.42932 19.43262,-48.16658 38.11139,-43.44944 12.93356,3.26624 -4.2834,37.25367 8.94043,39.00738 37.94376,5.03199 16.13721,-107.3708 53.93991,-101.37028 26.54006,4.21276 -12.85323,77.76921 13.96974,79.39741 62.17585,3.77419 54.4058,-178.77565 54.4058,-178.77565"
       id="path14"
       sodipodi:nodetypes="caaaaaaaaaac" />
    <path
       style="fill:#1eb6ca;fill-opacity:1;stroke:none;stroke-width:0.264583px;stroke-linecap:butt;stroke-linejoin:miter;stroke-opacity:1"
       d="m 537.0835,495.36707 v 1.50457 l -0.95703,-1.50457 z"
       id="path21"
       sodipodi:nodetypes="cccc" />
  </g>
</svg>
