<?xml version="1.0" encoding="UTF-8" standalone="no"?>
<!-- Created with Inkscape (http://www.inkscape.org/) -->

<svg
   width="1042.7227"
   height="538.62891"
   viewBox="0 0 275.88703 142.51223"
   version="1.1"
   id="svg1"
   sodipodi:docname="Portfolio_workPreviewElement_ART.svg"
   xml:space="preserve"
   inkscape:version="1.3 (0e150ed6c4, 2023-07-21)"
   xmlns:inkscape="http://www.inkscape.org/namespaces/inkscape"
   xmlns:sodipodi="http://sodipodi.sourceforge.net/DTD/sodipodi-0.dtd"
   xmlns="http://www.w3.org/2000/svg"
   xmlns:svg="http://www.w3.org/2000/svg"><sodipodi:namedview
     id="namedview1"
     pagecolor="#505050"
     bordercolor="#000000"
     borderopacity="1"
     inkscape:showpageshadow="0"
     inkscape:pageopacity="0"
     inkscape:pagecheckerboard="0"
     inkscape:deskcolor="#747474"
     inkscape:document-units="mm"
     inkscape:zoom="3.6203867"
     inkscape:cx="696.05824"
     inkscape:cy="200.39296"
     inkscape:window-width="1920"
     inkscape:window-height="1009"
     inkscape:window-x="-8"
     inkscape:window-y="-8"
     inkscape:window-maximized="1"
     inkscape:current-layer="layer1" /><defs
     id="defs1" /><g
     inkscape:label="Слой 1"
     inkscape:groupmode="layer"
     id="layer1"
     transform="translate(-7044.5895,-1518.8242)"><g
       id="g123"
       transform="matrix(3.9611824,0,0,3.9611824,6972.3819,1406.668)"
       style="opacity:1;stroke-width:0.25245"><path
         id="path114"
         style="fill:#4581c0;stroke-width:0.0667939px"
         d="m 61.490583,29.659962 -2.143743,7.558332 c 0.624738,1.648718 3.608547,2.14041 9.176843,1.617065 l -0.03935,0.0335 c 0.310732,0.56453 0.466367,1.198454 0.632224,1.820815 0.04409,0.165393 0.08911,0.330524 0.134753,0.495495 0.03492,0.126134 0.07035,0.251984 0.105906,0.377948 0.01222,0.04328 0.02401,0.08668 0.03623,0.12994 0.0015,0.0056 0.0037,0.01133 0.0051,0.01702 0.183849,0.64864 0.372806,1.295684 0.549287,1.946183 0.04387,0.161709 0.08697,0.323837 0.129012,0.486021 7.57e-4,0.0034 0.0022,0.0069 0.0029,0.01038 9.5e-5,3.8e-4 3.35e-4,6.86e-4 4.29e-4,0.0011 0.03791,0.146535 0.07452,0.29336 0.110541,0.440398 0.0043,0.01881 0.0095,0.03753 0.01411,0.05635 0.0051,0.01967 0.0099,0.03927 0.01462,0.05896 0.310287,1.288236 0.53344,2.596833 0.681013,3.913547 0.0058,0.05212 0.01201,0.104249 0.0176,0.156391 0.0022,0.02141 0.0051,0.04278 0.0074,0.06419 0.0029,0.027 0.0051,0.05405 0.0079,0.08106 0.0278,0.269268 0.05231,0.538974 0.07293,0.808984 5.61e-4,0.0074 0.0015,0.01471 0.0015,0.02205 0.0015,0.02231 0.0037,0.04463 0.0051,0.06695 0.0077,0.106701 0.01448,0.213473 0.02095,0.32025 0.0036,0.06337 0.0076,0.126737 0.01106,0.190124 0.0029,0.0604 0.0058,0.12084 0.0084,0.18125 0.03223,0.710189 0.03376,1.421264 -0.01142,2.130638 -0.0058,0.08799 -0.01389,0.17586 -0.02103,0.263788 -0.0076,0.09527 -0.0147,0.190589 -0.02409,0.285711 -3.7e-5,3.69e-4 9.5e-5,7.54e-4 5.1e-5,0.0011 -4.3e-5,5.12e-4 -2.47e-4,9.97e-4 -2.98e-4,0.0015 -0.0147,0.149065 -0.03143,0.297998 -0.05064,0.446554 -0.01928,0.149068 -0.04096,0.297819 -0.06498,0.446143 -0.02401,0.148323 -0.05035,0.296137 -0.07941,0.443482 -0.05806,0.294692 -0.126436,0.587181 -0.206033,0.876558 -0.01986,0.07234 -0.04053,0.144336 -0.06184,0.216274 -0.04263,0.143877 -0.08809,0.286987 -0.136608,0.429067 -0.02256,0.06605 -0.04605,0.131904 -0.06992,0.197536 -0.0022,0.0049 -0.0037,0.0099 -0.0051,0.0149 -0.0058,0.01602 -0.0112,0.03216 -0.01717,0.04814 -1.492932,2.733588 -3.644353,2.541019 -4.304927,3.175907 l 1.449245,3.057491 16.250928,-0.05269 c 0,0 -0.896055,-2.208295 -3.377015,-7.883967 -2.70241,-6.182187 -4.318282,-13.730713 -4.382947,-16.274554 l -2.3e-5,-3.74e-4 0.174261,-0.886986 -0.008,-0.0023 c 1.004027,-0.277835 2.028971,-0.600603 3.068097,-0.975995 4.942029,-1.785322 9.528803,-4.525662 8.439153,-6.477391 -1.099126,-1.968706 -3.474782,-0.490132 -8.914358,0.255739 -6.595994,0.904439 -12.877048,0.211259 -17.208235,-0.590663 z m 9.565811,22.686531 c -0.0029,0.05581 -0.0051,0.111638 -0.0082,0.167435 0.0029,-0.05575 0.0058,-0.111487 0.0082,-0.167435 z"
         sodipodi:nodetypes="ccccsssscssscsscssssssssssscsscsssssssscccccscccsssccccc" /><path
         id="path115"
         style="fill:#cc4d4d;stroke-width:0.0667939px"
         d="m 44.78684,28.912417 -6.402386,0.456754 1.847659,9.569636 c 0,0 0.53673,11.065928 0.31094,13.925114 -0.225784,2.859183 -0.435123,8.80395 -0.435123,8.80395 l 13.106691,0.312709 c 0,0 -2.323171,-5.143923 -4.866657,-12.323242 -2.35e-4,1.5e-4 -4.97e-4,2.64e-4 -6.89e-4,4.12e-4 l -0.0031,-0.01148 c 0.0013,0.0036 0.0026,0.0074 0.0039,0.01106 0.584048,-0.370676 0.538505,-0.305435 1.085575,-0.752257 0.898742,0.110646 8.898817,1.134376 6.054546,13.049302 l 11.960691,0.59464 c 0,0 -0.26044,-2.589246 -2.339836,-3.721672 -2.079406,-1.132426 -2.141025,-4.967581 -2.141025,-4.967581 -0.08,-2.032298 -0.989844,-10.314781 -12.748645,-8.188542 l -0.194577,0.188734 C 62.30828,38.977851 61.491008,29.655645 61.491008,29.655645 c 0,0 0.993882,0.134783 -3.539867,-0.433389 -4.839949,-0.606541 -13.16429,-0.309844 -13.16429,-0.309844 z"
         sodipodi:nodetypes="cccscccccccccsccccscc" /><path
         style="fill:#ffffff;stroke-width:0.0667939px"
         d="m 22.674326,62.130979 c 0,0 -3.665846,-22.294196 3.06228,-29.601346 4.37159,-4.74781 19.050234,-3.617216 19.050234,-3.617216 0,0 -1.612842,8.176447 -7.107922,12.682287 -5.495082,4.50584 -6.428907,7.273962 -6.866174,9.595772 C 30.375477,53.512288 29.95032,61.86045 29.95032,61.86045 Z"
         id="path116"
         sodipodi:nodetypes="cacsscc" /><path
         style="color:#000000;fill:#000000;stroke-width:0.25245;-inkscape-stroke:none"
         d="m 42.757812,28.4375 c 0,0 -3.845374,-0.296869 -8.269531,0.0293 -4.424156,0.326166 -9.455865,1.208988 -11.916015,3.880859 -3.685333,4.002492 -4.416812,11.772844 -4.337891,18.558594 0.07892,6.78575 1.039063,12.609375 1.039062,12.609375 l 0.06445,0.404297 0.408203,-0.01563 7.990234,-0.296875 0.02148,-0.423828 c 0,0 0.110293,-2.167358 0.277344,-4.634766 0.167052,-2.467408 0.397615,-5.263672 0.611328,-6.398437 0.444876,-2.362214 1.316649,-5.062471 6.978516,-9.705079 5.891903,-4.831222 7.550781,-13.455078 7.550781,-13.455078 l 0.101563,-0.511718 z m -0.669921,0.925781 c -0.192324,0.878473 -1.83664,8.089761 -7.050782,12.365235 -5.765887,4.727901 -6.836301,7.78369 -7.300781,10.25 -0.240971,1.279497 -0.457337,4.031374 -0.625,6.507812 -0.152382,2.250742 -0.235977,3.880638 -0.253906,4.226563 l -6.72461,0.25 c -0.09189,-0.576573 -0.898894,-5.726221 -0.972656,-12.06836 -0.07798,-6.704716 0.783064,-14.324318 4.09375,-17.919922 2.085504,-2.264982 6.958925,-3.263742 11.302735,-3.583984 4.023476,-0.296626 7.03025,-0.06253 7.53125,-0.02734 z"
         id="path117" /><path
         style="color:#000000;fill:#000000;stroke-width:0.25245;-inkscape-stroke:none"
         d="m 47.667969,28.359375 c -2.801149,-0.0013 -4.962891,0.07813 -4.962891,0.07813 l -0.527344,0.01758 0.08789,0.521484 C 44.927036,44.714396 52.499381,61.671836 52.96289,62.705085 L 38.34375,62.501953 c 0.02104,-0.585548 0.207238,-5.867938 0.427734,-8.660156 0.123347,-1.561968 0.0381,-5.153967 -0.07227,-8.40625 -0.110368,-3.252283 -0.25,-6.132813 -0.25,-6.132813 l -0.925782,0.04492 c 0,0 0.139903,2.874818 0.25,6.119141 0.110098,3.244322 0.18565,6.891665 0.07422,8.302734 -0.23697,3.000832 -0.453125,9.173828 -0.453125,9.173828 l -0.01758,0.472657 16.996094,0.234375 -0.298828,-0.664063 c 0,0 -2.32357,-5.270709 -4.902344,-12.498047 4.365417,-2.920466 7.694606,-7.895945 9.955078,-12.21875 2.321104,-4.438754 3.529297,-8.177734 3.529297,-8.177734 l 0.173828,-0.533203 -0.556641,-0.06836 c 0,0 -1.090425,-0.135768 -5.804687,-0.726562 -2.558046,-0.320576 -5.999633,-0.403007 -8.800781,-0.404297 z m 0.02148,0.929687 c 2.784989,0.0023 6.189485,0.08246 8.664063,0.392579 4.244787,0.531959 5.008261,0.626993 5.226562,0.654296 -0.233632,0.69223 -1.243972,3.622866 -3.273437,7.503907 C 56.121271,42.019019 52.89917,46.762 48.86523,49.554687 46.743003,43.514573 44.5366,36.353298 43.304683,29.355469 c 0.421007,-0.01348 1.91837,-0.0684 4.384766,-0.06641 z"
         id="path118" /><path
         style="color:#000000;fill:#000000;stroke-width:0.25245;-inkscape-stroke:none"
         d="m 47.667969,28.359375 c -2.801149,-0.0013 -4.962891,0.07813 -4.962891,0.07813 l -0.527344,0.01758 0.08789,0.521484 C 44.927036,44.714396 52.499381,61.671836 52.96289,62.705085 L 38.34375,62.501953 c 0.02104,-0.585548 0.207238,-5.867938 0.427734,-8.660156 0.123347,-1.561968 0.0381,-5.153967 -0.07227,-8.40625 -0.110368,-3.252283 -0.25,-6.132813 -0.25,-6.132813 l -0.925782,0.04492 c 0,0 0.139903,2.874818 0.25,6.119141 0.110098,3.244322 0.18565,6.891665 0.07422,8.302734 -0.23697,3.000832 -0.453125,9.173828 -0.453125,9.173828 l -0.01758,0.472657 16.996094,0.234375 -0.298828,-0.664063 c 0,0 -2.32357,-5.270709 -4.902344,-12.498047 4.365417,-2.920466 7.694606,-7.895945 9.955078,-12.21875 2.321104,-4.438754 3.529297,-8.177734 3.529297,-8.177734 l 0.173828,-0.533203 -0.556641,-0.06836 c 0,0 -1.090425,-0.135768 -5.804687,-0.726562 -2.558046,-0.320576 -5.999633,-0.403007 -8.800781,-0.404297 z m 0.02148,0.929687 c 2.784989,0.0023 6.189485,0.08246 8.664063,0.392579 4.244787,0.531959 5.008261,0.626993 5.226562,0.654296 -0.233632,0.69223 -1.243972,3.622866 -3.273437,7.503907 C 56.121271,42.019019 52.89917,46.762 48.86523,49.554687 46.743003,43.514573 44.5366,36.353298 43.304683,29.355469 c 0.421007,-0.01348 1.91837,-0.0684 4.384766,-0.06641 z"
         id="path119" /><path
         style="color:#000000;fill:#000000;stroke-width:0.25245;-inkscape-stroke:none"
         d="m 57.917969,44.757812 c -1.192453,-0.04549 -2.553708,0.05659 -4.109375,0.337891 l 0.164062,0.910156 c 3.002179,-0.542857 5.171146,-0.377295 6.732422,0.171875 1.561276,0.549171 2.532584,1.47243 3.173828,2.53711 1.279606,2.124574 1.16729,4.802871 1.210938,5.9375 0,0 0.0157,1.044449 0.316406,2.246093 0.30071,1.201645 0.880126,2.625521 2.152344,3.31836 1.537178,0.837141 1.912221,2.310234 2.042968,2.970703 L 58.294922,62.625 c 1.328467,-6.258851 -0.50051,-9.891501 -2.816406,-11.800781 -2.38901,-1.969556 -5.175782,-2.212891 -5.175782,-2.212891 l -0.08398,0.921875 c 0,0 2.526664,0.237296 4.671875,2.005859 2.145211,1.768564 3.960312,5.020444 2.433594,11.416016 l -0.128907,0.541016 13.53125,0.673828 -0.05469,-0.535156 c 0,0 -0.263593,-2.918929 -2.671875,-4.230469 -0.889987,-0.48468 -1.423379,-1.643815 -1.695313,-2.730469 -0.271933,-1.086654 -0.289062,-2.037109 -0.289062,-2.037109 v -0.0039 -0.0059 c -0.03867,-0.983042 0.127242,-3.946332 -1.34375,-6.388672 -0.735496,-1.22117 -1.899553,-2.314998 -3.658203,-2.933594 -0.879325,-0.309297 -1.90325,-0.501382 -3.095703,-0.546875 z"
         id="path120" /><path
         style="color:#000000;fill:#000000;stroke-width:0.25245;-inkscape-stroke:none"
         d="m 84.242187,28.642578 c -1.521446,0.233701 -3.524034,0.806029 -6.320312,1.189453 -6.81255,0.934132 -11.141379,0.491531 -15.621094,-0.33789 l -0.167969,0.910156 c 4.527579,0.838283 9.009365,1.29247 15.914063,0.345703 2.859891,-0.392147 4.922628,-0.974316 6.335937,-1.191406 0.706655,-0.108546 1.240248,-0.119734 1.613282,-0.01758 0.373034,0.102155 0.61442,0.282681 0.853515,0.710937 0.193382,0.346376 0.155582,0.678112 -0.158203,1.173828 -0.313784,0.495717 -0.922275,1.075497 -1.740234,1.654297 -1.635918,1.1576 -4.08765,2.328056 -6.628906,3.246094 -5.540955,2.001691 -10.605828,2.579889 -14.28125,2.658203 -1.837712,0.03916 -3.32775,-0.04726 -4.355469,-0.142578 -0.51386,-0.04766 -0.913371,-0.09696 -1.181641,-0.134766 -0.134135,-0.0189 -0.235397,-0.03588 -0.302734,-0.04687 -0.06734,-0.01099 -0.09766,-0.01563 -0.09766,-0.01563 l -0.394532,0.798828 c 0,0 0.269937,0.118812 0.34375,0.13086 0.07381,0.01205 0.181283,0.02896 0.322266,0.04883 0.281966,0.03973 0.695274,0.09153 1.224609,0.140625 1.05867,0.09819 2.583714,0.186483 4.460938,0.146484 3.754448,-0.08 8.919373,-0.671303 14.576172,-2.714844 2.59754,-0.93837 5.09937,-2.12088 6.849609,-3.359375 0.87512,-0.619247 1.565877,-1.2487 1.988281,-1.916015 0.422405,-0.667315 0.556732,-1.450793 0.183594,-2.119141 -0.332351,-0.595291 -0.827734,-0.991242 -1.416016,-1.152344 -0.588281,-0.161101 -1.239276,-0.122709 -2,-0.0059 z"
         id="path121" /><path
         style="color:#000000;fill:#000000;stroke-width:0.25245;-inkscape-stroke:none"
         d="m 67.794922,39.083984 -0.863281,0.337891 c 0,0 1.428707,3.668532 2.193359,8.037109 0.764652,4.368578 0.804421,9.370009 -1.683594,12.035157 l 0.675781,0.632812 c 2.872346,-3.07684 2.703159,-8.353371 1.919922,-12.828125 -0.783237,-4.474754 -2.242187,-8.214844 -2.242187,-8.214844 z"
         id="path122" /><path
         style="color:#000000;fill:#000000;stroke-width:0.25245;-inkscape-stroke:none"
         d="m 75.214844,37.322266 c -0.288999,0.05191 -0.416372,0.285476 -0.470703,0.4375 -0.05433,0.152024 -0.07408,0.300978 -0.08594,0.474609 -0.02371,0.347261 -0.0023,0.790307 0.05273,1.339844 0.110046,1.099073 0.364329,2.606307 0.75,4.353515 0.771344,3.494417 2.066672,7.940592 3.789063,11.88086 2.375552,5.434483 3.091761,7.201702 3.230469,7.541015 l -12.263672,-0.132812 -0.0098,0.925781 13.667969,0.148438 -0.261719,-0.644532 c 0,0 -0.934579,-2.304397 -3.515625,-8.208984 -1.688065,-3.861742 -2.97252,-8.266403 -3.732422,-11.708984 -0.37995,-1.721291 -0.630139,-3.205052 -0.734375,-4.246094 -0.05212,-0.520521 -0.06601,-0.933862 -0.04883,-1.185547 0.0086,-0.125842 0.02881,-0.212316 0.0332,-0.224609 0.0044,-0.01229 -0.04518,0.127773 -0.236328,0.162109 z"
         id="path123" /></g></g></svg>
