<?xml version="1.0" encoding="UTF-8" standalone="no"?>
<!-- Created with Inkscape (http://www.inkscape.org/) -->

<svg
   width="39.947819mm"
   height="18.842215mm"
   viewBox="0 0 39.947818 18.842215"
   version="1.1"
   id="svg1"
   inkscape:version="1.3 (0e150ed6c4, 2023-07-21)"
   sodipodi:docname="Portfolio_workPreviewElement_Roe.svg"
   xmlns:inkscape="http://www.inkscape.org/namespaces/inkscape"
   xmlns:sodipodi="http://sodipodi.sourceforge.net/DTD/sodipodi-0.dtd"
   xmlns="http://www.w3.org/2000/svg"
   xmlns:svg="http://www.w3.org/2000/svg">
  <sodipodi:namedview
     id="namedview1"
     pagecolor="#505050"
     bordercolor="#eeeeee"
     borderopacity="1"
     inkscape:showpageshadow="0"
     inkscape:pageopacity="0"
     inkscape:pagecheckerboard="0"
     inkscape:deskcolor="#494949"
     inkscape:document-units="px"
     showborder="false"
     inkscape:zoom="5.6568543"
     inkscape:cx="31.112698"
     inkscape:cy="34.736621"
     inkscape:window-width="1920"
     inkscape:window-height="1009"
     inkscape:window-x="-8"
     inkscape:window-y="-8"
     inkscape:window-maximized="1"
     inkscape:current-layer="layer1" />
  <defs
     id="defs1">
    <inkscape:path-effect
       effect="spiro"
       id="path-effect12"
       is_visible="true"
       lpeversion="1" />
    <inkscape:path-effect
       effect="spiro"
       id="path-effect11"
       is_visible="true"
       lpeversion="1" />
  </defs>
  <g
     inkscape:label="Слой 1"
     inkscape:groupmode="layer"
     id="layer1"
     transform="translate(-22.530765,-23.534262)">
    <rect
       style="fill:#e0e4eb;fill-opacity:1;stroke:#b2bdce;stroke-width:0.529167;stroke-linecap:round;stroke-linejoin:miter;stroke-miterlimit:4.7;stroke-dasharray:none;stroke-opacity:1;paint-order:normal"
       id="rect44"
       width="1.3948072"
       height="38.223209"
       x="52.392273"
       y="-61.005993"
       transform="rotate(90)"
       ry="0.69740361"
       rx="0.69740361" />
    <g
       id="g83"
       transform="matrix(0.98722162,0,0,1,14.65884,5.0234243)"
       style="fill:#536583;fill-opacity:1;stroke:#536583;stroke-width:0.532581;stroke-linecap:square;stroke-linejoin:miter;stroke-dasharray:none;stroke-opacity:1">
      <path
         id="path83"
         style="fill:#536583;fill-opacity:1;stroke:#536583;stroke-width:0.532581;stroke-linecap:square;stroke-linejoin:miter;stroke-miterlimit:4.7;stroke-dasharray:none;stroke-opacity:1"
         d="m 38.869896,25.466146 v 5.89318 h 1.427303 A 2.51017,2.464035 0 0 1 40.1246,30.472042 2.51017,2.464035 0 0 1 41.259414,28.412736 2.51017,2.464035 0 0 1 40.1246,26.35343 2.51017,2.464035 0 0 1 40.297199,25.466146 Z" />
      <path
         id="path81"
         style="fill:#536583;fill-opacity:1;stroke:#536583;stroke-width:0.532581;stroke-linecap:square;stroke-linejoin:miter;stroke-miterlimit:4.7;stroke-dasharray:none;stroke-opacity:1"
         d="m 42.634388,23.796994 v 0.0925 c -0.881642,6.2e-5 -1.657547,0.45149 -2.110465,1.135331 a 2.5820021,2.5820021 0 0 0 -0.08372,0.135909 c -0.0133,0.02313 -0.0267,0.04618 -0.03927,0.06976 a 2.5820021,2.5820021 0 0 0 -0.276986,1.148251 v 4.067452 a 2.5820021,2.5820021 0 0 1 0,5.17e-4 2.5820021,2.5820021 0 0 0 0.275952,1.145149 c 0.01382,0.02598 0.0282,0.05157 0.04289,0.077 a 2.5820021,2.5820021 0 0 0 0.09302,0.150895 l 5.17e-4,5.17e-4 c 0.454677,0.672985 1.224763,1.115632 2.098063,1.115694 v 0.0925 h -2.955892 -0.05168 c -0.564006,-4e-5 -1.084631,-0.199686 -1.505335,-0.529683 6.33e-4,-4.3e-4 0.0014,-6.03e-4 0.0021,-0.001 a 2.5820021,2.5820021 0 0 1 -0.30334,-0.275952 c -0.03783,-0.04052 -0.07424,-0.08221 -0.109554,-0.125057 a 2.5820021,2.5820021 0 0 1 -0.134876,-0.1788 c -0.06159,-0.08878 -0.118724,-0.181042 -0.169498,-0.276986 a 2.5820021,2.5820021 0 0 1 -0.04392,-0.08785 c -0.0053,-0.0109 -0.01089,-0.02158 -0.01602,-0.03256 -0.043,-0.09205 -0.0802,-0.187266 -0.112655,-0.284221 a 2.5820021,2.5820021 0 0 1 -0.06408,-0.221691 c -0.01337,-0.05562 -0.02486,-0.111764 -0.03462,-0.168466 a 2.5820021,2.5820021 0 0 1 -0.03721,-0.386023 c -3.83e-4,-0.01813 -10e-4,-0.03607 -10e-4,-0.05426 V 26.4196 c 10e-7,-0.01819 6.5e-4,-0.03613 10e-4,-0.05426 a 2.5820021,2.5820021 0 0 1 0.03721,-0.385505 c 0.0099,-0.05774 0.02147,-0.11495 0.03514,-0.171566 a 2.5820021,2.5820021 0 0 1 0.06201,-0.215491 c 0.04253,-0.127652 0.09444,-0.251582 0.155029,-0.37052 a 2.5820021,2.5820021 0 0 1 0.01499,-0.02997 c 5.36e-4,-0.001 10e-4,-0.0021 0.0016,-0.0031 0.05246,-0.09961 0.111607,-0.195416 0.1757,-0.287321 a 2.5820021,2.5820021 0 0 1 0.126607,-0.167431 c 0.03752,-0.04579 0.07641,-0.09019 0.116789,-0.133326 a 2.5820021,2.5820021 0 0 1 0.301273,-0.273885 c -5.12e-4,-3.48e-4 -10e-4,-6.85e-4 -0.0015,-10e-4 0.420547,-0.329579 0.940695,-0.529127 1.504301,-0.529167 z" />
      <path
         id="path82"
         style="fill:#536583;fill-opacity:1;stroke:#536583;stroke-width:0.532581;stroke-linecap:square;stroke-linejoin:miter;stroke-miterlimit:4.7;stroke-dasharray:none;stroke-opacity:1"
         d="m 42.634775,23.796997 v 0.0925 c 0.88164,6.2e-5 1.657548,0.451492 2.110465,1.135331 a 2.5820021,2.5820021 0 0 1 0.08372,0.135909 c 0.0133,0.02313 0.0267,0.04618 0.03927,0.06976 a 2.5820021,2.5820021 0 0 1 0.276986,1.148251 v 0.173632 0.415479 h 3.027205 V 26.55238 26.419572 c -10e-7,-0.01819 -7.17e-4,-0.03613 -10e-4,-0.05426 a 2.5820021,2.5820021 0 0 0 -0.03721,-0.385506 c -0.0099,-0.05774 -0.02147,-0.11495 -0.03514,-0.171566 a 2.5820021,2.5820021 0 0 0 -0.06201,-0.215491 c -0.04253,-0.127652 -0.09444,-0.251582 -0.155029,-0.37052 a 2.5820021,2.5820021 0 0 0 -0.01499,-0.02997 c -5.36e-4,-0.001 -0.0014,-0.0021 -0.0021,-0.0031 -0.05246,-0.09961 -0.111607,-0.195416 -0.1757,-0.287321 a 2.5820021,2.5820021 0 0 0 -0.126091,-0.167431 c -0.03752,-0.04579 -0.07641,-0.09019 -0.116789,-0.133326 a 2.5820021,2.5820021 0 0 0 -0.301273,-0.273885 c 5.12e-4,-3.48e-4 5.1e-5,-7.51e-4 5.17e-4,-0.001 -0.420547,-0.329579 -0.940697,-0.529127 -1.504301,-0.529167 z m 2.509924,6.060095 v 0.415479 h 5.17e-4 v 0.173633 a 2.5820021,2.5820021 0 0 0 0,5.16e-4 2.5820021,2.5820021 0 0 1 -0.275952,1.14515 c -0.01382,0.02598 -0.0282,0.05157 -0.04289,0.077 a 2.5820021,2.5820021 0 0 1 -0.09302,0.150895 l -5.17e-4,5.17e-4 c -0.454676,0.672983 -1.224765,1.115632 -2.098063,1.115694 v 0.0925 h 2.955892 0.05168 c 0.564005,-4e-5 1.084631,-0.199688 1.505335,-0.529683 -6.33e-4,-4.3e-4 -0.0019,-6.71e-4 -0.0026,-10e-4 a 2.5820021,2.5820021 0 0 0 0.30334,-0.275952 c 0.03783,-0.04052 0.07424,-0.08221 0.109554,-0.125057 a 2.5820021,2.5820021 0 0 0 0.134876,-0.178801 c 0.06159,-0.08878 0.118725,-0.181041 0.169499,-0.276985 a 2.5820021,2.5820021 0 0 0 0.04393,-0.08785 c 0.0053,-0.0109 0.01089,-0.02158 0.01602,-0.03256 0.043,-0.09205 0.0802,-0.187266 0.112655,-0.284221 a 2.5820021,2.5820021 0 0 0 0.06408,-0.221692 c 0.01337,-0.05562 0.02486,-0.111763 0.03462,-0.168465 a 2.5820021,2.5820021 0 0 0 0.03721,-0.386023 c 3.83e-4,-0.01813 10e-4,-0.03607 10e-4,-0.05426 v -0.133325 -0.415479 z" />
    </g>
    <g
       id="g87"
       transform="matrix(1.0531075,0,0,1,11.377367,5.0243541)"
       style="fill:#536583;fill-opacity:1;stroke:#536583;stroke-width:0.515651;stroke-linecap:square;stroke-dasharray:none;stroke-opacity:1">
      <path
         id="path86"
         style="fill:#536583;fill-opacity:1;stroke:#536583;stroke-width:0.515651;stroke-linecap:square;stroke-linejoin:round;stroke-miterlimit:4.7;stroke-dasharray:none;stroke-opacity:1"
         d="m 31.56123,23.796994 v 0.0925 c -0.881642,6.2e-5 -1.657547,0.45149 -2.110465,1.135331 a 2.5820021,2.5820021 0 0 0 -0.08372,0.135909 c -0.0133,0.02313 -0.0267,0.04618 -0.03927,0.06976 a 2.5820021,2.5820021 0 0 0 -0.276986,1.148251 v 4.067452 a 2.5820021,2.5820021 0 0 1 0,5.17e-4 2.5820021,2.5820021 0 0 0 0.275952,1.145149 c 0.01382,0.02598 0.0282,0.05157 0.04289,0.077 a 2.5820021,2.5820021 0 0 0 0.09302,0.150895 l 5.17e-4,5.17e-4 c 0.454677,0.672985 1.224763,1.115632 2.098063,1.115694 v 0.0925 h -2.955892 -0.05168 c -0.564006,-4e-5 -1.084631,-0.199686 -1.505335,-0.529683 6.33e-4,-4.3e-4 0.0014,-6.03e-4 0.0021,-0.001 a 2.5820021,2.5820021 0 0 1 -0.30334,-0.275952 c -0.03783,-0.04052 -0.07424,-0.08221 -0.109554,-0.125057 a 2.5820021,2.5820021 0 0 1 -0.134876,-0.1788 c -0.06159,-0.08878 -0.118724,-0.181042 -0.169498,-0.276986 a 2.5820021,2.5820021 0 0 1 -0.04392,-0.08785 c -0.0053,-0.0109 -0.01089,-0.02158 -0.01602,-0.03256 -0.043,-0.09205 -0.0802,-0.187266 -0.112655,-0.284221 a 2.5820021,2.5820021 0 0 1 -0.06408,-0.221691 c -0.01337,-0.05562 -0.02486,-0.111764 -0.03462,-0.168466 a 2.5820021,2.5820021 0 0 1 -0.03721,-0.386023 c -3.83e-4,-0.01813 -10e-4,-0.03607 -10e-4,-0.05426 V 26.4196 c 10e-7,-0.01819 6.5e-4,-0.03613 10e-4,-0.05426 a 2.5820021,2.5820021 0 0 1 0.03721,-0.385505 c 0.0099,-0.05774 0.02147,-0.11495 0.03514,-0.171566 a 2.5820021,2.5820021 0 0 1 0.06201,-0.215491 c 0.04253,-0.127652 0.09444,-0.251582 0.155029,-0.37052 a 2.5820021,2.5820021 0 0 1 0.01499,-0.02997 c 5.36e-4,-0.001 0.001,-0.0021 0.0016,-0.0031 0.05246,-0.09961 0.111607,-0.195416 0.1757,-0.287321 a 2.5820021,2.5820021 0 0 1 0.126607,-0.167431 c 0.03752,-0.04579 0.07641,-0.09019 0.116789,-0.133326 a 2.5820021,2.5820021 0 0 1 0.301273,-0.273885 c -5.12e-4,-3.48e-4 -0.001,-6.85e-4 -0.0015,-10e-4 0.420547,-0.329579 0.940695,-0.529127 1.504301,-0.529167 z" />
      <path
         id="path87"
         style="fill:#536583;fill-opacity:1;stroke:#536583;stroke-width:0.515651;stroke-linecap:square;stroke-linejoin:round;stroke-miterlimit:4.7;stroke-dasharray:none;stroke-opacity:1"
         d="m 31.56123,23.796994 v 0.0925 c 0.881642,6.2e-5 1.657547,0.45149 2.110465,1.135331 a 2.5820021,2.5820021 0 0 1 0.08372,0.135909 c 0.0133,0.02313 0.0267,0.04618 0.03927,0.06976 a 2.5820021,2.5820021 0 0 1 0.276986,1.148251 v 4.067452 a 2.5820021,2.5820021 0 0 0 0,5.17e-4 2.5820021,2.5820021 0 0 1 -0.275952,1.145149 c -0.01382,0.02598 -0.0282,0.05157 -0.04289,0.077 a 2.5820021,2.5820021 0 0 1 -0.09302,0.150895 l -5.17e-4,5.17e-4 c -0.454677,0.672985 -1.224763,1.115632 -2.098063,1.115694 v 0.0925 h 2.955892 0.05168 c 0.564006,-4e-5 1.084631,-0.199686 1.505335,-0.529683 -6.33e-4,-4.3e-4 -0.0014,-6.03e-4 -0.0021,-0.001 a 2.5820021,2.5820021 0 0 0 0.30334,-0.275952 c 0.03783,-0.04052 0.07424,-0.08221 0.109554,-0.125057 a 2.5820021,2.5820021 0 0 0 0.134876,-0.1788 c 0.06159,-0.08878 0.118724,-0.181042 0.169498,-0.276986 a 2.5820021,2.5820021 0 0 0 0.04392,-0.08785 c 0.0053,-0.0109 0.01089,-0.02158 0.01602,-0.03256 0.043,-0.09205 0.0802,-0.187266 0.112655,-0.284221 a 2.5820021,2.5820021 0 0 0 0.06408,-0.221691 c 0.01337,-0.05562 0.02486,-0.111764 0.03462,-0.168466 a 2.5820021,2.5820021 0 0 0 0.03721,-0.386023 c 3.83e-4,-0.01813 0.001,-0.03607 0.001,-0.05426 V 26.4196 c -1e-6,-0.01819 -6.5e-4,-0.03613 -0.001,-0.05426 a 2.5820021,2.5820021 0 0 0 -0.03721,-0.385505 c -0.0099,-0.05774 -0.02147,-0.11495 -0.03514,-0.171566 a 2.5820021,2.5820021 0 0 0 -0.06201,-0.215491 c -0.04253,-0.127652 -0.09444,-0.251582 -0.155029,-0.37052 a 2.5820021,2.5820021 0 0 0 -0.01499,-0.02997 c -5.36e-4,-0.001 -10e-4,-0.0021 -0.0016,-0.0031 -0.05246,-0.09961 -0.111607,-0.195416 -0.1757,-0.287321 a 2.5820021,2.5820021 0 0 0 -0.126607,-0.167431 c -0.03752,-0.04579 -0.07641,-0.09019 -0.116789,-0.133326 a 2.5820021,2.5820021 0 0 0 -0.301273,-0.273885 c 5.12e-4,-3.48e-4 10e-4,-6.85e-4 0.0015,-10e-4 -0.420547,-0.329579 -0.940695,-0.529127 -1.504301,-0.529167 z" />
    </g>
    <g
       id="g41"
       transform="translate(13.177204,5.0234243)"
       style="fill:#8e9eb8;fill-opacity:1;stroke:#536583;stroke-width:0.529167;stroke-linecap:square;stroke-dasharray:none;stroke-opacity:1">
      <path
         id="path37"
         style="fill:#8e9eb8;fill-opacity:1;stroke:#536583;stroke-width:0.529167;stroke-linecap:square;stroke-linejoin:round;stroke-miterlimit:4.7;stroke-dasharray:none;stroke-opacity:1"
         d="m 39.387377,25.466146 v 5.89318 h 1.427303 a 2.51017,2.464035 0 0 1 -0.172599,-0.887284 2.51017,2.464035 0 0 1 1.134814,-2.059306 2.51017,2.464035 0 0 1 -1.134814,-2.059306 2.51017,2.464035 0 0 1 0.172599,-0.887284 z" />
      <path
         id="path39"
         style="fill:#8e9eb8;fill-opacity:1;stroke:#536583;stroke-width:0.529167;stroke-linecap:square;stroke-linejoin:round;stroke-miterlimit:4.7;stroke-dasharray:none;stroke-opacity:1"
         d="m 42.634388,23.796994 v 0.0925 c -0.881642,6.2e-5 -1.657547,0.45149 -2.110465,1.135331 a 2.5820021,2.5820021 0 0 0 -0.08372,0.135909 c -0.0133,0.02313 -0.0267,0.04618 -0.03927,0.06976 a 2.5820021,2.5820021 0 0 0 -0.276986,1.148251 v 4.067452 a 2.5820021,2.5820021 0 0 1 0,5.17e-4 2.5820021,2.5820021 0 0 0 0.275952,1.145149 c 0.01382,0.02598 0.0282,0.05157 0.04289,0.077 a 2.5820021,2.5820021 0 0 0 0.09302,0.150895 l 5.17e-4,5.17e-4 c 0.454677,0.672985 1.224763,1.115632 2.098063,1.115694 v 0.0925 h -2.955892 -0.05168 c -0.564006,-4e-5 -1.084631,-0.199686 -1.505335,-0.529683 6.33e-4,-4.3e-4 0.0014,-6.03e-4 0.0021,-0.001 a 2.5820021,2.5820021 0 0 1 -0.30334,-0.275952 c -0.03783,-0.04052 -0.07424,-0.08221 -0.109554,-0.125057 a 2.5820021,2.5820021 0 0 1 -0.134876,-0.1788 c -0.06159,-0.08878 -0.118724,-0.181042 -0.169498,-0.276986 a 2.5820021,2.5820021 0 0 1 -0.04392,-0.08785 c -0.0053,-0.0109 -0.01089,-0.02158 -0.01602,-0.03256 -0.043,-0.09205 -0.0802,-0.187266 -0.112655,-0.284221 a 2.5820021,2.5820021 0 0 1 -0.06408,-0.221691 c -0.01337,-0.05562 -0.02486,-0.111764 -0.03462,-0.168466 a 2.5820021,2.5820021 0 0 1 -0.03721,-0.386023 c -3.83e-4,-0.01813 -10e-4,-0.03607 -10e-4,-0.05426 V 26.4196 c 10e-7,-0.01819 6.5e-4,-0.03613 10e-4,-0.05426 a 2.5820021,2.5820021 0 0 1 0.03721,-0.385505 c 0.0099,-0.05774 0.02147,-0.11495 0.03514,-0.171566 a 2.5820021,2.5820021 0 0 1 0.06201,-0.215491 c 0.04253,-0.127652 0.09444,-0.251582 0.155029,-0.37052 a 2.5820021,2.5820021 0 0 1 0.01499,-0.02997 c 5.36e-4,-0.001 10e-4,-0.0021 0.0016,-0.0031 0.05246,-0.09961 0.111607,-0.195416 0.1757,-0.287321 a 2.5820021,2.5820021 0 0 1 0.126607,-0.167431 c 0.03752,-0.04579 0.07641,-0.09019 0.116789,-0.133326 a 2.5820021,2.5820021 0 0 1 0.301273,-0.273885 c -5.12e-4,-3.48e-4 -10e-4,-6.85e-4 -0.0015,-10e-4 0.420547,-0.329579 0.940695,-0.529127 1.504301,-0.529167 z" />
      <path
         id="path40"
         style="fill:#8e9eb8;fill-opacity:1;stroke:#536583;stroke-width:0.529167;stroke-linecap:square;stroke-linejoin:miter;stroke-miterlimit:4.7;stroke-dasharray:none;stroke-opacity:1"
         d="m 42.634775,23.796997 v 0.0925 c 0.88164,6.2e-5 1.657548,0.451492 2.110465,1.135331 a 2.5820021,2.5820021 0 0 1 0.08372,0.135909 c 0.0133,0.02313 0.0267,0.04618 0.03927,0.06976 a 2.5820021,2.5820021 0 0 1 0.276986,1.148251 v 0.173632 0.415479 h 3.027205 V 26.55238 26.419572 c -10e-7,-0.01819 -7.17e-4,-0.03613 -10e-4,-0.05426 a 2.5820021,2.5820021 0 0 0 -0.03721,-0.385506 c -0.0099,-0.05774 -0.02147,-0.11495 -0.03514,-0.171566 a 2.5820021,2.5820021 0 0 0 -0.06201,-0.215491 c -0.04253,-0.127652 -0.09444,-0.251582 -0.155029,-0.37052 a 2.5820021,2.5820021 0 0 0 -0.01499,-0.02997 c -5.36e-4,-0.001 -0.0014,-0.0021 -0.0021,-0.0031 -0.05246,-0.09961 -0.111607,-0.195416 -0.1757,-0.287321 a 2.5820021,2.5820021 0 0 0 -0.126091,-0.167431 c -0.03752,-0.04579 -0.07641,-0.09019 -0.116789,-0.133326 a 2.5820021,2.5820021 0 0 0 -0.301273,-0.273885 c 5.12e-4,-3.48e-4 5.1e-5,-7.51e-4 5.17e-4,-0.001 -0.420547,-0.329579 -0.940697,-0.529127 -1.504301,-0.529167 z m 2.509924,6.060095 v 0.415479 h 5.17e-4 v 0.173633 a 2.5820021,2.5820021 0 0 0 0,5.16e-4 2.5820021,2.5820021 0 0 1 -0.275952,1.14515 c -0.01382,0.02598 -0.0282,0.05157 -0.04289,0.077 a 2.5820021,2.5820021 0 0 1 -0.09302,0.150895 l -5.17e-4,5.17e-4 c -0.454676,0.672983 -1.224765,1.115632 -2.098063,1.115694 v 0.0925 h 2.955892 0.05168 c 0.564005,-4e-5 1.084631,-0.199688 1.505335,-0.529683 -6.33e-4,-4.3e-4 -0.0019,-6.71e-4 -0.0026,-10e-4 a 2.5820021,2.5820021 0 0 0 0.30334,-0.275952 c 0.03783,-0.04052 0.07424,-0.08221 0.109554,-0.125057 a 2.5820021,2.5820021 0 0 0 0.134876,-0.178801 c 0.06159,-0.08878 0.118725,-0.181041 0.169499,-0.276985 a 2.5820021,2.5820021 0 0 0 0.04393,-0.08785 c 0.0053,-0.0109 0.01089,-0.02158 0.01602,-0.03256 0.043,-0.09205 0.0802,-0.187266 0.112655,-0.284221 a 2.5820021,2.5820021 0 0 0 0.06408,-0.221692 c 0.01337,-0.05562 0.02486,-0.111763 0.03462,-0.168465 a 2.5820021,2.5820021 0 0 0 0.03721,-0.386023 c 3.83e-4,-0.01813 10e-4,-0.03607 10e-4,-0.05426 v -0.133325 -0.415479 z" />
    </g>
    <g
       id="g43"
       transform="translate(1.2080084,5.0234243)">
      <path
         id="path43"
         style="fill:#8e9eb8;fill-opacity:1;stroke:#536583;stroke-width:0.529167;stroke-linecap:square;stroke-linejoin:round;stroke-miterlimit:4.7;stroke-dasharray:none;stroke-opacity:1"
         d="m 42.720049,23.797924 v 0.0925 c -0.881642,6.2e-5 -1.657547,0.45149 -2.110465,1.135331 a 2.5820021,2.5820021 0 0 0 -0.08372,0.135909 c -0.0133,0.02313 -0.0267,0.04618 -0.03927,0.06976 a 2.5820021,2.5820021 0 0 0 -0.276986,1.148251 v 4.067452 a 2.5820021,2.5820021 0 0 1 0,5.17e-4 2.5820021,2.5820021 0 0 0 0.275952,1.145149 c 0.01382,0.02598 0.0282,0.05157 0.04289,0.077 a 2.5820021,2.5820021 0 0 0 0.09302,0.150895 l 5.17e-4,5.17e-4 c 0.454677,0.672985 1.224763,1.115632 2.098063,1.115694 v 0.0925 h -2.955892 -0.05168 c -0.564006,-4e-5 -1.084631,-0.199686 -1.505335,-0.529683 6.33e-4,-4.3e-4 0.0014,-6.03e-4 0.0021,-10e-4 a 2.5820021,2.5820021 0 0 1 -0.30334,-0.275952 c -0.03783,-0.04052 -0.07424,-0.08221 -0.109554,-0.125057 a 2.5820021,2.5820021 0 0 1 -0.134876,-0.1788 c -0.06159,-0.08878 -0.118724,-0.181042 -0.169498,-0.276986 a 2.5820021,2.5820021 0 0 1 -0.04392,-0.08785 c -0.0053,-0.0109 -0.01089,-0.02158 -0.01602,-0.03256 -0.043,-0.09205 -0.0802,-0.187266 -0.112655,-0.284221 A 2.5820021,2.5820021 0 0 1 37.2553,31.015599 c -0.01337,-0.05562 -0.02486,-0.111764 -0.03462,-0.168466 A 2.5820021,2.5820021 0 0 1 37.18347,30.46111 c -3.83e-4,-0.01813 -10e-4,-0.03607 -10e-4,-0.05426 v -3.98632 c 10e-7,-0.01819 6.5e-4,-0.03613 10e-4,-0.05426 a 2.5820021,2.5820021 0 0 1 0.03721,-0.385505 c 0.0099,-0.05774 0.02147,-0.11495 0.03514,-0.171566 a 2.5820021,2.5820021 0 0 1 0.06201,-0.215491 c 0.04253,-0.127652 0.09444,-0.251582 0.155029,-0.37052 a 2.5820021,2.5820021 0 0 1 0.01499,-0.02997 c 5.36e-4,-0.001 0.001,-0.0021 0.0016,-0.0031 0.05246,-0.09961 0.111607,-0.195416 0.1757,-0.287321 a 2.5820021,2.5820021 0 0 1 0.126607,-0.167431 c 0.03752,-0.04579 0.07641,-0.09019 0.116789,-0.133326 a 2.5820021,2.5820021 0 0 1 0.301273,-0.273885 c -5.12e-4,-3.48e-4 -10e-4,-6.85e-4 -0.0015,-10e-4 0.420547,-0.329579 0.940695,-0.529127 1.504301,-0.529167 z" />
      <path
         id="path35"
         style="fill:#8e9eb8;fill-opacity:1;stroke:#536583;stroke-width:0.529167;stroke-linecap:square;stroke-linejoin:round;stroke-miterlimit:4.7;stroke-dasharray:none;stroke-opacity:1"
         d="m 42.720049,23.797924 v 0.0925 c 0.881642,6.2e-5 1.657547,0.45149 2.110465,1.135331 a 2.5820021,2.5820021 0 0 1 0.08372,0.135909 c 0.0133,0.02313 0.0267,0.04618 0.03927,0.06976 a 2.5820021,2.5820021 0 0 1 0.276986,1.148251 v 4.067452 a 2.5820021,2.5820021 0 0 0 0,5.17e-4 2.5820021,2.5820021 0 0 1 -0.275952,1.145149 c -0.01382,0.02598 -0.0282,0.05157 -0.04289,0.077 a 2.5820021,2.5820021 0 0 1 -0.09302,0.150895 l -5.17e-4,5.17e-4 c -0.454677,0.672985 -1.224763,1.115632 -2.098063,1.115694 v 0.0925 h 2.955892 0.05168 c 0.564006,-4e-5 1.084631,-0.199686 1.505335,-0.529683 -6.33e-4,-4.3e-4 -0.0014,-6.03e-4 -0.0021,-10e-4 a 2.5820021,2.5820021 0 0 0 0.30334,-0.275952 c 0.03783,-0.04052 0.07424,-0.08221 0.109554,-0.125057 a 2.5820021,2.5820021 0 0 0 0.134876,-0.1788 c 0.06159,-0.08878 0.118724,-0.181042 0.169498,-0.276986 a 2.5820021,2.5820021 0 0 0 0.04392,-0.08785 c 0.0053,-0.0109 0.01089,-0.02158 0.01602,-0.03256 0.043,-0.09205 0.0802,-0.187266 0.112655,-0.284221 a 2.5820021,2.5820021 0 0 0 0.06408,-0.221691 c 0.01337,-0.05562 0.02486,-0.111764 0.03462,-0.168466 a 2.5820021,2.5820021 0 0 0 0.03721,-0.386023 c 3.83e-4,-0.01813 10e-4,-0.03607 10e-4,-0.05426 v -3.98632 c -10e-7,-0.01819 -6.5e-4,-0.03613 -10e-4,-0.05426 a 2.5820021,2.5820021 0 0 0 -0.03721,-0.385505 c -0.0099,-0.05774 -0.02147,-0.11495 -0.03514,-0.171566 a 2.5820021,2.5820021 0 0 0 -0.06201,-0.215491 c -0.04253,-0.127652 -0.09444,-0.251582 -0.155029,-0.37052 a 2.5820021,2.5820021 0 0 0 -0.01499,-0.02997 c -5.36e-4,-0.001 -0.001,-0.0021 -0.0016,-0.0031 -0.05246,-0.09961 -0.111607,-0.195416 -0.1757,-0.287321 a 2.5820021,2.5820021 0 0 0 -0.126607,-0.167431 c -0.03752,-0.04579 -0.07641,-0.09019 -0.116789,-0.133326 A 2.5820021,2.5820021 0 0 0 47.23028,24.328155 c 5.12e-4,-3.48e-4 10e-4,-6.85e-4 0.0015,-10e-4 -0.420547,-0.329579 -0.940695,-0.529127 -1.504301,-0.529167 z" />
    </g>
    <path
       id="path121"
       style="fill:#8e9eb8;fill-opacity:1;stroke:#536583;stroke-width:0.529166;stroke-linecap:round;stroke-linejoin:round;stroke-miterlimit:4.7;stroke-dasharray:none;stroke-opacity:1;paint-order:normal"
       d="m 38.390478,31.422479 v 4.031062 h 1.513566 1.513572 v -4.031062 h -1.513572 z" />
    <path
       id="path122"
       style="fill:#8e9eb8;fill-opacity:1;stroke:#536583;stroke-width:0.529166;stroke-linecap:round;stroke-linejoin:round;stroke-miterlimit:4.7;stroke-dasharray:none;stroke-opacity:1;paint-order:normal"
       d="m 46.438498,31.422479 v 4.031062 h 1.513566 1.513572 v -4.031062 h -1.513572 z" />
    <path
       id="path14-3"
       style="fill:#8e9eb8;fill-opacity:1;stroke:#536583;stroke-width:0.529166;stroke-linecap:round;stroke-linejoin:round;stroke-miterlimit:4.7;stroke-dasharray:none;stroke-opacity:1;paint-order:normal"
       d="m 50.274013,31.422479 v 4.031062 h 1.513566 1.513572 v -4.031062 h -1.513572 z" />
    <g
       id="g154">
      <g
         id="g153"
         transform="matrix(1.0912597,0,0,1,-24.426432,-3.4586486)"
         style="stroke-width:0.957273">
        <path
           style="fill:#536583;fill-opacity:1;stroke:none;stroke-width:0.253278px;stroke-linecap:butt;stroke-linejoin:miter;stroke-opacity:1"
           d="m 50.507338,39.017321 0.664026,1.515516 1.776784,0.442932 1.391328,0.703504 0.486012,0.959892 0.02243,0.31404 h 0.87231 l 0.0027,-1.816397 -0.54262,-1.075746 L 53.5328,38.11382 51.481569,36.500279 h -0.971875 z"
           id="path139"
           sodipodi:nodetypes="ccccccccccccc" />
        <path
           id="path25-3"
           style="fill:#536583;fill-opacity:1;stroke:#536583;stroke-width:0.506556;stroke-linecap:square;stroke-linejoin:miter;stroke-miterlimit:4.7;stroke-dasharray:none;stroke-opacity:1;paint-order:normal"
           d="m 58.248836,45.574304 v -0.09249 c -1.396472,-9.9e-5 -2.528513,-1.13214 -2.528612,-2.528613 h -0.87231 c -9.9e-5,1.396474 -1.132139,2.528514 -2.528613,2.528613 v 0.09249 z"
           sodipodi:nodetypes="ccccccc" />
        <path
           style="fill:none;stroke:#536583;stroke-width:0.506557;stroke-linecap:butt;stroke-linejoin:miter;stroke-dasharray:none;stroke-opacity:1"
           d="m 51.925101,36.500279 c 0,0 3.797823,2.620906 3.797823,4.636525"
           id="path133"
           sodipodi:nodetypes="cc" />
        <path
           style="fill:none;stroke:#536583;stroke-width:0.506557;stroke-linecap:butt;stroke-linejoin:miter;stroke-dasharray:none;stroke-opacity:1"
           d="m 50.507338,39.017321 c 0,0 -0.07129,0.927488 0.546548,1.416529 0.803435,0.635946 1.911802,0.565583 2.863233,1.118617 1.153261,0.67035 0.911536,1.575992 0.911536,1.575992"
           id="path141"
           sodipodi:nodetypes="cssc" />
        <path
           style="fill:none;stroke:#536583;stroke-width:0.506557;stroke-linecap:butt;stroke-linejoin:miter;stroke-dasharray:none;stroke-opacity:1"
           d="m 55.722928,41.136808 -0.0027,1.816393"
           id="path143" />
        <path
           style="fill:none;stroke:#536583;stroke-width:0.506556;stroke-linecap:butt;stroke-linejoin:miter;stroke-dasharray:none;stroke-opacity:1"
           d="m 50.507338,39.1866 0.0027,-3.079032"
           id="path142" />
      </g>
      <path
         style="fill:#8e9eb8;fill-opacity:1;stroke:none;stroke-width:0.264583px;stroke-linecap:butt;stroke-linejoin:miter;stroke-opacity:1"
         d="m 30.689958,35.547373 0.664026,1.515516 1.776784,0.442932 1.391328,0.703504 0.486012,0.959892 0.02243,0.31404 h 0.87231 l 0.0027,-1.816397 -0.54262,-1.075746 -1.647508,-1.947242 -2.051231,-1.613541 h -0.971875 z"
         id="path146"
         sodipodi:nodetypes="ccccccccccccc" />
      <path
         id="path99"
         style="fill:#536583;fill-opacity:1;stroke:#536583;stroke-width:0.529168;stroke-linecap:square;stroke-linejoin:miter;stroke-miterlimit:4.7;stroke-dasharray:none;stroke-opacity:1;paint-order:normal"
         d="m 25.882205,26.272285 v 13.21108 h 0.912844 0.912846 v -13.21108 h -0.912846 z" />
      <path
         id="path101"
         style="fill:#536583;fill-opacity:1;stroke:#536583;stroke-width:0.529168;stroke-linecap:square;stroke-linejoin:miter;stroke-miterlimit:4.7;stroke-dasharray:none;stroke-opacity:1;paint-order:normal"
         d="m 24.148927,32.831198 v 0.09249 c 1.461384,9.9e-5 2.646044,1.13214 2.646148,2.528612 h 0.912857 c 1.03e-4,-1.396474 1.184763,-2.441826 2.64615,-2.441924 v -0.179174 z"
         sodipodi:nodetypes="ccccccc" />
      <path
         id="path103"
         style="fill:#536583;fill-opacity:1;stroke:#536583;stroke-width:0.529168;stroke-linecap:square;stroke-linejoin:miter;stroke-miterlimit:4.7;stroke-dasharray:none;stroke-opacity:1;paint-order:normal"
         d="m 24.148927,42.104355 v -0.09249 c 1.461384,-9.9e-5 2.646044,-1.132139 2.646148,-2.528612 h 0.912857 c 1.03e-4,1.396473 1.184763,2.528513 2.64615,2.528612 v 0.09249 z"
         sodipodi:nodetypes="ccccccc" />
      <g
         id="g107"
         transform="matrix(1.0458762,0,0,0.99942071,10.004083,9.094353)"
         style="fill:#536583;fill-opacity:1;stroke:#536583;stroke-width:0.51758;stroke-linecap:square;stroke-linejoin:miter;stroke-dasharray:none;stroke-opacity:1;paint-order:normal">
        <path
           id="path104"
           style="fill:#536583;fill-opacity:1;stroke:#536583;stroke-width:0.51758;stroke-linecap:square;stroke-linejoin:miter;stroke-miterlimit:4.7;stroke-dasharray:none;stroke-opacity:1;paint-order:normal"
           d="m 12.651423,14.713026 v 0.09254 c 1.397282,9.9e-5 2.529979,1.132796 2.530078,2.530078 h 0.872815 c 9.9e-5,-1.397283 1.132796,-2.263962 2.530079,-2.264061 v -0.358557 z"
           sodipodi:nodetypes="ccccccc" />
        <path
           id="path105"
           style="fill:#536583;fill-opacity:1;stroke:#536583;stroke-width:0.51758;stroke-linecap:square;stroke-linejoin:miter;stroke-miterlimit:4.7;stroke-dasharray:none;stroke-opacity:1;paint-order:normal"
           d="m 18.584552,33.029136 v -0.09254 C 17.18727,32.936497 16.054573,31.8038 16.054474,30.406518 h -0.872815 c -9.9e-5,1.397283 -1.132796,2.529979 -2.530079,2.530078 v 0.09254 z"
           sodipodi:nodetypes="ccccccc" />
        <path
           id="path106"
           style="fill:#536583;fill-opacity:1;stroke:#536583;stroke-width:0.51758;stroke-linecap:square;stroke-linejoin:miter;stroke-miterlimit:4.7;stroke-dasharray:none;stroke-opacity:1;paint-order:normal"
           d="m 18.571981,23.843145 v -0.09254 c -1.397282,-9.9e-5 -2.529979,-1.132796 -2.530078,-2.530078 h -0.872815 c -9.9e-5,1.397283 -1.132796,2.529979 -2.530079,2.530078 v 0.09254 z"
           sodipodi:nodetypes="ccccccc" />
        <path
           id="path107"
           style="fill:#536583;fill-opacity:1;stroke:#536583;stroke-width:0.51758;stroke-linecap:square;stroke-linejoin:miter;stroke-miterlimit:4.7;stroke-dasharray:none;stroke-opacity:1;paint-order:normal"
           d="m 18.571981,23.750605 v 0.09254 c -1.397282,9.9e-5 -2.529979,1.132796 -2.530078,2.530078 h -0.872815 c -9.9e-5,-1.397283 -1.132796,-2.529979 -2.530079,-2.530078 v -0.09254 z"
           sodipodi:nodetypes="ccccccc" />
      </g>
      <g
         id="g109"
         transform="matrix(1.0464824,0,0,1,-1.3640813,0.00186227)"
         style="fill:#536583;fill-opacity:1;stroke:#536583;stroke-width:0.517282;stroke-linecap:square;stroke-linejoin:miter;stroke-dasharray:none;stroke-opacity:1;paint-order:normal">
        <path
           id="path108"
           style="fill:#536583;fill-opacity:1;stroke:#536583;stroke-width:0.517282;stroke-linecap:square;stroke-linejoin:miter;stroke-miterlimit:4.7;stroke-dasharray:none;stroke-opacity:1;paint-order:normal"
           d="m 31.429423,23.796994 v 0.0925 c -0.39191,2.8e-5 -0.762927,0.08925 -1.093967,0.248421 -0.413668,0.198906 -0.764913,0.507052 -1.016498,0.88691 -0.0293,0.04443 -0.05722,0.08975 -0.08372,0.135909 -0.0133,0.02313 -0.0267,0.04618 -0.03927,0.06976 -0.179813,0.356206 -0.274622,0.74924 -0.276986,1.148251 v 4.067452 5.17e-4 c 0.0025,0.39788 0.09696,0.789794 0.275952,1.145149 0.01382,0.02598 0.0282,0.05157 0.04289,0.077 0.02927,0.05135 0.06029,0.101676 0.09302,0.150895 l 5.17e-4,5.17e-4 c 0.454677,0.672985 1.224763,1.115632 2.098063,1.115694 v 0.0925 h -2.955892 -0.05168 c -0.564006,-4e-5 -1.084631,-0.199686 -1.505335,-0.529683 6.33e-4,-4.3e-4 0.0014,-6.03e-4 0.0021,-0.001 -0.10827,-0.0838 -0.209703,-0.176071 -0.30334,-0.275952 -0.03783,-0.04052 -0.07424,-0.08221 -0.109554,-0.125057 -0.04752,-0.05762 -0.09252,-0.117277 -0.134876,-0.1788 -0.06159,-0.08878 -0.118724,-0.181042 -0.169498,-0.276986 -0.0152,-0.029 -0.02984,-0.05829 -0.04392,-0.08785 -0.0053,-0.0109 -0.01089,-0.02158 -0.01602,-0.03256 -0.043,-0.09205 -0.0802,-0.187266 -0.112654,-0.284221 -0.02465,-0.07291 -0.04603,-0.146876 -0.06408,-0.221691 -0.01337,-0.05562 -0.02486,-0.111764 -0.03462,-0.168466 -0.02206,-0.12756 -0.0345,-0.256598 -0.03721,-0.386023 -3.83e-4,-0.01813 -0.001,-0.03607 -0.001,-0.05426 V 26.4196 c 1e-6,-0.01819 6.5e-4,-0.03613 0.001,-0.05426 0.0027,-0.129252 0.01517,-0.258116 0.03721,-0.385505 0.0099,-0.05774 0.02147,-0.11495 0.03514,-0.171566 0.01754,-0.07269 0.03823,-0.144593 0.06201,-0.215491 0.04253,-0.127652 0.09444,-0.251582 0.155029,-0.37052 0.0049,-0.01002 0.0099,-0.02001 0.01499,-0.02997 5.35e-4,-0.001 0.001,-0.0021 0.0016,-0.0031 0.05246,-0.09961 0.111607,-0.195416 0.1757,-0.287321 0.03992,-0.0575 0.08215,-0.11336 0.126607,-0.167431 0.03752,-0.04579 0.07641,-0.09019 0.116789,-0.133326 0.09306,-0.09908 0.193796,-0.190663 0.301273,-0.273885 -5.12e-4,-3.48e-4 -0.001,-6.85e-4 -0.0015,-10e-4 0.420547,-0.329579 0.940695,-0.529127 1.504301,-0.529167 z"
           sodipodi:nodetypes="ccsccccccccccccccccccccccccccsccccccccccccccc" />
        <path
           id="path109"
           style="fill:#536583;fill-opacity:1;stroke:#536583;stroke-width:0.517282;stroke-linecap:square;stroke-linejoin:miter;stroke-miterlimit:4.7;stroke-dasharray:none;stroke-opacity:1;paint-order:normal"
           d="m 31.56123,23.796994 v 0.0925 c 0.881642,6.2e-5 1.657547,0.45149 2.110465,1.135331 a 2.5820021,2.5820021 0 0 1 0.08372,0.135909 c 0.0133,0.02313 0.0267,0.04618 0.03927,0.06976 a 2.5820021,2.5820021 0 0 1 0.276986,1.148251 v 4.067452 a 2.5820021,2.5820021 0 0 0 0,5.17e-4 2.5820021,2.5820021 0 0 1 -0.275952,1.145149 c -0.01382,0.02598 -0.0282,0.05157 -0.04289,0.077 a 2.5820021,2.5820021 0 0 1 -0.09302,0.150895 l -5.17e-4,5.17e-4 c -0.454677,0.672985 -1.224763,1.115632 -2.098063,1.115694 v 0.0925 h 2.955892 0.05168 c 0.564006,-4e-5 1.084631,-0.199686 1.505335,-0.529683 -6.33e-4,-4.3e-4 -0.0014,-6.03e-4 -0.0021,-0.001 a 2.5820021,2.5820021 0 0 0 0.30334,-0.275952 c 0.03783,-0.04052 0.07424,-0.08221 0.109554,-0.125057 a 2.5820021,2.5820021 0 0 0 0.134876,-0.1788 c 0.06159,-0.08878 0.118724,-0.181042 0.169498,-0.276986 a 2.5820021,2.5820021 0 0 0 0.04392,-0.08785 c 0.0053,-0.0109 0.01089,-0.02158 0.01602,-0.03256 0.043,-0.09205 0.0802,-0.187266 0.112655,-0.284221 a 2.5820021,2.5820021 0 0 0 0.06408,-0.221691 c 0.01337,-0.05562 0.02486,-0.111764 0.03462,-0.168466 a 2.5820021,2.5820021 0 0 0 0.03721,-0.386023 c 3.83e-4,-0.01813 0.001,-0.03607 0.001,-0.05426 V 26.4196 c -1e-6,-0.01819 -6.5e-4,-0.03613 -0.001,-0.05426 a 2.5820021,2.5820021 0 0 0 -0.03721,-0.385505 c -0.0099,-0.05774 -0.02147,-0.11495 -0.03514,-0.171566 a 2.5820021,2.5820021 0 0 0 -0.06201,-0.215491 c -0.04253,-0.127652 -0.09444,-0.251582 -0.155029,-0.37052 a 2.5820021,2.5820021 0 0 0 -0.01499,-0.02997 c -5.36e-4,-0.001 -10e-4,-0.0021 -0.0016,-0.0031 -0.05246,-0.09961 -0.111607,-0.195416 -0.1757,-0.287321 a 2.5820021,2.5820021 0 0 0 -0.126607,-0.167431 c -0.03752,-0.04579 -0.07641,-0.09019 -0.116789,-0.133326 a 2.5820021,2.5820021 0 0 0 -0.301273,-0.273885 c 5.12e-4,-3.48e-4 10e-4,-6.85e-4 0.0015,-10e-4 -0.420547,-0.329579 -0.940695,-0.529127 -1.504301,-0.529167 z" />
      </g>
      <path
         id="path19"
         style="fill:#8e9eb8;fill-opacity:1;stroke:#536583;stroke-width:0.529167;stroke-linecap:square;stroke-linejoin:miter;stroke-miterlimit:4.7;stroke-dasharray:none;stroke-opacity:1;paint-order:normal"
         d="m 22.795348,42.10435 v -0.09249 c 1.396473,-9.9e-5 2.528513,-1.132139 2.528612,-2.528612 h 1.935967 c 9.9e-5,1.396473 1.132139,2.528513 2.528614,2.528612 v 0.09249 z"
         sodipodi:nodetypes="ccccccc" />
      <path
         id="path17"
         style="fill:#8e9eb8;fill-opacity:1;stroke:#536583;stroke-width:0.529167;stroke-linecap:square;stroke-linejoin:miter;stroke-miterlimit:4.7;stroke-dasharray:none;stroke-opacity:1;paint-order:normal"
         d="m 22.80622,32.831199 v 0.09249 c 1.396473,9.9e-5 2.528513,1.13214 2.528612,2.528612 h 1.896372 c 9.9e-5,-1.396474 1.132139,-2.441826 2.528614,-2.441924 v -0.179174 z"
         sodipodi:nodetypes="ccccccc" />
      <path
         id="path16"
         style="fill:#8e9eb8;fill-opacity:1;stroke:#536583;stroke-width:0.529167;stroke-linecap:square;stroke-linejoin:miter;stroke-miterlimit:4.7;stroke-dasharray:none;stroke-opacity:1;paint-order:normal"
         d="m 23.667816,23.798849 v 0.09249 c 1.396472,9.8e-5 2.528514,1.132139 2.528613,2.528612 h 0.872308 c 10e-5,-1.396474 1.132141,-2.26265 2.528614,-2.26275 v -0.358349 z"
         sodipodi:nodetypes="ccccccc" />
      <path
         id="path18"
         style="fill:#8e9eb8;fill-opacity:1;stroke:#536583;stroke-width:0.529167;stroke-linecap:square;stroke-linejoin:miter;stroke-miterlimit:4.7;stroke-dasharray:none;stroke-opacity:1;paint-order:normal"
         d="m 23.667659,32.877438 v -0.09249 c 1.396473,-9.9e-5 2.528513,-1.13214 2.528612,-2.528612 h 0.87231 c 9.9e-5,1.396473 1.128008,2.441665 2.524481,2.441765 l 0.0041,0.179334 z"
         sodipodi:nodetypes="ccccccc" />
      <path
         id="path28"
         style="fill:#8e9eb8;fill-opacity:1;stroke:#536583;stroke-width:0.529166;stroke-linecap:square;stroke-linejoin:miter;stroke-miterlimit:4.7;stroke-dasharray:none;stroke-opacity:1;paint-order:normal"
         d="m 28.724884,32.831091 v 0.09249 c -1.396472,9.9e-5 -2.528514,1.13214 -2.528613,2.528613 h -0.872309 c -9.9e-5,-1.396474 -1.13214,-2.528514 -2.528614,-2.528613 v -0.09249 z"
         sodipodi:nodetypes="ccccccc" />
      <path
         id="path24"
         style="fill:#8e9eb8;fill-opacity:1;stroke:#536583;stroke-width:0.529166;stroke-linecap:square;stroke-linejoin:miter;stroke-miterlimit:4.7;stroke-dasharray:none;stroke-opacity:1;paint-order:normal"
         d="m 22.795348,23.79885 v 0.09249 c 1.396473,9.9e-5 2.528514,1.132139 2.528613,2.528612 h 0.872309 c 9.9e-5,-1.396474 1.13214,-2.26265 2.528613,-2.262749 v -0.35835 z"
         sodipodi:nodetypes="ccccccc" />
      <path
         id="path25"
         style="fill:#8e9eb8;fill-opacity:1;stroke:#536583;stroke-width:0.529166;stroke-linecap:square;stroke-linejoin:miter;stroke-miterlimit:4.7;stroke-dasharray:none;stroke-opacity:1;paint-order:normal"
         d="m 28.724883,42.10435 v -0.09249 c -1.396472,-9.9e-5 -2.528513,-1.13214 -2.528612,-2.528613 h -0.87231 c -9.9e-5,1.396474 -1.132139,2.528514 -2.528613,2.528613 v 0.09249 z"
         sodipodi:nodetypes="ccccccc" />
      <path
         id="path26"
         style="fill:#8e9eb8;fill-opacity:1;stroke:#536583;stroke-width:0.529166;stroke-linecap:square;stroke-linejoin:miter;stroke-miterlimit:4.7;stroke-dasharray:none;stroke-opacity:1;paint-order:normal"
         d="m 28.724884,32.923577 v -0.09249 c -1.396472,-9.9e-5 -2.528514,-1.13214 -2.528613,-2.528612 h -0.872309 c -9.9e-5,1.396473 -1.13214,2.528513 -2.528614,2.528612 v 0.09249 z"
         sodipodi:nodetypes="ccccccc" />
      <g
         id="g30"
         transform="translate(-0.71211808,0.00185663)"
         style="fill:#8e9eb8;fill-opacity:1;stroke:#536583;stroke-width:0.529167;stroke-linecap:square;stroke-linejoin:miter;stroke-dasharray:none;stroke-opacity:1;paint-order:normal">
        <path
           id="path30"
           style="fill:#8e9eb8;fill-opacity:1;stroke:#536583;stroke-width:0.529167;stroke-linecap:square;stroke-linejoin:miter;stroke-miterlimit:4.7;stroke-dasharray:none;stroke-opacity:1;paint-order:normal"
           d="m 31.56123,23.796994 v 0.0925 c 0.881642,6.2e-5 1.657547,0.45149 2.110465,1.135331 a 2.5820021,2.5820021 0 0 1 0.08372,0.135909 c 0.0133,0.02313 0.0267,0.04618 0.03927,0.06976 a 2.5820021,2.5820021 0 0 1 0.276986,1.148251 v 4.067452 a 2.5820021,2.5820021 0 0 0 0,5.17e-4 2.5820021,2.5820021 0 0 1 -0.275952,1.145149 c -0.01382,0.02598 -0.0282,0.05157 -0.04289,0.077 a 2.5820021,2.5820021 0 0 1 -0.09302,0.150895 l -5.17e-4,5.17e-4 c -0.454677,0.672985 -1.224763,1.115632 -2.098063,1.115694 v 0.0925 h 2.955892 0.05168 c 0.564006,-4e-5 1.084631,-0.199686 1.505335,-0.529683 -6.33e-4,-4.3e-4 -0.0014,-6.03e-4 -0.0021,-0.001 a 2.5820021,2.5820021 0 0 0 0.30334,-0.275952 c 0.03783,-0.04052 0.07424,-0.08221 0.109554,-0.125057 a 2.5820021,2.5820021 0 0 0 0.134876,-0.1788 c 0.06159,-0.08878 0.118724,-0.181042 0.169498,-0.276986 a 2.5820021,2.5820021 0 0 0 0.04392,-0.08785 c 0.0053,-0.0109 0.01089,-0.02158 0.01602,-0.03256 0.043,-0.09205 0.0802,-0.187266 0.112655,-0.284221 a 2.5820021,2.5820021 0 0 0 0.06408,-0.221691 c 0.01337,-0.05562 0.02486,-0.111764 0.03462,-0.168466 a 2.5820021,2.5820021 0 0 0 0.03721,-0.386023 c 3.83e-4,-0.01813 0.001,-0.03607 0.001,-0.05426 V 26.4196 c -1e-6,-0.01819 -6.5e-4,-0.03613 -0.001,-0.05426 a 2.5820021,2.5820021 0 0 0 -0.03721,-0.385505 c -0.0099,-0.05774 -0.02147,-0.11495 -0.03514,-0.171566 a 2.5820021,2.5820021 0 0 0 -0.06201,-0.215491 c -0.04253,-0.127652 -0.09444,-0.251582 -0.155029,-0.37052 a 2.5820021,2.5820021 0 0 0 -0.01499,-0.02997 c -5.36e-4,-0.001 -10e-4,-0.0021 -0.0016,-0.0031 -0.05246,-0.09961 -0.111607,-0.195416 -0.1757,-0.287321 a 2.5820021,2.5820021 0 0 0 -0.126607,-0.167431 c -0.03752,-0.04579 -0.07641,-0.09019 -0.116789,-0.133326 a 2.5820021,2.5820021 0 0 0 -0.301273,-0.273885 c 5.12e-4,-3.48e-4 10e-4,-6.85e-4 0.0015,-10e-4 -0.420547,-0.329579 -0.940695,-0.529127 -1.504301,-0.529167 z" />
      </g>
      <path
         id="path31"
         style="fill:#8e9eb8;fill-opacity:1;stroke:#536583;stroke-width:0.529167;stroke-linecap:round;stroke-linejoin:round;stroke-miterlimit:4.7;stroke-dasharray:none;stroke-opacity:1"
         d="m 30.861528,23.798849 v 0.0925 c -0.881642,6.2e-5 -1.657547,0.45149 -2.110465,1.135331 a 2.5820021,2.5820021 0 0 0 -0.08372,0.135909 c -0.0133,0.02313 -0.0267,0.04618 -0.03927,0.06976 A 2.5820021,2.5820021 0 0 0 28.351087,26.3806 v 4.067452 a 2.5820021,2.5820021 0 0 1 0,5.17e-4 2.5820021,2.5820021 0 0 0 0.275952,1.145149 c 0.01382,0.02598 0.0282,0.05157 0.04289,0.077 a 2.5820021,2.5820021 0 0 0 0.09302,0.150895 l 5.17e-4,5.17e-4 c 0.454677,0.672985 1.224763,1.115632 2.098063,1.115694 v 0.0925 h -2.955892 -0.05168 c -0.564006,-4e-5 -1.084631,-0.199686 -1.505335,-0.529683 6.33e-4,-4.3e-4 0.0014,-6.03e-4 0.0021,-0.001 a 2.5820021,2.5820021 0 0 1 -0.30334,-0.275952 c -0.03783,-0.04052 -0.07424,-0.08221 -0.109554,-0.125057 a 2.5820021,2.5820021 0 0 1 -0.134876,-0.1788 c -0.06159,-0.08878 -0.118724,-0.181042 -0.169498,-0.276986 a 2.5820021,2.5820021 0 0 1 -0.04392,-0.08785 c -0.0053,-0.0109 -0.01089,-0.02158 -0.01602,-0.03256 -0.043,-0.09205 -0.0802,-0.187266 -0.112655,-0.284221 a 2.5820021,2.5820021 0 0 1 -0.06408,-0.221691 c -0.01337,-0.05562 -0.02486,-0.111764 -0.03462,-0.168466 a 2.5820021,2.5820021 0 0 1 -0.03721,-0.386023 c -3.83e-4,-0.01813 -0.001,-0.03607 -0.001,-0.05426 v -3.98632 c 1e-6,-0.01819 6.5e-4,-0.03613 0.001,-0.05426 a 2.5820021,2.5820021 0 0 1 0.03721,-0.385505 c 0.0099,-0.05774 0.02147,-0.11495 0.03514,-0.171566 a 2.5820021,2.5820021 0 0 1 0.06201,-0.215491 c 0.04253,-0.127652 0.09444,-0.251582 0.155029,-0.37052 a 2.5820021,2.5820021 0 0 1 0.01499,-0.02997 c 5.36e-4,-0.001 10e-4,-0.0021 0.0016,-0.0031 0.05246,-0.09961 0.111607,-0.195416 0.1757,-0.287321 a 2.5820021,2.5820021 0 0 1 0.126607,-0.167431 c 0.03752,-0.04579 0.07641,-0.09019 0.116789,-0.133326 a 2.5820021,2.5820021 0 0 1 0.301273,-0.273885 c -5.12e-4,-3.48e-4 -10e-4,-6.85e-4 -0.0015,-0.001 0.420547,-0.329579 0.940695,-0.529127 1.504301,-0.529167 z" />
      <path
         id="path14"
         style="fill:#8e9eb8;fill-opacity:1;stroke:#536583;stroke-width:0.529166;stroke-linecap:square;stroke-linejoin:miter;stroke-miterlimit:4.7;stroke-dasharray:none;stroke-opacity:1;paint-order:normal"
         d="m 25.311399,35.4523 v 4.031062 H 26.2713 27.231204 V 35.4523 H 26.2713 Z" />
      <path
         id="path147"
         style="fill:#8e9eb8;fill-opacity:1;stroke:#536583;stroke-width:0.529166;stroke-linecap:square;stroke-linejoin:miter;stroke-miterlimit:4.7;stroke-dasharray:none;stroke-opacity:1;paint-order:normal"
         d="m 38.431456,42.104356 v -0.09249 c -1.396472,-9.9e-5 -2.528513,-1.13214 -2.528612,-2.528613 h -0.87231 c -9.9e-5,1.396474 -1.132139,2.528514 -2.528613,2.528613 v 0.09249 z"
         sodipodi:nodetypes="ccccccc" />
      <path
         id="path119"
         style="fill:#8e9eb8;fill-opacity:1;stroke:#536583;stroke-width:0.529166;stroke-linecap:round;stroke-linejoin:round;stroke-miterlimit:4.7;stroke-dasharray:none;stroke-opacity:1;paint-order:normal"
         d="m 25.32395,26.399055 v 4.031062 h 1.513566 1.513572 v -4.031062 h -1.513572 z" />
      <path
         id="path120"
         style="fill:#8e9eb8;fill-opacity:1;stroke:#536583;stroke-width:0.529166;stroke-linecap:round;stroke-linejoin:round;stroke-miterlimit:4.7;stroke-dasharray:none;stroke-opacity:1;paint-order:normal"
         d="m 33.359553,26.399055 v 4.031062 h 1.513566 1.513572 v -4.031062 h -1.513572 z" />
      <path
         style="fill:none;stroke:#536583;stroke-width:0.529167;stroke-linecap:butt;stroke-linejoin:miter;stroke-dasharray:none;stroke-opacity:1"
         d="m 26.189972,35.452191 v 4.031171"
         id="path118" />
      <path
         style="fill:none;stroke:#536583;stroke-width:0.529167;stroke-linecap:butt;stroke-linejoin:miter;stroke-dasharray:none;stroke-opacity:1"
         d="m 31.271719,32.92627 c 0,0 4.633825,2.724967 4.633825,4.740586"
         id="path148"
         sodipodi:nodetypes="cc" />
      <path
         style="fill:none;stroke:#536583;stroke-width:0.529167;stroke-linecap:butt;stroke-linejoin:miter;stroke-dasharray:none;stroke-opacity:1"
         d="m 30.689958,35.547373 c 0,0 -0.07129,0.927488 0.546548,1.416529 0.803435,0.635946 1.911802,0.565583 2.863233,1.118617 1.153261,0.67035 0.911536,1.575992 0.911536,1.575992"
         id="path149"
         sodipodi:nodetypes="cssc" />
      <path
         style="fill:none;stroke:#536583;stroke-width:0.529167;stroke-linecap:butt;stroke-linejoin:miter;stroke-dasharray:none;stroke-opacity:1"
         d="m 35.905548,37.66686 -0.0027,1.816393"
         id="path150" />
      <path
         style="fill:none;stroke:#536583;stroke-width:0.529166;stroke-linecap:butt;stroke-linejoin:miter;stroke-dasharray:none;stroke-opacity:1"
         d="m 34.634577,35.453541 -3.944529,-0.0027"
         id="path151" />
      <path
         style="fill:none;stroke:#536583;stroke-width:0.529166;stroke-linecap:butt;stroke-linejoin:miter;stroke-dasharray:none;stroke-opacity:1"
         d="m 30.689958,35.716652 0.0027,-3.079032"
         id="path152" />
      <path
         style="fill:none;stroke:#536583;stroke-width:0.529167;stroke-linecap:butt;stroke-linejoin:miter;stroke-dasharray:none;stroke-opacity:1"
         d="m 32.662221,35.548727 c 0,0 -0.149154,0.572145 0.991643,1.223804 1.373041,0.784324 1.376674,2.710726 1.376674,2.710726"
         id="path153"
         sodipodi:nodetypes="csc" />
    </g>
  </g>
</svg>
