<?xml version="1.0" encoding="UTF-8" standalone="no"?>
<!-- Created with Inkscape (http://www.inkscape.org/) -->

<svg
   width="421.32291mm"
   height="421.32291mm"
   viewBox="0 0 421.32291 421.32291"
   version="1.1"
   id="svg1"
   inkscape:version="1.3 (0e150ed6c4, 2023-07-21)"
   sodipodi:docname="Portfolio_workPreviewElement_Museum.svg"
   xmlns:inkscape="http://www.inkscape.org/namespaces/inkscape"
   xmlns:sodipodi="http://sodipodi.sourceforge.net/DTD/sodipodi-0.dtd"
   xmlns="http://www.w3.org/2000/svg"
   xmlns:svg="http://www.w3.org/2000/svg">
  <sodipodi:namedview
     id="namedview1"
     pagecolor="#505050"
     bordercolor="#000000"
     borderopacity="1"
     inkscape:showpageshadow="0"
     inkscape:pageopacity="0"
     inkscape:pagecheckerboard="0"
     inkscape:deskcolor="#4c4c4c"
     inkscape:document-units="mm"
     borderlayer="false"
     inkscape:zoom="0.25"
     inkscape:cx="422"
     inkscape:cy="790"
     inkscape:window-width="1920"
     inkscape:window-height="1009"
     inkscape:window-x="-8"
     inkscape:window-y="-8"
     inkscape:window-maximized="1"
     inkscape:current-layer="layer1" />
  <defs
     id="defs1" />
  <g
     inkscape:label="Слой 1"
     inkscape:groupmode="layer"
     id="layer1"
     transform="translate(0.66145831,-31.420081)">
    <rect
       style="fill:none;fill-opacity:1;stroke:#808080;stroke-width:1.32292;stroke-linecap:round;stroke-linejoin:round;stroke-miterlimit:4.7;stroke-dasharray:none;stroke-opacity:1"
       id="rect1"
       width="420"
       height="420"
       x="0"
       y="32.081539"
       ry="11.775356"
       rx="11.775356" />
    <path
       id="path7"
       style="fill:#f0f5f5;fill-opacity:1;stroke:#808080;stroke-width:0.75;stroke-linecap:round;stroke-linejoin:round;stroke-miterlimit:4.7;stroke-dasharray:none"
       d="M 210.0001,32.081539 V 106.07909 242.08164 H 408.15441 420.0002 V 230.23585 106.07909 43.926811 c 0,-6.56239 -5.28339,-11.845272 -11.84579,-11.845272 z" />
    <path
       id="rect14"
       style="fill:#f9f9f9;stroke:#808080;stroke-width:0.75;stroke-linecap:round;stroke-linejoin:round;stroke-miterlimit:4.7;stroke-dasharray:none"
       d="M 11.845272,32.081539 C 5.2828756,32.081539 0,37.364415 0,43.926811 V 242.08164 H 210.0001 V 32.081539 Z" />
    <rect
       style="fill:#f3f5ef;fill-opacity:1;stroke:#808080;stroke-width:1;stroke-linecap:round;stroke-linejoin:round;stroke-miterlimit:4.7;stroke-dasharray:none"
       id="rect2"
       width="420"
       height="210"
       x="0"
       y="242.08154"
       ry="11.845492"
       rx="11.845492" />
    <rect
       style="fill:#f3f5ef;fill-opacity:1;stroke:none;stroke-width:2.63833;stroke-linecap:round;stroke-linejoin:round;stroke-miterlimit:4.7;stroke-dasharray:none"
       id="rect8"
       width="419.24576"
       height="85.109459"
       x="0.37965229"
       y="241.58154"
       ry="0"
       rx="0" />
    <g
       id="g19"
       transform="translate(2.3048351,-7.1992818)">
      <path
         style="fill:#7759a6;fill-opacity:1;stroke:none;stroke-width:2.64583;stroke-linecap:butt;stroke-linejoin:miter;stroke-dasharray:none;stroke-opacity:1"
         d="m 49.84978,170.44943 c 0,0 25.665234,-5.92275 59.72103,-2.96138 34.05579,2.96138 41.40448,2.22103 41.40448,2.22103 0,0 -1.45761,8.02736 -1.45331,12.08457 0.002,2.00701 0.73157,5.97643 0.73157,5.97643 0,0 -26.45684,-7.75848 -45.25355,-8.02023 -18.796711,-0.26175 -54.743831,4.88601 -54.743831,4.88601 z"
         id="path14"
         sodipodi:nodetypes="cscacscc" />
      <path
         style="fill:none;stroke:#a38fc2;stroke-width:5.29167;stroke-linecap:butt;stroke-linejoin:miter;stroke-dasharray:none;stroke-opacity:1"
         d="m 61.249705,120.40541 c -1.342919,11.65728 -6.183432,28.02231 -8.626441,34.12983 -2.443009,6.10752 16.478967,7.4013 16.478967,7.4013 l -2.617507,-51.12867 h -5.40952 c 0,0 0.540686,6.41885 0.174501,9.59754 z"
         id="path15"
         sodipodi:nodetypes="asccca" />
      <path
         style="fill:none;stroke:#c5b9d9;stroke-width:5.29167;stroke-linecap:butt;stroke-linejoin:miter;stroke-dasharray:none;stroke-opacity:1"
         d="m 78.599778,110.67558 c 0,0 3.331546,6.71771 1.110517,22.14153 -2.221032,15.42381 1.110514,26.65235 1.110514,26.65235 h 6.66309 c 0,0 12.462443,-39.80053 9.501071,-44.2972 -2.961373,-4.49668 -18.385192,-4.49668 -18.385192,-4.49668 z"
         id="path16" />
      <path
         style="fill:none;stroke:#7e63aa;stroke-width:5.29167;stroke-linecap:butt;stroke-linejoin:miter;stroke-dasharray:none;stroke-opacity:1"
         d="m 107.85458,112.39415 c 0,0 -9.809543,24.30976 -2.65289,36.8339 4.81921,8.43362 4.68884,9.78236 11.7221,12.84987 7.03326,3.06751 11.59871,-5.44644 11.47532,-7.91425 -0.12339,-2.46781 -3.82511,-10.61159 -6.78648,-12.21566 -2.96137,-1.60408 -10.56668,-2.78281 -9.59195,-15.76406 0.50848,-6.7719 -4.1661,-13.7898 -4.1661,-13.7898 z"
         id="path17"
         sodipodi:nodetypes="csssssc" />
      <path
         style="fill:none;stroke:#ac9ac8;stroke-width:5.29167;stroke-linecap:butt;stroke-linejoin:miter;stroke-dasharray:none;stroke-opacity:1"
         d="m 123.47342,112.53871 c 0,0 13.17868,43.96938 11.57461,47.79449 -1.60408,3.8251 7.74366,4.06312 7.74366,4.06312 0,0 6.61841,-0.93137 5.93484,-3.04757 -5.8306,-18.05038 5.18979,-1.16038 -1.95641,-23.22585 -7.03325,-21.71674 -5.1824,-25.91202 -5.1824,-25.91202 z"
         id="path18"
         sodipodi:nodetypes="cscsscc" />
      <path
         style="fill:#846aae;fill-opacity:1;stroke:none;stroke-width:2.64583;stroke-linecap:butt;stroke-linejoin:miter;stroke-dasharray:none;stroke-opacity:1"
         d="m 96.885303,75.424465 c 0,0 -10.564478,3.841817 -28.099236,12.293814 -17.534763,8.451997 -22.302986,9.066687 -18.765273,12.908501 3.537717,3.84182 11.99747,4.61018 20.149595,4.14916 8.152124,-0.46101 42.298761,-5.839554 57.064881,-1.38306 14.76611,4.45651 16.61187,2.61244 16.61187,2.61244 l 12.61273,-8.144645 c 0,0 -30.22521,-11.832796 -40.22309,-16.135631 -9.99789,-4.302835 -19.351477,-6.300579 -19.351477,-6.300579 z"
         id="path19"
         sodipodi:nodetypes="cssssccsc" />
    </g>
    <path
       style="fill:#39646a;fill-opacity:1;stroke:none;stroke-width:2.64583;stroke-linecap:butt;stroke-linejoin:miter;stroke-dasharray:none;stroke-opacity:1"
       d="m 262.15462,163.25015 c 0,0 25.66523,-5.92275 59.72103,-2.96138 34.05579,2.96138 41.40448,2.22103 41.40448,2.22103 0,0 -1.45761,8.02736 -1.45331,12.08457 0.002,2.00701 0.73157,5.97643 0.73157,5.97643 0,0 -26.45684,-7.75848 -45.25355,-8.02023 -18.79671,-0.26175 -54.74383,4.88601 -54.74383,4.88601 z"
       id="path1"
       sodipodi:nodetypes="cscacscc" />
    <path
       style="fill:none;stroke:#83b1bc;stroke-width:5.29167;stroke-linecap:butt;stroke-linejoin:miter;stroke-dasharray:none;stroke-opacity:1"
       d="m 273.55455,113.20613 c -1.34292,11.65728 -6.18344,28.02231 -8.62645,34.12983 -2.44301,6.10752 16.47897,7.4013 16.47897,7.4013 l -2.61751,-51.12867 h -5.40952 c 0,0 0.54069,6.41885 0.17451,9.59754 z"
       id="path2"
       sodipodi:nodetypes="asccca" />
    <path
       style="fill:none;stroke:#acc9d3;stroke-width:5.29167;stroke-linecap:butt;stroke-linejoin:miter;stroke-dasharray:none;stroke-opacity:1"
       d="m 290.90462,103.4763 c 0,0 3.33154,6.71771 1.11051,22.14153 -2.22103,15.42381 1.11052,26.65235 1.11052,26.65235 h 6.66309 c 0,0 12.46244,-39.80053 9.50107,-44.2972 -2.96137,-4.49668 -18.38519,-4.49668 -18.38519,-4.49668 z"
       id="path3" />
    <path
       style="fill:none;stroke:#5a96a6;stroke-width:5.29167;stroke-linecap:butt;stroke-linejoin:miter;stroke-dasharray:none;stroke-opacity:1"
       d="m 320.15942,105.19487 c 0,0 -9.80954,24.30976 -2.65289,36.8339 4.81921,8.43362 4.68884,9.78236 11.7221,12.84987 7.03326,3.06751 11.59871,-5.44644 11.47532,-7.91425 -0.12339,-2.46781 -3.82511,-10.61159 -6.78648,-12.21566 -2.96137,-1.60408 -10.56668,-2.78281 -9.59195,-15.76406 0.50848,-6.7719 -4.1661,-13.7898 -4.1661,-13.7898 z"
       id="path4"
       sodipodi:nodetypes="csssssc" />
    <path
       style="fill:none;stroke:#9cbac9;stroke-width:5.29167;stroke-linecap:butt;stroke-linejoin:miter;stroke-dasharray:none;stroke-opacity:1"
       d="m 335.77826,105.33943 c 0,0 13.17868,43.96938 11.57461,47.79449 -1.60408,3.8251 7.74366,4.06312 7.74366,4.06312 0,0 6.61841,-0.93137 5.93484,-3.04757 -5.8306,-18.05038 5.18979,-1.16038 -1.95641,-23.22585 -7.03325,-21.71674 -5.1824,-25.91202 -5.1824,-25.91202 z"
       id="path5"
       sodipodi:nodetypes="cscsscc" />
    <path
       style="fill:#53899b;fill-opacity:1;stroke:none;stroke-width:2.64583;stroke-linecap:butt;stroke-linejoin:miter;stroke-dasharray:none;stroke-opacity:1"
       d="m 309.19014,68.225183 c 0,0 -10.56447,3.841817 -28.09923,12.293814 -17.53477,8.451997 -22.30299,9.066687 -18.76528,12.908501 3.53772,3.84182 11.99747,4.61018 20.1496,4.14916 8.15212,-0.46101 42.29876,-5.839554 57.06488,-1.38306 14.76611,4.456512 16.61187,2.61244 16.61187,2.61244 l 12.61273,-8.144645 c 0,0 -30.22521,-11.832796 -40.22309,-16.135631 -9.99789,-4.302835 -19.35148,-6.300579 -19.35148,-6.300579 z"
       id="path6"
       sodipodi:nodetypes="cssssccsc" />
    <path
       d="m 92.396495,194.50163 2.42962,-6.66639 2.630414,6.66639 z m 9.999595,4.27693 c -0.56223,-0.0402 -0.98389,-0.0201 -1.64652,-1.62644 0,0 -2.489864,-6.34512 -4.93956,-12.24849 h -0.220874 l -3.353277,9.13617 c -1.746916,4.63837 -2.248904,4.71868 -3.011925,4.73876 v 0.26104 h 4.477729 v -0.26104 c -2.791051,0.0803 -1.907553,-2.40954 -1.365406,-4.0159 h 5.20059 l 0.702779,1.74692 c 0.46183,1.12445 0.66263,2.26898 -0.42167,2.26898 v 0.26104 h 4.578134 z m 6.14434,-9.13617 c -0.80318,0.1004 -1.94771,0.6827 -2.69065,2.04811 v -2.10835 l -2.77097,0.58231 v 0.24095 c 0.82326,0.22088 1.00397,0.50199 1.00397,1.20477 v 5.56202 c 0,1.04414 -0.0401,1.38549 -0.80318,1.60636 v 0.26104 h 3.39344 v -0.26104 c -0.72286,-0.18071 -0.82326,-0.4819 -0.82326,-1.60636 v -4.99979 c 0.62247,-1.34533 1.96779,-1.82724 1.90755,-1.48589 -0.0602,0.26104 0.0402,0.54215 0.22088,0.76303 0.42167,0.4819 1.10437,0.52206 1.5662,0.14055 0.48191,-0.40159 0.54215,-1.08429 0.14056,-1.5662 -0.28112,-0.32127 -0.78311,-0.42167 -1.14454,-0.38151 z m 7.46958,7.75069 c -0.16063,0.42167 -0.64254,0.84334 -1.22485,0.84334 -0.94373,0 -1.52604,-0.54215 -1.52604,-2.14851 v -6.06401 h 2.32922 l 0.0602,-0.26103 h -2.38946 v -3.1324 l -1.74691,0.28111 v 2.85129 h -1.06422 l 0.0402,0.26103 h 1.02406 v 6.12425 c 0,2.42962 0.88349,3.07216 2.3493,3.07216 1.16461,0 2.06819,-0.84334 2.3493,-1.72683 z"
       id="text19"
       style="font-size:20.0795px;line-height:1;font-family:Butler;-inkscape-font-specification:Butler;fill:#1f241c;stroke-width:0.264582"
       aria-label="Art" />
    <path
       d="m 302.3965,194.50163 2.42962,-6.66639 2.63042,6.66639 z m 9.9996,4.27693 c -0.56223,-0.0402 -0.9839,-0.0201 -1.64652,-1.62644 0,0 -2.48986,-6.34512 -4.93956,-12.24849 h -0.22087 l -3.35328,9.13617 c -1.74692,4.63837 -2.24891,4.71868 -3.01193,4.73876 v 0.26104 h 4.47773 v -0.26104 c -2.79105,0.0803 -1.90755,-2.40954 -1.3654,-4.0159 h 5.20059 l 0.70278,1.74692 c 0.46183,1.12445 0.66262,2.26898 -0.42167,2.26898 v 0.26104 h 4.57813 z m 6.14434,-9.13617 c -0.80318,0.1004 -1.94771,0.6827 -2.69065,2.04811 v -2.10835 l -2.77098,0.58231 v 0.24095 c 0.82326,0.22088 1.00398,0.50199 1.00398,1.20477 v 5.56202 c 0,1.04414 -0.0402,1.38549 -0.80318,1.60636 v 0.26104 h 3.39344 v -0.26104 c -0.72287,-0.18071 -0.82326,-0.4819 -0.82326,-1.60636 v -4.99979 c 0.62246,-1.34533 1.96779,-1.82724 1.90755,-1.48589 -0.0602,0.26104 0.0402,0.54215 0.22087,0.76303 0.42167,0.4819 1.10438,0.52206 1.5662,0.14055 0.48191,-0.40159 0.54215,-1.08429 0.14056,-1.5662 -0.28111,-0.32127 -0.7831,-0.42167 -1.14453,-0.38151 z m 7.46958,7.75069 c -0.16064,0.42167 -0.64254,0.84334 -1.22485,0.84334 -0.94374,0 -1.52604,-0.54215 -1.52604,-2.14851 v -6.06401 h 2.32922 l 0.0602,-0.26103 h -2.38946 v -3.1324 l -1.74692,0.28111 v 2.85129 h -1.06421 l 0.0402,0.26103 h 1.02405 v 6.12425 c 0,2.42962 0.8835,3.07216 2.3493,3.07216 1.16461,0 2.06819,-0.84334 2.3493,-1.72683 z"
       id="text6"
       style="font-size:20.0795px;line-height:1;font-family:Butler;-inkscape-font-specification:Butler;fill:#1c2224;stroke-width:0.264582"
       aria-label="Art" />
    <path
       d="m 91.419736,205.83478 h 0.454938 l 1.698435,-4.33708 -0.0061,4.33708 h 0.503465 v -4.90727 h -0.800691 l -1.619579,4.20363 -1.631711,-4.20363 h -0.794625 v 4.90727 h 0.497399 v -4.33708 z m 6.61784,-1.81369 c 0,0.86742 -0.473139,1.41334 -1.431542,1.41334 -0.952336,0 -1.431538,-0.53986 -1.431538,-1.41334 v -3.09964 h -0.497399 v 3.00865 c 0,0.69151 0.236568,2.00173 1.928937,2.00173 1.698432,0 1.935002,-1.31022 1.935002,-2.00173 v -3.00865 h -0.50346 z m 1.54072,-1.88041 c 0,-0.53379 0.467074,-0.81282 1.134324,-0.81282 0.67937,0 1.08578,0.40641 1.08578,0.94627 h 0.4974 c 0,-0.84315 -0.60658,-1.44367 -1.58318,-1.44367 -1.043334,0 -1.631724,0.57019 -1.631724,1.29202 0,2.0078 2.941944,0.92201 2.941944,2.30502 0,0.5156 -0.33362,1.013 -1.23743,1.013 -0.837094,0 -1.328424,-0.54593 -1.328424,-1.06152 h -0.4974 c 0,0.71577 0.60052,1.55892 1.777294,1.55892 1.32235,0 1.77729,-0.81283 1.77729,-1.44974 0,-1.98353 -2.935874,-0.89168 -2.935874,-2.34748 z m 3.906414,-0.73397 h 2.80242 v -0.4792 h -3.29375 v 4.90727 h 3.29375 v -0.47314 h -2.80242 v -1.92893 l 2.35961,0.0121 v -0.4792 h -2.35961 z m 6.76948,2.61438 c 0,0.86742 -0.47314,1.41334 -1.43154,1.41334 -0.95234,0 -1.43154,-0.53986 -1.43154,-1.41334 v -3.09964 h -0.4974 v 3.00865 c 0,0.69151 0.23657,2.00173 1.92894,2.00173 1.69843,0 1.935,-1.31022 1.935,-2.00173 v -3.00865 h -0.50346 z m 3.30588,1.81369 h 0.45494 l 1.69844,-4.33708 -0.006,4.33708 h 0.50347 v -4.90727 h -0.80069 l -1.61958,4.20363 -1.63171,-4.20363 h -0.79463 v 4.90727 h 0.4974 v -4.33708 z"
       id="text20"
       style="font-size:6.06584px;line-height:1;font-family:'Neutral Face';-inkscape-font-specification:'Neutral Face';stroke-width:0.264583"
       aria-label="MUSEUM" />
    <g
       id="g20"
       transform="translate(20.135648,12.683553)">
      <path
         style="fill:#495c3d;fill-opacity:1;stroke:none;stroke-width:2.64583;stroke-linecap:butt;stroke-linejoin:miter;stroke-dasharray:none;stroke-opacity:1"
         d="m 52.154615,373.25015 c 0,0 25.665234,-5.92275 59.721035,-2.96138 34.05579,2.96138 41.40448,2.22103 41.40448,2.22103 0,0 -1.45761,8.02736 -1.45331,12.08457 0.002,2.00701 0.73157,5.97643 0.73157,5.97643 0,0 -26.45684,-7.75848 -45.25355,-8.02023 -18.796716,-0.26175 -54.743836,4.88601 -54.743836,4.88601 z"
         id="path8"
         sodipodi:nodetypes="cscacscc" />
      <path
         style="fill:none;stroke:#91ab82;stroke-width:5.29167;stroke-linecap:butt;stroke-linejoin:miter;stroke-dasharray:none;stroke-opacity:1"
         d="m 61.96704,323.07384 c -0.56078,11.64574 -4.595932,28.1546 -7.038941,34.26212 -2.443009,6.10752 16.478967,7.4013 16.478967,7.4013 l -2.617507,-51.12867 -7.79077,0.39886 c 0,0 1.114434,6.03059 0.968251,9.06639 z"
         id="path9"
         sodipodi:nodetypes="asccca" />
      <path
         style="fill:none;stroke:#749362;stroke-width:5.29167;stroke-linecap:butt;stroke-linejoin:miter;stroke-dasharray:none;stroke-opacity:1"
         d="m 80.904613,313.4763 c 0,0 3.331546,6.71771 1.110517,22.14153 -2.221032,15.42381 1.110514,26.65235 1.110514,26.65235 h 6.66309 c 0,0 12.462446,-39.80053 9.501071,-44.2972 -2.961373,-4.49668 -18.385192,-4.49668 -18.385192,-4.49668 z"
         id="path10" />
      <path
         style="fill:none;stroke:#b2c2a3;stroke-width:5.29167;stroke-linecap:butt;stroke-linejoin:miter;stroke-dasharray:none;stroke-opacity:1"
         d="m 110.15942,315.19487 c 0,0 -9.80955,24.30976 -2.65289,36.8339 4.81921,8.43362 4.68884,9.78236 11.7221,12.84987 7.03326,3.06751 11.59871,-5.44644 11.47532,-7.91425 -0.12339,-2.46781 -3.82511,-10.61159 -6.78648,-12.21566 -2.96137,-1.60408 -10.56668,-2.78281 -9.59195,-15.76406 0.50848,-6.7719 -4.1661,-13.7898 -4.1661,-13.7898 z"
         id="path11"
         sodipodi:nodetypes="csssssc" />
      <path
         style="fill:none;stroke:#91ab82;stroke-width:5.29167;stroke-linecap:butt;stroke-linejoin:miter;stroke-dasharray:none;stroke-opacity:1"
         d="m 125.77826,315.33943 c 0,0 13.17868,43.96938 11.57461,47.79449 -1.60408,3.8251 7.74366,4.06312 7.74366,4.06312 0,0 6.61841,-0.93137 5.93484,-3.04757 -5.8306,-18.05038 5.18979,-1.16038 -1.95641,-23.22585 -7.03325,-21.71674 -5.1824,-25.91202 -5.1824,-25.91202 z"
         id="path12"
         sodipodi:nodetypes="cscsscc" />
      <path
         style="fill:#576e4a;fill-opacity:1;stroke:none;stroke-width:2.64583;stroke-linecap:butt;stroke-linejoin:miter;stroke-dasharray:none;stroke-opacity:1"
         d="m 99.190138,278.22518 c 0,0 -10.564478,3.84182 -28.099236,12.29382 -17.534763,8.452 -22.302986,9.06669 -18.765273,12.9085 3.537717,3.84182 11.99747,4.61018 20.149595,4.14916 8.152124,-0.46101 42.298766,-5.83955 57.064886,-1.38306 14.76611,4.45651 16.61187,2.61244 16.61187,2.61244 l 12.61273,-8.14464 c 0,0 -30.22521,-11.8328 -40.22309,-16.13564 -9.99789,-4.30283 -19.351482,-6.30058 -19.351482,-6.30058 z"
         id="path13"
         sodipodi:nodetypes="cssssccsc" />
    </g>
    <path
       style="font-weight:300;font-size:85.9049px;line-height:1;font-family:Butler;-inkscape-font-specification:'Butler Light';fill:#1f241c;stroke-width:0.264582"
       d="m 232.36585,356.91775 10.90992,-30.15262 11.68307,30.15262 z m 41.66387,19.07089 c -2.49124,-0.17181 -4.20934,-0.51543 -6.95829,-7.38782 0,0 -15.6347,-39.51626 -20.87489,-52.14428 h -0.60134 l -14.17431,39.08673 c -6.95829,19.50042 -9.10592,20.44537 -12.88573,20.44537 v 0.94495 H 236.747 v -0.94495 c -11.16764,0.17181 -8.24687,-7.81735 -4.63887,-18.12593 h 23.19432 l 3.09258,8.16096 c 3.09258,7.21601 2.14762,9.96497 -1.46038,9.96497 v 0.94495 h 17.09507 z m 24.9124,-39.34444 c -4.20934,0 -9.79315,3.35029 -12.2844,8.41868 v -8.59049 l -10.22268,1.97581 v 0.85905 c 3.60801,0.42952 4.29525,1.7181 4.29525,4.63886 v 26.2869 c 0,4.38115 -0.17181,4.81068 -3.4362,5.75563 v 0.94495 h 12.88573 v -0.94495 c -3.09257,-0.77314 -3.5221,-1.03086 -3.5221,-5.75563 v -23.28023 c 2.49125,-6.01334 9.36364,-8.67639 8.93411,-6.95829 -0.25771,0.94495 -0.0859,1.97581 0.42953,2.83486 1.28857,1.88991 3.77981,2.40534 5.58382,1.20267 1.8899,-1.20267 2.40533,-3.60801 1.20267,-5.49792 -0.94496,-1.28857 -2.49125,-1.8899 -3.86573,-1.8899 z m 28.86409,33.84653 c -0.68724,2.06171 -2.74896,3.95162 -5.2402,3.95162 -3.95162,0 -6.61468,-2.31943 -6.61468,-10.13678 v -26.11509 h 9.96497 l 0.17181,-0.94495 h -10.13678 v -13.40116 l -5.92743,0.77314 v 12.62802 h -4.46706 l 0.17181,0.94495 h 4.29525 v 26.37281 c 0,10.39449 3.77981,13.14345 9.70725,13.14345 4.55296,0 7.81735,-3.26439 8.7623,-6.87239 z"
       id="text13"
       aria-label="Art" />
    <path
       d="m 338.07812,329.60328 v 0.88273 l 8.41541,3.29554 -8.41541,-0.0118 v 0.9769 h 9.52176 v -1.55362 l -8.15647,-3.14253 8.15647,-3.16607 v -1.54184 h -9.52176 v 0.96512 h 8.41541 z m 3.51917,12.84085 c -1.68308,0 -2.74236,-0.91805 -2.74236,-2.77767 0,-1.84786 1.04751,-2.77767 2.74236,-2.77767 h 6.01436 v -0.96513 h -5.83781 c -1.34176,0 -3.88403,0.45903 -3.88403,3.7428 0,3.29554 2.54227,3.75457 3.88403,3.75457 h 5.83781 v -0.9769 z m 3.64863,2.98954 c 1.03575,0 1.57716,0.90627 1.57716,2.20095 0,1.31821 -0.78858,2.10679 -1.83609,2.10679 v 0.96512 c 1.636,0 2.80121,-1.17698 2.80121,-3.07191 0,-2.02441 -1.10636,-3.16608 -2.50696,-3.16608 -3.89581,0 -1.78901,5.70835 -4.47252,5.70835 -1.00044,0 -1.96556,-0.64734 -1.96556,-2.40104 0,-1.62423 1.05928,-2.57758 2.05971,-2.57758 v -0.96512 c -1.38883,0 -3.02483,1.16521 -3.02483,3.44855 0,2.56582 1.57715,3.44855 2.81298,3.44855 3.84872,0 1.73015,-5.69658 4.5549,-5.69658 z m 1.42415,7.57975 v 5.43764 h 0.92981 v -6.39099 h -9.52176 v 6.39099 h 0.91804 v -5.43764 h 3.7428 l -0.0235,4.57845 h 0.92981 v -4.57845 z m -5.07278,13.13509 c -1.68308,0 -2.74236,-0.91804 -2.74236,-2.77766 0,-1.84787 1.04751,-2.77768 2.74236,-2.77768 h 6.01436 v -0.96512 h -5.83781 c -1.34176,0 -3.88403,0.45902 -3.88403,3.7428 0,3.29554 2.54227,3.75456 3.88403,3.75456 h 5.83781 v -0.9769 z m -3.51917,6.41455 v 0.88273 l 8.41541,3.29554 -8.41541,-0.0118 v 0.97689 h 9.52176 v -1.55361 l -8.15647,-3.14254 8.15647,-3.16607 v -1.54184 h -9.52176 v 0.96512 h 8.41541 z"
       id="text14"
       style="font-size:13.7671px;line-height:1;font-family:'Neutral Face';-inkscape-font-specification:'Neutral Face';stroke-width:0.264583"
       aria-label="MUSEUM" />
    <path
       d="m 301.41971,205.83478 h 0.45494 l 1.69844,-4.33708 -0.006,4.33708 h 0.50347 v -4.90727 h -0.80069 l -1.61958,4.20363 -1.63171,-4.20363 h -0.79463 v 4.90727 h 0.4974 v -4.33708 z m 6.61784,-1.81369 c 0,0.86742 -0.47313,1.41334 -1.43154,1.41334 -0.95233,0 -1.43154,-0.53986 -1.43154,-1.41334 v -3.09964 h -0.49739 v 3.00865 c 0,0.69151 0.23656,2.00173 1.92893,2.00173 1.69844,0 1.93501,-1.31022 1.93501,-2.00173 v -3.00865 h -0.50347 z m 1.54073,-1.88041 c 0,-0.53379 0.46707,-0.81282 1.13431,-0.81282 0.67937,0 1.08579,0.40641 1.08579,0.94627 h 0.49739 c 0,-0.84315 -0.60658,-1.44367 -1.58318,-1.44367 -1.04332,0 -1.63171,0.57019 -1.63171,1.29202 0,2.0078 2.94193,0.92201 2.94193,2.30502 0,0.5156 -0.33362,1.013 -1.23743,1.013 -0.83709,0 -1.32842,-0.54593 -1.32842,-1.06152 h -0.4974 c 0,0.71577 0.60052,1.55892 1.77729,1.55892 1.32236,0 1.77729,-0.81283 1.77729,-1.44974 0,-1.98353 -2.93586,-0.89168 -2.93586,-2.34748 z m 3.9064,-0.73397 h 2.80242 v -0.4792 h -3.29375 v 4.90727 h 3.29375 v -0.47314 h -2.80242 v -1.92893 l 2.35962,0.0121 v -0.4792 h -2.35962 z m 6.76948,2.61438 c 0,0.86742 -0.47313,1.41334 -1.43154,1.41334 -0.95233,0 -1.43153,-0.53986 -1.43153,-1.41334 v -3.09964 h -0.4974 v 3.00865 c 0,0.69151 0.23657,2.00173 1.92893,2.00173 1.69844,0 1.93501,-1.31022 1.93501,-2.00173 v -3.00865 h -0.50347 z m 3.30589,1.81369 h 0.45494 l 1.69843,-4.33708 -0.006,4.33708 h 0.50346 v -4.90727 h -0.80069 l -1.61958,4.20363 -1.63171,-4.20363 h -0.79462 v 4.90727 h 0.49739 v -4.33708 z"
       id="text7"
       style="font-size:6.06584px;line-height:1;font-family:'Neutral Face';-inkscape-font-specification:'Neutral Face';fill:#1c2224;stroke-width:0.264583"
       aria-label="MUSEUM" />
  </g>
</svg>
