<?xml version="1.0" encoding="UTF-8" standalone="no"?>
<svg
   sodipodi:docname="Portfolio_workPreviewElement_Artsgone.svg"
   inkscape:version="1.3 (0e150ed6c4, 2023-07-21)"
   id="svg8"
   version="1.1"
   viewBox="0 0 427.8147 212.995"
   height="212.995mm"
   width="427.8147mm"
   xmlns:inkscape="http://www.inkscape.org/namespaces/inkscape"
   xmlns:sodipodi="http://sodipodi.sourceforge.net/DTD/sodipodi-0.dtd"
   xmlns:xlink="http://www.w3.org/1999/xlink"
   xmlns="http://www.w3.org/2000/svg"
   xmlns:svg="http://www.w3.org/2000/svg"
   xmlns:rdf="http://www.w3.org/1999/02/22-rdf-syntax-ns#"
   xmlns:cc="http://creativecommons.org/ns#"
   xmlns:dc="http://purl.org/dc/elements/1.1/">
  <defs
     id="defs2">
    <inkscape:path-effect
       effect="skeletal"
       id="path-effect7752"
       is_visible="true"
       lpeversion="1"
       pattern="m -8.7697814,4.4153479 c 0,-2.76 2.24,-4.99999999 5,-4.99999999 2.76,0 5,2.23999999 5,4.99999999 0,2.76 -2.24,5 -5,5 -2.76,0 -5,-2.24 -5,-5 z"
       copytype="single_stretched"
       prop_scale="3.7582856"
       scale_y_rel="false"
       spacing="0"
       normal_offset="0"
       tang_offset="0"
       prop_units="false"
       vertical_pattern="false"
       hide_knot="false"
       fuse_tolerance="0" />
    <inkscape:path-effect
       effect="spiro"
       id="path-effect7748"
       is_visible="true"
       lpeversion="1" />
    <inkscape:path-effect
       update_on_knot_move="true"
       attempt_force_join="true"
       miter_limit="4"
       offset="350.17669"
       unit="px"
       linejoin_type="miter"
       lpeversion="1.2"
       is_visible="true"
       id="path-effect7744"
       effect="offset" />
    <inkscape:path-effect
       effect="skeletal"
       id="path-effect919"
       is_visible="true"
       lpeversion="1"
       pattern="m -8.7697814,4.4153479 c 0,-2.76 2.24,-4.99999999 5,-4.99999999 2.76,0 5,2.23999999 5,4.99999999 0,2.76 -2.24,5 -5,5 -2.76,0 -5,-2.24 -5,-5 z"
       copytype="single_stretched"
       prop_scale="3.7582856"
       scale_y_rel="false"
       spacing="0"
       normal_offset="0"
       tang_offset="0"
       prop_units="false"
       vertical_pattern="false"
       hide_knot="false"
       fuse_tolerance="0" />
    <inkscape:path-effect
       effect="spiro"
       id="path-effect917"
       is_visible="true"
       lpeversion="1" />
    <linearGradient
       inkscape:collect="always"
       id="linearGradient949">
      <stop
         style="stop-color:#241243;stop-opacity:1"
         offset="0"
         id="stop945" />
      <stop
         style="stop-color:#6e35c1;stop-opacity:1"
         offset="1"
         id="stop947" />
    </linearGradient>
    <linearGradient
       inkscape:collect="always"
       id="linearGradient941">
      <stop
         style="stop-color:#8d5fd3;stop-opacity:1;"
         offset="0"
         id="stop937" />
      <stop
         style="stop-color:#5a2ca0;stop-opacity:1"
         offset="1"
         id="stop939" />
    </linearGradient>
    <inkscape:path-effect
       update_on_knot_move="true"
       attempt_force_join="true"
       miter_limit="4"
       offset="1.7"
       unit="mm"
       linejoin_type="miter"
       lpeversion="1"
       is_visible="true"
       id="path-effect6934"
       effect="offset" />
    <inkscape:path-effect
       fuse_tolerance="0"
       hide_knot="false"
       vertical_pattern="false"
       prop_units="false"
       tang_offset="0"
       normal_offset="0"
       spacing="0"
       scale_y_rel="false"
       prop_scale="6.065203"
       copytype="single_stretched"
       pattern="M 0,5 C 0,2.24 2.24,0 5,0 7.76,0 10,2.24 10,5 10,7.76 7.76,10 5,10 2.24,10 0,7.76 0,5 Z"
       lpeversion="1"
       is_visible="true"
       id="path-effect6725"
       effect="skeletal" />
    <inkscape:path-effect
       lpeversion="1"
       is_visible="true"
       id="path-effect6723"
       effect="spiro" />
    <inkscape:path-effect
       fuse_tolerance="0"
       hide_knot="false"
       vertical_pattern="false"
       prop_units="false"
       tang_offset="0"
       normal_offset="0"
       spacing="0"
       scale_y_rel="false"
       prop_scale="5.2014532"
       copytype="single_stretched"
       pattern="m -272.55405,199.56435 c 0,-2.3 1.86667,-4.16667 4.16667,-4.16667 2.3,0 4.16667,1.86667 4.16667,4.16667 0,2.3 -1.86667,4.16667 -4.16667,4.16667 -2.3,0 -4.16667,-1.86667 -4.16667,-4.16667 z"
       lpeversion="1"
       is_visible="true"
       id="path-effect6719"
       effect="skeletal" />
    <inkscape:path-effect
       lpeversion="1"
       is_visible="true"
       id="path-effect6717"
       effect="spiro" />
    <linearGradient
       id="linearGradient6699"
       inkscape:collect="always">
      <stop
         id="stop6695"
         offset="0"
         style="stop-color:#9164d4;stop-opacity:1" />
      <stop
         id="stop6697"
         offset="1"
         style="stop-color:#1b0d30;stop-opacity:1" />
    </linearGradient>
    <inkscape:path-effect
       update_on_knot_move="true"
       attempt_force_join="true"
       miter_limit="4"
       offset="350.17669"
       unit="px"
       linejoin_type="miter"
       lpeversion="1.2"
       is_visible="true"
       id="path-effect6587"
       effect="offset" />
    <inkscape:path-effect
       update_on_knot_move="true"
       attempt_force_join="true"
       miter_limit="4"
       offset="0"
       unit="mm"
       linejoin_type="miter"
       lpeversion="1"
       is_visible="true"
       id="path-effect6585"
       effect="offset" />
    <inkscape:path-effect
       down_right_point="340.72036,146.76687"
       down_left_point="-222.53082,146.76687"
       up_right_point="293.01461,100.7201"
       up_left_point="-174.82507,100.7201"
       effect="perspective-envelope"
       id="path-effect889"
       is_visible="true"
       lpeversion="1"
       deform_type="perspective"
       horizontal_mirror="false"
       vertical_mirror="true"
       overflow_perspective="true" />
    <inkscape:path-effect
       down_right_point="340.72036,146.76687"
       down_left_point="-222.53082,146.76687"
       up_right_point="293.01461,100.7201"
       up_left_point="-174.82507,100.7201"
       effect="perspective-envelope"
       id="path-effect869"
       is_visible="true"
       lpeversion="1"
       deform_type="perspective"
       horizontal_mirror="false"
       vertical_mirror="true"
       overflow_perspective="true" />
    <inkscape:path-effect
       overflow_perspective="true"
       vertical_mirror="true"
       horizontal_mirror="false"
       deform_type="perspective"
       lpeversion="1"
       is_visible="true"
       id="path-effect874"
       effect="perspective-envelope"
       up_left_point="-174.82507,100.7201"
       up_right_point="293.01461,100.7201"
       down_left_point="-222.53082,146.76687"
       down_right_point="340.72036,146.76687" />
    <inkscape:path-effect
       down_right_point="340.72036,146.76687"
       down_left_point="-222.53082,146.76687"
       up_right_point="293.01461,100.7201"
       up_left_point="-174.82507,100.7201"
       effect="perspective-envelope"
       id="path-effect854"
       is_visible="true"
       lpeversion="1"
       deform_type="perspective"
       horizontal_mirror="false"
       vertical_mirror="true"
       overflow_perspective="true" />
    <linearGradient
       gradientUnits="userSpaceOnUse"
       y2="5148.6279"
       x2="-2212.5837"
       y1="5847.9731"
       x1="-2212.5837"
       id="linearGradient6701"
       xlink:href="#linearGradient6699"
       inkscape:collect="always"
       gradientTransform="matrix(0.24994378,0,0,0.24937392,1481.0746,11.486829)" />
    <linearGradient
       inkscape:collect="always"
       xlink:href="#linearGradient6699"
       id="linearGradient935"
       x1="-1276.3857"
       y1="1106.6237"
       x2="188.51154"
       y2="1165.9862"
       gradientUnits="userSpaceOnUse"
       gradientTransform="matrix(0.18827962,0,0,0.18827962,350.46901,-66.770391)" />
    <linearGradient
       inkscape:collect="always"
       xlink:href="#linearGradient941"
       id="linearGradient943"
       x1="118.50449"
       y1="1026.7427"
       x2="-691.98621"
       y2="1012.0835"
       gradientUnits="userSpaceOnUse"
       gradientTransform="translate(1520.0955,-26.374289)" />
    <linearGradient
       inkscape:collect="always"
       xlink:href="#linearGradient949"
       id="linearGradient951"
       x1="-628.95697"
       y1="1356.5854"
       x2="-778.73035"
       y2="854.48853"
       gradientUnits="userSpaceOnUse"
       gradientTransform="translate(1520.0955,-26.374289)" />
  </defs>
  <sodipodi:namedview
     showguides="false"
     inkscape:snap-global="false"
     inkscape:snap-intersection-paths="true"
     inkscape:object-paths="true"
     id="base"
     pagecolor="#8d8d8d"
     bordercolor="#666666"
     borderopacity="1.0"
     inkscape:pageopacity="0"
     inkscape:pageshadow="2"
     inkscape:zoom="0.45254834"
     inkscape:cx="886.09319"
     inkscape:cy="383.38446"
     inkscape:document-units="mm"
     inkscape:current-layer="layer1"
     inkscape:document-rotation="0"
     showgrid="false"
     showborder="true"
     inkscape:window-width="1920"
     inkscape:window-height="1009"
     inkscape:window-x="-8"
     inkscape:window-y="-8"
     inkscape:window-maximized="1"
     inkscape:snap-smooth-nodes="true"
     inkscape:showpageshadow="false"
     inkscape:pagecheckerboard="false"
     inkscape:deskcolor="#8d8d8d"
     borderlayer="true" />
  <metadata
     id="metadata5">
    <rdf:RDF>
      <cc:Work
         rdf:about="">
        <dc:format>image/svg+xml</dc:format>
        <dc:type
           rdf:resource="http://purl.org/dc/dcmitype/StillImage" />
      </cc:Work>
    </rdf:RDF>
  </metadata>
  <g
     inkscape:label="Слой 1"
     inkscape:groupmode="layer"
     id="layer1"
     transform="translate(-37.508228,-36.71192)">
    <path
       id="ellipse6885"
       style="opacity:1;fill:#1b0d30;stroke-width:8.30765;stroke-linecap:round;stroke-linejoin:round"
       d="M 386.59619,159.58069 A 146.95709,73.478543 0 0 1 239.63912,233.05924 146.95709,73.478543 0 0 1 92.682029,159.58069 146.95709,73.478543 0 0 1 239.63912,86.102131 146.95709,73.478543 0 0 1 386.59619,159.58069 Z" />
    <g
       transform="matrix(-0.18827962,0,0,0.18827962,115.78276,-137.31285)"
       id="g922"
       style="stroke-width:5.31125">
      <path
         id="path6741"
         style="opacity:1;fill:#cccccc;fill-opacity:1;stroke:none;stroke-width:21.8317;stroke-linecap:round;stroke-linejoin:round;stroke-miterlimit:4;stroke-dasharray:none"
         d="m -1464.4982,1699.7124 c -29.544,20.1696 -93.3404,50.5562 -128.0791,51.1076 -14.7069,0.2335 -15.255,-10.8971 -24.0489,-14.1099 -24.5151,-8.9563 -52.259,-43.8809 -77.4901,-65.5941 -42.7243,-36.7674 -75.9114,-61.8296 -65.3049,-73.8566 7.313,-8.2925 61.8612,3.1048 93.5711,21.8354 32.6728,19.2995 49.2747,39.7912 54.4147,46.2622 12.2767,15.4557 19.9139,23.5937 24.9896,15.0536 14.1054,-23.7328 49.3452,-55.3273 62.8469,-63.9662 54.3997,-34.8071 101.369,-74.7146 124.8809,-27.1383 11.7336,23.7429 1.2746,37.2471 -11.6836,56.0802 -12.1718,17.6902 -25.2313,34.6198 -54.0966,54.3261 z"
         sodipodi:nodetypes="ssssssssssss" />
      <path
         style="fill:#808080;stroke:none;stroke-width:1.40527px;stroke-linecap:butt;stroke-linejoin:miter;stroke-opacity:1"
         d="m -1588.2104,1684.2038 c 0,0 4.6628,4.3466 4.3808,12.524 -0.282,8.1775 -2.1249,19.9039 -2.1249,19.9039 0,0 2.4695,-2.2558 4.4433,-14.945 1.9739,-12.6892 -3.0334,-18.0468 -3.0334,-18.0468 z"
         id="path6936"
         sodipodi:nodetypes="cscscc" />
      <path
         sodipodi:nodetypes="ssccs"
         id="path6940"
         d="m -1667.8501,1623.8325 c -0.5721,2.1351 17.4384,14.7214 23.0213,20.7031 5.583,5.9818 12.5717,15.5767 12.5717,15.5767 0,0 0.1511,-3.3413 -7.4258,-13.7096 -4.1593,-4.7287 -26.5519,-28.5984 -28.1672,-22.5702 z"
         style="fill:#808080;stroke:none;stroke-width:1.40527px;stroke-linecap:butt;stroke-linejoin:miter;stroke-opacity:1" />
      <path
         sodipodi:nodetypes="ssccs"
         id="path6752"
         d="m -1475.5385,1692.9808 c -0.5721,-2.1351 17.4384,-14.7214 23.0213,-20.7031 5.583,-5.9818 12.5717,-15.5767 12.5717,-15.5767 0,0 0.1511,3.3413 -7.4258,13.7096 -4.1593,4.7287 -26.5519,28.5984 -28.1672,22.5702 z"
         style="fill:#808080;stroke:none;stroke-width:1.40527px;stroke-linecap:butt;stroke-linejoin:miter;stroke-opacity:1" />
      <path
         style="fill:#808080;stroke:none;stroke-width:0.935656px;stroke-linecap:butt;stroke-linejoin:miter;stroke-opacity:1"
         d="m -1593.2192,1683.5987 c 0,0 2.7318,3.2482 1.8869,8.6302 -0.8448,5.3822 -3.0072,12.9842 -3.0072,12.9842 0,0 1.8139,-1.2922 4.1403,-9.5199 2.3263,-8.2278 -0.5517,-12.1721 -0.5517,-12.1721 z"
         id="path6750"
         sodipodi:nodetypes="cscscc" />
      <path
         id="path6757"
         style="opacity:1;fill:#ffffff;fill-opacity:1;stroke:none;stroke-width:69.2449;stroke-linecap:round;stroke-linejoin:round;stroke-miterlimit:4;stroke-dasharray:none"
         d="m -1735.8391,1449.7993 c -2.1188,-0.036 -4.3982,0.6788 -5.7598,2.176 -2.7912,3.0638 -1.7886,8.1096 -2.251,12.2282 -0.6127,5.4589 -0.2199,10.9918 -0.6842,16.4647 -0.4687,5.5245 -1.369,11.0041 -2.1193,16.4972 -0.6497,4.7589 -1.4351,9.7185 -2.0629,14.2601 h -5e-4 c -0.2309,1.6698 -1.1088,2.6945 -1.8774,4.1708 -1.3308,1.5277 -2.8893,3.6498 -4.7005,4.1057 -1.7037,0.4274 -4.0548,-1.2859 -6.2472,-2.3808 -0.065,-0.1897 -0.1328,-0.3797 -0.2062,-0.5705 -1.0773,-2.7996 -3.7565,-5.8114 -5.2524,-8.4837 -2.2395,-4.0009 -4.0256,-8.2174 -6.2983,-12.1843 -2.8444,-4.9653 -6.1509,-9.6522 -9.1684,-14.5143 -2.087,-3.364 -4.1673,-6.7324 -6.181,-10.1405 -2.4025,-4.0662 -3.1246,-9.6544 -7.0389,-12.2974 -3.0022,-2.0268 -7.8528,-3.6362 -10.7652,-1.4826 -2.6655,1.9705 -2.1996,6.5575 -1.5906,9.8154 1.0068,5.3742 5.7199,9.3266 8.3054,14.1438 2.1293,3.9672 4.1187,8.0138 5.9252,12.1378 1.7856,4.0748 2.7862,8.4931 4.8483,12.4354 2.3749,4.5393 4.9335,9.1526 8.5793,12.7507 1.8015,1.7779 3.2678,7.1156 5.2571,10.0831 0.8784,2.0979 2.514,4.7431 1.8696,5.4673 -3.1577,3.5477 -3.305,4.2611 -5.1717,5.3387 -5.3123,3.0673 -6.3089,7.2313 -9.185,10.0345 -4.6375,4.5205 -6.1423,4.9908 -5.5898,11.1472 0.3112,3.448 1.7462,8.2215 3.7077,14.1795 1.7225,5.2381 2.6646,12.0633 5.4405,18.3901 2.3796,5.4237 6.8349,10.135 9.2785,13.8157 18.1773,27.3805 45.4485,20.0297 57.8704,1.1146 10.2593,-6.4665 -3.5114,-44.8688 -6.2136,-57.3505 l 5e-4,-5e-4 c -2.0333,-9.39 -2.0815,-18.3141 -4.6415,-27.2665 0.1295,-3.4228 -0.93,-8.0517 -0.5401,-10.7958 0.7203,-5.0716 0.9336,-10.2107 1.0542,-15.3319 0.1005,-4.3074 -0.1369,-8.617 -0.2795,-12.9232 -0.1563,-4.7404 -0.4063,-9.4772 -0.6325,-14.2151 -0.2636,-5.5113 0.7502,-11.2316 -0.8439,-16.5308 -0.6527,-2.1745 -3.1778,-3.7144 -5.4074,-4.1414 -0.4586,-0.088 -0.9389,-0.1359 -1.4279,-0.1441 z" />
      <path
         id="path6779"
         style="opacity:1;fill:#d1d1d1;fill-opacity:1;stroke:none;stroke-width:187.47;stroke-linecap:round;stroke-linejoin:round;stroke-miterlimit:4;stroke-dasharray:none"
         d="m -1786.3532,1550.2362 c -2.8327,-0.236 -4.7591,-7.5325 -4.0845,-11.3134 0.4158,-2.3223 2.2628,-3.9288 3.663,-5.1827 2.9108,-2.6077 9.175,-1.6978 12.458,0.4208 1.3098,0.8453 4.2116,3.1515 3.0283,4.2374 -1.123,1.0297 3.3571,15.2322 1.0244,17.9722 -1.7318,2.0342 -5.279,0.109 -8.1986,-2.2048 -1.9727,-1.5634 -3.6588,-3.5751 -4.305,-3.6292 z"
         sodipodi:nodetypes="sssssssss" />
      <path
         id="path6775"
         style="opacity:1;fill:#999999;fill-opacity:1;stroke:none;stroke-width:78.846;stroke-linecap:round;stroke-linejoin:round;stroke-miterlimit:4;stroke-dasharray:none"
         d="m -1720.1785,1569.5104 c 2.2001,4.0233 3.3973,9.0481 4.226,13.0909 1.1499,5.6212 2.0109,13.0327 0.6487,17.1444 -3.3396,10.0817 -15.0216,13.1999 -23.6898,12.6704 -11.6616,-0.7113 -16.5157,-17.3571 -16.3641,-28.2338 0.091,-6.5014 3.7807,-10.3113 1.8101,-14.9156 -1.8097,-4.2283 -7.2228,-5.7136 -11.0572,-8.2535 -4.7638,-3.1555 -11.4827,-3.9978 -14.8005,-8.65 -2.1511,-3.016 -3.8221,-7.5793 -2.177,-10.8984 1.7497,-3.531 6.6885,-5.0542 10.6273,-5.1798 5.03,-0.1602 9.3885,3.6451 13.9647,5.7388 3.588,1.6422 7.0516,3.5438 10.563,5.3442 4.6883,2.4045 9.821,4.1144 14.0249,7.2908 9.5121,9.2471 9.1472,9.2264 12.2239,14.8516 z"
         sodipodi:nodetypes="assssaaaaaaaca" />
      <path
         sodipodi:nodetypes="sssssss"
         d="m -1771.1055,1557.9968 c 3.9652,1.0876 8.1765,3.2846 8.9897,5.8369 1.2873,4.0497 -3.6287,7.235 -6.0961,7.8961 -4.8581,1.3022 -16.6325,-3.1578 -22.9297,-8.6553 -4.6699,-4.0777 -4.9387,-10.876 -0.664,-13.5264 8.1977,-5.0835 8.6508,2.2842 13.2778,5.0057 2.6804,1.5775 4.9204,2.757 7.4223,3.443 z"
         style="opacity:1;fill:#d1d1d1;fill-opacity:1;stroke:none;stroke-width:187.47;stroke-linecap:round;stroke-linejoin:round;stroke-miterlimit:4;stroke-dasharray:none"
         id="path6782" />
      <path
         id="path6811"
         style="opacity:1;fill:#666666;fill-opacity:1;stroke:none;stroke-width:44.124;stroke-linecap:round;stroke-linejoin:round;stroke-miterlimit:4;stroke-dasharray:none"
         d="m -1729.421,1489.4873 c 0,0.503 -2.4201,1.2561 -6.6323,1.2561 -4.2121,0 -8.3009,-1.1609 -8.1081,-1.8804 0.1654,-0.6171 2.1015,0.1126 6.3136,0.1126 4.2121,0 8.4268,-0.1856 8.4268,0.5117 z"
         sodipodi:nodetypes="sssss" />
      <path
         id="path6813"
         style="opacity:1;fill:#666666;fill-opacity:1;stroke:none;stroke-width:44.124;stroke-linecap:round;stroke-linejoin:round;stroke-miterlimit:4;stroke-dasharray:none"
         d="m -1729.6325,1470.383 c 0,0.503 -1.9971,-0.2595 -6.2093,-0.2595 -4.2121,0 -6.7147,0.249 -6.5219,-0.4705 0.1654,-0.6171 0.8678,-0.8391 5.0799,-0.8391 4.2121,0 7.6513,0.8718 7.6513,1.5691 z"
         sodipodi:nodetypes="sssss" />
      <path
         sodipodi:nodetypes="sssss"
         d="m -1787.5798,1474.366 c 0,0.503 -1.6446,2.3488 -5.5748,3.4062 -4.0675,1.0944 -7.4198,1.1303 -7.227,0.4108 0.1654,-0.6171 2.2885,-0.706 6.3489,-1.8261 4.5998,-1.2689 6.4529,-2.6882 6.4529,-1.9909 z"
         style="opacity:1;fill:#666666;fill-opacity:1;stroke:none;stroke-width:44.124;stroke-linecap:round;stroke-linejoin:round;stroke-miterlimit:4;stroke-dasharray:none"
         id="path6819" />
      <path
         id="path6823"
         style="opacity:1;fill:#666666;fill-opacity:1;stroke:none;stroke-width:44.124;stroke-linecap:round;stroke-linejoin:round;stroke-miterlimit:4;stroke-dasharray:none"
         d="m -1774.6086,1496.4135 c 0,0.503 -2.3143,3.1595 -6.2445,4.2169 -4.0675,1.0944 -7.4551,1.3593 -7.2623,0.6398 0.1654,-0.6171 1.8127,-0.5473 5.8731,-1.6674 4.5998,-1.2689 7.6337,-3.8866 7.6337,-3.1893 z"
         sodipodi:nodetypes="sssss" />
      <path
         id="path6825"
         style="opacity:1;fill:#666666;fill-opacity:1;stroke:none;stroke-width:20.9437;stroke-linecap:round;stroke-linejoin:round;stroke-miterlimit:4;stroke-dasharray:none"
         d="m -1786.9112,1498.5162 c 0,-0.2388 1.0984,-1.4997 2.9639,-2.0016 1.9306,-0.5194 3.5386,-0.6452 3.4471,-0.3036 -0.079,0.2928 -0.9133,0.5064 -2.8406,1.0381 -2.1832,0.6023 -3.5704,1.598 -3.5704,1.2671 z"
         sodipodi:nodetypes="sssss" />
      <path
         id="path6827"
         style="opacity:1;fill:#666666;fill-opacity:1;stroke:none;stroke-width:13.4206;stroke-linecap:round;stroke-linejoin:round;stroke-miterlimit:4;stroke-dasharray:none"
         d="m -1792.4458,1473.9357 c 0,0.1531 -0.7038,0.961 -1.8992,1.2827 -1.2372,0.3328 -2.2676,0.4134 -2.2089,0.1945 0.051,-0.1876 0.5388,-0.3907 1.7738,-0.7314 1.399,-0.386 2.3343,-0.9578 2.3343,-0.7458 z"
         sodipodi:nodetypes="sssss" />
      <path
         id="path6829"
         style="opacity:1;fill:#666666;fill-opacity:1;stroke:none;stroke-width:27.4608;stroke-linecap:round;stroke-linejoin:round;stroke-miterlimit:4;stroke-dasharray:none"
         d="m -1767.6212,1518.7228 c 0,0.3132 -1.4401,1.9663 -3.886,2.6246 -2.5315,0.6809 -4.6399,0.8458 -4.5198,0.3979 0.1044,-0.3838 1.1778,-0.5896 3.7049,-1.2868 2.8625,-0.7898 4.7009,-2.1695 4.7009,-1.7357 z"
         sodipodi:nodetypes="sssss" />
      <path
         id="path6815"
         style="opacity:1;fill:#666666;fill-opacity:1;stroke:none;stroke-width:44.124;stroke-linecap:round;stroke-linejoin:round;stroke-miterlimit:4;stroke-dasharray:none"
         d="m -1759.3816,1519.0954 c 0,0.503 -4.6759,3.1243 -8.6061,4.1817 -4.0675,1.0944 -7.8427,3.5623 -7.6499,2.8428 0.1654,-0.6171 1.1605,-2.6093 5.2209,-3.7294 4.5998,-1.2689 11.0351,-3.9924 11.0351,-3.2951 z"
         sodipodi:nodetypes="sssss" />
      <path
         sodipodi:nodetypes="sssss"
         d="m -1731.4325,1518.9417 c 0,1.1374 -5.4061,2.1474 -9.2658,1.09 -4.0624,-1.113 -8.2047,-2.4361 -8.0119,-3.156 0.1654,-0.6171 4.3852,0.8884 8.5714,1.3555 4.1063,0.4583 8.7063,-0.1278 8.7063,0.7105 z"
         style="opacity:1;fill:#666666;fill-opacity:1;stroke:none;stroke-width:44.124;stroke-linecap:round;stroke-linejoin:round;stroke-miterlimit:4;stroke-dasharray:none"
         id="path6831" />
      <path
         sodipodi:nodetypes="sssss"
         d="m -1734.1608,1516.4776 c 0,0.378 -2.9057,0.8631 -4.1883,0.5117 -1.35,-0.3699 -2.8886,-1.2582 -2.8245,-1.4974 0.055,-0.2051 2.7284,0.5943 4.1195,0.7496 1.3646,0.1523 2.8933,-0.043 2.8933,0.2361 z"
         style="opacity:1;fill:#666666;fill-opacity:1;stroke:none;stroke-width:14.6633;stroke-linecap:round;stroke-linejoin:round;stroke-miterlimit:4;stroke-dasharray:none"
         id="path6833" />
      <path
         sodipodi:nodetypes="sssss"
         d="m -1741.1403,1492.2642 c 0,-0.378 2.9057,-0.8631 4.1883,-0.5117 1.35,0.3699 3.5242,0.7099 3.4601,0.9491 -0.055,0.2051 -3.364,-0.046 -4.7551,-0.2013 -1.3646,-0.1523 -2.8933,0.043 -2.8933,-0.2361 z"
         style="opacity:1;fill:#666666;fill-opacity:1;stroke:none;stroke-width:14.6633;stroke-linecap:round;stroke-linejoin:round;stroke-miterlimit:4;stroke-dasharray:none"
         id="path6835" />
      <path
         id="path6784"
         style="opacity:1;fill:#666666;fill-opacity:1;stroke:none;stroke-width:13.5618;stroke-linecap:round;stroke-linejoin:round;stroke-miterlimit:4;stroke-dasharray:none"
         d="m -1739.3051,1467.766 c 0,-0.3496 3.3883,-0.9776 4.5745,-0.6526 1.2486,0.3421 2.1827,0.7073 2.1234,0.9286 -0.051,0.1897 -1.3335,-0.077 -2.6201,-0.2206 -1.2621,-0.1409 -4.0778,0.2027 -4.0778,-0.056 z"
         sodipodi:nodetypes="sssss" />
      <path
         style="fill:#808080;stroke:none;stroke-width:0.767853px;stroke-linecap:butt;stroke-linejoin:miter;stroke-opacity:1"
         d="m -1760.8715,1611.33 c 0.3126,-1.1667 -9.5286,-8.044 -12.5792,-11.3124 -3.0506,-3.2686 -6.8693,-8.5113 -6.8693,-8.5113 0,0 -0.083,1.8257 4.0575,7.491 2.2727,2.5839 14.5083,15.6266 15.391,12.3327 z"
         id="path6938"
         sodipodi:nodetypes="ssccs" />
    </g>
    <path
       id="ellipse6887"
       style="opacity:1;fill:url(#linearGradient935);stroke-width:8.30765;stroke-linecap:round;stroke-linejoin:round"
       d="M 398.90974,152.07245 A 146.95709,73.478543 0 0 1 251.95267,225.55098 146.95709,73.478543 0 0 1 104.99558,152.07245 146.95709,73.478543 0 0 1 251.95267,78.593891 146.95709,73.478543 0 0 1 398.90974,152.07245 Z" />
    <g
       id="ellipse6889"
       transform="matrix(0.18827962,0,0,0.18827962,64.265999,-61.804655)"
       style="stroke-width:5.31125">
      <path
         style="color:#000000;fill:url(#linearGradient951);stroke-width:129.566;stroke-linecap:round;stroke-linejoin:round;-inkscape-stroke:none"
         d="m 1362.6425,1043.4369 c 0,69.6598 -201.975,86.8376 -300.4888,136.0945 -98.51379,49.2569 -62.93802,186.338 -202.25752,186.338 -139.3195,0 -382.34178,-85.1965 -480.85558,-134.4534 -98.5137,-49.2568 -67.0078,-118.3194 -67.0078,-187.9791 0,-69.65979 74.5192,-186.09524 173.033,-235.35213 98.51372,-49.2569 184.75413,25.71225 324.07365,25.71224 139.31952,0 301.13105,-25.34034 399.64485,23.91655 98.5138,49.2569 153.8582,116.06355 153.8582,185.72334"
         id="path7806" />
      <path
         style="color:#000000;fill:#5a2ca0;stroke-width:5.31125;stroke-linecap:round;stroke-linejoin:round;-inkscape-stroke:none"
         d="m 557.4375,779.22461 c -25.68078,-0.0636 -51.45411,4.76513 -77.82617,17.95117 -51.595,25.7975 -96.03229,68.51364 -127.98047,113.91406 -31.94819,45.40043 -51.79492,93.16846 -51.79492,132.34766 0,32.9909 -8.19233,68.0624 -3.32422,103.3086 4.86811,35.2462 25.31271,69.6993 77.07422,95.5801 100.65852,50.3292 342.0186,135.7402 486.31054,135.7402 36.83006,0 63.91661,-9.3752 83.9375,-24.6992 20.0209,-15.3241 32.61715,-35.8093 43.33594,-56.6074 21.43758,-41.5962 35.75608,-83.9767 80.43948,-106.3184 46.7818,-23.3909 121.7686,-40.2617 185.291,-59.6387 31.7612,-9.6885 60.7331,-19.9863 82.8789,-33.1562 22.1458,-13.1699 39.0605,-30.8998 39.0605,-54.209 0,-76.12018 -59.7764,-146.22028 -160.6015,-196.63281 -104.7889,-52.39441 -267.25926,-25.20508 -405.09963,-25.20508 -67.47186,0 -122.43,-18.21659 -174.43164,-30.97656 -26.00082,-6.37999 -51.58875,-11.3348 -77.26953,-11.39844 z m 0.4668,24.19531 c 22.54996,0.13958 45.70184,4.69131 70.99023,10.89649 50.57678,12.41034 108.39663,31.67774 180.24414,31.67773 140.7984,0 301.95283,-23.49037 394.19143,22.62891 96.2023,48.10116 147.1152,111.61519 147.1152,174.81445 0,11.5207 -8.3317,22.0602 -27.1348,33.2422 -18.803,11.182 -46.4825,21.3185 -77.5292,30.7891 -62.0935,18.941 -137.3502,35.2864 -189.0821,61.1523 -53.8303,26.9151 -70.98202,77.7044 -91.21483,116.9629 -10.1164,19.6292 -20.90578,36.4922 -36.47656,48.4101 -15.57078,11.918 -36.28171,19.6778 -69.11133,19.6778 -134.34678,0 -379.03151,-84.9816 -475.40039,-133.166 -46.7521,-23.3761 -59.81296,-48.0836 -63.82031,-77.0977 -4.00735,-29.0141 3.55469,-63.302 3.55469,-99.9707 0,-30.4805 17.41176,-75.76221 47.35156,-118.30859 29.9398,-42.54639 72.02076,-82.67542 118.93945,-106.13477 22.88475,-11.44238 44.83285,-15.71379 67.38282,-15.57422 z"
         id="path7808" />
    </g>
    <g
       id="path6704"
       transform="matrix(0.18827962,0,0,0.18827962,64.265999,-61.804655)"
       style="stroke-width:5.31125">
      <path
         style="color:#000000;fill:url(#linearGradient943);stroke-width:237.775;stroke-linecap:round;stroke-linejoin:round;-inkscape-stroke:none"
         d="m 1638.6,1000.3684 c 0,97.4868 -158.0573,176.5154 -353.0308,176.5154 -85.1824,0 -176.4891,-120.5573 -272.6341,-130.189 -123.92092,-12.4141 -243.94622,84.863 -243.94622,78.8735 -10e-6,-12.1298 27.68319,-138.38039 126.13835,-207.81903 106.89537,-75.39136 288.94827,-93.8963 390.44197,-93.8963 194.9735,0 353.0308,79.02866 353.0308,176.51543 z"
         id="path7812" />
      <path
         style="color:#000000;fill:#311854;stroke-width:5.31125;stroke-linecap:round;stroke-linejoin:round;-inkscape-stroke:none"
         d="m 1285.5684,801.46875 c -104.2144,0 -288.07425,16.69215 -403.34184,97.98828 -53.64155,37.83242 -87.08331,90.15879 -107.42187,134.33007 -10.16928,22.0857 -17.06497,42.2037 -21.49219,57.8692 -2.21361,7.8327 -3.80886,14.5396 -4.89258,19.9609 -1.08371,5.4213 -1.81446,8.1777 -1.81445,13.9512 0,4.7661 2.89392,13.4661 8.9707,18.0605 6.07678,4.5945 11.50555,4.6815 14.53711,4.5762 6.06311,-0.2107 7.36141,-1.3809 8.89258,-2.0215 3.06234,-1.2812 4.61066,-2.258 6.68945,-3.4746 4.15758,-2.4333 9.2132,-5.635 15.68164,-9.5996 12.93689,-7.9292 31.10974,-18.7093 52.86524,-29.2383 43.511,-21.0579 100.98379,-40.4619 156.46091,-34.9043 39.555,3.9626 84.4208,33.4911 129.961,64.8672 45.5401,31.376 91.7531,65.4336 144.9043,65.4336 100.5109,0 191.6831,-20.0828 259.6425,-54.0625 67.9594,-33.9797 115.7735,-83.9953 115.7735,-144.836 0,-60.84058 -47.8141,-110.85814 -115.7735,-144.83785 -67.9594,-33.97971 -159.1316,-54.0625 -259.6425,-54.0625 z m 0,44.76758 c 94.4623,0 179.8086,19.43164 239.6211,49.33789 59.8124,29.90625 91.0273,68.14887 91.0273,104.79488 0,36.6461 -31.2149,74.8868 -91.0273,104.793 -59.8125,29.9062 -145.1588,49.3379 -239.6211,49.3379 -32.0312,0 -74.0609,-26.2208 -119.5059,-57.5312 -45.445,-31.3105 -94.3065,-66.8778 -150.8965,-72.5469 -68.44364,-6.8565 -132.94397,16.1726 -180.42577,39.1523 -11.14669,5.3947 -21.27605,10.7957 -30.38281,15.8887 3.08739,-8.4083 6.74783,-17.4745 11.11133,-26.9512 18.11678,-39.346 47.74704,-84.86453 92.56055,-116.47068 98.5229,-69.48644 278.7663,-89.80469 377.5391,-89.80469 z"
         id="path7814" />
    </g>
    <path
       style="fill:#8d5fd3;stroke:none;stroke-width:0.249251px;stroke-linecap:butt;stroke-linejoin:miter;stroke-opacity:1"
       d="m 246.78503,173.55698 -65.56512,-49.70825 61.5179,61.3603 72.84197,-1.65943 z"
       id="path6910"
       sodipodi:nodetypes="ccccc" />
    <g
       id="path6388"
       transform="matrix(0.18827962,0,0,0.18827962,64.265999,-61.804655)"
       style="stroke-width:5.31125">
      <path
         style="color:#000000;fill:#170b28;stroke-width:0;-inkscape-stroke:none"
         d="m 100.50391,1220.252 15.61914,76.0585 -258.24024,190.0391 202.603518,168.166 H 176.67773 l 28.27735,-21.6875 20.7539,21.6875 h 67.31836 67.48828 55.78516 12.03516 91.51172 106.05859 25.84375 59.32812 127.43165 173.86913 57.3535 131.2598 95.7266 99.373 67.6992 l 9.4688,-13.3867 23.8086,13.3867 h 24.9628 77.8282 193.3379 l 191.0468,-158.5742 -86.289,-83.291 -62.4766,-60.3047 -73.3711,-70.8223 h -0.01 l -63.4746,-61.2714 h -220.8008 -46.3203 -62.6973 l -3.8731,7.3183 -13.5332,-7.3183 h -60.3867 -59.7226 -123.4512 -76.7559 -104.47848 -96.78711 -79.01367 -82.53125 -94.62891 -58.31445 -158.66406 z"
         id="path7820" />
      <path
         style="color:#000000;fill:#000000;fill-opacity:0.6;stroke-width:5.31125;-inkscape-stroke:none"
         d="m 100.50391,1220.252 15.61914,76.0585 -258.24024,190.0391 202.603518,168.166 H 176.67773 l 28.27735,-21.6875 20.7539,21.6875 h 67.31836 67.48828 55.78516 12.03516 91.51172 106.05859 25.84375 59.32812 127.43165 173.86913 57.3535 131.2598 95.7266 99.373 67.6992 l 9.4688,-13.3867 23.8086,13.3867 h 24.9628 77.8282 193.3379 l 191.0468,-158.5742 -86.289,-83.291 -62.4766,-60.3047 -73.3711,-70.8223 h -0.01 l -63.4746,-61.2714 h -220.8008 -46.3203 -62.6973 l -3.8731,7.3183 -13.5332,-7.3183 h -60.3867 -59.7226 -123.4512 -76.7559 -104.47848 -96.78711 -79.01367 -82.53125 -94.62891 -58.31445 -158.66406 z"
         id="path7822" />
    </g>
    <g
       id="path6928"
       transform="matrix(0.18827962,0,0,0.18827962,64.265999,-61.804655)"
       style="stroke-width:5.31125">
      <path
         style="color:#000000;fill:#5a2ca0;stroke-width:56.3513;-inkscape-stroke:none"
         d="m 1763.9655,941.139 -348.2327,-264.0129 234.828,332.5841 478.7908,-15.49799 z"
         id="path7826" />
      <path
         style="color:#000000;fill:#411f70;stroke-width:5.31125;-inkscape-stroke:none"
         d="m 1418.9375,672.89844 -7.5391,7.28711 236.4766,334.91995 481.6484,-15.59183 0.5899,-10.55078 -364.0352,-52.87891 z m 20.8867,29.15039 322.0254,244.14258 1.3535,0.19726 306.084,44.46094 -416.041,13.46679 z"
         id="path7828" />
    </g>
    <g
       id="path6916"
       transform="matrix(0.18827962,0,0,0.18827962,64.265999,-61.804655)"
       style="stroke-width:5.31125">
      <path
         style="color:#000000;fill:#c6afe9;stroke-width:53.1125;-inkscape-stroke:none"
         d="m 1523.3955,868.29838 -348.2328,-264.01291 234.828,332.58417 478.7908,-15.49797 z"
         id="path7832" />
      <path
         style="color:#000000;fill:#6c4aa0;stroke-width:5.31125;-inkscape-stroke:none"
         d="m 1178.1836,600.30078 -7.1055,6.86914 236.3828,334.78516 481.4825,-15.58594 0.5566,-9.94531 -364.1133,-52.88867 z m 19.6836,27.47266 323.5351,245.28711 1.2754,0.18554 309.4961,44.95508 -419.6523,13.58399 z"
         id="path7834" />
    </g>
    <g
       id="path6930"
       transform="matrix(0.18827962,0,0,0.18827962,64.265999,-61.804655)"
       style="stroke-width:5.31125">
      <path
         style="color:#000000;fill:#2d1650;stroke-width:70.2636;-inkscape-stroke:none"
         d="m 1072.3742,1205.8668 348.2327,264.0129 -234.828,-332.5842 -478.79076,15.498 z"
         id="path7838" />
      <path
         style="color:#000000;fill:#7551ac;stroke-width:5.31125;-inkscape-stroke:none"
         d="m 1189.127,1130.5684 -482.35356,15.6132 -0.73633,13.1582 363.69729,52.8262 346.8769,262.9844 9.3985,-9.0859 z m -6.6954,13.4531 208.1368,294.7851 -315.5567,-239.2402 -1.6875,-0.2461 -291.4492,-42.334 z"
         id="path7840" />
    </g>
    <g
       id="path6592"
       transform="matrix(0.18827962,0,0,0.18827962,64.265999,-61.804655)"
       style="stroke-width:5.31125">
      <path
         style="color:#000000;-inkscape-font-specification:FalconsFont;fill:url(#linearGradient6701);stroke-width:44.124;stroke-linecap:round;stroke-linejoin:round;-inkscape-stroke:none"
         d="m 194.365,1290.0897 4.7924,23.2687 -77.3034,56.7564 -12.936,9.4977 -124.467097,91.3843 h 57.6979 l 85.755597,-65.6199 h 84.1305 l -34.8921,65.6199 h 54.8851 l 63.1367,-84.2611 3.2835,-7.1232 4.3779,-9.4977 36.8887,-80.0251 z m 145.3497,0 10.4293,23.2687 -42.5256,56.7564 -7.1166,9.4977 -5.3372,7.1232 -38.8403,84.2611 h 48.9777 l 48.8841,-71.824 h 51.3199 l -2.7835,71.824 h 73.0016 l -1.8741,-71.824 h 26.0342 l 10.4533,-19.5603 5.0755,-9.4977 24.12298,-45.1396 -26.03078,-34.8855 z m 199.82128,34.8855 h 47.72797 l -18.49728,45.1396 -3.8917,9.4977 -37.4471,91.3843 h 76.22157 l 30.92467,-91.3843 3.21413,-9.4977 15.27536,-45.1396 h 67.88661 l 3.07646,-11.6168 -22.53206,-23.2687 H 558.1792 Z m 184.49069,-11.6168 -12.46988,56.7564 -2.08642,9.4977 -2.89048,13.1549 h 140.28192 l -2.44915,31.4036 H 699.6796 l -10.28822,46.8258 h 224.6404 l 0.85428,-91.3843 0.0889,-9.4977 0.16549,-17.6947 H 780.5779 l 4.14655,-27.4449 h 130.67421 l 0.10642,-11.3752 2.27049,56.5148 0.38174,9.4977 3.67155,91.3843 h 229.73884 l -23.3287,-91.3843 -2.4248,-9.4977 -4.4521,-17.4406 h -104.0518 l 2.5414,17.4406 1.384,9.4977 1.9165,13.1549 h 43.5254 l 6.0138,31.6978 h -82.65475 l -4.87926,-44.8527 -1.03297,-9.4977 -4.88465,-44.8999 h 135.11173 l -2.9666,-11.6232 -34.7647,-23.502 H 915.72476 l -0.21968,23.502 -28.58685,-23.502 H 730.18642 Z m 387.35813,0.2333 17.128,56.5231 2.8783,9.4977 27.6915,91.3843 h 230.8143 l -47.4429,-91.3843 -4.9311,-9.4977 -29.3425,-56.5192 32.1344,56.5192 5.4001,9.4977 51.9576,91.3843 h 73.2701 l -58.2276,-91.3843 -6.0518,-9.4977 -1.716,-2.6929 4.8002,2.6929 16.9293,9.4977 162.8906,91.3843 h 42.406 l -72.0053,-91.3843 -7.4836,-9.4977 -44.7209,-56.7564 -47.0441,-23.2687 h -32.1471 l 57.5632,80.0251 4.934,6.8593 -12.713,-6.8593 -148.3177,-80.0251 h -34.0622 l 12.2014,23.502 -41.0045,-23.502 h -161.7898 z m 396.3787,-0.2333 47.3253,56.7564 7.9196,9.4977 76.1986,91.3843 h 218.4685 l -48.3182,-46.5316 h -136.0481 l -28.6937,-31.6978 h 131.8263 l -13.66,-13.1549 -9.8621,-9.4977 -18.3742,-17.6947 h -126.4516 l -24.6263,-27.2052 h 122.8269 l -36.4723,-35.1252 h -180.393 z m -1103.0712,11.6168 h 71.5937 l -20.1048,33.3368 h -74.1816 z m -171.7578,0.2397 h 22.0146 l -20.7854,39.064 h -52.4262 z m 945.239,0 h 72.7717 l 20.2294,44.8999 4.2793,9.4977 20.2079,44.8527 h -80.602 l -16.6691,-44.8527 -3.53,-9.4977 z"
         id="path7844" />
      <path
         style="color:#000000;-inkscape-font-specification:FalconsFont;fill:#c6afe9;stroke-width:5.31125;stroke-linecap:round;stroke-linejoin:round;-inkscape-stroke:none"
         d="m 194.36523,1285.9355 a 4.1542402,4.1542402 0 0 0 -4.06836,4.9922 l 4.25391,20.6582 -75.1543,55.1797 -12.9375,9.4981 -124.466792,91.3847 a 4.1542402,4.1542402 0 0 0 2.458984,7.502 h 57.697265 a 4.1542402,4.1542402 0 0 0 2.525391,-0.8555 l 84.636722,-64.7636 h 75.81054 l -31.64648,59.5156 a 4.1542402,4.1542402 0 0 0 3.66797,6.1035 h 54.88476 a 4.1542402,4.1542402 0 0 0 3.32422,-1.6621 l 39.63086,-52.8906 -22.42969,48.6601 a 4.1542402,4.1542402 0 0 0 3.77149,5.8926 h 48.97851 a 4.1542402,4.1542402 0 0 0 3.4336,-1.8164 l 47.64648,-70.0078 h 44.80469 l -2.61523,67.5097 a 4.1542402,4.1542402 0 0 0 4.15039,4.3145 h 73.00195 a 4.1542402,4.1542402 0 0 0 4.15234,-4.2617 l -1.76367,-67.5625 h 21.77149 a 4.1542402,4.1542402 0 0 0 3.6621,-2.1953 l 10.45508,-19.5606 5.07422,-9.498 22.94922,-42.9434 h 39.04688 l -16.14844,39.4102 -3.89258,9.498 -37.44727,91.3848 a 4.1542402,4.1542402 0 0 0 3.84375,5.7285 h 76.22266 a 4.1542402,4.1542402 0 0 0 3.93359,-2.8223 l 30.92383,-91.3847 3.21485,-9.4961 14.32031,-42.3184 h 60.26562 l -8.80859,40.0938 -2.08594,9.498 -2.89062,13.1543 a 4.1542402,4.1542402 0 0 0 4.05664,5.0469 h 135.79101 l -1.80078,23.0957 H 699.67969 a 4.1542402,4.1542402 0 0 0 -4.05664,3.2617 l -10.28907,46.8262 a 4.1542402,4.1542402 0 0 0 4.05664,5.0449 h 224.64063 a 4.1542402,4.1542402 0 0 0 3.88086,-3.4668 4.1542402,4.1542402 0 0 0 3.91601,3.4668 h 229.74028 a 4.1542402,4.1542402 0 0 0 3.8086,-2.75 4.1542402,4.1542402 0 0 0 3.705,2.75 h 230.8145 a 4.1542402,4.1542402 0 0 0 3.7617,-2.8066 l 0.4023,0.707 a 4.1542402,4.1542402 0 0 0 3.6114,2.0996 h 73.2715 a 4.1542402,4.1542402 0 0 0 3.5019,-6.3848 l -57.1094,-89.6308 7.3086,4.0996 162.8907,91.3847 a 4.1542402,4.1542402 0 0 0 2.0312,0.5313 h 42.4063 a 4.1542402,4.1542402 0 0 0 3.3906,-2.2793 l 0.6543,0.7852 a 4.1542402,4.1542402 0 0 0 3.1894,1.4941 h 218.4688 a 4.1542402,4.1542402 0 0 0 2.8808,-7.1465 l -48.3183,-46.5312 a 4.1542402,4.1542402 0 0 0 -2.8809,-1.1622 h -134.2051 l -21.1738,-23.3886 h 122.4629 a 4.1542402,4.1542402 0 0 0 2.8809,-7.1465 l -13.6582,-13.1543 -9.8633,-9.4981 -18.3731,-17.6953 a 4.1542402,4.1542402 0 0 0 -2.8828,-1.1621 h -124.6074 l -17.1074,-18.8965 h 113.4648 a 4.1542402,4.1542402 0 0 0 2.8809,-7.1464 l -36.4727,-35.125 a 4.1542402,4.1542402 0 0 0 -2.8808,-1.1622 h -180.3926 a 4.1542402,4.1542402 0 0 0 -3.2637,6.7247 l 6.9473,8.8183 -30.5528,-15.1113 a 4.1542402,4.1542402 0 0 0 -1.8417,-0.4317 h -32.1465 a 4.1542402,4.1542402 0 0 0 -3.3711,6.5801 l 51.957,72.2324 -145.1465,-78.3144 a 4.1542402,4.1542402 0 0 0 -1.9726,-0.4981 h -34.0625 a 4.1542402,4.1542402 0 0 0 -3.6875,6.0684 l 5.6875,10.9531 -28.7383,-16.4707 a 4.1542402,4.1542402 0 0 0 -2.0645,-0.5508 h -161.791 a 4.1542402,4.1542402 0 0 0 -4.0234,5.1817 l 3.2969,12.9121 -25.709,-17.3809 a 4.1542402,4.1542402 0 0 0 -2.3262,-0.7129 H 915.72461 a 4.1542402,4.1542402 0 0 0 -4.1543,4.1153 l -0.13867,14.8144 -21.875,-17.9843 a 4.1542402,4.1542402 0 0 0 -2.63867,-0.9454 H 730.18555 a 4.1542402,4.1542402 0 0 0 -4.01368,3.0918 l -4.27734,16.1582 -17.41601,-17.9863 a 4.1542402,4.1542402 0 0 0 -2.98438,-1.2637 H 558.17969 a 4.1542402,4.1542402 0 0 0 -3.66407,2.1973 l -15.56054,29.1172 -22.1211,-29.6445 a 4.1542402,4.1542402 0 0 0 -3.32812,-1.67 H 339.71484 Z m 5.09766,8.3086 h 133.76172 l -34.17188,74.1309 -4.37695,9.498 -3.09961,6.7247 -61.62695,82.2461 h -45.89258 l 31.64648,-59.5176 a 4.1542402,4.1542402 0 0 0 -3.66796,-6.1035 H 127.9043 a 4.1542402,4.1542402 0 0 0 -2.52344,0.8554 l -84.638673,64.7657 H -2.8730469 l 114.2499969,-83.8829 12.93555,-9.498 77.30273,-56.7559 a 4.1542402,4.1542402 0 0 0 1.61133,-4.1875 z m 146.66602,0 h 165.29296 l 23.20704,31.0997 -22.87891,42.8125 -5.07617,9.498 -9.2793,17.3652 h -23.54492 a 4.1542402,4.1542402 0 0 0 -4.15234,4.2618 l 1.76367,67.5625 h -64.41992 l 2.61523,-67.5098 a 4.1542402,4.1542402 0 0 0 -4.15039,-4.3145 h -51.32031 a 4.1542402,4.1542402 0 0 0 -3.4336,1.8164 l -47.64648,70.0079 H 262.8125 l 35.93945,-77.9688 5.07422,-6.7715 7.11719,-9.498 42.52539,-56.7559 a 4.1542402,4.1542402 0 0 0 0.46484,-4.1894 z m 214.54101,0 h 139.06445 l 19.67579,20.3184 -1.65625,6.2598 h -64.68946 a 4.1542402,4.1542402 0 0 0 -3.93554,2.8222 l -15.27539,45.1387 -3.21485,9.4981 -29.96875,88.5625 h -67.05078 l 35.09961,-85.6563 3.89062,-9.498 18.49805,-45.1387 a 4.1542402,4.1542402 0 0 0 -3.84375,-5.7285 h -40.79883 z m 172.71289,0 h 152.04688 l 25.90234,21.295 -0.0488,5.2832 H 784.72461 a 4.1542402,4.1542402 0 0 0 -4.10742,3.5332 l -4.14649,27.4433 a 4.1542402,4.1542402 0 0 0 4.10742,4.7754 h 130.36915 l -0.125,13.502 -0.0898,9.498 -0.8164,87.2696 H 694.55664 l 8.46289,-38.5196 h 141.39258 a 4.1542402,4.1542402 0 0 0 4.14258,-3.8301 l 2.44922,-31.4043 a 4.1542402,4.1542402 0 0 0 -4.14258,-4.4765 H 711.74609 l 1.78125,-8.1094 2.08594,-9.498 12.44922,-56.6563 z m 186.45703,0 h 155.50786 l 32.4023,21.9043 1.2539,4.9121 H 979.24023 a 4.1542402,4.1542402 0 0 0 -4.13086,4.6036 l 4.88477,44.9004 1.0332,9.498 4.87891,44.8516 a 4.1542402,4.1542402 0 0 0 4.13086,3.705 h 82.65429 a 4.1542402,4.1542402 0 0 0 4.0801,-4.9277 l -6.0137,-31.6992 a 4.1542402,4.1542402 0 0 0 -4.0801,-3.3789 h -39.9336 l -1.3984,-9.5996 -1.3828,-9.4981 -1.8496,-12.6875 h 96.0215 l 3.6543,14.3145 2.4257,9.498 22.0059,86.2032 H 925.81836 l -3.50977,-87.3985 -0.38281,-9.498 -2.26562,-56.4375 z m 190.89256,0 h 155.336 l 38.9863,22.3438 28.7812,55.4414 4.9317,9.498 44.2929,85.3165 h -220.8964 l -26.7969,-88.4356 -2.8789,-9.498 -17.0938,-56.4102 z m 192.0821,0 h 26.1757 l 147.3946,79.5254 12.7129,6.8594 a 4.1542402,4.1542402 0 0 0 5.3437,-6.0801 l -4.9336,-6.8593 -52.8301,-73.4454 h 23.0703 l 45.334,22.4219 44.1407,56.0195 7.4824,9.4981 66.707,84.6602 h -32.7598 l -161.9433,-90.8536 -16.9297,-9.498 -4.7988,-2.6934 a 4.1542402,4.1542402 0 0 0 -5.5371,5.8555 l 1.7168,2.6934 6.0507,9.4961 54.1602,85 h -63.2813 l -50.7636,-89.2852 -5.4004,-9.4961 -32.086,-56.4336 z m 195.1757,0 h 170.1563 l 27.8457,26.8164 h -112.5254 a 4.1542402,4.1542402 0 0 0 -3.0781,6.9415 l 24.625,27.205 a 4.1542402,4.1542402 0 0 0 3.0801,1.3672 h 124.7773 l 17.168,16.5332 9.8613,9.4961 6.2383,6.0078 h -121.5235 a 4.1542402,4.1542402 0 0 0 -3.08,6.9414 l 28.6953,31.6973 a 4.1542402,4.1542402 0 0 0 3.0781,1.3671 h 134.373 l 39.6934,38.2247 h -206.2227 l -74.9531,-89.8907 -7.9199,-9.498 -47.2539,-56.668 -0.018,-0.022 z m -1158.33004,5.8829 5.69336,12.6992 -30.00782,40.0508 z m 65.03125,20.6953 a 4.1542402,4.1542402 0 0 0 -3.4336,1.8164 l -22.6914,33.3359 A 4.1542402,4.1542402 0 0 0 382,1362.4668 h 74.18164 a 4.1542402,4.1542402 0 0 0 3.55664,-2.0098 l 20.10547,-33.3359 a 4.1542402,4.1542402 0 0 0 -3.55859,-6.2988 z m -171.75782,0.2382 a 4.1542402,4.1542402 0 0 0 -2.51953,0.8516 l -51.19531,39.0645 a 4.1542402,4.1542402 0 0 0 2.51953,7.457 h 52.42578 a 4.1542402,4.1542402 0 0 0 3.66602,-2.2031 l 20.78515,-39.0645 a 4.1542402,4.1542402 0 0 0 -3.66601,-6.1055 z m 945.24021,0 a 4.1542402,4.1542402 0 0 0 -3.8945,5.6016 l 16.6875,44.9004 3.5312,9.498 16.668,44.8516 a 4.1542402,4.1542402 0 0 0 3.8945,2.707 h 80.6016 a 4.1542402,4.1542402 0 0 0 3.7871,-5.8593 l -20.209,-44.8535 -4.2793,-9.4981 -20.2285,-44.9004 a 4.1542402,4.1542402 0 0 0 -3.7871,-2.4473 z m -771.28318,8.0684 h 62.03907 l -15.09375,25.0293 h -63.98438 z m 381.40625,0 h 123.67579 l 0.76757,19.1367 H 785.40625 Z m -553.95703,0.2402 h 13.69336 l -16.36523,30.7559 h -37.63672 z m 749.5293,0 h 127.95706 l 5.8027,19.1504 h -100.3184 a 4.1542402,4.1542402 0 0 0 -4.1113,4.7539 l 2.543,17.4395 1.3828,9.498 1.916,13.1563 a 4.1542402,4.1542402 0 0 0 4.1113,3.5547 h 40.086 l 4.4375,23.3886 h -73.91213 l -4.47656,-41.1464 -1.0332,-9.4981 z m 200.27926,0 h 64.1114 l 19.1269,42.4512 4.2793,9.4981 17.5684,38.9921 h -71.2871 l -15.6621,-42.1445 -3.5313,-9.498 z"
         id="path7846" />
    </g>
    <path
       id="path6879"
       style="opacity:0.996;fill:#ececec;fill-opacity:1;stroke:none;stroke-width:8.79857;stroke-linecap:round;stroke-linejoin:round;stroke-miterlimit:4;stroke-dasharray:none"
       d="m 333.99882,55.495711 a 53.308664,81.239403 0 0 0 -0.089,0.0285 53.308664,81.239403 0 0 0 -0.11812,0.0382 53.308664,81.239403 0 0 0 -0.11802,0.0385 53.308664,81.239403 0 0 0 -0.11792,0.0389 53.308664,81.239403 0 0 0 -0.11793,0.0394 53.308664,81.239403 0 0 0 -0.11784,0.0398 53.308664,81.239403 0 0 0 -0.1178,0.0402 53.308664,81.239403 0 0 0 -0.11773,0.0405 53.308664,81.239403 0 0 0 -0.11764,0.041 53.308664,81.239403 0 0 0 -0.11764,0.0413 53.308664,81.239403 0 0 0 -0.11752,0.0418 53.308664,81.239403 0 0 0 -0.11754,0.0422 53.308664,81.239403 0 0 0 -0.11744,0.0426 53.308664,81.239403 0 0 0 -0.11733,0.043 53.308664,81.239403 0 0 0 -0.11724,0.0434 53.308664,81.239403 0 0 0 -0.11724,0.0438 53.308664,81.239403 0 0 0 -0.11715,0.0443 53.308664,81.239403 0 0 0 -0.11715,0.0446 53.308664,81.239403 0 0 0 -0.11705,0.045 53.308664,81.239403 0 0 0 -0.11694,0.0454 53.308664,81.239403 0 0 0 -0.11685,0.0458 53.308664,81.239403 0 0 0 -0.11686,0.0462 53.308664,81.239403 0 0 0 -0.11676,0.0467 53.308664,81.239403 0 0 0 -0.11665,0.047 53.308664,81.239403 0 0 0 -0.11666,0.0475 53.308664,81.239403 0 0 0 -0.11656,0.0479 53.308664,81.239403 0 0 0 -0.11646,0.0483 53.308664,81.239403 0 0 0 -0.11638,0.0487 53.308664,81.239403 0 0 0 -0.11636,0.0491 53.308664,81.239403 0 0 0 -0.11627,0.0496 53.308664,81.239403 0 0 0 -0.11617,0.0499 53.308664,81.239403 0 0 0 -0.11607,0.0503 53.308664,81.239403 0 0 0 -0.11608,0.0506 53.308664,81.239403 0 0 0 -0.11589,0.0509 53.308664,81.239403 0 0 0 -0.11586,0.0514 53.308664,81.239403 0 0 0 -0.11588,0.0518 53.308664,81.239403 0 0 0 -0.11569,0.0523 53.308664,81.239403 0 0 0 -0.1157,0.0526 53.308664,81.239403 0 0 0 -0.11558,0.053 53.308664,81.239403 0 0 0 -0.11549,0.0535 53.308664,81.239403 0 0 0 -0.1154,0.0538 53.308664,81.239403 0 0 0 -0.11528,0.0543 53.308664,81.239403 0 0 0 -0.11531,0.0547 53.308664,81.239403 0 0 0 -0.11509,0.0551 53.308664,81.239403 0 0 0 -0.11511,0.0555 53.308664,81.239403 0 0 0 -0.115,0.0559 53.308664,81.239403 0 0 0 -0.11491,0.0562 53.308664,81.239403 0 0 0 -0.11491,0.0566 53.308664,81.239403 0 0 0 -0.1147,0.057 53.308664,81.239403 0 0 0 -0.11471,0.0574 53.308664,81.239403 0 0 0 -0.11452,0.0579 53.308664,81.239403 0 0 0 -0.11453,0.0582 53.308664,81.239403 0 0 0 -0.11442,0.0587 53.308664,81.239403 0 0 0 -0.11432,0.059 53.308664,81.239403 0 0 0 -0.11423,0.0594 53.308664,81.239403 0 0 0 -0.11411,0.0598 53.308664,81.239403 0 0 0 -0.11414,0.0602 53.308664,81.239403 0 0 0 -0.11393,0.0606 53.308664,81.239403 0 0 0 -0.11383,0.061 53.308664,81.239403 0 0 0 -0.11384,0.0613 53.308664,81.239403 0 0 0 -0.11365,0.0618 53.308664,81.239403 0 0 0 -0.11363,0.0621 53.308664,81.239403 0 0 0 -0.11356,0.0625 53.308664,81.239403 0 0 0 -0.11334,0.0629 53.308664,81.239403 0 0 0 -0.11334,0.0633 53.308664,81.239403 0 0 0 -0.11325,0.0637 53.308664,81.239403 0 0 0 -0.11316,0.0641 53.308664,81.239403 0 0 0 -0.11297,0.0645 53.308664,81.239403 0 0 0 -0.11297,0.0649 53.308664,81.239403 0 0 0 -0.11285,0.0653 53.308664,81.239403 0 0 0 -0.11278,0.0657 53.308664,81.239403 0 0 0 -0.11267,0.0661 53.308664,81.239403 0 0 0 -0.11246,0.0665 53.308664,81.239403 0 0 0 -0.11248,0.0669 53.308664,81.239403 0 0 0 -0.11238,0.0673 53.308664,81.239403 0 0 0 -0.11227,0.0677 53.308664,81.239403 0 0 0 -0.11211,0.0681 53.308664,81.239403 0 0 0 -0.11207,0.0684 53.308664,81.239403 0 0 0 -0.11198,0.0686 53.308664,81.239403 0 0 0 -0.1118,0.0691 53.308664,81.239403 0 0 0 -0.11179,0.0695 53.308664,81.239403 0 0 0 -0.1116,0.0699 53.308664,81.239403 0 0 0 -0.1115,0.0703 53.308664,81.239403 0 0 0 -0.1115,0.0706 53.308664,81.239403 0 0 0 -0.11131,0.0711 53.308664,81.239403 0 0 0 -0.11121,0.0714 53.308664,81.239403 0 0 0 -0.11111,0.0719 53.308664,81.239403 0 0 0 -0.11101,0.0722 53.308664,81.239403 0 0 0 -0.11091,0.0727 53.308664,81.239403 0 0 0 -0.11073,0.073 53.308664,81.239403 0 0 0 -0.11073,0.0734 53.308664,81.239403 0 0 0 -0.11054,0.0739 53.308664,81.239403 0 0 0 -0.11051,0.0742 53.308664,81.239403 0 0 0 -0.11034,0.0745 53.308664,81.239403 0 0 0 -0.11024,0.0749 53.308664,81.239403 0 0 0 -0.11014,0.0752 53.308664,81.239403 0 0 0 -0.10994,0.0757 53.308664,81.239403 0 0 0 -0.10995,0.0761 53.308664,81.239403 0 0 0 -0.10975,0.0764 53.308664,81.239403 0 0 0 -0.10975,0.0769 53.308664,81.239403 0 0 0 -0.10956,0.0772 53.308664,81.239403 0 0 0 -0.10945,0.0775 53.308664,81.239403 0 0 0 -0.10928,0.078 53.308664,81.239403 0 0 0 -0.10925,0.0783 53.308664,81.239403 0 0 0 -0.10908,0.0787 53.308664,81.239403 0 0 0 -0.10895,0.0791 53.308664,81.239403 0 0 0 -0.10889,0.0794 53.308664,81.239403 0 0 0 -0.10876,0.0798 53.308664,81.239403 0 0 0 -0.10858,0.0802 53.308664,81.239403 0 0 0 -0.1086,0.0806 53.308664,81.239403 0 0 0 -0.10838,0.0809 53.308664,81.239403 0 0 0 -0.10821,0.0813 53.308664,81.239403 0 0 0 -0.10817,0.0817 53.308664,81.239403 0 0 0 -0.108,0.082 53.308664,81.239403 0 0 0 -0.1079,0.0824 53.308664,81.239403 0 0 0 -0.10781,0.0828 53.308664,81.239403 0 0 0 -0.10763,0.0832 53.308664,81.239403 0 0 0 -0.1076,0.0836 53.308664,81.239403 0 0 0 -0.10742,0.084 53.308664,81.239403 0 0 0 -0.10721,0.0843 53.308664,81.239403 0 0 0 -0.10721,0.0847 53.308664,81.239403 0 0 0 -0.10704,0.0851 53.308664,81.239403 0 0 0 -0.10683,0.0855 53.308664,81.239403 0 0 0 -0.10683,0.0858 53.308664,81.239403 0 0 0 -0.10664,0.0862 53.308664,81.239403 0 0 0 -0.10653,0.0865 53.308664,81.239403 0 0 0 -0.10634,0.0868 53.308664,81.239403 0 0 0 -0.10625,0.0872 53.308664,81.239403 0 0 0 -0.10617,0.0876 53.308664,81.239403 0 0 0 -0.10604,0.0879 53.308664,81.239403 0 0 0 -0.10586,0.0883 53.308664,81.239403 0 0 0 -0.10577,0.0887 53.308664,81.239403 0 0 0 -0.10556,0.089 53.308664,81.239403 0 0 0 -0.10548,0.0895 53.308664,81.239403 0 0 0 -0.10536,0.0897 53.308664,81.239403 0 0 0 -0.10517,0.0902 53.308664,81.239403 0 0 0 -0.10508,0.0906 53.308664,81.239403 0 0 0 -0.10498,0.0909 53.308664,81.239403 0 0 0 -0.1048,0.0913 53.308664,81.239403 0 0 0 -0.10468,0.0916 53.308664,81.239403 0 0 0 -0.1045,0.092 53.308664,81.239403 0 0 0 -0.1044,0.0923 53.308664,81.239403 0 0 0 -0.10431,0.0927 53.308664,81.239403 0 0 0 -0.1041,0.093 53.308664,81.239403 0 0 0 -0.1039,0.0934 53.308664,81.239403 0 0 0 -0.10392,0.0938 53.308664,81.239403 0 0 0 -0.10372,0.0942 53.308664,81.239403 0 0 0 -0.10352,0.0945 53.308664,81.239403 0 0 0 -0.10344,0.0948 53.308664,81.239403 0 0 0 -0.10321,0.0952 53.308664,81.239403 0 0 0 -0.10315,0.0956 53.308664,81.239403 0 0 0 -0.10304,0.0959 53.308664,81.239403 0 0 0 -0.10283,0.0962 53.308664,81.239403 0 0 0 -0.10275,0.0966 53.308664,81.239403 0 0 0 -0.10254,0.097 53.308664,81.239403 0 0 0 -0.10246,0.0973 53.308664,81.239403 0 0 0 -0.10225,0.0976 53.308664,81.239403 0 0 0 -0.10216,0.0981 53.308664,81.239403 0 0 0 -0.10198,0.0983 53.308664,81.239403 0 0 0 -0.10186,0.0987 53.308664,81.239403 0 0 0 -0.10168,0.0991 53.308664,81.239403 0 0 0 -0.10148,0.0994 53.308664,81.239403 0 0 0 -0.10148,0.0998 53.308664,81.239403 0 0 0 -0.1012,0.10012 53.308664,81.239403 0 0 0 -0.10108,0.10051 53.308664,81.239403 0 0 0 -0.10099,0.1008 53.308664,81.239403 0 0 0 -0.10081,0.10118 53.308664,81.239403 0 0 0 -0.1006,0.10158 53.308664,81.239403 0 0 0 -0.1005,0.10187 53.308664,81.239403 0 0 0 -0.10041,0.10216 53.308664,81.239403 0 0 0 -0.10013,0.10265 53.308664,81.239403 0 0 0 -0.1001,0.10284 53.308664,81.239403 0 0 0 -0.0998,0.10332 53.308664,81.239403 0 0 0 -0.0997,0.10363 53.308664,81.239403 0 0 0 -0.0996,0.10391 53.308664,81.239403 0 0 0 -0.0994,0.1043 53.308664,81.239403 0 0 0 -0.0992,0.1046 53.308664,81.239403 0 0 0 -0.0992,0.10497 53.308664,81.239403 0 0 0 -0.0989,0.10538 53.308664,81.239403 0 0 0 -0.0987,0.10566 53.308664,81.239403 0 0 0 -0.0986,0.10596 53.308664,81.239403 0 0 0 -0.0985,0.10634 53.308664,81.239403 0 0 0 -0.0983,0.10674 53.308664,81.239403 0 0 0 -0.0981,0.10703 53.308664,81.239403 0 0 0 -0.0979,0.10731 53.308664,81.239403 0 0 0 -0.0978,0.10771 53.308664,81.239403 0 0 0 -0.0977,0.10799 53.308664,81.239403 0 0 0 -0.0975,0.10839 53.308664,81.239403 0 0 0 -0.0973,0.10868 53.308664,81.239403 0 0 0 -0.0972,0.10907 53.308664,81.239403 0 0 0 -0.0971,0.10936 53.308664,81.239403 0 0 0 -0.0969,0.10975 53.308664,81.239403 0 0 0 -0.0967,0.11004 53.308664,81.239403 0 0 0 -0.0965,0.11034 53.308664,81.239403 0 0 0 -0.0965,0.11072 53.308664,81.239403 0 0 0 -0.0962,0.11111 53.308664,81.239403 0 0 0 -0.096,0.11131 53.308664,81.239403 0 0 0 -0.096,0.1117 53.308664,81.239403 0 0 0 -0.0958,0.11209 53.308664,81.239403 0 0 0 -0.0956,0.11237 53.308664,81.239403 0 0 0 -0.0953,0.11267 53.308664,81.239403 0 0 0 -0.0953,0.11306 53.308664,81.239403 0 0 0 -0.0951,0.11335 53.308664,81.239403 0 0 0 -0.0949,0.11364 53.308664,81.239403 0 0 0 -0.0948,0.11403 53.308664,81.239403 0 0 0 -0.0946,0.11432 53.308664,81.239403 0 0 0 -0.0944,0.11472 53.308664,81.239403 0 0 0 -0.0942,0.115 53.308664,81.239403 0 0 0 -0.0941,0.1153 53.308664,81.239403 0 0 0 -0.0938,0.11559 53.308664,81.239403 0 0 0 -0.0937,0.11597 53.308664,81.239403 0 0 0 -0.0936,0.11627 53.308664,81.239403 0 0 0 -0.0933,0.11666 53.308664,81.239403 0 0 0 -0.0932,0.11694 53.308664,81.239403 0 0 0 -0.093,0.11725 53.308664,81.239403 0 0 0 -0.0928,0.11753 53.308664,81.239403 0 0 0 -0.0926,0.11793 53.308664,81.239403 0 0 0 -0.0924,0.11821 53.308664,81.239403 0 0 0 -0.0923,0.11851 53.308664,81.239403 0 0 0 -0.0922,0.11879 53.308664,81.239403 0 0 0 -0.0919,0.1192 53.308664,81.239403 0 0 0 -0.0917,0.11947 53.308664,81.239403 0 0 0 -0.0917,0.11978 53.308664,81.239403 0 0 0 -0.0914,0.12016 53.308664,81.239403 0 0 0 -0.0913,0.12045 53.308664,81.239403 0 0 0 -0.0911,0.12074 53.308664,81.239403 0 0 0 -0.0909,0.12105 53.308664,81.239403 0 0 0 -0.0907,0.12132 53.308664,81.239403 0 0 0 -0.0906,0.12172 53.308664,81.239403 0 0 0 -0.0903,0.12201 53.308664,81.239403 0 0 0 -0.0902,0.1223 53.308664,81.239403 0 0 0 -0.0899,0.12259 53.308664,81.239403 0 0 0 -0.0898,0.12298 53.308664,81.239403 0 0 0 -0.0896,0.12318 53.308664,81.239403 0 0 0 -0.0894,0.12357 53.308664,81.239403 0 0 0 -0.0893,0.12385 53.308664,81.239403 0 0 0 -0.089,0.12415 53.308664,81.239403 0 0 0 -0.0888,0.12444 53.308664,81.239403 0 0 0 -0.0887,0.12484 53.308664,81.239403 0 0 0 -0.0884,0.12502 53.308664,81.239403 0 0 0 -0.0883,0.12541 53.308664,81.239403 0 0 0 -0.0881,0.12572 53.308664,81.239403 0 0 0 -0.0879,0.12599 53.308664,81.239403 0 0 0 -0.0877,0.12629 53.308664,81.239403 0 0 0 -0.0876,0.12658 53.308664,81.239403 0 0 0 -0.0873,0.12688 53.308664,81.239403 0 0 0 -0.0872,0.12727 53.308664,81.239403 0 0 0 -0.087,0.12745 53.308664,81.239403 0 0 0 -0.0867,0.12785 53.308664,81.239403 0 0 0 -0.0867,0.12804 53.308664,81.239403 0 0 0 -0.0864,0.12843 53.308664,81.239403 0 0 0 -0.0863,0.12872 53.308664,81.239403 0 0 0 -0.0861,0.12902 53.308664,81.239403 0 0 0 -0.0858,0.12921 53.308664,81.239403 0 0 0 -0.0858,0.12959 53.308664,81.239403 0 0 0 -0.0855,0.12989 53.308664,81.239403 0 0 0 -0.0854,0.13019 53.308664,81.239403 0 0 0 -0.0851,0.13047 53.308664,81.239403 0 0 0 -0.085,0.13076 53.308664,81.239403 0 0 0 -0.0847,0.13106 53.308664,81.239403 0 0 0 -0.0846,0.13136 53.308664,81.239403 0 0 0 -0.0843,0.13164 53.308664,81.239403 0 0 0 -0.0841,0.13193 53.308664,81.239403 0 0 0 -0.084,0.13223 53.308664,81.239403 0 0 0 -0.0837,0.13251 53.308664,81.239403 0 0 0 -0.0836,0.13282 53.308664,81.239403 0 0 0 -0.0833,0.13309 53.308664,81.239403 0 0 0 -0.0831,0.13339 53.308664,81.239403 0 0 0 -0.083,0.13359 53.308664,81.239403 0 0 0 -0.0827,0.13398 53.308664,81.239403 0 0 0 -0.0825,0.13427 53.308664,81.239403 0 0 0 -0.0823,0.13446 53.308664,81.239403 0 0 0 -0.0822,0.13486 53.308664,81.239403 0 0 0 -0.0819,0.13504 53.308664,81.239403 0 0 0 -0.0817,0.13534 53.308664,81.239403 0 0 0 -0.0814,0.13563 53.308664,81.239403 0 0 0 -0.0813,0.13593 53.308664,81.239403 0 0 0 -0.0811,0.13621 53.308664,81.239403 0 0 0 -0.0809,0.13651 53.308664,81.239403 0 0 0 -0.0806,0.13679 53.308664,81.239403 0 0 0 -0.0805,0.137 53.308664,81.239403 0 0 0 -0.0802,0.13738 53.308664,81.239403 0 0 0 -0.0801,0.13758 53.308664,81.239403 0 0 0 -0.0799,0.13787 53.308664,81.239403 0 0 0 -0.0797,0.13815 53.308664,81.239403 0 0 0 -0.0795,0.13846 53.308664,81.239403 0 0 0 -0.0793,0.13864 53.308664,81.239403 0 0 0 -0.079,0.13904 53.308664,81.239403 0 0 0 -0.0789,0.13923 53.308664,81.239403 0 0 0 -0.0787,0.13953 53.308664,81.239403 0 0 0 -0.0784,0.13972 53.308664,81.239403 0 0 0 -0.0783,0.1401 53.308664,81.239403 0 0 0 -0.078,0.1403 53.308664,81.239403 0 0 0 -0.0779,0.1406 53.308664,81.239403 0 0 0 -0.0776,0.14088 53.308664,81.239403 0 0 0 -0.0775,0.14107 53.308664,81.239403 0 0 0 -0.0772,0.14148 53.308664,81.239403 0 0 0 -0.077,0.14166 53.308664,81.239403 0 0 0 -0.0769,0.14186 53.308664,81.239403 0 0 0 -0.0766,0.14225 53.308664,81.239403 0 0 0 -0.0763,0.14243 53.308664,81.239403 0 0 0 -0.0762,0.14274 53.308664,81.239403 0 0 0 -0.0759,0.14303 53.308664,81.239403 0 0 0 -0.0758,0.14321 53.308664,81.239403 0 0 0 -0.0755,0.14352 53.308664,81.239403 0 0 0 -0.0753,0.1437 53.308664,81.239403 0 0 0 -0.075,0.1441 53.308664,81.239403 0 0 0 -0.0749,0.14429 53.308664,81.239403 0 0 0 -0.0746,0.14448 53.308664,81.239403 0 0 0 -0.0744,0.14478 53.308664,81.239403 0 0 0 -0.0743,0.14507 53.308664,81.239403 0 0 0 -0.0741,0.14536 53.308664,81.239403 0 0 0 -0.0738,0.14555 53.308664,81.239403 0 0 0 -0.0736,0.14586 53.308664,81.239403 0 0 0 -0.0734,0.14603 53.308664,81.239403 0 0 0 -0.0732,0.14634 53.308664,81.239403 0 0 0 -0.0729,0.14663 53.308664,81.239403 0 0 0 -0.0728,0.14681 53.308664,81.239403 0 0 0 -0.0725,0.14702 53.308664,81.239403 0 0 0 -0.0723,0.1474 53.308664,81.239403 0 0 0 -0.072,0.1475 53.308664,81.239403 0 0 0 -0.0718,0.14789 53.308664,81.239403 0 0 0 -0.0716,0.14809 53.308664,81.239403 0 0 0 -0.0714,0.14827 53.308664,81.239403 0 0 0 -0.0711,0.14858 53.308664,81.239403 0 0 0 -0.071,0.14886 53.308664,81.239403 0 0 0 -0.0707,0.14906 53.308664,81.239403 0 0 0 -0.0704,0.14925 53.308664,81.239403 0 0 0 -0.0703,0.14955 53.308664,81.239403 0 0 0 -0.07,0.14983 53.308664,81.239403 0 0 0 -0.0697,0.15004 53.308664,81.239403 0 0 0 -0.0696,0.15022 53.308664,81.239403 0 0 0 -0.0693,0.15052 53.308664,81.239403 0 0 0 -0.0692,0.15071 53.308664,81.239403 0 0 0 -0.0689,0.151 53.308664,81.239403 0 0 0 -0.0686,0.1512 53.308664,81.239403 0 0 0 -0.0684,0.15149 53.308664,81.239403 0 0 0 -0.0684,0.15168 53.308664,81.239403 0 0 0 -0.0681,0.15198 53.308664,81.239403 0 0 0 -0.0678,0.15217 53.308664,81.239403 0 0 0 -0.0677,0.15237 53.308664,81.239403 0 0 0 -0.0674,0.15265 53.308664,81.239403 0 0 0 -0.0672,0.15286 53.308664,81.239403 0 0 0 -0.067,0.15305 53.308664,81.239403 0 0 0 -0.0667,0.15333 53.308664,81.239403 0 0 0 -0.0665,0.15353 53.308664,81.239403 0 0 0 -0.0663,0.15383 53.308664,81.239403 0 0 0 -0.066,0.15402 53.308664,81.239403 0 0 0 -0.0658,0.15421 53.308664,81.239403 0 0 0 -0.0656,0.15451 53.308664,81.239403 0 0 0 -0.0653,0.1547 53.308664,81.239403 0 0 0 -0.0651,0.1549 53.308664,81.239403 0 0 0 -0.0648,0.15518 53.308664,81.239403 0 0 0 -0.0646,0.15529 53.308664,81.239403 0 0 0 -0.0644,0.15558 53.308664,81.239403 0 0 0 -0.0642,0.15587 53.308664,81.239403 0 0 0 -0.0639,0.15606 53.308664,81.239403 0 0 0 -0.0636,0.15616 53.308664,81.239403 0 0 0 -0.0635,0.15654 53.308664,81.239403 0 0 0 -0.0631,0.15666 53.308664,81.239403 0 0 0 -0.063,0.15694 53.308664,81.239403 0 0 0 -0.0628,0.15713 53.308664,81.239403 0 0 0 -0.0625,0.15733 53.308664,81.239403 0 0 0 -0.0623,0.15752 53.308664,81.239403 0 0 0 -0.0621,0.15781 53.308664,81.239403 0 0 0 -0.0618,0.15791 53.308664,81.239403 0 0 0 -0.0616,0.15821 53.308664,81.239403 0 0 0 -0.0614,0.15839 53.308664,81.239403 0 0 0 -0.0611,0.1587 53.308664,81.239403 0 0 0 -0.0609,0.15878 53.308664,81.239403 0 0 0 -0.0606,0.15908 53.308664,81.239403 0 0 0 -0.0604,0.15918 53.308664,81.239403 0 0 0 -0.0601,0.15947 53.308664,81.239403 0 0 0 -0.0599,0.15966 53.308664,81.239403 0 0 0 -0.0597,0.15986 53.308664,81.239403 0 0 0 -0.0595,0.16015 53.308664,81.239403 0 0 0 -0.0593,0.16024 53.308664,81.239403 0 0 0 -0.059,0.16045 53.308664,81.239403 0 0 0 -0.0588,0.16073 53.308664,81.239403 0 0 0 -0.0585,0.16093 53.308664,81.239403 0 0 0 -0.0583,0.16102 53.308664,81.239403 0 0 0 -0.0581,0.16132 53.308664,81.239403 0 0 0 -0.0577,0.16151 53.308664,81.239403 0 0 0 -0.0576,0.16171 53.308664,81.239403 0 0 0 -0.0573,0.16181 53.308664,81.239403 0 0 0 -0.0571,0.16208 53.308664,81.239403 0 0 0 -0.0569,0.1623 53.308664,81.239403 0 0 0 -0.0565,0.16248 53.308664,81.239403 0 0 0 -0.0563,0.16268 53.308664,81.239403 0 0 0 -0.0562,0.16287 53.308664,81.239403 0 0 0 -0.0559,0.16307 53.308664,81.239403 0 0 0 -0.0557,0.16327 53.308664,81.239403 0 0 0 -0.0554,0.16345 53.308664,81.239403 0 0 0 -0.0552,0.16366 53.308664,81.239403 0 0 0 -0.0549,0.16375 53.308664,81.239403 0 0 0 -0.0546,0.16404 53.308664,81.239403 0 0 0 -0.0544,0.16423 53.308664,81.239403 0 0 0 -0.0542,0.16433 53.308664,81.239403 0 0 0 -0.0539,0.16462 53.308664,81.239403 0 0 0 -0.0537,0.16473 53.308664,81.239403 0 0 0 -0.0534,0.16502 53.308664,81.239403 0 0 0 -0.0531,0.1651 53.308664,81.239403 0 0 0 -0.053,0.16532 53.308664,81.239403 0 0 0 -0.0526,0.1655 53.308664,81.239403 0 0 0 -0.0524,0.1657 53.308664,81.239403 0 0 0 -0.0522,0.16578 53.308664,81.239403 0 0 0 -0.0518,0.166089 53.308664,81.239403 0 0 0 -0.0517,0.16618 53.308664,81.239403 0 0 0 -0.0514,0.16637 53.308664,81.239403 0 0 0 -0.0511,0.16658 53.308664,81.239403 0 0 0 -0.051,0.16677 53.308664,81.239403 0 0 0 -0.0507,0.16695 53.308664,81.239403 0 0 0 -0.0504,0.16708 53.308664,81.239403 0 0 0 -0.0503,0.16725 53.308664,81.239403 0 0 0 -0.05,0.16745 53.308664,81.239403 0 0 0 -0.0498,0.16763 53.308664,81.239403 0 0 0 -0.0496,0.16774 53.308664,81.239403 0 0 0 -0.0493,0.16803 53.308664,81.239403 0 0 0 -0.049,0.16812 53.308664,81.239403 0 0 0 -0.0488,0.16824 53.308664,81.239403 0 0 0 -0.0485,0.16851 53.308664,81.239403 0 0 0 -0.0482,0.16862 53.308664,81.239403 0 0 0 -0.048,0.1688 53.308664,81.239403 0 0 0 -0.0478,0.16892 53.308664,81.239403 0 0 0 -0.0475,0.16919 53.308664,81.239403 0 0 0 -0.0472,0.1693 53.308664,81.239403 0 0 0 -0.047,0.16938 53.308664,81.239403 0 0 0 -0.0467,0.16959 53.308664,81.239403 0 0 0 -0.0464,0.16978 53.308664,81.239403 0 0 0 -0.0462,0.16999 53.308664,81.239403 0 0 0 -0.046,0.17007 53.308664,81.239403 0 0 0 -0.0456,0.17027 53.308664,81.239403 0 0 0 -0.0455,0.17036 53.308664,81.239403 0 0 0 -0.0452,0.17056 53.308664,81.239403 0 0 0 -0.0449,0.17075 53.308664,81.239403 0 0 0 -0.0446,0.17086 53.308664,81.239403 0 0 0 -0.0445,0.17105 53.308664,81.239403 0 0 0 -0.0442,0.17113 53.308664,81.239403 0 0 0 -0.0438,0.17136 53.308664,81.239403 0 0 0 -0.0437,0.17151 53.308664,81.239403 0 0 0 -0.0434,0.17165 53.308664,81.239403 0 0 0 -0.0432,0.17172 53.308664,81.239403 0 0 0 -0.0429,0.17192 53.308664,81.239403 0 0 0 -0.0426,0.17213 53.308664,81.239403 0 0 0 -0.0424,0.1722 53.308664,81.239403 0 0 0 -0.0421,0.1724 53.308664,81.239403 0 0 0 -0.0419,0.17251 53.308664,81.239403 0 0 0 -0.0415,0.17261 53.308664,81.239403 0 0 0 -0.0414,0.1729 53.308664,81.239403 0 0 0 -0.041,0.1729 53.308664,81.239403 0 0 0 -0.0409,0.17309 53.308664,81.239403 0 0 0 -0.0406,0.17317 53.308664,81.239403 0 0 0 -0.0404,0.17339 53.308664,81.239403 0 0 0 -0.0401,0.17357 53.308664,81.239403 0 0 0 -0.0398,0.17358 53.308664,81.239403 0 0 0 -0.0396,0.17378 53.308664,81.239403 0 0 0 -0.0393,0.17395 53.308664,81.239403 0 0 0 -0.039,0.17407 53.308664,81.239403 0 0 0 -0.0388,0.17417 53.308664,81.239403 0 0 0 -0.0385,0.17435 53.308664,81.239403 0 0 0 -0.0383,0.17444 53.308664,81.239403 0 0 0 -0.0381,0.17455 53.308664,81.239403 0 0 0 -0.0378,0.17475 53.308664,81.239403 0 0 0 -0.0375,0.17485 53.308664,81.239403 0 0 0 -0.0373,0.17494 53.308664,81.239403 0 0 0 -0.037,0.17513 53.308664,81.239403 0 0 0 -0.0367,0.17524 53.308664,81.239403 0 0 0 -0.0365,0.17532 53.308664,81.239403 0 0 0 -0.0362,0.17551 53.308664,81.239403 0 0 0 -0.0359,0.17563 53.308664,81.239403 0 0 0 -0.0357,0.1757 53.308664,81.239403 0 0 0 -0.0354,0.17582 53.308664,81.239403 0 0 0 -0.0351,0.17602 53.308664,81.239403 0 0 0 -0.0349,0.1761 53.308664,81.239403 0 0 0 -0.0346,0.17621 53.308664,81.239403 0 0 0 -0.0343,0.17631 53.308664,81.239403 0 0 0 -0.034,0.17649 53.308664,81.239403 0 0 0 -0.0338,0.17649 53.308664,81.239403 0 0 0 -0.0335,0.17669 53.308664,81.239403 0 0 0 -0.0333,0.17679 53.308664,81.239403 0 0 0 -0.0329,0.17698 53.308664,81.239403 0 0 0 -0.0328,0.17699 53.308664,81.239403 0 0 0 -0.0325,0.17717 53.308664,81.239403 0 0 0 -0.0323,0.17726 53.308664,81.239403 0 0 0 -0.032,0.17729 53.308664,81.239403 0 0 0 -0.0318,0.17756 53.308664,81.239403 0 0 0 -0.0316,0.17757 53.308664,81.239403 0 0 0 -0.0312,0.17766 53.308664,81.239403 0 0 0 -0.031,0.17776 53.308664,81.239403 0 0 0 -0.0307,0.17796 53.308664,81.239403 0 0 0 -0.0304,0.17795 53.308664,81.239403 0 0 0 -0.0302,0.17814 53.308664,81.239403 0 0 0 -0.03,0.17825 53.308664,81.239403 0 0 0 -0.0296,0.17826 53.308664,81.239403 0 0 0 -0.0294,0.17843 53.308664,81.239403 0 0 0 -0.0291,0.17855 53.308664,81.239403 0 0 0 -0.0288,0.17864 53.308664,81.239403 0 0 0 -0.0285,0.17871 53.308664,81.239403 0 0 0 -0.0283,0.17885 53.308664,81.239403 0 0 0 -0.028,0.17892 53.308664,81.239403 0 0 0 -0.0278,0.17902 53.308664,81.239403 0 0 0 -0.0274,0.17904 53.308664,81.239403 0 0 0 -0.0272,0.17922 53.308664,81.239403 0 0 0 -0.027,0.17932 53.308664,81.239403 0 0 0 -0.0268,0.1794 53.308664,81.239403 0 0 0 -0.0263,0.17941 53.308664,81.239403 0 0 0 -0.0262,0.17961 53.308664,81.239403 0 0 0 -0.0259,0.17971 53.308664,81.239403 0 0 0 -0.0257,0.17969 53.308664,81.239403 0 0 0 -0.0254,0.17981 53.308664,81.239403 0 0 0 -0.025,0.18 53.308664,81.239403 0 0 0 -0.0249,0.17999 53.308664,81.239403 0 0 0 -0.0245,0.18011 53.308664,81.239403 0 0 0 -0.0243,0.18018 53.308664,81.239403 0 0 0 -0.024,0.18021 53.308664,81.239403 0 0 0 -0.0237,0.18037 53.308664,81.239403 0 0 0 -0.0234,0.18039 53.308664,81.239403 0 0 0 -0.0233,0.18058 53.308664,81.239403 0 0 0 -0.0229,0.18058 53.308664,81.239403 0 0 0 -0.0226,0.18069 53.308664,81.239403 0 0 0 -0.0224,0.18068 53.308664,81.239403 0 0 0 -0.0222,0.18087 53.308664,81.239403 0 0 0 -0.0219,0.18086 53.308664,81.239403 0 0 0 -0.0216,0.18098 53.308664,81.239403 0 0 0 -0.0213,0.18106 53.308664,81.239403 0 0 0 -0.0211,0.18107 53.308664,81.239403 0 0 0 -0.0209,0.18128 53.308664,81.239403 0 0 0 -0.0206,0.18126 53.308664,81.239403 0 0 0 -0.0203,0.18126 53.308664,81.239403 0 0 0 -0.0201,0.18145 53.308664,81.239403 0 0 0 -0.0197,0.18145 53.308664,81.239403 0 0 0 -0.0195,0.18156 53.308664,81.239403 0 0 0 -0.0192,0.18155 53.308664,81.239403 0 0 0 -0.019,0.18165 53.308664,81.239403 0 0 0 -0.0186,0.18175 53.308664,81.239403 0 0 0 -0.0183,0.18186 53.308664,81.239403 0 0 0 -0.0181,0.18184 53.308664,81.239403 0 0 0 -0.0179,0.18193 53.308664,81.239403 0 0 0 -0.0175,0.18195 53.308664,81.239403 0 0 0 -0.0173,0.18203 53.308664,81.239403 0 0 0 -0.0169,0.18215 53.308664,81.239403 0 0 0 -0.0167,0.18214 53.308664,81.239403 0 0 0 -0.0166,0.18224 53.308664,81.239403 0 0 0 -0.0162,0.18232 53.308664,81.239403 0 0 0 -0.016,0.18235 53.308664,81.239403 0 0 0 -0.0156,0.18234 53.308664,81.239403 0 0 0 -0.0154,0.18242 53.308664,81.239403 0 0 0 -0.0152,0.18254 53.308664,81.239403 0 0 0 -0.0148,0.18251 53.308664,81.239403 0 0 0 -0.0144,0.18264 53.308664,81.239403 0 0 0 -0.0143,0.18261 53.308664,81.239403 0 0 0 -0.014,0.18272 53.308664,81.239403 0 0 0 -0.0137,0.18273 53.308664,81.239403 0 0 0 -0.0134,0.18282 53.308664,81.239403 0 0 0 -0.0132,0.18282 53.308664,81.239403 0 0 0 -0.013,0.18292 53.308664,81.239403 0 0 0 -0.0128,0.18291 53.308664,81.239403 0 0 0 -0.0125,0.18293 53.308664,81.239403 0 0 0 -0.0123,0.18301 53.308664,81.239403 0 0 0 -0.0119,0.18309 53.308664,81.239403 0 0 0 -0.0117,0.18303 53.308664,81.239403 0 0 0 -0.0115,0.1832 53.308664,81.239403 0 0 0 -0.0109,0.18312 53.308664,81.239403 0 0 0 -0.0108,0.18322 53.308664,81.239403 0 0 0 -0.0106,0.18328 53.308664,81.239403 0 0 0 -0.0102,0.18322 53.308664,81.239403 0 0 0 -0.01,0.1833 53.308664,81.239403 0 0 0 -0.01,0.18341 53.308664,81.239403 0 0 0 -0.01,0.1834 53.308664,81.239403 0 0 0 -0.009,0.18341 53.308664,81.239403 0 0 0 -0.009,0.1834 53.308664,81.239403 0 0 0 -0.009,0.1835 53.308664,81.239403 0 0 0 -0.008,0.18349 53.308664,81.239403 0 0 0 -0.008,0.18351 53.308664,81.239403 0 0 0 -0.008,0.18361 53.308664,81.239403 0 0 0 -0.008,0.18358 53.308664,81.239403 0 0 0 -0.007,0.18361 53.308664,81.239403 0 0 0 -0.007,0.1837 53.308664,81.239403 0 0 0 -0.007,0.18358 53.308664,81.239403 0 0 0 -0.006,0.18371 53.308664,81.239403 0 0 0 -0.006,0.18368 53.308664,81.239403 0 0 0 -0.006,0.1838 53.308664,81.239403 0 0 0 -0.006,0.1837 53.308664,81.239403 0 0 0 -0.006,0.18378 53.308664,81.239403 0 0 0 -0.005,0.18381 53.308664,81.239403 0 0 0 -0.005,0.18378 53.308664,81.239403 0 0 0 -0.005,0.1838 53.308664,81.239403 0 0 0 -0.004,0.18379 53.308664,81.239403 0 0 0 -0.004,0.1839 53.308664,81.239403 0 0 0 -0.004,0.18387 53.308664,81.239403 0 0 0 -0.003,0.1838 53.308664,81.239403 0 0 0 -0.003,0.18389 53.308664,81.239403 0 0 0 -0.003,0.1839 53.308664,81.239403 0 0 0 -0.002,0.18397 53.308664,81.239403 0 0 0 -0.002,0.1839 53.308664,81.239403 0 0 0 -0.002,0.18389 53.308664,81.239403 0 0 0 -0.002,0.18389 53.308664,81.239403 0 0 0 -0.002,0.18397 53.308664,81.239403 0 0 0 -0.002,0.1839 53.308664,81.239403 0 0 0 -0.002,0.18398 53.308664,81.239403 0 0 0 0,0.1839 53.308664,81.239403 0 0 0 0,0.18399 53.308664,81.239403 0 0 0 -1e-4,0.18398 53.308664,81.239403 0 0 0 1e-4,0.13671 53.308664,81.239403 0 0 0 0,0.18399 53.308664,81.239403 0 0 0 0,0.18389 53.308664,81.239403 0 0 0 0.002,0.18399 53.308664,81.239403 0 0 0 0.002,0.18387 53.308664,81.239403 0 0 0 0.002,0.18401 53.308664,81.239403 0 0 0 0.002,0.18387 53.308664,81.239403 0 0 0 0.002,0.18398 53.308664,81.239403 0 0 0 0.002,0.1839 53.308664,81.239403 0 0 0 0.002,0.18389 53.308664,81.239403 0 0 0 0.003,0.18389 53.308664,81.239403 0 0 0 0.003,0.1839 53.308664,81.239403 0 0 0 0.002,0.0938 c 1.45116,0.67905 3.00322,1.14833 4.6458,1.36187 l 23.26516,3.02444 c 10.85295,1.4109 19.93337,-3.92784 21.3283,-16.12101 2.24017,-13.92564 3.9559,-29.457859 4.78823,-42.895349 0.36984,-4.63328 0.83538,-12.47384 -2.20861,-18.68107 -1.76808,-3.6054 -5.21414,-6.40273 -9.436,-8.46398 z" />
    <path
       sodipodi:nodetypes="scccsaccssssss"
       d="m 312.71134,50.981371 c -16.60487,0.0492 -28.39899,8.39291 -29.92434,18.03892 -0.35262,2.30637 -0.45966,4.47149 -0.63163,6.5778 l -2.80008,36.966919 c 0.57102,18.51554 0.5571,28.50119 18.94725,33.42881 8.13688,2.18028 19.211,2.99822 27.32944,-1.15236 7.29677,-3.73052 13.82811,-7.11218 15.22306,-19.30535 2.24022,-13.92591 3.95599,-29.458139 4.78832,-42.895619 0.36984,-4.63328 0.83538,-12.47384 -2.20861,-18.68107 -1.76808,-3.6054 -5.21413,-6.40274 -9.43599,-8.46399 -5.07076,-2.47574 -11.26187,-3.88843 -17.02527,-4.34846 -1.17645,-0.0939 -2.33302,-0.14708 -3.46784,-0.1617 -0.26596,-0.003 -0.53074,-0.005 -0.79431,-0.004 z"
       style="opacity:0.996;fill:#ebebeb;fill-opacity:1;stroke:none;stroke-width:8.79857;stroke-linecap:round;stroke-linejoin:round;stroke-miterlimit:4;stroke-dasharray:none"
       id="rect6706" />
    <path
       id="path6881"
       style="opacity:0.996;fill:#dedede;fill-opacity:1;stroke:none;stroke-width:8.79857;stroke-linecap:round;stroke-linejoin:round;stroke-miterlimit:4;stroke-dasharray:none"
       d="m 313.50571,50.985541 c -17.02219,-0.21937 -29.16909,8.2359 -30.71865,18.03501 -0.35262,2.30638 -0.45966,4.4715 -0.63164,6.57781 l -2.80009,36.966939 c -0.43776,5.7792 -0.11517,13.91458 2.14755,20.13519 1.75977,4.83792 4.88433,8.31579 8.38752,10.0508 0.0436,0.0216 3.60267,1.79402 7.26004,2.92019 3.64926,1.1237 7.39689,1.60116 7.39689,1.60116 -2.45161,-9.17649 -7.02877,-18.62139 -7.25289,-26.14609 -0.32776,-11.00415 0.29931,-21.302469 5.02046,-34.970289 8.44731,-24.45518 39.35948,-31.56051 14.6586,-35.00901 -1.17646,-0.0939 -2.33292,-0.14709 -3.46773,-0.16171 z"
       sodipodi:nodetypes="sccsssscsscss" />
    <path
       sodipodi:nodetypes="sssssss"
       d="m 345.09344,79.636641 c -1.01319,9.3907 -20.99939,9.56665 -31.25672,8.7479 -1.22701,-0.0979 -2.54817,-0.21042 -3.92926,-0.35175 -12.41941,-1.27099 -29.68667,-4.87595 -26.94315,-21.23293 1.5618,-9.31149 15.18594,-17.1551 34.00918,-15.65261 10.5619,0.84305 22.59607,4.54522 26.55335,11.65906 3.09531,5.56434 2.01113,12.71044 1.5666,16.83033 z"
       style="opacity:0.996;fill:#f7f7f7;fill-opacity:1;stroke:none;stroke-width:8.30765;stroke-linecap:round;stroke-linejoin:round;stroke-miterlimit:4;stroke-dasharray:none"
       id="path6708" />
    <path
       sodipodi:nodetypes="csssssscssc"
       id="path6715"
       d="m 285.73015,118.27533 c 2.06831,-0.64286 4.43378,3.31781 5.95593,4.137 4.735,2.54831 9.20802,4.89223 15.07909,5.7313 5.8734,0.83939 12.49657,0.052 18.31857,-1.89439 1.52885,-0.51112 5.44843,-4.58448 7.085,-2.95006 1.99224,1.98961 -1.3999,4.71467 -5.59488,7.10231 -4.18645,2.38277 -10.8269,4.5786 -18.45304,3.77274 v 0 c -0.39443,-0.0423 -0.78987,-0.0922 -1.18609,-0.14944 -7.8826,-1.1397 -14.51438,-4.10399 -18.0915,-7.67686 -3.58182,-3.57759 -6.42711,-7.24345 -3.11308,-8.0726 z"
       style="opacity:0.996;fill:#000000;stroke:none;stroke-width:0.220486px;stroke-linecap:butt;stroke-linejoin:miter;stroke-opacity:1" />
    <g
       id="g1322"
       transform="matrix(0.18827962,0,0,0.18827962,349.58489,-69.022386)"
       style="stroke-width:5.31125">
      <path
         style="opacity:0.996;fill:#000000;stroke:none;stroke-width:1.08304px;stroke-linecap:butt;stroke-linejoin:miter;stroke-opacity:1"
         d="m -343.07039,939.24522 c -13.73551,-25.57253 15.78042,-43.04492 49.96251,-50.33974 30.95936,-5.73304 57.16078,-15.21641 61.95045,-5.14588 4.17328,8.77452 -17.40149,27.21169 -39.83189,46.32601 -23.61545,20.12419 -59.35856,35.90945 -72.08107,9.15961 z"
         id="path6735"
         sodipodi:nodetypes="ccssc" />
      <path
         sodipodi:nodetypes="ccssc"
         id="path6737"
         d="m -267.65664,966.045 c 26.79271,-11.17002 14.92176,-43.35006 -6.99146,-70.57947 -20.39876,-23.98417 -34.73994,-47.87516 -44.81047,-43.0855 -8.77453,4.17326 -3.67272,32.09048 1.66553,61.07295 5.62027,30.51368 23.38659,65.31459 50.1364,52.59202 z"
         style="opacity:0.996;fill:#000000;stroke:none;stroke-width:1.08304px;stroke-linecap:butt;stroke-linejoin:miter;stroke-opacity:1" />
    </g>
    <g
       id="g1326"
       transform="matrix(0.18827962,0,0,0.18827962,351.16194,-64.435289)"
       style="stroke-width:5.31125">
      <path
         sodipodi:nodetypes="ccssc"
         id="path6729"
         d="m -177.33311,967.43551 c -28.10158,-17.39581 -8.94481,-51.42697 20.60683,-78.07914 27.26304,-23.27756 47.69963,-47.54444 58.155345,-40.34131 9.11015,6.27615 -1.667185,36.73783 -12.902705,68.35431 -11.82911,33.28686 -38.08651,69.1995 -65.85947,50.06614 z"
         style="opacity:0.996;fill:#000000;stroke:none;stroke-width:1.23311px;stroke-linecap:butt;stroke-linejoin:miter;stroke-opacity:1" />
      <path
         style="opacity:0.996;fill:#000000;stroke:none;stroke-width:1.23311px;stroke-linecap:butt;stroke-linejoin:miter;stroke-opacity:1"
         d="m -87.716467,950.92906 c 20.05943,-26.26657 -9.965195,-51.23903 -47.073453,-65.61314 -33.7675,-12.03637 -61.50902,-27.42934 -68.71216,-16.97363 -6.27616,9.11014 14.64716,33.7329 36.41004,59.27141 22.91266,26.88779 60.24228,51.08836 79.375573,23.31536 z"
         id="path6727"
         sodipodi:nodetypes="ccssc" />
    </g>
    <g
       id="path940"
       transform="matrix(0.18827962,0,0,0.18827962,64.265999,-61.804655)"
       style="stroke-width:5.31125">
      <path
         style="color:#000000;fill:#8d5fd3;stroke-width:84.263;-inkscape-stroke:none"
         d="M 698.58142,896.3571 364.5352,607.74465 613.80707,960.78583 768.33313,984.47231 Z"
         id="path7868" />
      <path
         style="color:#000000;fill:#411f70;stroke-width:5.31125;-inkscape-stroke:none"
         d="m 369.7207,601.74219 -11.66601,10.57812 251.21679,355.79492 177.80664,27.25586 -82.74218,-104.52539 -0.56836,-0.49023 z m 38.69727,54.40039 284.4082,245.72461 56.76172,71.70508 -131.24609,-20.11719 z"
         id="path7870" />
    </g>
    <path
       style="fill:#442178;stroke:none;stroke-width:0.264583px;stroke-linecap:butt;stroke-linejoin:miter;stroke-opacity:1"
       d="m 154.28895,126.29545 -97.353181,13.34945 86.934111,14.97741 25.72209,-18.88457 z"
       id="path6906" />
    <path
       style="fill:#3f1c70;fill-opacity:1;stroke:none;stroke-width:0.168238px;stroke-linecap:butt;stroke-linejoin:miter;stroke-opacity:1"
       d="m 213.38475,101.45553 -45.91197,-34.839049 29.84278,42.265979 18.49982,2.83576 z"
       id="path942" />
    <path
       style="fill:#5a2ca0;stroke:none;stroke-width:0.146256px;stroke-linecap:butt;stroke-linejoin:miter;stroke-opacity:1"
       d="m 144.94988,111.35348 -50.491361,-38.314009 32.819401,46.481719 20.34502,3.11859 z"
       id="path925" />
    <g
       id="path927"
       transform="matrix(0.18827962,0,0,0.18827962,64.265999,-61.804655)"
       style="stroke-width:5.31125">
      <path
         style="color:#000000;fill:#5a2ca0;stroke-width:26.8005;-inkscape-stroke:none"
         d="m 1065.8182,714.03343 -122.13298,115.9283 53.4087,-11.1398 -92.1359,107.1979 195.15198,-137.7912 -68.3072,4.7509 81.4006,-90.1689 z"
         id="path7880" />
      <path
         style="color:#000000;fill:#8d5fd3;stroke-width:5.31125;-inkscape-stroke:none"
         d="m 1120.5039,698.48828 -55.9297,13.24609 -0.4922,0.46875 -128.57419,122.04102 54.83399,-11.4375 -87.29688,101.56836 3.36914,3.70508 202.52144,-142.99414 -71.0703,4.94336 z m -14.6035,8.64453 -80.1602,88.79688 65.543,-4.5586 -171.11133,120.81836 83.67383,-97.35351 -51.98437,10.84375 115.19917,-109.34766 z"
         id="path7882" />
    </g>
    <g
       id="path6914"
       transform="matrix(0.18827962,0,0,0.18827962,64.265999,-61.804655)"
       style="stroke-width:5.31125">
      <path
         style="color:#000000;fill:#45227b;stroke-width:33.7052;-inkscape-stroke:none"
         d="m 1065.5749,640.9031 -122.13297,115.9283 53.4087,-11.1398 -92.1359,107.1979 195.15197,-137.7912 -68.3072,4.7509 81.4006,-90.1689 z"
         id="path7886" />
      <path
         style="color:#000000;fill:#2d1650;stroke-width:5.31125;-inkscape-stroke:none"
         d="m 1122.1406,624.24414 -58.1289,13.76953 -0.6211,0.58789 -130.2324,123.61524 55.19922,-11.51368 -86.04883,100.11719 4.23633,4.66211 204.42188,-144.33594 -71.7832,4.99219 z m -18.3593,10.87109 -79.8458,88.44532 64.8321,-4.50977 -164.91799,116.44336 81.49409,-94.81445 -51.61714,10.76562 113.41404,-107.65234 z"
         id="path7888" />
    </g>
    <g
       id="path6908"
       transform="matrix(0.18827962,0,0,0.18827962,64.265999,-61.804655)"
       style="stroke-width:5.31125">
      <path
         style="color:#000000;fill:#5a2ca0;stroke-width:108.18;-inkscape-stroke:none"
         d="m 457.9835,1069.3955 -328.7828,45.084 293.5953,50.5819 86.8692,-63.7772 z"
         id="path7892" />
      <path
         style="color:#000000;fill:#966fd4;stroke-width:5.31125;-inkscape-stroke:none"
         d="m 460.2207,1058.8086 -3.62109,0.498 -328.7832,45.084 -0.34571,20.125 297.86328,51.3164 102.53711,-75.2812 z m -4.47461,21.1719 35.71289,22.0351 -71.20117,52.2754 -224.4375,-38.668 z"
         id="path7894" />
    </g>
    <path
       sodipodi:nodetypes="ccccc"
       id="path6922"
       d="m 220.5394,64.066751 -31.08797,-2.97103 3.08469,19.33048 20.92166,-4.51792 z"
       style="fill:#5a2ca0;stroke:none;stroke-width:0.168238px;stroke-linecap:butt;stroke-linejoin:miter;stroke-opacity:1" />
    <g
       id="path6918"
       transform="matrix(0.18827962,0,0,0.18827962,64.265999,-61.804655)"
       style="stroke-width:5.31125">
      <path
         style="color:#000000;fill:#7137c8;stroke-width:70.2636;-inkscape-stroke:none"
         d="M 875.46817,646.1633 678.44961,627.33451 697.99868,749.84053 830.58873,721.20842 Z"
         id="path7900" />
      <path
         style="color:#000000;fill:#422173;stroke-width:5.31125;-inkscape-stroke:none"
         d="m 670.57031,619.9375 21.99805,137.84375 142.22266,-30.71289 51.72656,-86.49414 -10.41992,-0.9961 z m 15.75977,14.79492 178.08789,17.01953 -38.0332,63.59766 -122.95508,26.55078 z"
         id="path7902" />
    </g>
    <g
       id="path6924"
       transform="matrix(0.18827962,0,0,0.18827962,64.265999,-61.804655)"
       style="stroke-width:5.31125">
      <path
         style="color:#000000;fill:#5a2ca0;stroke-width:28.1053;-inkscape-stroke:none"
         d="m 904.82368,582.76227 -87.11512,-8.32547 8.64395,54.16813 58.62696,-12.66017 z"
         id="path7906" />
      <path
         style="color:#000000;fill:#422173;stroke-width:5.31125;-inkscape-stroke:none"
         d="m 814.55664,571.47852 9.62305,60.30273 62.48047,-13.49219 22.58398,-37.76172 -4.16797,-0.39843 z m 6.30469,5.91796 79.54297,7.60157 -17.10547,28.60351 -54.77344,11.82813 z"
         id="path7908" />
    </g>
    <path
       style="fill:#5a2ca0;stroke:none;stroke-width:0.0629933px;stroke-linecap:butt;stroke-linejoin:miter;stroke-opacity:1"
       d="m 209.58632,40.809151 -11.64026,-1.11245 1.155,7.23791 7.83369,-1.69164 z"
       id="path6926"
       sodipodi:nodetypes="ccccc" />
    <g
       id="path6904"
       transform="matrix(0.18827962,0,0,0.18827962,64.265999,-61.804655)"
       style="stroke-width:5.31125">
      <path
         style="color:#000000;fill:#aa87de;stroke-width:29.3701;-inkscape-stroke:none"
         d="m 786.98616,532.24642 -61.82432,-5.90846 6.13449,38.44232 41.60669,-8.98474 z"
         id="path7914" />
      <path
         style="color:#000000;fill:#7955aa;stroke-width:5.31125;-inkscape-stroke:none"
         d="m 721.86914,523.24609 7.15625,44.85352 45.63477,-9.85547 16.94531,-28.33398 -4.35547,-0.41602 z m 6.58594,6.1836 53.91406,5.15234 -11.22266,18.76367 -37.57812,8.11524 z"
         id="path7916" />
    </g>
    <g
       id="path6912"
       transform="matrix(0.18827962,0,0,0.18827962,64.265999,-61.804655)"
       style="stroke-width:5.31125">
      <path
         style="color:#000000;fill:#8d5fd3;stroke-width:34.683;-inkscape-stroke:none"
         d="M 332.2651,800.96517 158.3285,650.68572 288.1234,834.51298 368.5845,846.84642 Z"
         id="path7920" />
      <path
         style="color:#000000;fill:#442178;stroke-width:5.31125;-inkscape-stroke:none"
         d="m 160.46289,648.21484 -4.80078,4.35352 130.59375,184.96094 90.04297,13.80273 -41.66602,-52.63476 -0.23242,-0.20313 z m 15.92773,22.39258 153.50391,132.62305 30.97461,39.13086 -70.87891,-10.86524 z"
         id="path7922" />
    </g>
    <path
       style="fill:#ffffff;fill-opacity:1;stroke:none;stroke-width:5.00001;stroke-linecap:butt;stroke-linejoin:miter;stroke-dasharray:none;stroke-opacity:1"
       d="m 299.517,78.630223 c -0.36272,0.64254 -1.28276,0.97178 -2.6311,0.67163 -1.33406,-0.29698 -3.02052,-1.22394 -4.46148,-2.94441 -0.87187,-1.03264 -1.61909,-2.31412 -2.10555,-3.79924 -0.35628,-1.08771 -0.53992,-2.18571 -0.57173,-3.24575 0,0 0,-1e-5 0,-1e-5 -0.0647,-2.57641 0.7662,-4.63018 1.73673,-5.84628 0.98261,-1.23127 2.02991,-1.57067 2.74939,-1.23758 0.73148,0.33864 1.10091,1.29605 1.38995,2.42161 0.29366,1.1436 0.52776,2.51429 0.8946,3.92405 0,0 0,0 0,0 0.14604,0.57208 0.31827,1.16013 0.52141,1.77218 0.27441,0.82681 0.58385,1.63269 0.88938,2.38327 0.51438,1.24061 1.04612,2.37359 1.4062,3.3698 0.35456,0.98087 0.54895,1.88106 0.1822,2.53073 z"
       id="path915"
       sodipodi:nodetypes="csc" />
  </g>
</svg>
