<?xml version="1.0" encoding="UTF-8" standalone="no"?>
<!-- Created with Inkscape (http://www.inkscape.org/) -->

<svg
   width="501.87982mm"
   height="232.96136mm"
   viewBox="0 0 501.87982 232.96136"
   version="1.1"
   id="svg1"
   xml:space="preserve"
   sodipodi:docname="Portfolio_workPreviewElement_Anata.svg"
   inkscape:version="1.3 (0e150ed6c4, 2023-07-21)"
   xmlns:inkscape="http://www.inkscape.org/namespaces/inkscape"
   xmlns:sodipodi="http://sodipodi.sourceforge.net/DTD/sodipodi-0.dtd"
   xmlns="http://www.w3.org/2000/svg"
   xmlns:svg="http://www.w3.org/2000/svg"><sodipodi:namedview
     id="namedview1"
     pagecolor="#505050"
     bordercolor="#000000"
     borderopacity="1"
     inkscape:showpageshadow="false"
     inkscape:pageopacity="0"
     inkscape:pagecheckerboard="false"
     inkscape:deskcolor="#5b5b5b"
     inkscape:document-units="mm"
     showborder="true"
     shape-rendering="auto"
     borderlayer="false"
     inkscape:zoom="0.37905794"
     inkscape:cx="799.35009"
     inkscape:cy="375.93197"
     inkscape:window-width="1920"
     inkscape:window-height="1009"
     inkscape:window-x="-8"
     inkscape:window-y="-8"
     inkscape:window-maximized="1"
     inkscape:current-layer="layer1" /><defs
     id="defs1"><inkscape:path-effect
       effect="spiro"
       id="path-effect33"
       is_visible="true"
       lpeversion="1" /><inkscape:path-effect
       effect="spiro"
       id="path-effect31"
       is_visible="true"
       lpeversion="1" /><inkscape:path-effect
       effect="spiro"
       id="path-effect5"
       is_visible="true"
       lpeversion="1" /><inkscape:path-effect
       effect="spiro"
       id="path-effect4"
       is_visible="true"
       lpeversion="1" /><inkscape:path-effect
       effect="spiro"
       id="path-effect3"
       is_visible="true"
       lpeversion="1" /></defs><g
     inkscape:label="Слой 1"
     inkscape:groupmode="layer"
     id="layer1"
     transform="translate(-14.33906,59.721031)"><rect
       style="fill:#f9f9f9;stroke:none;stroke-width:3.96875;stroke-linecap:round;stroke-linejoin:round;stroke-miterlimit:4.7;stroke-dasharray:none;stroke-opacity:1"
       id="rect5"
       width="501.87982"
       height="116.48068"
       x="14.33906"
       y="56.759651" /><g
       id="g55"
       transform="translate(5.1328209,1.8022914)"><path
         style="fill:#d5d8cc;fill-opacity:1;stroke:none;stroke-width:1.85208;stroke-linecap:round;stroke-linejoin:round;stroke-miterlimit:4.7;stroke-dasharray:none;stroke-opacity:1;paint-order:normal"
         d="m 308.04453,146.51397 c -4.64801,-1.32884 -8.40014,-5.13454 -10.0351,-10.17838 -1.59607,-4.92383 -1.6032,-11.50026 -0.0191,-17.55816 1.33283,-5.09684 4.25796,-10.60644 8.37104,-15.76719 1.90748,-2.39334 6.85738,-7.368814 9.55568,-9.605062 5.6826,-4.709492 12.04521,-8.90991 19.34314,-12.769819 l 2.0335,-1.075527 0.41038,1.444869 c 1.512,5.323514 4.18235,10.271118 6.66808,12.354574 l 0.85573,0.717236 -3.45248,1.9977 c -7.42778,4.297909 -9.72037,5.830469 -13.08101,8.744429 -6.71494,5.82246 -9.35755,11.24377 -7.67406,15.74331 1.32614,3.54442 5.14317,5.00781 9.29554,3.56376 2.53592,-0.8819 5.959,-3.22983 8.84179,-6.06466 0.8457,-0.83165 1.53765,-1.43208 1.53765,-1.33428 0,0.26603 -3.4832,7.11101 -4.6453,9.12867 -1.48659,2.58104 -4.46155,7.01286 -6.09847,9.08492 -1.83833,2.32701 -5.60194,6.07092 -7.59446,7.5547 -1.79522,1.33688 -4.46592,2.78221 -6.28304,3.40024 -2.8608,0.97303 -5.95595,1.21149 -8.02956,0.61867 z"
         id="path52" /><path
         style="fill:none;fill-opacity:1;stroke:#60654e;stroke-width:1.85208;stroke-linecap:round;stroke-linejoin:round;stroke-miterlimit:4.7;stroke-dasharray:none;stroke-opacity:1;paint-order:normal"
         d="m 311.90728,136.593 c -3.2636,-0.93305 -5.89816,-3.60522 -7.04615,-7.14676 -1.12068,-3.45727 -1.12569,-8.07491 -0.0134,-12.32847 0.93585,-3.57875 2.98973,-7.44732 5.87773,-11.07094 1.33934,-1.68049 4.81492,-5.17402 6.70953,-6.744203 3.99004,-3.306773 8.45755,-6.256099 13.5818,-8.966337 l 1.42782,-0.755182 0.28815,1.014516 c 1.06165,3.737909 2.93664,7.211872 4.682,8.674772 l 0.60085,0.503608 -2.42416,1.402686 c -5.21542,3.01778 -6.82517,4.09387 -9.18484,6.13991 -4.7149,4.08824 -6.57041,7.89482 -5.38835,11.05417 0.93115,2.48872 3.61128,3.51624 6.52687,2.5023 1.7806,-0.61923 4.18412,-2.26783 6.20827,-4.25831 0.59381,-0.58394 1.07966,-1.00553 1.07966,-0.93686 0,0.18679 -2.44573,4.993 -3.2617,6.4097 -1.04381,1.81228 -3.13268,4.92408 -4.28204,6.37898 -1.29079,1.63391 -3.93341,4.2627 -5.33246,5.30454 -1.26051,0.93869 -3.13575,1.95353 -4.41164,2.38748 -2.00871,0.68321 -4.18197,0.85065 -5.63796,0.4344 z"
         id="path53" /><path
         style="fill:#c4c8b7;fill-opacity:1;stroke:none;stroke-width:1.85208;stroke-linecap:round;stroke-linejoin:round;stroke-miterlimit:4.7;stroke-dasharray:none;stroke-opacity:1"
         d="m 339.82819,136.05815 c -0.50804,-1.6057 -1.09841,-3.2224 -1.43296,-3.92415 -0.58882,-1.23506 -1.44957,-2.48713 -2.17869,-3.16919 l -0.61491,-0.57522 2.22591,-1.29211 c 3.03238,-1.76023 3.82615,-2.25943 5.01142,-3.15157 3.43617,-2.58642 5.49994,-5.10331 5.9848,-7.29882 0.18596,-0.84204 0.0876,-2.11384 -0.21435,-2.77111 -0.34894,-0.75964 -0.99606,-1.41953 -1.71694,-1.75083 -0.52938,-0.24329 -0.69662,-0.27255 -1.54576,-0.27049 -0.78466,0.002 -1.07454,0.0465 -1.64782,0.25279 -1.39146,0.50102 -3.30866,1.80652 -4.89824,3.3354 -0.45824,0.44073 -0.83314,0.7869 -0.83314,0.76929 0,-0.11819 2.02698,-4.0474 2.62432,-5.0872 3.11419,-5.42103 6.68663,-9.13656 10.16303,-10.57011 1.28409,-0.52951 2.08832,-0.690813 3.44688,-0.691311 1.10783,-4.13e-4 1.31243,0.02663 1.94851,0.257341 2.33679,0.84767 4.12822,2.75628 4.97976,5.30557 0.51952,1.55529 0.59381,2.1451 0.59311,4.7093 -6.2e-4,2.56745 -0.10324,3.38122 -0.67386,5.35047 -1.86692,6.44235 -7.81505,12.96574 -16.69469,18.30922 -1.34059,0.80673 -4.26548,2.38174 -4.42304,2.38174 -0.0362,0 -0.0826,-0.0535 -0.10338,-0.11904 z"
         id="path54" /><path
         style="fill:none;fill-opacity:1;stroke:#60654e;stroke-width:1.85208;stroke-linecap:round;stroke-linejoin:round;stroke-miterlimit:4.7;stroke-dasharray:none;stroke-opacity:1"
         d="m 337.21407,141.39569 c -0.65838,-2.08084 -1.42344,-4.17593 -1.85699,-5.08532 -0.76305,-1.60054 -1.87851,-3.22312 -2.82337,-4.107 l -0.79688,-0.74544 2.88458,-1.67445 c 3.92969,-2.2811 4.95835,-2.92801 6.49434,-4.08415 4.45297,-3.35176 7.12742,-6.61341 7.75576,-9.45859 0.24098,-1.0912 0.11349,-2.73936 -0.27777,-3.59111 -0.45221,-0.98442 -1.29082,-1.83958 -2.22501,-2.26891 -0.68603,-0.31528 -0.90275,-0.35321 -2.00316,-0.35054 -1.01684,0.002 -1.3925,0.0601 -2.13543,0.32759 -1.8032,0.64929 -4.28772,2.34109 -6.34767,4.32238 -0.59382,0.57114 -1.07967,1.01975 -1.07967,0.99692 0,-0.15306 2.62679,-5.24505 3.40087,-6.59253 4.03572,-7.02516 8.66526,-11.840144 13.17036,-13.697894 1.66406,-0.686205 2.70627,-0.895231 4.46686,-0.895882 1.43564,-5.29e-4 1.70079,0.03449 2.52508,0.333499 3.02827,1.098487 5.34979,3.571881 6.45332,6.875517 0.67325,2.01553 0.76952,2.77986 0.76861,6.10283 -8e-4,3.32718 -0.13373,4.38175 -0.87326,6.93372 -2.41936,8.3487 -10.12761,16.80241 -21.63479,23.72708 -1.73729,1.04544 -5.52769,3.08652 -5.73187,3.08652 -0.0468,0 -0.10708,-0.0694 -0.13391,-0.15424 z"
         id="path55" /></g><g
       id="g51"
       transform="translate(-0.78029076,-0.85986563)"><g
         id="g44"
         transform="matrix(-1.1047132,0,0,-1.1046473,339.08589,283.72327)"
         style="stroke:#999999;stroke-width:0.905239"><path
           style="fill:none;stroke:#999999;stroke-width:2.39511;stroke-linecap:butt;stroke-linejoin:miter;stroke-dasharray:none;stroke-opacity:1"
           d="m 98.850858,127.22529 c 0,0 -25.373659,11.05914 -27.03693,29.49283 -1.198071,13.27795 7.439684,15.13629 8.931286,15.18594 3.058688,0.10181 11.708325,-0.5436 20.561126,-20.03142 7.77069,-17.10574 9.80198,-19.75472 9.80198,-19.75472 0,0 9.56796,23.58951 7.46588,31.42871 -2.554,9.52449 -11.87838,13.63862 -16.31581,10.64454 -7.821288,-5.27727 1.79029,-24.31439 25.38855,-22.97163"
           id="path42"
           sodipodi:nodetypes="cssscssc" /><path
           style="fill:none;stroke:#999999;stroke-width:1.43706;stroke-linecap:butt;stroke-linejoin:miter;stroke-dasharray:none;stroke-opacity:1"
           d="m 98.61092,126.61892 c 0,0 1.94094,10.22025 6.81487,11.02229"
           id="path43"
           sodipodi:nodetypes="cc" /><path
           style="fill:none;stroke:#999999;stroke-width:2.39511;stroke-linecap:butt;stroke-linejoin:miter;stroke-dasharray:none;stroke-opacity:1"
           d="m 104.98954,137.46671 -6.724788,3.91766 c -2.613177,1.52235 -5.541954,3.75594 -7.781529,6.40956 -0.975284,1.15559 -1.74744,2.42355 -2.054427,3.9042 -0.153493,0.74033 -0.140669,1.52166 0.09157,2.24118 0.232239,0.71952 0.691529,1.37338 1.322983,1.7892 0.791868,0.52146 1.802058,0.63821 2.736075,0.47516 0.934018,-0.16304 1.803926,-0.58419 2.618105,-1.07007 1.843671,-1.10026 3.460832,-2.54808 4.918081,-4.12482 1.57771,-1.70708 2.98116,-3.57513 4.18149,-5.56573"
           id="path44"
           sodipodi:nodetypes="csssscsssc" /></g><path
         style="fill:#d9d9d9;fill-opacity:1;stroke:#999999;stroke-width:0.264583;stroke-linecap:round;stroke-linejoin:round;stroke-miterlimit:4.7;stroke-dasharray:none;stroke-opacity:1"
         d="m 209.79405,114.64621 c -0.12753,-0.38396 -0.59821,-2.89363 -0.81574,-4.34952 -0.3214,-2.15112 -0.43076,-4.8079 -0.24632,-5.98444 0.18735,-1.19511 0.8453,-3.15553 1.49708,-4.46072 1.62994,-3.263943 4.31832,-6.014842 7.33587,-7.506465 3.02263,-1.494134 5.98758,-1.636178 7.93118,-0.379968 3.54716,2.292638 3.61757,7.395963 0.17302,12.539753 -3.00556,4.48824 -8.31406,8.15339 -14.36009,9.91464 -1.50277,0.43777 -1.44764,0.42951 -1.515,0.22672 z"
         id="path45" /><g
         id="g48"
         transform="matrix(1.1047132,0,0,1.1046473,79.292813,-52.003554)"
         style="stroke:#333333;stroke-width:0.905239"><path
           style="fill:none;stroke:#333333;stroke-width:2.39511;stroke-linecap:butt;stroke-linejoin:miter;stroke-dasharray:none;stroke-opacity:1"
           d="m 98.850858,127.22529 c 0,0 -25.373659,11.05914 -27.03693,29.49283 -1.198071,13.27795 7.439684,15.13629 8.931286,15.18594 3.058688,0.10181 11.708325,-0.5436 20.561126,-20.03142 7.77069,-17.10574 9.80198,-19.75472 9.80198,-19.75472 0,0 9.56796,23.58951 7.46588,31.42871 -2.554,9.52449 -11.87838,13.63862 -16.31581,10.64454 -7.821288,-5.27727 1.79029,-24.31439 25.38855,-22.97163"
           id="path46"
           sodipodi:nodetypes="cssscssc" /><path
           style="fill:none;stroke:#333333;stroke-width:1.43706;stroke-linecap:butt;stroke-linejoin:miter;stroke-dasharray:none;stroke-opacity:1"
           d="m 98.61092,126.61892 c 0,0 1.94094,10.22025 6.81487,11.02229"
           id="path47"
           sodipodi:nodetypes="cc" /><path
           style="fill:none;stroke:#333333;stroke-width:2.39511;stroke-linecap:butt;stroke-linejoin:miter;stroke-dasharray:none;stroke-opacity:1"
           d="m 104.98954,137.46671 -6.724788,3.91766 c -2.613177,1.52235 -5.541954,3.75594 -7.781529,6.40956 -0.975284,1.15559 -1.74744,2.42355 -2.054427,3.9042 -0.153493,0.74033 -0.140669,1.52166 0.09157,2.24118 0.232239,0.71952 0.691529,1.37338 1.322983,1.7892 0.791868,0.52146 1.802058,0.63821 2.736075,0.47516 0.934018,-0.16304 1.803926,-0.58419 2.618105,-1.07007 1.843671,-1.10026 3.460832,-2.54808 4.918081,-4.12482 1.57771,-1.70708 2.98116,-3.57513 4.18149,-5.56573"
           id="path48"
           sodipodi:nodetypes="csssscsssc" /></g><path
         style="fill:#cccccc;stroke:#333333;stroke-width:0.264583;stroke-linecap:round;stroke-linejoin:round;stroke-miterlimit:4.7;stroke-dasharray:none;stroke-opacity:1"
         d="m 167.25523,136.78543 c -3.2636,-0.93305 -5.89816,-3.60522 -7.04615,-7.14676 -1.12068,-3.45727 -1.12569,-8.07491 -0.0134,-12.32847 0.93585,-3.57875 2.98973,-7.44732 5.87773,-11.07094 1.33934,-1.68049 4.81492,-5.17402 6.70953,-6.744202 3.99004,-3.306773 8.45755,-6.256099 13.5818,-8.966337 l 1.42782,-0.755182 0.28815,1.014516 c 1.06165,3.737909 2.93664,7.211872 4.682,8.674772 l 0.60085,0.503608 -2.42416,1.402685 c -5.21542,3.01778 -6.82517,4.09387 -9.18484,6.13991 -4.7149,4.08824 -6.57041,7.89482 -5.38835,11.05417 0.93115,2.48872 3.61128,3.51624 6.52687,2.5023 1.7806,-0.61923 4.18412,-2.26783 6.20827,-4.25831 0.59381,-0.58394 1.48865,-1.70899 1.48865,-1.64032 0,0.18679 -2.85472,5.69646 -3.67069,7.11316 -1.04381,1.81228 -3.13268,4.92408 -4.28204,6.37898 -1.29079,1.63391 -3.93341,4.2627 -5.33246,5.30454 -1.26051,0.93869 -3.13575,1.95353 -4.41164,2.38748 -2.00871,0.68321 -4.18197,0.85065 -5.63796,0.4344 z"
         id="path49"
         sodipodi:nodetypes="sssssscsscssssssssssss" /><path
         style="fill:#cccccc;stroke:#333333;stroke-width:0.264583;stroke-linecap:round;stroke-linejoin:round;stroke-miterlimit:4.7;stroke-dasharray:none;stroke-opacity:1"
         d="m 194.38922,140.41642 c -3.22216,-0.90598 -4.79099,-4.07016 -3.9756,-8.01836 1.17637,-5.6961 6.75988,-11.3291 14.08819,-14.21306 1.34075,-0.52763 3.92995,-1.32467 4.01781,-1.2368 0.10819,0.10819 0.67351,3.07393 0.89874,4.71488 0.51485,3.75099 0.44544,5.58068 -0.29572,7.7956 -1.75245,5.23712 -5.5758,9.21258 -10.30427,10.71422 -1.32555,0.42096 -3.39366,0.53467 -4.42915,0.24352 z"
         id="path50" /><path
         style="fill:#d9d9d9;fill-opacity:1;stroke:#999999;stroke-width:0.264583;stroke-linecap:round;stroke-linejoin:round;stroke-miterlimit:4.7;stroke-dasharray:none;stroke-opacity:1"
         d="m 230.43612,141.69328 c -0.65838,-2.08084 -1.33346,-4.20047 -1.76701,-5.10986 -0.76305,-1.60054 -1.87851,-3.22312 -2.82337,-4.107 l -1.1015,-0.76858 3.1892,-1.65131 c 4.03497,-2.08924 4.95835,-2.92801 6.49434,-4.08415 4.45297,-3.35176 7.12742,-6.61341 7.75576,-9.45859 0.24098,-1.0912 0.11349,-2.73936 -0.27777,-3.59111 -0.45221,-0.98442 -1.29082,-1.83958 -2.22501,-2.26891 -0.68603,-0.31528 -0.90275,-0.35321 -2.00316,-0.35054 -1.01684,0.002 -1.3925,0.0601 -2.13543,0.32759 -1.8032,0.64929 -4.67217,2.92458 -6.73212,4.90587 -0.59382,0.57114 -1.07967,1.01975 -1.07967,0.99692 0,-0.15306 2.65755,-5.22784 3.40087,-6.59253 4.29441,-7.88429 9.04971,-12.423623 13.55481,-14.281373 1.66406,-0.686205 2.67355,-1.058825 4.43414,-1.059476 1.43564,-5.29e-4 1.90801,0.143553 2.7323,0.442562 3.02827,1.098487 5.29526,3.582787 6.39879,6.886407 0.67325,2.01553 1.0858,2.81258 1.08489,6.13555 -8e-4,3.32718 -0.56998,4.39266 -1.30951,6.94463 -2.41936,8.3487 -10.12761,16.80241 -21.63479,23.72708 -1.73729,1.04544 -5.6313,3.23375 -5.83548,3.23375 -0.0468,0 -0.0934,-0.19209 -0.12028,-0.27693 z"
         id="path51"
         sodipodi:nodetypes="csscssssscsssssssscsssc" /></g><g
       id="g60"
       transform="translate(2.1767133,-0.07031001)"><g
         id="g58"
         transform="matrix(1.1047132,0,0,1.1046473,333.10457,-52.003554)"
         style="stroke:#1a1a1a;stroke-width:0.905239"><path
           style="fill:none;stroke:#1a1a1a;stroke-width:2.39511;stroke-linecap:butt;stroke-linejoin:miter;stroke-dasharray:none;stroke-opacity:1"
           d="m 98.850858,127.22529 c 0,0 -25.373659,11.05914 -27.03693,29.49283 -1.198071,13.27795 7.439684,15.13629 8.931286,15.18594 3.058688,0.10181 11.708325,-0.5436 20.561126,-20.03142 7.77069,-17.10574 9.80198,-19.75472 9.80198,-19.75472 0,0 9.56796,23.58951 7.46588,31.42871 -2.554,9.52449 -11.87838,13.63862 -16.31581,10.64454 -7.821288,-5.27727 1.79029,-24.31439 25.38855,-22.97163"
           id="path56"
           sodipodi:nodetypes="cssscssc" /><path
           style="fill:none;stroke:#1a1a1a;stroke-width:1.43706;stroke-linecap:butt;stroke-linejoin:miter;stroke-dasharray:none;stroke-opacity:1"
           d="m 98.61092,126.61892 c 0,0 1.94094,10.22025 6.81487,11.02229"
           id="path57"
           sodipodi:nodetypes="cc" /><path
           style="fill:none;stroke:#1a1a1a;stroke-width:2.39511;stroke-linecap:butt;stroke-linejoin:miter;stroke-dasharray:none;stroke-opacity:1"
           d="m 104.98954,137.46671 -6.724788,3.91766 c -2.613177,1.52235 -5.541954,3.75594 -7.781529,6.40956 -0.975284,1.15559 -1.74744,2.42355 -2.054427,3.9042 -0.153493,0.74033 -0.140669,1.52166 0.09157,2.24118 0.232239,0.71952 0.691529,1.37338 1.322983,1.7892 0.791868,0.52146 1.802058,0.63821 2.736075,0.47516 0.934018,-0.16304 1.803926,-0.58419 2.618105,-1.07007 1.843671,-1.10026 3.460832,-2.54808 4.918081,-4.12482 1.57771,-1.70708 2.98116,-3.57513 4.18149,-5.56573"
           id="path58"
           sodipodi:nodetypes="csssscsssc" /></g><path
         style="fill:#cad1b3;fill-opacity:1;stroke:#333333;stroke-width:0.264583;stroke-linecap:round;stroke-linejoin:round;stroke-miterlimit:4.7;stroke-dasharray:none;stroke-opacity:1"
         d="m 421.06698,136.78543 c -3.2636,-0.93305 -5.89816,-3.60522 -7.04615,-7.14676 -1.12068,-3.45727 -1.12569,-8.07491 -0.0134,-12.32847 0.93585,-3.57875 2.98973,-7.44732 5.87773,-11.07094 1.33934,-1.68049 4.81492,-5.17402 6.70953,-6.744202 3.99004,-3.306773 8.45755,-6.256099 13.5818,-8.966337 l 1.42782,-0.755182 0.28815,1.014516 c 1.06165,3.737909 2.93664,7.211872 4.682,8.674772 l 0.60085,0.503608 -2.42416,1.402685 c -5.21542,3.01778 -6.82517,4.09387 -9.18484,6.13991 -4.7149,4.08824 -6.57041,7.89482 -5.38835,11.05417 0.93115,2.48872 3.61128,3.51624 6.52687,2.5023 1.7806,-0.61923 4.18412,-2.26783 6.20827,-4.25831 0.59381,-0.58394 1.48865,-1.70899 1.48865,-1.64032 0,0.18679 -2.85472,5.69646 -3.67069,7.11316 -1.04381,1.81228 -3.13268,4.92408 -4.28204,6.37898 -1.29079,1.63391 -3.93341,4.2627 -5.33246,5.30454 -1.26051,0.93869 -3.13575,1.95353 -4.41164,2.38748 -2.00871,0.68321 -4.18197,0.85065 -5.63796,0.4344 z"
         id="path59"
         sodipodi:nodetypes="sssssscsscssssssssssss" /><path
         style="fill:#adb395;fill-opacity:1;stroke:#333333;stroke-width:0.264583;stroke-linecap:round;stroke-linejoin:round;stroke-miterlimit:4.7;stroke-dasharray:none;stroke-opacity:1"
         d="m 448.20097,140.41642 c -3.22216,-0.90598 -4.79099,-4.07016 -3.9756,-8.01836 1.17637,-5.6961 6.75988,-11.3291 14.08819,-14.21306 1.34075,-0.52763 3.92995,-1.32467 4.01781,-1.2368 0.10819,0.10819 0.67351,3.07393 0.89874,4.71488 0.51485,3.75099 0.44544,5.58068 -0.29572,7.7956 -1.75245,5.23712 -5.5758,9.21258 -10.30427,10.71422 -1.32555,0.42096 -3.39366,0.53467 -4.42915,0.24352 z"
         id="path60" /></g><rect
       style="fill:#1a1a1a;fill-opacity:1;stroke:none;stroke-width:1.85208;stroke-linecap:round;stroke-linejoin:round;stroke-miterlimit:4.7;stroke-dasharray:none;stroke-opacity:1;paint-order:normal"
       id="rect23"
       width="501.87982"
       height="116.48068"
       x="14.33906"
       y="-59.721027" /><g
       id="g1"
       transform="translate(0,-1.3944182)"><g
         id="g27"
         transform="translate(-7.6780257,-113.91711)"><path
           style="fill:none;stroke:#ab37c8;stroke-width:2.64583;stroke-linecap:butt;stroke-linejoin:miter;stroke-dasharray:none;stroke-opacity:1"
           d="m 92.181144,91.867943 c 0,0 -25.373659,11.059137 -27.03693,29.492827 -1.198071,13.27795 7.439684,15.13629 8.931286,15.18594 3.058688,0.10181 11.708325,-0.5436 20.561128,-20.03142 7.770682,-17.105737 9.801972,-19.754717 9.801972,-19.754717 0,0 9.56797,23.589507 7.46588,31.428707 -2.554,9.52449 -11.87838,13.63862 -16.315805,10.64454 -7.821287,-5.27727 1.790286,-24.31439 25.388555,-22.97163"
           id="path23"
           sodipodi:nodetypes="cssscssc" /><path
           style="fill:none;stroke:#8800aa;stroke-width:3.96875;stroke-linecap:butt;stroke-linejoin:miter;stroke-dasharray:none;stroke-opacity:1"
           d="m 91.941206,91.261573 c 0,0 1.940942,10.220247 6.814868,11.022287"
           id="path24"
           sodipodi:nodetypes="cc" /><path
           style="fill:none;stroke:#ff00cc;stroke-width:3.96875;stroke-linecap:butt;stroke-linejoin:miter;stroke-dasharray:none;stroke-opacity:1"
           d="m 98.319823,102.10936 -6.724785,3.91766 c -2.613177,1.52235 -5.541954,3.75594 -7.781529,6.40956 -0.975284,1.15559 -1.74744,2.42355 -2.054427,3.9042 -0.153493,0.74033 -0.140669,1.52166 0.09157,2.24118 0.232239,0.71952 0.691529,1.37338 1.322983,1.7892 0.791868,0.52146 1.802058,0.63821 2.736075,0.47516 0.934018,-0.16304 1.803926,-0.58419 2.618105,-1.07007 1.843671,-1.10026 3.460832,-2.54808 4.918083,-4.12482 1.577709,-1.70708 2.981155,-3.57513 4.181483,-5.56573"
           id="path25"
           sodipodi:nodetypes="csssscsssc" /><path
           style="fill:#892ca0;stroke:#c837ab;stroke-width:3.96875;stroke-linecap:butt;stroke-linejoin:miter;stroke-dasharray:none;stroke-opacity:1"
           d="m 66.773752,131.51968 c -1.408087,-3.16954 -1.97567,-6.70798 -1.629539,-10.15891 0.347344,-3.46302 1.594234,-6.7911 3.270588,-9.84118 3.404376,-6.19416 8.645463,-11.36394 14.885679,-14.683148"
           id="path26"
           inkscape:path-effect="#path-effect31"
           inkscape:original-d="m 66.773752,131.51968 c -0.543179,-3.3863 -1.086358,-6.77261 -1.629539,-10.15891 -0.543179,-3.3863 2.180391,-6.56079 3.270588,-9.84118 1.090195,-3.2804 12.201878,-11.519768 14.885679,-14.683148"
           sodipodi:nodetypes="cssc" /><path
           style="fill:#cd87de;stroke:#d42aff;stroke-width:3.96875;stroke-linecap:butt;stroke-linejoin:miter;stroke-dasharray:none;stroke-opacity:1"
           d="m 100.19067,139.71683 c 2.97535,-0.59714 5.75142,-2.14912 7.81845,-4.37098 2.40148,-2.58136 3.8091,-6.00954 4.19253,-9.51432 0.34123,-3.11907 -0.10552,-6.32122 -1.28742,-9.22779"
           id="path27"
           inkscape:path-effect="#path-effect33"
           inkscape:original-d="m 100.19067,139.71683 c 2.60615,-1.45699 5.2123,-2.91399 7.81845,-4.37098 2.60615,-1.45699 2.79502,-6.34288 4.19253,-9.51432 1.39751,-3.17144 -0.85828,-6.15186 -1.28742,-9.22779" /></g><g
         id="g30"
         transform="matrix(1.1047132,0,0,1.1046473,-26.187864,-167.60802)"
         style="stroke:#f4d7ee;stroke-width:0.905239"><path
           style="fill:none;stroke:#f4d7ee;stroke-width:1.67658;stroke-linecap:butt;stroke-linejoin:miter;stroke-dasharray:none;stroke-opacity:1"
           d="m 98.850858,127.22529 c 0,0 -25.373659,11.05914 -27.03693,29.49283 -1.198071,13.27795 7.439684,15.13629 8.931286,15.18594 3.058688,0.10181 11.708325,-0.5436 20.561126,-20.03142 7.77069,-17.10574 9.80198,-19.75472 9.80198,-19.75472 0,0 9.56796,23.58951 7.46588,31.42871 -2.554,9.52449 -11.87838,13.63862 -16.31581,10.64454 -7.821288,-5.27727 1.79029,-24.31439 25.38855,-22.97163"
           id="path28"
           sodipodi:nodetypes="cssscssc" /><path
           style="fill:none;stroke:#f4d7ee;stroke-width:1.43706;stroke-linecap:butt;stroke-linejoin:miter;stroke-dasharray:none;stroke-opacity:1"
           d="m 98.61092,126.61892 c 0,0 1.94094,10.22025 6.81487,11.02229"
           id="path29"
           sodipodi:nodetypes="cc" /><path
           style="fill:none;stroke:#f4d7ee;stroke-width:1.67658;stroke-linecap:butt;stroke-linejoin:miter;stroke-dasharray:none;stroke-opacity:1"
           d="m 104.98954,137.46671 -6.724788,3.91766 c -2.613177,1.52235 -5.541954,3.75594 -7.781529,6.40956 -0.975284,1.15559 -1.74744,2.42355 -2.054427,3.9042 -0.153493,0.74033 -0.140669,1.52166 0.09157,2.24118 0.232239,0.71952 0.691529,1.37338 1.322983,1.7892 0.791868,0.52146 1.802058,0.63821 2.736075,0.47516 0.934018,-0.16304 1.803926,-0.58419 2.618105,-1.07007 1.843671,-1.10026 3.460832,-2.54808 4.918081,-4.12482 1.57771,-1.70708 2.98116,-3.57513 4.18149,-5.56573"
           id="path30"
           sodipodi:nodetypes="csssscsssc" /></g></g><g
       id="g42"
       transform="translate(0,0.28642543)"><g
         id="g6"
         transform="translate(-7.6780257,0.88272489)"><path
           style="fill:none;stroke:#ab37c8;stroke-width:2.64583;stroke-linecap:butt;stroke-linejoin:miter;stroke-dasharray:none;stroke-opacity:1"
           d="m 92.181144,91.867943 c 0,0 -25.373659,11.059137 -27.03693,29.492827 -1.198071,13.27795 7.439684,15.13629 8.931286,15.18594 3.058688,0.10181 11.708325,-0.5436 20.561128,-20.03142 7.770682,-17.105737 9.801972,-19.754717 9.801972,-19.754717 0,0 9.56797,23.589507 7.46588,31.428707 -2.554,9.52449 -11.87838,13.63862 -16.315805,10.64454 -7.821287,-5.27727 1.790286,-24.31439 25.388555,-22.97163"
           id="path1"
           sodipodi:nodetypes="cssscssc" /><path
           style="fill:none;stroke:#8800aa;stroke-width:3.96875;stroke-linecap:butt;stroke-linejoin:miter;stroke-dasharray:none;stroke-opacity:1"
           d="m 91.941206,91.261573 c 0,0 1.940942,10.220247 6.814868,11.022287"
           id="path2"
           sodipodi:nodetypes="cc" /><path
           style="fill:none;stroke:#ff00cc;stroke-width:3.96875;stroke-linecap:butt;stroke-linejoin:miter;stroke-dasharray:none;stroke-opacity:1"
           d="m 98.319823,102.10936 -6.724785,3.91766 c -2.613177,1.52235 -5.541954,3.75594 -7.781529,6.40956 -0.975284,1.15559 -1.74744,2.42355 -2.054427,3.9042 -0.153493,0.74033 -0.140669,1.52166 0.09157,2.24118 0.232239,0.71952 0.691529,1.37338 1.322983,1.7892 0.791868,0.52146 1.802058,0.63821 2.736075,0.47516 0.934018,-0.16304 1.803926,-0.58419 2.618105,-1.07007 1.843671,-1.10026 3.460832,-2.54808 4.918083,-4.12482 1.577709,-1.70708 2.981155,-3.57513 4.181483,-5.56573"
           id="path3"
           sodipodi:nodetypes="csssscsssc" /><path
           style="fill:#892ca0;stroke:#c837ab;stroke-width:3.96875;stroke-linecap:butt;stroke-linejoin:miter;stroke-dasharray:none;stroke-opacity:1"
           d="m 66.773752,131.51968 c -1.408087,-3.16954 -1.97567,-6.70798 -1.629539,-10.15891 0.347344,-3.46302 1.594234,-6.7911 3.270588,-9.84118 3.404376,-6.19416 8.645463,-11.36394 14.885679,-14.683148"
           id="path4"
           inkscape:path-effect="#path-effect4"
           inkscape:original-d="m 66.773752,131.51968 c -0.543179,-3.3863 -1.086358,-6.77261 -1.629539,-10.15891 -0.543179,-3.3863 2.180391,-6.56079 3.270588,-9.84118 1.090195,-3.2804 12.201878,-11.519768 14.885679,-14.683148"
           sodipodi:nodetypes="cssc" /><path
           style="fill:#cd87de;stroke:#d42aff;stroke-width:3.96875;stroke-linecap:butt;stroke-linejoin:miter;stroke-dasharray:none;stroke-opacity:1"
           d="m 100.19067,139.71683 c 2.97535,-0.59714 5.75142,-2.14912 7.81845,-4.37098 2.40148,-2.58136 3.8091,-6.00954 4.19253,-9.51432 0.34123,-3.11907 -0.10552,-6.32122 -1.28742,-9.22779"
           id="path5"
           inkscape:path-effect="#path-effect5"
           inkscape:original-d="m 100.19067,139.71683 c 2.60615,-1.45699 5.2123,-2.91399 7.81845,-4.37098 2.60615,-1.45699 2.79502,-6.34288 4.19253,-9.51432 1.39751,-3.17144 -0.85828,-6.15186 -1.28742,-9.22779" /></g><g
         id="g8"
         transform="matrix(1.1047132,0,0,1.1046473,-26.187864,-52.808185)"
         style="stroke:#440055;stroke-width:0.905239"><path
           style="fill:none;stroke:#440055;stroke-width:1.67658;stroke-linecap:butt;stroke-linejoin:miter;stroke-dasharray:none;stroke-opacity:1"
           d="m 98.850858,127.22529 c 0,0 -25.373659,11.05914 -27.03693,29.49283 -1.198071,13.27795 7.439684,15.13629 8.931286,15.18594 3.058688,0.10181 11.708325,-0.5436 20.561126,-20.03142 7.77069,-17.10574 9.80198,-19.75472 9.80198,-19.75472 0,0 9.56796,23.58951 7.46588,31.42871 -2.554,9.52449 -11.87838,13.63862 -16.31581,10.64454 -7.821288,-5.27727 1.79029,-24.31439 25.38855,-22.97163"
           id="path6"
           sodipodi:nodetypes="cssscssc" /><path
           style="fill:none;stroke:#440055;stroke-width:1.43706;stroke-linecap:butt;stroke-linejoin:miter;stroke-dasharray:none;stroke-opacity:1"
           d="m 98.61092,126.61892 c 0,0 1.94094,10.22025 6.81487,11.02229"
           id="path7"
           sodipodi:nodetypes="cc" /><path
           style="fill:none;stroke:#440055;stroke-width:1.67658;stroke-linecap:butt;stroke-linejoin:miter;stroke-dasharray:none;stroke-opacity:1"
           d="m 104.98954,137.46671 -6.724788,3.91766 c -2.613177,1.52235 -5.541954,3.75594 -7.781529,6.40956 -0.975284,1.15559 -1.74744,2.42355 -2.054427,3.9042 -0.153493,0.74033 -0.140669,1.52166 0.09157,2.24118 0.232239,0.71952 0.691529,1.37338 1.322983,1.7892 0.791868,0.52146 1.802058,0.63821 2.736075,0.47516 0.934018,-0.16304 1.803926,-0.58419 2.618105,-1.07007 1.843671,-1.10026 3.460832,-2.54808 4.918081,-4.12482 1.57771,-1.70708 2.98116,-3.57513 4.18149,-5.56573"
           id="path8"
           sodipodi:nodetypes="csssscsssc" /></g></g><g
       id="g41"
       transform="translate(-0.91229476,-117.34054)"><g
         id="g5"
         transform="matrix(-1.1047132,0,0,-1.1046473,339.08589,283.72327)"
         style="stroke:#999999;stroke-width:0.905239"><path
           style="fill:none;stroke:#999999;stroke-width:1.67658;stroke-linecap:butt;stroke-linejoin:miter;stroke-dasharray:none;stroke-opacity:1"
           d="m 98.850858,127.22529 c 0,0 -25.373659,11.05914 -27.03693,29.49283 -1.198071,13.27795 7.439684,15.13629 8.931286,15.18594 3.058688,0.10181 11.708325,-0.5436 20.561126,-20.03142 7.77069,-17.10574 9.80198,-19.75472 9.80198,-19.75472 0,0 9.56796,23.58951 7.46588,31.42871 -2.554,9.52449 -11.87838,13.63862 -16.31581,10.64454 -7.821288,-5.27727 1.79029,-24.31439 25.38855,-22.97163"
           id="path1-5"
           sodipodi:nodetypes="cssscssc" /><path
           style="fill:none;stroke:#999999;stroke-width:1.43706;stroke-linecap:butt;stroke-linejoin:miter;stroke-dasharray:none;stroke-opacity:1"
           d="m 98.61092,126.61892 c 0,0 1.94094,10.22025 6.81487,11.02229"
           id="path2-4"
           sodipodi:nodetypes="cc" /><path
           style="fill:none;stroke:#999999;stroke-width:1.67658;stroke-linecap:butt;stroke-linejoin:miter;stroke-dasharray:none;stroke-opacity:1"
           d="m 104.98954,137.46671 -6.724788,3.91766 c -2.613177,1.52235 -5.541954,3.75594 -7.781529,6.40956 -0.975284,1.15559 -1.74744,2.42355 -2.054427,3.9042 -0.153493,0.74033 -0.140669,1.52166 0.09157,2.24118 0.232239,0.71952 0.691529,1.37338 1.322983,1.7892 0.791868,0.52146 1.802058,0.63821 2.736075,0.47516 0.934018,-0.16304 1.803926,-0.58419 2.618105,-1.07007 1.843671,-1.10026 3.460832,-2.54808 4.918081,-4.12482 1.57771,-1.70708 2.98116,-3.57513 4.18149,-5.56573"
           id="path3-7"
           sodipodi:nodetypes="csssscsssc" /></g><path
         style="fill:#333333;stroke:#999999;stroke-width:1.32292;stroke-linecap:round;stroke-linejoin:round;stroke-miterlimit:4.7;stroke-dasharray:none;stroke-opacity:1"
         d="m 209.79405,114.64621 c -0.12753,-0.38396 -0.59821,-2.89363 -0.81574,-4.34952 -0.3214,-2.15112 -0.43076,-4.8079 -0.24632,-5.98444 0.18735,-1.19511 0.8453,-3.15553 1.49708,-4.46072 1.62994,-3.263943 4.31832,-6.014842 7.33587,-7.506465 3.02263,-1.494134 5.98758,-1.636178 7.93118,-0.379968 3.54716,2.292638 3.61757,7.395963 0.17302,12.539753 -3.00556,4.48824 -8.31406,8.15339 -14.36009,9.91464 -1.50277,0.43777 -1.44764,0.42951 -1.515,0.22672 z"
         id="path19" /><g
         id="g35"
         transform="matrix(1.1047132,0,0,1.1046473,79.292813,-52.003554)"
         style="stroke:#333333;stroke-width:0.905239"><path
           style="fill:none;stroke:#ececec;stroke-width:1.67658;stroke-linecap:butt;stroke-linejoin:miter;stroke-dasharray:none;stroke-opacity:1"
           d="m 98.850858,127.22529 c 0,0 -25.373659,11.05914 -27.03693,29.49283 -1.198071,13.27795 7.439684,15.13629 8.931286,15.18594 3.058688,0.10181 11.708325,-0.5436 20.561126,-20.03142 7.77069,-17.10574 9.80198,-19.75472 9.80198,-19.75472 0,0 9.56796,23.58951 7.46588,31.42871 -2.554,9.52449 -11.87838,13.63862 -16.31581,10.64454 -7.821288,-5.27727 1.79029,-24.31439 25.38855,-22.97163"
           id="path33"
           sodipodi:nodetypes="cssscssc" /><path
           style="fill:none;stroke:#ececec;stroke-width:1.43706;stroke-linecap:butt;stroke-linejoin:miter;stroke-dasharray:none;stroke-opacity:1"
           d="m 98.61092,126.61892 c 0,0 1.94094,10.22025 6.81487,11.02229"
           id="path34"
           sodipodi:nodetypes="cc" /><path
           style="fill:none;stroke:#ececec;stroke-width:1.67658;stroke-linecap:butt;stroke-linejoin:miter;stroke-dasharray:none;stroke-opacity:1"
           d="m 104.98954,137.46671 -6.724788,3.91766 c -2.613177,1.52235 -5.541954,3.75594 -7.781529,6.40956 -0.975284,1.15559 -1.74744,2.42355 -2.054427,3.9042 -0.153493,0.74033 -0.140669,1.52166 0.09157,2.24118 0.232239,0.71952 0.691529,1.37338 1.322983,1.7892 0.791868,0.52146 1.802058,0.63821 2.736075,0.47516 0.934018,-0.16304 1.803926,-0.58419 2.618105,-1.07007 1.843671,-1.10026 3.460832,-2.54808 4.918081,-4.12482 1.57771,-1.70708 2.98116,-3.57513 4.18149,-5.56573"
           id="path35"
           sodipodi:nodetypes="csssscsssc" /></g><path
         style="fill:#4d4d4d;fill-opacity:1;stroke:#ececec;stroke-width:1.32292;stroke-linecap:round;stroke-linejoin:round;stroke-miterlimit:4.7;stroke-dasharray:none;stroke-opacity:1"
         d="m 167.25523,136.78543 c -3.2636,-0.93305 -5.89816,-3.60522 -7.04615,-7.14676 -1.12068,-3.45727 -1.12569,-8.07491 -0.0134,-12.32847 0.93585,-3.57875 2.98973,-7.44732 5.87773,-11.07094 1.33934,-1.68049 4.81492,-5.17402 6.70953,-6.744202 3.99004,-3.306773 8.45755,-6.256099 13.5818,-8.966337 l 1.42782,-0.755182 0.28815,1.014516 c 1.06165,3.737909 2.93664,7.211872 4.682,8.674772 l 0.60085,0.503608 -2.42416,1.402685 c -5.21542,3.01778 -6.82517,4.09387 -9.18484,6.13991 -4.7149,4.08824 -6.57041,7.89482 -5.38835,11.05417 0.93115,2.48872 3.61128,3.51624 6.52687,2.5023 1.7806,-0.61923 4.18412,-2.26783 6.20827,-4.25831 0.59381,-0.58394 1.48865,-1.70899 1.48865,-1.64032 0,0.18679 -2.85472,5.69646 -3.67069,7.11316 -1.04381,1.81228 -3.13268,4.92408 -4.28204,6.37898 -1.29079,1.63391 -3.93341,4.2627 -5.33246,5.30454 -1.26051,0.93869 -3.13575,1.95353 -4.41164,2.38748 -2.00871,0.68321 -4.18197,0.85065 -5.63796,0.4344 z"
         id="path36"
         sodipodi:nodetypes="sssssscsscssssssssssss" /><path
         style="fill:#4d4d4d;fill-opacity:1;stroke:#ececec;stroke-width:1.32292;stroke-linecap:round;stroke-linejoin:round;stroke-miterlimit:4.7;stroke-dasharray:none;stroke-opacity:1"
         d="m 194.38922,140.41642 c -3.22216,-0.90598 -4.79099,-4.07016 -3.9756,-8.01836 1.17637,-5.6961 6.75988,-11.3291 14.08819,-14.21306 1.34075,-0.52763 3.92995,-1.32467 4.01781,-1.2368 0.10819,0.10819 0.67351,3.07393 0.89874,4.71488 0.51485,3.75099 0.44544,5.58068 -0.29572,7.7956 -1.75245,5.23712 -5.5758,9.21258 -10.30427,10.71422 -1.32555,0.42096 -3.39366,0.53467 -4.42915,0.24352 z"
         id="path37" /><path
         style="fill:#333333;stroke:#999999;stroke-width:0.264583;stroke-linecap:round;stroke-linejoin:round;stroke-miterlimit:4.7;stroke-dasharray:none;stroke-opacity:1"
         d="m 230.43612,141.69328 c -0.65838,-2.08084 -1.33346,-4.20047 -1.76701,-5.10986 -0.76305,-1.60054 -1.87851,-3.22312 -2.82337,-4.107 l -1.1015,-0.76858 3.1892,-1.65131 c 4.03497,-2.08924 4.95835,-2.92801 6.49434,-4.08415 4.45297,-3.35176 7.12742,-6.61341 7.75576,-9.45859 0.24098,-1.0912 0.11349,-2.73936 -0.27777,-3.59111 -0.45221,-0.98442 -1.29082,-1.83958 -2.22501,-2.26891 -0.68603,-0.31528 -0.90275,-0.35321 -2.00316,-0.35054 -1.01684,0.002 -1.3925,0.0601 -2.13543,0.32759 -1.8032,0.64929 -4.67217,2.92458 -6.73212,4.90587 -0.59382,0.57114 -1.07967,1.01975 -1.07967,0.99692 0,-0.15306 2.62679,-5.24505 3.40087,-6.59253 4.03572,-7.02516 9.04971,-12.423623 13.55481,-14.281373 1.66406,-0.686205 2.70627,-0.895231 4.46686,-0.895882 1.43564,-5.29e-4 1.70079,0.03449 2.52508,0.333499 3.02827,1.098487 5.34979,3.571881 6.45332,6.875506 0.67325,2.01553 1.20577,2.76895 1.20486,6.09192 -8e-4,3.32718 -0.56998,4.39266 -1.30951,6.94463 -2.41936,8.3487 -10.12761,16.80241 -21.63479,23.72708 -1.73729,1.04544 -5.6313,3.23375 -5.83548,3.23375 -0.0468,0 -0.0934,-0.19209 -0.12028,-0.27693 z"
         id="path20"
         sodipodi:nodetypes="csscssssscsssssssscsssc" /></g><g
       id="g40"
       transform="translate(4.8688129,-114.67839)"><path
         style="fill:#99a282;fill-opacity:1;stroke:none;stroke-width:1.85208;stroke-linecap:round;stroke-linejoin:round;stroke-miterlimit:4.7;stroke-dasharray:none;stroke-opacity:1;paint-order:normal"
         d="m 308.04453,146.51397 c -4.64801,-1.32884 -8.40014,-5.13454 -10.0351,-10.17838 -1.59607,-4.92383 -1.6032,-11.50026 -0.0191,-17.55816 1.33283,-5.09684 4.25796,-10.60644 8.37104,-15.76719 1.90748,-2.39334 6.85738,-7.368814 9.55568,-9.605062 5.6826,-4.709492 12.04521,-8.90991 19.34314,-12.769819 l 2.0335,-1.075527 0.41038,1.444869 c 1.512,5.323514 4.18235,10.271118 6.66808,12.354574 l 0.85573,0.717236 -3.45248,1.9977 c -7.42778,4.297909 -9.72037,5.830469 -13.08101,8.744429 -6.71494,5.82246 -9.35755,11.24377 -7.67406,15.74331 1.32614,3.54442 5.14317,5.00781 9.29554,3.56376 2.53592,-0.8819 5.959,-3.22983 8.84179,-6.06466 0.8457,-0.83165 1.53765,-1.43208 1.53765,-1.33428 0,0.26603 -3.4832,7.11101 -4.6453,9.12867 -1.48659,2.58104 -4.46155,7.01286 -6.09847,9.08492 -1.83833,2.32701 -5.60194,6.07092 -7.59446,7.5547 -1.79522,1.33688 -4.46592,2.78221 -6.28304,3.40024 -2.8608,0.97303 -5.95595,1.21149 -8.02956,0.61867 z"
         id="path12" /><path
         style="fill:none;fill-opacity:1;stroke:#dbddd3;stroke-width:1.85208;stroke-linecap:round;stroke-linejoin:round;stroke-miterlimit:4.7;stroke-dasharray:none;stroke-opacity:1;paint-order:normal"
         d="m 311.90728,136.593 c -3.2636,-0.93305 -5.89816,-3.60522 -7.04615,-7.14676 -1.12068,-3.45727 -1.12569,-8.07491 -0.0134,-12.32847 0.93585,-3.57875 2.98973,-7.44732 5.87773,-11.07094 1.33934,-1.68049 4.81492,-5.17402 6.70953,-6.744203 3.99004,-3.306773 8.45755,-6.256099 13.5818,-8.966337 l 1.42782,-0.755182 0.28815,1.014516 c 1.06165,3.737909 2.93664,7.211872 4.682,8.674772 l 0.60085,0.503608 -2.42416,1.402686 c -5.21542,3.01778 -6.82517,4.09387 -9.18484,6.13991 -4.7149,4.08824 -6.57041,7.89482 -5.38835,11.05417 0.93115,2.48872 3.61128,3.51624 6.52687,2.5023 1.7806,-0.61923 4.18412,-2.26783 6.20827,-4.25831 0.59381,-0.58394 1.07966,-1.00553 1.07966,-0.93686 0,0.18679 -2.44573,4.993 -3.2617,6.4097 -1.04381,1.81228 -3.13268,4.92408 -4.28204,6.37898 -1.29079,1.63391 -3.93341,4.2627 -5.33246,5.30454 -1.26051,0.93869 -3.13575,1.95353 -4.41164,2.38748 -2.00871,0.68321 -4.18197,0.85065 -5.63796,0.4344 z"
         id="path39" /><path
         style="fill:#6d7459;fill-opacity:1;stroke:none;stroke-width:1.85208;stroke-linecap:round;stroke-linejoin:round;stroke-miterlimit:4.7;stroke-dasharray:none;stroke-opacity:1"
         d="m 339.82819,136.05815 c -0.50804,-1.6057 -1.09841,-3.2224 -1.43296,-3.92415 -0.58882,-1.23506 -1.44957,-2.48713 -2.17869,-3.16919 l -0.61491,-0.57522 2.22591,-1.29211 c 3.03238,-1.76023 3.82615,-2.25943 5.01142,-3.15157 3.43617,-2.58642 5.49994,-5.10331 5.9848,-7.29882 0.18596,-0.84204 0.0876,-2.11384 -0.21435,-2.77111 -0.34894,-0.75964 -0.99606,-1.41953 -1.71694,-1.75083 -0.52938,-0.24329 -0.69662,-0.27255 -1.54576,-0.27049 -0.78466,0.002 -1.07454,0.0465 -1.64782,0.25279 -1.39146,0.50102 -3.30866,1.80652 -4.89824,3.3354 -0.45824,0.44073 -0.83314,0.7869 -0.83314,0.76929 0,-0.11819 2.02698,-4.0474 2.62432,-5.0872 3.11419,-5.42103 6.68663,-9.13656 10.16303,-10.57011 1.28409,-0.52951 2.08832,-0.690813 3.44688,-0.691311 1.10783,-4.13e-4 1.31243,0.02663 1.94851,0.257341 2.33679,0.84767 4.12822,2.75628 4.97976,5.30557 0.51952,1.55529 0.59381,2.1451 0.59311,4.7093 -6.2e-4,2.56745 -0.10324,3.38122 -0.67386,5.35047 -1.86692,6.44235 -7.81505,12.96574 -16.69469,18.30922 -1.34059,0.80673 -4.26548,2.38174 -4.42304,2.38174 -0.0362,0 -0.0826,-0.0535 -0.10338,-0.11904 z"
         id="path14" /><path
         style="fill:none;fill-opacity:1;stroke:#dbddd3;stroke-width:1.85208;stroke-linecap:round;stroke-linejoin:round;stroke-miterlimit:4.7;stroke-dasharray:none;stroke-opacity:1"
         d="m 337.21407,141.39569 c -0.65838,-2.08084 -1.42344,-4.17593 -1.85699,-5.08532 -0.76305,-1.60054 -1.87851,-3.22312 -2.82337,-4.107 l -0.79688,-0.74544 2.88458,-1.67445 c 3.92969,-2.2811 4.95835,-2.92801 6.49434,-4.08415 4.45297,-3.35176 7.12742,-6.61341 7.75576,-9.45859 0.24098,-1.0912 0.11349,-2.73936 -0.27777,-3.59111 -0.45221,-0.98442 -1.29082,-1.83958 -2.22501,-2.26891 -0.68603,-0.31528 -0.90275,-0.35321 -2.00316,-0.35054 -1.01684,0.002 -1.3925,0.0601 -2.13543,0.32759 -1.8032,0.64929 -4.28772,2.34109 -6.34767,4.32238 -0.59382,0.57114 -1.07967,1.01975 -1.07967,0.99692 0,-0.15306 2.62679,-5.24505 3.40087,-6.59253 4.03572,-7.02516 8.66526,-11.840144 13.17036,-13.697894 1.66406,-0.686205 2.70627,-0.895231 4.46686,-0.895882 1.43564,-5.29e-4 1.70079,0.03449 2.52508,0.333499 3.02827,1.098487 5.34979,3.571881 6.45332,6.875517 0.67325,2.01553 0.76952,2.77986 0.76861,6.10283 -8e-4,3.32718 -0.13373,4.38175 -0.87326,6.93372 -2.41936,8.3487 -10.12761,16.80241 -21.63479,23.72708 -1.73729,1.04544 -5.52769,3.08652 -5.73187,3.08652 -0.0468,0 -0.10708,-0.0694 -0.13391,-0.15424 z"
         id="path38" /></g><g
       id="g39"
       transform="translate(2.1767133,-116.55099)"><g
         id="g11"
         transform="matrix(1.1047132,0,0,1.1046473,333.10457,-52.003554)"
         style="stroke:#1a1a1a;stroke-width:0.905239"><path
           style="fill:none;stroke:#dbe0cd;stroke-width:2.39511;stroke-linecap:butt;stroke-linejoin:miter;stroke-dasharray:none;stroke-opacity:1"
           d="m 98.850858,127.22529 c 0,0 -25.373659,11.05914 -27.03693,29.49283 -1.198071,13.27795 7.439684,15.13629 8.931286,15.18594 3.058688,0.10181 11.708325,-0.5436 20.561126,-20.03142 7.77069,-17.10574 9.80198,-19.75472 9.80198,-19.75472 0,0 9.56796,23.58951 7.46588,31.42871 -2.554,9.52449 -11.87838,13.63862 -16.31581,10.64454 -7.821288,-5.27727 1.79029,-24.31439 25.38855,-22.97163"
           id="path9"
           sodipodi:nodetypes="cssscssc" /><path
           style="fill:none;stroke:#dbe0cd;stroke-width:1.43706;stroke-linecap:butt;stroke-linejoin:miter;stroke-dasharray:none;stroke-opacity:1"
           d="m 98.61092,126.61892 c 0,0 1.94094,10.22025 6.81487,11.02229"
           id="path10"
           sodipodi:nodetypes="cc" /><path
           style="fill:none;stroke:#dbe0cd;stroke-width:2.39511;stroke-linecap:butt;stroke-linejoin:miter;stroke-dasharray:none;stroke-opacity:1"
           d="m 104.98954,137.46671 -6.724788,3.91766 c -2.613177,1.52235 -5.541954,3.75594 -7.781529,6.40956 -0.975284,1.15559 -1.74744,2.42355 -2.054427,3.9042 -0.153493,0.74033 -0.140669,1.52166 0.09157,2.24118 0.232239,0.71952 0.691529,1.37338 1.322983,1.7892 0.791868,0.52146 1.802058,0.63821 2.736075,0.47516 0.934018,-0.16304 1.803926,-0.58419 2.618105,-1.07007 1.843671,-1.10026 3.460832,-2.54808 4.918081,-4.12482 1.57771,-1.70708 2.98116,-3.57513 4.18149,-5.56573"
           id="path11"
           sodipodi:nodetypes="csssscsssc" /></g><path
         style="fill:#8a975d;fill-opacity:1;stroke:#e6e9dc;stroke-width:0.264583;stroke-linecap:round;stroke-linejoin:round;stroke-miterlimit:4.7;stroke-dasharray:none;stroke-opacity:1"
         d="m 421.06698,136.78543 c -3.2636,-0.93305 -5.89816,-3.60522 -7.04615,-7.14676 -1.12068,-3.45727 -1.12569,-8.07491 -0.0134,-12.32847 0.93585,-3.57875 2.98973,-7.44732 5.87773,-11.07094 1.33934,-1.68049 4.81492,-5.17402 6.70953,-6.744202 3.99004,-3.306773 8.45755,-6.256099 13.5818,-8.966337 l 1.42782,-0.755182 0.28815,1.014516 c 1.06165,3.737909 2.93664,7.211872 4.682,8.674772 l 0.60085,0.503608 -2.42416,1.402685 c -5.21542,3.01778 -6.82517,4.09387 -9.18484,6.13991 -4.7149,4.08824 -6.57041,7.89482 -5.38835,11.05417 0.93115,2.48872 3.61128,3.51624 6.52687,2.5023 1.7806,-0.61923 4.18412,-2.26783 6.20827,-4.25831 0.59381,-0.58394 1.48865,-1.70899 1.48865,-1.64032 0,0.18679 -2.85472,5.69646 -3.67069,7.11316 -1.04381,1.81228 -3.13268,4.92408 -4.28204,6.37898 -1.29079,1.63391 -3.93341,4.2627 -5.33246,5.30454 -1.26051,0.93869 -3.13575,1.95353 -4.41164,2.38748 -2.00871,0.68321 -4.18197,0.85065 -5.63796,0.4344 z"
         id="path18"
         sodipodi:nodetypes="sssssscsscssssssssssss" /><path
         style="fill:#5f6548;fill-opacity:1;stroke:#e6e9dc;stroke-width:0.264583;stroke-linecap:round;stroke-linejoin:round;stroke-miterlimit:4.7;stroke-dasharray:none;stroke-opacity:1"
         d="m 448.20097,140.41642 c -3.22216,-0.90598 -4.79099,-4.07016 -3.9756,-8.01836 1.17637,-5.6961 6.75988,-11.3291 14.08819,-14.21306 1.34075,-0.52763 3.92995,-1.32467 4.01781,-1.2368 0.10819,0.10819 0.67351,3.07393 0.89874,4.71488 0.51485,3.75099 0.44544,5.58068 -0.29572,7.7956 -1.75245,5.23712 -5.5758,9.21258 -10.30427,10.71422 -1.32555,0.42096 -3.39366,0.53467 -4.42915,0.24352 z"
         id="path21" /></g></g></svg>
