<?xml version="1.0" encoding="UTF-8" standalone="no"?>
<!-- Created with Inkscape (http://www.inkscape.org/) -->

<svg
   width="87.113716mm"
   height="37.880894mm"
   viewBox="0 0 87.113715 37.880892"
   version="1.1"
   id="svg1"
   inkscape:version="1.3 (0e150ed6c4, 2023-07-21)"
   sodipodi:docname="Portfolio_workPreviewElement_Eroy.svg"
   xmlns:inkscape="http://www.inkscape.org/namespaces/inkscape"
   xmlns:sodipodi="http://sodipodi.sourceforge.net/DTD/sodipodi-0.dtd"
   xmlns="http://www.w3.org/2000/svg"
   xmlns:svg="http://www.w3.org/2000/svg">
  <sodipodi:namedview
     id="namedview1"
     pagecolor="#505050"
     bordercolor="#000000"
     borderopacity="1"
     inkscape:showpageshadow="0"
     inkscape:pageopacity="0"
     inkscape:pagecheckerboard="0"
     inkscape:deskcolor="#4c4c4c"
     inkscape:document-units="px"
     borderlayer="false"
     showborder="false"
     inkscape:zoom="1.0721378"
     inkscape:cx="0"
     inkscape:cy="144.10461"
     inkscape:window-width="1920"
     inkscape:window-height="1009"
     inkscape:window-x="-8"
     inkscape:window-y="-8"
     inkscape:window-maximized="1"
     inkscape:current-layer="layer1" />
  <defs
     id="defs1">
    <inkscape:path-effect
       effect="spiro"
       id="path-effect6"
       is_visible="true"
       lpeversion="1" />
    <inkscape:path-effect
       effect="spiro"
       id="path-effect4"
       is_visible="true"
       lpeversion="1" />
    <inkscape:path-effect
       effect="spiro"
       id="path-effect3"
       is_visible="true"
       lpeversion="1" />
    <inkscape:path-effect
       effect="spiro"
       id="path-effect1"
       is_visible="true"
       lpeversion="1" />
  </defs>
  <g
     inkscape:label="Слой 1"
     inkscape:groupmode="layer"
     id="layer1"
     transform="translate(-167.47948,-31.101896)">
    <rect
       style="fill:#000000;stroke-width:2.64583;stroke-linecap:round;stroke-linejoin:round;stroke-miterlimit:4.7"
       id="rect1"
       width="87.113716"
       height="37.880894"
       x="167.47948"
       y="31.101896"
       ry="2.9613729"
       rx="2.9613729" />
    <text
       xml:space="preserve"
       style="font-style:normal;font-variant:normal;font-weight:normal;font-stretch:normal;font-size:7.05556px;line-height:1;font-family:'Britannic Bold';-inkscape-font-specification:'Britannic Bold, ';stroke-width:0.264583"
       x="189.31255"
       y="69.250237"
       id="text1"><tspan
         sodipodi:role="line"
         id="tspan1"
         style="font-style:normal;font-variant:normal;font-weight:normal;font-stretch:normal;font-family:'Britannic Bold';-inkscape-font-specification:'Britannic Bold, ';stroke-width:0.264583"
         x="189.31255"
         y="69.250237" /></text>
    <text
       xml:space="preserve"
       style="font-weight:bold;font-size:7.05556px;line-height:1;font-family:'Neutral Face';-inkscape-font-specification:'Neutral Face Bold';stroke-width:0.264583"
       x="197.70311"
       y="72.643478"
       id="text2"><tspan
         sodipodi:role="line"
         id="tspan2"
         style="stroke-width:0.264583"
         x="197.70311"
         y="72.643478" /></text>
    <path
       id="path3"
       style="fill:#ffffff;stroke:none;stroke-width:2.64583;stroke-linecap:round;stroke-linejoin:round;stroke-miterlimit:4.7;stroke-opacity:1"
       d="m 215.78024,56.637606 a 6.5951514,6.5951514 0 0 1 -6.59495,-6.595463 6.5951514,6.5951514 0 0 1 6.59495,-6.594946 6.5951514,6.5951514 0 0 1 5.08134,2.406055 h -5.08134 a 4.1890359,4.1890359 0 0 0 -4.1889,4.188891 4.1890359,4.1890359 0 0 0 4.1889,4.189408 h 5.09374 a 6.5951514,6.5951514 0 0 1 -5.09374,2.406055 z" />
    <path
       id="path3-7"
       style="fill:#ffffff;stroke:none;stroke-width:2.64583;stroke-linecap:round;stroke-linejoin:round;stroke-miterlimit:4.7;stroke-opacity:1"
       d="m 216.2607,56.637606 a 6.5951514,6.5951514 0 0 0 6.59495,-6.595463 6.5951514,6.5951514 0 0 0 -6.59495,-6.594946 6.5951514,6.5951514 0 0 0 -5.08134,2.406055 h 5.08134 a 4.1890359,4.1890359 0 0 1 4.1889,4.188891 4.1890359,4.1890359 0 0 1 -4.1889,4.189408 h -5.09374 a 6.5951514,6.5951514 0 0 0 5.09374,2.406055 z" />
    <g
       id="g7"
       transform="translate(12.942088,2.58e-4)"
       style="fill:#ffffff">
      <path
         id="path2"
         style="fill:#ffffff;stroke:none;stroke-width:2.64583;stroke-linecap:round;stroke-linejoin:round;stroke-miterlimit:4.7;stroke-opacity:1"
         d="m 210.93431,48.540674 a 6.5951514,6.5951514 0 0 0 6.59546,6.59495 6.5951514,6.5951514 0 0 0 6.59495,-6.59495 6.5951514,6.5951514 0 0 0 -2.40606,-5.08134 v 5.08134 a 4.1890359,4.1890359 0 0 1 -4.18889,4.1889 4.1890359,4.1890359 0 0 1 -4.1894,-4.1889 v -5.09374 a 6.5951514,6.5951514 0 0 0 -2.40606,5.09374 z" />
      <path
         id="path1"
         style="fill:#ffffff;stroke:none;stroke-width:2.64583;stroke-linecap:round;stroke-linejoin:round;stroke-miterlimit:4.7;stroke-opacity:1"
         d="m 221.71867,48.540674 v 1.513603 5.081343 a 4.1890359,4.1890359 0 0 1 -4.18889,4.189409 h -5.09375 a 6.5951514,6.5951514 0 0 0 5.09375,2.406054 6.5951514,6.5951514 0 0 0 6.59494,-6.595463 v -6.594946 z" />
    </g>
    <g
       id="g10"
       transform="translate(-1.50122,-1.1395459e-4)"
       style="fill:#ffffff">
      <path
         id="path5"
         style="fill:#ffffff;stroke:none;stroke-width:2.64583;stroke-linecap:round;stroke-linejoin:round;stroke-miterlimit:4.7;stroke-opacity:1"
         d="m 193.10203,43.447192 a 6.5951514,6.5951514 0 0 0 -6.59495,6.595463 6.5951514,6.5951514 0 0 0 6.59495,6.594946 6.5951514,6.5951514 0 0 0 5.08134,-2.406055 h -5.08134 a 4.1890359,4.1890359 0 0 1 -4.1889,-4.188891 4.1890359,4.1890359 0 0 1 4.1889,-4.189408 h 5.09374 a 6.5951514,6.5951514 0 0 0 -5.09374,-2.406055 z" />
      <path
         id="path6"
         style="fill:#ffffff;stroke:none;stroke-width:2.64583;stroke-linecap:round;stroke-linejoin:round;stroke-miterlimit:4.7;stroke-opacity:1"
         d="m 195.78972,44.024418 v 1.828829 a 4.1890359,4.1890359 0 0 1 -4.18889,4.189408 h -5.09375 a 6.5951514,6.5951514 0 0 0 5.09375,2.406054 6.5951514,6.5951514 0 0 0 6.59495,-6.593395 6.5949488,6.5927687 0 0 0 -2.40606,-1.830896 z" />
    </g>
    <g
       id="g8"
       transform="translate(-1.04984,-1.14e-4)"
       style="fill:#ffffff">
      <path
         id="path8"
         style="fill:#ffffff;stroke:none;stroke-width:2.64583;stroke-linecap:round;stroke-linejoin:round;stroke-miterlimit:4.7;stroke-opacity:1"
         d="m 205.84056,43.447306 a 6.5951514,6.5951514 0 0 0 -6.59495,6.595463 6.5951514,6.5951514 0 0 0 2.40606,5.081343 v -5.081343 a 4.1890359,4.1890359 0 0 1 4.18889,-4.189408 h 5.09374 a 6.5951514,6.5951514 0 0 0 -5.09374,-2.406055 z" />
      <rect
         style="fill:#ffffff;stroke:none;stroke-width:2.64583;stroke-linecap:round;stroke-linejoin:round;stroke-miterlimit:4.7;stroke-dasharray:none;stroke-opacity:1"
         id="rect7"
         width="2.4060564"
         height="6.5949464"
         x="199.24562"
         y="50.042397" />
    </g>
  </g>
</svg>
