<?xml version="1.0" encoding="UTF-8" standalone="no"?>
<!-- Created with Inkscape (http://www.inkscape.org/) -->

<svg
   width="136.93459"
   height="31.279251"
   viewBox="0 0 136.93459 31.279252"
   version="1.1"
   id="svg5"
   xml:space="preserve"
   inkscape:version="1.3 (0e150ed6c4, 2023-07-21)"
   sodipodi:docname="Portfolio_workPreviewElement_Ww_additional.svg"
   inkscape:export-filename="Logo_Ww.png"
   inkscape:export-xdpi="500"
   inkscape:export-ydpi="500"
   xmlns:inkscape="http://www.inkscape.org/namespaces/inkscape"
   xmlns:sodipodi="http://sodipodi.sourceforge.net/DTD/sodipodi-0.dtd"
   xmlns="http://www.w3.org/2000/svg"
   xmlns:svg="http://www.w3.org/2000/svg"><sodipodi:namedview
     id="namedview7"
     pagecolor="#505050"
     bordercolor="#eeeeee"
     borderopacity="1"
     inkscape:showpageshadow="0"
     inkscape:pageopacity="0"
     inkscape:pagecheckerboard="0"
     inkscape:deskcolor="#505050"
     inkscape:document-units="px"
     showgrid="false"
     inkscape:zoom="4.0000001"
     inkscape:cx="26.749999"
     inkscape:cy="39.874999"
     inkscape:window-width="1920"
     inkscape:window-height="1009"
     inkscape:window-x="-8"
     inkscape:window-y="-8"
     inkscape:window-maximized="1"
     inkscape:current-layer="layer1" /><defs
     id="defs2" /><g
     inkscape:label="Слой 1"
     inkscape:groupmode="layer"
     id="layer1"
     transform="translate(-29.429156,-49.521161)"><path
       id="path4"
       style="fill:#ab2b2b;fill-opacity:1;stroke-width:1.56897;stroke-linecap:square"
       d="m 46.293248,63.706186 c -3.538881,0 -6.407707,-1.052732 -6.407707,-5.161761 0,-4.109031 2.868826,-7.440061 6.407707,-7.440061 3.538875,0 6.407707,3.33103 6.407707,7.440061 0,4.109029 -2.868832,5.161761 -6.407707,5.161761 z"
       sodipodi:nodetypes="sssss" /><path
       id="path845"
       style="fill:#cd3939;fill-opacity:1;stroke-width:1.56897;stroke-linecap:square"
       d="m 47.601001,59.734606 c -2.01433,0 -3.647269,-0.599214 -3.647269,-2.938076 0,-2.33887 1.632939,-4.234893 3.647269,-4.234893 2.014331,0 3.647275,1.896023 3.647275,4.234893 0,2.338862 -1.632944,2.938076 -3.647275,2.938076 z"
       sodipodi:nodetypes="sssss" /><g
       id="g6"
       transform="matrix(1.6206821,0,0,1.6206821,119.58059,-88.689493)"
       style="stroke-width:0.617025"><path
         id="path5"
         style="fill:#cd3939;stroke-width:1.29812;stroke-linecap:square;fill-opacity:1"
         d="m -52.932645,94.484467 c -1.607442,0.499156 -2.692967,1.640716 -2.692967,3.938978 -3e-6,3.399705 2.373516,6.155865 5.301486,6.155865 2.927973,0 5.301649,-2.75617 5.301649,-6.155865 0,-1.514644 -0.4721,-2.526297 -1.253495,-3.183691 -0.233186,0.477062 -0.295409,0.757648 -0.662284,1.3615 -0.591085,0.972901 -0.945255,1.163988 -1.492934,1.611321 -0.84772,0.6924 -2.339083,0.94348 -3.153931,-0.320981 -1.074785,-1.667822 -0.948423,-2.18701 -1.347524,-3.407133 z"
         sodipodi:nodetypes="sssscsssss" /><path
         id="path871"
         style="fill:#ab2b2b;fill-opacity:1;stroke-width:1.29812;stroke-linecap:square"
         d="m -37.507474,94.484467 c 1.607442,0.499156 2.692967,1.640716 2.692967,3.938978 3e-6,3.399705 -2.373516,6.155865 -5.301486,6.155865 -2.927973,0 -5.301649,-2.75617 -5.301649,-6.155865 0,-1.514644 0.4721,-2.526297 1.253495,-3.183691 0.233186,0.477062 0.295409,0.757648 0.662284,1.3615 0.591085,0.972901 0.945255,1.163988 1.492934,1.611321 0.84772,0.6924 2.339083,0.94348 3.153931,-0.320981 1.074785,-1.667822 0.948423,-2.18701 1.347524,-3.407133 z"
         sodipodi:nodetypes="sssscsssss" /><path
         style="fill:#ab2b2b;fill-opacity:1;stroke:none;stroke-width:0.163254px;stroke-linecap:butt;stroke-linejoin:miter;stroke-opacity:1"
         d="M -55.625583,98.397689 V 85.279313 c 0,0 0.425986,0.0064 1.235264,1.801322 1.192608,2.64512 1.457334,7.402683 1.457334,7.402683 0,0 -0.608393,0.461843 -1.544738,1.428021 -0.947413,0.977597 -1.14786,2.48635 -1.14786,2.48635 z"
         id="path6"
         sodipodi:nodetypes="ccscsc" /><path
         style="fill:#cd3939;fill-opacity:1;stroke:none;stroke-width:0.163254px;stroke-linecap:butt;stroke-linejoin:miter;stroke-opacity:1"
         d="M -34.814536,98.397689 V 85.279313 c 0,0 -0.425986,0.0064 -1.235264,1.801322 -1.192608,2.64512 -1.457334,7.402683 -1.457334,7.402683 0,0 0.608393,0.461843 1.544738,1.428021 0.947413,0.977597 1.14786,2.48635 1.14786,2.48635 z"
         id="path864"
         sodipodi:nodetypes="ccscsc" /></g><g
       id="g6827"
       transform="matrix(1.7888551,0,0,1.7888551,-0.41222522,20.154902)"
       style="stroke-width:0.559016"><g
         id="g1282"
         style="stroke-width:1.74318"
         transform="matrix(0.32068781,0,0,0.32068781,-133.03678,-13.222166)"><path
           id="path981"
           style="fill:#334c3d;fill-opacity:1;stroke:none;stroke-width:3.95179;stroke-linecap:square"
           d="m 570.28424,92.42134 25.05389,44.49211 5.79192,10.03246 7.54062,-4.35374 -3.27887,-5.67872 h 5e-4 l -14.65875,-25.38946 -9.16438,-19.10265 z"
           sodipodi:nodetypes="ccccccccc" /><path
           id="path985"
           style="fill:#67997a;fill-opacity:1;stroke:none;stroke-width:3.95179;stroke-linecap:square"
           d="m 627.58216,92.42159 -23.17376,40.13812 h 5e-4 l -3.27885,5.67872 7.75109,5.66336 1.73149,-4.6734 3.84993,-6.66868 22.30924,-38.640536 -0.86455,-1.497584 z"
           sodipodi:nodetypes="cccccccccc" /><path
           id="path987"
           style="fill:#4c736b;fill-opacity:1;stroke:none;stroke-width:3.95179;stroke-linecap:square"
           d="m 637.46684,93.191052 -8.96276,5.577438 3.24439,3.86277 0.76209,1.31986 h -5.3e-4 l 10.77248,18.65829 9.09506,-4.41989 -6.64118,-8.74413 -3.17219,-5.49427 -4.17218,-7.106184 z"
           sodipodi:nodetypes="ccccccccccc" /><path
           id="rect973"
           style="fill:#93ac9d;fill-opacity:1;stroke:none;stroke-width:3.95179;stroke-linecap:square"
           d="m 655.68433,92.42159 -14.91536,25.83408 h 10.05417 l 14.91535,-25.83408 z" /></g><g
         id="g6753"
         style="stroke-width:0.559016"><path
           id="ellipse1112"
           style="fill:#67997a;fill-opacity:1;stroke:none;stroke-width:1.48627;stroke-linecap:square"
           d="m 73.255994,26.097115 a 3.663646,3.9022088 0 0 0 -3.663343,3.902087 3.663646,3.9022088 0 0 0 3.663343,3.902088 3.663646,3.9022088 0 0 0 3.663859,-3.902088 3.663646,3.9022088 0 0 0 -3.663859,-3.902087 z m 0,1.635042 a 2.1286776,2.2672889 0 0 1 2.128552,2.267045 2.1286776,2.2672889 0 0 1 -2.128552,2.267562 2.1286776,2.2672889 0 0 1 -2.128553,-2.267562 2.1286776,2.2672889 0 0 1 2.128553,-2.267045 z" /><path
           id="path1114"
           style="fill:#93ac9d;fill-opacity:1;stroke:none;stroke-width:1.48627;stroke-linecap:square"
           d="m 74.953048,31.366044 a 2.1286776,2.2672889 0 0 1 -1.697054,0.90072 2.1286776,2.2672889 0 0 1 -0.707451,-0.130741 l -5.16e-4,0.0016 -0.213424,1.638143 a 3.6636459,3.9022088 0 0 0 5.17e-4,5.17e-4 3.6636459,3.9022088 0 0 0 0.920874,0.125574 3.6636459,3.9022088 0 0 0 3.031339,-1.71049 l -1.333252,-0.824756 z" /><path
           id="path1116"
           style="fill:#334c3d;fill-opacity:1;stroke:none;stroke-width:1.48627;stroke-linecap:square"
           d="m 69.667582,29.213721 a 3.6636459,3.9022088 0 0 0 -0.07493,0.785481 3.6636459,3.9022088 0 0 0 2.742469,3.777031 l 0.212907,-1.63866 5.16e-4,-0.0016 a 2.1286776,2.2672889 0 0 1 -1.421102,-2.136821 2.1286776,2.2672889 0 0 1 0.132809,-0.784965 l -5.17e-4,-5.16e-4 z" /><path
           id="path1118"
           style="fill:#4c736b;fill-opacity:1;stroke:none;stroke-width:1.48627;stroke-linecap:square"
           d="m 73.255994,26.097115 a 3.6636459,3.9022088 0 0 0 -3.588412,3.116606 h 1.593185 a 2.1286776,2.2672889 0 0 1 1.995227,-1.481564 2.1286776,2.2672889 0 0 1 0.825272,0.177251 v -1.712041 a 3.6636459,3.9022088 0 0 0 -0.825272,-0.100252 z" /><path
           style="fill:#4c736b;fill-opacity:1;stroke:none;stroke-width:0.147906px;stroke-linecap:butt;stroke-linejoin:miter;stroke-opacity:1"
           d="m 69.676119,29.17003 -0.205689,1.145686 1.468943,-0.08485 0.321752,-1.022494 -0.533874,-0.579024 z"
           id="path1122" /><path
           style="fill:#334c3d;fill-opacity:1;stroke:none;stroke-width:0.147906px;stroke-linecap:butt;stroke-linejoin:miter;stroke-opacity:1"
           d="m 72.548026,32.137493 0.832272,-0.14229 -0.362897,1.410555 -0.682924,0.370273 -0.233823,-1.093029 z"
           id="path1124"
           sodipodi:nodetypes="cccccc" /><path
           style="fill:#93ac9d;fill-opacity:1;stroke:none;stroke-width:0.147906px;stroke-linecap:butt;stroke-linejoin:miter;stroke-opacity:1"
           d="m 74.954019,31.366761 0.206478,-1.031146 2.302387,0.299988 -1.175724,1.555579 z"
           id="path1126" /><path
           style="fill:#67997a;fill-opacity:1;stroke:none;stroke-width:0.147906px;stroke-linecap:butt;stroke-linejoin:miter;stroke-opacity:1"
           d="m 74.081299,26.197376 -0.49571,0.400911 -0.39773,1.495454 0.893398,-0.184395 z"
           id="path1128"
           sodipodi:nodetypes="ccccc" /></g><g
         id="g6743"
         style="stroke-width:0.559016"><path
           style="fill:#4c736b;fill-opacity:1;stroke:none;stroke-width:0.147906px;stroke-linecap:butt;stroke-linejoin:miter;stroke-opacity:1"
           d="m 85.079761,30.828637 0.513174,-1.205683 -1.776428,0.144845 -0.321752,1.022494 0.533875,0.579024 z"
           id="path1013"
           sodipodi:nodetypes="cccccc" /><path
           id="ellipse1063"
           style="fill:#67997a;fill-opacity:1;stroke:none;stroke-width:1.48627;stroke-linecap:square"
           d="m -81.499935,-26.097115 a 3.663646,3.9022088 0 0 0 3.663859,-3.902087 3.663646,3.9022088 0 0 0 -3.663859,-3.902605 3.663646,3.9022088 0 0 0 -3.663342,3.902605 3.663646,3.9022088 0 0 0 3.663342,3.902087 z m 0,-1.635042 a 2.1286776,2.2672889 0 0 1 -2.128552,-2.267045 2.1286776,2.2672889 0 0 1 2.128552,-2.267562 2.1286776,2.2672889 0 0 1 2.129069,2.267562 2.1286776,2.2672889 0 0 1 -2.129069,2.267045 z"
           transform="scale(-1)" /><path
           id="path1083"
           style="fill:#93ac9d;fill-opacity:1;stroke:none;stroke-width:1.48627;stroke-linecap:square"
           d="m 81.499935,26.097115 a 3.6636459,3.9022088 0 0 0 -3.03134,1.71049 l -0.01499,0.02377 a 3.6636459,3.9022088 0 0 0 -0.33848,0.674378 l 1.349271,0.829923 a 2.1286776,2.2672889 0 0 1 0.02687,-0.08268 2.1286776,2.267289 0 0 1 0.02377,-0.07338 2.1286776,2.2672889 0 0 1 0.03101,-0.07648 2.1286776,2.267289 0 0 1 0.02946,-0.07183 2.1286776,2.2672889 0 0 1 0.03824,-0.07958 2.1286776,2.267289 0 0 1 0.03307,-0.06666 2.1286776,2.2672889 0 0 1 0.03669,-0.06563 2.1286776,2.267289 0 0 1 0.04703,-0.07906 2.1286776,2.2672889 0 0 1 0.03514,-0.05374 2.1286776,2.267289 0 0 1 0.03566,-0.05426 h 5.16e-4 l 0.001,5.17e-4 a 2.1286776,2.2672889 0 0 1 1.697054,-0.900721 2.1286776,2.2672889 0 0 1 0.707967,0.129191 l 0.213424,-1.638659 a 3.6636459,3.9022088 0 0 0 -5.17e-4,0 3.6636459,3.9022088 0 0 0 -0.920874,-0.125574 z" /><path
           id="ellipse1022"
           style="fill:#334c3d;fill-opacity:1;stroke:none;stroke-width:1.48627;stroke-linecap:square"
           d="m 82.420809,26.222689 -0.212907,1.638659 a 2.1286776,2.2672889 0 0 1 1.420585,2.137854 2.1286776,2.2672889 0 0 1 -0.132808,0.785482 l 5.16e-4,5.17e-4 h 1.592151 a 3.6636459,3.9022088 0 0 0 0.07493,-0.785999 3.6636459,3.9022088 0 0 0 -2.742467,-3.776513 z" /><path
           id="ellipse1011"
           style="fill:#4c736b;fill-opacity:1;stroke:none;stroke-width:1.48627;stroke-linecap:square"
           d="m 83.495162,30.785201 a 2.1286776,2.2672889 0 0 1 -1.995227,1.481563 2.1286776,2.2672889 0 0 1 -0.825273,-0.179317 v 1.713591 a 3.6636459,3.9022088 0 0 0 0.825273,0.100252 3.6636459,3.9022088 0 0 0 3.588411,-3.116089 z" /><path
           style="fill:#334c3d;fill-opacity:1;stroke:none;stroke-width:0.147906px;stroke-linecap:butt;stroke-linejoin:miter;stroke-opacity:1"
           d="m 82.207854,27.861175 -0.463711,0.04153 -0.36892,-1.468891 1.04618,-0.211173 0.233823,1.093029 z"
           id="path1015"
           sodipodi:nodetypes="cccccc" /><path
           style="fill:#93ac9d;fill-opacity:1;stroke:none;stroke-width:0.147906px;stroke-linecap:butt;stroke-linejoin:miter;stroke-opacity:1"
           d="m 79.464867,29.333844 -0.338813,0.53814 -1.108759,-0.377809 0.09781,-0.988372 z"
           id="path1035"
           sodipodi:nodetypes="ccccc" /><path
           style="fill:#67997a;fill-opacity:1;stroke:none;stroke-width:0.147906px;stroke-linecap:butt;stroke-linejoin:miter;stroke-opacity:1"
           d="m 80.674581,33.801292 0.835107,-0.453944 0.04772,-1.665152 -0.882792,0.407126 z"
           id="path1037"
           sodipodi:nodetypes="ccccc" /><path
           id="path1109"
           style="fill:#4c736b;fill-opacity:1;stroke:none;stroke-width:1.51238;stroke-linecap:square"
           d="m 77.836138,16.416232 h 1.725868 l -0.190908,1.235824 0.01206,7.85909 0.0019,1.301633 -0.03515,1.551084 -1.731281,1.455188 0.217432,-1.932128 z"
           sodipodi:nodetypes="ccccccccc" /><path
           id="rect1097"
           style="fill:#334c3d;fill-opacity:1;stroke:none;stroke-width:1.51238;stroke-linecap:square"
           d="m 77.836196,16.416282 v 4.21194 l 1.534895,0.152795 v -3.128961 l 0.190912,-1.235774 z" /><path
           style="fill:#67997a;fill-opacity:1;stroke:none;stroke-width:0.147906px;stroke-linecap:butt;stroke-linejoin:miter;stroke-opacity:1"
           d="m 77.836138,20.133878 v 3.473944 l -0.367482,0.922728 h 1.585747 l 0.316692,-0.615153 v -4.120912 l 0.266645,-0.43485 h -1.49546 z"
           id="path1105"
           sodipodi:nodetypes="ccccccccc" /></g><g
         id="g6730"
         style="stroke-width:0.559016"><path
           id="ellipse1045"
           style="fill:#334c3d;fill-opacity:1;stroke:none;stroke-width:1.48627;stroke-linecap:square"
           d="m -89.286023,26.097115 a 3.663646,3.9022088 0 0 1 3.663859,3.902087 3.663646,3.9022088 0 0 1 -3.663859,3.902088 3.663646,3.9022088 0 0 1 -3.550688,-2.950724 h 1.61954 a 2.1286776,2.2672889 0 0 0 1.931148,1.316198 2.1286776,2.2672889 0 0 0 2.129069,-2.267562 2.1286776,2.2672889 0 0 0 -2.129069,-2.267045 2.1286776,2.2672889 0 0 0 -2.128035,2.233456 h -1.53479 a 3.663646,3.9022088 0 0 1 3.662825,-3.868498 z"
           transform="scale(-1,1)" /><path
           id="path1047"
           style="fill:#67997a;fill-opacity:1;stroke:none;stroke-width:1.48627;stroke-linecap:square"
           d="m 87.588969,31.366044 -0.0016,5.17e-4 -1.332736,0.824756 a 3.6636459,3.9022088 0 0 0 3.03134,1.71049 3.6636459,3.9022088 0 0 0 0.920874,-0.125574 3.6636459,3.9022088 0 0 1 5.17e-4,-5.17e-4 l -0.213424,-1.638143 -5.17e-4,-0.0016 a 2.1286776,2.2672889 0 0 1 -0.70745,0.130741 2.1286776,2.2672889 0 0 1 -1.697054,-0.90072 z" /><path
           id="path1049"
           style="fill:#93ac9d;fill-opacity:1;stroke:none;stroke-width:1.48627;stroke-linecap:square"
           d="m 91.282284,29.213721 a 2.1286776,2.2672889 0 0 1 0.131774,0.751892 h 1.534274 a 3.6636459,3.9022088 0 0 0 -0.0739,-0.751892 z m -0.06511,1.736845 a 2.1286776,2.2672889 0 0 1 -1.223698,1.185457 l 5.17e-4,0.0016 0.212907,1.63866 a 3.6636459,3.9022088 0 0 0 2.63033,-2.825667 z" /><path
           id="path1051"
           style="fill:#4c736b;fill-opacity:1;stroke:none;stroke-width:1.48627;stroke-linecap:square"
           d="m 89.286023,26.097115 a 3.6636459,3.9022088 0 0 0 -0.825273,0.100252 v 1.713591 a 2.1286776,2.2672889 0 0 1 0.825273,-0.178801 2.1286776,2.2672889 0 0 1 1.996261,1.481564 h 1.59215 a 3.6636459,3.9022088 0 0 0 -3.588411,-3.116606 z" /><path
           style="fill:#93ac9d;fill-opacity:1;stroke:none;stroke-width:0.147906px;stroke-linecap:butt;stroke-linejoin:miter;stroke-opacity:1"
           d="m 89.993879,32.137489 -0.821663,-0.06274 0.18259,1.431768 0.852622,0.269513 0.233823,-1.093029 z"
           id="path1057"
           sodipodi:nodetypes="cccccc" /><path
           style="fill:#67997a;fill-opacity:1;stroke:none;stroke-width:0.147906px;stroke-linecap:butt;stroke-linejoin:miter;stroke-opacity:1"
           d="m 87.587887,31.366758 -0.630723,-0.352356 -1.358446,0.586352 0.656028,0.590425 z"
           id="path1059"
           sodipodi:nodetypes="ccccc" /><path
           style="fill:#334c3d;fill-opacity:1;stroke:none;stroke-width:0.147906px;stroke-linecap:butt;stroke-linejoin:miter;stroke-opacity:1"
           d="m 88.460606,26.197373 0.975687,0.41591 -0.179743,1.435456 -0.795902,-0.139397 z"
           id="path1061"
           sodipodi:nodetypes="ccccc" /><path
           style="fill:#4c736b;fill-opacity:1;stroke:none;stroke-width:0.147906px;stroke-linecap:butt;stroke-linejoin:miter;stroke-opacity:1"
           d="m 92.865786,29.170027 0.364779,1.230534 -1.628033,-0.169695 -0.321752,-1.022494 0.533875,-0.579024 z"
           id="path1055"
           sodipodi:nodetypes="cccccc" /><path
           id="rect1150"
           style="fill:#67997a;fill-opacity:1;stroke:none;stroke-width:1.02648;stroke-linecap:square"
           d="m 87.394255,28.977018 h 3.622326 l 0.519919,-0.157493 0.236241,1.236184 -0.523671,-0.08999 h -3.854815 z"
           sodipodi:nodetypes="ccccccc" /><path
           style="fill:#93ac9d;fill-opacity:1;stroke:none;stroke-width:0.147906px;stroke-linecap:butt;stroke-linejoin:miter;stroke-opacity:1"
           d="m 88.114219,29.965715 h 1.204917 l 0.663051,0.177664 v -0.92987 L 89.53662,28.977018 h -1.099918 -0.464971 z"
           id="path1173"
           sodipodi:nodetypes="cccccccc" /><path
           style="fill:#334c3d;fill-opacity:1;stroke:none;stroke-width:0.147906px;stroke-linecap:butt;stroke-linejoin:miter;stroke-opacity:1"
           d="m 87.166381,30.210457 0.227878,-0.244742 h 0.71996 l 0.322483,-0.237569 v -0.974952 l -0.277481,0.223824 -0.773403,-5.8e-5 -0.336546,-0.36626 -0.0825,1.709917 z"
           id="path1169" /></g></g><circle
       style="fill:#999999;fill-opacity:1;stroke:none;stroke-width:1.05833;stroke-linecap:round;stroke-linejoin:round;stroke-miterlimit:4.7;stroke-dasharray:none"
       id="circle7"
       cx="79.3965"
       cy="65.160789"
       r="1.3559896" /></g></svg>
