<?xml version="1.0" encoding="UTF-8" standalone="no"?>
<!-- Created with Inkscape (http://www.inkscape.org/) -->

<svg
   width="38.34008mm"
   height="18.307375mm"
   viewBox="0 0 38.34008 18.307375"
   version="1.1"
   id="svg1"
   inkscape:version="1.3 (0e150ed6c4, 2023-07-21)"
   sodipodi:docname="Portfolio_workPreviewElement_Roe.svg"
   xmlns:inkscape="http://www.inkscape.org/namespaces/inkscape"
   xmlns:sodipodi="http://sodipodi.sourceforge.net/DTD/sodipodi-0.dtd"
   xmlns="http://www.w3.org/2000/svg"
   xmlns:svg="http://www.w3.org/2000/svg">
  <sodipodi:namedview
     id="namedview1"
     pagecolor="#505050"
     bordercolor="#eeeeee"
     borderopacity="1"
     inkscape:showpageshadow="0"
     inkscape:pageopacity="0"
     inkscape:pagecheckerboard="0"
     inkscape:deskcolor="#494949"
     inkscape:document-units="mm"
     showborder="false"
     inkscape:zoom="1.4142136"
     inkscape:cx="252.43712"
     inkscape:cy="54.800775"
     inkscape:window-width="1920"
     inkscape:window-height="1009"
     inkscape:window-x="-8"
     inkscape:window-y="-8"
     inkscape:window-maximized="1"
     inkscape:current-layer="layer1" />
  <defs
     id="defs1">
    <inkscape:path-effect
       effect="spiro"
       id="path-effect12"
       is_visible="true"
       lpeversion="1" />
    <inkscape:path-effect
       effect="spiro"
       id="path-effect11"
       is_visible="true"
       lpeversion="1" />
  </defs>
  <g
     inkscape:label="Слой 1"
     inkscape:groupmode="layer"
     id="layer1"
     transform="translate(-21.801536,-23.796994)">
    <g
       id="g80"
       transform="translate(10.196109)"
       style="fill:#536583;fill-opacity:1">
      <path
         id="path78"
         style="fill:#536583;fill-opacity:1;stroke:none;stroke-width:1.98438;stroke-linecap:round;stroke-linejoin:round;stroke-miterlimit:4.7"
         d="m 42.634388,23.796994 v 0.0925 c -0.881642,6.2e-5 -1.657547,0.45149 -2.110465,1.135331 a 2.5820021,2.5820021 0 0 0 -0.08372,0.135909 c -0.0133,0.02313 -0.0267,0.04618 -0.03927,0.06976 a 2.5820021,2.5820021 0 0 0 -0.276986,1.148251 v 4.067452 a 2.5820021,2.5820021 0 0 1 0,5.17e-4 2.5820021,2.5820021 0 0 0 0.275952,1.145149 c 0.01382,0.02598 0.0282,0.05157 0.04289,0.077 a 2.5820021,2.5820021 0 0 0 0.09302,0.150895 l 5.17e-4,5.17e-4 c 0.454677,0.672985 1.224763,1.115632 2.098063,1.115694 v 0.0925 h -2.955892 -0.05168 c -0.564006,-4e-5 -1.084631,-0.199686 -1.505335,-0.529683 6.33e-4,-4.3e-4 0.0014,-6.03e-4 0.0021,-0.001 a 2.5820021,2.5820021 0 0 1 -0.30334,-0.275952 c -0.03783,-0.04052 -0.07424,-0.08221 -0.109554,-0.125057 a 2.5820021,2.5820021 0 0 1 -0.134876,-0.1788 c -0.06159,-0.08878 -0.118724,-0.181042 -0.169498,-0.276986 a 2.5820021,2.5820021 0 0 1 -0.04392,-0.08785 c -0.0053,-0.0109 -0.01089,-0.02158 -0.01602,-0.03256 -0.043,-0.09205 -0.0802,-0.187266 -0.112655,-0.284221 a 2.5820021,2.5820021 0 0 1 -0.06408,-0.221691 c -0.01337,-0.05562 -0.02486,-0.111764 -0.03462,-0.168466 a 2.5820021,2.5820021 0 0 1 -0.03721,-0.386023 c -3.83e-4,-0.01813 -10e-4,-0.03607 -10e-4,-0.05426 V 26.4196 c 10e-7,-0.01819 6.5e-4,-0.03613 10e-4,-0.05426 a 2.5820021,2.5820021 0 0 1 0.03721,-0.385505 c 0.0099,-0.05774 0.02147,-0.11495 0.03514,-0.171566 a 2.5820021,2.5820021 0 0 1 0.06201,-0.215491 c 0.04253,-0.127652 0.09444,-0.251582 0.155029,-0.37052 a 2.5820021,2.5820021 0 0 1 0.01499,-0.02997 c 5.36e-4,-0.001 10e-4,-0.0021 0.0016,-0.0031 0.05246,-0.09961 0.111607,-0.195416 0.1757,-0.287321 a 2.5820021,2.5820021 0 0 1 0.126607,-0.167431 c 0.03752,-0.04579 0.07641,-0.09019 0.116789,-0.133326 a 2.5820021,2.5820021 0 0 1 0.301273,-0.273885 c -5.12e-4,-3.48e-4 -10e-4,-6.85e-4 -0.0015,-10e-4 0.420547,-0.329579 0.940695,-0.529127 1.504301,-0.529167 z" />
      <path
         id="path79"
         style="fill:#536583;fill-opacity:1;stroke:none;stroke-width:1.98438;stroke-linecap:round;stroke-linejoin:round;stroke-miterlimit:4.7"
         d="m 42.634775,23.796997 v 0.0925 c 0.88164,6.2e-5 1.657548,0.451492 2.110465,1.135331 a 2.5820021,2.5820021 0 0 1 0.08372,0.135909 c 0.0133,0.02313 0.0267,0.04618 0.03927,0.06976 a 2.5820021,2.5820021 0 0 1 0.276986,1.148251 v 0.173632 0.415479 h 3.027205 V 26.55238 26.419572 c -10e-7,-0.01819 -7.17e-4,-0.03613 -10e-4,-0.05426 a 2.5820021,2.5820021 0 0 0 -0.03721,-0.385506 c -0.0099,-0.05774 -0.02147,-0.11495 -0.03514,-0.171566 a 2.5820021,2.5820021 0 0 0 -0.06201,-0.215491 c -0.04253,-0.127652 -0.09444,-0.251582 -0.155029,-0.37052 a 2.5820021,2.5820021 0 0 0 -0.01499,-0.02997 c -5.36e-4,-0.001 -0.0014,-0.0021 -0.0021,-0.0031 -0.05246,-0.09961 -0.111607,-0.195416 -0.1757,-0.287321 a 2.5820021,2.5820021 0 0 0 -0.126091,-0.167431 c -0.03752,-0.04579 -0.07641,-0.09019 -0.116789,-0.133326 a 2.5820021,2.5820021 0 0 0 -0.301273,-0.273885 c 5.12e-4,-3.48e-4 5.1e-5,-7.51e-4 5.17e-4,-0.001 -0.420547,-0.329579 -0.940697,-0.529127 -1.504301,-0.529167 z m 2.509924,6.060095 v 0.415479 h 5.17e-4 v 0.173633 a 2.5820021,2.5820021 0 0 0 0,5.16e-4 2.5820021,2.5820021 0 0 1 -0.275952,1.14515 c -0.01382,0.02598 -0.0282,0.05157 -0.04289,0.077 a 2.5820021,2.5820021 0 0 1 -0.09302,0.150895 l -5.17e-4,5.17e-4 c -0.454676,0.672983 -1.224765,1.115632 -2.098063,1.115694 v 0.0925 h 2.955892 0.05168 c 0.564005,-4e-5 1.084631,-0.199688 1.505335,-0.529683 -6.33e-4,-4.3e-4 -0.0019,-6.71e-4 -0.0026,-10e-4 a 2.5820021,2.5820021 0 0 0 0.30334,-0.275952 c 0.03783,-0.04052 0.07424,-0.08221 0.109554,-0.125057 a 2.5820021,2.5820021 0 0 0 0.134876,-0.178801 c 0.06159,-0.08878 0.118725,-0.181041 0.169499,-0.276985 a 2.5820021,2.5820021 0 0 0 0.04393,-0.08785 c 0.0053,-0.0109 0.01089,-0.02158 0.01602,-0.03256 0.043,-0.09205 0.0802,-0.187266 0.112655,-0.284221 a 2.5820021,2.5820021 0 0 0 0.06408,-0.221692 c 0.01337,-0.05562 0.02486,-0.111763 0.03462,-0.168465 a 2.5820021,2.5820021 0 0 0 0.03721,-0.386023 c 3.83e-4,-0.01813 10e-4,-0.03607 10e-4,-0.05426 v -0.133325 -0.415479 z" />
      <path
         id="path80"
         style="fill:#536583;fill-opacity:1;stroke:none;stroke-width:1.98438;stroke-linecap:round;stroke-linejoin:round;stroke-miterlimit:4.7"
         d="m 38.869896,25.466146 v 5.89318 h 1.427303 A 2.51017,2.464035 0 0 1 40.1246,30.472042 2.51017,2.464035 0 0 1 41.259414,28.412736 2.51017,2.464035 0 0 1 40.1246,26.35343 2.51017,2.464035 0 0 1 40.297199,25.466146 Z" />
    </g>
    <g
       id="g83"
       transform="translate(11.969196)"
       style="fill:#8e9eb8;fill-opacity:1">
      <path
         id="path81"
         style="fill:#8e9eb8;fill-opacity:1;stroke:none;stroke-width:1.98438;stroke-linecap:round;stroke-linejoin:round;stroke-miterlimit:4.7"
         d="m 42.634388,23.796994 v 0.0925 c -0.881642,6.2e-5 -1.657547,0.45149 -2.110465,1.135331 a 2.5820021,2.5820021 0 0 0 -0.08372,0.135909 c -0.0133,0.02313 -0.0267,0.04618 -0.03927,0.06976 a 2.5820021,2.5820021 0 0 0 -0.276986,1.148251 v 4.067452 a 2.5820021,2.5820021 0 0 1 0,5.17e-4 2.5820021,2.5820021 0 0 0 0.275952,1.145149 c 0.01382,0.02598 0.0282,0.05157 0.04289,0.077 a 2.5820021,2.5820021 0 0 0 0.09302,0.150895 l 5.17e-4,5.17e-4 c 0.454677,0.672985 1.224763,1.115632 2.098063,1.115694 v 0.0925 h -2.955892 -0.05168 c -0.564006,-4e-5 -1.084631,-0.199686 -1.505335,-0.529683 6.33e-4,-4.3e-4 0.0014,-6.03e-4 0.0021,-0.001 a 2.5820021,2.5820021 0 0 1 -0.30334,-0.275952 c -0.03783,-0.04052 -0.07424,-0.08221 -0.109554,-0.125057 a 2.5820021,2.5820021 0 0 1 -0.134876,-0.1788 c -0.06159,-0.08878 -0.118724,-0.181042 -0.169498,-0.276986 a 2.5820021,2.5820021 0 0 1 -0.04392,-0.08785 c -0.0053,-0.0109 -0.01089,-0.02158 -0.01602,-0.03256 -0.043,-0.09205 -0.0802,-0.187266 -0.112655,-0.284221 a 2.5820021,2.5820021 0 0 1 -0.06408,-0.221691 c -0.01337,-0.05562 -0.02486,-0.111764 -0.03462,-0.168466 a 2.5820021,2.5820021 0 0 1 -0.03721,-0.386023 c -3.83e-4,-0.01813 -10e-4,-0.03607 -10e-4,-0.05426 V 26.4196 c 10e-7,-0.01819 6.5e-4,-0.03613 10e-4,-0.05426 a 2.5820021,2.5820021 0 0 1 0.03721,-0.385505 c 0.0099,-0.05774 0.02147,-0.11495 0.03514,-0.171566 a 2.5820021,2.5820021 0 0 1 0.06201,-0.215491 c 0.04253,-0.127652 0.09444,-0.251582 0.155029,-0.37052 a 2.5820021,2.5820021 0 0 1 0.01499,-0.02997 c 5.36e-4,-0.001 10e-4,-0.0021 0.0016,-0.0031 0.05246,-0.09961 0.111607,-0.195416 0.1757,-0.287321 a 2.5820021,2.5820021 0 0 1 0.126607,-0.167431 c 0.03752,-0.04579 0.07641,-0.09019 0.116789,-0.133326 a 2.5820021,2.5820021 0 0 1 0.301273,-0.273885 c -5.12e-4,-3.48e-4 -10e-4,-6.85e-4 -0.0015,-10e-4 0.420547,-0.329579 0.940695,-0.529127 1.504301,-0.529167 z" />
      <path
         id="path82"
         style="fill:#8e9eb8;fill-opacity:1;stroke:none;stroke-width:1.98438;stroke-linecap:round;stroke-linejoin:round;stroke-miterlimit:4.7"
         d="m 42.634775,23.796997 v 0.0925 c 0.88164,6.2e-5 1.657548,0.451492 2.110465,1.135331 a 2.5820021,2.5820021 0 0 1 0.08372,0.135909 c 0.0133,0.02313 0.0267,0.04618 0.03927,0.06976 a 2.5820021,2.5820021 0 0 1 0.276986,1.148251 v 0.173632 0.415479 h 3.027205 V 26.55238 26.419572 c -10e-7,-0.01819 -7.17e-4,-0.03613 -10e-4,-0.05426 a 2.5820021,2.5820021 0 0 0 -0.03721,-0.385506 c -0.0099,-0.05774 -0.02147,-0.11495 -0.03514,-0.171566 a 2.5820021,2.5820021 0 0 0 -0.06201,-0.215491 c -0.04253,-0.127652 -0.09444,-0.251582 -0.155029,-0.37052 a 2.5820021,2.5820021 0 0 0 -0.01499,-0.02997 c -5.36e-4,-0.001 -0.0014,-0.0021 -0.0021,-0.0031 -0.05246,-0.09961 -0.111607,-0.195416 -0.1757,-0.287321 a 2.5820021,2.5820021 0 0 0 -0.126091,-0.167431 c -0.03752,-0.04579 -0.07641,-0.09019 -0.116789,-0.133326 a 2.5820021,2.5820021 0 0 0 -0.301273,-0.273885 c 5.12e-4,-3.48e-4 5.1e-5,-7.51e-4 5.17e-4,-0.001 -0.420547,-0.329579 -0.940697,-0.529127 -1.504301,-0.529167 z m 2.509924,6.060095 v 0.415479 h 5.17e-4 v 0.173633 a 2.5820021,2.5820021 0 0 0 0,5.16e-4 2.5820021,2.5820021 0 0 1 -0.275952,1.14515 c -0.01382,0.02598 -0.0282,0.05157 -0.04289,0.077 a 2.5820021,2.5820021 0 0 1 -0.09302,0.150895 l -5.17e-4,5.17e-4 c -0.454676,0.672983 -1.224765,1.115632 -2.098063,1.115694 v 0.0925 h 2.955892 0.05168 c 0.564005,-4e-5 1.084631,-0.199688 1.505335,-0.529683 -6.33e-4,-4.3e-4 -0.0019,-6.71e-4 -0.0026,-10e-4 a 2.5820021,2.5820021 0 0 0 0.30334,-0.275952 c 0.03783,-0.04052 0.07424,-0.08221 0.109554,-0.125057 a 2.5820021,2.5820021 0 0 0 0.134876,-0.178801 c 0.06159,-0.08878 0.118725,-0.181041 0.169499,-0.276985 a 2.5820021,2.5820021 0 0 0 0.04393,-0.08785 c 0.0053,-0.0109 0.01089,-0.02158 0.01602,-0.03256 0.043,-0.09205 0.0802,-0.187266 0.112655,-0.284221 a 2.5820021,2.5820021 0 0 0 0.06408,-0.221692 c 0.01337,-0.05562 0.02486,-0.111763 0.03462,-0.168465 a 2.5820021,2.5820021 0 0 0 0.03721,-0.386023 c 3.83e-4,-0.01813 10e-4,-0.03607 10e-4,-0.05426 v -0.133325 -0.415479 z" />
      <path
         id="path83"
         style="fill:#8e9eb8;fill-opacity:1;stroke:none;stroke-width:1.98438;stroke-linecap:round;stroke-linejoin:round;stroke-miterlimit:4.7"
         d="m 38.869896,25.466146 v 5.89318 h 1.427303 A 2.51017,2.464035 0 0 1 40.1246,30.472042 2.51017,2.464035 0 0 1 41.259414,28.412736 2.51017,2.464035 0 0 1 40.1246,26.35343 2.51017,2.464035 0 0 1 40.297199,25.466146 Z" />
    </g>
    <rect
       style="fill:#f9f9f9;fill-opacity:1;stroke:none;stroke-width:1.98438;stroke-linecap:round;stroke-linejoin:round;stroke-miterlimit:4.7"
       id="rect54"
       width="45.807217"
       height="28.875523"
       x="17.499725"
       y="57.93177" />
    <path
       id="path9"
       style="fill:#ffffff;fill-opacity:1;stroke:none;stroke-width:1.98438;stroke-linecap:round;stroke-linejoin:round;stroke-miterlimit:4.7"
       d="m 106.63691,30.081884 v -0.0925 c -0.88165,-6.2e-5 -1.65755,-0.451489 -2.11047,-1.135331 a 2.5820021,2.5820021 0 0 1 -0.0837,-0.13591 c -0.0133,-0.02313 -0.0267,-0.04618 -0.0393,-0.06976 a 2.5820021,2.5820021 0 0 1 -0.27698,-1.148251 v -4.067453 a 2.5820021,2.5820021 0 0 0 0,-5.17e-4 2.5820021,2.5820021 0 0 1 0.27595,-1.145148 c 0.0138,-0.02598 0.0282,-0.05157 0.0429,-0.077 a 2.5820021,2.5820021 0 0 1 0.093,-0.150895 c 1.3e-4,-1.97e-4 3.8e-4,-3.19e-4 5.1e-4,-5.16e-4 0.45468,-0.672987 1.22477,-1.115633 2.09807,-1.115695 v -0.0925 h -2.95589 -2.97708 v 0.0925 c 0.52743,3.8e-5 1.01678,0.16211 1.42213,0.438217 a 2.5820021,2.5820021 0 0 0 -1.02681,2.051037 2.5820021,2.5820021 0 0 0 0,5.16e-4 v 4.06745 a 2.5820021,2.5820021 0 0 0 1.02735,2.051555 c -0.40541,0.276242 -0.89508,0.437662 -1.42265,0.437699 v 0.0925 z" />
    <path
       id="circle12"
       style="fill:#ffd5d5;fill-opacity:1;stroke:none;stroke-width:1.98438;stroke-linecap:round;stroke-linejoin:round;stroke-miterlimit:4.7"
       d="m 109.7926,20.942908 a 2.5302348,2.5302348 0 0 0 -2.53059,2.530078 2.5302348,2.5302348 0 0 0 0.98133,1.99316 2.5302348,2.5302348 0 0 0 -0.98133,1.992643 2.5302348,2.5302348 0 0 0 2.53059,2.530595 2.5302348,2.5302348 0 0 0 2.53008,-2.530078 2.5302348,2.5302348 0 0 0 0,-5.17e-4 v -3.985803 a 2.5302348,2.5302348 0 0 0 -2.53008,-2.530078 z" />
    <g
       id="g85"
       transform="translate(9.7879501,0.00187554)"
       style="fill:#536583;fill-opacity:1">
      <path
         id="path84"
         style="fill:#536583;fill-opacity:1;stroke:none;stroke-width:1.98438;stroke-linecap:round;stroke-linejoin:round;stroke-miterlimit:4.7"
         d="m 31.56123,23.796994 v 0.0925 c -0.881642,6.2e-5 -1.657547,0.45149 -2.110465,1.135331 a 2.5820021,2.5820021 0 0 0 -0.08372,0.135909 c -0.0133,0.02313 -0.0267,0.04618 -0.03927,0.06976 a 2.5820021,2.5820021 0 0 0 -0.276986,1.148251 v 4.067452 a 2.5820021,2.5820021 0 0 1 0,5.17e-4 2.5820021,2.5820021 0 0 0 0.275952,1.145149 c 0.01382,0.02598 0.0282,0.05157 0.04289,0.077 a 2.5820021,2.5820021 0 0 0 0.09302,0.150895 l 5.17e-4,5.17e-4 c 0.454677,0.672985 1.224763,1.115632 2.098063,1.115694 v 0.0925 h -2.955892 -0.05168 c -0.564006,-4e-5 -1.084631,-0.199686 -1.505335,-0.529683 6.33e-4,-4.3e-4 0.0014,-6.03e-4 0.0021,-0.001 a 2.5820021,2.5820021 0 0 1 -0.30334,-0.275952 c -0.03783,-0.04052 -0.07424,-0.08221 -0.109554,-0.125057 a 2.5820021,2.5820021 0 0 1 -0.134876,-0.1788 c -0.06159,-0.08878 -0.118724,-0.181042 -0.169498,-0.276986 a 2.5820021,2.5820021 0 0 1 -0.04392,-0.08785 c -0.0053,-0.0109 -0.01089,-0.02158 -0.01602,-0.03256 -0.043,-0.09205 -0.0802,-0.187266 -0.112655,-0.284221 a 2.5820021,2.5820021 0 0 1 -0.06408,-0.221691 c -0.01337,-0.05562 -0.02486,-0.111764 -0.03462,-0.168466 a 2.5820021,2.5820021 0 0 1 -0.03721,-0.386023 c -3.83e-4,-0.01813 -10e-4,-0.03607 -10e-4,-0.05426 V 26.4196 c 10e-7,-0.01819 6.5e-4,-0.03613 10e-4,-0.05426 a 2.5820021,2.5820021 0 0 1 0.03721,-0.385505 c 0.0099,-0.05774 0.02147,-0.11495 0.03514,-0.171566 a 2.5820021,2.5820021 0 0 1 0.06201,-0.215491 c 0.04253,-0.127652 0.09444,-0.251582 0.155029,-0.37052 a 2.5820021,2.5820021 0 0 1 0.01499,-0.02997 c 5.36e-4,-0.001 0.001,-0.0021 0.0016,-0.0031 0.05246,-0.09961 0.111607,-0.195416 0.1757,-0.287321 a 2.5820021,2.5820021 0 0 1 0.126607,-0.167431 c 0.03752,-0.04579 0.07641,-0.09019 0.116789,-0.133326 a 2.5820021,2.5820021 0 0 1 0.301273,-0.273885 c -5.12e-4,-3.48e-4 -0.001,-6.85e-4 -0.0015,-10e-4 0.420547,-0.329579 0.940695,-0.529127 1.504301,-0.529167 z" />
      <path
         id="path85"
         style="fill:#536583;fill-opacity:1;stroke:none;stroke-width:1.98438;stroke-linecap:round;stroke-linejoin:round;stroke-miterlimit:4.7"
         d="m 31.56123,23.796994 v 0.0925 c 0.881642,6.2e-5 1.657547,0.45149 2.110465,1.135331 a 2.5820021,2.5820021 0 0 1 0.08372,0.135909 c 0.0133,0.02313 0.0267,0.04618 0.03927,0.06976 a 2.5820021,2.5820021 0 0 1 0.276986,1.148251 v 4.067452 a 2.5820021,2.5820021 0 0 0 0,5.17e-4 2.5820021,2.5820021 0 0 1 -0.275952,1.145149 c -0.01382,0.02598 -0.0282,0.05157 -0.04289,0.077 a 2.5820021,2.5820021 0 0 1 -0.09302,0.150895 l -5.17e-4,5.17e-4 c -0.454677,0.672985 -1.224763,1.115632 -2.098063,1.115694 v 0.0925 h 2.955892 0.05168 c 0.564006,-4e-5 1.084631,-0.199686 1.505335,-0.529683 -6.33e-4,-4.3e-4 -0.0014,-6.03e-4 -0.0021,-0.001 a 2.5820021,2.5820021 0 0 0 0.30334,-0.275952 c 0.03783,-0.04052 0.07424,-0.08221 0.109554,-0.125057 a 2.5820021,2.5820021 0 0 0 0.134876,-0.1788 c 0.06159,-0.08878 0.118724,-0.181042 0.169498,-0.276986 a 2.5820021,2.5820021 0 0 0 0.04392,-0.08785 c 0.0053,-0.0109 0.01089,-0.02158 0.01602,-0.03256 0.043,-0.09205 0.0802,-0.187266 0.112655,-0.284221 a 2.5820021,2.5820021 0 0 0 0.06408,-0.221691 c 0.01337,-0.05562 0.02486,-0.111764 0.03462,-0.168466 a 2.5820021,2.5820021 0 0 0 0.03721,-0.386023 c 3.83e-4,-0.01813 0.001,-0.03607 0.001,-0.05426 V 26.4196 c -1e-6,-0.01819 -6.5e-4,-0.03613 -0.001,-0.05426 a 2.5820021,2.5820021 0 0 0 -0.03721,-0.385505 c -0.0099,-0.05774 -0.02147,-0.11495 -0.03514,-0.171566 a 2.5820021,2.5820021 0 0 0 -0.06201,-0.215491 c -0.04253,-0.127652 -0.09444,-0.251582 -0.155029,-0.37052 a 2.5820021,2.5820021 0 0 0 -0.01499,-0.02997 c -5.36e-4,-0.001 -10e-4,-0.0021 -0.0016,-0.0031 -0.05246,-0.09961 -0.111607,-0.195416 -0.1757,-0.287321 a 2.5820021,2.5820021 0 0 0 -0.126607,-0.167431 c -0.03752,-0.04579 -0.07641,-0.09019 -0.116789,-0.133326 a 2.5820021,2.5820021 0 0 0 -0.301273,-0.273885 c 5.12e-4,-3.48e-4 10e-4,-6.85e-4 0.0015,-10e-4 -0.420547,-0.329579 -0.940695,-0.529127 -1.504301,-0.529167 z" />
    </g>
    <g
       id="g87"
       transform="translate(11.158819,9.2980919e-4)"
       style="fill:#8e9eb8;fill-opacity:1">
      <path
         id="path86"
         style="fill:#8e9eb8;fill-opacity:1;stroke:none;stroke-width:1.98438;stroke-linecap:round;stroke-linejoin:round;stroke-miterlimit:4.7"
         d="m 31.56123,23.796994 v 0.0925 c -0.881642,6.2e-5 -1.657547,0.45149 -2.110465,1.135331 a 2.5820021,2.5820021 0 0 0 -0.08372,0.135909 c -0.0133,0.02313 -0.0267,0.04618 -0.03927,0.06976 a 2.5820021,2.5820021 0 0 0 -0.276986,1.148251 v 4.067452 a 2.5820021,2.5820021 0 0 1 0,5.17e-4 2.5820021,2.5820021 0 0 0 0.275952,1.145149 c 0.01382,0.02598 0.0282,0.05157 0.04289,0.077 a 2.5820021,2.5820021 0 0 0 0.09302,0.150895 l 5.17e-4,5.17e-4 c 0.454677,0.672985 1.224763,1.115632 2.098063,1.115694 v 0.0925 h -2.955892 -0.05168 c -0.564006,-4e-5 -1.084631,-0.199686 -1.505335,-0.529683 6.33e-4,-4.3e-4 0.0014,-6.03e-4 0.0021,-0.001 a 2.5820021,2.5820021 0 0 1 -0.30334,-0.275952 c -0.03783,-0.04052 -0.07424,-0.08221 -0.109554,-0.125057 a 2.5820021,2.5820021 0 0 1 -0.134876,-0.1788 c -0.06159,-0.08878 -0.118724,-0.181042 -0.169498,-0.276986 a 2.5820021,2.5820021 0 0 1 -0.04392,-0.08785 c -0.0053,-0.0109 -0.01089,-0.02158 -0.01602,-0.03256 -0.043,-0.09205 -0.0802,-0.187266 -0.112655,-0.284221 a 2.5820021,2.5820021 0 0 1 -0.06408,-0.221691 c -0.01337,-0.05562 -0.02486,-0.111764 -0.03462,-0.168466 a 2.5820021,2.5820021 0 0 1 -0.03721,-0.386023 c -3.83e-4,-0.01813 -10e-4,-0.03607 -10e-4,-0.05426 V 26.4196 c 10e-7,-0.01819 6.5e-4,-0.03613 10e-4,-0.05426 a 2.5820021,2.5820021 0 0 1 0.03721,-0.385505 c 0.0099,-0.05774 0.02147,-0.11495 0.03514,-0.171566 a 2.5820021,2.5820021 0 0 1 0.06201,-0.215491 c 0.04253,-0.127652 0.09444,-0.251582 0.155029,-0.37052 a 2.5820021,2.5820021 0 0 1 0.01499,-0.02997 c 5.36e-4,-0.001 0.001,-0.0021 0.0016,-0.0031 0.05246,-0.09961 0.111607,-0.195416 0.1757,-0.287321 a 2.5820021,2.5820021 0 0 1 0.126607,-0.167431 c 0.03752,-0.04579 0.07641,-0.09019 0.116789,-0.133326 a 2.5820021,2.5820021 0 0 1 0.301273,-0.273885 c -5.12e-4,-3.48e-4 -0.001,-6.85e-4 -0.0015,-10e-4 0.420547,-0.329579 0.940695,-0.529127 1.504301,-0.529167 z" />
      <path
         id="path87"
         style="fill:#8e9eb8;fill-opacity:1;stroke:none;stroke-width:1.98438;stroke-linecap:round;stroke-linejoin:round;stroke-miterlimit:4.7"
         d="m 31.56123,23.796994 v 0.0925 c 0.881642,6.2e-5 1.657547,0.45149 2.110465,1.135331 a 2.5820021,2.5820021 0 0 1 0.08372,0.135909 c 0.0133,0.02313 0.0267,0.04618 0.03927,0.06976 a 2.5820021,2.5820021 0 0 1 0.276986,1.148251 v 4.067452 a 2.5820021,2.5820021 0 0 0 0,5.17e-4 2.5820021,2.5820021 0 0 1 -0.275952,1.145149 c -0.01382,0.02598 -0.0282,0.05157 -0.04289,0.077 a 2.5820021,2.5820021 0 0 1 -0.09302,0.150895 l -5.17e-4,5.17e-4 c -0.454677,0.672985 -1.224763,1.115632 -2.098063,1.115694 v 0.0925 h 2.955892 0.05168 c 0.564006,-4e-5 1.084631,-0.199686 1.505335,-0.529683 -6.33e-4,-4.3e-4 -0.0014,-6.03e-4 -0.0021,-0.001 a 2.5820021,2.5820021 0 0 0 0.30334,-0.275952 c 0.03783,-0.04052 0.07424,-0.08221 0.109554,-0.125057 a 2.5820021,2.5820021 0 0 0 0.134876,-0.1788 c 0.06159,-0.08878 0.118724,-0.181042 0.169498,-0.276986 a 2.5820021,2.5820021 0 0 0 0.04392,-0.08785 c 0.0053,-0.0109 0.01089,-0.02158 0.01602,-0.03256 0.043,-0.09205 0.0802,-0.187266 0.112655,-0.284221 a 2.5820021,2.5820021 0 0 0 0.06408,-0.221691 c 0.01337,-0.05562 0.02486,-0.111764 0.03462,-0.168466 a 2.5820021,2.5820021 0 0 0 0.03721,-0.386023 c 3.83e-4,-0.01813 0.001,-0.03607 0.001,-0.05426 V 26.4196 c -1e-6,-0.01819 -6.5e-4,-0.03613 -0.001,-0.05426 a 2.5820021,2.5820021 0 0 0 -0.03721,-0.385505 c -0.0099,-0.05774 -0.02147,-0.11495 -0.03514,-0.171566 a 2.5820021,2.5820021 0 0 0 -0.06201,-0.215491 c -0.04253,-0.127652 -0.09444,-0.251582 -0.155029,-0.37052 a 2.5820021,2.5820021 0 0 0 -0.01499,-0.02997 c -5.36e-4,-0.001 -10e-4,-0.0021 -0.0016,-0.0031 -0.05246,-0.09961 -0.111607,-0.195416 -0.1757,-0.287321 a 2.5820021,2.5820021 0 0 0 -0.126607,-0.167431 c -0.03752,-0.04579 -0.07641,-0.09019 -0.116789,-0.133326 a 2.5820021,2.5820021 0 0 0 -0.301273,-0.273885 c 5.12e-4,-3.48e-4 10e-4,-6.85e-4 0.0015,-10e-4 -0.420547,-0.329579 -0.940695,-0.529127 -1.504301,-0.529167 z" />
    </g>
    <g
       id="g49"
       transform="translate(-46.084095,23.208854)"
       style="fill:#000000">
      <path
         style="fill:#000000;fill-opacity:1;stroke:none;stroke-width:0.264584px;stroke-linecap:butt;stroke-linejoin:miter;stroke-opacity:1"
         d="m 80.768736,39.939841 h 2.317895 v 0.358349 h -2.317895 z"
         id="path23"
         sodipodi:nodetypes="ccccc" />
      <path
         style="fill:#000000;fill-opacity:1;stroke:none;stroke-width:0.264584px;stroke-linecap:butt;stroke-linejoin:miter;stroke-opacity:1"
         d="m 80.768581,48.986716 h 2.317893 v 0.26647 l -2.317893,0.09188 z"
         id="path21"
         sodipodi:nodetypes="ccccc" />
      <path
         style="fill:#000000;fill-opacity:1;stroke:none;stroke-width:0.264584px;stroke-linecap:butt;stroke-linejoin:miter;stroke-opacity:1"
         d="m 83.086474,49.160676 h 2.791189 v 0.0054 l -2.791189,0.08715 z"
         id="path22"
         sodipodi:nodetypes="ccccc" />
      <rect
         style="fill:#000000;fill-opacity:1;stroke:none;stroke-width:1.98438;stroke-linecap:round;stroke-linejoin:round;stroke-miterlimit:4.7"
         id="rect31"
         width="0.8719967"
         height="13.210765"
         x="77.367813"
         y="42.56094" />
      <rect
         style="fill:#000000;stroke:none;stroke-width:1.98438;stroke-linecap:round;stroke-linejoin:round;stroke-miterlimit:4.7"
         id="rect8"
         width="0.8719967"
         height="4.8867283"
         x="85.615433"
         y="42.56094" />
      <path
         id="path32"
         style="fill:#000000;fill-opacity:1;stroke:none;stroke-width:1.98438;stroke-linecap:round;stroke-linejoin:round;stroke-miterlimit:4.7"
         d="m 74.839202,39.939841 v 0.09249 c 1.396472,9.8e-5 2.528514,1.132139 2.528613,2.528612 h 0.872308 c 1e-4,-1.396474 1.132141,-2.26265 2.528614,-2.26275 v -0.358349 z"
         sodipodi:nodetypes="ccccccc" />
      <path
         id="path33"
         style="fill:#000000;fill-opacity:1;stroke:none;stroke-width:1.98438;stroke-linecap:round;stroke-linejoin:round;stroke-miterlimit:4.7"
         d="m 74.839045,49.165892 v 0.09249 c 1.396473,9.9e-5 2.528513,1.13214 2.528612,2.528612 h 0.87231 c 9.9e-5,-1.396474 1.132139,-2.441826 2.528614,-2.441924 v -0.179174 z"
         sodipodi:nodetypes="ccccccc" />
      <path
         id="path34"
         style="fill:#000000;fill-opacity:1;stroke:none;stroke-width:1.98438;stroke-linecap:round;stroke-linejoin:round;stroke-miterlimit:4.7"
         d="m 74.839045,49.165892 v -0.09249 c 1.396473,-9.9e-5 2.528513,-1.13214 2.528612,-2.528612 h 0.87231 c 9.9e-5,1.396473 1.128008,2.441665 2.524481,2.441765 l 0.0041,0.179334 z"
         sodipodi:nodetypes="ccccccc" />
      <path
         id="path15"
         style="fill:#000000;fill-opacity:1;stroke:none;stroke-width:1.98438;stroke-linecap:round;stroke-linejoin:round;stroke-miterlimit:4.7"
         d="m 83.086632,39.939883 v 0.35831 c 0.881131,6.2e-5 1.656586,0.185365 2.109242,0.86881 0.02929,0.0444 0.05719,0.0897 0.08367,0.13583 0.01329,0.02312 0.02668,0.04615 0.03925,0.06972 0.179709,0.355999 0.274462,0.748805 0.276825,1.147585 v 4.065097 5.16e-4 c -0.0025,0.397649 -0.0969,0.789337 -0.275791,1.144486 -0.01381,0.02596 -0.02818,0.05154 -0.04286,0.07695 -0.02925,0.05132 -0.06025,0.101617 -0.09297,0.150808 l -5.16e-4,5.17e-4 c -0.454414,0.672595 -1.228186,1.028138 -2.10098,1.0282 l 0.0041,0.179294 h 2.95418 0.05165 c 0.56368,-4e-5 1.084003,-0.19957 1.504463,-0.529376 -6.33e-4,-4.3e-4 -0.0014,-6.03e-4 -0.0021,-10e-4 0.108208,-0.08375 0.209582,-0.175969 0.303165,-0.275792 0.03781,-0.04049 0.0742,-0.08217 0.10949,-0.124985 0.04749,-0.05758 0.09248,-0.117209 0.134798,-0.178696 0.06155,-0.08873 0.118655,-0.180937 0.1694,-0.276825 0.01519,-0.02898 0.02983,-0.05825 0.04391,-0.0878 0.0053,-0.0109 0.01088,-0.02157 0.01601,-0.03254 0.04297,-0.092 0.08016,-0.187158 0.11259,-0.284057 0.02463,-0.07287 0.046,-0.146791 0.06405,-0.221563 0.01336,-0.05558 0.02484,-0.111699 0.0346,-0.168367 0.02205,-0.127487 0.03448,-0.25645 0.03719,-0.3858 3.84e-4,-0.01812 0.001,-0.03605 0.001,-0.05423 v -3.984012 c -10e-7,-0.01818 -6.5e-4,-0.03611 -0.001,-0.05423 -0.0027,-0.129177 -0.01516,-0.257967 -0.03719,-0.385282 -0.0099,-0.05771 -0.02146,-0.114883 -0.03512,-0.171467 -0.01753,-0.07265 -0.03821,-0.144508 -0.06197,-0.215365 -0.0425,-0.127579 -0.0944,-0.251437 -0.15494,-0.370306 -0.0049,-0.01001 -0.0099,-0.02 -0.01498,-0.02996 -5.36e-4,-10e-4 -0.001,-0.0021 -0.0016,-0.0031 -0.05243,-0.09955 -0.111542,-0.195302 -0.175598,-0.287154 -0.03987,-0.05748 -0.08205,-0.113314 -0.126456,-0.167364 -0.0375,-0.04575 -0.07637,-0.09014 -0.116721,-0.133249 -0.09301,-0.09902 -0.193684,-0.190552 -0.301099,-0.273726 5.13e-4,-3.48e-4 0.001,-6.85e-4 0.0015,-10e-4 -0.420303,-0.329389 -0.94015,-0.528821 -1.50343,-0.528861 z"
         sodipodi:nodetypes="cccccccscccccccscccccccscccssccccccccccccccc" />
      <g
         id="g39"
         transform="matrix(0.99942071,0,0,0.99942071,61.322483,25.382802)"
         style="fill:#000000;stroke-width:1.00058">
        <rect
           style="fill:#000000;fill-opacity:1;stroke:none;stroke-width:1.98553;stroke-linecap:round;stroke-linejoin:round;stroke-miterlimit:4.7"
           id="rect35"
           width="0.87250215"
           height="13.218423"
           x="-16.054316"
           y="17.188097"
           transform="scale(-1,1)" />
        <path
           id="path36"
           style="fill:#000000;fill-opacity:1;stroke:none;stroke-width:1.98553;stroke-linecap:round;stroke-linejoin:round;stroke-miterlimit:4.7"
           d="m 12.651423,14.565477 v 0.09254 c 1.397282,9.9e-5 2.529979,1.132796 2.530078,2.530078 h 0.872815 c 9.9e-5,-1.397283 1.132796,-2.263962 2.530079,-2.264061 v -0.358557 z"
           sodipodi:nodetypes="ccccccc" />
        <path
           id="path50"
           style="fill:#000000;fill-opacity:1;stroke:none;stroke-width:1.98553;stroke-linecap:round;stroke-linejoin:round;stroke-miterlimit:4.7"
           d="m 12.651597,33.029136 v -0.09254 c 1.397282,-9.9e-5 2.529979,-1.132796 2.530078,-2.530078 h 0.872815 c 9.9e-5,1.397283 1.128662,2.443081 2.525945,2.44318 l 0.0041,0.179438 z"
           sodipodi:nodetypes="ccccccc" />
        <path
           id="path38"
           style="fill:#000000;fill-opacity:1;stroke:none;stroke-width:1.98553;stroke-linecap:round;stroke-linejoin:round;stroke-miterlimit:4.7"
           d="m 19.457317,33.029136 v -0.09254 c -1.397282,-9.9e-5 -2.529979,-1.132796 -2.530078,-2.530078 h -0.872815 c -9.9e-5,1.397283 -1.128662,2.443081 -2.525945,2.44318 l -0.0041,0.179438 z"
           sodipodi:nodetypes="ccccccc" />
      </g>
    </g>
    <g
       id="g40"
       transform="matrix(-1,0,0,1,60.90916,44.887366)"
       style="fill:#000000">
      <rect
         style="fill:#000000;fill-opacity:1;stroke:none;stroke-width:1.98438;stroke-linecap:round;stroke-linejoin:round;stroke-miterlimit:4.7"
         id="rect23"
         width="0.8719967"
         height="13.210765"
         x="12.653432"
         y="20.808697" />
      <path
         id="path27"
         style="fill:#000000;fill-opacity:1;stroke:none;stroke-width:1.98438;stroke-linecap:round;stroke-linejoin:round;stroke-miterlimit:4.7"
         d="m 10.124662,36.640561 v -0.09249 c 1.396473,-9.9e-5 2.528513,-1.132139 2.528612,-2.528612 h 0.87231 c 9.9e-5,1.396473 1.132139,2.528513 2.528614,2.528612 v 0.09249 z"
         sodipodi:nodetypes="ccccccc" />
      <g
         id="g27"
         transform="matrix(0.99942071,0,0,0.99942071,-3.3918998,3.6305588)"
         style="fill:#000000;stroke-width:1.00058">
        <rect
           style="fill:#000000;fill-opacity:1;stroke:none;stroke-width:1.98553;stroke-linecap:round;stroke-linejoin:round;stroke-miterlimit:4.7"
           id="rect4"
           width="0.87250215"
           height="13.218423"
           x="-16.054316"
           y="17.188097"
           transform="scale(-1,1)" />
        <path
           id="path56"
           style="fill:#000000;fill-opacity:1;stroke:none;stroke-width:1.98553;stroke-linecap:round;stroke-linejoin:round;stroke-miterlimit:4.7"
           d="m 12.65158,23.796875 v 0.09254 c 1.397282,9.9e-5 2.529979,1.132796 2.530078,2.530078 h 0.872815 c 9.9e-5,-1.397283 1.132796,-2.443241 2.530079,-2.44334 v -0.179278 z"
           sodipodi:nodetypes="ccccccc" />
        <path
           id="path58"
           style="fill:#000000;fill-opacity:1;stroke:none;stroke-width:1.98553;stroke-linecap:round;stroke-linejoin:round;stroke-miterlimit:4.7"
           d="m 19.457246,23.871079 v 0.09254 c -1.397282,9.9e-5 -2.529979,1.132796 -2.530078,2.530078 h -0.872815 c -9.9e-5,-1.397283 -1.132796,-2.443241 -2.530079,-2.44334 v -0.179278 z"
           sodipodi:nodetypes="ccccccc" />
        <path
           id="path7"
           style="fill:#000000;fill-opacity:1;stroke:none;stroke-width:1.98553;stroke-linecap:round;stroke-linejoin:round;stroke-miterlimit:4.7"
           d="m 36.439721,23.870651 v 0.09254 c -1.397282,9.9e-5 -2.529979,1.132796 -2.530078,2.530078 h -0.872815 c -9.9e-5,-1.397283 -1.132796,-2.443241 -2.530079,-2.44334 v -0.179278 z"
           sodipodi:nodetypes="ccccccc" />
        <path
           id="path57"
           style="fill:#000000;fill-opacity:1;stroke:none;stroke-width:1.98553;stroke-linecap:round;stroke-linejoin:round;stroke-miterlimit:4.7"
           d="m 12.651614,23.796875 v -0.09254 c 1.397282,-9.9e-5 2.529979,-1.132796 2.530078,-2.530078 h 0.872815 c 9.9e-5,1.397283 1.128662,2.443081 2.525945,2.44318 l 0.0041,0.179438 z"
           sodipodi:nodetypes="ccccccc" />
        <path
           id="path59"
           style="fill:#000000;fill-opacity:1;stroke:none;stroke-width:1.98553;stroke-linecap:round;stroke-linejoin:round;stroke-miterlimit:4.7"
           d="m 19.457212,23.871079 v -0.09254 c -1.397282,-9.9e-5 -2.529979,-1.132796 -2.530078,-2.530078 h -0.872815 c -9.9e-5,1.397283 -1.128662,2.443081 -2.525945,2.44318 l -0.0041,0.179438 z"
           sodipodi:nodetypes="ccccccc" />
        <path
           id="path20"
           style="fill:#000000;fill-opacity:1;stroke:none;stroke-width:1.98553;stroke-linecap:round;stroke-linejoin:round;stroke-miterlimit:4.7"
           d="m 36.439687,23.870651 v -0.09254 c -1.397282,-9.9e-5 -2.529979,-1.132796 -2.530078,-2.530078 h -0.872815 c -9.9e-5,1.397283 -1.128662,2.443081 -2.525945,2.44318 l -0.0041,0.179438 z"
           sodipodi:nodetypes="ccccccc" />
        <path
           id="path54"
           style="fill:#000000;fill-opacity:1;stroke:none;stroke-width:1.98553;stroke-linecap:round;stroke-linejoin:round;stroke-miterlimit:4.7"
           d="m 18.584552,33.029136 v -0.09254 C 17.18727,32.936497 16.054573,31.8038 16.054474,30.406518 h -0.872815 c -9.9e-5,1.397283 -1.132796,2.529979 -2.530079,2.530078 v 0.09254 z"
           sodipodi:nodetypes="ccccccc" />
        <path
           id="path55"
           style="fill:#000000;fill-opacity:1;stroke:none;stroke-width:1.98553;stroke-linecap:round;stroke-linejoin:round;stroke-miterlimit:4.7"
           d="m 13.528536,14.713026 v 0.09254 c 1.397282,9.9e-5 2.529979,1.132796 2.530078,2.530078 h 0.872815 c 9.9e-5,-1.397283 1.132796,-2.529979 2.530079,-2.530078 v -0.09254 z"
           sodipodi:nodetypes="ccccccc" />
        <path
           id="rect2"
           style="fill:#000000;fill-opacity:1;stroke:none;stroke-width:1.98553;stroke-linecap:round;stroke-linejoin:round;stroke-miterlimit:4.7"
           d="m 12.651739,14.713026 v 0.09254 c 1.397282,9.9e-5 2.529979,1.132796 2.530078,2.530078 h 0.872815 c 9.9e-5,-1.397283 1.132796,-2.529979 2.530079,-2.530078 v -0.09254 z"
           sodipodi:nodetypes="ccccccc" />
      </g>
    </g>
    <g
       id="g99"
       style="fill:#536583;fill-opacity:1">
      <g
         id="g97"
         transform="translate(12.561748,5.4638075)"
         style="fill:#536583;fill-opacity:1">
        <path
           id="path88"
           style="fill:#536583;fill-opacity:1;stroke:none;stroke-width:1.98438;stroke-linecap:round;stroke-linejoin:round;stroke-miterlimit:4.7"
           d="m 11.780952,20.808491 v 13.21108 h 0.872298 0.872299 V 20.808491 H 12.65325 Z" />
        <path
           id="path89"
           style="fill:#536583;fill-opacity:1;stroke:none;stroke-width:1.98438;stroke-linecap:round;stroke-linejoin:round;stroke-miterlimit:4.7"
           d="m 10.124819,18.33506 v 0.09249 c 1.396472,9.8e-5 2.528514,1.132139 2.528613,2.528612 h 0.872308 c 10e-5,-1.396474 1.132141,-2.26265 2.528614,-2.26275 v -0.358349 z"
           sodipodi:nodetypes="ccccccc" />
        <path
           id="path90"
           style="fill:#536583;fill-opacity:1;stroke:none;stroke-width:1.98438;stroke-linecap:round;stroke-linejoin:round;stroke-miterlimit:4.7"
           d="m 10.124662,27.413649 v 0.09249 c 1.396473,9.9e-5 2.528513,1.13214 2.528612,2.528612 h 0.87231 c 9.9e-5,-1.396474 1.132139,-2.441826 2.528614,-2.441924 v -0.179174 z"
           sodipodi:nodetypes="ccccccc" />
        <path
           id="path91"
           style="fill:#536583;fill-opacity:1;stroke:none;stroke-width:1.98438;stroke-linecap:round;stroke-linejoin:round;stroke-miterlimit:4.7"
           d="m 10.124662,27.413649 v -0.09249 c 1.396473,-9.9e-5 2.528513,-1.13214 2.528612,-2.528612 h 0.87231 c 9.9e-5,1.396473 1.128008,2.441665 2.524481,2.441765 l 0.0041,0.179334 z"
           sodipodi:nodetypes="ccccccc" />
        <path
           id="path92"
           style="fill:#536583;fill-opacity:1;stroke:none;stroke-width:1.98438;stroke-linecap:round;stroke-linejoin:round;stroke-miterlimit:4.7"
           d="m 10.124662,36.640561 v -0.09249 c 1.396473,-9.9e-5 2.528513,-1.132139 2.528612,-2.528612 h 0.87231 c 9.9e-5,1.396473 1.132139,2.528513 2.528614,2.528612 v 0.09249 z"
           sodipodi:nodetypes="ccccccc" />
        <g
           id="g96"
           transform="matrix(0.99942071,0,0,0.99942071,-3.3918998,3.6305588)"
           style="fill:#536583;fill-opacity:1;stroke-width:1.00058">
          <path
             id="path93"
             style="fill:#536583;fill-opacity:1;stroke:none;stroke-width:1.98553;stroke-linecap:round;stroke-linejoin:round;stroke-miterlimit:4.7"
             d="m 12.651423,14.713026 v 0.09254 c 1.397282,9.9e-5 2.529979,1.132796 2.530078,2.530078 h 0.872815 c 9.9e-5,-1.397283 1.132796,-2.263962 2.530079,-2.264061 v -0.358557 z"
             sodipodi:nodetypes="ccccccc" />
          <path
             id="path94"
             style="fill:#536583;fill-opacity:1;stroke:none;stroke-width:1.98553;stroke-linecap:round;stroke-linejoin:round;stroke-miterlimit:4.7"
             d="m 18.584552,33.029136 v -0.09254 C 17.18727,32.936497 16.054573,31.8038 16.054474,30.406518 h -0.872815 c -9.9e-5,1.397283 -1.132796,2.529979 -2.530079,2.530078 v 0.09254 z"
             sodipodi:nodetypes="ccccccc" />
          <path
             id="path95"
             style="fill:#536583;fill-opacity:1;stroke:none;stroke-width:1.98553;stroke-linecap:round;stroke-linejoin:round;stroke-miterlimit:4.7"
             d="m 18.571981,23.843145 v -0.09254 c -1.397282,-9.9e-5 -2.529979,-1.132796 -2.530078,-2.530078 h -0.872815 c -9.9e-5,1.397283 -1.132796,2.529979 -2.530079,2.530078 v 0.09254 z"
             sodipodi:nodetypes="ccccccc" />
          <path
             id="path96"
             style="fill:#536583;fill-opacity:1;stroke:none;stroke-width:1.98553;stroke-linecap:round;stroke-linejoin:round;stroke-miterlimit:4.7"
             d="m 18.571981,23.750605 v 0.09254 c -1.397282,9.9e-5 -2.529979,1.132796 -2.530078,2.530078 h -0.872815 c -9.9e-5,-1.397283 -1.132796,-2.529979 -2.530079,-2.530078 v -0.09254 z"
             sodipodi:nodetypes="ccccccc" />
        </g>
      </g>
      <g
         id="g98"
         transform="translate(-1.6933673,0.00187554)"
         style="fill:#536583;fill-opacity:1">
        <path
           id="path97"
           style="fill:#536583;fill-opacity:1;stroke:none;stroke-width:1.98438;stroke-linecap:round;stroke-linejoin:round;stroke-miterlimit:4.7"
           d="m 31.561094,23.796994 v 0.0925 c -0.881642,6.2e-5 -1.657547,0.45149 -2.110465,1.135331 a 2.5820021,2.5820021 0 0 0 -0.08372,0.135909 c -0.0133,0.02313 -0.0267,0.04618 -0.03927,0.06976 a 2.5820021,2.5820021 0 0 0 -0.276986,1.148251 v 4.067452 a 2.5820021,2.5820021 0 0 1 0,5.17e-4 2.5820021,2.5820021 0 0 0 0.275952,1.145149 c 0.01382,0.02598 0.0282,0.05157 0.04289,0.077 a 2.5820021,2.5820021 0 0 0 0.09302,0.150895 l 5.17e-4,5.17e-4 c 0.454677,0.672985 1.224763,1.115632 2.098063,1.115694 v 0.0925 h -2.955892 -0.05168 c -0.564006,-4e-5 -1.084631,-0.199686 -1.505335,-0.529683 6.33e-4,-4.3e-4 0.0014,-6.03e-4 0.0021,-0.001 a 2.5820021,2.5820021 0 0 1 -0.30334,-0.275952 c -0.03783,-0.04052 -0.07424,-0.08221 -0.109554,-0.125057 a 2.5820021,2.5820021 0 0 1 -0.134876,-0.1788 c -0.06159,-0.08878 -0.118724,-0.181042 -0.169498,-0.276986 a 2.5820021,2.5820021 0 0 1 -0.04392,-0.08785 c -0.0053,-0.0109 -0.01089,-0.02158 -0.01602,-0.03256 -0.043,-0.09205 -0.0802,-0.187266 -0.112654,-0.284221 a 2.5820021,2.5820021 0 0 1 -0.06408,-0.221691 c -0.01337,-0.05562 -0.02486,-0.111764 -0.03462,-0.168466 a 2.5820021,2.5820021 0 0 1 -0.03721,-0.386023 c -3.83e-4,-0.01813 -10e-4,-0.03607 -10e-4,-0.05426 V 26.4196 c 10e-7,-0.01819 6.5e-4,-0.03613 10e-4,-0.05426 a 2.5820021,2.5820021 0 0 1 0.03721,-0.385505 c 0.0099,-0.05774 0.02147,-0.11495 0.03514,-0.171566 a 2.5820021,2.5820021 0 0 1 0.06201,-0.215491 c 0.04253,-0.127652 0.09444,-0.251582 0.155029,-0.37052 a 2.5820021,2.5820021 0 0 1 0.01499,-0.02997 c 5.35e-4,-0.001 0.001,-0.0021 0.0016,-0.0031 0.05246,-0.09961 0.111607,-0.195416 0.1757,-0.287321 a 2.5820021,2.5820021 0 0 1 0.126607,-0.167431 c 0.03752,-0.04579 0.07641,-0.09019 0.116789,-0.133326 a 2.5820021,2.5820021 0 0 1 0.301273,-0.273885 c -5.12e-4,-3.48e-4 -0.001,-6.85e-4 -0.0015,-10e-4 0.420547,-0.329579 0.940695,-0.529127 1.504301,-0.529167 z" />
        <path
           id="path98"
           style="fill:#536583;fill-opacity:1;stroke:none;stroke-width:1.98438;stroke-linecap:round;stroke-linejoin:round;stroke-miterlimit:4.7"
           d="m 31.56123,23.796994 v 0.0925 c 0.881642,6.2e-5 1.657547,0.45149 2.110465,1.135331 a 2.5820021,2.5820021 0 0 1 0.08372,0.135909 c 0.0133,0.02313 0.0267,0.04618 0.03927,0.06976 a 2.5820021,2.5820021 0 0 1 0.276986,1.148251 v 4.067452 a 2.5820021,2.5820021 0 0 0 0,5.17e-4 2.5820021,2.5820021 0 0 1 -0.275952,1.145149 c -0.01382,0.02598 -0.0282,0.05157 -0.04289,0.077 a 2.5820021,2.5820021 0 0 1 -0.09302,0.150895 l -5.17e-4,5.17e-4 c -0.454677,0.672985 -1.224763,1.115632 -2.098063,1.115694 v 0.0925 h 2.955892 0.05168 c 0.564006,-4e-5 1.084631,-0.199686 1.505335,-0.529683 -6.33e-4,-4.3e-4 -0.0014,-6.03e-4 -0.0021,-0.001 a 2.5820021,2.5820021 0 0 0 0.30334,-0.275952 c 0.03783,-0.04052 0.07424,-0.08221 0.109554,-0.125057 a 2.5820021,2.5820021 0 0 0 0.134876,-0.1788 c 0.06159,-0.08878 0.118724,-0.181042 0.169498,-0.276986 a 2.5820021,2.5820021 0 0 0 0.04392,-0.08785 c 0.0053,-0.0109 0.01089,-0.02158 0.01602,-0.03256 0.043,-0.09205 0.0802,-0.187266 0.112655,-0.284221 a 2.5820021,2.5820021 0 0 0 0.06408,-0.221691 c 0.01337,-0.05562 0.02486,-0.111764 0.03462,-0.168466 a 2.5820021,2.5820021 0 0 0 0.03721,-0.386023 c 3.83e-4,-0.01813 0.001,-0.03607 0.001,-0.05426 V 26.4196 c -1e-6,-0.01819 -6.5e-4,-0.03613 -0.001,-0.05426 a 2.5820021,2.5820021 0 0 0 -0.03721,-0.385505 c -0.0099,-0.05774 -0.02147,-0.11495 -0.03514,-0.171566 a 2.5820021,2.5820021 0 0 0 -0.06201,-0.215491 c -0.04253,-0.127652 -0.09444,-0.251582 -0.155029,-0.37052 a 2.5820021,2.5820021 0 0 0 -0.01499,-0.02997 c -5.36e-4,-0.001 -10e-4,-0.0021 -0.0016,-0.0031 -0.05246,-0.09961 -0.111607,-0.195416 -0.1757,-0.287321 a 2.5820021,2.5820021 0 0 0 -0.126607,-0.167431 c -0.03752,-0.04579 -0.07641,-0.09019 -0.116789,-0.133326 a 2.5820021,2.5820021 0 0 0 -0.301273,-0.273885 c 5.12e-4,-3.48e-4 10e-4,-6.85e-4 0.0015,-10e-4 -0.420547,-0.329579 -0.940695,-0.529127 -1.504301,-0.529167 z" />
      </g>
    </g>
    <g
       id="g110"
       style="fill:#8e9eb8;fill-opacity:1"
       transform="translate(0.9812494,-2.0881611e-5)">
      <g
         id="g108"
         transform="translate(12.561748,5.4638075)"
         style="fill:#8e9eb8;fill-opacity:1">
        <path
           id="path99"
           style="fill:#8e9eb8;fill-opacity:1;stroke:none;stroke-width:1.98438;stroke-linecap:round;stroke-linejoin:round;stroke-miterlimit:4.7"
           d="m 11.780952,20.808491 v 13.21108 h 0.872298 0.872299 V 20.808491 H 12.65325 Z" />
        <path
           id="path100"
           style="fill:#8e9eb8;fill-opacity:1;stroke:none;stroke-width:1.98438;stroke-linecap:round;stroke-linejoin:round;stroke-miterlimit:4.7"
           d="m 10.124819,18.33506 v 0.09249 c 1.396472,9.8e-5 2.528514,1.132139 2.528613,2.528612 h 0.872308 c 10e-5,-1.396474 1.132141,-2.26265 2.528614,-2.26275 v -0.358349 z"
           sodipodi:nodetypes="ccccccc" />
        <path
           id="path101"
           style="fill:#8e9eb8;fill-opacity:1;stroke:none;stroke-width:1.98438;stroke-linecap:round;stroke-linejoin:round;stroke-miterlimit:4.7"
           d="m 10.124662,27.413649 v 0.09249 c 1.396473,9.9e-5 2.528513,1.13214 2.528612,2.528612 h 0.87231 c 9.9e-5,-1.396474 1.132139,-2.441826 2.528614,-2.441924 v -0.179174 z"
           sodipodi:nodetypes="ccccccc" />
        <path
           id="path102"
           style="fill:#8e9eb8;fill-opacity:1;stroke:none;stroke-width:1.98438;stroke-linecap:round;stroke-linejoin:round;stroke-miterlimit:4.7"
           d="m 10.124662,27.413649 v -0.09249 c 1.396473,-9.9e-5 2.528513,-1.13214 2.528612,-2.528612 h 0.87231 c 9.9e-5,1.396473 1.128008,2.441665 2.524481,2.441765 l 0.0041,0.179334 z"
           sodipodi:nodetypes="ccccccc" />
        <path
           id="path103"
           style="fill:#8e9eb8;fill-opacity:1;stroke:none;stroke-width:1.98438;stroke-linecap:round;stroke-linejoin:round;stroke-miterlimit:4.7"
           d="m 10.124662,36.640561 v -0.09249 c 1.396473,-9.9e-5 2.528513,-1.132139 2.528612,-2.528612 h 0.87231 c 9.9e-5,1.396473 1.132139,2.528513 2.528614,2.528612 v 0.09249 z"
           sodipodi:nodetypes="ccccccc" />
        <g
           id="g107"
           transform="matrix(0.99942071,0,0,0.99942071,-3.3918998,3.6305588)"
           style="fill:#8e9eb8;fill-opacity:1;stroke-width:1.00058">
          <path
             id="path104"
             style="fill:#8e9eb8;fill-opacity:1;stroke:none;stroke-width:1.98553;stroke-linecap:round;stroke-linejoin:round;stroke-miterlimit:4.7"
             d="m 12.651423,14.713026 v 0.09254 c 1.397282,9.9e-5 2.529979,1.132796 2.530078,2.530078 h 0.872815 c 9.9e-5,-1.397283 1.132796,-2.263962 2.530079,-2.264061 v -0.358557 z"
             sodipodi:nodetypes="ccccccc" />
          <path
             id="path105"
             style="fill:#8e9eb8;fill-opacity:1;stroke:none;stroke-width:1.98553;stroke-linecap:round;stroke-linejoin:round;stroke-miterlimit:4.7"
             d="m 18.584552,33.029136 v -0.09254 C 17.18727,32.936497 16.054573,31.8038 16.054474,30.406518 h -0.872815 c -9.9e-5,1.397283 -1.132796,2.529979 -2.530079,2.530078 v 0.09254 z"
             sodipodi:nodetypes="ccccccc" />
          <path
             id="path106"
             style="fill:#8e9eb8;fill-opacity:1;stroke:none;stroke-width:1.98553;stroke-linecap:round;stroke-linejoin:round;stroke-miterlimit:4.7"
             d="m 18.571981,23.843145 v -0.09254 c -1.397282,-9.9e-5 -2.529979,-1.132796 -2.530078,-2.530078 h -0.872815 c -9.9e-5,1.397283 -1.132796,2.529979 -2.530079,2.530078 v 0.09254 z"
             sodipodi:nodetypes="ccccccc" />
          <path
             id="path107"
             style="fill:#8e9eb8;fill-opacity:1;stroke:none;stroke-width:1.98553;stroke-linecap:round;stroke-linejoin:round;stroke-miterlimit:4.7"
             d="m 18.571981,23.750605 v 0.09254 c -1.397282,9.9e-5 -2.529979,1.132796 -2.530078,2.530078 h -0.872815 c -9.9e-5,-1.397283 -1.132796,-2.529979 -2.530079,-2.530078 v -0.09254 z"
             sodipodi:nodetypes="ccccccc" />
        </g>
      </g>
      <g
         id="g109"
         transform="translate(-1.6933673,0.00187554)"
         style="fill:#8e9eb8;fill-opacity:1">
        <path
           id="path108"
           style="fill:#8e9eb8;fill-opacity:1;stroke:none;stroke-width:1.98438;stroke-linecap:round;stroke-linejoin:round;stroke-miterlimit:4.7"
           d="m 31.561094,23.796994 v 0.0925 c -0.881642,6.2e-5 -1.657547,0.45149 -2.110465,1.135331 a 2.5820021,2.5820021 0 0 0 -0.08372,0.135909 c -0.0133,0.02313 -0.0267,0.04618 -0.03927,0.06976 a 2.5820021,2.5820021 0 0 0 -0.276986,1.148251 v 4.067452 a 2.5820021,2.5820021 0 0 1 0,5.17e-4 2.5820021,2.5820021 0 0 0 0.275952,1.145149 c 0.01382,0.02598 0.0282,0.05157 0.04289,0.077 a 2.5820021,2.5820021 0 0 0 0.09302,0.150895 l 5.17e-4,5.17e-4 c 0.454677,0.672985 1.224763,1.115632 2.098063,1.115694 v 0.0925 h -2.955892 -0.05168 c -0.564006,-4e-5 -1.084631,-0.199686 -1.505335,-0.529683 6.33e-4,-4.3e-4 0.0014,-6.03e-4 0.0021,-0.001 a 2.5820021,2.5820021 0 0 1 -0.30334,-0.275952 c -0.03783,-0.04052 -0.07424,-0.08221 -0.109554,-0.125057 a 2.5820021,2.5820021 0 0 1 -0.134876,-0.1788 c -0.06159,-0.08878 -0.118724,-0.181042 -0.169498,-0.276986 a 2.5820021,2.5820021 0 0 1 -0.04392,-0.08785 c -0.0053,-0.0109 -0.01089,-0.02158 -0.01602,-0.03256 -0.043,-0.09205 -0.0802,-0.187266 -0.112654,-0.284221 a 2.5820021,2.5820021 0 0 1 -0.06408,-0.221691 c -0.01337,-0.05562 -0.02486,-0.111764 -0.03462,-0.168466 a 2.5820021,2.5820021 0 0 1 -0.03721,-0.386023 c -3.83e-4,-0.01813 -10e-4,-0.03607 -10e-4,-0.05426 V 26.4196 c 10e-7,-0.01819 6.5e-4,-0.03613 10e-4,-0.05426 a 2.5820021,2.5820021 0 0 1 0.03721,-0.385505 c 0.0099,-0.05774 0.02147,-0.11495 0.03514,-0.171566 a 2.5820021,2.5820021 0 0 1 0.06201,-0.215491 c 0.04253,-0.127652 0.09444,-0.251582 0.155029,-0.37052 a 2.5820021,2.5820021 0 0 1 0.01499,-0.02997 c 5.35e-4,-0.001 0.001,-0.0021 0.0016,-0.0031 0.05246,-0.09961 0.111607,-0.195416 0.1757,-0.287321 a 2.5820021,2.5820021 0 0 1 0.126607,-0.167431 c 0.03752,-0.04579 0.07641,-0.09019 0.116789,-0.133326 a 2.5820021,2.5820021 0 0 1 0.301273,-0.273885 c -5.12e-4,-3.48e-4 -0.001,-6.85e-4 -0.0015,-10e-4 0.420547,-0.329579 0.940695,-0.529127 1.504301,-0.529167 z" />
        <path
           id="path109"
           style="fill:#8e9eb8;fill-opacity:1;stroke:none;stroke-width:1.98438;stroke-linecap:round;stroke-linejoin:round;stroke-miterlimit:4.7"
           d="m 31.56123,23.796994 v 0.0925 c 0.881642,6.2e-5 1.657547,0.45149 2.110465,1.135331 a 2.5820021,2.5820021 0 0 1 0.08372,0.135909 c 0.0133,0.02313 0.0267,0.04618 0.03927,0.06976 a 2.5820021,2.5820021 0 0 1 0.276986,1.148251 v 4.067452 a 2.5820021,2.5820021 0 0 0 0,5.17e-4 2.5820021,2.5820021 0 0 1 -0.275952,1.145149 c -0.01382,0.02598 -0.0282,0.05157 -0.04289,0.077 a 2.5820021,2.5820021 0 0 1 -0.09302,0.150895 l -5.17e-4,5.17e-4 c -0.454677,0.672985 -1.224763,1.115632 -2.098063,1.115694 v 0.0925 h 2.955892 0.05168 c 0.564006,-4e-5 1.084631,-0.199686 1.505335,-0.529683 -6.33e-4,-4.3e-4 -0.0014,-6.03e-4 -0.0021,-0.001 a 2.5820021,2.5820021 0 0 0 0.30334,-0.275952 c 0.03783,-0.04052 0.07424,-0.08221 0.109554,-0.125057 a 2.5820021,2.5820021 0 0 0 0.134876,-0.1788 c 0.06159,-0.08878 0.118724,-0.181042 0.169498,-0.276986 a 2.5820021,2.5820021 0 0 0 0.04392,-0.08785 c 0.0053,-0.0109 0.01089,-0.02158 0.01602,-0.03256 0.043,-0.09205 0.0802,-0.187266 0.112655,-0.284221 a 2.5820021,2.5820021 0 0 0 0.06408,-0.221691 c 0.01337,-0.05562 0.02486,-0.111764 0.03462,-0.168466 a 2.5820021,2.5820021 0 0 0 0.03721,-0.386023 c 3.83e-4,-0.01813 0.001,-0.03607 0.001,-0.05426 V 26.4196 c -1e-6,-0.01819 -6.5e-4,-0.03613 -0.001,-0.05426 a 2.5820021,2.5820021 0 0 0 -0.03721,-0.385505 c -0.0099,-0.05774 -0.02147,-0.11495 -0.03514,-0.171566 a 2.5820021,2.5820021 0 0 0 -0.06201,-0.215491 c -0.04253,-0.127652 -0.09444,-0.251582 -0.155029,-0.37052 a 2.5820021,2.5820021 0 0 0 -0.01499,-0.02997 c -5.36e-4,-0.001 -10e-4,-0.0021 -0.0016,-0.0031 -0.05246,-0.09961 -0.111607,-0.195416 -0.1757,-0.287321 a 2.5820021,2.5820021 0 0 0 -0.126607,-0.167431 c -0.03752,-0.04579 -0.07641,-0.09019 -0.116789,-0.133326 a 2.5820021,2.5820021 0 0 0 -0.301273,-0.273885 c 5.12e-4,-3.48e-4 10e-4,-6.85e-4 0.0015,-10e-4 -0.420547,-0.329579 -0.940695,-0.529127 -1.504301,-0.529167 z" />
      </g>
    </g>
  </g>
</svg>
