<?xml version="1.0" encoding="UTF-8" standalone="no"?>
<!-- Created with Inkscape (http://www.inkscape.org/) -->

<svg
   width="206.28242mm"
   height="201.70752mm"
   viewBox="0 0 206.28242 201.70752"
   version="1.1"
   id="svg1"
   inkscape:version="1.3 (0e150ed6c4, 2023-07-21)"
   sodipodi:docname="Portfolio_workPreviewElement_MrGummy.svg"
   xmlns:inkscape="http://www.inkscape.org/namespaces/inkscape"
   xmlns:sodipodi="http://sodipodi.sourceforge.net/DTD/sodipodi-0.dtd"
   xmlns="http://www.w3.org/2000/svg"
   xmlns:svg="http://www.w3.org/2000/svg">
  <sodipodi:namedview
     id="namedview1"
     pagecolor="#505050"
     bordercolor="#000000"
     borderopacity="1"
     inkscape:showpageshadow="0"
     inkscape:pageopacity="0"
     inkscape:pagecheckerboard="0"
     inkscape:deskcolor="#4c4c4c"
     inkscape:document-units="mm"
     borderlayer="false"
     showborder="false"
     inkscape:zoom="0.09476449"
     inkscape:cx="7038.5014"
     inkscape:cy="89.696045"
     inkscape:window-width="1920"
     inkscape:window-height="1009"
     inkscape:window-x="-8"
     inkscape:window-y="-8"
     inkscape:window-maximized="1"
     inkscape:current-layer="layer1" />
  <defs
     id="defs1" />
  <g
     inkscape:label="Слой 1"
     inkscape:groupmode="layer"
     id="layer1"
     transform="translate(202.15753,-268.21887)">
    <rect
       style="fill:#acd194;fill-opacity:1;stroke:none;stroke-width:1.32292;stroke-linecap:round;stroke-linejoin:round;stroke-miterlimit:4.7;stroke-dasharray:none;stroke-opacity:1"
       id="rect85"
       width="206.28242"
       height="201.70752"
       x="-202.15753"
       y="268.21887"
       ry="5.544076"
       rx="5.544076" />
    <g
       id="g77"
       transform="matrix(1.309561,0,0,1.3085727,-114.51344,79.771129)"
       style="stroke:none;stroke-width:0.763902" />
    <path
       id="path68"
       style="fill:#5aa02c;fill-opacity:1;stroke:none;stroke-width:1.32292;stroke-linecap:round;stroke-linejoin:round;stroke-miterlimit:4.7;stroke-dasharray:none;stroke-opacity:1"
       d="m -55.934899,387.18202 c -0.58571,-5.87479 -2.25383,-11.65888 -5.12357,-16.83116 -3.25805,-6.0019 -8.00479,-11.18402 -13.66407,-15.00099 -5.80189,-3.92237 -12.57636,-6.36688 -19.53984,-7.09288 -6.318391,-0.66398 -12.765851,0.1317 -18.761811,2.22354 -5.86524,2.09918 -11.26351,5.46641 -15.7184,9.82349 -4.44536,4.3809 -7.92212,9.72524 -10.12507,15.56608 -1.68454,4.5551 -2.62401,9.3876 -2.70673,14.24666 4.71995,0 9.43992,0 14.15986,0 0.11923,-5.015 1.6311,-9.95877 4.22415,-14.24507 2.78114,-4.48227 6.78471,-8.19758 11.49721,-10.57923 4.79184,-2.43555 10.27359,-3.4866 15.628321,-2.99154 5.35352,0.49194 10.55414,2.51598 14.82463,5.78657 4.27198,3.26216 7.59703,7.74322 9.47365,12.78274 1.09384,2.95637 1.72165,6.09162 1.7995,9.24653 4.71997,0 9.43993,0 14.15988,0 -0.0426,-0.97825 -0.0851,-1.95648 -0.12775,-2.93474 z" />
    <path
       id="path54"
       style="fill:#549528;fill-opacity:1;stroke:none;stroke-width:1.32292;stroke-linecap:round;stroke-linejoin:round;stroke-miterlimit:4.7;stroke-dasharray:none;stroke-opacity:1"
       d="m -55.934899,387.18202 c -0.58571,-5.87479 -2.25383,-11.65888 -5.12357,-16.83116 -3.25805,-6.0019 -8.00479,-11.18402 -13.66407,-15.00099 -5.80189,-3.92237 -12.57636,-6.36688 -19.53984,-7.09288 -6.318391,-0.66398 -12.765851,0.1317 -18.761811,2.22354 -5.86524,2.09918 -11.26351,5.46641 -15.7184,9.82349 -4.44536,4.3809 -7.92212,9.72524 -10.12507,15.56608 -1.68454,4.5551 -2.62401,9.3876 -2.70673,14.24666 4.71995,0 9.43992,0 14.15986,0 0.11923,-5.015 1.6311,-9.95877 4.22415,-14.24507 2.78114,-4.48227 6.78471,-8.19758 11.49721,-10.57923 4.79184,-2.43555 10.27359,-3.4866 15.628321,-2.99154 5.35352,0.49194 10.55414,2.51598 14.82463,5.78657 4.27198,3.26216 7.59703,7.74322 9.47365,12.78274 1.09384,2.95637 1.72165,6.09162 1.7995,9.24653 4.71997,0 9.43993,0 14.15988,0 -0.0426,-0.97825 -0.0851,-1.95648 -0.12775,-2.93474 z" />
    <ellipse
       style="fill:#acd194;fill-opacity:1;stroke:none;stroke-width:1.32292;stroke-linecap:round;stroke-linejoin:round;stroke-miterlimit:4.7;stroke-dasharray:none;stroke-opacity:1"
       id="path77"
       cx="-99.016304"
       cy="348.03015"
       rx="33.065533"
       ry="32.738388" />
    <path
       id="path69"
       style="fill:#5aa02c;fill-opacity:1;stroke:none;stroke-width:1.32292;stroke-linecap:round;stroke-linejoin:round;stroke-miterlimit:4.7;stroke-dasharray:none;stroke-opacity:1"
       d="m -55.934899,350.96324 c -0.58571,5.87479 -2.25383,11.65888 -5.12357,16.83115 -3.25805,6.00192 -8.00479,11.18403 -13.66407,15.001 -5.80189,3.92236 -12.57636,6.36688 -19.53984,7.09288 -6.318391,0.66397 -12.765851,-0.1317 -18.761811,-2.22354 -5.86524,-2.09918 -11.26351,-5.4664 -15.7184,-9.8235 -4.44536,-4.38089 -7.92212,-9.72522 -10.12507,-15.56607 -1.68454,-4.55511 -2.62401,-9.3876 -2.70673,-14.24666 4.71995,0 9.43992,0 14.15986,0 0.11923,5.01499 1.6311,9.95876 4.22415,14.24506 2.78114,4.48228 6.78471,8.19759 11.49721,10.57923 4.79184,2.43555 10.27359,3.48661 15.628321,2.99155 5.35352,-0.49194 10.55414,-2.51599 14.82463,-5.78657 4.27198,-3.26216 7.59703,-7.74322 9.47365,-12.78274 1.09384,-2.95638 1.72165,-6.09162 1.7995,-9.24653 4.71997,0 9.43993,0 14.15988,0 -0.0426,0.97824 -0.0851,1.95648 -0.12775,2.93474 z" />
    <path
       id="path55"
       style="fill:#57ad1f;fill-opacity:1;stroke:none;stroke-width:1.32292;stroke-linecap:round;stroke-linejoin:round;stroke-miterlimit:4.7;stroke-dasharray:none;stroke-opacity:1"
       d="m -55.934899,350.96324 c -0.58571,5.87479 -2.25383,11.65888 -5.12357,16.83115 -3.25805,6.00192 -8.00479,11.18403 -13.66407,15.001 -5.80189,3.92236 -12.57636,6.36688 -19.53984,7.09288 -6.318391,0.66397 -12.765851,-0.1317 -18.761811,-2.22354 -5.86524,-2.09918 -11.26351,-5.4664 -15.7184,-9.8235 -4.44536,-4.38089 -7.92212,-9.72522 -10.12507,-15.56607 -1.68454,-4.55511 -2.62401,-9.3876 -2.70673,-14.24666 4.71995,0 9.43992,0 14.15986,0 0.11923,5.01499 1.6311,9.95876 4.22415,14.24506 2.78114,4.48228 6.78471,8.19759 11.49721,10.57923 4.79184,2.43555 10.27359,3.48661 15.628321,2.99155 5.35352,-0.49194 10.55414,-2.51599 14.82463,-5.78657 4.27198,-3.26216 7.59703,-7.74322 9.47365,-12.78274 1.09384,-2.95638 1.72165,-6.09162 1.7995,-9.24653 4.71997,0 9.43993,0 14.15988,0 -0.0426,0.97824 -0.0851,1.95648 -0.12775,2.93474 z" />
    <path
       id="path70"
       style="fill:#5aa02c;fill-opacity:1;stroke:none;stroke-width:1.32292;stroke-linecap:round;stroke-linejoin:round;stroke-miterlimit:4.7;stroke-dasharray:none;stroke-opacity:1"
       d="m -55.934899,345.09375 c -0.58571,-5.87478 -2.25383,-11.65889 -5.12357,-16.83115 -3.25805,-6.00192 -8.00479,-11.18404 -13.66407,-15.00101 -5.80189,-3.92235 -12.57636,-6.36687 -19.53984,-7.09287 -6.318391,-0.66397 -12.765851,0.1317 -18.761811,2.22353 -5.86524,2.09919 -11.26351,5.46641 -15.7184,9.82351 -4.44536,4.38089 -7.92212,9.72522 -10.12507,15.56607 -1.68454,4.55511 -2.62401,9.3876 -2.70673,14.24667 4.71995,0 9.43992,0 14.15986,0 0.11923,-5.015 1.6311,-9.95877 4.22415,-14.24507 2.78114,-4.48228 6.78471,-8.1976 11.49721,-10.57923 4.79184,-2.43555 10.27359,-3.48661 15.628321,-2.99155 5.35352,0.49193 10.55414,2.51598 14.82463,5.78656 4.27198,3.26217 7.59703,7.74323 9.47365,12.78275 1.09384,2.95637 1.72165,6.09161 1.7995,9.24654 4.71997,0 9.43993,0 14.15988,0 -0.0426,-0.97826 -0.0851,-1.9565 -0.12775,-2.93475 z" />
    <path
       id="path56"
       style="fill:#57ad1f;fill-opacity:1;stroke:none;stroke-width:1.32292;stroke-linecap:round;stroke-linejoin:round;stroke-miterlimit:4.7;stroke-dasharray:none;stroke-opacity:1"
       d="m -55.934899,345.09375 c -0.58571,-5.87478 -2.25383,-11.65889 -5.12357,-16.83115 -3.25805,-6.00192 -8.00479,-11.18404 -13.66407,-15.00101 -5.80189,-3.92235 -12.57636,-6.36687 -19.53984,-7.09287 -6.318391,-0.66397 -12.765851,0.1317 -18.761811,2.22353 -5.86524,2.09919 -11.26351,5.46641 -15.7184,9.82351 -4.44536,4.38089 -7.92212,9.72522 -10.12507,15.56607 -1.68454,4.55511 -2.62401,9.3876 -2.70673,14.24667 4.71995,0 9.43992,0 14.15986,0 0.11923,-5.015 1.6311,-9.95877 4.22415,-14.24507 2.78114,-4.48228 6.78471,-8.1976 11.49721,-10.57923 4.79184,-2.43555 10.27359,-3.48661 15.628321,-2.99155 5.35352,0.49193 10.55414,2.51598 14.82463,5.78656 4.27198,3.26217 7.59703,7.74323 9.47365,12.78275 1.09384,2.95637 1.72165,6.09161 1.7995,9.24654 4.71997,0 9.43993,0 14.15988,0 -0.0426,-0.97826 -0.0851,-1.9565 -0.12775,-2.93475 z" />
    <g
       id="g70"
       transform="matrix(0,-1.309561,1.3085727,0,-234.77653,754.51622)"
       style="fill:#549528;stroke:none;stroke-width:0.763902;fill-opacity:1">
      <circle
         style="fill:#549528;stroke:none;stroke-width:1.01058;stroke-linecap:round;stroke-linejoin:round;stroke-miterlimit:4.7;stroke-dasharray:none;fill-opacity:1"
         id="circle70"
         cx="334.78757"
         cy="129.0152"
         r="7.7516322" />
    </g>
    <g
       id="g36"
       transform="matrix(0,-1.309561,1.3085727,0,-300.25658,754.51622)"
       style="fill:#549528;stroke:none;stroke-width:0.763902;fill-opacity:1">
      <circle
         style="fill:#549528;stroke:none;stroke-width:1.01058;stroke-linecap:round;stroke-linejoin:round;stroke-miterlimit:4.7;stroke-dasharray:none;fill-opacity:1"
         id="circle14"
         cx="334.78757"
         cy="129.0152"
         r="7.7516322" />
    </g>
    <g
       id="text85"
       style="font-weight:500;font-size:17.2211px;line-height:1;font-family:'MADE TOMMY';-inkscape-font-specification:'MADE TOMMY Medium';fill:#ffffff;stroke-width:0.264581;fill-opacity:1"
       aria-label="MR. &#10;GUMMY">
      <path
         d="m -131.49462,403.68412 -3.84031,6.1996 -3.8403,-6.1996 h -2.47984 v 12.05477 h 2.32485 v -7.99059 l 3.61643,5.83795 h 0.77495 l 3.59921,-5.83795 v 7.99059 h 2.34207 v -12.05477 z m 14.24184,12.05477 -2.96203,-4.82191 c 1.30881,-0.60273 2.1182,-1.77377 2.1182,-3.28923 0,-2.2904 -1.791,-3.94363 -4.49471,-3.94363 h -4.16751 v 12.05477 h 2.32485 v -4.33972 h 1.84266 c 0.0689,0 0.13777,0 0.18943,0 l 2.47984,4.33972 z m -7.1812,-9.88491 h 1.84266 c 1.3088,0 2.10098,0.68884 2.10098,1.77377 0,1.20548 -0.8955,1.75656 -2.10098,1.75656 h -1.84266 z m 9.48883,7.56006 c -0.70607,0 -1.27436,0.5683 -1.27436,1.27436 0,0.70607 0.56829,1.27437 1.27436,1.27437 0.68884,0 1.25714,-0.5683 1.25714,-1.27437 0,-0.70606 -0.5683,-1.27436 -1.25714,-1.27436 z"
         id="path1"
         style="fill:#ffffff;fill-opacity:1" />
      <path
         d="m -135.7999,426.14044 v 2.03209 h 3.427 c -0.34442,1.54989 -1.48101,2.77259 -3.58199,2.77259 -2.49706,0 -3.78864,-1.99764 -3.78864,-4.01251 0,-1.99765 1.29158,-4.01252 3.78864,-4.01252 1.25714,0 2.2043,0.51663 2.84148,1.29158 l 1.92877,-1.29158 c -1.08493,-1.37769 -2.7726,-2.22152 -4.77025,-2.22152 -3.58199,0 -6.13071,2.70371 -6.13071,6.23404 0,3.53032 2.54872,6.25126 6.13071,6.25126 1.8771,0 3.15146,-0.77495 3.96085,-1.94599 l 0.30998,1.72211 h 1.25714 v -6.81955 z m 14.8618,-5.23522 v 7.30175 c 0,2.01487 -1.2227,2.75537 -2.5315,2.75537 -1.32603,0 -2.54873,-0.7405 -2.54873,-2.75537 v -7.30175 h -2.34207 v 7.61173 c 0,2.84148 1.73934,4.66692 4.8908,4.66692 3.15146,0 4.87357,-1.82544 4.87357,-4.66692 v -7.61173 z m 14.74127,0 -3.84031,6.1996 -3.8403,-6.1996 h -2.47984 v 12.05477 h 2.32485 v -7.99059 l 3.61643,5.83795 h 0.77495 l 3.59921,-5.83795 v 7.99059 h 2.34207 v -12.05477 z m 14.896248,0 -3.840305,6.1996 -3.840306,-6.1996 h -2.479837 v 12.05477 h 2.324848 v -7.99059 l 3.616431,5.83795 h 0.774949 l 3.59921,-5.83795 v 7.99059 h 2.34207 v -12.05477 z m 15.206228,0 h -2.548723 l -3.117019,5.45909 -3.099798,-5.45909 h -2.565944 l 4.494707,7.54284 v 4.51193 h 2.34207 v -4.51193 z"
         id="path2"
         style="fill:#ffffff;fill-opacity:1" />
    </g>
  </g>
</svg>
