<?xml version="1.0" encoding="UTF-8" standalone="no"?>
<!-- Created with Inkscape (http://www.inkscape.org/) -->

<svg
   width="386.43262mm"
   height="201.70752mm"
   viewBox="0 0 386.43261 201.70752"
   version="1.1"
   id="svg1"
   inkscape:version="1.3 (0e150ed6c4, 2023-07-21)"
   sodipodi:docname="Portfolio_workPreviewElement_MrGummy.svg"
   xmlns:inkscape="http://www.inkscape.org/namespaces/inkscape"
   xmlns:sodipodi="http://sodipodi.sourceforge.net/DTD/sodipodi-0.dtd"
   xmlns:xlink="http://www.w3.org/1999/xlink"
   xmlns="http://www.w3.org/2000/svg"
   xmlns:svg="http://www.w3.org/2000/svg">
  <sodipodi:namedview
     id="namedview1"
     pagecolor="#505050"
     bordercolor="#000000"
     borderopacity="1"
     inkscape:showpageshadow="0"
     inkscape:pageopacity="0"
     inkscape:pagecheckerboard="0"
     inkscape:deskcolor="#4c4c4c"
     inkscape:document-units="px"
     borderlayer="false"
     showborder="false"
     inkscape:zoom="0.53606891"
     inkscape:cx="223.85182"
     inkscape:cy="437.44376"
     inkscape:window-width="1920"
     inkscape:window-height="1009"
     inkscape:window-x="-8"
     inkscape:window-y="-8"
     inkscape:window-maximized="1"
     inkscape:current-layer="layer1" />
  <defs
     id="defs1">
    <linearGradient
       id="linearGradient10"
       inkscape:collect="always">
      <stop
         style="stop-color:#55d400;stop-opacity:1;"
         offset="0"
         id="stop10" />
      <stop
         style="stop-color:#b1ff7d;stop-opacity:1;"
         offset="1"
         id="stop11" />
    </linearGradient>
    <linearGradient
       inkscape:collect="always"
       xlink:href="#linearGradient10"
       id="linearGradient9"
       x1="-159.71118"
       y1="325.84225"
       x2="-127.78068"
       y2="374.28314"
       gradientUnits="userSpaceOnUse"
       gradientTransform="matrix(0.68523194,0,0,0.68523194,3.6198622,127.85085)" />
    <linearGradient
       inkscape:collect="always"
       xlink:href="#linearGradient10"
       id="linearGradient14"
       gradientUnits="userSpaceOnUse"
       x1="-125.9763"
       y1="339.07135"
       x2="-74.820732"
       y2="339.07135"
       gradientTransform="matrix(0.68523194,0,0,0.68523194,3.1276282,132.87008)" />
  </defs>
  <g
     inkscape:label="Слой 1"
     inkscape:groupmode="layer"
     id="layer1"
     transform="translate(202.15753,-268.21887)">
    <rect
       style="fill:#ffffff;fill-opacity:1;stroke:none;stroke-width:1.32292;stroke-linecap:round;stroke-linejoin:round;stroke-miterlimit:4.7;stroke-dasharray:none;stroke-opacity:1"
       id="rect85"
       width="386.43262"
       height="201.70752"
       x="-202.15753"
       y="268.21887"
       ry="5.544076"
       rx="5.544076" />
    <g
       id="g77"
       transform="matrix(1.309561,0,0,1.3085727,-114.51344,79.771129)"
       style="stroke:none;stroke-width:0.763902" />
    <g
       id="g21"
       transform="translate(20.787293)">
      <g
         id="g20"
         transform="matrix(1.3340933,0,0,1.3340933,-12.780696,-119.02444)">
        <path
           style="fill:url(#linearGradient9);fill-opacity:1;stroke:none;stroke-width:1.81301;stroke-linecap:butt;stroke-linejoin:miter;stroke-dasharray:none;stroke-opacity:1"
           d="m -107.84857,374.80268 c -0.76096,5.94852 -5.41127,7.86325 -2.53653,10.73799 2.87474,2.87474 9.38517,3.80481 10.737991,0.59187 3.410111,-8.09901 -5.667281,-26.89086 -1.014611,-24.43529 3.043836,1.60648 2.509769,6.83119 5.495815,5.66493 3.575601,-1.39652 -3.139183,-9.60374 0.676413,-8.37056 3.994422,1.29097 9.216079,11.0762 8.539666,16.65657 -0.676406,5.58038 0.930065,10.9071 5.749479,8.62422 4.819415,-2.28288 4.565762,-8.11691 -2.705638,-22.06785 -7.271393,-13.95093 -13.44363,-20.96868 -15.641964,-15.3883 -2.198331,5.58037 0.760964,10.31523 -6.341331,7.01774 -7.1023,-3.29749 -10.06159,-1.26827 -9.72338,1.77557 0.41314,3.71828 7.71215,11.78204 6.76409,19.19311 z"
           id="path8"
           sodipodi:nodetypes="sssssssssssss" />
        <g
           id="g19">
          <path
             style="fill:url(#linearGradient14);fill-opacity:1;stroke:none;stroke-width:1.81301;stroke-linecap:butt;stroke-linejoin:miter;stroke-dasharray:none;stroke-opacity:1"
             d="m -81.453539,352.34279 c 4.234316,4.31289 6.933191,8.96241 8.201459,14.20459 2.04981,8.47254 -4.565762,21.9833 4.312103,20.12317 8.877873,-1.86012 3.128399,-5.41127 1.268269,-14.45824 -1.860124,-9.04697 -0.930059,-9.89249 2.198333,-6.9332 3.12839,2.95929 2.705635,19.19311 9.216073,17.75575 6.510438,-1.43737 10.315239,-2.19834 6.510438,-7.44051 -3.804802,-5.24217 -8.370564,-7.7787 -13.443631,-13.10543 -5.073069,-5.32672 4.444609,-0.0411 6.81204,-3.08492 2.367433,-3.04384 8.178003,-17.41999 -15.351704,-15.68543 -13.189982,0.97234 -12.515686,5.7801 -9.72338,8.62422 z"
             id="path13"
             sodipodi:nodetypes="sssssssssss" />
          <path
             style="fill:#ffffff;fill-opacity:1;stroke:none;stroke-width:1.81301;stroke-linecap:butt;stroke-linejoin:miter;stroke-dasharray:none;stroke-opacity:1"
             d="m -71.604219,353.56477 c 0.52889,1.67425 3.006969,2.26069 4.162832,1.91562 4.747749,-1.41741 6.684114,-5.15847 1.310616,-4.93557 -5.373507,0.2229 -6.005126,1.33687 -5.473448,3.01995 z"
             id="path14"
             sodipodi:nodetypes="ssss" />
        </g>
        <g
           id="g16"
           transform="matrix(0.68523194,0,0,0.68523194,-0.70855948,134.23901)"
           style="stroke:none">
          <path
             style="fill:#91f052;fill-opacity:1;stroke:none;stroke-width:6.61458;stroke-linecap:butt;stroke-linejoin:miter;stroke-dasharray:none;stroke-opacity:1"
             d="m -62.906069,351.01939 c -1.5403,1.37804 -1.534987,4.56677 -0.261753,6.19477 1.883406,2.40819 6.447644,3.53502 8.986782,1.83226 2.065491,-1.38513 2.914606,-5.35959 1.396003,-7.32903 -2.064971,-2.67801 -7.600757,-2.95278 -10.121032,-0.698 z"
             id="path15"
             sodipodi:nodetypes="aaaaa" />
        </g>
      </g>
      <path
         d="m -37.0006,369.35236 v 4.47579 h 5.408253 c -1.30544,3.24496 -3.953619,4.69959 -7.086677,4.69959 -4.475796,0 -7.869941,-2.94657 -7.869941,-9.43647 0,-6.41531 3.431443,-9.43647 7.869941,-9.43647 3.319549,0 6.005027,1.60383 7.198572,5.03527 h 6.713695 c -1.529231,-7.16127 -6.974783,-11.30138 -13.912267,-11.30138 -7.869941,0 -14.359846,5.63204 -14.359846,15.70258 0,10.29433 6.489905,15.66529 14.359846,15.66529 3.580637,0 6.862888,-1.08165 9.399172,-3.24496 l 0.559475,2.64818 h 4.065515 v -14.80742 z m 33.6430374,-15.3669 v 18.57455 0 0.18649 c 0,4.77419 -3.5060403,6.07963 -6.4899045,6.07963 -2.9465659,0 -6.4899049,-1.30544 -6.4899049,-6.04233 v -0.22379 0 -18.57455 h -5.893131 v 18.64915 c 0,6.6391 3.804427,12.12195 12.3830359,12.12195 8.7278026,0 12.4203345,-5.48285 12.4203345,-12.12195 v -18.64915 z m 33.2700536,0.0373 -8.578609,23.75901 -8.615908,-23.75901 H 5.7431915 v 30.17432 h 6.3407115 v -17.30641 l 6.750992,17.30641 h 4.997973 l 6.750992,-17.26911 v 17.26911 h 6.340712 v -30.17432 z m 34.650154,0 -8.578609,23.75901 -8.615908,-23.75901 h -6.974782 v 30.17432 h 6.340711 v -17.30641 l 6.750993,17.30641 h 4.997972 l 6.750993,-17.26911 v 17.26911 h 6.340711 v -30.17432 z m 16.672373,0 H 75.0435 v 30.17432 h 6.191518 z m 3.468768,0 v 30.17432 H 106.2622 v -6.00502 H 91.230988 v -6.7137 l 12.532232,0.0373 v -6.00503 l -12.532232,-0.0746 v -5.37096 H 106.2622 v -6.04232 z"
         id="text18"
         style="font-weight:bold;font-size:37.2983px;line-height:1;font-family:'Neutral Face';-inkscape-font-specification:'Neutral Face Bold';stroke-width:1.39868"
         aria-label="Gummie" />
    </g>
  </g>
</svg>
