<?xml version="1.0" encoding="UTF-8" standalone="no"?>
<!-- Created with Inkscape (http://www.inkscape.org/) -->

<svg
   width="63.386372mm"
   height="81.437759mm"
   viewBox="0 0 63.386371 81.437759"
   version="1.1"
   id="svg1"
   inkscape:version="1.3 (0e150ed6c4, 2023-07-21)"
   sodipodi:docname="Portfolio_workPreviewElement_Vatik.svg"
   xmlns:inkscape="http://www.inkscape.org/namespaces/inkscape"
   xmlns:sodipodi="http://sodipodi.sourceforge.net/DTD/sodipodi-0.dtd"
   xmlns="http://www.w3.org/2000/svg"
   xmlns:svg="http://www.w3.org/2000/svg">
  <sodipodi:namedview
     id="namedview1"
     pagecolor="#505050"
     bordercolor="#000000"
     borderopacity="1"
     inkscape:showpageshadow="0"
     inkscape:pageopacity="0"
     inkscape:pagecheckerboard="0"
     inkscape:deskcolor="#4c4c4c"
     inkscape:document-units="px"
     borderlayer="false"
     showborder="false"
     inkscape:zoom="0.5360689"
     inkscape:cx="-18.654318"
     inkscape:cy="58.761103"
     inkscape:window-width="1920"
     inkscape:window-height="1009"
     inkscape:window-x="-8"
     inkscape:window-y="-8"
     inkscape:window-maximized="1"
     inkscape:current-layer="layer1" />
  <defs
     id="defs1">
    <inkscape:path-effect
       effect="spiro"
       id="path-effect6"
       is_visible="true"
       lpeversion="1" />
    <inkscape:path-effect
       effect="spiro"
       id="path-effect4"
       is_visible="true"
       lpeversion="1" />
    <inkscape:path-effect
       effect="spiro"
       id="path-effect3"
       is_visible="true"
       lpeversion="1" />
    <inkscape:path-effect
       effect="spiro"
       id="path-effect1"
       is_visible="true"
       lpeversion="1" />
  </defs>
  <g
     inkscape:label="Слой 1"
     inkscape:groupmode="layer"
     id="layer1"
     transform="translate(-176.68924,-5.808723)">
    <rect
       style="fill:#ffffff;stroke:none;stroke-width:1.85208;stroke-linecap:round;stroke-linejoin:round;stroke-miterlimit:4.7;stroke-dasharray:none"
       id="rect17"
       width="63.386368"
       height="81.437759"
       x="176.68924"
       y="5.808723" />
    <path
       style="fill:none;stroke:#89a02c;stroke-width:4.73131;stroke-linecap:butt;stroke-linejoin:miter;stroke-dasharray:none;stroke-opacity:1"
       d="m 103.29886,40.517881 c 1.10903,2.523202 2.33281,5.004009 3.19769,7.620969 0.86488,2.616961 1.36393,5.408648 0.97059,8.136611 -0.60529,4.19791 -3.2206,7.789672 -5.73688,11.203929 -1.25814,1.707129 -2.515633,3.423455 -3.540355,5.280105 -1.024723,1.856651 -1.815919,3.86823 -2.074689,5.973045 -0.272104,2.213271 0.06016,4.497031 0.945751,6.543574 0.885589,2.046544 2.32158,3.850942 4.113263,5.178526 1.67607,1.241917 3.72311,2.076812 5.80713,1.984932 1.04201,-0.04594 2.07867,-0.325891 2.97847,-0.85338 0.89981,-0.527489 1.65818,-1.306325 2.11892,-2.242066 0.47428,-0.963247 0.62394,-2.065444 0.54473,-3.136199 -0.0792,-1.070754 -0.37881,-2.114987 -0.76497,-3.116819 -0.77232,-2.003666 -1.89813,-3.878947 -2.41712,-5.962646 -0.84248,-3.382469 -0.001,-6.955881 1.18935,-10.232101 1.19049,-3.27622 2.73951,-6.453368 3.3761,-9.880558 0.65925,-3.549222 0.30646,-7.219129 -0.44414,-10.750162 -0.75059,-3.531033 -1.89218,-6.965275 -2.82985,-10.4513 -0.32656,-1.214087 -0.63545,-2.452242 -1.26258,-3.541898 -0.31357,-0.544829 -0.70661,-1.048312 -1.18992,-1.450272 -0.48331,-0.401961 -1.05951,-0.700077 -1.67694,-0.818131 -0.55914,-0.106909 -1.14409,-0.06408 -1.68717,0.106603 -0.54308,0.170689 -1.04411,0.467612 -1.46656,0.849197 -0.8449,0.763169 -1.35918,1.850519 -1.54734,2.973406 -0.18816,1.122887 -0.0672,2.281032 0.21529,3.383972 0.28249,1.10294 0.7231,2.158358 1.18123,3.200663 z"
       id="path4"
       inkscape:path-effect="#path-effect6"
       inkscape:original-d="m 103.29886,40.517881 c -1.10151,3.504613 3.88937,9.476798 4.16828,15.75758 0.27891,6.28078 -9.377679,15.423816 -11.351924,22.457079 -1.974249,7.03326 4.071884,8.390557 5.059014,11.7221 0.98712,3.331546 7.26968,-0.740343 10.90452,-1.110514 3.63485,-0.370171 -1.75824,-8.143774 -2.63736,-12.215664 -0.87912,-4.071887 3.04364,-13.408438 4.56545,-20.112659 1.52182,-6.704219 -2.18266,-14.134306 -3.27399,-21.201462 -1.09134,-7.067154 -2.75296,-3.873534 -4.12944,-5.810301 -1.37648,-1.936767 -2.20303,7.009226 -3.30455,10.513841 z"
       sodipodi:nodetypes="ssssssssss"
       transform="matrix(0.56003072,0,0,0.55840582,150.69475,8.2188886)" />
    <path
       style="fill:#dde9af;stroke:#89a02c;stroke-width:3.53129;stroke-linecap:butt;stroke-linejoin:miter;stroke-dasharray:none;stroke-opacity:1"
       d="m 100.80404,32.214306 c 0.86411,2.420467 0.99373,5.161142 0.0171,7.538458 -0.48829,1.188659 -1.247635,2.270936 -2.230475,3.098802 -0.982841,0.827867 -2.190608,1.395806 -3.462613,1.578402 -1.433213,0.205738 -2.904758,-0.07724 -4.251627,-0.608627 -1.346869,-0.531387 -2.584224,-1.303679 -3.788503,-2.107507 -1.20428,-0.803828 -2.387384,-1.645575 -3.660976,-2.334336 -1.273592,-0.688761 -2.651836,-1.225093 -4.092884,-1.365837 -1.936302,-0.189114 -3.861484,0.34021 -5.744888,0.827873 -1.883404,0.487664 -3.842594,0.941175 -5.758153,0.601083 -0.957779,-0.170046 -1.889697,-0.54473 -2.64445,-1.158411 -0.754754,-0.613681 -1.322734,-1.475813 -1.502833,-2.431753 -0.1801,-0.95594 0.05183,-1.999313 0.686373,-2.73661 0.317274,-0.368649 0.72908,-0.657141 1.187839,-0.818711 0.458758,-0.16157 0.96367,-0.194489 1.437057,-0.08283 0.47013,0.110895 0.898614,0.358662 1.28018,0.654851 0.381566,0.296188 0.721791,0.64136 1.066278,0.979958 0.344486,0.338599 0.696203,0.672638 1.089572,0.952961 0.393369,0.280324 0.830024,0.505819 1.298093,0.625116 0.468069,0.119296 0.965579,0.129281 1.434224,0.01227 0.468645,-0.117012 0.903428,-0.360452 1.256431,-0.690163 0.353003,-0.329711 0.62238,-0.741443 0.827122,-1.178937 0.204741,-0.437494 0.346424,-0.901143 0.508829,-1.356055 0.915019,-2.563056 2.638494,-4.830769 4.862987,-6.398618 2.224492,-1.567849 4.939654,-2.42854 7.661145,-2.42854 2.721491,0 5.436653,0.860691 7.661145,2.42854 2.224493,1.567849 3.947968,3.835562 4.862987,6.398618 z"
       id="path2"
       inkscape:path-effect="#path-effect3"
       inkscape:original-d="m 100.80404,32.214306 c 8.34943,0 -3.783963,8.143775 -5.675948,12.215662 -1.891985,4.071887 -10.529327,-4.277537 -15.79399,-6.416307 -5.264663,-2.13877 -8.226036,-3.866237 -12.339055,-5.799355 -4.113017,-1.933119 5.840486,0 8.760729,0 2.920241,0 16.698847,0 25.048264,0 z"
       transform="matrix(0.75034237,0,0,0.74816529,137.7505,2.2617875)" />
    <path
       style="fill:none;stroke:#89a02c;stroke-width:4.10942;stroke-linecap:butt;stroke-linejoin:miter;stroke-dasharray:none;stroke-opacity:1"
       d="m 100.80404,32.214306 c 0.86411,2.420467 0.99373,5.161142 0.0171,7.538458 -0.48829,1.188659 -1.247635,2.270936 -2.230475,3.098802 -0.982841,0.827867 -2.190608,1.395806 -3.462613,1.578402 -1.433213,0.205738 -2.904758,-0.07724 -4.251627,-0.608627 -1.346869,-0.531387 -2.584224,-1.303679 -3.788503,-2.107507 -1.20428,-0.803828 -2.387384,-1.645575 -3.660976,-2.334336 -1.273592,-0.688761 -2.651836,-1.225093 -4.092884,-1.365837 -1.936302,-0.189114 -3.861484,0.34021 -5.744888,0.827873 -1.883404,0.487664 -3.842594,0.941175 -5.758153,0.601083 -0.957779,-0.170046 -1.889697,-0.54473 -2.64445,-1.158411 -0.754754,-0.613681 -1.322734,-1.475813 -1.502833,-2.431753 -0.1801,-0.95594 0.05183,-1.999313 0.686373,-2.73661 0.317274,-0.368649 0.72908,-0.657141 1.187839,-0.818711 0.458758,-0.16157 0.96367,-0.194489 1.437057,-0.08283 0.47013,0.110895 0.898614,0.358662 1.28018,0.654851 0.381566,0.296188 0.721791,0.64136 1.066278,0.979958 0.344486,0.338599 0.696203,0.672638 1.089572,0.952961 0.393369,0.280324 0.830024,0.505819 1.298093,0.625116 0.468069,0.119296 0.965579,0.129281 1.434224,0.01227 0.468645,-0.117012 0.903428,-0.360452 1.256431,-0.690163 0.353003,-0.329711 0.62238,-0.741443 0.827122,-1.178937 0.204741,-0.437494 0.346424,-0.901143 0.508829,-1.356055 0.915019,-2.563056 2.638494,-4.830769 4.862987,-6.398618 2.224492,-1.567849 4.939654,-2.42854 7.661145,-2.42854 2.721491,0 5.436653,0.860691 7.661145,2.42854 2.224493,1.567849 3.947968,3.835562 4.862987,6.398618 z"
       id="path1"
       inkscape:path-effect="#path-effect1"
       inkscape:original-d="m 100.80404,32.214306 c 8.34943,0 -3.783963,8.143775 -5.675948,12.215662 -1.891985,4.071887 -10.529327,-4.277537 -15.79399,-6.416307 -5.264663,-2.13877 -8.226036,-3.866237 -12.339055,-5.799355 -4.113017,-1.933119 5.840486,0 8.760729,0 2.920241,0 16.698847,0 25.048264,0 z"
       transform="matrix(-0.64478219,0,0,-0.64291137,271.99643,47.474424)" />
    <text
       xml:space="preserve"
       style="font-size:10.278px;line-height:1;font-family:'Neutral Face';-inkscape-font-specification:'Neutral Face';stroke-width:0.264583"
       x="197.0201"
       y="77.176407"
       id="text6"><tspan
         sodipodi:role="line"
         id="tspan6"
         style="stroke-width:0.264583"
         x="197.0201"
         y="77.176407">Tari</tspan></text>
  </g>
</svg>
