<?xml version="1.0" encoding="UTF-8" standalone="no"?>
<!-- Created with Inkscape (http://www.inkscape.org/) -->

<svg
   width="39.947819mm"
   height="18.842215mm"
   viewBox="0 0 39.947818 18.842215"
   version="1.1"
   id="svg1"
   inkscape:version="1.3 (0e150ed6c4, 2023-07-21)"
   sodipodi:docname="Portfolio_workPreviewElement_Roe.svg"
   xmlns:inkscape="http://www.inkscape.org/namespaces/inkscape"
   xmlns:sodipodi="http://sodipodi.sourceforge.net/DTD/sodipodi-0.dtd"
   xmlns="http://www.w3.org/2000/svg"
   xmlns:svg="http://www.w3.org/2000/svg">
  <sodipodi:namedview
     id="namedview1"
     pagecolor="#505050"
     bordercolor="#eeeeee"
     borderopacity="1"
     inkscape:showpageshadow="0"
     inkscape:pageopacity="0"
     inkscape:pagecheckerboard="0"
     inkscape:deskcolor="#494949"
     inkscape:document-units="px"
     showborder="false"
     inkscape:zoom="4"
     inkscape:cx="75.999999"
     inkscape:cy="46.375"
     inkscape:window-width="1920"
     inkscape:window-height="1009"
     inkscape:window-x="-8"
     inkscape:window-y="-8"
     inkscape:window-maximized="1"
     inkscape:current-layer="layer1" />
  <defs
     id="defs1">
    <inkscape:path-effect
       effect="spiro"
       id="path-effect12"
       is_visible="true"
       lpeversion="1" />
    <inkscape:path-effect
       effect="spiro"
       id="path-effect11"
       is_visible="true"
       lpeversion="1" />
  </defs>
  <g
     inkscape:label="Слой 1"
     inkscape:groupmode="layer"
     id="layer1"
     transform="translate(-22.530765,-23.534262)">
    <path
       id="path83"
       style="fill:#536583;fill-opacity:1;stroke:#506486;stroke-width:0.529167;stroke-linecap:square;stroke-linejoin:miter;stroke-miterlimit:4.7;stroke-dasharray:none;stroke-opacity:1"
       d="m 53.032042,30.48957 v 5.89318 h 1.409064 a 2.4780941,2.464035 0 0 1 -0.170393,-0.887284 2.4780941,2.464035 0 0 1 1.120313,-2.059306 2.4780941,2.464035 0 0 1 -1.120313,-2.059306 2.4780941,2.464035 0 0 1 0.170393,-0.887284 z" />
    <path
       id="path81"
       style="fill:#536583;fill-opacity:1;stroke:#506486;stroke-width:0.529167;stroke-linecap:square;stroke-linejoin:miter;stroke-miterlimit:4.7;stroke-dasharray:none;stroke-opacity:1"
       d="m 56.74843,28.820418 v 0.0925 c -0.870376,6.2e-5 -1.636367,0.45149 -2.083497,1.135331 a 2.5490083,2.5820021 0 0 0 -0.08265,0.135909 c -0.01313,0.02313 -0.02636,0.04618 -0.03877,0.06976 a 2.5490083,2.5820021 0 0 0 -0.273447,1.148251 v 4.067452 a 2.5490083,2.5820021 0 0 1 0,5.17e-4 2.5490083,2.5820021 0 0 0 0.272426,1.145149 c 0.01364,0.02598 0.02784,0.05157 0.04234,0.077 a 2.5490083,2.5820021 0 0 0 0.09183,0.150895 l 5.1e-4,5.17e-4 c 0.448867,0.672985 1.209113,1.115632 2.071254,1.115694 v 0.0925 H 53.83031 53.77929 c -0.556798,-4e-5 -1.070771,-0.199686 -1.486099,-0.529683 6.25e-4,-4.3e-4 0.0014,-6.03e-4 0.0021,-10e-4 a 2.5490083,2.5820021 0 0 1 -0.299463,-0.275952 c -0.03735,-0.04052 -0.07329,-0.08221 -0.108155,-0.125057 a 2.5490083,2.5820021 0 0 1 -0.133152,-0.1788 c -0.0608,-0.08878 -0.117207,-0.181042 -0.167332,-0.276986 a 2.5490083,2.5820021 0 0 1 -0.04336,-0.08785 c -0.0052,-0.0109 -0.01075,-0.02158 -0.01581,-0.03256 -0.04245,-0.09205 -0.07917,-0.187266 -0.111216,-0.284221 a 2.5490083,2.5820021 0 0 1 -0.06326,-0.221691 c -0.0132,-0.05562 -0.02454,-0.111764 -0.03418,-0.168466 a 2.5490083,2.5820021 0 0 1 -0.03674,-0.386023 c -3.78e-4,-0.01813 -9.87e-4,-0.03607 -9.87e-4,-0.05426 v -3.98632 c 1e-6,-0.01819 6.42e-4,-0.03613 9.87e-4,-0.05426 a 2.5490083,2.5820021 0 0 1 0.03674,-0.385505 c 0.0098,-0.05774 0.02119,-0.11495 0.03469,-0.171566 a 2.5490083,2.5820021 0 0 1 0.06122,-0.215491 c 0.04199,-0.127652 0.09323,-0.251582 0.153048,-0.37052 a 2.5490083,2.5820021 0 0 1 0.0148,-0.02997 c 5.29e-4,-0.001 9.87e-4,-0.0021 0.0016,-0.0031 0.05179,-0.09961 0.110181,-0.195416 0.173455,-0.287321 a 2.5490083,2.5820021 0 0 1 0.124989,-0.167431 c 0.03704,-0.04579 0.07543,-0.09019 0.115297,-0.133326 a 2.5490083,2.5820021 0 0 1 0.297423,-0.273885 c -5.05e-4,-3.48e-4 -9.87e-4,-6.85e-4 -0.0015,-0.001 0.415173,-0.329579 0.928675,-0.529127 1.485079,-0.529167 z" />
    <path
       id="path82"
       style="fill:#536583;fill-opacity:1;stroke:#506486;stroke-width:0.529167;stroke-linecap:square;stroke-linejoin:miter;stroke-miterlimit:4.7;stroke-dasharray:none;stroke-opacity:1"
       d="m 56.748812,28.820421 v 0.0925 c 0.870374,6.2e-5 1.636367,0.451492 2.083496,1.135331 a 2.5490083,2.5820021 0 0 1 0.08265,0.135909 c 0.01313,0.02313 0.02636,0.04618 0.03877,0.06976 a 2.5490083,2.5820021 0 0 1 0.273446,1.148251 v 0.173632 0.415479 h 2.988522 v -0.415479 -0.132808 c 0,-0.01819 -7.07e-4,-0.03613 -9.87e-4,-0.05426 a 2.5490083,2.5820021 0 0 0 -0.03673,-0.385506 c -0.0098,-0.05774 -0.0212,-0.11495 -0.03469,-0.171566 a 2.5490083,2.5820021 0 0 0 -0.06122,-0.215491 c -0.04199,-0.127652 -0.09323,-0.251582 -0.153048,-0.37052 a 2.5490083,2.5820021 0 0 0 -0.0148,-0.02997 c -5.29e-4,-10e-4 -0.0014,-0.0021 -0.0021,-0.0031 -0.05179,-0.09961 -0.110181,-0.195416 -0.173455,-0.287321 a 2.5490083,2.5820021 0 0 0 -0.12448,-0.167431 c -0.03704,-0.04579 -0.07543,-0.09019 -0.115297,-0.133326 A 2.5490083,2.5820021 0 0 0 61.201491,29.35062 c 5.06e-4,-3.48e-4 5e-5,-7.51e-4 5.11e-4,-10e-4 -0.415174,-0.329579 -0.928677,-0.529127 -1.485079,-0.529167 z m 2.477851,6.060095 v 0.415479 h 5.1e-4 v 0.173633 a 2.5490083,2.5820021 0 0 0 0,5.16e-4 2.5490083,2.5820021 0 0 1 -0.272426,1.14515 c -0.01364,0.02598 -0.02784,0.05157 -0.04234,0.077 a 2.5490083,2.5820021 0 0 1 -0.09183,0.150895 l -5.1e-4,5.17e-4 c -0.448866,0.672983 -1.209115,1.115632 -2.071253,1.115694 v 0.0925 h 2.91812 0.05102 c 0.556798,-4e-5 1.070771,-0.199688 1.486099,-0.529683 -6.25e-4,-4.3e-4 -0.0019,-6.71e-4 -0.0026,-10e-4 a 2.5490083,2.5820021 0 0 0 0.299464,-0.275952 c 0.03735,-0.04052 0.07329,-0.08221 0.108154,-0.125057 a 2.5490083,2.5820021 0 0 0 0.133153,-0.178801 c 0.0608,-0.08878 0.117208,-0.181041 0.167333,-0.276985 a 2.5490083,2.5820021 0 0 0 0.04337,-0.08785 c 0.0052,-0.0109 0.01075,-0.02158 0.01582,-0.03256 0.04245,-0.09205 0.07918,-0.187266 0.111215,-0.284221 a 2.5490083,2.5820021 0 0 0 0.06326,-0.221692 c 0.0132,-0.05562 0.02454,-0.111763 0.03418,-0.168465 a 2.5490083,2.5820021 0 0 0 0.03673,-0.386023 c 3.78e-4,-0.01813 9.88e-4,-0.03607 9.88e-4,-0.05426 v -0.133325 -0.415479 z" />
    <path
       id="path86"
       style="fill:#536583;fill-opacity:1;stroke:#506486;stroke-width:0.529166;stroke-linecap:square;stroke-linejoin:round;stroke-miterlimit:4.7;stroke-dasharray:none;stroke-opacity:1"
       d="m 44.614735,28.821348 v 0.0925 c -0.928464,6.2e-5 -1.745575,0.45149 -2.222546,1.135331 a 2.7191258,2.5820021 0 0 0 -0.08817,0.135909 c -0.01401,0.02313 -0.02812,0.04618 -0.04136,0.06976 a 2.7191258,2.5820021 0 0 0 -0.291696,1.148251 v 4.067452 a 2.7191258,2.5820021 0 0 1 0,5.17e-4 2.7191258,2.5820021 0 0 0 0.290607,1.145149 c 0.01455,0.02598 0.0297,0.05157 0.04517,0.077 a 2.7191258,2.5820021 0 0 0 0.09796,0.150895 l 5.44e-4,5.17e-4 c 0.478824,0.672985 1.289807,1.115632 2.209486,1.115694 v 0.0925 h -3.112872 -0.05442 c -0.593959,-4e-5 -1.142233,-0.199686 -1.585279,-0.529683 6.66e-4,-4.3e-4 0.0015,-6.03e-4 0.0022,-10e-4 A 2.7191258,2.5820021 0 0 1 39.54491,37.246188 c -0.03984,-0.04052 -0.07818,-0.08221 -0.115372,-0.125057 a 2.7191258,2.5820021 0 0 1 -0.142039,-0.1788 c -0.06486,-0.08878 -0.125029,-0.181042 -0.1785,-0.276986 a 2.7191258,2.5820021 0 0 1 -0.04625,-0.08785 c -0.0056,-0.0109 -0.01147,-0.02158 -0.01687,-0.03256 -0.04528,-0.09205 -0.08446,-0.187266 -0.118638,-0.284221 a 2.7191258,2.5820021 0 0 1 -0.06748,-0.221691 c -0.01408,-0.05562 -0.02618,-0.111764 -0.03646,-0.168466 a 2.7191258,2.5820021 0 0 1 -0.03919,-0.386023 c -4.03e-4,-0.01813 -0.0011,-0.03607 -0.0011,-0.05426 v -3.98632 c 10e-7,-0.01819 6.85e-4,-0.03613 0.0011,-0.05426 a 2.7191258,2.5820021 0 0 1 0.03919,-0.385505 c 0.01043,-0.05774 0.02261,-0.11495 0.03701,-0.171566 a 2.7191258,2.5820021 0 0 1 0.0653,-0.215491 c 0.04479,-0.127652 0.09945,-0.251582 0.163262,-0.37052 a 2.7191258,2.5820021 0 0 1 0.01579,-0.02997 c 5.64e-4,-0.001 0.0011,-0.0021 0.0017,-0.0031 0.05525,-0.09961 0.117534,-0.195416 0.185031,-0.287321 a 2.7191258,2.5820021 0 0 1 0.133331,-0.167431 c 0.03951,-0.04579 0.08047,-0.09019 0.122991,-0.133326 a 2.7191258,2.5820021 0 0 1 0.317273,-0.273885 c -5.39e-4,-3.48e-4 -0.0011,-6.85e-4 -0.0016,-0.001 0.442881,-0.329579 0.990653,-0.529127 1.584191,-0.529167 z" />
    <path
       id="path87"
       style="fill:#536583;fill-opacity:1;stroke:#506486;stroke-width:0.529166;stroke-linecap:square;stroke-linejoin:round;stroke-miterlimit:4.7;stroke-dasharray:none;stroke-opacity:1"
       d="m 44.614735,28.821348 v 0.0925 c 0.928464,6.2e-5 1.745575,0.45149 2.222547,1.135331 a 2.7191258,2.5820021 0 0 1 0.08817,0.135909 c 0.01401,0.02313 0.02812,0.04618 0.04135,0.06976 a 2.7191258,2.5820021 0 0 1 0.291696,1.148251 v 4.067452 a 2.7191258,2.5820021 0 0 0 0,5.17e-4 2.7191258,2.5820021 0 0 1 -0.290607,1.145149 c -0.01455,0.02598 -0.0297,0.05157 -0.04517,0.077 a 2.7191258,2.5820021 0 0 1 -0.09796,0.150895 l -5.44e-4,5.17e-4 c -0.478824,0.672985 -1.289807,1.115632 -2.209486,1.115694 v 0.0925 h 3.112872 0.05443 c 0.593959,-4e-5 1.142233,-0.199686 1.585279,-0.529683 -6.66e-4,-4.3e-4 -0.0015,-6.03e-4 -0.0022,-10e-4 a 2.7191258,2.5820021 0 0 0 0.319449,-0.275952 c 0.03984,-0.04052 0.07818,-0.08221 0.115372,-0.125057 a 2.7191258,2.5820021 0 0 0 0.142039,-0.1788 c 0.06486,-0.08878 0.125029,-0.181042 0.1785,-0.276986 a 2.7191258,2.5820021 0 0 0 0.04625,-0.08785 c 0.0056,-0.0109 0.01147,-0.02158 0.01687,-0.03256 0.04528,-0.09205 0.08446,-0.187266 0.118638,-0.284221 a 2.7191258,2.5820021 0 0 0 0.06748,-0.221691 c 0.01408,-0.05562 0.02618,-0.111764 0.03646,-0.168466 a 2.7191258,2.5820021 0 0 0 0.03919,-0.386023 c 4.03e-4,-0.01813 0.0011,-0.03607 0.0011,-0.05426 v -3.98632 c -1e-6,-0.01819 -6.85e-4,-0.03613 -0.0011,-0.05426 a 2.7191258,2.5820021 0 0 0 -0.03919,-0.385505 c -0.01043,-0.05774 -0.02261,-0.11495 -0.03701,-0.171566 a 2.7191258,2.5820021 0 0 0 -0.0653,-0.215491 C 50.25907,30.48948 50.20441,30.36555 50.140598,30.246612 a 2.7191258,2.5820021 0 0 0 -0.01579,-0.02997 c -5.64e-4,-0.001 -0.0011,-0.0021 -0.0017,-0.0031 -0.05525,-0.09961 -0.117534,-0.195416 -0.185031,-0.287321 A 2.7191258,2.5820021 0 0 0 49.804757,29.75879 C 49.765245,29.713 49.724289,29.6686 49.681766,29.625464 a 2.7191258,2.5820021 0 0 0 -0.317273,-0.273885 c 5.39e-4,-3.48e-4 0.0011,-6.85e-4 0.0016,-0.001 C 48.923192,29.021 48.37542,28.821452 47.781882,28.821412 Z" />
    <path
       id="path37"
       style="fill:#899cb8;fill-opacity:1;stroke:#506486;stroke-width:0.529167;stroke-linecap:square;stroke-linejoin:round;stroke-miterlimit:4.7;stroke-dasharray:none;stroke-opacity:1"
       d="m 52.564581,30.48957 v 5.89318 h 1.427303 a 2.51017,2.464035 0 0 1 -0.172599,-0.887284 2.51017,2.464035 0 0 1 1.134814,-2.059306 2.51017,2.464035 0 0 1 -1.134814,-2.059306 2.51017,2.464035 0 0 1 0.172599,-0.887284 z" />
    <path
       id="path39"
       style="fill:#899cb8;fill-opacity:1;stroke:#506486;stroke-width:0.529167;stroke-linecap:square;stroke-linejoin:round;stroke-miterlimit:4.7;stroke-dasharray:none;stroke-opacity:1"
       d="m 55.811592,28.820418 v 0.0925 c -0.881642,6.2e-5 -1.657547,0.45149 -2.110465,1.135331 a 2.5820021,2.5820021 0 0 0 -0.08372,0.135909 c -0.0133,0.02313 -0.0267,0.04618 -0.03927,0.06976 a 2.5820021,2.5820021 0 0 0 -0.276986,1.148251 v 4.067452 a 2.5820021,2.5820021 0 0 1 0,5.17e-4 2.5820021,2.5820021 0 0 0 0.275952,1.145149 c 0.01382,0.02598 0.0282,0.05157 0.04289,0.077 a 2.5820021,2.5820021 0 0 0 0.09302,0.150895 l 5.17e-4,5.17e-4 c 0.454677,0.672985 1.224763,1.115632 2.098063,1.115694 v 0.0925 h -2.955892 -0.05168 c -0.564006,-4e-5 -1.084631,-0.199686 -1.505335,-0.529683 6.33e-4,-4.3e-4 0.0014,-6.03e-4 0.0021,-10e-4 a 2.5820021,2.5820021 0 0 1 -0.30334,-0.275952 c -0.03783,-0.04052 -0.07424,-0.08221 -0.109554,-0.125057 a 2.5820021,2.5820021 0 0 1 -0.134876,-0.1788 c -0.06159,-0.08878 -0.118724,-0.181042 -0.169498,-0.276986 a 2.5820021,2.5820021 0 0 1 -0.04392,-0.08785 c -0.0053,-0.0109 -0.01089,-0.02158 -0.01602,-0.03256 -0.043,-0.09205 -0.0802,-0.187266 -0.112655,-0.284221 a 2.5820021,2.5820021 0 0 1 -0.06408,-0.221691 c -0.01337,-0.05562 -0.02486,-0.111764 -0.03462,-0.168466 a 2.5820021,2.5820021 0 0 1 -0.03721,-0.386023 c -3.83e-4,-0.01813 -0.001,-0.03607 -0.001,-0.05426 v -3.98632 c 1e-6,-0.01819 6.5e-4,-0.03613 0.001,-0.05426 a 2.5820021,2.5820021 0 0 1 0.03721,-0.385505 c 0.0099,-0.05774 0.02147,-0.11495 0.03514,-0.171566 a 2.5820021,2.5820021 0 0 1 0.06201,-0.215491 c 0.04253,-0.127652 0.09444,-0.251582 0.155029,-0.37052 a 2.5820021,2.5820021 0 0 1 0.01499,-0.02997 c 5.36e-4,-0.001 0.001,-0.0021 0.0016,-0.0031 0.05246,-0.09961 0.111607,-0.195416 0.1757,-0.287321 a 2.5820021,2.5820021 0 0 1 0.126607,-0.167431 c 0.03752,-0.04579 0.07641,-0.09019 0.116789,-0.133326 a 2.5820021,2.5820021 0 0 1 0.301273,-0.273885 c -5.12e-4,-3.48e-4 -10e-4,-6.85e-4 -0.0015,-0.001 0.420547,-0.329579 0.940695,-0.529127 1.504301,-0.529167 z" />
    <path
       id="path40"
       style="fill:#899cb8;fill-opacity:1;stroke:#506486;stroke-width:0.529167;stroke-linecap:square;stroke-linejoin:miter;stroke-miterlimit:4.7;stroke-dasharray:none;stroke-opacity:1"
       d="m 55.811979,28.820421 v 0.0925 c 0.88164,6.2e-5 1.657548,0.451492 2.110465,1.135331 a 2.5820021,2.5820021 0 0 1 0.08372,0.135909 c 0.0133,0.02313 0.0267,0.04618 0.03927,0.06976 a 2.5820021,2.5820021 0 0 1 0.276986,1.148251 v 0.173632 0.415479 h 3.027205 v -0.415479 -0.132808 c -1e-6,-0.01819 -7.17e-4,-0.03613 -0.001,-0.05426 a 2.5820021,2.5820021 0 0 0 -0.03721,-0.385506 c -0.0099,-0.05774 -0.02147,-0.11495 -0.03514,-0.171566 a 2.5820021,2.5820021 0 0 0 -0.06201,-0.215491 c -0.04253,-0.127652 -0.09444,-0.251582 -0.155029,-0.37052 a 2.5820021,2.5820021 0 0 0 -0.01499,-0.02997 c -5.36e-4,-10e-4 -0.0014,-0.0021 -0.0021,-0.0031 -0.05246,-0.09961 -0.111607,-0.195416 -0.1757,-0.287321 a 2.5820021,2.5820021 0 0 0 -0.126091,-0.167431 c -0.03752,-0.04579 -0.07641,-0.09019 -0.116789,-0.133326 A 2.5820021,2.5820021 0 0 0 60.322293,29.35062 c 5.12e-4,-3.48e-4 5.1e-5,-7.51e-4 5.17e-4,-10e-4 -0.420547,-0.329579 -0.940697,-0.529127 -1.504301,-0.529167 z m 2.509924,6.060095 v 0.415479 h 5.17e-4 v 0.173633 a 2.5820021,2.5820021 0 0 0 0,5.16e-4 2.5820021,2.5820021 0 0 1 -0.275952,1.14515 c -0.01382,0.02598 -0.0282,0.05157 -0.04289,0.077 a 2.5820021,2.5820021 0 0 1 -0.09302,0.150895 l -5.17e-4,5.17e-4 c -0.454676,0.672983 -1.224765,1.115632 -2.098063,1.115694 v 0.0925 h 2.955892 0.05168 c 0.564005,-4e-5 1.084631,-0.199688 1.505335,-0.529683 -6.33e-4,-4.3e-4 -0.0019,-6.71e-4 -0.0026,-10e-4 a 2.5820021,2.5820021 0 0 0 0.30334,-0.275952 c 0.03783,-0.04052 0.07424,-0.08221 0.109554,-0.125057 a 2.5820021,2.5820021 0 0 0 0.134876,-0.178801 c 0.06159,-0.08878 0.118725,-0.181041 0.169499,-0.276985 a 2.5820021,2.5820021 0 0 0 0.04393,-0.08785 c 0.0053,-0.0109 0.01089,-0.02158 0.01602,-0.03256 0.043,-0.09205 0.0802,-0.187266 0.112655,-0.284221 a 2.5820021,2.5820021 0 0 0 0.06408,-0.221692 c 0.01337,-0.05562 0.02486,-0.111763 0.03462,-0.168465 a 2.5820021,2.5820021 0 0 0 0.03721,-0.386023 c 3.83e-4,-0.01813 10e-4,-0.03607 10e-4,-0.05426 v -0.133325 -0.415479 z" />
    <path
       id="path43"
       style="fill:#899cb8;fill-opacity:1;stroke:#506486;stroke-width:0.529167;stroke-linecap:square;stroke-linejoin:round;stroke-miterlimit:4.7;stroke-dasharray:none;stroke-opacity:1"
       d="m 43.928057,28.821348 v 0.0925 c -0.881642,6.2e-5 -1.657547,0.45149 -2.110465,1.135331 a 2.5820021,2.5820021 0 0 0 -0.08372,0.135909 c -0.0133,0.02313 -0.0267,0.04618 -0.03927,0.06976 a 2.5820021,2.5820021 0 0 0 -0.276986,1.148251 v 4.067452 a 2.5820021,2.5820021 0 0 1 0,5.17e-4 2.5820021,2.5820021 0 0 0 0.275952,1.145149 c 0.01382,0.02598 0.0282,0.05157 0.04289,0.077 a 2.5820021,2.5820021 0 0 0 0.09302,0.150895 l 5.17e-4,5.17e-4 c 0.454677,0.672985 1.224763,1.115632 2.098063,1.115694 v 0.0925 h -2.955892 -0.05168 c -0.564006,-4e-5 -1.084631,-0.199686 -1.505335,-0.529683 6.33e-4,-4.3e-4 0.0014,-6.03e-4 0.0021,-10e-4 a 2.5820021,2.5820021 0 0 1 -0.30334,-0.275952 c -0.03783,-0.04052 -0.07424,-0.08221 -0.109554,-0.125057 a 2.5820021,2.5820021 0 0 1 -0.134876,-0.1788 c -0.06159,-0.08878 -0.118724,-0.181042 -0.169498,-0.276986 a 2.5820021,2.5820021 0 0 1 -0.04392,-0.08785 c -0.0053,-0.0109 -0.01089,-0.02158 -0.01602,-0.03256 -0.043,-0.09205 -0.0802,-0.187266 -0.112655,-0.284221 a 2.5820021,2.5820021 0 0 1 -0.06408,-0.221691 c -0.01337,-0.05562 -0.02486,-0.111764 -0.03462,-0.168466 a 2.5820021,2.5820021 0 0 1 -0.03721,-0.386023 c -3.83e-4,-0.01813 -10e-4,-0.03607 -10e-4,-0.05426 v -3.98632 c 10e-7,-0.01819 6.5e-4,-0.03613 10e-4,-0.05426 a 2.5820021,2.5820021 0 0 1 0.03721,-0.385505 c 0.0099,-0.05774 0.02147,-0.11495 0.03514,-0.171566 a 2.5820021,2.5820021 0 0 1 0.06201,-0.215491 c 0.04253,-0.127652 0.09444,-0.251582 0.155029,-0.37052 a 2.5820021,2.5820021 0 0 1 0.01499,-0.02997 c 5.36e-4,-0.001 0.001,-0.0021 0.0016,-0.0031 0.05246,-0.09961 0.111607,-0.195416 0.1757,-0.287321 a 2.5820021,2.5820021 0 0 1 0.126607,-0.167431 c 0.03752,-0.04579 0.07641,-0.09019 0.116789,-0.133326 a 2.5820021,2.5820021 0 0 1 0.301273,-0.273885 c -5.12e-4,-3.48e-4 -10e-4,-6.85e-4 -0.0015,-0.001 0.420547,-0.329579 0.940695,-0.529127 1.504301,-0.529167 z" />
    <path
       id="path35"
       style="fill:#899cb8;fill-opacity:1;stroke:#506486;stroke-width:0.529167;stroke-linecap:square;stroke-linejoin:round;stroke-miterlimit:4.7;stroke-dasharray:none;stroke-opacity:1"
       d="m 43.928057,28.821348 v 0.0925 c 0.881642,6.2e-5 1.657547,0.45149 2.110465,1.135331 a 2.5820021,2.5820021 0 0 1 0.08372,0.135909 c 0.0133,0.02313 0.0267,0.04618 0.03927,0.06976 a 2.5820021,2.5820021 0 0 1 0.276986,1.148251 v 4.067452 a 2.5820021,2.5820021 0 0 0 0,5.17e-4 2.5820021,2.5820021 0 0 1 -0.275952,1.145149 c -0.01382,0.02598 -0.0282,0.05157 -0.04289,0.077 a 2.5820021,2.5820021 0 0 1 -0.09302,0.150895 l -5.17e-4,5.17e-4 c -0.454677,0.672985 -1.224763,1.115632 -2.098063,1.115694 v 0.0925 h 2.955892 0.05168 c 0.564006,-4e-5 1.084631,-0.199686 1.505335,-0.529683 -6.33e-4,-4.3e-4 -0.0014,-6.03e-4 -0.0021,-10e-4 a 2.5820021,2.5820021 0 0 0 0.30334,-0.275952 c 0.03783,-0.04052 0.07424,-0.08221 0.109554,-0.125057 a 2.5820021,2.5820021 0 0 0 0.134876,-0.1788 c 0.06159,-0.08878 0.118724,-0.181042 0.169498,-0.276986 a 2.5820021,2.5820021 0 0 0 0.04392,-0.08785 c 0.0053,-0.0109 0.01089,-0.02158 0.01602,-0.03256 0.043,-0.09205 0.0802,-0.187266 0.112655,-0.284221 a 2.5820021,2.5820021 0 0 0 0.06408,-0.221691 c 0.01337,-0.05562 0.02486,-0.111764 0.03462,-0.168466 a 2.5820021,2.5820021 0 0 0 0.03721,-0.386023 c 3.83e-4,-0.01813 0.001,-0.03607 0.001,-0.05426 v -3.98632 c -1e-6,-0.01819 -6.5e-4,-0.03613 -0.001,-0.05426 a 2.5820021,2.5820021 0 0 0 -0.03721,-0.385505 c -0.0099,-0.05774 -0.02147,-0.11495 -0.03514,-0.171566 a 2.5820021,2.5820021 0 0 0 -0.06201,-0.215491 c -0.04253,-0.127652 -0.09444,-0.251582 -0.155029,-0.37052 a 2.5820021,2.5820021 0 0 0 -0.01499,-0.02997 c -5.36e-4,-0.001 -0.001,-0.0021 -0.0016,-0.0031 -0.05246,-0.09961 -0.111607,-0.195416 -0.1757,-0.287321 A 2.5820021,2.5820021 0 0 0 48.85635,29.75879 C 48.81883,29.713 48.77994,29.6686 48.739561,29.625464 a 2.5820021,2.5820021 0 0 0 -0.301273,-0.273885 c 5.12e-4,-3.48e-4 10e-4,-6.85e-4 0.0015,-0.001 C 48.019241,29.021 47.499093,28.821452 46.935487,28.821412 Z" />
    <path
       id="path121"
       style="fill:#899cb8;fill-opacity:1;stroke:#506486;stroke-width:0.529166;stroke-linecap:round;stroke-linejoin:round;stroke-miterlimit:4.7;stroke-dasharray:none;stroke-opacity:1;paint-order:normal"
       d="m 38.390478,31.422479 v 4.031062 h 1.513566 1.513572 v -4.031062 h -1.513572 z" />
    <path
       id="path122"
       style="fill:#899cb8;fill-opacity:1;stroke:#506486;stroke-width:0.529166;stroke-linecap:round;stroke-linejoin:round;stroke-miterlimit:4.7;stroke-dasharray:none;stroke-opacity:1;paint-order:normal"
       d="m 46.438498,31.422479 v 4.031062 h 1.513566 1.513572 v -4.031062 h -1.513572 z" />
    <path
       id="path14-3"
       style="fill:#899cb8;fill-opacity:1;stroke:#506486;stroke-width:0.529166;stroke-linecap:round;stroke-linejoin:round;stroke-miterlimit:4.7;stroke-dasharray:none;stroke-opacity:1;paint-order:normal"
       d="m 50.274013,31.422479 v 4.031062 h 1.513566 1.513572 v -4.031062 h -1.513572 z" />
    <path
       style="fill:#536583;fill-opacity:1;stroke:none;stroke-width:0.264583px;stroke-linecap:butt;stroke-linejoin:miter;stroke-opacity:1"
       d="m 30.690191,35.558672 0.724624,1.515516 1.938933,0.442932 1.5183,0.703504 0.530366,0.959892 0.02448,0.31404 h 0.951916 l 0.0029,-1.816397 -0.59214,-1.075746 -1.797859,-1.947242 -2.238425,-1.613541 h -1.060568 z"
       id="path139"
       sodipodi:nodetypes="ccccccccccccc" />
    <path
       id="path25-3"
       style="fill:#7b8fb0;fill-opacity:1;stroke:#506486;stroke-width:0.529165;stroke-linecap:square;stroke-linejoin:miter;stroke-miterlimit:4.7;stroke-dasharray:none;stroke-opacity:1;paint-order:normal"
       d="m 39.138175,42.115655 v -0.09249 c -1.523913,-9.9e-5 -2.759264,-1.13214 -2.759372,-2.528613 h -0.951917 c -1.08e-4,1.396474 -1.235457,2.528514 -2.759373,2.528613 v 0.09249 z"
       sodipodi:nodetypes="ccccccc" />
    <path
       style="fill:none;stroke:#506486;stroke-width:0.529167;stroke-linecap:butt;stroke-linejoin:miter;stroke-dasharray:none;stroke-opacity:1"
       d="m 32.237338,33.04163 c 0,0 4.144411,2.620906 4.144411,4.636525"
       id="path133"
       sodipodi:nodetypes="cc" />
    <path
       style="fill:none;stroke:#506486;stroke-width:0.529167;stroke-linecap:butt;stroke-linejoin:miter;stroke-dasharray:none;stroke-opacity:1"
       d="m 30.690191,35.558672 c 0,0 -0.0778,0.927488 0.596425,1.416529 0.876757,0.635946 2.086273,0.565583 3.124531,1.118617 1.258507,0.67035 0.994723,1.575992 0.994723,1.575992"
       id="path141"
       sodipodi:nodetypes="cssc" />
    <path
       style="fill:none;stroke:#506486;stroke-width:0.529167;stroke-linecap:butt;stroke-linejoin:miter;stroke-dasharray:none;stroke-opacity:1"
       d="m 36.381754,37.678159 -0.0029,1.816393"
       id="path143" />
    <path
       style="fill:none;stroke:#506486;stroke-width:0.529165;stroke-linecap:butt;stroke-linejoin:miter;stroke-dasharray:none;stroke-opacity:1"
       d="m 30.690191,35.727951 0.0029,-3.079032"
       id="path142" />
    <path
       style="fill:#8598b7;fill-opacity:1;stroke:none;stroke-width:0.264583px;stroke-linecap:butt;stroke-linejoin:miter;stroke-opacity:1"
       d="m 30.689958,35.547373 0.664026,1.515516 1.776784,0.442932 1.391328,0.703504 0.486012,0.959892 0.02243,0.31404 h 0.87231 l 0.0027,-1.816397 -0.54262,-1.075746 -1.647508,-1.947242 -2.051231,-1.613541 h -0.971875 z"
       id="path146"
       sodipodi:nodetypes="ccccccccccccc" />
    <path
       id="path99"
       style="fill:#7b8fb0;fill-opacity:1;stroke:#506486;stroke-width:0.529168;stroke-linecap:square;stroke-linejoin:miter;stroke-miterlimit:4.7;stroke-dasharray:none;stroke-opacity:1;paint-order:normal"
       d="m 25.882205,26.272285 v 13.21108 h 0.912844 0.912846 v -13.21108 h -0.912846 z" />
    <path
       id="path101"
       style="fill:#7b8fb0;fill-opacity:1;stroke:#506486;stroke-width:0.529168;stroke-linecap:square;stroke-linejoin:miter;stroke-miterlimit:4.7;stroke-dasharray:none;stroke-opacity:1;paint-order:normal"
       d="m 24.148927,32.831198 v 0.09249 c 1.461384,9.9e-5 2.646044,1.13214 2.646148,2.528612 h 0.912857 c 1.03e-4,-1.396474 1.184763,-2.441826 2.64615,-2.441924 v -0.179174 z"
       sodipodi:nodetypes="ccccccc" />
    <path
       id="path103"
       style="fill:#7b8fb0;fill-opacity:1;stroke:#506486;stroke-width:0.529168;stroke-linecap:square;stroke-linejoin:miter;stroke-miterlimit:4.7;stroke-dasharray:none;stroke-opacity:1;paint-order:normal"
       d="m 24.148927,42.104355 v -0.09249 c 1.461384,-9.9e-5 2.646044,-1.132139 2.646148,-2.528612 h 0.912857 c 1.03e-4,1.396473 1.184763,2.528513 2.64615,2.528612 v 0.09249 z"
       sodipodi:nodetypes="ccccccc" />
    <path
       id="path104"
       style="fill:#536583;fill-opacity:1;stroke:#506486;stroke-width:0.529166;stroke-linecap:square;stroke-linejoin:miter;stroke-miterlimit:4.7;stroke-dasharray:none;stroke-opacity:1;paint-order:normal"
       d="m 23.235905,23.798856 v 0.09249 c 1.461384,9.9e-5 2.646045,1.13214 2.646149,2.528613 h 0.912856 c 1.04e-4,-1.396474 1.184764,-2.262651 2.646149,-2.26275 V 23.79886 Z"
       sodipodi:nodetypes="ccccccc" />
    <path
       id="path105"
       style="fill:#536583;fill-opacity:1;stroke:#506486;stroke-width:0.529166;stroke-linecap:square;stroke-linejoin:miter;stroke-miterlimit:4.7;stroke-dasharray:none;stroke-opacity:1;paint-order:normal"
       d="m 29.441224,42.104356 v -0.09249 c -1.461384,-9.9e-5 -2.646045,-1.13214 -2.646149,-2.528612 h -0.912856 c -1.04e-4,1.396473 -1.184765,2.528513 -2.64615,2.528612 v 0.09249 z"
       sodipodi:nodetypes="ccccccc" />
    <path
       id="path106"
       style="fill:#536583;fill-opacity:1;stroke:#506486;stroke-width:0.529166;stroke-linecap:square;stroke-linejoin:miter;stroke-miterlimit:4.7;stroke-dasharray:none;stroke-opacity:1;paint-order:normal"
       d="M 29.428076,32.923686 V 32.8312 c -1.461384,-9.9e-5 -2.646045,-1.13214 -2.646148,-2.528613 h -0.912857 c -1.03e-4,1.396474 -1.184764,2.528514 -2.646149,2.528613 v 0.09249 z"
       sodipodi:nodetypes="ccccccc" />
    <path
       id="path107"
       style="fill:#536583;fill-opacity:1;stroke:#506486;stroke-width:0.529166;stroke-linecap:square;stroke-linejoin:miter;stroke-miterlimit:4.7;stroke-dasharray:none;stroke-opacity:1;paint-order:normal"
       d="m 29.428076,32.8312 v 0.09249 c -1.461384,9.9e-5 -2.646045,1.13214 -2.646148,2.528612 H 25.869071 C 25.868968,34.055829 24.684307,32.923789 23.222922,32.92369 V 32.8312 Z"
       sodipodi:nodetypes="ccccccc" />
    <path
       id="path108"
       style="fill:#536583;fill-opacity:1;stroke:#506486;stroke-width:0.529168;stroke-linecap:square;stroke-linejoin:miter;stroke-miterlimit:4.7;stroke-dasharray:none;stroke-opacity:1;paint-order:normal"
       d="m 31.526257,23.798856 v 0.0925 c -0.410127,2.8e-5 -0.79839,0.08925 -1.144818,0.248421 -0.432896,0.198906 -0.800467,0.507052 -1.063747,0.88691 -0.03066,0.04443 -0.05988,0.08975 -0.08761,0.135909 -0.01392,0.02313 -0.02794,0.04618 -0.0411,0.06976 -0.188171,0.356206 -0.287387,0.74924 -0.289861,1.148251 v 4.067452 5.17e-4 c 0.0026,0.39788 0.101467,0.789794 0.288779,1.145149 0.01446,0.02598 0.02951,0.05157 0.04488,0.077 0.03063,0.05135 0.06309,0.101676 0.09734,0.150895 l 5.41e-4,5.17e-4 c 0.475811,0.672985 1.281693,1.115632 2.195586,1.115694 v 0.0925 h -3.093289 -0.05408 c -0.590223,-4e-5 -1.135048,-0.199686 -1.575307,-0.529683 6.62e-4,-4.3e-4 0.0015,-6.03e-4 0.0022,-10e-4 -0.113303,-0.0838 -0.219451,-0.176071 -0.31744,-0.275952 -0.03959,-0.04052 -0.07769,-0.08221 -0.114647,-0.125057 -0.04973,-0.05762 -0.09682,-0.117277 -0.141145,-0.1788 -0.06445,-0.08878 -0.124243,-0.181042 -0.177377,-0.276986 -0.01591,-0.029 -0.03123,-0.05829 -0.04596,-0.08785 -0.0055,-0.0109 -0.0114,-0.02158 -0.01676,-0.03256 -0.045,-0.09205 -0.08393,-0.187266 -0.11789,-0.284221 -0.0258,-0.07291 -0.04817,-0.146876 -0.06706,-0.221691 -0.01399,-0.05562 -0.02601,-0.111764 -0.03623,-0.168466 -0.02309,-0.12756 -0.0361,-0.256598 -0.03894,-0.386023 -4.01e-4,-0.01813 -0.001,-0.03607 -0.001,-0.05426 v -3.98632 c 1e-6,-0.01819 6.8e-4,-0.03613 0.001,-0.05426 0.0028,-0.129252 0.01588,-0.258116 0.03894,-0.385505 0.01036,-0.05774 0.02247,-0.11495 0.03677,-0.171566 0.01836,-0.07269 0.04001,-0.144593 0.06489,-0.215491 0.04451,-0.127652 0.09883,-0.251582 0.162235,-0.37052 0.0051,-0.01002 0.01036,-0.02001 0.01569,-0.02997 5.59e-4,-0.001 10e-4,-0.0021 0.0017,-0.0031 0.0549,-0.09961 0.116795,-0.195416 0.183867,-0.287321 0.04177,-0.0575 0.08597,-0.11336 0.132492,-0.167431 0.03926,-0.04579 0.07996,-0.09019 0.122218,-0.133326 0.09738,-0.09908 0.202804,-0.190663 0.315276,-0.273885 -5.35e-4,-3.48e-4 -0.001,-6.85e-4 -0.0016,-0.001 0.440095,-0.329579 0.98442,-0.529127 1.574224,-0.529167 z"
       sodipodi:nodetypes="ccsccccccccccccccccccccccccccsccccccccccccccc" />
    <path
       id="path109"
       style="fill:#536583;fill-opacity:1;stroke:#506486;stroke-width:0.529168;stroke-linecap:square;stroke-linejoin:miter;stroke-miterlimit:4.7;stroke-dasharray:none;stroke-opacity:1;paint-order:normal"
       d="m 31.66419,23.798856 v 0.0925 c 0.922623,6.2e-5 1.734594,0.45149 2.208565,1.135331 a 2.7020198,2.5820021 0 0 1 0.08761,0.135909 c 0.01392,0.02313 0.02794,0.04618 0.0411,0.06976 a 2.7020198,2.5820021 0 0 1 0.289861,1.148251 v 4.067452 a 2.7020198,2.5820021 0 0 0 0,5.17e-4 2.7020198,2.5820021 0 0 1 -0.288779,1.145149 c -0.01446,0.02598 -0.02951,0.05157 -0.04488,0.077 a 2.7020198,2.5820021 0 0 1 -0.09734,0.150895 l -5.41e-4,5.17e-4 c -0.475811,0.672985 -1.281693,1.115632 -2.195586,1.115694 v 0.0925 h 3.093289 0.05408 c 0.590222,-4e-5 1.135047,-0.199686 1.575306,-0.529683 -6.62e-4,-4.3e-4 -0.0015,-6.03e-4 -0.0022,-10e-4 a 2.7020198,2.5820021 0 0 0 0.317439,-0.275952 c 0.03959,-0.04052 0.07769,-0.08221 0.114647,-0.125057 a 2.7020198,2.5820021 0 0 0 0.141145,-0.1788 c 0.06445,-0.08878 0.124243,-0.181042 0.177377,-0.276986 a 2.7020198,2.5820021 0 0 0 0.04596,-0.08785 c 0.0055,-0.0109 0.0114,-0.02158 0.01676,-0.03256 0.045,-0.09205 0.08393,-0.187266 0.117891,-0.284221 a 2.7020198,2.5820021 0 0 0 0.06706,-0.221691 c 0.01399,-0.05562 0.02602,-0.111764 0.03623,-0.168466 a 2.7020198,2.5820021 0 0 0 0.03894,-0.386023 c 4.01e-4,-0.01813 0.001,-0.03607 0.001,-0.05426 v -3.98632 c -1e-6,-0.01819 -6.8e-4,-0.03613 -0.001,-0.05426 a 2.7020198,2.5820021 0 0 0 -0.03894,-0.385505 c -0.01036,-0.05774 -0.02247,-0.11495 -0.03677,-0.171566 a 2.7020198,2.5820021 0 0 0 -0.06489,-0.215491 c -0.04451,-0.127652 -0.09883,-0.251582 -0.162236,-0.37052 a 2.7020198,2.5820021 0 0 0 -0.01569,-0.02997 c -5.61e-4,-0.001 -10e-4,-0.0021 -0.0017,-0.0031 -0.0549,-0.09961 -0.116795,-0.195416 -0.183867,-0.287321 a 2.7020198,2.5820021 0 0 0 -0.132492,-0.167431 c -0.03926,-0.04579 -0.07996,-0.09019 -0.122217,-0.133326 a 2.7020198,2.5820021 0 0 0 -0.315277,-0.273885 c 5.36e-4,-3.48e-4 10e-4,-6.85e-4 0.0016,-0.001 C 35.945549,23.998508 35.401224,23.79896 34.81142,23.79892 Z" />
    <path
       id="path19"
       style="fill:#8598b7;fill-opacity:1;stroke:#506486;stroke-width:0.529167;stroke-linecap:square;stroke-linejoin:miter;stroke-miterlimit:4.7;stroke-dasharray:none;stroke-opacity:1;paint-order:normal"
       d="m 22.795348,42.10435 v -0.09249 c 1.396473,-9.9e-5 2.528513,-1.132139 2.528612,-2.528612 h 1.935967 c 9.9e-5,1.396473 1.132139,2.528513 2.528614,2.528612 v 0.09249 z"
       sodipodi:nodetypes="ccccccc" />
    <path
       id="path17"
       style="fill:#8598b7;fill-opacity:1;stroke:#506486;stroke-width:0.529167;stroke-linecap:square;stroke-linejoin:miter;stroke-miterlimit:4.7;stroke-dasharray:none;stroke-opacity:1;paint-order:normal"
       d="m 22.80622,32.831199 v 0.09249 c 1.396473,9.9e-5 2.528513,1.13214 2.528612,2.528612 h 1.896372 c 9.9e-5,-1.396474 1.132139,-2.441826 2.528614,-2.441924 v -0.179174 z"
       sodipodi:nodetypes="ccccccc" />
    <path
       id="path16"
       style="fill:#8e9eb8;fill-opacity:1;stroke:#506486;stroke-width:0.529167;stroke-linecap:square;stroke-linejoin:miter;stroke-miterlimit:4.7;stroke-dasharray:none;stroke-opacity:1;paint-order:normal"
       d="m 23.667816,23.798849 v 0.09249 c 1.396472,9.8e-5 2.528514,1.132139 2.528613,2.528612 h 0.872308 c 10e-5,-1.396474 1.132141,-2.26265 2.528614,-2.26275 v -0.358349 z"
       sodipodi:nodetypes="ccccccc" />
    <path
       id="path18"
       style="fill:#8e9eb8;fill-opacity:1;stroke:#506486;stroke-width:0.529167;stroke-linecap:square;stroke-linejoin:miter;stroke-miterlimit:4.7;stroke-dasharray:none;stroke-opacity:1;paint-order:normal"
       d="m 23.667659,32.877438 v -0.09249 c 1.396473,-9.9e-5 2.528513,-1.13214 2.528612,-2.528612 h 0.87231 c 9.9e-5,1.396473 1.128008,2.441665 2.524481,2.441765 l 0.0041,0.179334 z"
       sodipodi:nodetypes="ccccccc" />
    <path
       id="path28"
       style="fill:#8598b7;fill-opacity:1;stroke:#506486;stroke-width:0.529166;stroke-linecap:square;stroke-linejoin:miter;stroke-miterlimit:4.7;stroke-dasharray:none;stroke-opacity:1;paint-order:normal"
       d="m 28.724884,32.831091 v 0.09249 c -1.396472,9.9e-5 -2.528514,1.13214 -2.528613,2.528613 h -0.872309 c -9.9e-5,-1.396474 -1.13214,-2.528514 -2.528614,-2.528613 v -0.09249 z"
       sodipodi:nodetypes="ccccccc" />
    <path
       id="path24"
       style="fill:#8598b7;fill-opacity:1;stroke:#506486;stroke-width:0.529166;stroke-linecap:square;stroke-linejoin:miter;stroke-miterlimit:4.7;stroke-dasharray:none;stroke-opacity:1;paint-order:normal"
       d="m 22.795348,23.79885 v 0.09249 c 1.396473,9.9e-5 2.528514,1.132139 2.528613,2.528612 h 0.872309 c 9.9e-5,-1.396474 1.13214,-2.26265 2.528613,-2.262749 v -0.35835 z"
       sodipodi:nodetypes="ccccccc" />
    <path
       id="path25"
       style="fill:#8598b7;fill-opacity:1;stroke:#506486;stroke-width:0.529166;stroke-linecap:square;stroke-linejoin:miter;stroke-miterlimit:4.7;stroke-dasharray:none;stroke-opacity:1;paint-order:normal"
       d="m 28.724883,42.10435 v -0.09249 c -1.396472,-9.9e-5 -2.528513,-1.13214 -2.528612,-2.528613 h -0.87231 c -9.9e-5,1.396474 -1.132139,2.528514 -2.528613,2.528613 v 0.09249 z"
       sodipodi:nodetypes="ccccccc" />
    <path
       id="path26"
       style="fill:#8598b7;fill-opacity:1;stroke:#506486;stroke-width:0.529166;stroke-linecap:square;stroke-linejoin:miter;stroke-miterlimit:4.7;stroke-dasharray:none;stroke-opacity:1;paint-order:normal"
       d="m 28.724884,32.923577 v -0.09249 c -1.396472,-9.9e-5 -2.528514,-1.13214 -2.528613,-2.528612 h -0.872309 c -9.9e-5,1.396473 -1.13214,2.528513 -2.528614,2.528612 v 0.09249 z"
       sodipodi:nodetypes="ccccccc" />
    <path
       id="path30"
       style="fill:#8598b7;fill-opacity:1;stroke:#506486;stroke-width:0.529167;stroke-linecap:square;stroke-linejoin:miter;stroke-miterlimit:4.7;stroke-dasharray:none;stroke-opacity:1;paint-order:normal"
       d="m 30.849112,23.798851 v 0.0925 c 0.881642,6.2e-5 1.657547,0.45149 2.110465,1.135331 a 2.5820021,2.5820021 0 0 1 0.08372,0.135909 c 0.0133,0.02313 0.0267,0.04618 0.03927,0.06976 a 2.5820021,2.5820021 0 0 1 0.276986,1.148251 v 4.067452 a 2.5820021,2.5820021 0 0 0 0,5.17e-4 2.5820021,2.5820021 0 0 1 -0.275952,1.145149 c -0.01382,0.02598 -0.0282,0.05157 -0.04289,0.077 a 2.5820021,2.5820021 0 0 1 -0.09302,0.150895 l -5.17e-4,5.17e-4 c -0.454677,0.672985 -1.224763,1.115632 -2.098063,1.115694 v 0.0925 h 2.955892 0.05168 c 0.564006,-4e-5 1.084631,-0.199686 1.505335,-0.529683 -6.33e-4,-4.3e-4 -0.0014,-6.03e-4 -0.0021,-10e-4 a 2.5820021,2.5820021 0 0 0 0.30334,-0.275952 c 0.03783,-0.04052 0.07424,-0.08221 0.109554,-0.125057 a 2.5820021,2.5820021 0 0 0 0.134876,-0.1788 c 0.06159,-0.08878 0.118724,-0.181042 0.169498,-0.276986 a 2.5820021,2.5820021 0 0 0 0.04392,-0.08785 c 0.0053,-0.0109 0.01089,-0.02158 0.01602,-0.03256 0.043,-0.09205 0.0802,-0.187266 0.112655,-0.284221 a 2.5820021,2.5820021 0 0 0 0.06408,-0.221691 c 0.01337,-0.05562 0.02486,-0.111764 0.03462,-0.168466 a 2.5820021,2.5820021 0 0 0 0.03721,-0.386023 c 3.83e-4,-0.01813 10e-4,-0.03607 10e-4,-0.05426 v -3.98632 c -10e-7,-0.01819 -6.5e-4,-0.03613 -10e-4,-0.05426 a 2.5820021,2.5820021 0 0 0 -0.03721,-0.385505 c -0.0099,-0.05774 -0.02147,-0.11495 -0.03514,-0.171566 a 2.5820021,2.5820021 0 0 0 -0.06201,-0.215491 c -0.04253,-0.127652 -0.09444,-0.251582 -0.155029,-0.37052 a 2.5820021,2.5820021 0 0 0 -0.01499,-0.02997 c -5.36e-4,-10e-4 -10e-4,-0.0021 -0.0016,-0.0031 -0.05246,-0.09961 -0.111607,-0.195416 -0.1757,-0.287321 a 2.5820021,2.5820021 0 0 0 -0.126607,-0.167431 c -0.03752,-0.04579 -0.07641,-0.09019 -0.116789,-0.133326 a 2.5820021,2.5820021 0 0 0 -0.301273,-0.273885 c 5.12e-4,-3.48e-4 10e-4,-6.85e-4 0.0015,-0.001 -0.420547,-0.329579 -0.940695,-0.529127 -1.504301,-0.529167 z" />
    <path
       id="path31"
       style="fill:#8598b7;fill-opacity:1;stroke:#506486;stroke-width:0.529167;stroke-linecap:round;stroke-linejoin:round;stroke-miterlimit:4.7;stroke-dasharray:none;stroke-opacity:1"
       d="m 30.861528,23.798849 v 0.0925 c -0.881642,6.2e-5 -1.657547,0.45149 -2.110465,1.135331 a 2.5820021,2.5820021 0 0 0 -0.08372,0.135909 c -0.0133,0.02313 -0.0267,0.04618 -0.03927,0.06976 A 2.5820021,2.5820021 0 0 0 28.351087,26.3806 v 4.067452 a 2.5820021,2.5820021 0 0 1 0,5.17e-4 2.5820021,2.5820021 0 0 0 0.275952,1.145149 c 0.01382,0.02598 0.0282,0.05157 0.04289,0.077 a 2.5820021,2.5820021 0 0 0 0.09302,0.150895 l 5.17e-4,5.17e-4 c 0.454677,0.672985 1.224763,1.115632 2.098063,1.115694 v 0.0925 h -2.955892 -0.05168 c -0.564006,-4e-5 -1.084631,-0.199686 -1.505335,-0.529683 6.33e-4,-4.3e-4 0.0014,-6.03e-4 0.0021,-0.001 a 2.5820021,2.5820021 0 0 1 -0.30334,-0.275952 c -0.03783,-0.04052 -0.07424,-0.08221 -0.109554,-0.125057 a 2.5820021,2.5820021 0 0 1 -0.134876,-0.1788 c -0.06159,-0.08878 -0.118724,-0.181042 -0.169498,-0.276986 a 2.5820021,2.5820021 0 0 1 -0.04392,-0.08785 c -0.0053,-0.0109 -0.01089,-0.02158 -0.01602,-0.03256 -0.043,-0.09205 -0.0802,-0.187266 -0.112655,-0.284221 a 2.5820021,2.5820021 0 0 1 -0.06408,-0.221691 c -0.01337,-0.05562 -0.02486,-0.111764 -0.03462,-0.168466 a 2.5820021,2.5820021 0 0 1 -0.03721,-0.386023 c -3.83e-4,-0.01813 -0.001,-0.03607 -0.001,-0.05426 v -3.98632 c 1e-6,-0.01819 6.5e-4,-0.03613 0.001,-0.05426 a 2.5820021,2.5820021 0 0 1 0.03721,-0.385505 c 0.0099,-0.05774 0.02147,-0.11495 0.03514,-0.171566 a 2.5820021,2.5820021 0 0 1 0.06201,-0.215491 c 0.04253,-0.127652 0.09444,-0.251582 0.155029,-0.37052 a 2.5820021,2.5820021 0 0 1 0.01499,-0.02997 c 5.36e-4,-0.001 10e-4,-0.0021 0.0016,-0.0031 0.05246,-0.09961 0.111607,-0.195416 0.1757,-0.287321 a 2.5820021,2.5820021 0 0 1 0.126607,-0.167431 c 0.03752,-0.04579 0.07641,-0.09019 0.116789,-0.133326 a 2.5820021,2.5820021 0 0 1 0.301273,-0.273885 c -5.12e-4,-3.48e-4 -10e-4,-6.85e-4 -0.0015,-0.001 0.420547,-0.329579 0.940695,-0.529127 1.504301,-0.529167 z" />
    <path
       id="path14"
       style="fill:#8598b7;fill-opacity:1;stroke:#506486;stroke-width:0.529166;stroke-linecap:square;stroke-linejoin:miter;stroke-miterlimit:4.7;stroke-dasharray:none;stroke-opacity:1;paint-order:normal"
       d="m 25.311399,35.4523 v 4.031062 H 26.2713 27.231204 V 35.4523 H 26.2713 Z" />
    <path
       id="path147"
       style="fill:#8598b7;fill-opacity:1;stroke:#506486;stroke-width:0.529166;stroke-linecap:square;stroke-linejoin:miter;stroke-miterlimit:4.7;stroke-dasharray:none;stroke-opacity:1;paint-order:normal"
       d="m 38.431456,42.104356 v -0.09249 c -1.396472,-9.9e-5 -2.528513,-1.13214 -2.528612,-2.528613 h -0.87231 c -9.9e-5,1.396474 -1.132139,2.528514 -2.528613,2.528613 v 0.09249 z"
       sodipodi:nodetypes="ccccccc" />
    <path
       id="path119"
       style="fill:#8598b7;fill-opacity:1;stroke:#506486;stroke-width:0.529166;stroke-linecap:round;stroke-linejoin:round;stroke-miterlimit:4.7;stroke-dasharray:none;stroke-opacity:1;paint-order:normal"
       d="m 25.32395,26.399055 v 4.031062 h 1.513566 1.513572 v -4.031062 h -1.513572 z" />
    <path
       id="path120"
       style="fill:#8598b7;fill-opacity:1;stroke:#506486;stroke-width:0.529166;stroke-linecap:round;stroke-linejoin:round;stroke-miterlimit:4.7;stroke-dasharray:none;stroke-opacity:1;paint-order:normal"
       d="m 33.359553,26.399055 v 4.031062 h 1.513566 1.513572 v -4.031062 h -1.513572 z" />
    <path
       style="fill:none;stroke:#506486;stroke-width:0.529167;stroke-linecap:butt;stroke-linejoin:miter;stroke-dasharray:none;stroke-opacity:1"
       d="m 26.189972,35.452191 v 4.031171"
       id="path118" />
    <path
       style="fill:none;stroke:#506486;stroke-width:0.529167;stroke-linecap:butt;stroke-linejoin:miter;stroke-dasharray:none;stroke-opacity:1"
       d="m 31.271719,32.92627 c 0,0 4.633825,2.724967 4.633825,4.740586"
       id="path148"
       sodipodi:nodetypes="cc" />
    <path
       style="fill:none;stroke:#506486;stroke-width:0.529167;stroke-linecap:butt;stroke-linejoin:miter;stroke-dasharray:none;stroke-opacity:1"
       d="m 30.689958,35.547373 c 0,0 -0.07129,0.927488 0.546548,1.416529 0.803435,0.635946 1.911802,0.565583 2.863233,1.118617 1.153261,0.67035 0.911536,1.575992 0.911536,1.575992"
       id="path149"
       sodipodi:nodetypes="cssc" />
    <path
       style="fill:none;stroke:#506486;stroke-width:0.529167;stroke-linecap:butt;stroke-linejoin:miter;stroke-dasharray:none;stroke-opacity:1"
       d="m 35.905548,37.66686 -0.0027,1.816393"
       id="path150" />
    <path
       style="fill:none;stroke:#506486;stroke-width:0.529166;stroke-linecap:butt;stroke-linejoin:miter;stroke-dasharray:none;stroke-opacity:1"
       d="m 34.634577,35.453541 -3.944529,-0.0027"
       id="path151" />
    <path
       style="fill:none;stroke:#506486;stroke-width:0.529166;stroke-linecap:butt;stroke-linejoin:miter;stroke-dasharray:none;stroke-opacity:1"
       d="m 30.689958,35.716652 0.0027,-3.079032"
       id="path152" />
    <path
       style="fill:none;stroke:#506486;stroke-width:0.529167;stroke-linecap:butt;stroke-linejoin:miter;stroke-dasharray:none;stroke-opacity:1"
       d="m 32.662221,35.548727 c 0,0 -0.149154,0.572145 0.991643,1.223804 1.373041,0.784324 1.376674,2.710726 1.376674,2.710726"
       id="path153"
       sodipodi:nodetypes="csc" />
  </g>
</svg>
