<?xml version="1.0" encoding="UTF-8" standalone="no"?>
<!-- Created with Inkscape (http://www.inkscape.org/) -->

<svg
   width="280.8074mm"
   height="94.763939mm"
   viewBox="0 0 280.8074 94.763939"
   version="1.1"
   id="svg1"
   inkscape:version="1.3 (0e150ed6c4, 2023-07-21)"
   sodipodi:docname="Portfolio_workPreviewElement_Vatik.svg"
   xmlns:inkscape="http://www.inkscape.org/namespaces/inkscape"
   xmlns:sodipodi="http://sodipodi.sourceforge.net/DTD/sodipodi-0.dtd"
   xmlns="http://www.w3.org/2000/svg"
   xmlns:svg="http://www.w3.org/2000/svg">
  <sodipodi:namedview
     id="namedview1"
     pagecolor="#505050"
     bordercolor="#000000"
     borderopacity="1"
     inkscape:showpageshadow="0"
     inkscape:pageopacity="0"
     inkscape:pagecheckerboard="0"
     inkscape:deskcolor="#4c4c4c"
     inkscape:document-units="mm"
     borderlayer="false"
     showborder="false"
     inkscape:zoom="1.0721378"
     inkscape:cx="588.54377"
     inkscape:cy="249.50152"
     inkscape:window-width="1920"
     inkscape:window-height="1009"
     inkscape:window-x="-8"
     inkscape:window-y="-8"
     inkscape:window-maximized="1"
     inkscape:current-layer="layer1" />
  <defs
     id="defs1" />
  <g
     inkscape:label="Слой 1"
     inkscape:groupmode="layer"
     id="layer1"
     transform="translate(9.8772612,-5.8087287)">
    <rect
       style="fill:#f9f9f9;stroke:none;stroke-width:1.85208;stroke-linecap:round;stroke-linejoin:round;stroke-miterlimit:4.7;stroke-dasharray:none"
       id="rect17"
       width="280.8074"
       height="94.763939"
       x="-9.8772612"
       y="5.8087287" />
    <g
       id="g1"
       transform="translate(-3.7991118,-1.2947974)">
      <g
         id="g22"
         transform="translate(12.172623,0.53522799)">
        <path
           style="fill:none;stroke:#000000;stroke-width:1.85208;stroke-linecap:butt;stroke-linejoin:miter;stroke-dasharray:none;stroke-opacity:1"
           d="m 133.82398,78.137008 c 0,0 -8.11379,0.99001 -8.14377,-1.78916 -0.0301,-2.79306 8.07229,0.81806 8.14377,-1.97425 0.0725,-2.83113 -8.18558,0.41021 -8.14377,-2.42154 0.0415,-2.80832 8.02764,0.644184 8.14377,-2.16204 0.11915,-2.879225 -8.23112,-0.02071 -8.14377,-2.901071 0.0857,-2.824586 8.05141,0.468618 8.14377,-2.355756 0.0943,-2.885061 -8.36935,-0.06693 -8.14377,-2.944703 0.21605,-2.756152 7.91796,1.18487 8.14377,-1.5705 0.23639,-2.88442 -8.33572,-0.12242 -8.14377,-3.01014 0.18454,-2.77632 7.84549,0.934163 8.14377,-1.83225 0.32106,-2.977663 -8.35656,-0.808042 -8.14377,-3.795395 0.20151,-2.829032 8.19652,0.370895 8.14377,-2.464815 -0.0522,-2.806063 -8.0608,0.66769 -8.14377,-2.13763 -0.0844,-2.8546 7.99105,0.19062 8.14377,-2.66114 0.15919,-2.97249 -8.42815,-0.70137 -8.14377,-3.66451 0.26644,-2.77622 7.92572,0.86093 8.14377,-1.91951 0.22928,-2.9236 -8.25744,-0.39817 -8.14377,-3.32855 0.1105,-2.84875 8.29932,0.23378 8.14377,-2.61286 -0.14458,-2.6459 -5.15259,-1.32311 -7.78902,-1.58936 -0.25262,-0.0255 -0.7617,-10e-6 -0.7617,-10e-6"
           id="path20"
           sodipodi:nodetypes="caaaaaaaaaaaaaaaaaaac" />
        <rect
           style="fill:#000000;stroke:none;stroke-width:1.85208;stroke-linecap:round;stroke-linejoin:round;stroke-miterlimit:4.7;stroke-dasharray:none"
           id="rect7"
           width="41.951904"
           height="6.2287269"
           x="108.77577"
           y="28.946106" />
      </g>
      <g
         id="g23"
         transform="translate(6.0946317,0.53522799)">
        <path
           style="fill:none;stroke:#000000;stroke-width:1.85208;stroke-linecap:butt;stroke-linejoin:miter;stroke-dasharray:none;stroke-opacity:1"
           d="m 171.98291,41.927856 c 0.29212,2.78402 8.1262,-0.748871 8.14377,2.05038 0.0176,2.808349 -8.00404,-0.645476 -8.14377,2.15945 -0.14425,2.895574 8.15059,0.154598 8.14377,3.053755 -0.007,2.894084 -8.33572,0.12242 -8.14377,3.01014 0.18454,2.77632 8.05306,-0.94872 8.14377,1.83225 0.0923,2.82846 -7.92301,-0.42195 -8.14377,2.39939 -0.23436,2.99504 8.42277,0.8696 8.14377,3.86082 -0.26064,2.79442 -8.0608,-0.66769 -8.14377,2.13763 -0.0844,2.8546 7.99105,-0.19062 8.14377,2.66114 0.15919,2.97249 -8.42815,0.70137 -8.14377,3.66451 0.26644,2.77622 7.92572,-0.86093 8.14377,1.91951 0.22928,2.9236 -8.25744,0.39817 -8.14377,3.32855 0.1105,2.84875 8.29932,-0.23378 8.14377,2.61286 -0.14458,2.6459 -5.15259,1.32311 -7.78902,1.58936 -0.25262,0.0255 -0.7617,1e-5 -0.7617,1e-5"
           id="path19"
           sodipodi:nodetypes="caaaaaaaaaaaaaac" />
        <rect
           style="fill:#000000;stroke:none;stroke-width:1.85208;stroke-linecap:round;stroke-linejoin:round;stroke-miterlimit:4.7;stroke-dasharray:none"
           id="rect4"
           width="10.005853"
           height="6.2287269"
           x="171.03455"
           y="28.946106" />
      </g>
      <g
         id="g20"
         transform="translate(17.235907,0.67351681)">
        <path
           style="fill:none;stroke:#000000;stroke-width:1.85208;stroke-linecap:butt;stroke-linejoin:miter;stroke-dasharray:none;stroke-opacity:1"
           d="m 25.949006,77.344272 c 0,0 -8.113793,0.99001 -8.143774,-1.78916 -0.03013,-2.79306 8.072295,0.81806 8.143774,-1.97425 0.07247,-2.83113 -8.185581,0.41021 -8.143774,-2.42154 0.04146,-2.80832 7.86863,0.63308 8.143774,-2.16204 0.296159,-3.0086 -8.45926,-0.98506 -8.143775,-3.9917 0.292126,-2.78402 8.126204,0.74887 8.143775,-2.05038 0.01763,-2.80835 -8.240212,0.6473 -8.143774,-2.15945 0.09493,-2.76297 7.917963,1.18487 8.143774,-1.5705 0.236387,-2.88442 -8.335722,-0.12242 -8.143774,-3.01014 0.184544,-2.77632 8.053058,0.94872 8.143774,-1.83225 0.09227,-2.82846 -7.923009,0.42195 -8.143774,-2.39939 -0.234358,-2.99504 8.422768,-0.8696 8.143774,-3.86082 -0.260639,-2.79442 -8.060803,0.66769 -8.143774,-2.13763 -0.08443,-2.8546 7.991054,0.19062 8.143774,-2.66114 0.159186,-2.97249 -8.428152,-0.70137 -8.143774,-3.66451 0.266439,-2.77622 7.925723,0.86093 8.143774,-1.91951 0.229279,-2.9236 -8.25744,-0.39817 -8.143775,-3.32855 0.110498,-2.84875 8.299325,0.23378 8.143776,-2.61286 -0.14458,-2.6459 -5.152594,-1.32311 -7.789027,-1.58936 -0.252613,-0.0255 -0.761694,-10e-6 -0.761694,-10e-6"
           id="path17"
           sodipodi:nodetypes="caaaaaaaaaaaaaaaaaaac" />
        <rect
           style="fill:#000000;stroke:none;stroke-width:1.85207;stroke-linecap:round;stroke-linejoin:round;stroke-miterlimit:4.7;stroke-dasharray:none"
           id="rect5"
           width="55.396259"
           height="5.1884627"
           x="-0.081829026"
           y="-62.385353"
           transform="rotate(120)" />
      </g>
      <g
         id="g24"
         transform="translate(0,-0.18608313)">
        <path
           style="fill:none;stroke:#000000;stroke-width:1.85208;stroke-linecap:butt;stroke-linejoin:miter;stroke-dasharray:none;stroke-opacity:1"
           d="m 210.45725,78.137008 c 0,0 -8.11379,0.99001 -8.14377,-1.78916 -0.0301,-2.79306 8.07229,0.81806 8.14377,-1.97425 0.0725,-2.83113 -8.18558,0.41021 -8.14377,-2.42154 0.0415,-2.80832 7.86863,0.63308 8.14377,-2.16204 0.29616,-3.0086 -8.45926,-0.98506 -8.14377,-3.9917 0.29212,-2.78402 8.1262,0.74887 8.14377,-2.05038 0.0176,-2.80835 -8.24021,0.6473 -8.14377,-2.15945 0.0949,-2.76297 7.91796,1.18487 8.14377,-1.5705 0.23639,-2.88442 -8.33572,-0.12242 -8.14377,-3.01014 0.18454,-2.77632 8.05306,0.94872 8.14377,-1.83225 0.0923,-2.82846 -7.92301,0.42195 -8.14377,-2.39939 -0.23436,-2.99504 8.42277,-0.8696 8.14377,-3.86082 -0.26064,-2.79442 -8.0608,0.66769 -8.14377,-2.13763 -0.0844,-2.8546 7.99105,0.19062 8.14377,-2.66114 0.15919,-2.97249 -8.42815,-0.70137 -8.14377,-3.66451 0.26644,-2.77622 7.92572,0.86093 8.14377,-1.91951 0.22928,-2.9236 -8.25744,-0.39817 -8.14377,-3.32855 0.1105,-2.84875 8.29932,0.23378 8.14377,-2.61286 -0.14458,-2.6459 -5.15259,-1.32311 -7.78902,-1.58936 -0.25262,-0.0255 -0.7617,-10e-6 -0.7617,-10e-6"
           id="path3"
           sodipodi:nodetypes="caaaaaaaaaaaaaaaaaaac" />
        <rect
           style="fill:#000000;stroke:none;stroke-width:1.85207;stroke-linecap:round;stroke-linejoin:round;stroke-miterlimit:4.7;stroke-dasharray:none"
           id="rect16"
           width="34.985413"
           height="5.1884613"
           x="184.80421"
           y="106.7148"
           transform="matrix(0.70710678,0.70710678,0.70710678,-0.70710678,0,0)" />
        <rect
           style="fill:#000000;stroke:none;stroke-width:1.85207;stroke-linecap:round;stroke-linejoin:round;stroke-miterlimit:4.7;stroke-dasharray:none"
           id="rect6"
           width="34.985413"
           height="5.1884613"
           x="-142.31306"
           y="184.19136"
           transform="matrix(-0.70710678,0.70710678,0.70710678,0.70710678,0,0)" />
      </g>
      <g
         id="g21"
         transform="translate(16.917244,0.25499106)">
        <path
           style="fill:none;stroke:#000000;stroke-width:1.85208;stroke-linecap:butt;stroke-linejoin:miter;stroke-dasharray:none;stroke-opacity:1"
           d="m 74.684824,31.072421 c 0,0 -8.113793,-0.99001 -8.143774,1.78916 -0.03013,2.79306 8.072295,-0.81806 8.143774,1.97425 0.07247,2.83113 -8.185581,-0.41021 -8.143774,2.42154 0.04146,2.80832 7.86863,-0.63308 8.143774,2.16204 0.296159,3.0086 -8.45926,0.98506 -8.143775,3.9917 0.292126,2.78402 8.126204,-0.74887 8.143775,2.05038 0.01763,2.80835 -8.240212,-0.6473 -8.143774,2.15945 0.09493,2.76297 7.917963,-1.18487 8.143774,1.5705 0.236387,2.88442 -8.335722,0.12242 -8.143774,3.01014 0.184544,2.77632 8.053058,-0.94872 8.143774,1.83225 0.09227,2.82846 -7.923009,-0.42195 -8.143774,2.39939 -0.234358,2.99504 8.422768,0.8696 8.143774,3.86082 -0.260639,2.79442 -8.060803,-0.66769 -8.143774,2.13763 -0.08443,2.8546 7.991054,-0.19062 8.143774,2.66114 0.159186,2.97249 -8.428152,0.70137 -8.143774,3.66451 0.266439,2.77622 7.925723,-0.86093 8.143774,1.91951 0.229279,2.9236 -8.25744,0.39817 -8.143775,3.32855 0.110498,2.84875 8.299325,-0.23378 8.143776,2.61286 -0.14458,2.6459 -5.152594,1.32311 -7.789027,1.58936 -0.252613,0.0255 -0.761694,1e-5 -0.761694,1e-5"
           id="path18"
           sodipodi:nodetypes="caaaaaaaaaaaaaaaaaaac" />
        <rect
           style="fill:#000000;stroke:none;stroke-width:1.85207;stroke-linecap:round;stroke-linejoin:round;stroke-miterlimit:4.7;stroke-dasharray:none"
           id="rect15"
           width="55.396259"
           height="5.1884627"
           x="63.234573"
           y="46.44482"
           transform="matrix(0.5,0.8660254,0.8660254,-0.5,0,0)" />
        <rect
           style="fill:#000000;stroke:none;stroke-width:1.85207;stroke-linecap:round;stroke-linejoin:round;stroke-miterlimit:4.7;stroke-dasharray:none"
           id="rect3"
           width="17.195105"
           height="5.1884627"
           x="-90.019547"
           y="52.935707"
           transform="scale(-1,1)" />
      </g>
    </g>
  </g>
</svg>
