<?xml version="1.0" encoding="UTF-8" standalone="no"?>
<!-- Created with Inkscape (http://www.inkscape.org/) -->

<svg
   width="53.638603"
   height="28.992115"
   viewBox="0 0 53.638603 28.992116"
   version="1.1"
   id="svg5"
   inkscape:version="1.3 (0e150ed6c4, 2023-07-21)"
   sodipodi:docname="Portfolio_workPreviewElement_LXY.svg"
   xmlns:inkscape="http://www.inkscape.org/namespaces/inkscape"
   xmlns:sodipodi="http://sodipodi.sourceforge.net/DTD/sodipodi-0.dtd"
   xmlns="http://www.w3.org/2000/svg"
   xmlns:svg="http://www.w3.org/2000/svg">
  <sodipodi:namedview
     id="namedview7"
     pagecolor="#505050"
     bordercolor="#eeeeee"
     borderopacity="1"
     inkscape:showpageshadow="0"
     inkscape:pageopacity="0"
     inkscape:pagecheckerboard="0"
     inkscape:deskcolor="#505050"
     inkscape:document-units="px"
     showgrid="false"
     inkscape:zoom="2"
     inkscape:cx="-29"
     inkscape:cy="39.25"
     inkscape:window-width="1920"
     inkscape:window-height="1009"
     inkscape:window-x="-8"
     inkscape:window-y="-8"
     inkscape:window-maximized="1"
     inkscape:current-layer="layer1" />
  <defs
     id="defs2" />
  <g
     inkscape:label="Слой 1"
     inkscape:groupmode="layer"
     id="layer1"
     transform="translate(-98.980057,-148.51273)">
    <rect
       style="fill:#f9f9f9;fill-opacity:1;stroke:#1a1a1a;stroke-width:1;stroke-linecap:square;stroke-linejoin:miter;stroke-miterlimit:4.7;stroke-dasharray:none;stroke-opacity:1"
       id="rect19"
       width="52.638596"
       height="27.991661"
       x="99.480057"
       y="149.01273" />
    <path
       style="fill:#1a1a1a;fill-opacity:1;stroke:#1a1a1a;stroke-width:1px;stroke-linecap:butt;stroke-linejoin:miter;stroke-opacity:1"
       d="m 107.89296,177.00484 v -27.99211 l 8.4129,27.99211 z"
       id="path14" />
    <path
       style="fill:none;stroke:none;stroke-width:1px;stroke-linecap:butt;stroke-linejoin:miter;stroke-opacity:1"
       d="m 107.89296,169.01258 v 7.99226"
       id="path7" />
    <path
       id="path5"
       style="fill:#82aaaf;fill-opacity:1;stroke:#1a1a1a;stroke-width:1px;stroke-linecap:butt;stroke-linejoin:miter;stroke-opacity:1"
       d="m 99.480061,149.01273 v 27.99165 H 110.2944 l -2.4015,-7.99205 v -19.9996 z" />
    <path
       style="fill:#1a1a1a;fill-opacity:1;stroke:#1a1a1a;stroke-width:1px;stroke-linecap:butt;stroke-linejoin:miter;stroke-opacity:1"
       d="m 143.53372,149.01273 v 27.99211 l -8.41289,-27.99211 z"
       id="path13" />
    <path
       style="fill:#1a1a1a;fill-opacity:1;stroke:#1a1a1a;stroke-width:1px;stroke-linecap:butt;stroke-linejoin:miter;stroke-opacity:1"
       d="m 124.71876,149.01273 v 27.99211 l -8.4129,-27.99211 z"
       id="path15" />
    <g
       id="g29432"
       style="fill:#ffffff;stroke-width:4.78844;stroke-linecap:round"
       transform="matrix(0.3134602,0,0,0.31305167,218.3531,129.83631)">
      <g
         id="path29428"
         style="stroke-width:4.78844">
        <path
           style="color:#000000;fill:#ececec;fill-opacity:1;stroke-width:4.78844;-inkscape-stroke:none"
           d="m 77.93018,64.67904 -21.3877,83.06205 42.289784,-0.51205 z"
           id="path29456" />
        <path
           style="color:#000000;fill:#333333;fill-opacity:1;stroke-width:4.78844;-inkscape-stroke:none"
           d="M 76.771484,63.431051 54.992187,148.49331 H 99.663632 L 79.091797,63.434958 Z m 1.148438,4.173519 19.378906,78.19981 -39.207031,0.25535 z"
           id="path29458"
           sodipodi:nodetypes="ccccccccc" />
      </g>
      <g
         id="path29430"
         style="stroke-width:4.78844">
        <path
           style="color:#000000;fill:#ececec;fill-opacity:1;stroke-width:4.78844;-inkscape-stroke:none"
           d="M 56.54248,147.74109 91.820805,147.36133 77.680718,135.82435 77.93018,64.67904 Z"
           id="path29462" />
        <path
           style="color:#000000;fill:#333333;fill-opacity:1;stroke-width:4.78844;-inkscape-stroke:none"
           d="m 76.771484,63.431051 -21.777343,85.079859 1.560546,-0.0176 H 95.138672 L 78.880859,135.25779 79.126953,63.733766 Z m -0.07227,9.003569 -0.21875,63.956 12.023437,9.44437 -30.414062,0.24619 z"
           id="path29464"
           sodipodi:nodetypes="cccccccccccc" />
      </g>
    </g>
    <g
       id="path29434"
       transform="matrix(0.50010497,0,0,0.50010497,219.53176,139.50118)"
       style="stroke-width:1.99957">
      <path
         style="color:#000000;fill:#ececec;fill-opacity:1;stroke-width:2.99937;stroke-linecap:round;stroke-linejoin:bevel;-inkscape-stroke:none"
         d="M 55.016012,54.794286 73.28961,21.007921 h 4.541379 L 59.590115,72.835555 Z"
         id="path29468" />
      <path
         style="color:#000000;fill:#333333;fill-opacity:1;stroke-width:1.99957;stroke-linecap:round;stroke-linejoin:bevel;-inkscape-stroke:none"
         d="m 73.289062,20.382811 -0.658203,0.392579 -18.27539,33.66211 0.06103,0.529768 4.653077,18.659685 1.041635,-10e-7 18.427852,-52.244144 -0.708984,-1 z m 0.447266,1.5 h 3.035156 L 59.707031,70.246094 55.814453,54.894531 Z"
         id="path29470"
         sodipodi:nodetypes="cccccccccccccc" />
    </g>
    <g
       id="path29436"
       transform="matrix(0.50010497,0,0,0.50010497,219.53176,139.50118)"
       style="stroke-width:1.99957">
      <path
         style="color:#000000;fill:#ececec;fill-opacity:1;stroke-width:2.99937;stroke-linecap:round;stroke-linejoin:bevel;-inkscape-stroke:none"
         d="m 61.305408,21.141245 -9.497867,0.0066 11.482619,20.480882 3.384233,7.274834 2.228585,24.075263 8.755632,-12.953182 -9.192403,-17.175153 -2.044002,-6.205371 z"
         id="path29474" />
      <path
         style="color:#000000;fill:#333333;fill-opacity:1;stroke-width:1.99957;stroke-linecap:round;stroke-linejoin:bevel;-inkscape-stroke:none"
         d="m 61.31844,20.382811 -9.511799,-0.0024 -0.652344,1.115235 11.982685,19.859913 3.650638,8.771236 1.364957,23.500204 1.409909,0.002 8.716811,-13.183653 0.04102,-0.773437 -9.321912,-15.827011 -2.855734,-8.04672 -4.11134,-14.899696 z m -0.541015,1.5 3.939464,14.386024 2.877219,8.107267 0.05078,0.119141 9.138314,15.485226 -7.326172,10.839843 -1.186989,-20.961129 -0.06836,-0.246093 -3.717045,-8.915768 -0.02539,-0.05078 -11.37331,-18.768117 z"
         id="path29476"
         sodipodi:nodetypes="ccccccccccccccccccccccccc" />
    </g>
    <g
       id="path29438"
       transform="matrix(0.50010497,0,0,0.50010497,219.53176,139.50118)"
       style="stroke-width:1.99957">
      <path
         style="color:#000000;fill:#ececec;stroke-width:2.99937;stroke-linecap:round;-inkscape-stroke:none"
         d="m 68.902978,72.978834 17.511264,-25.906363 4.337391,-26.06455 h 7.153171 L 84.499233,73.002433 Z"
         id="path29480" />
      <path
         style="color:#000000;fill:#333333;fill-opacity:1;stroke-width:1.99957;stroke-linecap:round;-inkscape-stroke:none"
         d="m 90.115234,20.382811 -4.414062,26.404298 -17.548843,26.839844 1.410157,0.002 16.177734,0.02539 13.132827,-53.271486 z m 1.271485,1.5 h 5.548828 L 84.578111,72.152344 70.972642,72.13086 87.126953,47.357422 Z"
         id="path29482"
         sodipodi:nodetypes="ccccccccccccc" />
    </g>
    <g
       id="path29440"
       transform="matrix(0.50010497,0,0,0.50010497,219.53176,139.50118)"
       style="stroke-width:1.99957">
      <path
         style="color:#000000;fill:#ececec;fill-opacity:1;stroke-width:2.99937;stroke-linecap:round;-inkscape-stroke:none"
         d="M 86.414242,47.072471 73.28961,21.007921 h 4.541379 l 15.784442,16.636658 z"
         id="path29486" />
      <path
         style="color:#000000;fill:#333333;fill-opacity:1;stroke-width:1.99957;stroke-linecap:round;-inkscape-stroke:none"
         d="m 73.289062,21.008934 12.994141,27.471535 0.726563,-0.953125 7.589843,-9.935547 -16.447265,-17.208986 h -4.863282 z m 1.596065,0.748878 2.945862,0.0097 14.79987,15.929729 -6.085937,7.96875 z"
         id="path29488"
         sodipodi:nodetypes="cccccccccccc" />
    </g>
    <path
       style="color:#000000;fill:#bdae71;fill-opacity:1;stroke-width:0.999998;stroke-dasharray:none"
       d="m 271.69724,149.69473 -6.56921,26.64136 h 2.42141 l 6.56921,-26.64136 z"
       id="path29442"
       sodipodi:nodetypes="ccccc" />
    <path
       style="color:#000000;fill:#bdae71;fill-opacity:1;stroke-width:0.999998;stroke-dasharray:none"
       d="m 237.27941,149.6935 -6.82641,26.62889 h 2.42141 l 6.82641,-26.62889 z"
       id="path29444"
       sodipodi:nodetypes="ccccc" />
    <path
       style="fill:#1a1a1a;fill-opacity:1;stroke:#1a1a1a;stroke-width:1px;stroke-linecap:butt;stroke-linejoin:miter;stroke-opacity:1"
       d="m 124.71876,177.00484 v -27.99211 l 8.41289,27.99211 z"
       id="path16" />
    <path
       id="path8"
       style="fill:#82aaaf;fill-opacity:1;stroke:#1a1a1a;stroke-width:1px;stroke-linecap:butt;stroke-linejoin:miter;stroke-opacity:1"
       d="m 124.71859,149.01273 -8.41285,27.99165 h 8.41285 l 8.41284,-27.99165 z" />
    <path
       id="path9"
       style="fill:#82aaaf;fill-opacity:1;stroke:#1a1a1a;stroke-width:1px;stroke-linecap:butt;stroke-linejoin:miter;stroke-opacity:1"
       d="m 143.5334,149.01273 -8.41283,27.99165 h 8.41283 l 8.41285,-27.99165 z" />
    <ellipse
       style="fill:#82aaaf;fill-opacity:1;stroke:#1a1a1a;stroke-width:0.999997;stroke-linecap:square;stroke-linejoin:miter;stroke-miterlimit:4.7;stroke-dasharray:none;stroke-opacity:1"
       id="circle20"
       cx="150.56877"
       cy="175.45448"
       rx="1.5498893"
       ry="1.549895" />
    <ellipse
       style="fill:#f9f9f9;fill-opacity:1;stroke:#1a1a1a;stroke-width:0.999997;stroke-linecap:square;stroke-linejoin:miter;stroke-miterlimit:4.7;stroke-dasharray:none;stroke-opacity:1"
       id="path19"
       cx="101.02995"
       cy="150.56262"
       rx="1.5498893"
       ry="1.549895" />
  </g>
</svg>
