<?xml version="1.0" encoding="UTF-8" standalone="no"?>
<!-- Created with Inkscape (http://www.inkscape.org/) -->

<svg
   width="500"
   height="376.05768"
   viewBox="0 0 132.29167 99.498597"
   version="1.1"
   id="svg5"
   xml:space="preserve"
   inkscape:version="1.3 (0e150ed6c4, 2023-07-21)"
   sodipodi:docname="Portfolio_workPreviewElement_Logo_Ww.svg"
   inkscape:export-filename="Logo_Ww.png"
   inkscape:export-xdpi="500"
   inkscape:export-ydpi="500"
   xmlns:inkscape="http://www.inkscape.org/namespaces/inkscape"
   xmlns:sodipodi="http://sodipodi.sourceforge.net/DTD/sodipodi-0.dtd"
   xmlns="http://www.w3.org/2000/svg"
   xmlns:svg="http://www.w3.org/2000/svg"><sodipodi:namedview
     id="namedview7"
     pagecolor="#505050"
     bordercolor="#eeeeee"
     borderopacity="1"
     inkscape:showpageshadow="0"
     inkscape:pageopacity="0"
     inkscape:pagecheckerboard="0"
     inkscape:deskcolor="#505050"
     inkscape:document-units="mm"
     showgrid="false"
     inkscape:zoom="1.0444209"
     inkscape:cx="11.489621"
     inkscape:cy="212.07925"
     inkscape:window-width="1920"
     inkscape:window-height="1009"
     inkscape:window-x="-8"
     inkscape:window-y="-8"
     inkscape:window-maximized="1"
     inkscape:current-layer="layer1" /><defs
     id="defs2" /><g
     inkscape:label="Слой 1"
     inkscape:groupmode="layer"
     id="layer1"
     transform="translate(-12.138539,-15.411445)"><g
       id="g1359"
       inkscape:export-xdpi="300"
       inkscape:export-ydpi="300"
       transform="matrix(0.34315274,0,0,0.34315274,-20.837651,63.592126)"
       inkscape:export-filename="..\..\SSPS STP\Website\portfolio\W.png"
       style="stroke-width:2.91416"><g
         id="g6909"><path
           id="path845"
           style="fill:#983030;fill-opacity:1;stroke-width:4.57222;stroke-linecap:square"
           d="m 213.96177,114.58163 c -6.93512,0 -12.55714,-2.06303 -12.55714,-10.11547 0,-8.052441 5.62202,-14.580237 12.55714,-14.580237 6.93511,0 12.55714,6.527796 12.55714,14.580237 0,8.05244 -5.62203,10.11547 -12.55714,10.11547 z"
           sodipodi:nodetypes="sssss" /><g
           id="g881"
           style="stroke-width:2.91416"><path
             id="path871"
             style="fill:#c34343;stroke-width:6.13094;stroke-linecap:square"
             d="m 190.09382,116.01927 c -5.1053,1.58534 -8.55297,5.21098 -8.55297,12.51035 -1e-5,10.79759 7.53838,19.55126 16.83773,19.55126 9.29936,0 16.83825,-8.75368 16.83825,-19.55126 0,-4.81057 -1.49941,-8.02362 -3.98115,-10.11153 -0.74061,1.51517 -1.36458,3.09056 -2.21485,4.54701 -1.14347,1.95869 -2.70673,3.69305 -4.63021,4.89479 -0.82577,0.51593 -1.72094,0.93472 -2.67115,1.14722 -0.95022,0.2125 -1.95909,0.21208 -2.8851,-0.0889 -1.20057,-0.3902 -2.18882,-1.25303 -3.04271,-2.18281 -2.7578,-3.00293 -4.43028,-6.84099 -5.69784,-10.71615 z" /><path
             id="path860"
             style="fill:#a83535;fill-opacity:1;stroke-width:6.13094;stroke-linecap:square"
             d="m 237.82972,116.01927 c 5.1053,1.58534 8.55297,5.21098 8.55297,12.51035 1e-5,10.79759 -7.53838,19.55126 -16.83773,19.55126 -9.29937,0 -16.83825,-8.75368 -16.83825,-19.55126 0,-4.81057 1.49941,-8.02362 3.98115,-10.11153 0.74061,1.51517 1.36458,3.09056 2.21485,4.54701 1.14347,1.95869 2.70672,3.69305 4.63021,4.89479 0.82577,0.51593 1.72094,0.93472 2.67115,1.14722 0.95022,0.2125 1.95909,0.21208 2.8851,-0.0889 1.20057,-0.3902 2.18882,-1.25303 3.04271,-2.18281 2.7578,-3.00293 4.43028,-6.84099 5.69784,-10.71615 z" /><path
             style="fill:#a83535;fill-opacity:1;stroke:none;stroke-width:0.771035px;stroke-linecap:butt;stroke-linejoin:miter;stroke-opacity:1"
             d="M 181.54094,128.44782 V 86.783332 l 8.5518,29.232288 z"
             id="path864" /><path
             style="fill:#c34343;fill-opacity:1;stroke:none;stroke-width:0.771035px;stroke-linecap:butt;stroke-linejoin:miter;stroke-opacity:1"
             d="M 246.37902,128.44782 V 86.783332 l -8.5518,29.232288 z"
             id="path862" /></g></g></g><g
       id="g1370"
       transform="matrix(0.34315274,0,0,0.34315274,-23.373375,62.989402)"
       inkscape:export-xdpi="300"
       inkscape:export-ydpi="300"
       style="stroke-width:2.91416"><g
         id="g925"
         style="stroke-width:2.91416"><rect
           style="fill:#939dac;fill-opacity:1;stroke:none;stroke-width:5.04504;stroke-linecap:square"
           id="rect913"
           width="7.5575361"
           height="63.525471"
           x="261.37662"
           y="100.54246"
           transform="matrix(1,0,0.5,0.8660254,0,0)" /><rect
           style="fill:#373e48;fill-opacity:1;stroke:none;stroke-width:5.04504;stroke-linecap:square"
           id="rect915"
           width="7.5575361"
           height="63.525471"
           x="268.93414"
           y="111.18621"
           transform="matrix(1,0,0.5,0.8660254,0,0)" /><rect
           style="fill:#6f7c91;fill-opacity:1;stroke:none;stroke-width:3.74081;stroke-linecap:square"
           id="rect917"
           width="7.5575361"
           height="34.926685"
           x="425.44455"
           y="129.14124"
           transform="matrix(1,0,-0.5,0.8660254,0,0)" /><rect
           style="fill:#262a31;fill-opacity:1;stroke:none;stroke-width:3.74081;stroke-linecap:square"
           id="rect919"
           width="7.5575361"
           height="34.926685"
           x="-288.71555"
           y="129.14124"
           transform="matrix(-1,0,0.5,0.8660254,0,0)" /><rect
           style="fill:#6f7c91;fill-opacity:1;stroke:none;stroke-width:5.04504;stroke-linecap:square"
           id="rect921"
           width="7.5575361"
           height="63.525471"
           x="-445.22595"
           y="111.18621"
           transform="matrix(-1,0,-0.5,0.8660254,0,0)" /><rect
           style="fill:#b7bec8;fill-opacity:1;stroke:none;stroke-width:5.04504;stroke-linecap:square"
           id="rect923"
           width="7.5575361"
           height="63.525471"
           x="-452.78348"
           y="100.54246"
           transform="matrix(-1,0,-0.5,0.8660254,0,0)" /></g></g><g
       id="g1379"
       transform="matrix(0.34315274,0,0,0.34315274,-114.24978,-15.321584)"
       inkscape:export-xdpi="300"
       inkscape:export-ydpi="300"
       style="stroke-width:2.91416"><g
         id="g961"
         transform="translate(2.1166667,-5.8208333)"
         style="stroke-width:2.91416"><rect
           style="fill:#454837;fill-opacity:1;stroke:none;stroke-width:6.22388;stroke-linecap:square"
           id="rect945"
           width="11.13819"
           height="65.600868"
           x="-396.19339"
           y="110.13721"
           transform="matrix(-1,0,0.5,0.8660254,0,0)" /><path
           id="rect947"
           style="fill:#a7ac93;fill-opacity:1;stroke:none;stroke-width:4.39533;stroke-linecap:square"
           d="m 480.67559,119.47659 -2.18198,3.77905 h -7.8e-4 l -16.70644,28.93776 h 11.13763 l 16.70722,-28.93776 -2.18198,-3.77905 z" /><path
           id="rect943"
           style="fill:#676c53;fill-opacity:1;stroke:none;stroke-width:4.39533;stroke-linecap:square"
           d="m 480.67559,119.47659 -2.18198,3.77905 16.70722,28.93776 h 11.13763 l -16.70648,-28.93699 -7.4e-4,-7.7e-4 -2.18198,-3.77905 z" /><rect
           style="fill:#8a916f;fill-opacity:1;stroke:none;stroke-width:6.22388;stroke-linecap:square"
           id="rect889"
           width="11.13819"
           height="65.600868"
           x="571.93152"
           y="110.13721"
           transform="matrix(1,0,-0.5,0.8660254,0,0)" /></g></g><g
       id="g6827"
       transform="translate(27.58415)"><g
         id="g1282"
         style="stroke-width:3.11829"
         transform="matrix(0.32068781,0,0,0.32068781,-133.03678,-13.222166)"><path
           id="path981"
           style="fill:#37483e;fill-opacity:1;stroke:none;stroke-width:7.06918;stroke-linecap:square"
           d="m 570.51485,93.918656 24.82328,42.994794 5.79192,10.03246 7.54062,-4.35374 -3.27887,-5.67872 h 5e-4 L 590.73355,111.52399 581.598,93.170301 Z"
           sodipodi:nodetypes="ccccccccc" /><path
           id="path985"
           style="fill:#6f917c;fill-opacity:1;stroke:none;stroke-width:7.06918;stroke-linecap:square"
           d="m 627.58216,92.42159 -23.17376,40.13812 h 5e-4 l -3.27885,5.67872 7.75109,5.66336 1.73149,-4.6734 3.84993,-6.66868 22.30924,-38.640536 -0.86455,-1.497584 z"
           sodipodi:nodetypes="cccccccccc" /><path
           id="path987"
           style="fill:#536c67;fill-opacity:1;stroke:none;stroke-width:7.06918;stroke-linecap:square"
           d="m 637.46684,93.191052 -8.96276,5.577438 3.24439,3.86277 0.76209,1.31986 h -5.3e-4 l 10.77248,18.65829 9.09506,-4.41989 -6.64118,-8.74413 -3.17219,-5.49427 -4.17218,-7.106184 z"
           sodipodi:nodetypes="ccccccccccc" /><path
           id="rect973"
           style="fill:#93ac9d;fill-opacity:1;stroke:none;stroke-width:7.06918;stroke-linecap:square"
           d="m 655.68433,92.42159 -14.91536,25.83408 h 10.05417 l 14.91535,-25.83408 z" /></g><g
         id="g6753"><path
           id="ellipse1112"
           style="fill:#6f917c;fill-opacity:1;stroke:none;stroke-width:2.65872;stroke-linecap:square"
           d="m 73.255994,26.097115 a 3.663646,3.9022088 0 0 0 -3.663343,3.902087 3.663646,3.9022088 0 0 0 3.663343,3.902088 3.663646,3.9022088 0 0 0 3.663859,-3.902088 3.663646,3.9022088 0 0 0 -3.663859,-3.902087 z m 0,1.635042 a 2.1286776,2.2672889 0 0 1 2.128552,2.267045 2.1286776,2.2672889 0 0 1 -2.128552,2.267562 2.1286776,2.2672889 0 0 1 -2.128553,-2.267562 2.1286776,2.2672889 0 0 1 2.128553,-2.267045 z" /><path
           id="path1114"
           style="fill:#93ac9d;fill-opacity:1;stroke:none;stroke-width:2.65872;stroke-linecap:square"
           d="m 74.953048,31.366044 a 2.1286776,2.2672889 0 0 1 -1.697054,0.90072 2.1286776,2.2672889 0 0 1 -0.707451,-0.130741 l -5.16e-4,0.0016 -0.213424,1.638143 a 3.6636459,3.9022088 0 0 0 5.17e-4,5.17e-4 3.6636459,3.9022088 0 0 0 0.920874,0.125574 3.6636459,3.9022088 0 0 0 3.031339,-1.71049 l -1.333252,-0.824756 z" /><path
           id="path1116"
           style="fill:#37483e;fill-opacity:1;stroke:none;stroke-width:2.65872;stroke-linecap:square"
           d="m 69.667582,29.213721 a 3.6636459,3.9022088 0 0 0 -0.07493,0.785481 3.6636459,3.9022088 0 0 0 2.742469,3.777031 l 0.212907,-1.63866 5.16e-4,-0.0016 a 2.1286776,2.2672889 0 0 1 -1.421102,-2.136821 2.1286776,2.2672889 0 0 1 0.132809,-0.784965 l -5.17e-4,-5.16e-4 z" /><path
           id="path1118"
           style="fill:#536c67;fill-opacity:1;stroke:none;stroke-width:2.65872;stroke-linecap:square"
           d="m 73.255994,26.097115 a 3.6636459,3.9022088 0 0 0 -3.588412,3.116606 h 1.593185 a 2.1286776,2.2672889 0 0 1 1.995227,-1.481564 2.1286776,2.2672889 0 0 1 0.825272,0.177251 v -1.712041 a 3.6636459,3.9022088 0 0 0 -0.825272,-0.100252 z" /><path
           style="fill:#536c67;fill-opacity:1;stroke:none;stroke-width:0.264583px;stroke-linecap:butt;stroke-linejoin:miter;stroke-opacity:1"
           d="m 69.676119,29.17003 -0.205689,1.145686 1.468943,-0.08485 0.321752,-1.022494 -0.533874,-0.579024 z"
           id="path1122" /><path
           style="fill:#37483e;fill-opacity:1;stroke:none;stroke-width:0.264583px;stroke-linecap:butt;stroke-linejoin:miter;stroke-opacity:1"
           d="m 72.548026,32.137493 0.832272,-0.14229 -0.362897,1.410555 -0.682924,0.370273 -0.233823,-1.093029 z"
           id="path1124"
           sodipodi:nodetypes="cccccc" /><path
           style="fill:#93ac9d;fill-opacity:1;stroke:none;stroke-width:0.264583px;stroke-linecap:butt;stroke-linejoin:miter;stroke-opacity:1"
           d="m 74.954019,31.366761 0.206478,-1.031146 2.302387,0.299988 -1.175724,1.555579 z"
           id="path1126" /><path
           style="fill:#6f917c;fill-opacity:1;stroke:none;stroke-width:0.264583px;stroke-linecap:butt;stroke-linejoin:miter;stroke-opacity:1"
           d="m 74.081299,26.197376 -0.49571,0.400911 -0.39773,1.495454 0.893398,-0.184395 z"
           id="path1128"
           sodipodi:nodetypes="ccccc" /></g><g
         id="g6743"><path
           style="fill:#536c67;fill-opacity:1;stroke:none;stroke-width:0.264583px;stroke-linecap:butt;stroke-linejoin:miter;stroke-opacity:1"
           d="m 85.079761,30.828637 0.513174,-1.205683 -1.776428,0.144845 -0.321752,1.022494 0.533875,0.579024 z"
           id="path1013"
           sodipodi:nodetypes="cccccc" /><path
           id="ellipse1063"
           style="fill:#6f917c;fill-opacity:1;stroke:none;stroke-width:2.65872;stroke-linecap:square"
           d="m -81.499935,-26.097115 a 3.663646,3.9022088 0 0 0 3.663859,-3.902087 3.663646,3.9022088 0 0 0 -3.663859,-3.902605 3.663646,3.9022088 0 0 0 -3.663342,3.902605 3.663646,3.9022088 0 0 0 3.663342,3.902087 z m 0,-1.635042 a 2.1286776,2.2672889 0 0 1 -2.128552,-2.267045 2.1286776,2.2672889 0 0 1 2.128552,-2.267562 2.1286776,2.2672889 0 0 1 2.129069,2.267562 2.1286776,2.2672889 0 0 1 -2.129069,2.267045 z"
           transform="scale(-1)" /><path
           id="path1083"
           style="fill:#93ac9d;fill-opacity:1;stroke:none;stroke-width:2.65872;stroke-linecap:square"
           d="m 81.499935,26.097115 a 3.6636459,3.9022088 0 0 0 -3.03134,1.71049 l -0.01499,0.02377 a 3.6636459,3.9022088 0 0 0 -0.33848,0.674378 l 1.349271,0.829923 a 2.1286776,2.2672889 0 0 1 0.02687,-0.08268 2.1286776,2.267289 0 0 1 0.02377,-0.07338 2.1286776,2.2672889 0 0 1 0.03101,-0.07648 2.1286776,2.267289 0 0 1 0.02946,-0.07183 2.1286776,2.2672889 0 0 1 0.03824,-0.07958 2.1286776,2.267289 0 0 1 0.03307,-0.06666 2.1286776,2.2672889 0 0 1 0.03669,-0.06563 2.1286776,2.267289 0 0 1 0.04703,-0.07906 2.1286776,2.2672889 0 0 1 0.03514,-0.05374 2.1286776,2.267289 0 0 1 0.03566,-0.05426 h 5.16e-4 l 0.001,5.17e-4 a 2.1286776,2.2672889 0 0 1 1.697054,-0.900721 2.1286776,2.2672889 0 0 1 0.707967,0.129191 l 0.213424,-1.638659 a 3.6636459,3.9022088 0 0 0 -5.17e-4,0 3.6636459,3.9022088 0 0 0 -0.920874,-0.125574 z" /><path
           id="ellipse1022"
           style="fill:#37483e;fill-opacity:1;stroke:none;stroke-width:2.65872;stroke-linecap:square"
           d="m 82.420809,26.222689 -0.212907,1.638659 a 2.1286776,2.2672889 0 0 1 1.420585,2.137854 2.1286776,2.2672889 0 0 1 -0.132808,0.785482 l 5.16e-4,5.17e-4 h 1.592151 a 3.6636459,3.9022088 0 0 0 0.07493,-0.785999 3.6636459,3.9022088 0 0 0 -2.742467,-3.776513 z" /><path
           id="ellipse1011"
           style="fill:#536c67;fill-opacity:1;stroke:none;stroke-width:2.65872;stroke-linecap:square"
           d="m 83.495162,30.785201 a 2.1286776,2.2672889 0 0 1 -1.995227,1.481563 2.1286776,2.2672889 0 0 1 -0.825273,-0.179317 v 1.713591 a 3.6636459,3.9022088 0 0 0 0.825273,0.100252 3.6636459,3.9022088 0 0 0 3.588411,-3.116089 z" /><path
           style="fill:#37483e;fill-opacity:1;stroke:none;stroke-width:0.264583px;stroke-linecap:butt;stroke-linejoin:miter;stroke-opacity:1"
           d="m 82.207854,27.861175 -0.463711,0.04153 -0.36892,-1.468891 1.04618,-0.211173 0.233823,1.093029 z"
           id="path1015"
           sodipodi:nodetypes="cccccc" /><path
           style="fill:#93ac9d;fill-opacity:1;stroke:none;stroke-width:0.264583px;stroke-linecap:butt;stroke-linejoin:miter;stroke-opacity:1"
           d="m 79.464867,29.333844 -0.338813,0.53814 -1.108759,-0.377809 0.09781,-0.988372 z"
           id="path1035"
           sodipodi:nodetypes="ccccc" /><path
           style="fill:#6f917c;fill-opacity:1;stroke:none;stroke-width:0.264583px;stroke-linecap:butt;stroke-linejoin:miter;stroke-opacity:1"
           d="m 80.674581,33.801292 0.835107,-0.453944 0.04772,-1.665152 -0.882792,0.407126 z"
           id="path1037"
           sodipodi:nodetypes="ccccc" /><path
           id="path1109"
           style="fill:#536c67;fill-opacity:1;stroke:none;stroke-width:2.70544;stroke-linecap:square"
           d="m 77.836138,16.416232 h 1.725868 l -0.190908,1.235824 0.01206,7.85909 0.0019,1.301633 -0.03515,1.551084 -1.731281,1.455188 0.217432,-1.932128 z"
           sodipodi:nodetypes="ccccccccc" /><path
           id="rect1097"
           style="fill:#37483e;fill-opacity:1;stroke:none;stroke-width:2.70544;stroke-linecap:square"
           d="m 77.836196,16.416282 v 4.21194 l 1.534895,0.152795 v -3.128961 l 0.190912,-1.235774 z" /><path
           style="fill:#6f917c;fill-opacity:1;stroke:none;stroke-width:0.264583px;stroke-linecap:butt;stroke-linejoin:miter;stroke-opacity:1"
           d="m 77.836138,20.133878 v 3.473944 l -0.367482,0.922728 h 1.585747 l 0.316692,-0.615153 v -4.120912 l 0.266645,-0.43485 h -1.49546 z"
           id="path1105"
           sodipodi:nodetypes="ccccccccc" /></g><g
         id="g6730"><path
           id="ellipse1045"
           style="fill:#37483e;fill-opacity:1;stroke:none;stroke-width:2.65872;stroke-linecap:square"
           d="m -89.286023,26.097115 a 3.663646,3.9022088 0 0 1 3.663859,3.902087 3.663646,3.9022088 0 0 1 -3.663859,3.902088 3.663646,3.9022088 0 0 1 -3.550688,-2.950724 h 1.61954 a 2.1286776,2.2672889 0 0 0 1.931148,1.316198 2.1286776,2.2672889 0 0 0 2.129069,-2.267562 2.1286776,2.2672889 0 0 0 -2.129069,-2.267045 2.1286776,2.2672889 0 0 0 -2.128035,2.233456 h -1.53479 a 3.663646,3.9022088 0 0 1 3.662825,-3.868498 z"
           transform="scale(-1,1)" /><path
           id="path1047"
           style="fill:#6f917c;fill-opacity:1;stroke:none;stroke-width:2.65872;stroke-linecap:square"
           d="m 87.588969,31.366044 -0.0016,5.17e-4 -1.332736,0.824756 a 3.6636459,3.9022088 0 0 0 3.03134,1.71049 3.6636459,3.9022088 0 0 0 0.920874,-0.125574 3.6636459,3.9022088 0 0 1 5.17e-4,-5.17e-4 l -0.213424,-1.638143 -5.17e-4,-0.0016 a 2.1286776,2.2672889 0 0 1 -0.70745,0.130741 2.1286776,2.2672889 0 0 1 -1.697054,-0.90072 z" /><path
           id="path1049"
           style="fill:#93ac9d;fill-opacity:1;stroke:none;stroke-width:2.65872;stroke-linecap:square"
           d="m 91.282284,29.213721 a 2.1286776,2.2672889 0 0 1 0.131774,0.751892 h 1.534274 a 3.6636459,3.9022088 0 0 0 -0.0739,-0.751892 z m -0.06511,1.736845 a 2.1286776,2.2672889 0 0 1 -1.223698,1.185457 l 5.17e-4,0.0016 0.212907,1.63866 a 3.6636459,3.9022088 0 0 0 2.63033,-2.825667 z" /><path
           id="path1051"
           style="fill:#536c67;fill-opacity:1;stroke:none;stroke-width:2.65872;stroke-linecap:square"
           d="m 89.286023,26.097115 a 3.6636459,3.9022088 0 0 0 -0.825273,0.100252 v 1.713591 a 2.1286776,2.2672889 0 0 1 0.825273,-0.178801 2.1286776,2.2672889 0 0 1 1.996261,1.481564 h 1.59215 a 3.6636459,3.9022088 0 0 0 -3.588411,-3.116606 z" /><path
           style="fill:#93ac9d;fill-opacity:1;stroke:none;stroke-width:0.264583px;stroke-linecap:butt;stroke-linejoin:miter;stroke-opacity:1"
           d="m 89.993879,32.137489 -0.821663,-0.06274 0.18259,1.431768 0.852622,0.269513 0.233823,-1.093029 z"
           id="path1057"
           sodipodi:nodetypes="cccccc" /><path
           style="fill:#6f917c;fill-opacity:1;stroke:none;stroke-width:0.264583px;stroke-linecap:butt;stroke-linejoin:miter;stroke-opacity:1"
           d="m 87.587887,31.366758 -0.630723,-0.352356 -1.358446,0.586352 0.656028,0.590425 z"
           id="path1059"
           sodipodi:nodetypes="ccccc" /><path
           style="fill:#37483e;fill-opacity:1;stroke:none;stroke-width:0.264583px;stroke-linecap:butt;stroke-linejoin:miter;stroke-opacity:1"
           d="m 88.460606,26.197373 0.975687,0.41591 -0.179743,1.435456 -0.795902,-0.139397 z"
           id="path1061"
           sodipodi:nodetypes="ccccc" /><path
           style="fill:#536c67;fill-opacity:1;stroke:none;stroke-width:0.264583px;stroke-linecap:butt;stroke-linejoin:miter;stroke-opacity:1"
           d="m 92.865786,29.170027 0.364779,1.230534 -1.628033,-0.169695 -0.321752,-1.022494 0.533875,-0.579024 z"
           id="path1055"
           sodipodi:nodetypes="cccccc" /><path
           id="rect1150"
           style="fill:#6f917c;fill-opacity:1;stroke:none;stroke-width:1.83622;stroke-linecap:square"
           d="m 87.394255,28.977018 h 3.622326 l 0.519919,-0.157493 0.236241,1.236184 -0.523671,-0.08999 h -3.854815 z"
           sodipodi:nodetypes="ccccccc" /><path
           style="fill:#93ac9d;fill-opacity:1;stroke:none;stroke-width:0.264583px;stroke-linecap:butt;stroke-linejoin:miter;stroke-opacity:1"
           d="m 88.114219,29.965715 h 1.204917 l 0.663051,0.177664 v -0.92987 L 89.53662,28.977018 h -1.099918 -0.464971 z"
           id="path1173"
           sodipodi:nodetypes="cccccccc" /><path
           style="fill:#37483e;fill-opacity:1;stroke:none;stroke-width:0.264583px;stroke-linecap:butt;stroke-linejoin:miter;stroke-opacity:1"
           d="m 87.166381,30.210457 0.227878,-0.244742 h 0.71996 l 0.322483,-0.237569 v -0.974952 l -0.277481,0.223824 -0.773403,-5.8e-5 -0.336546,-0.36626 -0.0825,1.709917 z"
           id="path1169" /></g></g><g
       id="g1436"
       inkscape:export-xdpi="300"
       inkscape:export-ydpi="300"
       transform="matrix(0.59664931,0,0,0.59715636,-400.79069,-4.8364093)"
       style="stroke-width:1.67531"><g
         id="g1349"
         transform="matrix(0.89378439,0,0,0.89378439,78.979255,9.7883575)"
         style="stroke-width:1.67531"><path
           style="fill:#ffffff;stroke:#000000;stroke-width:0.66489;stroke-linecap:butt;stroke-linejoin:miter;stroke-miterlimit:4;stroke-dasharray:none;stroke-opacity:1"
           d="m 743.86455,92.353981 23.0119,59.374929 h 11.92458 L 749.56457,92.353981 Z"
           id="path1333" /><path
           style="fill:#000000;stroke:#000000;stroke-width:0.44326;stroke-linecap:butt;stroke-linejoin:miter;stroke-miterlimit:4;stroke-dasharray:none;stroke-opacity:1"
           d="m 766.87645,151.72891 h 11.92458 l 29.76563,-59.374929 h -20.10834 z"
           id="path1335" /><path
           style="fill:#ffffff;stroke:#000000;stroke-width:0.66489;stroke-linecap:butt;stroke-linejoin:miter;stroke-miterlimit:4;stroke-dasharray:none;stroke-opacity:1"
           d="m 788.4583,92.353981 16.2719,59.374929 h 26.06146 l -22.225,-59.374929 z"
           id="path1337" /><path
           style="fill:#000000;stroke:#000000;stroke-width:0.44326;stroke-linecap:butt;stroke-linejoin:miter;stroke-miterlimit:4;stroke-dasharray:none;stroke-opacity:1"
           d="M 804.7302,151.72891 836.34791,92.353981 H 876.1677 L 830.79166,151.72891 Z"
           id="path1339" /></g></g></g></svg>
