<?xml version="1.0" encoding="UTF-8" standalone="no"?>
<!-- Created with Inkscape (http://www.inkscape.org/) -->

<svg
   width="250.95312mm"
   height="262.7233mm"
   viewBox="0 0 250.95312 262.72328"
   version="1.1"
   id="svg1"
   inkscape:version="1.3 (0e150ed6c4, 2023-07-21)"
   sodipodi:docname="Portfolio_workPreviewElement_GeometryFontType.svg"
   xmlns:inkscape="http://www.inkscape.org/namespaces/inkscape"
   xmlns:sodipodi="http://sodipodi.sourceforge.net/DTD/sodipodi-0.dtd"
   xmlns="http://www.w3.org/2000/svg"
   xmlns:svg="http://www.w3.org/2000/svg">
  <sodipodi:namedview
     id="namedview1"
     pagecolor="#505050"
     bordercolor="#000000"
     borderopacity="1"
     inkscape:showpageshadow="0"
     inkscape:pageopacity="0"
     inkscape:pagecheckerboard="0"
     inkscape:deskcolor="#4c4c4c"
     inkscape:document-units="px"
     borderlayer="false"
     showborder="false"
     inkscape:zoom="0.5360689"
     inkscape:cx="388.00983"
     inkscape:cy="489.67586"
     inkscape:window-width="1920"
     inkscape:window-height="1009"
     inkscape:window-x="-8"
     inkscape:window-y="-8"
     inkscape:window-maximized="1"
     inkscape:current-layer="layer1" />
  <defs
     id="defs1">
    <inkscape:path-effect
       effect="spiro"
       id="path-effect189"
       is_visible="true"
       lpeversion="1" />
    <inkscape:path-effect
       effect="spiro"
       id="path-effect6"
       is_visible="true"
       lpeversion="1" />
    <inkscape:path-effect
       effect="spiro"
       id="path-effect4"
       is_visible="true"
       lpeversion="1" />
    <inkscape:path-effect
       effect="spiro"
       id="path-effect3"
       is_visible="true"
       lpeversion="1" />
    <inkscape:path-effect
       effect="spiro"
       id="path-effect1"
       is_visible="true"
       lpeversion="1" />
  </defs>
  <g
     inkscape:label="Слой 1"
     inkscape:groupmode="layer"
     id="layer1"
     transform="translate(-434.06027,-450.50693)">
    <rect
       style="fill:#ff0000;fill-opacity:1;stroke:none;stroke-width:1.37123;stroke-linecap:square;stroke-linejoin:bevel;stroke-miterlimit:4.7;stroke-opacity:0.301961"
       id="rect149"
       width="250.95312"
       height="262.7233"
       x="434.06027"
       y="450.50693" />
    <text
       xml:space="preserve"
       style="font-style:normal;font-variant:normal;font-weight:normal;font-stretch:normal;font-size:7.05556px;line-height:1;font-family:'Britannic Bold';-inkscape-font-specification:'Britannic Bold, ';stroke-width:0.264583"
       x="189.31255"
       y="69.250237"
       id="text1"><tspan
         sodipodi:role="line"
         id="tspan1"
         style="font-style:normal;font-variant:normal;font-weight:normal;font-stretch:normal;font-family:'Britannic Bold';-inkscape-font-specification:'Britannic Bold, ';stroke-width:0.264583"
         x="189.31255"
         y="69.250237" /></text>
    <text
       xml:space="preserve"
       style="font-weight:bold;font-size:7.05556px;line-height:1;font-family:'Neutral Face';-inkscape-font-specification:'Neutral Face Bold';stroke-width:0.264583"
       x="197.70311"
       y="72.643478"
       id="text2"><tspan
         sodipodi:role="line"
         id="tspan2"
         style="stroke-width:0.264583"
         x="197.70311"
         y="72.643478" /></text>
    <g
       id="g223"
       transform="translate(0,-3.0847636)">
      <path
         style="fill:#ffffff;fill-opacity:1;stroke:none;stroke-width:1.33373;stroke-linecap:square;stroke-linejoin:miter;stroke-dasharray:none;stroke-opacity:1"
         d="m 466.91317,625.02591 v -8.4124 h 11.21652 l 7.36087,10.13057 1.70524,0.0658 12.66594,-10.19635 h 9.84555 v 11.7423 l -18.68847,5.69495 v 6.77638 l 18.68836,7.42051 v 7.27653 h -18.34556 l -4.43347,-8.93637 -1.84624,0.0119 -2.65846,8.9249 h -15.51038 v -8.15282 l 15.22863,-8.28875 -0.6134,-6.70152 z"
         id="path173"
         sodipodi:nodetypes="ccccccccccccccccccccc" />
      <path
         style="fill:#ffffff;fill-opacity:1;stroke:none;stroke-width:1.33373;stroke-linecap:square;stroke-linejoin:miter;stroke-dasharray:none;stroke-opacity:1"
         d="m 536.21342,645.61273 v 9.9119 h 19.89761 l 15.12927,-9.67909 7.76723,-22.22962 v -7.00195 h -16.21192 l 1.68699,25.08444 h -2.72636 l -11.53912,-25.08444 h -14.0037 v 5.02235 l 18.6242,22.55567 -3.91539,5.19276 -11.55416,-3.87507 z"
         id="path188"
         sodipodi:nodetypes="cccccccccccccccc" />
      <path
         style="fill:#ffffff;fill-opacity:1;stroke:none;stroke-width:1.33373;stroke-linecap:square;stroke-linejoin:miter;stroke-dasharray:none;stroke-opacity:1"
         d="m 648.3078,628.75875 v -12.14478 h -10.96747 l -17.48469,3.97835 -7.73434,-3.97835 h -6.60761 v 12.52962 l 30.37943,-2.66325 1.79694,1.55019 -32.17639,16.21901 v 11.27509 l 7.19013,-0.0436 7.57135,-3.35932 20.22527,3.40295 h 7.80736 V 648.587 l -9.2401,-4.08939 -17.32279,1.33228 0.69705,-2.08465 25.86584,-13.0653 z"
         id="path221"
         sodipodi:nodetypes="ccccccccccccccccccccc" />
    </g>
    <g
       id="g193"
       transform="matrix(1.0154512,0,0,1.0154512,-10.017118,-7.6478505)"
       style="stroke-width:0.984784">
      <g
         id="g108"
         transform="matrix(2.0552455,0,0,2.0556384,120.98078,391.72029)"
         style="fill:#ffffff;fill-opacity:1;stroke:none;stroke-width:1.26961;stroke-linecap:square;stroke-linejoin:miter;stroke-dasharray:none">
        <path
           id="path106"
           style="fill:#ffffff;fill-opacity:1;stroke:none;stroke-width:1.27668;stroke-linecap:square;stroke-linejoin:miter;stroke-dasharray:none;stroke-opacity:1"
           d="m 205.88007,40.753515 -3.28785,18.946959 h 5.9555 l 0.12424,-5.372847 0.83761,0.09266 3.02835,5.262153 7.07265,0.01803 4.03228,-6.364572 -2.10907,-3.042292 -10.40508,-0.883537 -0.13176,-0.578005 8.12469,0.04107 3.71517,-4.037022 -3.66057,-4.082602 h -8.55551 l -0.80906,2.567466 -0.79203,0.130728 -0.26351,-2.698194 z m 7.40128,2.542924 3.38353,0.09216 1.2955,1.141486 -2.50145,1.495942 -4.11732,0.189489 v -1.295253 z m -1.0896,8.618492 5.30123,1.289242 0.91588,2.354986 -2.62206,0.617073 -3.81097,-3.058209 z"
           sodipodi:nodetypes="cccccccccccccccccccccccccccccccc" />
      </g>
      <path
         style="fill:#ffffff;fill-opacity:1;stroke:none;stroke-width:2.61692;stroke-linecap:square;stroke-linejoin:miter;stroke-dasharray:none;stroke-opacity:1"
         d="m 646.73045,489.95393 0.0255,-7.22945 -11.62368,-7.22945 h -17.35068 l -12.26816,9.81452 v 16.29912 l 13.23212,12.79726 h 18.4022 l 11.16005,-11.04465 -14.24502,-4.66565 -4.97696,8.25846 -12.26086,-5.36926 0.96652,-14.67263 12.17945,-5.0509 2.45729,7.00843 7.15111,0.5421 z"
         id="path33"
         sodipodi:nodetypes="ccccccccccccccccc" />
      <g
         id="g110"
         transform="matrix(2.0032595,0,0,2.0033508,160.26773,444.03854)"
         style="fill:#ffffff;fill-opacity:1;stroke:none;stroke-width:0.979432;stroke-linecap:square;stroke-linejoin:miter">
        <path
           id="path109"
           style="fill:#ffffff;fill-opacity:1;stroke:none;stroke-width:1.29917;stroke-linecap:square;stroke-linejoin:miter;stroke-dasharray:none;stroke-opacity:1"
           d="m 163.94296,15.701813 -9.49195,19.422974 h 9.22931 l 0.16036,-8.85834 0.53607,0.07761 5.23065,0.753442 -1.159,8.027292 h 7.36412 l -2.20286,-19.422974 z m 5.38124,2.936676 1.06031,5.482242 -5.44188,-0.600287 1.82047,-4.481592 z" />
      </g>
    </g>
    <g
       id="g220"
       transform="matrix(0.22920916,0,0,0.22920916,434.17577,403.27315)"
       style="stroke-width:0.984784">
      <path
         style="fill:#ffffff;fill-opacity:1;stroke:none;stroke-width:1.30126;stroke-linecap:square;stroke-linejoin:miter;stroke-dasharray:none;stroke-opacity:1"
         d="m 490.03881,558.51323 6.02719,-19.08421 h 2.6 l 1.85374,11.08927 1.25825,-0.18504 5.88497,-10.90439 h 2.21536 l 1.11231,19.08422 h -6.10068 l 2.58817,-11.63071 -5.73097,8.62721 -2.7114,0.43138 -1.97191,-9.36674 -0.73952,11.93886 z"
         id="path193"
         sodipodi:nodetypes="ccccccccccccccc" />
      <g
         id="g194"
         transform="matrix(1.0080157,0,0,1.0082085,-32.474874,498.32273)"
         style="fill:#ffffff;fill-opacity:1;stroke:none;stroke-width:1.26961;stroke-linecap:square;stroke-linejoin:miter;stroke-dasharray:none">
        <path
           id="path194"
           style="fill:#ffffff;fill-opacity:1;stroke:none;stroke-width:1.27668;stroke-linecap:square;stroke-linejoin:miter;stroke-dasharray:none;stroke-opacity:1"
           d="m 205.88007,40.753515 -3.28785,18.946959 h 5.9555 l 0.12424,-5.372847 0.83761,0.09266 3.02835,5.262153 7.07265,0.01803 4.03228,-6.364572 -2.10907,-3.042292 -10.40508,-0.883537 -0.13176,-0.578005 8.12469,0.04107 3.71517,-4.037022 -3.66057,-4.082602 h -8.55551 l -0.80906,2.567466 -0.79203,0.130728 -0.26351,-2.698194 z m 7.40128,2.542924 3.38353,0.09216 1.2955,1.141486 -2.50145,1.495942 -4.11732,0.189489 v -1.295253 z m -1.0896,8.618492 5.30123,1.289242 0.91588,2.354986 -2.62206,0.617073 -3.81097,-3.058209 z"
           sodipodi:nodetypes="cccccccccccccccccccccccccccccccc" />
      </g>
      <path
         style="fill:#ffffff;fill-opacity:1;stroke:none;stroke-width:1.28349;stroke-linecap:square;stroke-linejoin:miter;stroke-dasharray:none;stroke-opacity:1"
         d="m 221.10194,546.52052 0.0102,-3.54574 -5.70092,-3.54576 h -8.50982 l -6.01705,4.81362 v 7.99405 l 6.48982,6.27654 h 9.02556 l 5.47355,-5.41694 -6.98663,-2.28831 -2.441,4.05045 -6.01345,-2.63341 0.47404,-7.19637 5.97354,-2.47724 1.20521,3.43736 3.50731,0.26581 z"
         id="path195"
         sodipodi:nodetypes="ccccccccccccccccc" />
      <g
         id="g196"
         transform="matrix(0.98518569,0,0,0.98518569,30.518045,499.67018)"
         style="fill:#ffffff;fill-opacity:1;stroke:none;stroke-width:1.30279;stroke-linecap:square;stroke-linejoin:miter;stroke-dasharray:none">
        <path
           id="path196"
           style="fill:#ffffff;fill-opacity:1;stroke:none;stroke-width:1.30279;stroke-linecap:square;stroke-linejoin:miter;stroke-dasharray:none;stroke-opacity:1"
           d="m 204.74818,40.356617 -2.46805,19.371276 h 5.4292 l -0.0415,-4.233366 0.63252,-0.0651 2.72691,4.298463 h 8.15765 l 4.39995,-6.970522 -2.17896,-9.624129 -7.6502,-2.776625 h -4.84333 l -0.72478,2.959614 -0.76323,0.03127 -0.60945,-2.990881 z m 9.29198,3.207189 5.15088,6.478449 -3.20719,6.359019 -5.95357,-4.106247 -0.76631,-5.74239 z" />
      </g>
      <g
         id="g197"
         transform="matrix(0.98251868,0,0,0.98256344,-8.9238217,524.0009)"
         style="fill:#ffffff;fill-opacity:1;stroke:none;stroke-width:0.979432;stroke-linecap:square;stroke-linejoin:miter">
        <path
           id="path197"
           style="fill:#ffffff;fill-opacity:1;stroke:none;stroke-width:1.29917;stroke-linecap:square;stroke-linejoin:miter;stroke-dasharray:none;stroke-opacity:1"
           d="m 163.94296,15.701813 -9.49195,19.422974 h 9.22931 l 0.16036,-8.85834 0.53607,0.07761 5.23065,0.753442 -1.159,8.027292 h 7.36412 l -2.20286,-19.422974 z m 5.38124,2.936676 1.06031,5.482242 -5.44188,-0.600287 1.82047,-4.481592 z" />
      </g>
      <path
         style="fill:#ffffff;fill-opacity:1;stroke:none;stroke-width:1.28739;stroke-linecap:square;stroke-linejoin:miter;stroke-dasharray:none;stroke-opacity:1"
         d="m 258.71659,558.50783 2.80214,-19.14228 h 2.71589 l 1.20365,2.14198 0.97858,0.051 6.64348,-2.19168 6.70904,-10e-4 -1.47708,4.91382 -12.17077,0.32731 -0.94549,1.94305 8.94816,0.81596 0.0642,2.06952 -2.30875,0.8569 -7.23139,-0.99461 0.57388,2.50167 1.21159,0.27697 6.01827,1.09959 7.31727,-0.74796 -0.51663,6.02322 h -7.584 l -5.96119,-2.93039 -1.12706,-0.0372 0.60495,3.02949 z"
         id="path198"
         sodipodi:nodetypes="cccccccccccccccccccccccc" />
      <path
         style="fill:#ffffff;fill-opacity:1;stroke:none;stroke-width:1.27999;stroke-linecap:square;stroke-linejoin:miter;stroke-dasharray:none;stroke-opacity:1"
         d="m 287.69534,558.51323 3.00033,-19.03235 h 3.34325 l 0.21435,2.67891 0.71791,0.36432 6.05426,-3.04323 h 7.60179 v 5.57206 l -12.86249,-0.63087 -0.17154,1.15727 13.03398,2.47398 v 4.02899 l -8.11611,-0.47147 -5.62844,-3.17051 -0.97233,0.25582 0.38576,9.817 z"
         id="path199"
         sodipodi:nodetypes="ccccccccccccccccc" />
      <path
         style="fill:#ffffff;fill-opacity:1;stroke:none;stroke-width:1.28584;stroke-linecap:square;stroke-linejoin:miter;stroke-dasharray:none;stroke-opacity:1"
         d="m 320.81563,539.3941 -4.2625,8.06827 2.4357,8.76852 4.80738,2.23075 13.78431,0.0517 -1.99841,-10.16797 -9.11607,-2.67138 0.60082,4.88557 5.54563,-0.33824 -0.62307,4.30463 -9.25566,-1.43095 -1.27874,-7.33757 4.04935,-3.22732 8.70765,3.04465 3.3685,-4.17115 -7.5092,-2.00948 z"
         id="path200"
         sodipodi:nodetypes="ccccccccccccccccc" />
      <g
         id="g201"
         transform="matrix(0.98164244,0,0,0.98164244,12.536988,523.23276)"
         style="fill:#ffffff;fill-opacity:1;stroke:none;stroke-width:0.984784;stroke-linecap:square;stroke-linejoin:miter">
        <path
           style="fill:#ffffff;fill-opacity:1;stroke:none;stroke-width:1.30708;stroke-linecap:square;stroke-linejoin:miter;stroke-dasharray:none;stroke-opacity:1"
           d="m 339.19634,35.940239 2.27599,-19.435113 3.42847,-0.0233 1.0221,7.140828 9.59676,2.137334 -2.7961,-9.278162 7.8476,0.02332 -1.83193,19.411792 -4.99707,4e-6 -0.46903,-6.246684 -8.26652,-3.014676 2.89977,9.2614 z"
           id="path201"
           sodipodi:nodetypes="ccccccccccccc" />
      </g>
      <g
         id="g203"
         transform="matrix(0.98400619,0,0,0.98400619,569.13095,523.21079)"
         style="fill:#ffffff;fill-opacity:1;stroke:none;stroke-width:0.984784;stroke-linecap:square;stroke-linejoin:miter">
        <path
           style="fill:#ffffff;fill-opacity:1;stroke:none;stroke-width:1.30279;stroke-linecap:square;stroke-linejoin:miter;stroke-dasharray:none;stroke-opacity:1"
           d="m 351.49165,20.74513 -4.96258,-4.251779 h -9.51028 l -6.10752,4.886016 v 8.114277 l 6.5874,6.370921 h 9.16128 l 3.56546,-4.306805 0.18738,-1.600074 -5.28865,-1.914257 -2.47771,4.111349 -7.33779,-2.673004 1.15982,-7.55133 5.72403,-3.231281 5.26436,5.408858 3.62748,0.115248 z"
           id="path202"
           sodipodi:nodetypes="ccccccccccccccccc" />
        <path
           style="fill:#ffffff;fill-opacity:1;stroke:none;stroke-width:1.30279;stroke-linecap:square;stroke-linejoin:miter;stroke-dasharray:none;stroke-opacity:1"
           d="m 349.71968,35.876263 2.26851,-19.371214 3.41719,-0.02322 1.01874,7.11735 9.45615,2.91556 -2.67785,-10.03291 7.8218,0.02324 -1.82591,19.34797 -4.98064,4e-6 -0.94736,-6.117083 -7.75946,-3.113828 2.89023,9.230951 z"
           id="path203"
           sodipodi:nodetypes="ccccccccccccc" />
      </g>
      <path
         style="fill:#ffffff;fill-opacity:1;stroke:none;stroke-width:1.28349;stroke-linecap:square;stroke-linejoin:miter;stroke-dasharray:none;stroke-opacity:1"
         d="m 518.9166,558.51323 2.23489,-19.08419 3.36656,-0.0229 1.18507,4.38444 9.17329,7.83215 0.745,-1.63279 -3.42184,-10.5838 7.70591,0.0229 -1.79887,19.0613 h -6.60869 l 1.79145,-2.81501 -8.0765,-9.00512 -0.67831,0.82792 2.93483,10.99224 z"
         id="path204"
         sodipodi:nodetypes="ccccccccccccccc" />
      <path
         style="fill:#ffffff;fill-opacity:1;stroke:none;stroke-width:1.28237;stroke-linecap:square;stroke-linejoin:miter;stroke-dasharray:none;stroke-opacity:1"
         d="m 403.3115,551.68396 5.15297,-4.9812 4.11776,8.69932 3.91694,0.15165 1.94181,-2.08871 -2.37051,-14.01946 h 7.52954 l 0.70132,3.46415 -1.45405,15.60339 h -14.98399 z"
         id="path205"
         sodipodi:nodetypes="ccccccccccc" />
      <path
         style="fill:#ffffff;fill-opacity:1;stroke:none;stroke-width:1.28237;stroke-linecap:square;stroke-linejoin:miter;stroke-dasharray:none;stroke-opacity:1"
         d="m 432.22732,558.51323 2.61132,-19.06755 h 3.40076 l -0.24289,7.40883 0.64425,0.56881 10.59048,-7.97764 h 3.96669 v 4.49389 l -14.22976,6.19429 14.22976,6.19426 v 2.18511 h -10.16098 l -4.28137,-5.91992 -1.03235,0.12158 1.12347,5.79847 z"
         id="path206"
         sodipodi:nodetypes="cccccccccccccccc" />
      <path
         style="fill:#ffffff;fill-opacity:1;stroke:none;stroke-width:1.28349;stroke-linecap:square;stroke-linejoin:miter;stroke-dasharray:none;stroke-opacity:1"
         d="m 461.12393,558.48285 3.88998,-19.08424 h 3.82924 l -0.54707,11.91313 6.54717,1.25614 5.38536,-1.31693 1.88422,7.2319 h -9.74439 l -2.68955,-3.67616 -1.39798,0.0609 0.72938,3.64578 z"
         id="path207"
         sodipodi:nodetypes="cccccccccccc" />
      <g
         id="g208"
         transform="matrix(0.9798659,0,0,0.9798659,349.68051,499.98791)"
         style="fill:#ffffff;fill-opacity:1;stroke:none;stroke-width:1.30279;stroke-linecap:square;stroke-linejoin:miter;stroke-dasharray:none">
        <path
           id="path208"
           style="fill:#ffffff;fill-opacity:1;stroke:none;stroke-width:1.30986;stroke-linecap:square;stroke-linejoin:miter;stroke-dasharray:none;stroke-opacity:1"
           d="m 207.66112,40.251451 -5.43859,8.903856 v 4.210998 l 6.00909,6.361591 h 10.83387 l 4.57691,-10.484462 -6.9893,-8.991983 z m 5.28449,3.204502 5.58339,4.777893 -2.13513,7.539185 -3.15245,1.113691 -5.42106,-5.106692 2.1037,-6.103911 z" />
      </g>
      <g
         id="g209"
         transform="matrix(0.97986618,0,0,0.97986618,407.51052,499.98791)"
         style="fill:#ffffff;fill-opacity:1;stroke:none;stroke-width:1.30279;stroke-linecap:square;stroke-linejoin:miter;stroke-dasharray:none">
        <path
           id="path209"
           style="fill:#ffffff;fill-opacity:1;stroke:none;stroke-width:1.30986;stroke-linecap:square;stroke-linejoin:miter;stroke-dasharray:none;stroke-opacity:1"
           d="m 207.66121,40.251449 -5.4391,6.422916 v 6.691934 l 6.0096,6.361589 h 8.1973 l 1.90064,-3.403429 0.95754,0.01958 1.31365,3.383846 h 3.05195 v -3.877044 l -2.60411,-2.048036 -0.3458,-1.056485 2.80819,-4.292424 -6.85788,-8.20245 z m 4.14503,2.586586 6.20801,4.123385 -3.13029,8.999711 -5.31489,-1.218308 -2.79273,-3.732744 2.06453,-5.992077 z" />
      </g>
      <path
         style="fill:#ffffff;fill-opacity:1;stroke:none;stroke-width:1.28048;stroke-linecap:square;stroke-linejoin:miter;stroke-dasharray:none;stroke-opacity:1"
         d="m 682.2325,545.2062 1.99841,-3.84754 -2.36752,-1.96775 -7.41576,-1.8e-4 -8.35289,1.2318 1.83136,6.29272 8.71739,2.50964 3.13468,4.22761 v 0 l -7.94117,0.60615 -6.22977,-5.037 c 0,0 -1.88652,4.96418 -1.99726,5.21424 0.29102,0.17434 7.01594,3.83819 7.48195,3.9941 0.46604,0.15573 13.32734,0.0451 13.32734,0.0451 l -1.50973,-10.34475 -12.05487,-4.39262 0.40581,-1.33754 7.07673,0.23754 z"
         id="path210"
         sodipodi:nodetypes="ccccccccccccscccccc" />
      <path
         style="fill:#ffffff;fill-opacity:1;stroke:none;stroke-width:1.28349;stroke-linecap:square;stroke-linejoin:miter;stroke-dasharray:none;stroke-opacity:1"
         d="m 728.12723,539.42902 h -4.37429 l -2.4928,14.26895 4.38385,4.81526 h 10.74473 l 5.86038,-4.5144 -2.46504,-14.56981 h -6.18896 l 3.73824,12.80767 -4.68381,3.38185 -5.96794,-5.31588 z"
         id="path211"
         sodipodi:nodetypes="cccccccccccc" />
      <path
         style="fill:#ffffff;fill-opacity:1;stroke:none;stroke-width:1.28349;stroke-linecap:square;stroke-linejoin:miter;stroke-dasharray:none;stroke-opacity:1"
         d="m 756.26744,539.42902 h -6.09237 v 3.09983 l 8.78292,15.98438 h 3.88995 l 8.31609,-15.37658 v -3.70763 h -7.08947 l 0.55379,7.84502 -2.88352,8.83552 -1.07529,-0.13916 z"
         id="path212"
         sodipodi:nodetypes="cccccccccccc" />
      <path
         style="fill:#ffffff;fill-opacity:1;stroke:none;stroke-width:1.28349;stroke-linecap:square;stroke-linejoin:miter;stroke-dasharray:none;stroke-opacity:1"
         d="m 808.00495,543.55475 v -4.12596 h 5.50129 l 3.61022,4.96866 0.83635,0.0324 6.21218,-5.00093 h 4.8289 v 5.75916 l -9.166,2.79317 v 3.32354 l 9.16594,3.63951 v 3.56888 H 819.996 l -2.17445,-4.38298 -0.9055,0.005 -1.30392,4.37733 h -7.60723 v -3.99865 l 7.46908,-4.06534 -0.30088,-3.28683 z"
         id="path213"
         sodipodi:nodetypes="ccccccccccccccccccccc" />
      <path
         style="fill:#ffffff;fill-opacity:1;stroke:none;stroke-width:1.28349;stroke-linecap:square;stroke-linejoin:miter;stroke-dasharray:none;stroke-opacity:1"
         d="m 836.91986,553.65182 v 4.86141 h 9.75904 l 7.42035,-4.74723 3.80954,-10.9028 v -3.43418 h -7.95136 l 0.82743,12.30299 h -1.33721 l -5.65948,-12.30299 h -6.86831 v 2.46325 l 9.13449,11.06274 -1.92036,2.54683 -5.6669,-1.90057 z"
         id="path214"
         sodipodi:nodetypes="cccccccccccccccc" />
      <path
         style="fill:#ffffff;fill-opacity:1;stroke:none;stroke-width:1.28349;stroke-linecap:square;stroke-linejoin:miter;stroke-dasharray:none;stroke-opacity:1"
         d="m 886.82369,545.38558 v -5.95656 h -5.37912 l -7.86294,1.83753 -4.50606,-1.83753 h -3.24078 v 6.14527 l 14.89998,-1.30619 0.88134,0.7603 -15.78135,7.95482 v 5.53001 h 4.49416 l 3.47331,-1.26248 9.19225,1.26248 h 3.82921 v -3.40265 l -4.53191,-2.0057 -7.51796,0.6837 0.37212,-1.59736 11.67775,-5.86338 z"
         id="path215"
         sodipodi:nodetypes="ccccccccccccccccccccc" />
      <g
         id="g216"
         transform="matrix(1.0079411,0,0,1.0079411,-34.738637,522.44195)"
         style="fill:#ffffff;fill-opacity:1;stroke:none;stroke-width:0.984784">
        <path
           id="path216"
           style="fill:#ffffff;fill-opacity:1;stroke:none;stroke-width:1.30771;stroke-linecap:square;stroke-linejoin:miter;stroke-dasharray:none;stroke-opacity:1"
           d="m 667.20448,16.873688 -3.15282,18.913407 h 7.96998 l -2.22096,-12.121795 0.44389,-0.145792 6.94392,12.267587 h 7.79462 l -9.73701,-11.028604 7.61727,-2.702917 -2.99952,-5.181886 z m 7.10825,2.209428 2.72847,1.376759 -4.29511,1.95091 -1.36073,-2.691895 z" />
      </g>
      <path
         style="fill:#ffffff;stroke:none;stroke-width:0.256472px;stroke-linecap:butt;stroke-linejoin:miter;stroke-opacity:1"
         d="m 374.41495,539.44568 v 4.75343 l 3.75196,-1.0658 4.79206,1.92973 -0.59954,8.91573 -1.13627,0.89528 -6.80821,-1.5549 v 5.19408 h 3.62748 l 6.62944,-1.02845 1.6905,0.0178 4.81431,1.01168 h 4.20885 v -4.96556 l -7.11075,0.9696 -1.68259,-9.30243 4.41268,-1.90303 4.38066,1.48909 v -5.35527 h -5.12055 l -5.36477,1.19616 -1.02674,-0.005 -5.38977,-1.19094 z"
         id="path217"
         sodipodi:nodetypes="cccccccccccccccccccccccc" />
      <path
         style="fill:#ffffff;stroke:none;stroke-width:0.256696px;stroke-linecap:butt;stroke-linejoin:miter;stroke-opacity:1"
         d="m 779.09,541.83584 v -2.40682 h 3.997 l 3.32894,16.37579 1.22682,0.12795 1.16043,-12.72178 1.97705,-0.0428 1.03149,12.76475 1.3851,-0.14859 2.05321,-16.35541 h 4.82887 v 3.56723 l -5.2157,15.51701 H 783.47383 L 779.09,545.53191 Z"
         id="path218"
         sodipodi:nodetypes="cccccccccccccccc" />
      <g
         id="g219"
         transform="matrix(0.98518569,0,0,0.98518569,377.46253,499.67018)"
         style="fill:#ffffff;stroke-width:0.984784">
        <path
           id="path219"
           style="fill:#ffffff;stroke:none;stroke-width:0.260557px;stroke-linecap:butt;stroke-linejoin:miter;stroke-opacity:1"
           d="m 206.07425,40.356617 -3.79409,19.371276 h 7.27038 l -1.20866,-10.08596 0.78322,-0.305495 8.02387,2.402957 6.4359,-6.878259 -7.2996,-4.504519 z m 7.14018,2.684361 4.23183,1.439826 -1.64537,2.433712 -4.89869,-0.448504 -0.5013,-3.380952 z" />
      </g>
      <path
         style="fill:#ffffff;stroke:none;stroke-width:0.256699px;stroke-linecap:butt;stroke-linejoin:miter;stroke-opacity:1"
         d="m 697.63161,558.51323 h 8.50981 l -1.73932,-6.79679 -0.0935,-9.48009 1.91198,-0.24213 2.8005,4.82718 4.31313,-2.04979 -0.72347,-5.34252 h -19.00785 l -1.25761,4.52773 3.39533,1.83312 3.86811,-3.4628 1.86392,0.23831 z"
         id="path220"
         sodipodi:nodetypes="cccccccccccccc" />
    </g>
    <g
       id="g180"
       transform="matrix(-0.22920916,0,0,-0.22920916,681.0451,792.66523)"
       style="stroke-width:0.984784">
      <path
         style="fill:#ffffff;fill-opacity:1;stroke:none;stroke-width:1.30126;stroke-linecap:square;stroke-linejoin:miter;stroke-dasharray:none;stroke-opacity:1"
         d="m 490.03881,558.51323 6.02719,-19.08421 h 2.6 l 1.85374,11.08927 1.25825,-0.18504 5.88497,-10.90439 h 2.21536 l 1.11231,19.08422 h -6.10068 l 2.58817,-11.63071 -5.73097,8.62721 -2.7114,0.43138 -1.97191,-9.36674 -0.73952,11.93886 z"
         id="path83"
         sodipodi:nodetypes="ccccccccccccccc" />
      <g
         id="g150"
         transform="matrix(1.0080157,0,0,1.0082085,-32.474874,498.32273)"
         style="fill:#ffffff;fill-opacity:1;stroke:none;stroke-width:1.26961;stroke-linecap:square;stroke-linejoin:miter;stroke-dasharray:none">
        <path
           id="path150"
           style="fill:#ffffff;fill-opacity:1;stroke:none;stroke-width:1.27668;stroke-linecap:square;stroke-linejoin:miter;stroke-dasharray:none;stroke-opacity:1"
           d="m 205.88007,40.753515 -3.28785,18.946959 h 5.9555 l 0.12424,-5.372847 0.83761,0.09266 3.02835,5.262153 7.07265,0.01803 4.03228,-6.364572 -2.10907,-3.042292 -10.40508,-0.883537 -0.13176,-0.578005 8.12469,0.04107 3.71517,-4.037022 -3.66057,-4.082602 h -8.55551 l -0.80906,2.567466 -0.79203,0.130728 -0.26351,-2.698194 z m 7.40128,2.542924 3.38353,0.09216 1.2955,1.141486 -2.50145,1.495942 -4.11732,0.189489 v -1.295253 z m -1.0896,8.618492 5.30123,1.289242 0.91588,2.354986 -2.62206,0.617073 -3.81097,-3.058209 z"
           sodipodi:nodetypes="cccccccccccccccccccccccccccccccc" />
      </g>
      <path
         style="fill:#ffffff;fill-opacity:1;stroke:none;stroke-width:1.28349;stroke-linecap:square;stroke-linejoin:miter;stroke-dasharray:none;stroke-opacity:1"
         d="m 221.10194,546.52052 0.0102,-3.54574 -5.70092,-3.54576 h -8.50982 l -6.01705,4.81362 v 7.99405 l 6.48982,6.27654 h 9.02556 l 5.47355,-5.41694 -6.98663,-2.28831 -2.441,4.05045 -6.01345,-2.63341 0.47404,-7.19637 5.97354,-2.47724 1.20521,3.43736 3.50731,0.26581 z"
         id="path151"
         sodipodi:nodetypes="ccccccccccccccccc" />
      <g
         id="g23"
         transform="matrix(0.98518569,0,0,0.98518569,30.518045,499.67018)"
         style="fill:#ffffff;fill-opacity:1;stroke:none;stroke-width:1.30279;stroke-linecap:square;stroke-linejoin:miter;stroke-dasharray:none">
        <path
           id="path22"
           style="fill:#ffffff;fill-opacity:1;stroke:none;stroke-width:1.30279;stroke-linecap:square;stroke-linejoin:miter;stroke-dasharray:none;stroke-opacity:1"
           d="m 204.74818,40.356617 -2.46805,19.371276 h 5.4292 l -0.0415,-4.233366 0.63252,-0.0651 2.72691,4.298463 h 8.15765 l 4.39995,-6.970522 -2.17896,-9.624129 -7.6502,-2.776625 h -4.84333 l -0.72478,2.959614 -0.76323,0.03127 -0.60945,-2.990881 z m 9.29198,3.207189 5.15088,6.478449 -3.20719,6.359019 -5.95357,-4.106247 -0.76631,-5.74239 z" />
      </g>
      <g
         id="g152"
         transform="matrix(0.98251868,0,0,0.98256344,-8.9238217,524.0009)"
         style="fill:#ffffff;fill-opacity:1;stroke:none;stroke-width:0.979432;stroke-linecap:square;stroke-linejoin:miter">
        <path
           id="path152"
           style="fill:#ffffff;fill-opacity:1;stroke:none;stroke-width:1.29917;stroke-linecap:square;stroke-linejoin:miter;stroke-dasharray:none;stroke-opacity:1"
           d="m 163.94296,15.701813 -9.49195,19.422974 h 9.22931 l 0.16036,-8.85834 0.53607,0.07761 5.23065,0.753442 -1.159,8.027292 h 7.36412 l -2.20286,-19.422974 z m 5.38124,2.936676 1.06031,5.482242 -5.44188,-0.600287 1.82047,-4.481592 z" />
      </g>
      <path
         style="fill:#ffffff;fill-opacity:1;stroke:none;stroke-width:1.28739;stroke-linecap:square;stroke-linejoin:miter;stroke-dasharray:none;stroke-opacity:1"
         d="m 258.71659,558.50783 2.80214,-19.14228 h 2.71589 l 1.20365,2.14198 0.97858,0.051 6.64348,-2.19168 6.70904,-10e-4 -1.47708,4.91382 -12.17077,0.32731 -0.94549,1.94305 8.94816,0.81596 0.0642,2.06952 -2.30875,0.8569 -7.23139,-0.99461 0.57388,2.50167 1.21159,0.27697 6.01827,1.09959 7.31727,-0.74796 -0.51663,6.02322 h -7.584 l -5.96119,-2.93039 -1.12706,-0.0372 0.60495,3.02949 z"
         id="path82"
         sodipodi:nodetypes="cccccccccccccccccccccccc" />
      <path
         style="fill:#ffffff;fill-opacity:1;stroke:none;stroke-width:1.27999;stroke-linecap:square;stroke-linejoin:miter;stroke-dasharray:none;stroke-opacity:1"
         d="m 287.69534,558.51323 3.00033,-19.03235 h 3.34325 l 0.21435,2.67891 0.71791,0.36432 6.05426,-3.04323 h 7.60179 v 5.57206 l -12.86249,-0.63087 -0.17154,1.15727 13.03398,2.47398 v 4.02899 l -8.11611,-0.47147 -5.62844,-3.17051 -0.97233,0.25582 0.38576,9.817 z"
         id="path28"
         sodipodi:nodetypes="ccccccccccccccccc" />
      <path
         style="fill:#ffffff;fill-opacity:1;stroke:none;stroke-width:1.28584;stroke-linecap:square;stroke-linejoin:miter;stroke-dasharray:none;stroke-opacity:1"
         d="m 320.81563,539.3941 -4.2625,8.06827 2.4357,8.76852 4.80738,2.23075 13.78431,0.0517 -1.99841,-10.16797 -9.11607,-2.67138 0.60082,4.88557 5.54563,-0.33824 -0.62307,4.30463 -9.25566,-1.43095 -1.27874,-7.33757 4.04935,-3.22732 8.70765,3.04465 3.3685,-4.17115 -7.5092,-2.00948 z"
         id="path92"
         sodipodi:nodetypes="ccccccccccccccccc" />
      <g
         id="g2"
         transform="matrix(0.98164244,0,0,0.98164244,12.536988,523.23276)"
         style="fill:#ffffff;fill-opacity:1;stroke:none;stroke-width:0.984784;stroke-linecap:square;stroke-linejoin:miter">
        <path
           style="fill:#ffffff;fill-opacity:1;stroke:none;stroke-width:1.30708;stroke-linecap:square;stroke-linejoin:miter;stroke-dasharray:none;stroke-opacity:1"
           d="m 339.19634,35.940239 2.27599,-19.435113 3.42847,-0.0233 1.0221,7.140828 9.59676,2.137334 -2.7961,-9.278162 7.8476,0.02332 -1.83193,19.411792 -4.99707,4e-6 -0.46903,-6.246684 -8.26652,-3.014676 2.89977,9.2614 z"
           id="path2"
           sodipodi:nodetypes="ccccccccccccc" />
      </g>
      <g
         id="g58"
         transform="matrix(0.98400619,0,0,0.98400619,569.13095,523.21079)"
         style="fill:#ffffff;fill-opacity:1;stroke:none;stroke-width:0.984784;stroke-linecap:square;stroke-linejoin:miter">
        <path
           style="fill:#ffffff;fill-opacity:1;stroke:none;stroke-width:1.30279;stroke-linecap:square;stroke-linejoin:miter;stroke-dasharray:none;stroke-opacity:1"
           d="m 351.49165,20.74513 -4.96258,-4.251779 h -9.51028 l -6.10752,4.886016 v 8.114277 l 6.5874,6.370921 h 9.16128 l 3.56546,-4.306805 0.18738,-1.600074 -5.28865,-1.914257 -2.47771,4.111349 -7.33779,-2.673004 1.15982,-7.55133 5.72403,-3.231281 5.26436,5.408858 3.62748,0.115248 z"
           id="path12"
           sodipodi:nodetypes="ccccccccccccccccc" />
        <path
           style="fill:#ffffff;fill-opacity:1;stroke:none;stroke-width:1.30279;stroke-linecap:square;stroke-linejoin:miter;stroke-dasharray:none;stroke-opacity:1"
           d="m 349.71968,35.876263 2.26851,-19.371214 3.41719,-0.02322 1.01874,7.11735 9.45615,2.91556 -2.67785,-10.03291 7.8218,0.02324 -1.82591,19.34797 -4.98064,4e-6 -0.94736,-6.117083 -7.75946,-3.113828 2.89023,9.230951 z"
           id="path32"
           sodipodi:nodetypes="ccccccccccccc" />
      </g>
      <path
         style="fill:#ffffff;fill-opacity:1;stroke:none;stroke-width:1.28349;stroke-linecap:square;stroke-linejoin:miter;stroke-dasharray:none;stroke-opacity:1"
         d="m 518.9166,558.51323 2.23489,-19.08419 3.36656,-0.0229 1.18507,4.38444 9.17329,7.83215 0.745,-1.63279 -3.42184,-10.5838 7.70591,0.0229 -1.79887,19.0613 h -6.60869 l 1.79145,-2.81501 -8.0765,-9.00512 -0.67831,0.82792 2.93483,10.99224 z"
         id="path96"
         sodipodi:nodetypes="ccccccccccccccc" />
      <path
         style="fill:#ffffff;fill-opacity:1;stroke:none;stroke-width:1.28237;stroke-linecap:square;stroke-linejoin:miter;stroke-dasharray:none;stroke-opacity:1"
         d="m 403.3115,551.68396 5.15297,-4.9812 4.11776,8.69932 3.91694,0.15165 1.94181,-2.08871 -2.37051,-14.01946 h 7.52954 l 0.70132,3.46415 -1.45405,15.60339 h -14.98399 z"
         id="path84"
         sodipodi:nodetypes="ccccccccccc" />
      <path
         style="fill:#ffffff;fill-opacity:1;stroke:none;stroke-width:1.28237;stroke-linecap:square;stroke-linejoin:miter;stroke-dasharray:none;stroke-opacity:1"
         d="m 432.22732,558.51323 2.61132,-19.06755 h 3.40076 l -0.24289,7.40883 0.64425,0.56881 10.59048,-7.97764 h 3.96669 v 4.49389 l -14.22976,6.19429 14.22976,6.19426 v 2.18511 h -10.16098 l -4.28137,-5.91992 -1.03235,0.12158 1.12347,5.79847 z"
         id="path40"
         sodipodi:nodetypes="cccccccccccccccc" />
      <path
         style="fill:#ffffff;fill-opacity:1;stroke:none;stroke-width:1.28349;stroke-linecap:square;stroke-linejoin:miter;stroke-dasharray:none;stroke-opacity:1"
         d="m 461.12393,558.48285 3.88998,-19.08424 h 3.82924 l -0.54707,11.91313 6.54717,1.25614 5.38536,-1.31693 1.88422,7.2319 h -9.74439 l -2.68955,-3.67616 -1.39798,0.0609 0.72938,3.64578 z"
         id="path41"
         sodipodi:nodetypes="cccccccccccc" />
      <g
         id="g105"
         transform="matrix(0.9798659,0,0,0.9798659,349.68051,499.98791)"
         style="fill:#ffffff;fill-opacity:1;stroke:none;stroke-width:1.30279;stroke-linecap:square;stroke-linejoin:miter;stroke-dasharray:none">
        <path
           id="path104"
           style="fill:#ffffff;fill-opacity:1;stroke:none;stroke-width:1.30986;stroke-linecap:square;stroke-linejoin:miter;stroke-dasharray:none;stroke-opacity:1"
           d="m 207.66112,40.251451 -5.43859,8.903856 v 4.210998 l 6.00909,6.361591 h 10.83387 l 4.57691,-10.484462 -6.9893,-8.991983 z m 5.28449,3.204502 5.58339,4.777893 -2.13513,7.539185 -3.15245,1.113691 -5.42106,-5.106692 2.1037,-6.103911 z" />
      </g>
      <g
         id="g43"
         transform="matrix(0.97986618,0,0,0.97986618,407.51052,499.98791)"
         style="fill:#ffffff;fill-opacity:1;stroke:none;stroke-width:1.30279;stroke-linecap:square;stroke-linejoin:miter;stroke-dasharray:none">
        <path
           id="path42"
           style="fill:#ffffff;fill-opacity:1;stroke:none;stroke-width:1.30986;stroke-linecap:square;stroke-linejoin:miter;stroke-dasharray:none;stroke-opacity:1"
           d="m 207.66121,40.251449 -5.4391,6.422916 v 6.691934 l 6.0096,6.361589 h 8.1973 l 1.90064,-3.403429 0.95754,0.01958 1.31365,3.383846 h 3.05195 v -3.877044 l -2.60411,-2.048036 -0.3458,-1.056485 2.80819,-4.292424 -6.85788,-8.20245 z m 4.14503,2.586586 6.20801,4.123385 -3.13029,8.999711 -5.31489,-1.218308 -2.79273,-3.732744 2.06453,-5.992077 z" />
      </g>
      <path
         style="fill:#ffffff;fill-opacity:1;stroke:none;stroke-width:1.28048;stroke-linecap:square;stroke-linejoin:miter;stroke-dasharray:none;stroke-opacity:1"
         d="m 682.2325,545.2062 1.99841,-3.84754 -2.36752,-1.96775 -7.41576,-1.8e-4 -8.35289,1.2318 1.83136,6.29272 8.71739,2.50964 3.13468,4.22761 v 0 l -7.94117,0.60615 -6.22977,-5.037 c 0,0 -1.88652,4.96418 -1.99726,5.21424 0.29102,0.17434 7.01594,3.83819 7.48195,3.9941 0.46604,0.15573 13.32734,0.0451 13.32734,0.0451 l -1.50973,-10.34475 -12.05487,-4.39262 0.40581,-1.33754 7.07673,0.23754 z"
         id="path48"
         sodipodi:nodetypes="ccccccccccccscccccc" />
      <path
         style="fill:#ffffff;fill-opacity:1;stroke:none;stroke-width:1.28349;stroke-linecap:square;stroke-linejoin:miter;stroke-dasharray:none;stroke-opacity:1"
         d="m 728.12723,539.42902 h -4.37429 l -2.4928,14.26895 4.38385,4.81526 h 10.74473 l 5.86038,-4.5144 -2.46504,-14.56981 h -6.18896 l 3.73824,12.80767 -4.68381,3.38185 -5.96794,-5.31588 z"
         id="path50"
         sodipodi:nodetypes="cccccccccccc" />
      <path
         style="fill:#ffffff;fill-opacity:1;stroke:none;stroke-width:1.28349;stroke-linecap:square;stroke-linejoin:miter;stroke-dasharray:none;stroke-opacity:1"
         d="m 756.26744,539.42902 h -6.09237 v 3.09983 l 8.78292,15.98438 h 3.88995 l 8.31609,-15.37658 v -3.70763 h -7.08947 l 0.55379,7.84502 -2.88352,8.83552 -1.07529,-0.13916 z"
         id="path95"
         sodipodi:nodetypes="cccccccccccc" />
      <path
         style="fill:#ffffff;fill-opacity:1;stroke:none;stroke-width:1.28349;stroke-linecap:square;stroke-linejoin:miter;stroke-dasharray:none;stroke-opacity:1"
         d="m 808.00495,543.55475 v -4.12596 h 5.50129 l 3.61022,4.96866 0.83635,0.0324 6.21218,-5.00093 h 4.8289 v 5.75916 l -9.166,2.79317 v 3.32354 l 9.16594,3.63951 v 3.56888 H 819.996 l -2.17445,-4.38298 -0.9055,0.005 -1.30392,4.37733 h -7.60723 v -3.99865 l 7.46908,-4.06534 -0.30088,-3.28683 z"
         id="path55"
         sodipodi:nodetypes="ccccccccccccccccccccc" />
      <path
         style="fill:#ffffff;fill-opacity:1;stroke:none;stroke-width:1.28349;stroke-linecap:square;stroke-linejoin:miter;stroke-dasharray:none;stroke-opacity:1"
         d="m 836.91986,553.65182 v 4.86141 h 9.75904 l 7.42035,-4.74723 3.80954,-10.9028 v -3.43418 h -7.95136 l 0.82743,12.30299 h -1.33721 l -5.65948,-12.30299 h -6.86831 v 2.46325 l 9.13449,11.06274 -1.92036,2.54683 -5.6669,-1.90057 z"
         id="path57"
         sodipodi:nodetypes="cccccccccccccccc" />
      <path
         style="fill:#ffffff;fill-opacity:1;stroke:none;stroke-width:1.28349;stroke-linecap:square;stroke-linejoin:miter;stroke-dasharray:none;stroke-opacity:1"
         d="m 886.82369,545.38558 v -5.95656 h -5.37912 l -7.86294,1.83753 -4.50606,-1.83753 h -3.24078 v 6.14527 l 14.89998,-1.30619 0.88134,0.7603 -15.78135,7.95482 v 5.53001 h 4.49416 l 3.47331,-1.26248 9.19225,1.26248 h 3.82921 v -3.40265 l -4.53191,-2.0057 -7.51796,0.6837 0.37212,-1.59736 11.67775,-5.86338 z"
         id="path58"
         sodipodi:nodetypes="ccccccccccccccccccccc" />
      <g
         id="g80"
         transform="matrix(1.0079411,0,0,1.0079411,-34.738637,522.44195)"
         style="fill:#ffffff;fill-opacity:1;stroke:none;stroke-width:0.984784">
        <path
           id="path79"
           style="fill:#ffffff;fill-opacity:1;stroke:none;stroke-width:1.30771;stroke-linecap:square;stroke-linejoin:miter;stroke-dasharray:none;stroke-opacity:1"
           d="m 667.20448,16.873688 -3.15282,18.913407 h 7.96998 l -2.22096,-12.121795 0.44389,-0.145792 6.94392,12.267587 h 7.79462 l -9.73701,-11.028604 7.61727,-2.702917 -2.99952,-5.181886 z m 7.10825,2.209428 2.72847,1.376759 -4.29511,1.95091 -1.36073,-2.691895 z" />
      </g>
      <path
         style="fill:#ffffff;stroke:none;stroke-width:0.256472px;stroke-linecap:butt;stroke-linejoin:miter;stroke-opacity:1"
         d="m 374.41495,539.44568 v 4.75343 l 3.75196,-1.0658 4.79206,1.92973 -0.59954,8.91573 -1.13627,0.89528 -6.80821,-1.5549 v 5.19408 h 3.62748 l 6.62944,-1.02845 1.6905,0.0178 4.81431,1.01168 h 4.20885 v -4.96556 l -7.11075,0.9696 -1.68259,-9.30243 4.41268,-1.90303 4.38066,1.48909 v -5.35527 h -5.12055 l -5.36477,1.19616 -1.02674,-0.005 -5.38977,-1.19094 z"
         id="path90"
         sodipodi:nodetypes="cccccccccccccccccccccccc" />
      <path
         style="fill:#ffffff;stroke:none;stroke-width:0.256696px;stroke-linecap:butt;stroke-linejoin:miter;stroke-opacity:1"
         d="m 779.09,541.83584 v -2.40682 h 3.997 l 3.32894,16.37579 1.22682,0.12795 1.16043,-12.72178 1.97705,-0.0428 1.03149,12.76475 1.3851,-0.14859 2.05321,-16.35541 h 4.82887 v 3.56723 l -5.2157,15.51701 H 783.47383 L 779.09,545.53191 Z"
         id="path13"
         sodipodi:nodetypes="cccccccccccccccc" />
      <g
         id="g15"
         transform="matrix(0.98518569,0,0,0.98518569,377.46253,499.67018)"
         style="fill:#ffffff;stroke-width:0.984784">
        <path
           id="path14"
           style="fill:#ffffff;stroke:none;stroke-width:0.260557px;stroke-linecap:butt;stroke-linejoin:miter;stroke-opacity:1"
           d="m 206.07425,40.356617 -3.79409,19.371276 h 7.27038 l -1.20866,-10.08596 0.78322,-0.305495 8.02387,2.402957 6.4359,-6.878259 -7.2996,-4.504519 z m 7.14018,2.684361 4.23183,1.439826 -1.64537,2.433712 -4.89869,-0.448504 -0.5013,-3.380952 z" />
      </g>
      <path
         style="fill:#ffffff;stroke:none;stroke-width:0.256699px;stroke-linecap:butt;stroke-linejoin:miter;stroke-opacity:1"
         d="m 697.63161,558.51323 h 8.50981 l -1.73932,-6.79679 -0.0935,-9.48009 1.91198,-0.24213 2.8005,4.82718 4.31313,-2.04979 -0.72347,-5.34252 h -19.00785 l -1.25761,4.52773 3.39533,1.83312 3.86811,-3.4628 1.86392,0.23831 z"
         id="path81"
         sodipodi:nodetypes="cccccccccccccc" />
    </g>
    <g
       id="g192"
       transform="translate(0,-0.27238588)">
      <path
         style="fill:#ffffff;fill-opacity:1;stroke:none;stroke-width:1.33373;stroke-linecap:square;stroke-linejoin:miter;stroke-dasharray:none;stroke-opacity:1"
         d="m 558.29943,563.36526 2.28703,-19.52946 3.44511,-0.0234 1.21274,4.48675 9.3873,8.01487 0.76238,-1.67086 -3.50168,-10.83076 7.8857,0.0234 -1.84083,19.50603 h -6.7629 l 1.83327,-2.88071 -8.26496,-9.2152 -0.69413,0.84723 3.00329,11.24872 z"
         id="path164"
         sodipodi:nodetypes="ccccccccccccccc" />
      <path
         style="fill:#ffffff;fill-opacity:1;stroke:none;stroke-width:1.33373;stroke-linecap:square;stroke-linejoin:miter;stroke-dasharray:none;stroke-opacity:1"
         d="m 626.82918,558.35187 v 4.97484 h 9.98673 l 7.59347,-4.85799 3.89842,-11.15718 v -3.51432 h -8.13686 l 0.84671,12.59003 h -1.36838 l -5.79155,-12.59003 h -7.02854 v 2.52075 l 9.3476,11.32082 -1.96516,2.60628 -5.7991,-1.94492 z"
         id="path174"
         sodipodi:nodetypes="cccccccccccccccc" />
      <path
         style="fill:#ffffff;stroke:none;stroke-width:0.266512px;stroke-linecap:butt;stroke-linejoin:miter;stroke-opacity:1"
         d="m 535.46873,543.85283 v 4.86433 l 3.83947,-1.09064 4.90386,1.97473 -0.61354,9.12376 -1.16277,0.91616 -6.96707,-1.59117 v 5.31526 h 3.71216 l 6.78409,-1.05246 1.72994,0.0172 4.92662,1.03525 h 4.30705 v -5.08137 l -7.27664,0.99222 -1.72184,-9.5195 4.51561,-1.94742 4.48287,1.52382 v -5.48018 h -5.24 l -5.48993,1.22406 -1.05073,-0.005 -5.51548,-1.21872 z"
         id="path186"
         sodipodi:nodetypes="cccccccccccccccccccccccc" />
      <path
         style="fill:#ffffff;stroke:none;stroke-width:0.266512px;stroke-linecap:butt;stroke-linejoin:miter;stroke-opacity:1"
         d="m 581.14896,543.85283 v 4.86433 l 3.83947,-1.09064 4.90386,1.97473 -0.61354,9.12376 -1.16277,0.91616 -6.96707,-1.59117 v 5.31526 h 3.71216 l 6.78409,-1.05246 1.72994,0.0172 4.92662,1.03525 h 4.30705 v -5.08137 l -7.27664,0.99222 -1.72184,-9.5195 4.51561,-1.94742 4.48287,1.52382 v -5.48018 h -5.24 l -5.48993,1.22406 -1.05073,-0.005 -5.51548,-1.21872 z"
         id="path177"
         sodipodi:nodetypes="cccccccccccccccccccccccc" />
      <path
         style="fill:#ffffff;stroke:none;stroke-width:0.266745px;stroke-linecap:butt;stroke-linejoin:miter;stroke-opacity:1"
         d="m 609.38937,563.36526 h 8.70836 l -1.77993,-6.9554 -0.0957,-9.70124 1.95659,-0.24786 2.86584,4.93984 4.41375,-2.09764 -0.74034,-5.46719 H 605.2666 l -1.28694,4.63339 3.47455,1.87588 3.95835,-3.54358 1.9074,0.24409 z"
         id="path180"
         sodipodi:nodetypes="cccccccccccccc" />
      <g
         id="g156"
         transform="matrix(1.0081709,0,0,1.0081709,262.98013,503.14934)"
         style="fill:#ffffff;fill-opacity:1;stroke:none;stroke-width:1.32292;stroke-linecap:square;stroke-linejoin:miter;stroke-dasharray:none">
        <path
           id="path156"
           style="fill:#ffffff;fill-opacity:1;stroke:none;stroke-width:1.32292;stroke-linecap:square;stroke-linejoin:miter;stroke-dasharray:none;stroke-opacity:1"
           d="m 204.74818,40.356617 -2.46805,19.371276 h 5.4292 l -0.0415,-4.233366 0.63252,-0.0651 2.72691,4.298463 h 8.15765 l 4.39995,-6.970522 -1.3568,-10.316474 -8.47236,-2.08428 h -4.84333 l -0.72478,2.959614 -0.76323,0.03127 -0.60945,-2.990881 z m 9.29198,3.207189 4.17465,2.126096 1.38487,3.400378 -3.61583,7.310994 -5.95357,-4.106247 0.0342,-5.893841 z"
           sodipodi:nodetypes="cccccccccccccccccccccc" />
      </g>
      <path
         style="fill:#ffffff;fill-opacity:1;stroke:none;stroke-width:1.33778;stroke-linecap:square;stroke-linejoin:miter;stroke-dasharray:none;stroke-opacity:1"
         d="m 489.76278,563.35974 2.86749,-19.58888 h 2.77926 l 1.23173,2.19193 1.0014,0.0521 6.79849,-2.24282 6.86555,-10e-4 -1.51153,5.02846 -12.45473,0.33496 -0.96754,1.98839 9.15692,0.83499 0.0658,2.11781 -2.3626,0.87688 -7.4001,-1.01783 0.58723,2.56005 1.23987,0.2834 6.1587,1.12526 7.488,-0.76542 -0.52869,6.16373 h -7.76098 l -6.10023,-2.99876 -1.15338,-0.0379 0.61908,3.10017 z"
         id="path158"
         sodipodi:nodetypes="cccccccccccccccccccccccc" />
      <path
         style="fill:#ffffff;fill-opacity:1;stroke:none;stroke-width:1.3301;stroke-linecap:square;stroke-linejoin:miter;stroke-dasharray:none;stroke-opacity:1"
         d="m 512.67761,563.36526 3.07033,-19.47639 h 3.42124 l 0.21928,2.74138 0.73469,0.37283 6.1955,-3.1142 h 7.77913 v 5.70206 l -13.16259,-0.64562 -0.17545,1.18427 13.33804,2.53169 v 4.12302 l -8.30546,-0.48248 -5.75975,-3.24449 -0.995,0.26188 0.39475,10.04605 z"
         id="path159"
         sodipodi:nodetypes="ccccccccccccccccc" />
    </g>
    <path
       style="fill:none;stroke:#ffffff;stroke-width:8.40464;stroke-linecap:butt;stroke-linejoin:miter;stroke-dasharray:none;stroke-opacity:1"
       d="m 325.06718,595.52363 c -3.00068,-4.1966 -4.69109,-9.31247 -4.80379,-14.47026 -0.11271,-5.15779 1.34957,-10.33636 4.12454,-14.68551 2.77496,-4.34915 6.84933,-7.85383 11.55531,-9.9679 4.70597,-2.11407 10.02534,-2.83264 15.12695,-2.06514 7.23495,1.08845 13.81953,5.09549 18.92882,10.33231 5.1093,5.23682 8.85452,11.65708 11.94444,18.28894 6.17984,13.26373 10.11252,27.91216 19.49343,39.14227 7.94438,9.5104 19.38349,15.81731 31.48772,18.47222 12.10423,2.65492 24.83114,1.79044 36.787,-1.46815 23.91171,-6.51719 44.21522,-22.08002 63.18294,-38.03212 18.96772,-15.9521 37.67651,-32.90012 60.25957,-43.11038 11.29152,-5.10513 23.49426,-8.43533 35.88327,-8.70633 12.38901,-0.27101 24.97502,2.62119 35.48848,9.18077 8.22178,5.12975 14.96025,12.31404 21.05459,19.84869 6.09435,7.53466 11.6518,15.50861 18.08952,22.75208 6.43772,7.24347 13.88307,13.82017 22.73782,17.75788 8.85474,3.9377 19.28312,5.0074 28.25845,1.35289 8.08477,-3.2919 14.48813,-10.33397 17.2758,-18.60616 2.78766,-8.27218 1.99566,-17.6293 -1.88017,-25.45094 -3.87583,-7.82163 -10.73682,-14.06096 -18.77833,-17.45715 -8.04152,-3.39618 -17.19079,-3.97888 -25.67494,-1.92478 -8.35838,2.02365 -15.94233,6.4754 -22.84953,11.59872 -19.74514,14.64569 -34.62887,34.83336 -52.95647,51.21827 -9.16381,8.19246 -19.29199,15.48338 -30.64546,20.19405 -11.35347,4.71067 -24.02914,6.73486 -36.08219,4.32331 -14.75947,-2.95304 -27.57704,-12.2968 -37.70831,-23.42873 -10.13126,-11.13193 -17.97363,-24.10476 -26.37381,-36.59473 -8.40017,-12.48998 -17.60176,-24.7598 -29.70731,-33.70509 -6.05277,-4.47264 -12.80193,-8.0652 -20.03072,-10.1593 -7.22878,-2.09411 -14.94828,-2.66029 -22.33221,-1.20491 -12.33313,2.43087 -22.96229,10.27179 -31.75089,19.25932 -8.7886,8.98753 -16.15853,19.27246 -24.85787,28.34642 -8.69934,9.07396 -19.13953,17.10662 -31.39517,19.90205 -6.12782,1.39772 -12.62068,1.41901 -18.64544,-0.37155 -6.02476,-1.79057 -11.55033,-5.44837 -15.20604,-10.56106 z"
       id="path189"
       inkscape:path-effect="#path-effect189"
       inkscape:original-d="m 325.06718,595.52363 c -10.72538,-12.19128 9.77359,-40.57167 26.00301,-41.18881 28.13049,-1.06969 23.8951,58.18989 50.36669,67.76352 84.847,30.6855 174.34169,-79.94438 263.08898,-63.66399 35.81996,6.57105 62.28232,85.15908 90.14038,61.71154 17.79767,-14.97993 -7.09048,-55.77569 -29.05764,-63.43903 -8.06524,-2.8136 -15.42417,7.37724 -22.84953,11.59872 -41.04285,23.33375 -72.51885,77.93385 -119.68412,75.73563 C 525.7976,641.3717 503.90697,545.31838 446.92259,538.94845 402.41417,533.97313 354.643,629.1417 325.06718,595.52363 Z"
       transform="matrix(0.15901755,0,0,0.15580528,471.59223,496.13641)"
       sodipodi:nodetypes="aaaaaaaaaa" />
  </g>
</svg>
