<?xml version="1.0" encoding="UTF-8" standalone="no"?>
<!-- Created with Inkscape (http://www.inkscape.org/) -->

<svg
   width="315.90646mm"
   height="192.16393mm"
   viewBox="0 0 315.90646 192.16393"
   version="1.1"
   id="svg1"
   inkscape:version="1.3 (0e150ed6c4, 2023-07-21)"
   sodipodi:docname="Portfolio_workPreviewElement_Nameless.svg"
   xmlns:inkscape="http://www.inkscape.org/namespaces/inkscape"
   xmlns:sodipodi="http://sodipodi.sourceforge.net/DTD/sodipodi-0.dtd"
   xmlns="http://www.w3.org/2000/svg"
   xmlns:svg="http://www.w3.org/2000/svg">
  <sodipodi:namedview
     id="namedview1"
     pagecolor="#505050"
     bordercolor="#000000"
     borderopacity="1"
     inkscape:showpageshadow="0"
     inkscape:pageopacity="0"
     inkscape:pagecheckerboard="0"
     inkscape:deskcolor="#4c4c4c"
     inkscape:document-units="mm"
     borderlayer="false"
     showborder="false"
     inkscape:zoom="0.37905795"
     inkscape:cx="-108.16288"
     inkscape:cy="953.68004"
     inkscape:window-width="1920"
     inkscape:window-height="1009"
     inkscape:window-x="-8"
     inkscape:window-y="-8"
     inkscape:window-maximized="1"
     inkscape:current-layer="layer1" />
  <defs
     id="defs1" />
  <g
     inkscape:label="Слой 1"
     inkscape:groupmode="layer"
     id="layer1"
     transform="translate(-69.454102,-5.1472687)">
    <rect
       style="fill:#1a1a1a;fill-opacity:1;stroke:#1a1a1a;stroke-width:1.32292;stroke-linecap:round;stroke-linejoin:round;stroke-miterlimit:4.7;stroke-dasharray:none;stroke-opacity:1"
       id="rect60"
       width="314.58356"
       height="190.841"
       x="70.115562"
       y="5.8087292"
       ry="9.6244631"
       rx="9.6244621" />
    <rect
       style="fill:#ced6c2;fill-opacity:1;stroke:#1a1a1a;stroke-width:1.32292;stroke-linecap:round;stroke-linejoin:round;stroke-miterlimit:4.7;stroke-dasharray:none;stroke-opacity:1"
       id="rect87"
       width="312.42487"
       height="189.52788"
       x="70.115562"
       y="5.8087287"
       ry="9.6244621"
       rx="9.6244621" />
    <g
       id="g85"
       transform="translate(-1.6418579,-1.445681)">
      <path
         id="path60"
         style="fill:#1a1a1a;fill-opacity:1;stroke:#1a1a1a;stroke-width:1.32292;stroke-linecap:round;stroke-linejoin:round;stroke-miterlimit:4.7;stroke-dasharray:none;stroke-opacity:1"
         d="m 217.8005,84.195341 c 3.86285,-0.38512 7.66607,-1.48196 11.06699,-3.3689 3.94644,-2.14227 7.35384,-5.26339 9.86361,-8.98454 2.57907,-3.81492 4.18641,-8.26934 4.66378,-12.84803 0.43658,-4.15453 -0.0866,-8.39393 -1.46204,-12.33646 -1.38028,-3.85657 -3.59433,-7.40609 -6.45925,-10.33532 -2.88057,-2.92295 -6.39463,-5.20903 -10.23516,-6.65753 -2.99512,-1.10764 -6.17263,-1.72537 -9.36761,-1.77976 0,3.10351 0,6.20703 0,9.31053 3.29751,0.0784 6.54819,1.0725 9.36656,2.77751 2.94723,1.82868 5.39016,4.46115 6.95616,7.55976 1.60145,3.15078 2.29255,6.7552 1.96703,10.27609 -0.32346,3.5201 -1.65433,6.93967 -3.80484,9.74764 -2.14497,2.80896 -5.0914,4.99528 -8.40504,6.22921 -1.9439,0.71924 -4.00542,1.13204 -6.07987,1.18323 0,3.10352 0,6.20704 0,9.31055 0.64323,-0.028 1.28645,-0.056 1.92968,-0.084 z" />
      <path
         id="path61"
         style="fill:#cf7130;fill-opacity:1;stroke:#1a1a1a;stroke-width:1.32292;stroke-linecap:round;stroke-linejoin:round;stroke-miterlimit:4.7;stroke-dasharray:none;stroke-opacity:1"
         d="m 217.8005,81.303979 c 3.86285,-0.38512 7.66607,-1.48196 11.06699,-3.3689 3.94644,-2.14227 7.35384,-5.26339 9.86361,-8.98454 2.57907,-3.81492 4.18641,-8.26934 4.66378,-12.84803 0.43658,-4.15453 -0.0866,-8.39393 -1.46204,-12.33646 -1.38028,-3.85657 -3.59433,-7.40609 -6.45925,-10.33532 -2.88057,-2.92295 -6.39463,-5.20903 -10.23516,-6.65753 -2.99512,-1.10764 -6.17263,-1.72537 -9.36761,-1.77976 0,3.10351 0,6.20703 0,9.31053 3.29751,0.0784 6.54819,1.0725 9.36656,2.77751 2.94723,1.82868 5.39016,4.46115 6.95616,7.55976 1.60145,3.15078 2.29255,6.7552 1.96703,10.27609 -0.32346,3.5201 -1.65433,6.93967 -3.80484,9.74764 -2.14497,2.80896 -5.0914,4.99528 -8.40504,6.22921 -1.9439,0.71924 -4.00542,1.13204 -6.07987,1.18323 0,3.10352 0,6.20704 0,9.31055 0.64323,-0.028 1.28645,-0.056 1.92968,-0.084 z" />
      <path
         id="path62"
         style="fill:#1a1a1a;fill-opacity:1;stroke:#1a1a1a;stroke-width:1.32292;stroke-linecap:round;stroke-linejoin:round;stroke-miterlimit:4.7;stroke-dasharray:none;stroke-opacity:1"
         d="m 191.64601,84.195341 c 3.86285,-0.38512 7.66607,-1.48196 11.06699,-3.3689 3.94644,-2.14227 7.35384,-5.26339 9.86361,-8.98454 2.57907,-3.81492 4.18641,-8.26934 4.66378,-12.84803 0.43658,-4.15453 -0.0866,-8.39393 -1.46204,-12.33646 -1.38028,-3.85657 -3.59433,-7.40609 -6.45925,-10.33532 -2.88057,-2.92295 -6.39463,-5.20903 -10.23516,-6.65753 -2.99512,-1.10764 -6.17263,-1.72537 -9.36761,-1.77976 0,3.10351 0,6.20703 0,9.31053 3.29751,0.0784 6.54819,1.0725 9.36656,2.77751 2.94723,1.82868 5.39016,4.46115 6.95616,7.55976 1.60145,3.15078 2.29255,6.7552 1.96703,10.27609 -0.32346,3.5201 -1.65433,6.93967 -3.80484,9.74764 -2.14497,2.80896 -5.0914,4.99528 -8.40504,6.22921 -1.9439,0.71924 -4.00542,1.13204 -6.07987,1.18323 0,3.10352 0,6.20704 0,9.31055 0.64323,-0.028 1.28645,-0.056 1.92968,-0.084 z" />
      <path
         id="path63"
         style="fill:#cf7130;fill-opacity:1;stroke:#1a1a1a;stroke-width:1.32292;stroke-linecap:round;stroke-linejoin:round;stroke-miterlimit:4.7;stroke-dasharray:none;stroke-opacity:1"
         d="m 191.64601,81.303979 c 3.86285,-0.38512 7.66607,-1.48196 11.06699,-3.3689 3.94644,-2.14227 7.35384,-5.26339 9.86361,-8.98454 2.57907,-3.81492 4.18641,-8.26934 4.66378,-12.84803 0.43658,-4.15453 -0.0866,-8.39393 -1.46204,-12.33646 -1.38028,-3.85657 -3.59433,-7.40609 -6.45925,-10.33532 -2.88057,-2.92295 -6.39463,-5.20903 -10.23516,-6.65753 -2.99512,-1.10764 -6.17263,-1.72537 -9.36761,-1.77976 0,3.10351 0,6.20703 0,9.31053 3.29751,0.0784 6.54819,1.0725 9.36656,2.77751 2.94723,1.82868 5.39016,4.46115 6.95616,7.55976 1.60145,3.15078 2.29255,6.7552 1.96703,10.27609 -0.32346,3.5201 -1.65433,6.93967 -3.80484,9.74764 -2.14497,2.80896 -5.0914,4.99528 -8.40504,6.22921 -1.9439,0.71924 -4.00542,1.13204 -6.07987,1.18323 0,3.10352 0,6.20704 0,9.31055 0.64323,-0.028 1.28645,-0.056 1.92968,-0.084 z" />
      <path
         id="path64"
         style="fill:#1a1a1a;fill-opacity:1;stroke:#1a1a1a;stroke-width:1.32292;stroke-linecap:round;stroke-linejoin:round;stroke-miterlimit:4.7;stroke-dasharray:none;stroke-opacity:1"
         d="m 246.7978,84.195341 c 3.86285,-0.38512 7.66607,-1.48196 11.06699,-3.3689 3.94644,-2.14227 7.35384,-5.26339 9.86361,-8.98454 2.57907,-3.81492 4.18641,-8.26934 4.66378,-12.84803 0.43658,-4.15453 -0.0866,-8.39393 -1.46204,-12.33646 -1.38028,-3.85657 -3.59433,-7.40609 -6.45925,-10.33532 -2.88057,-2.92295 -6.39463,-5.20903 -10.23516,-6.65753 -2.99512,-1.10764 -6.17263,-1.72537 -9.36761,-1.77976 0,3.10351 0,6.20703 0,9.31053 3.29751,0.0784 6.54819,1.0725 9.36656,2.77751 2.94723,1.82868 5.39016,4.46115 6.95616,7.55976 1.60145,3.15078 2.29255,6.7552 1.96703,10.27609 -0.32346,3.5201 -1.65433,6.93967 -3.80484,9.74764 -2.14497,2.80896 -5.0914,4.99528 -8.40504,6.22921 -1.9439,0.71924 -4.00542,1.13204 -6.07987,1.18323 0,3.10352 0,6.20704 0,9.31055 0.64323,-0.028 1.28645,-0.056 1.92968,-0.084 z" />
      <path
         id="path65"
         style="fill:#cf7130;fill-opacity:1;stroke:#1a1a1a;stroke-width:1.32292;stroke-linecap:round;stroke-linejoin:round;stroke-miterlimit:4.7;stroke-dasharray:none;stroke-opacity:1"
         d="m 246.7978,81.303979 c 3.86285,-0.38512 7.66607,-1.48196 11.06699,-3.3689 3.94644,-2.14227 7.35384,-5.26339 9.86361,-8.98454 2.57907,-3.81492 4.18641,-8.26934 4.66378,-12.84803 0.43658,-4.15453 -0.0866,-8.39393 -1.46204,-12.33646 -1.38028,-3.85657 -3.59433,-7.40609 -6.45925,-10.33532 -2.88057,-2.92295 -6.39463,-5.20903 -10.23516,-6.65753 -2.99512,-1.10764 -6.17263,-1.72537 -9.36761,-1.77976 0,3.10351 0,6.20703 0,9.31053 3.29751,0.0784 6.54819,1.0725 9.36656,2.77751 2.94723,1.82868 5.39016,4.46115 6.95616,7.55976 1.60145,3.15078 2.29255,6.7552 1.96703,10.27609 -0.32346,3.5201 -1.65433,6.93967 -3.80484,9.74764 -2.14497,2.80896 -5.0914,4.99528 -8.40504,6.22921 -1.9439,0.71924 -4.00542,1.13204 -6.07987,1.18323 0,3.10352 0,6.20704 0,9.31055 0.64323,-0.028 1.28645,-0.056 1.92968,-0.084 z" />
    </g>
    <g
       id="g80"
       transform="translate(1.2252996,1.8237377)">
      <g
         id="g51"
         transform="translate(0,-2.1248017)">
        <path
           id="path40"
           style="fill:#1a1a1a;fill-opacity:1;stroke:#1a1a1a;stroke-width:1.32292;stroke-linecap:round;stroke-linejoin:round;stroke-miterlimit:4.7;stroke-dasharray:none;stroke-opacity:1"
           d="m 208.97778,123.05004 c 0.35502,3.55371 1.36613,7.05257 3.10557,10.18133 1.97481,3.63062 4.85196,6.76533 8.28224,9.07425 3.51672,2.37268 7.62294,3.85138 11.84372,4.29056 3.82979,0.40164 7.73781,-0.0797 11.37216,-1.34505 3.5551,-1.26981 6.82716,-3.30668 9.52742,-5.94233 2.69448,-2.65004 4.80186,-5.88289 6.13713,-9.41608 1.02106,-2.75542 1.59051,-5.67865 1.64064,-8.61794 -2.86091,0 -5.72184,0 -8.58274,0 -0.0723,3.03362 -0.98867,6.02416 -2.5604,8.61698 -1.68574,2.71137 -4.11243,4.9588 -6.96883,6.39948 -2.90449,1.47329 -6.22717,2.10908 -9.47284,1.80961 -3.24493,-0.29757 -6.39721,-1.52193 -8.98569,-3.50034 -2.58939,-1.97331 -4.6048,-4.68396 -5.74229,-7.73241 -0.66302,-1.78834 -1.04355,-3.68488 -1.09074,-5.59332 -2.86092,0 -5.72184,0 -8.58276,0 0.0258,0.59176 0.0516,1.1835 0.0774,1.77526 z" />
        <path
           id="path21"
           style="fill:#1a1a1a;fill-opacity:1;stroke:#1a1a1a;stroke-width:1.32292;stroke-linecap:round;stroke-linejoin:round;stroke-miterlimit:4.7;stroke-dasharray:none;stroke-opacity:1"
           d="m 190.83673,154.00062 c 0.35502,3.55371 1.36613,7.05257 3.10557,10.18133 1.97481,3.63062 4.85196,6.76533 8.28224,9.07425 3.51672,2.37268 7.62294,3.85138 11.84372,4.29056 3.82979,0.40164 7.73781,-0.0797 11.37216,-1.34505 3.5551,-1.26981 6.82716,-3.30668 9.52742,-5.94233 2.69448,-2.65004 4.80186,-5.88289 6.13713,-9.41608 1.02106,-2.75542 1.59051,-5.67865 1.64064,-8.61794 -2.86091,0 -5.72184,0 -8.58274,0 -0.0723,3.03362 -0.98867,6.02416 -2.5604,8.61698 -1.68574,2.71137 -4.11243,4.9588 -6.96883,6.39948 -2.90449,1.47329 -6.22717,2.10908 -9.47284,1.80961 -3.24493,-0.29757 -6.39721,-1.52193 -8.98569,-3.50034 -2.58939,-1.97331 -4.6048,-4.68396 -5.74229,-7.73241 -0.66302,-1.78834 -1.04355,-3.68488 -1.09074,-5.59332 -2.86092,0 -5.72184,0 -8.58276,0 0.0258,0.59176 0.0516,1.1835 0.0774,1.77526 z" />
        <path
           id="path42"
           style="fill:#1a1a1a;fill-opacity:1;stroke:#1a1a1a;stroke-width:1.32292;stroke-linecap:round;stroke-linejoin:round;stroke-miterlimit:4.7;stroke-dasharray:none;stroke-opacity:1"
           d="m 191.60531,146.69657 c 1.69351,-0.17387 3.36087,-0.66905 4.85186,-1.52092 1.73015,-0.96714 3.22399,-2.37619 4.32429,-4.05613 1.13069,-1.72227 1.83536,-3.73325 2.04464,-5.80033 0.1914,-1.87559 -0.038,-3.7895 -0.64097,-5.56938 -0.60512,-1.74108 -1.57578,-3.34353 -2.83179,-4.66596 -1.26286,-1.31958 -2.80346,-2.35165 -4.48718,-3.00558 -1.31308,-0.50006 -2.70613,-0.77893 -4.10684,-0.80349 0,1.4011 0,2.80221 0,4.2033 1.44566,0.0354 2.87078,0.48419 4.10638,1.25393 1.29209,0.82557 2.36309,2.01402 3.04964,3.41291 0.70209,1.42244 1.00507,3.04968 0.86236,4.63921 -0.1418,1.58917 -0.72527,3.13296 -1.66807,4.40064 -0.94037,1.26812 -2.23211,2.25515 -3.68484,2.81222 -0.85222,0.32471 -1.75601,0.51107 -2.66547,0.53418 0,1.4011 0,2.80221 0,4.20331 0.282,-0.0126 0.56399,-0.0253 0.84599,-0.0379 z" />
        <path
           id="path39"
           style="fill:#1a1a1a;fill-opacity:1;stroke:#1a1a1a;stroke-width:1.32292;stroke-linecap:round;stroke-linejoin:round;stroke-miterlimit:4.7;stroke-dasharray:none;stroke-opacity:1"
           d="m 249.59991,177.64714 c 1.69351,-0.17387 3.36087,-0.66905 4.85186,-1.52092 1.73015,-0.96714 3.22399,-2.37619 4.32429,-4.05613 1.13069,-1.72227 1.83536,-3.73325 2.04464,-5.80033 0.1914,-1.87559 -0.038,-3.7895 -0.64097,-5.56938 -0.60512,-1.74108 -1.57578,-3.34353 -2.83179,-4.66596 -1.26286,-1.31958 -2.80346,-2.35165 -4.48718,-3.00558 -1.31308,-0.50006 -2.70613,-0.77893 -4.10684,-0.80349 0,1.4011 0,2.80221 0,4.2033 1.44566,0.0354 2.87078,0.48419 4.10638,1.25393 1.29209,0.82557 2.36309,2.01402 3.04964,3.41291 0.70209,1.42244 1.00507,3.04968 0.86236,4.63921 -0.1418,1.58917 -0.72527,3.13296 -1.66807,4.40064 -0.94037,1.26812 -2.23211,2.25515 -3.68484,2.81222 -0.85222,0.32471 -1.75601,0.51107 -2.66547,0.53418 0,1.4011 0,2.80221 0,4.20331 0.282,-0.0126 0.56399,-0.0253 0.84599,-0.0379 z" />
        <path
           id="path43"
           style="fill:#1a1a1a;fill-opacity:1;stroke:#1a1a1a;stroke-width:1.32292;stroke-linecap:round;stroke-linejoin:round;stroke-miterlimit:4.7;stroke-dasharray:none;stroke-opacity:1"
           d="m 202.04607,146.69657 c -1.69351,-0.17387 -3.36087,-0.66905 -4.85186,-1.52092 -1.73015,-0.96714 -3.22399,-2.37619 -4.32429,-4.05613 -1.13069,-1.72227 -1.83536,-3.73325 -2.04464,-5.80033 -0.1914,-1.87559 0.038,-3.7895 0.64097,-5.56938 0.60512,-1.74108 1.57578,-3.34353 2.83179,-4.66596 1.26286,-1.31958 2.80346,-2.35165 4.48718,-3.00558 1.31308,-0.50006 2.70613,-0.77893 4.10684,-0.80349 0,1.4011 0,2.80221 0,4.2033 -1.44566,0.0354 -2.87078,0.48419 -4.10638,1.25393 -1.29209,0.82557 -2.36309,2.01402 -3.04964,3.41291 -0.70209,1.42244 -1.00507,3.04968 -0.86236,4.63921 0.1418,1.58917 0.72527,3.13296 1.66807,4.40064 0.94037,1.26812 2.23211,2.25515 3.68484,2.81222 0.85222,0.32471 1.75601,0.51107 2.66547,0.53418 0,1.4011 0,2.80221 0,4.20331 -0.282,-0.0126 -0.56399,-0.0253 -0.84599,-0.0379 z" />
        <path
           id="path22"
           style="fill:#1a1a1a;fill-opacity:1;stroke:#1a1a1a;stroke-width:1.32292;stroke-linecap:round;stroke-linejoin:round;stroke-miterlimit:4.7;stroke-dasharray:none;stroke-opacity:1"
           d="m 260.04067,177.64714 c -1.69351,-0.17387 -3.36087,-0.66905 -4.85186,-1.52092 -1.73015,-0.96714 -3.22399,-2.37619 -4.32429,-4.05613 -1.13069,-1.72227 -1.83536,-3.73325 -2.04464,-5.80033 -0.1914,-1.87559 0.038,-3.7895 0.64097,-5.56938 0.60512,-1.74108 1.57578,-3.34353 2.83179,-4.66596 1.26286,-1.31958 2.80346,-2.35165 4.48718,-3.00558 1.31308,-0.50006 2.70613,-0.77893 4.10684,-0.80349 0,1.4011 0,2.80221 0,4.2033 -1.44566,0.0354 -2.87078,0.48419 -4.10638,1.25393 -1.29209,0.82557 -2.36309,2.01402 -3.04964,3.41291 -0.70209,1.42244 -1.00507,3.04968 -0.86236,4.63921 0.1418,1.58917 0.72527,3.13296 1.66807,4.40064 0.94037,1.26812 2.23211,2.25515 3.68484,2.81222 0.85222,0.32471 1.75601,0.51107 2.66547,0.53418 0,1.4011 0,2.80221 0,4.20331 -0.282,-0.0126 -0.56399,-0.0253 -0.84599,-0.0379 z" />
        <path
           id="path41"
           style="fill:#1a1a1a;fill-opacity:1;stroke:#1a1a1a;stroke-width:1.32292;stroke-linecap:round;stroke-linejoin:round;stroke-miterlimit:4.7;stroke-dasharray:none;stroke-opacity:1"
           d="m 208.97778,144.95921 c 0.35502,-3.55372 1.36613,-7.05258 3.10557,-10.18133 1.97481,-3.63062 4.85196,-6.76533 8.28224,-9.07426 3.51672,-2.37267 7.62294,-3.85138 11.84372,-4.29055 3.82979,-0.40164 7.73781,0.0797 11.37216,1.34504 3.5551,1.26982 6.82716,3.30668 9.52742,5.94233 2.69448,2.65005 4.80186,5.88289 6.13713,9.41607 1.02106,2.75543 1.59051,5.67865 1.64064,8.61795 -2.86091,0 -5.72184,0 -8.58274,0 -0.0723,-3.03362 -0.98867,-6.02416 -2.5604,-8.61698 -1.68574,-2.71137 -4.11243,-4.9588 -6.96883,-6.39948 -2.90449,-1.47329 -6.22717,-2.10909 -9.47284,-1.80961 -3.24493,0.29758 -6.39721,1.52194 -8.98569,3.50035 -2.58939,1.97331 -4.6048,4.68395 -5.74229,7.7324 -0.66302,1.78834 -1.04355,3.68489 -1.09074,5.59332 -2.86092,0 -5.72184,0 -8.58276,0 0.0258,-0.59175 0.0516,-1.18349 0.0774,-1.77525 z" />
        <path
           id="path23"
           style="fill:#1a1a1a;fill-opacity:1;stroke:#1a1a1a;stroke-width:1.32292;stroke-linecap:round;stroke-linejoin:round;stroke-miterlimit:4.7;stroke-dasharray:none;stroke-opacity:1"
           d="m 190.83673,175.90979 c 0.35502,-3.55372 1.36613,-7.05258 3.10557,-10.18133 1.97481,-3.63062 4.85196,-6.76533 8.28224,-9.07426 3.51672,-2.37267 7.62294,-3.85138 11.84372,-4.29055 3.82979,-0.40164 7.73781,0.0797 11.37216,1.34504 3.5551,1.26982 6.82716,3.30668 9.52742,5.94233 2.69448,2.65005 4.80186,5.88289 6.13713,9.41607 1.02106,2.75543 1.59051,5.67865 1.64064,8.61795 -2.86091,0 -5.72184,0 -8.58274,0 -0.0723,-3.03362 -0.98867,-6.02416 -2.5604,-8.61698 -1.68574,-2.71137 -4.11243,-4.9588 -6.96883,-6.39948 -2.90449,-1.47329 -6.22717,-2.10909 -9.47284,-1.80961 -3.24493,0.29758 -6.39721,1.52194 -8.98569,3.50035 -2.58939,1.97331 -4.6048,4.68395 -5.74229,7.7324 -0.66302,1.78834 -1.04355,3.68489 -1.09074,5.59332 -2.86092,0 -5.72184,0 -8.58276,0 0.0258,-0.59175 0.0516,-1.18349 0.0774,-1.77525 z" />
      </g>
      <path
         id="path44"
         style="fill:#cf7130;fill-opacity:1;stroke:#1a1a1a;stroke-width:1.32292;stroke-linecap:round;stroke-linejoin:round;stroke-miterlimit:4.7;stroke-dasharray:none;stroke-opacity:1"
         d="m 208.97778,118.4768 c 0.35502,3.55371 1.36613,7.05257 3.10557,10.18133 1.97481,3.63062 4.85196,6.76533 8.28224,9.07425 3.51672,2.37268 7.62294,3.85138 11.84372,4.29056 3.82979,0.40164 7.73781,-0.0797 11.37216,-1.34505 3.5551,-1.26981 6.82716,-3.30668 9.52742,-5.94233 2.69448,-2.65004 4.80186,-5.88289 6.13713,-9.41608 1.02106,-2.75542 1.59051,-5.67865 1.64064,-8.61794 -2.86091,0 -5.72184,0 -8.58274,0 -0.0723,3.03362 -0.98867,6.02416 -2.5604,8.61698 -1.68574,2.71137 -4.11243,4.9588 -6.96883,6.39948 -2.90449,1.47329 -6.22717,2.10908 -9.47284,1.80961 -3.24493,-0.29757 -6.39721,-1.52193 -8.98569,-3.50034 -2.58939,-1.97331 -4.6048,-4.68396 -5.74229,-7.73241 -0.66302,-1.78834 -1.04355,-3.68488 -1.09074,-5.59332 -2.86092,0 -5.72184,0 -8.58276,0 0.0258,0.59176 0.0516,1.1835 0.0774,1.77526 z" />
      <path
         id="path45"
         style="fill:#87925c;fill-opacity:1;stroke:#1a1a1a;stroke-width:1.32292;stroke-linecap:round;stroke-linejoin:round;stroke-miterlimit:4.7;stroke-dasharray:none;stroke-opacity:1"
         d="m 242.6682,171.33655 c -0.35502,-3.55371 -1.36613,-7.05257 -3.10557,-10.18133 -1.97481,-3.63062 -4.85196,-6.76533 -8.28224,-9.07425 -3.51672,-2.37268 -7.62294,-3.85138 -11.84372,-4.29056 -3.82979,-0.40164 -7.73781,0.0797 -11.37216,1.34505 -3.5551,1.26981 -6.82716,3.30668 -9.52742,5.94233 -2.69448,2.65004 -4.80186,5.88289 -6.13713,9.41608 -1.02106,2.75542 -1.59051,5.67865 -1.64064,8.61794 2.86091,0 5.72184,0 8.58274,0 0.0723,-3.03362 0.98867,-6.02416 2.5604,-8.61698 1.68574,-2.71137 4.11243,-4.9588 6.96883,-6.39948 2.90449,-1.47329 6.22717,-2.10908 9.47284,-1.80961 3.24493,0.29757 6.39721,1.52193 8.98569,3.50034 2.58939,1.97331 4.6048,4.68396 5.74229,7.73241 0.66302,1.78834 1.04355,3.68488 1.09074,5.59332 2.86092,0 5.72184,0 8.58276,0 -0.0258,-0.59176 -0.0516,-1.1835 -0.0774,-1.77526 z" />
      <path
         id="path46"
         style="fill:#cf7130;fill-opacity:1;stroke:#1a1a1a;stroke-width:1.32292;stroke-linecap:round;stroke-linejoin:round;stroke-miterlimit:4.7;stroke-dasharray:none;stroke-opacity:1"
         d="m 191.60531,142.12333 c 1.69351,-0.17387 3.36087,-0.66905 4.85186,-1.52092 1.73015,-0.96714 3.22399,-2.37619 4.32429,-4.05613 1.13069,-1.72227 1.83536,-3.73325 2.04464,-5.80033 0.1914,-1.87559 -0.038,-3.7895 -0.64097,-5.56938 -0.60512,-1.74108 -1.57578,-3.34353 -2.83179,-4.66596 -1.26286,-1.31958 -2.80346,-2.35165 -4.48718,-3.00558 -1.31308,-0.50006 -2.70613,-0.77893 -4.10684,-0.80349 0,1.4011 0,2.80221 0,4.2033 1.44566,0.0354 2.87078,0.48419 4.10638,1.25393 1.29209,0.82557 2.36309,2.01402 3.04964,3.41291 0.70209,1.42244 1.00507,3.04968 0.86236,4.63921 -0.1418,1.58917 -0.72527,3.13296 -1.66807,4.40064 -0.94037,1.26812 -2.23211,2.25515 -3.68484,2.81222 -0.85222,0.32471 -1.75601,0.51107 -2.66547,0.53418 0,1.4011 0,2.80221 0,4.20331 0.282,-0.0126 0.56399,-0.0253 0.84599,-0.0379 z" />
      <path
         id="path47"
         style="fill:#87925c;fill-opacity:1;stroke:#1a1a1a;stroke-width:1.32292;stroke-linecap:round;stroke-linejoin:round;stroke-miterlimit:4.7;stroke-dasharray:none;stroke-opacity:1"
         d="m 260.04067,147.69002 c -1.69351,0.17387 -3.36087,0.66905 -4.85186,1.52092 -1.73015,0.96714 -3.22399,2.37619 -4.32429,4.05613 -1.13069,1.72227 -1.83536,3.73325 -2.04464,5.80033 -0.1914,1.87559 0.038,3.7895 0.64097,5.56938 0.60512,1.74108 1.57578,3.34353 2.83179,4.66596 1.26286,1.31958 2.80346,2.35165 4.48718,3.00558 1.31308,0.50006 2.70613,0.77893 4.10684,0.80349 0,-1.4011 0,-2.80221 0,-4.2033 -1.44566,-0.0354 -2.87078,-0.48419 -4.10638,-1.25393 -1.29209,-0.82557 -2.36309,-2.01402 -3.04964,-3.41291 -0.70209,-1.42244 -1.00507,-3.04968 -0.86236,-4.63921 0.1418,-1.58917 0.72527,-3.13296 1.66807,-4.40064 0.94037,-1.26812 2.23211,-2.25515 3.68484,-2.81222 0.85222,-0.32471 1.75601,-0.51107 2.66547,-0.53418 0,-1.4011 0,-2.80221 0,-4.20331 -0.282,0.0126 -0.56399,0.0253 -0.84599,0.0379 z" />
      <path
         id="path48"
         style="fill:#cf7130;fill-opacity:1;stroke:#1a1a1a;stroke-width:1.32292;stroke-linecap:round;stroke-linejoin:round;stroke-miterlimit:4.7;stroke-dasharray:none;stroke-opacity:1"
         d="m 202.04607,142.12333 c -1.69351,-0.17387 -3.36087,-0.66905 -4.85186,-1.52092 -1.73015,-0.96714 -3.22399,-2.37619 -4.32429,-4.05613 -1.13069,-1.72227 -1.83536,-3.73325 -2.04464,-5.80033 -0.1914,-1.87559 0.038,-3.7895 0.64097,-5.56938 0.60512,-1.74108 1.57578,-3.34353 2.83179,-4.66596 1.26286,-1.31958 2.80346,-2.35165 4.48718,-3.00558 1.31308,-0.50006 2.70613,-0.77893 4.10684,-0.80349 0,1.4011 0,2.80221 0,4.2033 -1.44566,0.0354 -2.87078,0.48419 -4.10638,1.25393 -1.29209,0.82557 -2.36309,2.01402 -3.04964,3.41291 -0.70209,1.42244 -1.00507,3.04968 -0.86236,4.63921 0.1418,1.58917 0.72527,3.13296 1.66807,4.40064 0.94037,1.26812 2.23211,2.25515 3.68484,2.81222 0.85222,0.32471 1.75601,0.51107 2.66547,0.53418 0,1.4011 0,2.80221 0,4.20331 -0.282,-0.0126 -0.56399,-0.0253 -0.84599,-0.0379 z" />
      <path
         id="path49"
         style="fill:#87925c;fill-opacity:1;stroke:#1a1a1a;stroke-width:1.32292;stroke-linecap:round;stroke-linejoin:round;stroke-miterlimit:4.7;stroke-dasharray:none;stroke-opacity:1"
         d="m 249.59991,173.0739 c 1.69351,-0.17387 3.36087,-0.66905 4.85186,-1.52092 1.73015,-0.96714 3.22399,-2.37619 4.32429,-4.05613 1.13069,-1.72227 1.83536,-3.73325 2.04464,-5.80033 0.1914,-1.87559 -0.038,-3.7895 -0.64097,-5.56938 -0.60512,-1.74108 -1.57578,-3.34353 -2.83179,-4.66596 -1.26286,-1.31958 -2.80346,-2.35165 -4.48718,-3.00558 -1.31308,-0.50006 -2.70613,-0.77893 -4.10684,-0.80349 0,1.4011 0,2.80221 0,4.2033 1.44566,0.0354 2.87078,0.48419 4.10638,1.25393 1.29209,0.82557 2.36309,2.01402 3.04964,3.41291 0.70209,1.42244 1.00507,3.04968 0.86236,4.63921 -0.1418,1.58917 -0.72527,3.13296 -1.66807,4.40064 -0.94037,1.26812 -2.23211,2.25515 -3.68484,2.81222 -0.85222,0.32471 -1.75601,0.51107 -2.66547,0.53418 0,1.4011 0,2.80221 0,4.20331 0.282,-0.0126 0.56399,-0.0253 0.84599,-0.0379 z" />
      <path
         id="path50"
         style="fill:#cf7130;fill-opacity:1;stroke:#1a1a1a;stroke-width:1.32292;stroke-linecap:round;stroke-linejoin:round;stroke-miterlimit:4.7;stroke-dasharray:none;stroke-opacity:1"
         d="m 208.97778,140.38597 c 0.35502,-3.55372 1.36613,-7.05258 3.10557,-10.18133 1.97481,-3.63062 4.85196,-6.76533 8.28224,-9.07426 3.51672,-2.37267 7.62294,-3.85138 11.84372,-4.29055 3.82979,-0.40164 7.73781,0.0797 11.37216,1.34504 3.5551,1.26982 6.82716,3.30668 9.52742,5.94233 2.69448,2.65005 4.80186,5.88289 6.13713,9.41607 1.02106,2.75543 1.59051,5.67865 1.64064,8.61795 -2.86091,0 -5.72184,0 -8.58274,0 -0.0723,-3.03362 -0.98867,-6.02416 -2.5604,-8.61698 -1.68574,-2.71137 -4.11243,-4.9588 -6.96883,-6.39948 -2.90449,-1.47329 -6.22717,-2.10909 -9.47284,-1.80961 -3.24493,0.29758 -6.39721,1.52194 -8.98569,3.50035 -2.58939,1.97331 -4.6048,4.68395 -5.74229,7.7324 -0.66302,1.78834 -1.04355,3.68489 -1.09074,5.59332 -2.86092,0 -5.72184,0 -8.58276,0 0.0258,-0.59175 0.0516,-1.18349 0.0774,-1.77525 z" />
      <path
         id="path51"
         style="fill:#87925c;fill-opacity:1;stroke:#1a1a1a;stroke-width:1.32292;stroke-linecap:round;stroke-linejoin:round;stroke-miterlimit:4.7;stroke-dasharray:none;stroke-opacity:1"
         d="m 242.6682,149.42738 c -0.35502,3.55372 -1.36613,7.05258 -3.10557,10.18133 -1.97481,3.63062 -4.85196,6.76533 -8.28224,9.07426 -3.51672,2.37267 -7.62294,3.85138 -11.84372,4.29055 -3.82979,0.40164 -7.73781,-0.0797 -11.37216,-1.34504 -3.5551,-1.26982 -6.82716,-3.30668 -9.52742,-5.94233 -2.69448,-2.65005 -4.80186,-5.88289 -6.13713,-9.41607 -1.02106,-2.75543 -1.59051,-5.67865 -1.64064,-8.61795 2.86091,0 5.72184,0 8.58274,0 0.0723,3.03362 0.98867,6.02416 2.5604,8.61698 1.68574,2.71137 4.11243,4.9588 6.96883,6.39948 2.90449,1.47329 6.22717,2.10909 9.47284,1.80961 3.24493,-0.29758 6.39721,-1.52194 8.98569,-3.50035 2.58939,-1.97331 4.6048,-4.68395 5.74229,-7.7324 0.66302,-1.78834 1.04355,-3.68489 1.09074,-5.59332 2.86092,0 5.72184,0 8.58276,0 -0.0258,0.59175 -0.0516,1.18349 -0.0774,1.77525 z" />
    </g>
    <g
       id="g82"
       transform="translate(-0.10878707,-91.927872)">
      <path
         id="path33"
         style="fill:#000000;fill-opacity:1;stroke:#1a1a1a;stroke-width:1.32292;stroke-linecap:round;stroke-linejoin:round;stroke-miterlimit:4.7;stroke-dasharray:none;stroke-opacity:1"
         d="m 136.48352,135.25252 c -0.21082,-2.07304 -0.81126,-4.11408 -1.84422,-5.93922 -1.17274,-2.1179 -2.88132,-3.94651 -4.91838,-5.29341 -2.08838,-1.38408 -4.52685,-2.24668 -7.03335,-2.50287 -2.2743,-0.23429 -4.59506,0.0465 -6.7533,0.78462 -2.11119,0.74074 -4.05429,1.92894 -5.65783,3.46643 -1.6001,1.54589 -2.85156,3.43175 -3.64451,5.49281 -0.60635,1.60736 -0.94451,3.31261 -0.97428,5.02723 1.69894,0 3.39789,0 5.09683,0 0.0429,-1.76965 0.58711,-3.51416 1.52048,-5.02667 1.00107,-1.58166 2.44215,-2.89269 4.13841,-3.7331 1.72482,-0.85943 3.69798,-1.23032 5.6254,-1.05562 1.927,0.17358 3.79896,0.88781 5.33612,2.0419 1.5377,1.15113 2.73455,2.73236 3.41003,4.51066 0.39373,1.04321 0.61971,2.14955 0.64773,3.26283 1.69895,0 3.3979,0 5.09685,0 -0.0153,-0.3452 -0.0307,-0.69039 -0.046,-1.03559 z" />
      <path
         id="path30"
         style="fill:#1a1a1a;fill-opacity:1;stroke:#1a1a1a;stroke-width:1.32292;stroke-linecap:round;stroke-linejoin:round;stroke-miterlimit:4.7;stroke-dasharray:none;stroke-opacity:1"
         d="m 149.20685,167.41226 c -0.38512,-3.86285 -1.48196,-7.66607 -3.3689,-11.06699 -2.14227,-3.94644 -5.26339,-7.35384 -8.98454,-9.86361 -3.81492,-2.57907 -8.26934,-4.18641 -12.84803,-4.66378 -4.15453,-0.43658 -8.39393,0.0866 -12.33646,1.46204 -3.85657,1.38028 -7.40609,3.59433 -10.33532,6.45925 -2.922945,2.88057 -5.209025,6.39463 -6.657525,10.23516 -1.10764,2.99512 -1.72537,6.17263 -1.77976,9.36761 3.10351,0 6.20703,0 9.310525,0 0.0784,-3.29751 1.0725,-6.54819 2.77751,-9.36656 1.82868,-2.94723 4.46115,-5.39016 7.55976,-6.95616 3.15078,-1.60145 6.7552,-2.29255 10.27609,-1.96703 3.5201,0.32346 6.93967,1.65433 9.74764,3.80484 2.80896,2.14497 4.99528,5.0914 6.22921,8.40504 0.71924,1.9439 1.13204,4.00542 1.18323,6.07987 3.10352,0 6.20704,0 9.31055,0 -0.028,-0.64323 -0.056,-1.28645 -0.084,-1.92968 z" />
      <path
         id="path53"
         style="fill:#87925c;fill-opacity:1;stroke:#1a1a1a;stroke-width:1.32292;stroke-linecap:round;stroke-linejoin:round;stroke-miterlimit:4.7;stroke-dasharray:none;stroke-opacity:1"
         d="m 136.48352,134.71142 c -0.21082,-2.07304 -0.81126,-4.11408 -1.84422,-5.93922 -1.17274,-2.1179 -2.88132,-3.94652 -4.91838,-5.29342 -2.08838,-1.38408 -4.52685,-2.24668 -7.03335,-2.50286 -2.2743,-0.2343 -4.59506,0.0465 -6.7533,0.78462 -2.11119,0.74074 -4.05429,1.92893 -5.65783,3.46642 -1.6001,1.54589 -2.85156,3.43175 -3.64451,5.49281 -0.60635,1.60736 -0.94451,3.31261 -0.97428,5.02723 1.69894,0 3.39789,0 5.09683,0 0.0429,-1.76964 0.58711,-3.51416 1.52048,-5.02667 1.00107,-1.58166 2.44215,-2.89268 4.13841,-3.73309 1.72482,-0.85944 3.69798,-1.23033 5.6254,-1.05563 1.927,0.17359 3.79896,0.88781 5.33612,2.04191 1.5377,1.15112 2.73455,2.73235 3.41003,4.51065 0.39373,1.04322 0.61971,2.14955 0.64773,3.26283 1.69895,0 3.3979,0 5.09685,0 -0.0153,-0.3452 -0.0307,-0.69039 -0.046,-1.03558 z" />
      <path
         id="path34"
         style="fill:#1a1a1a;fill-opacity:1;stroke:#1a1a1a;stroke-width:1.32292;stroke-linecap:round;stroke-linejoin:round;stroke-miterlimit:4.7;stroke-dasharray:none;stroke-opacity:1"
         d="m 142.76926,149.37317 c -0.29693,-2.9783 -1.14261,-5.91063 -2.59746,-8.53278 -1.65172,-3.04276 -4.05814,-5.66991 -6.9272,-7.60497 -2.94135,-1.9885 -6.37576,-3.22777 -9.90599,-3.59583 -3.20319,-0.33661 -6.47182,0.0668 -9.51156,1.12725 -2.97347,1.06421 -5.71019,2.77127 -7.96866,4.98016 -2.25363,2.22096 -4.01623,4.93034 -5.13304,7.89144 -0.854005,2.30927 -1.330275,4.75917 -1.372215,7.22254 2.392845,0 4.785695,0 7.178535,0 0.0604,-2.54242 0.82691,-5.04874 2.14149,-7.22173 1.40994,-2.27235 3.4396,-4.15588 5.82867,-5.36329 2.42929,-1.23474 5.20834,-1.76758 7.92299,-1.5166 2.71405,0.24939 5.35058,1.2755 7.51556,2.93357 2.16574,1.6538 3.85142,3.92554 4.80279,6.4804 0.55455,1.49877 0.87282,3.08822 0.91229,4.68765 2.39285,0 4.78571,0 7.17855,0 -0.0216,-0.49594 -0.0432,-0.99187 -0.0648,-1.48781 z" />
      <path
         id="path52"
         style="fill:#cf7130;fill-opacity:1;stroke:#1a1a1a;stroke-width:1.32292;stroke-linecap:round;stroke-linejoin:round;stroke-miterlimit:4.7;stroke-dasharray:none;stroke-opacity:1"
         d="m 142.76926,148.25136 c -0.29693,-2.97831 -1.14261,-5.91064 -2.59746,-8.53279 -1.65172,-3.04275 -4.05814,-5.6699 -6.9272,-7.60497 -2.94135,-1.98849 -6.37576,-3.22777 -9.90599,-3.59583 -3.20319,-0.33661 -6.47182,0.0668 -9.51156,1.12725 -2.97347,1.06422 -5.71019,2.77128 -7.96866,4.98016 -2.25363,2.22096 -4.01623,4.93034 -5.13304,7.89144 -0.854005,2.30928 -1.330275,4.75918 -1.372215,7.22255 2.392845,0 4.785695,0 7.178535,0 0.0604,-2.54243 0.82691,-5.04874 2.14149,-7.22174 1.40994,-2.27235 3.4396,-4.15588 5.82867,-5.36329 2.42929,-1.23473 5.20834,-1.76758 7.92299,-1.5166 2.71405,0.24939 5.35058,1.27551 7.51556,2.93358 2.16574,1.6538 3.85142,3.92553 4.80279,6.48039 0.55455,1.49877 0.87282,3.08823 0.91229,4.68766 2.39285,0 4.78571,0 7.17855,0 -0.0216,-0.49594 -0.0432,-0.99187 -0.0648,-1.48781 z" />
      <path
         id="path35"
         style="fill:#87925c;fill-opacity:1;stroke:#1a1a1a;stroke-width:1.32292;stroke-linecap:round;stroke-linejoin:round;stroke-miterlimit:4.7;stroke-dasharray:none;stroke-opacity:1"
         d="m 149.20685,165.47668 c -0.38512,-3.86285 -1.48196,-7.66607 -3.3689,-11.06699 -2.14227,-3.94644 -5.26339,-7.35384 -8.98454,-9.86361 -3.81492,-2.57907 -8.26934,-4.18641 -12.84803,-4.66378 -4.15453,-0.43658 -8.39393,0.0866 -12.33646,1.46204 -3.85657,1.38028 -7.40609,3.59433 -10.33532,6.45925 -2.922945,2.88057 -5.209025,6.39463 -6.657525,10.23516 -1.10764,2.99512 -1.72537,6.17263 -1.77976,9.36761 3.10351,0 6.20703,0 9.310525,0 0.0784,-3.29751 1.0725,-6.54819 2.77751,-9.36656 1.82868,-2.94723 4.46115,-5.39016 7.55976,-6.95616 3.15078,-1.60145 6.7552,-2.29255 10.27609,-1.96703 3.5201,0.32346 6.93967,1.65433 9.74764,3.80484 2.80896,2.14497 4.99528,5.0914 6.22921,8.40504 0.71924,1.9439 1.13204,4.00542 1.18323,6.07987 3.10352,0 6.20704,0 9.31055,0 -0.028,-0.64323 -0.056,-1.28645 -0.084,-1.92968 z" />
    </g>
    <g
       id="g83"
       transform="translate(0.77462255,90.247046)">
      <circle
         style="fill:#1a1a1a;stroke:#1a1a1a;stroke-width:1.32292;stroke-linecap:round;stroke-linejoin:round;stroke-miterlimit:4.7;stroke-dasharray:none"
         id="circle56"
         cx="121.70464"
         cy="38.07024"
         r="7.7516322" />
      <path
         id="path16"
         style="fill:#1a1a1a;stroke:none;stroke-width:4.99999;stroke-linecap:round;stroke-linejoin:round;stroke-miterlimit:4.7"
         d="M 92.343648,56.760708 A 28.749996,28.749996 0 0 0 121.09332,85.510375 28.749996,28.749996 0 0 0 149.8435,56.760708 H 139.47876 A 18.385174,18.385174 0 0 1 121.09332,75.145633 18.385174,18.385174 0 0 1 102.70839,56.760708 Z" />
      <path
         id="path20"
         style="fill:#87925c;fill-opacity:1;stroke:#1a1a1a;stroke-width:1.32292;stroke-linecap:round;stroke-linejoin:round;stroke-miterlimit:4.7;stroke-dasharray:none"
         d="m 91.322266,59.351856 c 0.38512,3.862851 1.481961,7.666068 3.368896,11.066989 2.142272,3.946435 5.263392,7.353833 8.984538,9.863609 3.81492,2.579067 8.26934,4.186412 12.84803,4.663782 4.15453,0.43658 8.39393,-0.08656 12.33646,-1.46204 3.85657,-1.380288 7.40609,-3.594338 10.33533,-6.459252 2.92295,-2.880569 5.20903,-6.394636 6.65753,-10.235158 1.10764,-2.995119 1.72537,-6.172629 1.77976,-9.367618 -3.10351,0 -6.20703,0 -9.31054,0 -0.0784,3.297514 -1.0725,6.548199 -2.77751,9.366565 -1.82868,2.947225 -4.46115,5.390157 -7.55976,6.956156 -3.15078,1.601451 -6.7552,2.292549 -10.27609,1.967032 -3.5201,-0.323459 -6.93967,-1.654325 -9.74764,-3.804838 -2.80896,-2.144968 -4.99528,-5.091397 -6.22921,-8.405038 -0.71924,-1.943905 -1.13204,-4.005427 -1.18323,-6.079877 -3.103518,0 -6.207033,0 -9.310549,0 0.028,0.64323 0.05599,1.286459 0.08398,1.929688 z" />
      <circle
         style="fill:#1a1a1a;stroke:#1a1a1a;stroke-width:1.32292;stroke-linecap:round;stroke-linejoin:round;stroke-miterlimit:4.7;stroke-dasharray:none"
         id="circle18"
         cx="122.00128"
         cy="56.892597"
         r="11.090398" />
      <circle
         style="fill:#cf7130;fill-opacity:1;stroke:#1a1a1a;stroke-width:1.32292;stroke-linecap:round;stroke-linejoin:round;stroke-miterlimit:4.7;stroke-dasharray:none"
         id="circle19"
         cx="120.29978"
         cy="56.892597"
         r="11.090398" />
      <circle
         style="fill:#cf7130;fill-opacity:1;stroke:#1a1a1a;stroke-width:1.32292;stroke-linecap:round;stroke-linejoin:round;stroke-miterlimit:4.7;stroke-dasharray:none"
         id="circle57"
         cx="120.29978"
         cy="38.07024"
         r="7.7516322" />
    </g>
    <g
       id="g84"
       transform="translate(0,1.3188758)">
      <ellipse
         style="fill:#1a1a1a;fill-opacity:1;stroke:#1a1a1a;stroke-width:1.32292;stroke-linecap:round;stroke-linejoin:round;stroke-miterlimit:4.7;stroke-dasharray:none"
         id="circle36"
         cx="335.44202"
         cy="51.871822"
         rx="25.648939"
         ry="25.682171" />
      <ellipse
         style="fill:#87925c;fill-opacity:1;stroke:#1a1a1a;stroke-width:1.32292;stroke-linecap:round;stroke-linejoin:round;stroke-miterlimit:4.7;stroke-dasharray:none"
         id="ellipse60"
         cx="337.20938"
         cy="51.871822"
         rx="25.648939"
         ry="25.682171" />
      <ellipse
         style="fill:#1a1a1a;stroke:#1a1a1a;stroke-width:1.32292;stroke-linecap:round;stroke-linejoin:round;stroke-miterlimit:4.7;stroke-dasharray:none"
         id="ellipse57"
         cx="337.20938"
         cy="51.871822"
         rx="16.087376"
         ry="16.142189" />
      <ellipse
         style="fill:#1a1a1a;stroke:#1a1a1a;stroke-width:1.32292;stroke-linecap:round;stroke-linejoin:round;stroke-miterlimit:4.7;stroke-dasharray:none"
         id="circle35"
         cx="337.20938"
         cy="51.871822"
         rx="9.7516384"
         ry="9.7647905" />
      <ellipse
         style="fill:#cf7130;fill-opacity:1;stroke:#1a1a1a;stroke-width:1.32292;stroke-linecap:round;stroke-linejoin:round;stroke-miterlimit:4.7;stroke-dasharray:none"
         id="ellipse58"
         cx="335.44202"
         cy="51.871822"
         rx="16.087376"
         ry="16.142189" />
      <ellipse
         style="fill:#cf7130;fill-opacity:1;stroke:#1a1a1a;stroke-width:1.32292;stroke-linecap:round;stroke-linejoin:round;stroke-miterlimit:4.7;stroke-dasharray:none"
         id="ellipse59"
         cx="335.44202"
         cy="51.871822"
         rx="9.7516384"
         ry="9.7647905" />
    </g>
    <g
       id="g81"
       transform="translate(-0.12649683,1.5281387)">
      <path
         id="path28"
         style="fill:#1a1a1a;fill-opacity:1;stroke:#1a1a1a;stroke-width:1.32292;stroke-linecap:round;stroke-linejoin:round;stroke-miterlimit:4.7;stroke-dasharray:none;stroke-opacity:1"
         d="m 362.90084,163.28217 c -0.38512,-3.86285 -1.48196,-7.66607 -3.3689,-11.06699 -2.14227,-3.94644 -5.26339,-7.35384 -8.98454,-9.86361 -3.81492,-2.57907 -8.26934,-4.18641 -12.84803,-4.66378 -4.15453,-0.43658 -8.39393,0.0866 -12.33646,1.46204 -3.85657,1.38028 -7.40609,3.59433 -10.33532,6.45925 -2.92295,2.88057 -5.20903,6.39463 -6.65753,10.23516 -1.10764,2.99512 -1.72537,6.17263 -1.77976,9.36761 3.10351,0 6.20703,0 9.31053,0 0.0784,-3.29751 1.0725,-6.54819 2.77751,-9.36656 1.82868,-2.94723 4.46115,-5.39016 7.55976,-6.95616 3.15078,-1.60145 6.7552,-2.29255 10.27609,-1.96703 3.5201,0.32346 6.93967,1.65433 9.74764,3.80484 2.80896,2.14497 4.99528,5.0914 6.22921,8.40504 0.71924,1.9439 1.13204,4.00542 1.18323,6.07987 3.10352,0 6.20704,0 9.31055,0 -0.028,-0.64323 -0.056,-1.28645 -0.084,-1.92968 z" />
      <path
         id="path29"
         style="fill:#1a1a1a;fill-opacity:1;stroke:#1a1a1a;stroke-width:1.32292;stroke-linecap:round;stroke-linejoin:round;stroke-miterlimit:4.7;stroke-dasharray:none;stroke-opacity:1"
         d="m 362.90083,146.8542 c -0.38512,-3.86489 -1.48193,-7.67009 -3.36889,-11.07281 -2.14227,-3.9485 -5.2634,-7.35769 -8.98455,-9.86878 -3.81493,-2.58042 -8.26935,-4.18861 -12.84803,-4.66623 -4.15454,-0.43681 -8.39396,0.0866 -12.33647,1.46281 -3.85658,1.38101 -7.4061,3.59621 -10.33533,6.46264 -2.92293,2.88208 -5.20902,6.39798 -6.65752,10.24054 -1.10766,2.99668 -1.72535,6.17586 -1.77976,9.37252 3.1035,0 6.20705,0 9.31052,0 0.0785,-3.29924 1.07251,-6.55163 2.77755,-9.37148 1.82865,-2.94878 4.46112,-5.39298 7.55972,-6.9598 3.1508,-1.60229 6.75522,-2.29376 10.27612,-1.96806 3.52008,0.32362 6.93964,1.65519 9.74763,3.80683 2.80896,2.1461 4.99527,5.09407 6.2292,8.40944 0.71925,1.94493 1.13206,4.00753 1.18325,6.08307 3.10352,0 6.20703,0 9.31055,0 -0.028,-0.64357 -0.0561,-1.28713 -0.0842,-1.93069 z" />
      <path
         id="path24"
         style="fill:#cf7130;fill-opacity:1;stroke:#1a1a1a;stroke-width:1.32292;stroke-linecap:round;stroke-linejoin:round;stroke-miterlimit:4.7;stroke-dasharray:none;stroke-opacity:1"
         d="m 362.90083,145.35291 c -0.38512,-3.88995 -1.48196,-7.71986 -3.3689,-11.14464 -2.14227,-3.97414 -5.26339,-7.40546 -8.98455,-9.93283 -3.81492,-2.59717 -8.26933,-4.21579 -12.84803,-4.69651 -4.15452,-0.43964 -8.39392,0.0872 -12.33645,1.4723 -3.85658,1.38997 -7.4061,3.61955 -10.33532,6.50458 -2.92295,2.90079 -5.20904,6.4395 -6.65754,10.30699 -1.10764,3.01613 -1.72537,6.21594 -1.77976,9.43334 3.10352,0 6.20703,0 9.31054,0 0.0783,-3.32065 1.0725,-6.59415 2.7775,-9.43229 1.82869,-2.96791 4.46115,-5.42798 7.55976,-7.00497 3.15078,-1.61269 6.7552,-2.30863 10.27609,-1.98083 3.52011,0.32573 6.93968,1.66593 9.74765,3.83153 2.80896,2.16002 4.99528,5.12713 6.2292,8.46403 0.71925,1.95754 1.13205,4.03351 1.18324,6.12253 3.10352,0 6.20705,0 9.31055,0 -0.028,-0.64775 -0.056,-1.29548 -0.084,-1.94323 z" />
      <path
         id="path27"
         style="fill:#87925c;fill-opacity:1;stroke:#1a1a1a;stroke-width:1.32292;stroke-linecap:round;stroke-linejoin:round;stroke-miterlimit:4.7;stroke-dasharray:none;stroke-opacity:1"
         d="m 362.90084,161.3466 c -0.38512,-3.86285 -1.48196,-7.66607 -3.3689,-11.06699 -2.14227,-3.94644 -5.26339,-7.35384 -8.98454,-9.86361 -3.81492,-2.57907 -8.26934,-4.18641 -12.84803,-4.66378 -4.15453,-0.43658 -8.39393,0.0866 -12.33646,1.46204 -3.85657,1.38028 -7.40609,3.59433 -10.33532,6.45925 -2.92295,2.88057 -5.20903,6.39463 -6.65753,10.23516 -1.10764,2.99512 -1.72537,6.17263 -1.77976,9.36761 3.10351,0 6.20703,0 9.31053,0 0.0784,-3.29751 1.0725,-6.54819 2.77751,-9.36656 1.82868,-2.94723 4.46115,-5.39016 7.55976,-6.95616 3.15078,-1.60145 6.7552,-2.29255 10.27609,-1.96703 3.5201,0.32346 6.93967,1.65433 9.74764,3.80484 2.80896,2.14497 4.99528,5.0914 6.22921,8.40504 0.71924,1.9439 1.13204,4.00542 1.18323,6.07987 3.10352,0 6.20704,0 9.31055,0 -0.028,-0.64323 -0.056,-1.28645 -0.084,-1.92968 z" />
      <g
         id="g66"
         transform="matrix(1.309561,0,0,1.3085727,-103.85462,-5.5436579)"
         style="stroke-width:0.763902">
        <circle
           style="fill:#1a1a1a;stroke:#1a1a1a;stroke-width:1.01058;stroke-linecap:round;stroke-linejoin:round;stroke-miterlimit:4.7;stroke-dasharray:none"
           id="circle65"
           cx="336.19241"
           cy="129.0152"
           r="7.7516322" />
        <circle
           style="fill:#cf7130;fill-opacity:1;stroke:#1a1a1a;stroke-width:1.01058;stroke-linecap:round;stroke-linejoin:round;stroke-miterlimit:4.7;stroke-dasharray:none"
           id="circle66"
           cx="334.78757"
           cy="129.0152"
           r="7.7516322" />
      </g>
    </g>
    <g
       id="g77"
       transform="matrix(1.309561,0,0,1.3085727,-114.51344,79.771129)"
       style="stroke:none;stroke-width:0.763902" />
  </g>
</svg>
