<?xml version="1.0" encoding="UTF-8" standalone="no"?>
<!-- Created with Inkscape (http://www.inkscape.org/) -->

<svg
   width="210mm"
   height="297mm"
   viewBox="0 0 210 297"
   version="1.1"
   id="svg1"
   inkscape:version="1.3 (0e150ed6c4, 2023-07-21)"
   sodipodi:docname="Portfolio_workPreviewElement_LXY_V3.svg"
   xmlns:inkscape="http://www.inkscape.org/namespaces/inkscape"
   xmlns:sodipodi="http://sodipodi.sourceforge.net/DTD/sodipodi-0.dtd"
   xmlns="http://www.w3.org/2000/svg"
   xmlns:svg="http://www.w3.org/2000/svg">
  <sodipodi:namedview
     id="namedview1"
     pagecolor="#505050"
     bordercolor="#000000"
     borderopacity="1"
     inkscape:showpageshadow="0"
     inkscape:pageopacity="0"
     inkscape:pagecheckerboard="0"
     inkscape:deskcolor="#474747"
     inkscape:document-units="mm"
     inkscape:zoom="0.75811588"
     inkscape:cx="287.55498"
     inkscape:cy="467.60661"
     inkscape:window-width="1920"
     inkscape:window-height="1009"
     inkscape:window-x="-8"
     inkscape:window-y="-8"
     inkscape:window-maximized="1"
     inkscape:current-layer="layer1" />
  <defs
     id="defs1">
    <inkscape:path-effect
       effect="spiro"
       id="path-effect18"
       is_visible="true"
       lpeversion="1" />
    <inkscape:path-effect
       effect="spiro"
       id="path-effect16"
       is_visible="true"
       lpeversion="1" />
    <inkscape:path-effect
       effect="spiro"
       id="path-effect13"
       is_visible="true"
       lpeversion="1" />
  </defs>
  <g
     inkscape:label="Слой 1"
     inkscape:groupmode="layer"
     id="layer1">
    <path
       id="rect9"
       style="opacity:0.75;fill:#202020;fill-opacity:1;stroke:none;stroke-width:5.29167;stroke-linecap:round;stroke-linejoin:round;stroke-miterlimit:4.7"
       d="M 56.649772 83.760262 L 55.31652 83.791268 C 52.223826 83.862828 49.732882 86.281901 49.732882 89.375423 L 49.732882 123.05399 C 49.732882 126.14752 52.222998 128.63814 55.31652 128.63814 L 88.995085 128.63814 C 89.240408 128.63814 89.480206 128.61687 89.717004 128.58647 C 96.540858 128.20429 101.94493 124.92396 101.96174 118.08943 C 101.96096 111.96431 97.65458 106.68351 91.654871 105.45041 L 89.327364 105.45041 C 87.921242 105.45041 86.523943 104.87164 85.529663 103.87738 C 84.535384 102.88311 83.956632 101.48581 83.956632 100.07968 C 83.956632 98.673552 84.535384 97.275742 85.529663 96.281462 C 86.523943 95.287184 87.921242 94.708431 89.327364 94.708431 L 98.736092 94.708431 A 3.2256444 3.2256444 0 0 0 101.96174 91.482788 A 3.2256444 3.2256444 0 0 0 98.736092 88.257145 L 89.327364 88.257145 L 79.522795 88.257145 L 79.518144 88.257145 L 78.002991 88.257145 A 11.341934 11.341934 0 0 0 68.181368 99.494185 A 11.341934 11.341934 0 0 0 69.891341 105.45041 C 70.827362 109.42298 74.371229 112.2312 78.452576 112.23449 L 78.452576 112.23501 L 89.2514 112.23501 L 90.692139 112.23501 C 92.808825 112.23501 94.513445 113.93135 94.529631 116.04408 C 94.529583 116.04441 94.529678 116.04484 94.529631 116.04511 C 94.529703 116.05511 94.531181 116.06435 94.531181 116.07405 C 94.531181 116.18272 94.523881 116.28914 94.515161 116.39548 C 94.510861 116.44388 94.506762 116.49278 94.500692 116.54069 C 94.496892 116.57219 94.490792 116.60251 94.486222 116.63371 C 94.465952 116.76647 94.440751 116.8977 94.408191 117.02593 C 93.986051 118.68817 92.489322 119.91258 90.692139 119.91258 L 90.075639 119.91258 L 61.15389 119.88209 L 60.488814 119.88209 C 58.362011 119.88209 56.649772 118.16984 56.649772 116.04305 C 56.649772 115.93036 56.656869 115.81939 56.666309 115.70922 C 56.658409 115.59967 56.649772 115.49012 56.649772 115.37849 L 56.649772 105.45041 L 56.649772 91.031653 L 56.649772 83.760262 z " />
    <path
       id="path3"
       style="fill:#666666;stroke:none;stroke-width:0.264583px;stroke-linecap:butt;stroke-linejoin:miter;stroke-opacity:1"
       d="M 77.30381,83.658976 72.64673,93.18604 67.2698,83.791268 H 55.31652 L 67.98241,102.7281 55.31652,128.63816 h 9.6852 l 9.04802,-16.83877 5.41879,8.10183 8.47391,0.009 -9.4139,-16.44757 10.64121,-19.803964 z" />
    <path
       style="fill:none;stroke:#000000;stroke-width:5;stroke-linecap:butt;stroke-linejoin:miter;stroke-opacity:1;stroke-dasharray:none"
       d="M 35.249119,58.632198 123.37191,146.75499"
       id="path17"
       inkscape:path-effect="#path-effect18"
       inkscape:original-d="m 35.249119,58.632198 c 29.374264,29.374263 58.74853,58.748532 88.122791,88.122792" />
    <path
       style="fill:none;stroke:#000000;stroke-width:5;stroke-linecap:butt;stroke-linejoin:miter;stroke-opacity:1;stroke-dasharray:none"
       d="M 35.249119,58.632198 123.37191,146.75499"
       id="path16"
       inkscape:path-effect="#path-effect16"
       inkscape:original-d="m 35.249119,58.632198 c 29.374264,29.374263 58.74853,58.748532 88.122791,88.122792"
       transform="matrix(-1,0,0,1,158.62103,0)" />
  </g>
</svg>
