<?xml version="1.0" encoding="UTF-8" standalone="no"?>
<svg
   width="450"
   height="331.99994"
   viewBox="0 0 119.06251 87.841648"
   version="1.1"
   id="svg8"
   inkscape:version="1.3 (0e150ed6c4, 2023-07-21)"
   sodipodi:docname="Portfolio_workPreviewElement_Lexi_V2.svg"
   inkscape:export-filename="Architect_logo.svg"
   inkscape:export-xdpi="961"
   inkscape:export-ydpi="961"
   xmlns:inkscape="http://www.inkscape.org/namespaces/inkscape"
   xmlns:sodipodi="http://sodipodi.sourceforge.net/DTD/sodipodi-0.dtd"
   xmlns="http://www.w3.org/2000/svg"
   xmlns:svg="http://www.w3.org/2000/svg"
   xmlns:rdf="http://www.w3.org/1999/02/22-rdf-syntax-ns#"
   xmlns:cc="http://creativecommons.org/ns#"
   xmlns:dc="http://purl.org/dc/elements/1.1/">
  <defs
     id="defs2" />
  <sodipodi:namedview
     showguides="false"
     id="base"
     pagecolor="#ffffff"
     bordercolor="#666666"
     borderopacity="1.0"
     inkscape:pageopacity="0.0"
     inkscape:pageshadow="2"
     inkscape:zoom="1.0791666"
     inkscape:cx="56.525098"
     inkscape:cy="204.32433"
     inkscape:document-units="mm"
     inkscape:current-layer="layer1"
     inkscape:document-rotation="0"
     showgrid="false"
     showborder="false"
     inkscape:object-paths="true"
     inkscape:snap-intersection-paths="true"
     inkscape:window-width="1920"
     inkscape:window-height="1009"
     inkscape:window-x="-8"
     inkscape:window-y="-8"
     inkscape:window-maximized="1"
     inkscape:snap-smooth-nodes="true"
     inkscape:snap-midpoints="false"
     inkscape:object-nodes="true"
     inkscape:snap-nodes="true"
     inkscape:showpageshadow="0"
     inkscape:pagecheckerboard="0"
     inkscape:deskcolor="#d1d1d1" />
  <metadata
     id="metadata5">
    <rdf:RDF>
      <cc:Work
         rdf:about="">
        <dc:format>image/svg+xml</dc:format>
        <dc:type
           rdf:resource="http://purl.org/dc/dcmitype/StillImage" />
      </cc:Work>
    </rdf:RDF>
  </metadata>
  <g
     inkscape:label="Vrstva 1"
     inkscape:groupmode="layer"
     id="layer1"
     transform="translate(478.64354,365.74014)">
    <g
       id="g1"
       transform="translate(2.16871)">
      <path
         id="circle1093"
         style="fill:#6f918a;fill-opacity:1;stroke-width:2.70498;stroke-linecap:square"
         d="m -431.64626,-350.91915 a 12.606708,12.606708 0 0 0 -12.4024,10.3924 l 12.4028,-0.0194 h 12.40676 a 12.606708,12.606708 0 0 0 -12.40716,-10.37299 z m 12.53397,13.88217 -2.11739,5.82591 a 12.606708,12.606708 0 0 0 2.11739,-5.82591 z" />
      <path
         id="circle1079"
         style="fill:#6f918a;fill-opacity:1;stroke-width:2.70498;stroke-linecap:square"
         d="m -445.01086,-303.43645 a 12.768928,12.768928 0 0 0 -12.76858,12.76898 12.768928,12.768928 0 0 0 12.76858,12.76898 12.768928,12.768928 0 0 0 12.76897,-12.76898 12.768928,12.768928 0 0 0 -12.76897,-12.76898 z m -0.41611,10.37299 h 2.02467 1.84117 l -1.06286,1.84157 -0.62653,1.08466 -0.19063,0.33011 a 2.2336539,2.2336539 0 0 1 -0.10659,0.18507 2.2336539,2.2336539 0 0 1 -4e-4,7.7e-4 2.2336539,2.2336539 0 0 1 -1.87883,1.02521 2.2336539,2.2336539 0 0 1 -2.23351,-2.23351 2.2336539,2.2336539 0 0 1 2.23351,-2.2339 z" />
      <path
         id="circle1081"
         style="fill:#6f918a;fill-opacity:1;stroke-width:2.70498;stroke-linecap:square"
         d="m -406.43287,-365.74014 a 12.606708,12.606708 0 0 0 -12.6065,12.6065 12.606708,12.606708 0 0 0 12.6065,12.60689 12.606708,12.606708 0 0 0 12.60689,-12.60689 12.606708,12.606708 0 0 0 -12.60689,-12.6065 z m 0,10.37299 c 1.2336,2e-5 2.23391,0.99991 2.23391,2.23351 0,1.23361 -1.00031,2.23388 -2.23391,2.2339 l -2.02427,-3.9e-4 -1.30896,-0.019 c 0,0 0.42708,-1.15309 0.65626,-1.72349 0.15968,-0.39738 0.50053,-1.18332 0.50053,-1.18332 l 0.19061,-0.33012 c 0.0315,-0.0555 0.0662,-0.12351 0.10739,-0.18586 0.41102,-0.63906 1.1186,-1.02518 1.87844,-1.02521 z" />
      <path
         style="fill:#6f918a;fill-opacity:1;stroke:none;stroke-width:0.264583px;stroke-linecap:butt;stroke-linejoin:miter;stroke-opacity:1"
         d="m -442.93726,-290.67973 17.16749,-47.43413 7.58132,-19.57306 4.53911,19.55386 c 0,0 -10.84672,31.90537 -17.28482,47.46352 -0.81083,1.95944 -2.68357,5.76803 -2.68357,5.76803 l -9.38943,-5.65714 z"
         id="path5267"
         sodipodi:nodetypes="ccccaccc" />
      <path
         sodipodi:nodetypes="ccccc"
         d="m -445.85728,-303.43639 h 48.45529 v 10.39228 h -51.68027 z"
         style="fill:#6f918a;fill-opacity:1;stroke-width:1.93036;stroke-linecap:square"
         id="path1100" />
      <path
         id="circle1102"
         style="fill:#6f918a;fill-opacity:1;stroke-width:2.70498;stroke-linecap:square"
         d="m -397.38905,-303.43645 a 12.606708,12.606708 0 0 0 -12.39884,10.37299 h 8.53299 3.86585 a 2.2336539,2.2336539 0 0 1 2.2335,2.23391 2.2336539,2.2336539 0 0 1 -2.2335,2.2335 2.2336539,2.2336539 0 0 1 -1.37157,-0.47119 l -5.60756,8.73075 a 12.606708,12.606708 0 0 0 6.97913,2.11343 12.606708,12.606708 0 0 0 12.60649,-12.60649 12.606708,12.606708 0 0 0 -12.60649,-12.6069 z" />
      <path
         style="fill:#4a615c;fill-opacity:1;stroke:none;stroke-width:0.264583px;stroke-linecap:butt;stroke-linejoin:miter;stroke-opacity:1"
         d="m -425.76977,-338.11386 0.88367,-2.41299 h 12.11252 l -0.87576,2.39379 z"
         id="path5143"
         sodipodi:nodetypes="ccccc" />
      <path
         style="fill:#4a615c;fill-opacity:1;stroke:none;stroke-width:0.264583px;stroke-linecap:butt;stroke-linejoin:miter;stroke-opacity:1"
         d="m -442.93726,-290.67973 0.86268,-2.3836 12.10694,0.0192 -0.96652,2.37458 z"
         id="path1781"
         sodipodi:nodetypes="ccccc" />
      <path
         sodipodi:nodetypes="ccccc"
         d="m -406.20311,-340.52685 h -25.44296 v -10.39226 h 27.13631 z"
         style="fill:#6f918a;fill-opacity:1;stroke-width:1.62012;stroke-linecap:square"
         id="path1083" />
    </g>
  </g>
</svg>
