<?xml version="1.0" encoding="UTF-8" standalone="no"?>
<!-- Created with Inkscape (http://www.inkscape.org/) -->

<svg
   width="309.74265"
   height="113.21272"
   viewBox="0 0 309.74265 113.21272"
   version="1.1"
   id="svg1"
   sodipodi:docname="Portfolio_workPreviewElement_Travelin_Logo.svg"
   xml:space="preserve"
   inkscape:version="1.3 (0e150ed6c4, 2023-07-21)"
   xmlns:inkscape="http://www.inkscape.org/namespaces/inkscape"
   xmlns:sodipodi="http://sodipodi.sourceforge.net/DTD/sodipodi-0.dtd"
   xmlns="http://www.w3.org/2000/svg"
   xmlns:svg="http://www.w3.org/2000/svg"><sodipodi:namedview
     id="namedview1"
     pagecolor="#505050"
     bordercolor="#000000"
     borderopacity="1"
     inkscape:showpageshadow="0"
     inkscape:pageopacity="0"
     inkscape:pagecheckerboard="0"
     inkscape:deskcolor="#747474"
     inkscape:document-units="px"
     inkscape:zoom="2.56"
     inkscape:cx="113.28125"
     inkscape:cy="63.476563"
     inkscape:window-width="1920"
     inkscape:window-height="1009"
     inkscape:window-x="-8"
     inkscape:window-y="-8"
     inkscape:window-maximized="1"
     inkscape:current-layer="layer1" /><defs
     id="defs1"><inkscape:perspective
       sodipodi:type="inkscape:persp3d"
       inkscape:vp_x="1207.1055 : 6.5270176 : 1"
       inkscape:vp_y="0 : 3779.5276 : 0"
       inkscape:vp_z="164.3828 : 6.5270176 : 1"
       inkscape:persp3d-origin="685.74412 : -83.24443 : 1"
       id="perspective50" /><inkscape:perspective
       sodipodi:type="inkscape:persp3d"
       inkscape:vp_x="-62.500001 : -208.26955 : 1"
       inkscape:vp_y="0 : 3779.5276 : 0"
       inkscape:vp_z="980.22267 : -208.26955 : 1"
       inkscape:persp3d-origin="458.86131 : -298.04104 : 1"
       id="perspective39" /></defs><g
     inkscape:label="Слой 1"
     inkscape:groupmode="layer"
     id="layer1"
     transform="translate(-7024.7482,-1530.5485)"><g
       id="g11574"
       transform="translate(7507.8073,1149.9784)"
       inkscape:export-filename="New_Travelin_logo.png"
       inkscape:export-xdpi="200"
       inkscape:export-ydpi="200"><path
         id="path142185"
         style="fill:#ffffff;fill-opacity:1;stroke:#000000;stroke-width:11.2859;stroke-linecap:square;stroke-miterlimit:4.7;stroke-dasharray:none;stroke-opacity:1"
         d="m -247.55908,386.21305 c -19.16991,0 -34.70795,15.53807 -34.70795,34.70795 7.5e-4,1.13591 0.0438,2.29433 0.12604,3.46963 -4.1064,1.87554 -8.43913,4.326 -13.59852,7.60892 -11.17046,7.46801 -16.86473,15.24359 -19.31979,20.42344 3.51366,3.03587 7.55779,4.89783 11.68521,6.67326 4.49969,1.93557 16.37923,4.12193 21.80243,4.43328 4.54522,0.26093 8.80221,0.31529 12.95686,-0.014 6.09613,10.18424 13.57936,18.85731 21.05577,23.6014 9.91868,-6.18077 20.07144,-19.80877 26.81437,-34.68695 5.79427,-2.05713 11.41047,-4.92272 16.76015,-8.43491 4.54093,-2.98124 13.73541,-10.8134 16.66449,-14.73951 2.68675,-3.60127 5.73861,-8.0669 7.26358,-12.45286 -4.71604,-3.25835 -13.98041,-6.18532 -27.38836,-7.06759 -2.62767,-0.11326 -5.03894,-0.16184 -7.29626,-0.14468 -4.69722,-13.60543 -17.61621,-23.37741 -32.81797,-23.37741 z" /><path
         id="path143073"
         style="fill:#cacaca;fill-opacity:1;stroke:none;stroke-width:8.37527;stroke-linecap:square;stroke-miterlimit:4.7;stroke-dasharray:none;stroke-opacity:1"
         d="m -315.04736,452.41966 c 3.513,3.03531 7.5578,4.89714 11.68444,6.67224 4.49885,1.93521 16.3762,4.12085 21.79838,4.43215 13.60341,0.78099 24.6293,-0.27144 38.03422,-8.01087 15.85213,-10.68912 28.96243,-22.9001 42.75074,-31.70811 4.58595,-2.79315 10.88034,-4.4422 15.30949,-5.5523 3.20057,-0.8022 5.40163,-1.44721 5.40163,-1.44721 -4.71516,-3.25775 -13.97863,-6.18426 -27.38408,-7.06636 -14.57018,-0.62815 -22.64264,0.70687 -33.1276,4.47955 -15.65154,5.63168 -31.60391,20.14864 -42.37507,26.35402 -9.94312,5.58239 -32.09215,11.84689 -32.09215,11.84689 z"
         sodipodi:nodetypes="cssccsccacc" /><path
         id="path143075"
         style="fill:#5da19e;fill-opacity:1;stroke-width:2.97811;stroke-linecap:square;stroke-miterlimit:4.7"
         d="m -247.5581,386.22149 c -19.16634,0 -34.70356,15.53722 -34.70356,34.70352 0.0152,23.14246 17.38686,55.19532 34.70356,66.18348 16.9933,-10.58927 34.68776,-43.04102 34.70394,-66.18348 0,-19.1663 -15.53764,-34.70352 -34.70394,-34.70352 z m 0,18.13203 a 17.406314,17.406314 0 0 1 17.40635,17.40635 17.406314,17.406314 0 0 1 -17.40635,17.40636 17.406314,17.406314 0 0 1 -17.40639,-17.40636 17.406314,17.406314 0 0 1 17.40639,-17.40635 z" /><path
         id="path143077"
         style="fill:#ffffff;fill-opacity:1;stroke:none;stroke-width:8.37527;stroke-linecap:square;stroke-miterlimit:4.7;stroke-dasharray:none;stroke-opacity:1"
         d="m -180.06846,416.80556 c -1.52468,4.38514 -4.5761,8.85037 -7.26235,12.45098 -2.92852,3.92537 -12.12179,11.75685 -16.66187,14.73753 -11.39039,7.47805 -23.98794,12.02136 -36.94405,12.07949 -17.58703,0.0788 -36.81584,-6.4094 -53.1609,-7.14318 -7.64639,-0.17931 -17.12582,2.3799 -20.12534,3.25192 -0.62796,0.18273 -0.82439,0.23717 -0.82439,0.23717 2.4546,-5.17888 8.14913,-12.95193 19.31751,-20.41855 12.3041,-7.82908 19.91809,-10.97445 30.92913,-12.68442 16.70089,-2.59359 38.10597,4.11721 50.53677,4.10563 11.40216,-0.13704 34.19549,-6.61676 34.19549,-6.61676 z"
         sodipodi:nodetypes="cssscsccaccc" /><circle
         style="fill:#1c5754;fill-opacity:1;stroke-width:3.5174;stroke-linecap:square;stroke-miterlimit:4.7"
         id="circle11300"
         cx="-247.57112"
         cy="421.77271"
         r="20.55862" /><circle
         style="fill:#5da19e;fill-opacity:1;stroke-width:3.72641;stroke-linecap:square;stroke-miterlimit:4.7"
         id="circle11302"
         cx="-247.57112"
         cy="421.77271"
         r="13.722594" /></g><g
       id="g11581"
       transform="translate(7507.8073,1150.9254)"><path
         id="path11174"
         style="fill:#cacaca;fill-opacity:1;stroke:none;stroke-width:8.54589;stroke-linecap:square;stroke-miterlimit:4.7;stroke-dasharray:none;stroke-opacity:1"
         d="m -483.05912,452.30503 c 3.58457,3.09715 7.71177,4.9969 11.92248,6.80816 4.5905,1.97464 16.70981,4.20481 22.24246,4.52244 13.88054,0.79691 25.13104,-0.27696 38.80904,-8.17406 16.17507,-10.90688 29.55246,-23.36663 43.62166,-32.35406 4.67938,-2.85006 11.102,-4.5327 15.62138,-5.66542 3.26577,-0.81854 5.51167,-1.47669 5.51167,-1.47669 -4.81122,-3.32412 -14.2634,-6.31025 -27.94194,-7.21032 -14.86701,-0.64094 -23.10392,0.72127 -33.80248,4.5708 -15.9704,5.74641 -32.24774,20.55912 -43.23834,26.89092 -10.14567,5.6961 -32.74593,12.08823 -32.74593,12.08823 z"
         sodipodi:nodetypes="cssccsccacc" /><path
         id="path11176"
         style="fill:#5da19e;fill-opacity:1;stroke-width:3.03878;stroke-linecap:square;stroke-miterlimit:4.7"
         d="m -414.19497,384.75827 c -19.55679,0 -35.41054,15.85374 -35.41054,35.4105 0.0155,23.61392 17.74107,56.31976 35.41054,67.53177 17.33949,-10.80499 35.39442,-43.91785 35.41093,-67.53177 0,-19.55676 -15.85417,-35.4105 -35.41093,-35.4105 z m 0,18.50142 a 17.760915,17.760915 0 0 1 17.76095,17.76095 17.760915,17.760915 0 0 1 -17.76095,17.76095 17.760915,17.760915 0 0 1 -17.76099,-17.76095 17.760915,17.760915 0 0 1 17.76099,-17.76095 z" /><path
         id="path11178"
         style="fill:#ffffff;fill-opacity:1;stroke:none;stroke-width:8.54589;stroke-linecap:square;stroke-miterlimit:4.7;stroke-dasharray:none;stroke-opacity:1"
         d="m -345.33043,415.9654 c -1.55574,4.47447 -4.66932,9.03067 -7.41029,12.70462 -2.98819,4.00534 -12.36874,11.99637 -17.00131,15.03777 -11.62244,7.63039 -24.47662,12.26626 -37.69668,12.32558 -17.94531,0.0804 -37.56585,-6.53997 -54.24389,-7.28871 -7.80216,-0.18296 -17.4747,2.42839 -20.53533,3.31817 -0.64075,0.18646 -0.84119,0.24201 -0.84119,0.24201 2.5046,-5.28439 8.31515,-13.21579 19.71105,-20.83452 12.55476,-7.98858 20.32386,-11.19803 31.55922,-12.94283 17.04112,-2.64642 38.88227,4.20108 51.5663,4.18928 11.63445,-0.13985 34.89212,-6.75157 34.89212,-6.75157 z"
         sodipodi:nodetypes="cssscsccaccc" /><circle
         style="fill:#1c5754;fill-opacity:1;stroke-width:3.5174;stroke-linecap:square;stroke-miterlimit:4.7"
         id="circle143079"
         cx="-414.19476"
         cy="421.77271"
         r="20.55862" /><circle
         style="fill:#5da19e;fill-opacity:1;stroke-width:3.72641;stroke-linecap:square;stroke-miterlimit:4.7"
         id="circle143081"
         cx="-414.19476"
         cy="421.77271"
         r="13.722594" /></g></g></svg>
