<?xml version="1.0" encoding="UTF-8" standalone="no"?>
<!-- Created with Inkscape (http://www.inkscape.org/) -->

<svg
   width="163.76762mm"
   height="93.848824mm"
   viewBox="0 0 163.76762 93.848824"
   version="1.1"
   id="svg1"
   xml:space="preserve"
   inkscape:version="1.3 (0e150ed6c4, 2023-07-21)"
   sodipodi:docname="New_LOGO_AR.svg"
   xmlns:inkscape="http://www.inkscape.org/namespaces/inkscape"
   xmlns:sodipodi="http://sodipodi.sourceforge.net/DTD/sodipodi-0.dtd"
   xmlns="http://www.w3.org/2000/svg"
   xmlns:svg="http://www.w3.org/2000/svg"><sodipodi:namedview
     id="namedview1"
     pagecolor="#505050"
     bordercolor="#000000"
     borderopacity="1"
     inkscape:showpageshadow="0"
     inkscape:pageopacity="0"
     inkscape:pagecheckerboard="0"
     inkscape:deskcolor="#535353"
     inkscape:document-units="mm"
     inkscape:zoom="2.8284272"
     inkscape:cx="300.16682"
     inkscape:cy="316.96061"
     inkscape:window-width="1920"
     inkscape:window-height="1009"
     inkscape:window-x="-8"
     inkscape:window-y="-8"
     inkscape:window-maximized="1"
     inkscape:current-layer="layer1"
     showborder="false" /><defs
     id="defs1"><inkscape:path-effect
       effect="spiro"
       id="path-effect125"
       is_visible="true"
       lpeversion="1" /><inkscape:path-effect
       effect="spiro"
       id="path-effect123"
       is_visible="true"
       lpeversion="1" /><inkscape:path-effect
       effect="spiro"
       id="path-effect119"
       is_visible="true"
       lpeversion="1" /></defs><g
     inkscape:label="Слой 1"
     inkscape:groupmode="layer"
     id="layer1"
     transform="translate(-13.785541,-105.18014)"><path
       d="m 22.018828,188.20172 v 0.37191 c -0.446291,-0.33885 -0.991758,-0.52067 -1.553754,-0.50415 -1.289285,0 -2.322367,0.77688 -2.322367,2.33064 0,1.55375 1.033082,2.32236 2.322367,2.32236 0.561996,0.0165 1.107463,-0.15703 1.553754,-0.49588 v 0.49588 l 0.776877,-0.12397 v -4.52903 z m -1.29755,4.39679 c -0.776877,0 -1.809958,-0.64464 -1.809958,-2.19839 0,-1.03309 0.264469,-2.1984 1.29755,-2.1984 0.685966,0.0331 1.338873,0.33059 1.809958,0.83473 v 2.8513 c -0.297527,0.4215 -0.776877,0.68597 -1.29755,0.71076 z m 8.727484,-4.52903 c -0.561996,-0.0165 -1.107463,0.1653 -1.553754,0.50415 v -1.92567 l -0.768612,0.13224 v 5.94228 l 0.768612,-0.12397 v -0.37191 c 0.446291,0.33885 0.991758,0.51241 1.553754,0.49588 1.289286,0 2.330632,-0.76861 2.330632,-2.32236 0,-1.55376 -1.041346,-2.33064 -2.330632,-2.33064 z m 0.256205,4.52903 c -0.685966,-0.0331 -1.338874,-0.33885 -1.809959,-0.84299 v -2.84304 c 0.297528,-0.4215 0.776877,-0.68597 1.29755,-0.71076 0.776877,0 1.809959,0.64464 1.809959,2.1984 0,1.03308 -0.264469,2.19839 -1.29755,2.19839 z m 8.033253,-2.4546 c -0.644643,-0.13223 -1.29755,-0.19009 -1.29755,-0.90911 0,-0.64464 0.388439,-1.03308 1.165316,-1.03308 0.619848,0.008 1.198374,0.30579 1.562019,0.80167 l 0.247939,-0.52894 c -0.388438,-0.26447 -1.165316,-0.40497 -1.809958,-0.40497 -1.165316,0 -1.933929,0.26447 -1.933929,1.16532 0,0.90911 1.429785,0.93391 1.933929,1.03308 0.644642,0.13224 1.165315,0.52067 1.165315,1.16532 0,0.64464 -0.256204,1.16531 -1.165315,1.16531 -1.165316,0 -1.677724,-1.03308 -1.677724,-1.03308 l -0.256205,0.38844 c 0,0 0.380174,0.77688 1.933929,0.77688 1.29755,0 1.942193,-0.26447 1.942193,-1.29755 0,-0.90085 -1.289286,-1.19011 -1.809959,-1.28929 z m 7.86795,2.06616 c 0,0 -0.132234,0.38844 -0.388438,0.38844 -0.512409,0 -0.644643,-0.52067 -0.644643,-1.42152 v -2.84304 h 1.033081 v -0.13223 h -1.033081 v -0.90911 l -0.776877,0.13223 v 0.77688 h -0.512409 v 0.13223 h 0.512409 v 2.71081 c 0,1.16531 0.520673,1.67772 1.42152,1.67772 0.239674,0 0.471085,-0.0909 0.644642,-0.2562 z m 6.215023,-4.14059 c -0.578526,0 -1.099199,0.35538 -1.297551,0.90085 v -0.76861 l -0.768612,0.13223 v 4.38853 l 0.768612,-0.12397 v -2.84304 c 0,-0.77687 0.520673,-1.55375 1.165316,-1.55375 0.644643,0 0.776877,0.90085 0.776877,1.55375 l 0.776877,-0.13223 c 0,-0.90085 -0.520673,-1.55376 -1.421519,-1.55376 z m 9.033268,0.13224 v 0.37191 c -0.446291,-0.33885 -0.991758,-0.52067 -1.553755,-0.50415 -1.289285,0 -2.322366,0.77688 -2.322366,2.33064 0,1.55375 1.033081,2.32236 2.322366,2.32236 0.561997,0.0165 1.107464,-0.15703 1.553755,-0.49588 v 0.49588 l 0.776877,-0.12397 v -4.52903 z m -1.29755,4.39679 c -0.776878,0 -1.809959,-0.64464 -1.809959,-2.19839 0,-1.03309 0.264469,-2.1984 1.29755,-2.1984 0.685966,0.0331 1.338874,0.33059 1.809959,0.83473 v 2.8513 c -0.297528,0.4215 -0.776877,0.68597 -1.29755,0.71076 z m 10.06636,-0.77687 c -0.289263,0.44629 -0.768613,0.73555 -1.29755,0.77687 -0.768613,0 -1.809959,-0.64464 -1.809959,-2.19839 0,-1.03309 0.264469,-2.1984 1.297551,-2.1984 0.578525,0.0165 1.115727,0.31406 1.429784,0.80167 l 0.24794,-0.52894 c -0.421498,-0.27273 -0.917377,-0.41323 -1.42152,-0.40497 -1.289286,0 -2.322367,0.77688 -2.322367,2.33064 0,1.55375 1.033081,2.32236 2.322367,2.32236 0.537202,0 1.289285,-0.2562 1.677724,-0.64464 z m 6.041466,0.38843 c 0,0 -0.132234,0.38844 -0.388438,0.38844 -0.512409,0 -0.644643,-0.52067 -0.644643,-1.42152 v -2.84304 h 1.033081 v -0.13223 h -1.033081 v -0.90911 l -0.776877,0.13223 v 0.77688 H 73.34237 v 0.13223 h 0.512409 v 2.71081 c 0,1.16531 0.520673,1.67772 1.42152,1.67772 0.239674,0 0.471085,-0.0909 0.644642,-0.2562 z m 4.140593,0.52068 0.768613,-0.13224 v -4.39679 l -0.768613,0.13223 z m 0.380174,-4.91747 c 0.214881,0 0.388439,-0.17356 0.388439,-0.38844 0,-0.21488 -0.173558,-0.38844 -0.388439,-0.38844 -0.206616,0 -0.380174,0.17356 -0.380174,0.38844 0,0.21488 0.173558,0.38844 0.380174,0.38844 z m 8.785339,0.31406 -0.115705,-0.0579 -1.88434,3.80174 -1.867811,-3.80174 -0.636378,0.46283 2.066162,4.19844 0.636378,-0.46282 -0.123969,-0.24794 z m 6.033196,4.47117 c -0.768613,0 -1.809959,-0.64464 -1.809959,-2.19839 v -0.008 c 1.08267,-0.0331 2.016575,-0.51241 3.107509,-0.51241 h 0.727289 c -0.07438,-0.56199 -0.388438,-1.0744 -0.859523,-1.40499 v 0 c -0.0083,-0.008 -0.02479,-0.0165 -0.04132,-0.0248 -0.02479,-0.0165 -0.04959,-0.0331 -0.08265,-0.0496 -0.02479,-0.0165 -0.04959,-0.0248 -0.07438,-0.0413 -0.02479,-0.0165 -0.05785,-0.0331 -0.09091,-0.0496 -0.02479,-0.008 -0.04959,-0.0165 -0.07438,-0.0331 -0.03306,-0.008 -0.06612,-0.0248 -0.09091,-0.0331 -0.03306,-0.0165 -0.05785,-0.0248 -0.09091,-0.0331 -0.02479,-0.008 -0.05785,-0.0248 -0.09091,-0.0331 -0.03306,-0.008 -0.06612,-0.0165 -0.09091,-0.0248 -0.03306,-0.008 -0.06612,-0.008 -0.09918,-0.0165 -0.03306,-0.008 -0.06612,-0.0165 -0.09918,-0.0248 -0.03306,0 -0.05785,-0.008 -0.09091,-0.008 -0.04132,-0.008 -0.08265,-0.008 -0.12397,-0.0165 -0.02479,0 -0.04959,-0.008 -0.07438,-0.008 -0.06612,0 -0.140499,-0.008 -0.206616,-0.008 -1.289286,0 -2.322367,0.77688 -2.322367,2.33064 0,0.0909 0,0.17355 0.0083,0.2562 0.10744,1.3802 1.099198,2.07443 2.314102,2.07443 0.537202,0 1.289285,-0.26447 1.677724,-0.65291 l -0.12397,-0.2562 c -0.289263,0.44629 -0.768613,0.73555 -1.29755,0.77687 z m -0.512408,-4.39679 c 0.04959,0 0.10744,0 0.165293,0.008 0.0083,0 0.02479,0.008 0.04132,0.008 0.04959,0.008 0.09091,0.0165 0.140499,0.0248 0.0083,0 0.02479,0.008 0.03306,0.008 0.05785,0.0165 0.115706,0.0331 0.173558,0.0579 0.0083,0 0.02479,0.008 0.03306,0.008 0.04959,0.0248 0.09918,0.0413 0.140499,0.0661 0.01653,0.008 0.03306,0.0165 0.04132,0.0248 0.05785,0.0248 0.115705,0.0579 0.173558,0.0992 0,0 0,0 0,0 0.05785,0.0413 0.10744,0.0827 0.157028,0.12397 0.0083,0.008 0.02479,0.0248 0.04132,0.0331 0.04132,0.0413 0.08265,0.0827 0.115705,0.12397 0.01653,0.008 0.02479,0.0248 0.03306,0.0331 0.04132,0.0579 0.09091,0.10744 0.132234,0.17356 0.148764,0.23141 0.256205,0.48761 0.314057,0.76034 -1.057875,0.0165 -1.975251,0.47109 -3.024862,0.51241 0.01653,-1.00002 0.297527,-2.06616 1.289286,-2.06616 z m 5.636499,-1.55376 0.12397,0.13224 c 0.2562,0 0.64464,0.13223 0.64464,1.03308 v 4.9092 l 0.77688,-0.12397 v -4.78523 c 0,-0.90085 -0.77688,-1.16532 -1.54549,-1.16532 z m 9.57873,1.42152 -1.56202,3.81827 -1.93393,-3.81 -0.63638,0.45456 1.99178,3.91744 0.49588,-0.34712 -0.6777,1.64467 c -0.23967,0.57852 -0.91737,0.30579 -1.18184,0.0909 l -0.12397,0.2562 c 0.32232,0.26447 1.18184,0.3058 1.42978,-0.29752 l 2.32237,-5.67782 z m 11.9011,0 c -0.57852,0 -1.0992,0.35538 -1.29755,0.90085 v -0.76861 l -0.76861,0.13223 v 4.38853 l 0.76861,-0.12397 v -2.84304 c 0,-0.77687 0.52067,-1.55375 1.16532,-1.55375 0.64464,0 0.77687,0.90085 0.77687,1.55375 l 0.77688,-0.13223 c 0,-0.90085 -0.52067,-1.55376 -1.42152,-1.55376 z m 9.03327,0.13224 v 0.37191 c -0.44629,-0.33885 -0.99175,-0.52067 -1.55375,-0.50415 -1.28929,0 -2.32237,0.77688 -2.32237,2.33064 0,1.55375 1.03308,2.32236 2.32237,2.32236 0.562,0.0165 1.10746,-0.15703 1.55375,-0.49588 v 0.49588 l 0.77688,-0.12397 v -4.52903 z m -1.29755,4.39679 c -0.77687,0 -1.80995,-0.64464 -1.80995,-2.19839 0,-1.03309 0.26446,-2.1984 1.29755,-2.1984 0.68596,0.0331 1.33887,0.33059 1.80995,0.83473 v 2.8513 c -0.29752,0.4215 -0.77687,0.68597 -1.29755,0.71076 z m 8.36384,-0.38844 c 0,0 -0.13223,0.38844 -0.38844,0.38844 -0.5124,0 -0.64464,-0.52067 -0.64464,-1.42152 v -2.84304 h 1.03308 v -0.13223 h -1.03308 v -0.90911 l -0.77688,0.13223 v 0.77688 h -0.5124 v 0.13223 h 0.5124 v 2.71081 c 0,1.16531 0.52068,1.67772 1.42152,1.67772 0.23968,0 0.47109,-0.0909 0.64465,-0.2562 z m 4.1406,0.52068 0.76861,-0.13224 v -4.39679 l -0.76861,0.13223 z m 0.38017,-4.91747 c 0.21488,0 0.38844,-0.17356 0.38844,-0.38844 0,-0.21488 -0.17356,-0.38844 -0.38844,-0.38844 -0.20662,0 -0.38017,0.17356 -0.38017,0.38844 0,0.21488 0.17355,0.38844 0.38017,0.38844 z m 6.81009,0.2562 c -1.28929,0 -2.32237,0.77688 -2.32237,2.33064 0,1.55375 1.03308,2.33063 2.32237,2.33063 1.28928,0 2.33063,-0.77688 2.33063,-2.33063 0,-1.55376 -1.04135,-2.33064 -2.33063,-2.33064 z m 0.2562,4.52903 c -0.77688,0 -1.80996,-0.64464 -1.80996,-2.19839 0,-1.03309 0.26447,-2.1984 1.29755,-2.1984 0.77688,0 1.80996,0.64464 1.80996,2.1984 0,1.03308 -0.26447,2.19839 -1.29755,2.19839 z m 8.50434,-4.52903 c -0.66117,-0.0165 -1.27276,0.35538 -1.55376,0.9587 v -0.82646 l -0.76861,0.13223 v 4.38853 l 0.76861,-0.12397 v -2.84304 c 0,-0.77687 0.52068,-1.55375 1.42152,-1.55375 0.90912,0 1.16532,0.61985 1.16532,1.55375 v 2.96701 l 0.77688,-0.12397 v -2.84304 c 0,-1.16531 -0.77688,-1.68599 -1.80996,-1.68599 z m 9.73575,0.13224 v 0.37191 c -0.44629,-0.33885 -0.99176,-0.52067 -1.55376,-0.50415 -1.28928,0 -2.32236,0.77688 -2.32236,2.33064 0,1.55375 1.03308,2.32236 2.32236,2.32236 0.562,0.0165 1.10747,-0.15703 1.55376,-0.49588 v 0.49588 l 0.77687,-0.12397 v -4.52903 z m -1.29755,4.39679 c -0.77688,0 -1.80996,-0.64464 -1.80996,-2.19839 0,-1.03309 0.26447,-2.1984 1.29755,-2.1984 0.68596,0.0331 1.33887,0.33059 1.80996,0.83473 v 2.8513 c -0.29753,0.4215 -0.77688,0.68597 -1.29755,0.71076 z m 5.41337,-5.95055 0.12397,0.13224 c 0.2562,0 0.64464,0.13223 0.64464,1.03308 v 4.9092 l 0.77688,-0.12397 v -4.78523 c 0,-0.90085 -0.77688,-1.16532 -1.54549,-1.16532 z"
       id="text2"
       style="font-size:8.26465px;line-height:1;font-family:Vetrino;-inkscape-font-specification:Vetrino;letter-spacing:3.09925px;stroke-width:0.264583"
       aria-label="abstractively rational" /><path
       id="path93"
       style="fill:#000000;stroke:none;stroke-width:0.264583px;stroke-linecap:butt;stroke-linejoin:miter;stroke-opacity:1"
       d="m 68.791486,105.44281 c 0,0 -30.226898,52.03298 -35.985401,62.32849 -5.239042,9.36678 -19.020544,10.99365 -19.020544,10.99365 l 45.648081,-0.005 0.01105,-0.0362 -1.192175,-0.27491 c -2.094668,-0.48283 -6.043577,-1.70989 -7.275943,-2.06293 -2.8981,-0.83026 -4.889151,-1.85553 -6.082832,-3.13159 -0.717199,-0.76669 -0.999918,-1.38884 -1.050582,-2.31097 -0.05222,-0.95051 0.07998,-1.3438 0.944645,-2.80293 0.375152,-0.63306 1.048232,-1.78669 1.495516,-2.56367 0.447284,-0.77699 2.814613,-4.86915 5.260661,-9.09402 l 4.447273,-7.6817 0.166915,-0.2868 c 0.09193,-0.15782 1.182478,-2.03404 2.423108,-4.16926 1.240633,-2.13519 2.416799,-4.15595 2.613794,-4.49016 0.196997,-0.3342 0.65667,-1.12417 1.021643,-1.75545 0.364978,-0.63128 2.378634,-4.09468 4.474663,-7.69669 2.096029,-3.60199 4.831555,-8.30298 6.078698,-10.44691 1.404307,-2.41408 2.030364,-3.45556 2.247925,-3.72897 z m 20.125903,34.85885 c -0.0061,1.00933 -0.822568,2.35856 -2.402437,3.96669 -0.942968,0.95982 -1.821534,1.71366 -2.550749,2.18901 -1.815116,1.18321 -4.707365,2.0382 -7.695137,2.2748 -0.452226,0.0358 -4.387167,0.0508 -8.806698,0.0579 l 7.454842,-0.008 18.885152,-0.0196 z m 14.358811,24.87032 -0.29455,0.6134 c -0.80912,1.68625 -1.90129,3.22617 -3.35122,4.72374 -2.81593,2.90845 -6.527587,4.92796 -10.980725,5.97535 -2.83596,0.66703 -9.07983,1.99752 -11.673266,2.27186 l 34.132361,-0.0179 z"
       sodipodi:nodetypes="csccccssssscccssssscccsssccccccssccc" /><path
       style="color:#000000;fill:#000000;-inkscape-stroke:none"
       d="m 52.625,148.74313 v 0.71365 h 41.476099 l -0.611178,-0.71365 z"
       id="path5"
       sodipodi:nodetypes="ccccc" /><path
       style="color:#000000;fill:#000000;stroke-width:1;-inkscape-stroke:none"
       d="m 71.904733,110.8348 -0.61804,0.35682 35.556047,61.58487 0.0941,-1.2643 z"
       id="path4"
       sodipodi:nodetypes="ccccc" /><path
       style="fill:none;stroke:none;stroke-width:0.264583px;stroke-linecap:butt;stroke-linejoin:miter;stroke-opacity:1"
       d="m 80.738533,105.21278 h 16.49699 c 0,0 26.169877,-0.59406 35.050827,3.28641 7.07511,3.09142 13.93353,8.40919 17.37031,15.32313 2.71408,5.46009 5.8935,11.54435 1.36481,18.24134 -4.52869,6.69699 -14.39254,6.69699 -20.59623,6.69699 h -12.09013"
       id="path103"
       sodipodi:nodetypes="ccsassc" /><ellipse
       style="opacity:1;fill:#000000;stroke:#000000;stroke-width:0.264583;stroke-linecap:round;stroke-linejoin:round;stroke-miterlimit:4.7;stroke-dasharray:none"
       id="circle104"
       cx="169.55283"
       cy="170.8251"
       rx="7.8680367"
       ry="7.8680501" /><path
       style="fill:none;stroke:#000000;stroke-width:0.264583px;stroke-linecap:butt;stroke-linejoin:miter;stroke-opacity:1"
       d="m 117.76976,148.40625 c 0,0 14.18109,0.78908 23.88183,6.04292 8.05806,4.36418 13.11957,13.93652 24.6059,9.23124"
       id="path105"
       sodipodi:nodetypes="csc" /><path
       style="fill:none;stroke:#000000;stroke-width:0.264583px;stroke-linecap:butt;stroke-linejoin:miter;stroke-opacity:1"
       d="m 117.76976,148.40625 c 0,0 12.28698,1.04695 22.26881,10.01096 8.3078,7.46067 15.14013,20.68255 29.51425,20.27596"
       id="path106"
       sodipodi:nodetypes="csc" /><path
       style="fill:none;stroke:none;stroke-width:0.264583px;stroke-linecap:butt;stroke-linejoin:miter;stroke-opacity:1"
       d="m 93.206459,105.27205 c 0,0 30.953051,-2.046 40.072481,13.40121 9.11942,15.4472 4.89861,29.99183 -4.59074,30.08739"
       id="path107"
       sodipodi:nodetypes="csc" /><path
       style="opacity:1;fill:#000000;stroke:none;stroke-width:0.264583;stroke-linecap:round;stroke-linejoin:round;stroke-miterlimit:4.7;stroke-dasharray:none"
       d="m 117.55413,147.85738 c 15.20026,-0.9206 17.88731,-2.52522 20.0119,-6.2051 1.95224,-3.3814 1.48913,-8.01852 0.77454,-11.93381 -0.81113,-4.4443 -1.53068,-5.79644 -3.46037,-9.29908 -1.42816,-2.59229 -2.5892,-3.75116 -4.4169,-5.57988 -4.4383,-4.44077 -10.32012,-6.64538 -19.70873,-8.07177 -1.81866,-0.2763 -12.231161,-0.56517 -20.32952,-0.5753 -5.119382,-0.006 -9.177293,-0.71004 -9.263019,-0.72379 -0.266049,-0.0427 5.26687,-0.0451 11.919709,0 8.86316,0.0601 19.679,0.18975 21.07963,0.27429 8.25078,0.49797 14.16541,1.42621 17.49266,2.74535 6.64369,2.63398 13.05523,7.7466 16.54303,13.19153 0.90431,1.41174 2.63741,4.54171 3.66306,7.45452 1.59837,4.53933 1.63701,7.71012 -0.0512,11.12018 -2.17062,4.38442 -6.18082,6.88475 -12.5739,7.83974 -1.66062,0.24807 -4.87389,0.4713 -6.7163,0.46659 l -26.5137,-0.004 z"
       id="path131"
       sodipodi:nodetypes="sssssssssssssssscs" /><path
       style="opacity:1;fill:#000000;stroke:none;stroke-width:0.264583;stroke-linecap:round;stroke-linejoin:round;stroke-miterlimit:4.7;stroke-dasharray:none"
       d="m 116.2578,178.37092 c 2.612,-1.23569 3.87566,-4.62448 2.70496,-7.25396 -0.13048,-0.29309 -8.61805,-15.04917 -18.86123,-32.7913 -10.243198,-17.74212 -18.694984,-32.39308 -18.781747,-32.5577 l -0.157752,-0.29931 h 5.959853 5.959856 l 21.11523,36.57295 c 11.61338,20.11514 21.11524,36.60682 21.11524,36.64822 0,0.0414 -4.47461,0.0753 -9.94357,0.0752 l -9.94354,-1e-4 z"
       id="path132" /><path
       style="opacity:1;fill:#000000;stroke:#000000;stroke-width:0.264583;stroke-linecap:round;stroke-linejoin:round;stroke-miterlimit:4.7;stroke-dasharray:none"
       d="m 164.69144,164.4433 c -0.005,-0.0109 -0.008,-0.0199 -0.008,-0.02 7.9e-4,-5.3e-4 0.13006,-0.0461 0.13027,-0.0459 1.6e-4,1.5e-4 -0.0111,0.009 -0.0248,0.0189 -0.0139,0.0103 -0.0395,0.0294 -0.057,0.0427 l -0.0318,0.024 z"
       id="path152" /><path
       style="opacity:1;fill:#000000;stroke:#000000;stroke-width:0.264583;stroke-linecap:round;stroke-linejoin:round;stroke-miterlimit:4.7;stroke-dasharray:none"
       d="m 167.43076,178.54869 c -0.003,-1.7e-4 -0.0309,-0.001 -0.0618,-0.002 -0.0309,-0.001 -0.0591,-0.002 -0.0627,-0.003 -0.006,-5.3e-4 -0.007,-7.9e-4 -0.006,-0.003 0.002,-0.007 0.004,-0.018 0.004,-0.0265 5.3e-4,-0.008 8e-4,-0.01 0.002,-0.009 7.9e-4,2.6e-4 0.0197,0.006 0.0416,0.012 0.022,0.006 0.0568,0.0162 0.0774,0.0219 l 0.0374,0.0104 -0.0135,-1.4e-4 c -0.007,-7e-5 -0.0161,-2.6e-4 -0.0192,-5.4e-4 z"
       id="path153" /><path
       style="fill:#000000;stroke:#000000;stroke-width:0.264583;stroke-linecap:round;stroke-linejoin:round;stroke-miterlimit:4.7;stroke-dasharray:none"
       d="m 166.50636,178.40911 c -4.65522,-0.60411 -8.50944,-2.42617 -12.70296,-6.00521 -2.11455,-1.80469 -3.83037,-3.57024 -7.95159,-8.18208 -3.84323,-4.30075 -5.7294,-6.13223 -8.27377,-8.03392 -4.04464,-3.02299 -8.91176,-5.37656 -14.06171,-6.79977 -0.64569,-0.17843 -1.13457,-0.32603 -1.08641,-0.328 0.0481,-0.002 0.48217,0.0567 0.96443,0.13047 6.97896,1.06694 12.39728,2.59108 16.78522,4.72156 2.62854,1.27623 3.7298,2.01434 7.52018,5.0404 3.08847,2.46568 4.11752,3.21576 5.62715,4.10168 1.49504,0.87738 3.16836,1.53366 4.7021,1.84421 0.67796,0.13727 0.94157,0.15388 2.3915,0.1507 1.50466,-0.003 1.69652,-0.0174 2.50344,-0.18387 0.48066,-0.0992 1.0194,-0.22444 1.19722,-0.27838 0.17782,-0.054 0.34754,-0.0985 0.37714,-0.0989 0.0296,-5.3e-4 -0.21205,0.26118 -0.53702,0.58126 -1.16213,1.1447 -1.87496,2.43453 -2.2882,4.1404 -0.0591,0.24396 -0.0874,0.7978 -0.085,1.66279 0.003,1.1884 0.0185,1.35164 0.18015,1.94969 0.36398,1.34641 0.98033,2.46088 1.91129,3.45598 0.86048,0.91978 1.72153,1.5135 2.92653,2.01794 0.35163,0.14722 0.33235,0.16903 -0.0998,0.11296 z"
       id="path6" /><path
       style="fill:#000000;stroke:#000000;stroke-width:0.264583;stroke-linecap:round;stroke-linejoin:round;stroke-miterlimit:4.7;stroke-dasharray:none"
       d="m 122.28103,149.09614 c -0.20297,-0.0503 -0.47077,-0.11386 -0.73267,-0.17373 -0.0692,-0.0158 -0.12433,-0.0287 -0.12259,-0.0288 0.0124,-5.3e-4 0.89256,0.11231 0.89499,0.11476 5.3e-4,5.3e-4 -0.006,0.0146 -0.0136,0.0314 l -0.0145,0.0304 0.006,0.0149 c 0.003,0.008 0.006,0.0152 0.006,0.0156 0,0.001 -0.005,5.3e-4 -0.0239,-0.004 z"
       id="path7" /><path
       style="fill:#000000;stroke:#000000;stroke-width:0.264583;stroke-linecap:round;stroke-linejoin:round;stroke-miterlimit:4.7;stroke-dasharray:none"
       d="m 167.14549,178.49734 c -0.0102,-0.001 -0.0529,-0.005 -0.0946,-0.008 -0.0417,-0.004 -0.0762,-0.007 -0.0767,-0.007 -2.8e-4,-2.7e-4 0.002,-0.009 0.005,-0.0194 0.004,-0.0144 0.005,-0.0234 0.005,-0.0388 0,-0.0156 5.3e-4,-0.0199 0.003,-0.019 0.007,0.003 0.1508,0.0496 0.17,0.0555 l 0.022,0.007 -0.003,0.009 c -0.002,0.005 -0.003,0.012 -0.004,0.0164 -7.9e-4,0.006 -0.002,0.008 -0.005,0.007 -0.002,-1.5e-4 -0.012,-0.001 -0.0222,-0.002 z"
       id="path8" /></g></svg>
