<?xml version="1.0" encoding="UTF-8" standalone="no"?>
<!-- Created with Inkscape (http://www.inkscape.org/) -->

<svg
   width="2400"
   height="900"
   viewBox="0 0 2400 900.00003"
   version="1.1"
   id="svg1"
   sodipodi:docname="Portfolio_OutlineTitleDecor.svg"
   xml:space="preserve"
   inkscape:version="1.3 (0e150ed6c4, 2023-07-21)"
   xmlns:inkscape="http://www.inkscape.org/namespaces/inkscape"
   xmlns:sodipodi="http://sodipodi.sourceforge.net/DTD/sodipodi-0.dtd"
   xmlns="http://www.w3.org/2000/svg"
   xmlns:svg="http://www.w3.org/2000/svg"><sodipodi:namedview
     id="namedview1"
     pagecolor="#505050"
     bordercolor="#000000"
     borderopacity="1"
     inkscape:showpageshadow="0"
     inkscape:pageopacity="0"
     inkscape:pagecheckerboard="0"
     inkscape:deskcolor="#747474"
     inkscape:document-units="mm"
     inkscape:zoom="0.22627417"
     inkscape:cx="627.55727"
     inkscape:cy="506.02329"
     inkscape:window-width="1920"
     inkscape:window-height="1009"
     inkscape:window-x="-8"
     inkscape:window-y="-8"
     inkscape:window-maximized="1"
     inkscape:current-layer="layer1" /><defs
     id="defs1"><filter
       inkscape:collect="always"
       style="color-interpolation-filters:sRGB"
       id="filter3-8"
       x="-0.050160752"
       y="-0.15287418"
       width="1.1003215"
       height="1.3057484"><feGaussianBlur
         inkscape:collect="always"
         stdDeviation="11.666528"
         id="feGaussianBlur3-0" /></filter><inkscape:path-effect
       effect="simplify"
       id="path-effect2"
       is_visible="true"
       lpeversion="1.3"
       threshold="100"
       steps="5.3346154"
       smooth_angles="0"
       helper_size="10"
       simplify_individual_paths="false"
       simplify_just_coalesce="false" /><filter
       inkscape:collect="always"
       style="color-interpolation-filters:sRGB"
       id="filter2-6"
       x="-0.048082658"
       y="-0.16726992"
       width="1.0961653"
       height="1.3345398"><feGaussianBlur
         inkscape:collect="always"
         stdDeviation="10.274572"
         id="feGaussianBlur2-9" /></filter><inkscape:path-effect
       effect="simplify"
       id="path-effect1"
       is_visible="true"
       lpeversion="1.3"
       threshold="88.847269"
       steps="5.2403846"
       smooth_angles="0"
       helper_size="10"
       simplify_individual_paths="false"
       simplify_just_coalesce="false" /></defs><g
     inkscape:label="Слой 1"
     inkscape:groupmode="layer"
     id="layer1"
     transform="translate(-7333.4974,-573.47436)"><path
       style="fill:#6c9d96;fill-opacity:1;stroke:#517b75;stroke-width:21.5658;stroke-linecap:butt;stroke-linejoin:miter;stroke-dasharray:none;stroke-opacity:1"
       d="m 7536.1464,553.29642 c 0,0 -100.6309,300.55065 -17.6483,408.92309 49.5783,64.74789 181.6614,-4.35036 238.8269,53.82289 45.2098,46.0087 -18.6895,160.6667 39.0801,189.4204 114.955,57.2188 219.7394,-168.3063 348.1357,-164.9457 161.2585,4.2216 265.4524,247.5675 425.7759,229.7493 123.9619,-13.776 157.4676,-251.3417 282.0605,-245.5763 74.7716,3.4592 80.9013,151.1582 154.9051,162.3766 112.0949,16.9911 184.0932,-156.5689 297.131,-165.3484 78.7897,-6.1196 160.5736,130.9832 222.455,81.8887 144.9368,-114.99067 -69.1606,-550.31058 -69.1606,-550.31058"
       id="path20-0"
       sodipodi:nodetypes="caaaaaaaaac" /><path
       style="fill:#8fb5b0;fill-opacity:1;stroke-width:27.4134;stroke-linecap:round;stroke-linejoin:round;stroke-miterlimit:4.7;filter:url(#filter3-8)"
       d="m 291.97318,187.87235 c -41.7567,-10.76655 -62.90611,-63.8159 -109.72697,-60.7846 -29.53088,0.35872 -62.41563,69.3642 -84.184802,26.11341 C 91.884626,119.88217 59.345743,105.54176 31.42749,107.82038 2.2618041,81.694918 11.87032,35.493024 29.475304,5.4792392 37.207646,25.091007 8.4404541,63.388814 44.52055,71.989248 64.96922,62.783213 90.855655,62.38362 91.48603,92.264413 c 16.05772,38.479067 61.82733,25.589387 87.50198,5.813398 26.63391,-13.582447 67.46169,-14.215147 81.23237,17.358879 11.95941,37.80457 66.79358,40.12237 66.13527,-3.95702 20.54989,-29.841258 61.87182,-17.412508 86.90022,-0.74553 30.15311,29.10128 65.11337,-1.86354 90.60042,-20.524777 39.87848,11.098297 62.91694,-36.903353 32.17571,-64.17473 -11.603,-26.20012643 16.21523,-20.3993706 18.06236,1.051658 9.58537,33.824272 29.82821,82.289439 5.02048,111.803209 -31.26109,4.37539 -69.6387,-36.77917 -93.16736,3.80589 -24.31667,29.85157 -59.56846,17.23612 -75.46993,-11.99518 -43.41382,-22.61995 -51.97977,42.52616 -82.15134,56.06676 -5.17733,1.97152 -10.95591,2.45143 -16.35303,1.10538 z"
       id="path2-6"
       transform="matrix(3.7188729,0,0,3.7143896,7441.5762,560.4339)"
       inkscape:path-effect="#path-effect2"
       inkscape:original-d="m 291.97318,187.87235 c -18.26876,-3.99814 -32.48147,-17.69132 -46.05901,-29.66648 -16.32162,-14.47125 -34.30031,-30.96504 -57.36182,-31.83868 -34.29915,1.09246 -57.64837,48.16119 -83.86485,46.76787 -21.898797,-2.91147 -9.783617,-29.10687 -13.304,-44.22881 -1.963015,-7.29366 -7.336324,-12.16621 -16.05414,-14.55799 -11.175603,-3.41058 -34.102173,1.31304 -45.110186,-2.8056 C 24.301663,109.32864 20.408035,104.41205 17.652396,95.67425 11.752309,76.965785 15.101097,42.201164 26.4482,4.3627988 c 1.357743,-4.52756943 1.52988,-5.4599979 1.062572,-5.7557373 3.849067,-0.6789964 8.395824,-0.3611424 12.453723,-0.3648724 l -1.320269,3.3630284 c -17.4109,44.3495515 -13.643302,75.8005065 2.625908,77.0275545 13.298019,1.002953 23.029647,-24.90913 35.233128,-18.351645 17.064062,9.169289 5.544842,46.488693 34.632168,54.889673 39.6499,11.45168 80.98281,-35.431872 121.54024,-26.543427 30.38957,7.708945 35.81235,62.420217 67.3933,62.420217 30.19732,0 18.79852,-48.73896 41.41227,-57.427525 33.77393,-12.976486 73.79262,29.698655 112.42501,29.606925 11.34914,-0.0269 19.74465,-3.0734 23.8543,-8.65595 8.99242,-12.21557 6.65722,-30.334025 21.84883,-30.148276 15.06589,0.184226 33.64746,17.021306 44.15976,2.289566 14.05598,-19.697752 -4.09816,-60.836509 -19.36465,-88.4701425 5.85492,0.032793 9.63506,0.4969419 15.88254,0.4991317 2.08368,7.304e-4 25.92837,53.1858338 30.59715,99.8352238 1.08781,10.868517 1.52726,32.423997 -10.00587,43.683957 -3.75563,3.66666 -6.91629,4.63884 -11.37102,3.49759 -16.65462,-4.26672 -31.6769,-29.4367 -54.80648,-23.32427 -24.49297,7.11655 -40.01046,33.8005 -59.18566,41.59207 -5.98418,2.43159 -12.95774,2.79077 -17.1268,0.88211 -11.97635,-5.48447 -15.63664,-26.03474 -26.57637,-36.82398 -5.71206,-5.63348 -12.10118,-7.1569 -20.82777,-4.96616 -32.02448,12.10897 -38.33129,59.0069 -65.54975,64.77311 -3.32169,0.70369 -9.52095,0.69512 -13.46137,-0.0186 z"
       sodipodi:nodetypes="cssssssssscsssssssccsscscsssscssscc" /><path
       style="fill:#8bb1ac;fill-opacity:1;stroke:#c2d6d3;stroke-width:21.5658;stroke-linecap:butt;stroke-linejoin:miter;stroke-dasharray:none;stroke-opacity:1"
       d="m 7601.8536,553.29642 c 0,0 -98.5198,231.70218 -19.4193,284.63773 42.5336,28.46473 88.7384,-82.63005 137.7559,-67.85877 74.0956,22.32727 46.316,168.31764 116.6896,200.48894 147.5892,67.46948 322.4235,-134.10273 478.5643,-89.82234 109.6366,31.09303 139.7308,245.04042 252.7054,230.03182 82.5639,-10.9686 57.6672,-177.80515 134.2646,-210.4841 151.9604,-64.83468 333.8355,160.3001 486.2302,96.49026 47.5038,-19.89016 38.5659,-106.31729 84.7792,-129.03628 53.4592,-26.28035 139.2192,58.3993 178.2459,13.42959 73.4038,-84.58422 -72.645,-327.87685 -72.645,-327.87685"
       id="path19-4"
       sodipodi:nodetypes="caaaaaaaaac" /><path
       style="fill:#9abcb8;fill-opacity:1;stroke:#517b76;stroke-width:21.5658;stroke-linecap:butt;stroke-linejoin:miter;stroke-dasharray:none;stroke-opacity:1"
       d="m 7839.3605,553.29642 c 0,0 -14.3169,103.9071 23.245,118.39758 29.431,11.35312 46.1331,-66.84773 75.9187,-56.45607 77.7371,27.11675 -13.6072,208.90462 63.2147,238.51062 97.0454,37.39887 158.3994,-181.1024 261.7825,-169.64291 54.9153,6.08714 61.2908,126.84611 115.8882,118.37105 49.8186,-7.73371 19.1044,-122.43514 67.9334,-134.97009 98.8023,-25.3651 153.1569,197.15859 252.274,173.05142 57.7811,-14.05272 30.6509,-131.20541 84.1618,-157.12063 91.6045,-44.36344 205.1317,88.72139 300.6648,53.58421 75.8465,-27.89766 154.0742,-187.00727 154.0742,-187.00727"
       id="path17-0"
       sodipodi:nodetypes="caaaaaaaaac" /><path
       style="fill:#a1c0bc;fill-opacity:1;stroke-width:27.4134;stroke-linecap:round;stroke-linejoin:round;stroke-miterlimit:4.7;filter:url(#filter2-6)"
       d="M 222.07031,82.06668 C 183.27366,81.143371 152.55849,117.79203 112.93261,109.76684 89.197982,100.63578 92.242768,37.626013 57.50659,65.629427 20.864842,75.120255 26.009971,13.456683 50.855559,1.5907425 68.622532,-12.375506 107.18273,-6.4945953 102.27664,21.791531 c 2.91098,31.547521 39.54881,-14.0448898 36.957,17.980289 -8.62519,24.811548 15.53192,59.469708 38.1238,31.686053 13.14042,-25.87646 46.52352,-45.004315 64.39125,-12.622198 23.63741,19.599633 26.10769,-48.105052 53.06902,-15.227707 9.26131,23.710942 43.29095,48.871894 57.70229,14.304661 3.71182,-33.207736 41.10169,-21.15116 60.74097,-9.918404 34.63014,14.802131 53.52488,-18.67786 68.73423,-43.0102317 29.25639,-21.3739213 57.94449,15.2171747 58.98854,43.3941187 12.71868,26.240201 -18.10955,45.900526 -38.65766,30.889922 C 477.88433,86.093913 466.77041,132.0028 436.21782,114.83992 404.08135,105.07957 373.29721,76.549642 337.81111,89.208888 316.22272,100.62754 321.59256,152.86 288.57384,139.61093 264.8573,124.5459 260.87365,84.273696 228.42894,81.87899 c 0,0 -3.09574,-0.03242 -3.09574,-0.03242 z"
       id="path1-7"
       transform="matrix(3.7188729,0,0,3.7143896,7441.5762,560.4339)"
       inkscape:path-effect="#path-effect1"
       inkscape:original-d="M 222.07031,82.06668 C 180.80212,82.03305 149.55285,119.12001 112.93261,109.76684 86.962399,102.24097 100.08649,66.382836 78.414625,54.80466 62.27864,46.920123 49.729063,75.566835 40.863838,72.910754 28.724213,69.273627 30.53069,36.760014 44.573634,1.9834344 c 1.115018,-2.76127905 1.14936,-3.2371047 0.250585,-3.4719791 19.762673,-0.3175899 39.537242,-0.239405 59.304251,-0.2692678 l -0.29431,2.05078125 C 104.12493,11.346198 97.316632,38.547652 111.3101,41.137216 c 8.42314,-0.400266 16.80347,-23.754403 20.90229,-23.754403 14.20662,0 1.80669,41.374521 9.45322,56.906828 3.9689,8.061976 14.26299,10.906515 23.69647,6.547976 18.37691,-8.490643 33.59053,-43.400086 52.45773,-44.608615 16.85897,-1.079897 15.30085,31.718611 32.96144,31.718611 19.93478,0 6.41566,-36.02115 23.82813,-36.666641 22.05847,0.190515 32.36126,46.387526 59.76562,47.414641 24.32351,-0.03918 12.94395,-37.421693 29.24211,-43.647738 23.72267,-9.062261 51.88014,25.756864 80.96773,14.361395 11.52344,-5.182297 26.03102,-22.591123 39.01719,-46.8198196 l 2.33008,-4.3472629 c 8.82368,3.0225652 25.47682,2.05078278 33.59914,0.4601122 0.483,-0.094589 -0.84293,0.48674749 -0.91828,0.54833749 -0.0754,0.06159 0.73812,1.6644668 1.80777,3.56194841 23.66727,41.9840154 29.50186,81.0852604 13.59055,84.0578124 -10.00202,1.868584 -29.94829,-12.557999 -42.0191,-6.924328 -15.79828,7.373359 -10.17363,30.6307 -25.78125,35.76697 -40.76731,13.41605 -80.92466,-43.957741 -128.83695,-26.438181 -23.46489,11.755991 -14.11305,55.423981 -36.75647,56.098511 -33.2987,0.99162 -28.33099,-63.266117 -78.54721,-63.30669 z"
       sodipodi:nodetypes="sssssscsssssssssssscsssssssss" /></g></svg>
