<?xml version="1.0" encoding="UTF-8" standalone="no"?>
<!-- Created with Inkscape (http://www.inkscape.org/) -->

<svg
   width="2400"
   height="900"
   viewBox="0 0 2400 900.00003"
   version="1.1"
   id="svg1"
   sodipodi:docname="Portfolio_OutlineTitleDecor.svg"
   xml:space="preserve"
   inkscape:version="1.3 (0e150ed6c4, 2023-07-21)"
   xmlns:inkscape="http://www.inkscape.org/namespaces/inkscape"
   xmlns:sodipodi="http://sodipodi.sourceforge.net/DTD/sodipodi-0.dtd"
   xmlns="http://www.w3.org/2000/svg"
   xmlns:svg="http://www.w3.org/2000/svg"><sodipodi:namedview
     id="namedview1"
     pagecolor="#505050"
     bordercolor="#000000"
     borderopacity="1"
     inkscape:showpageshadow="0"
     inkscape:pageopacity="0"
     inkscape:pagecheckerboard="0"
     inkscape:deskcolor="#747474"
     inkscape:document-units="mm"
     inkscape:zoom="0.22627417"
     inkscape:cx="934.70678"
     inkscape:cy="373.44077"
     inkscape:window-width="1920"
     inkscape:window-height="1009"
     inkscape:window-x="-8"
     inkscape:window-y="-8"
     inkscape:window-maximized="1"
     inkscape:current-layer="layer1" /><defs
     id="defs1"><filter
       inkscape:collect="always"
       style="color-interpolation-filters:sRGB"
       id="filter3-8"
       x="-0.050066032"
       y="-0.15242995"
       width="1.1001321"
       height="1.3048599"><feGaussianBlur
         inkscape:collect="always"
         stdDeviation="11.666528"
         id="feGaussianBlur3-0" /></filter><inkscape:path-effect
       effect="simplify"
       id="path-effect2"
       is_visible="true"
       lpeversion="1.3"
       threshold="100"
       steps="5.3346154"
       smooth_angles="0"
       helper_size="10"
       simplify_individual_paths="false"
       simplify_just_coalesce="false" /><filter
       inkscape:collect="always"
       style="color-interpolation-filters:sRGB"
       id="filter2-6"
       x="-0.048259961"
       y="-0.16651693"
       width="1.0965199"
       height="1.3330339"><feGaussianBlur
         inkscape:collect="always"
         stdDeviation="10.274572"
         id="feGaussianBlur2-9" /></filter><inkscape:path-effect
       effect="simplify"
       id="path-effect1"
       is_visible="true"
       lpeversion="1.3"
       threshold="88.847269"
       steps="5.2403846"
       smooth_angles="0"
       helper_size="10"
       simplify_individual_paths="false"
       simplify_just_coalesce="false" /></defs><g
     inkscape:label="Слой 1"
     inkscape:groupmode="layer"
     id="layer1"
     transform="translate(-7333.4974,-573.47436)"><path
       style="fill:#6c9d96;fill-opacity:1;stroke:#517b75;stroke-width:21.5658;stroke-linecap:butt;stroke-linejoin:miter;stroke-dasharray:none;stroke-opacity:1"
       d="m 7440.5686,562.47966 c 0,0 -110.2787,329.7631 -19.3402,448.66894 54.3315,71.0411 199.0779,-4.7732 261.724,59.0543 49.5443,50.4805 -20.4813,176.2829 42.8269,207.8314 125.9762,62.7802 240.8066,-184.6651 381.5127,-180.9778 176.719,4.6318 290.9024,271.6301 466.5967,252.0801 135.8465,-15.1151 172.5646,-275.7713 309.1027,-269.4455 81.9401,3.7954 88.6575,165.8502 169.7563,178.159 122.8418,18.6425 201.7429,-171.7868 325.618,-181.4196 86.3437,-6.7144 175.9684,143.7142 243.7826,89.848 158.8324,-126.1674 -75.7913,-603.79884 -75.7913,-603.79884"
       id="path20-0"
       sodipodi:nodetypes="caaaaaaaaac" /><path
       style="fill:#8fb5b0;fill-opacity:1;stroke-width:25;stroke-linecap:round;stroke-linejoin:round;stroke-miterlimit:4.7;filter:url(#filter3-8)"
       d="M 291.97318,187.87235 C 250.10233,176.84088 228.7456,124.07899 181.8456,126.54442 150.72579,128.62516 131.493,186.5382 99.333773,161.36018 89.062825,137.10172 79.965889,99.002249 45.202264,114.07179 16.064849,110.79109 11.566449,74.960348 13.987182,51.395235 14.748317,38.626245 19.91046,4.5056102 33.691629,9.1344823 15.43648,32.488326 30.431958,93.191338 65.698469,63.543029 c 33.718076,1.739375 21.862911,63.100241 63.369971,53.222661 37.38377,-0.61777 68.25942,-40.707671 107.05009,-25.505187 29.59922,10.307597 40.81617,78.882587 78.14185,48.765037 12.09402,-28.07866 34.20321,-65.381468 68.93493,-42.34705 27.00401,11.27357 54.56012,31.53405 85.3529,23.30389 9.27177,-34.574539 50.4752,-34.137119 75.37682,-40.208765 21.57999,-22.245583 -24.36746,-66.45964 -4.96599,-75.8435323 25.99058,25.2314353 24.54181,67.0412183 33.31486,100.0721973 4.8228,34.13195 -34.59797,48.7578 -54.11949,22.04761 -28.12955,-15.82796 -51.24398,13.98263 -71.61175,29.27362 -36.4525,31.10165 -46.54955,-50.27877 -83.94746,-28.2575 -30.26444,11.05589 -28.43781,63.05638 -66.76476,60.4588 z"
       id="path2-6"
       transform="matrix(4.0754148,0,0,4.0754148,7336.9317,570.31086)"
       inkscape:path-effect="#path-effect2"
       inkscape:original-d="m 291.97318,187.87235 c -18.26876,-3.99814 -32.48147,-17.69132 -46.05901,-29.66648 -16.32162,-14.47125 -34.30031,-30.96504 -57.36182,-31.83868 -34.29915,1.09246 -57.64837,48.16119 -83.86485,46.76787 -21.898797,-2.91147 -9.783617,-29.10687 -13.304,-44.22881 -1.963015,-7.29366 -7.336324,-12.16621 -16.05414,-14.55799 -11.175603,-3.41058 -34.102173,1.31304 -45.110186,-2.8056 C 24.301663,109.32864 20.408035,104.41205 17.652396,95.67425 11.752309,76.965785 15.101097,42.201164 26.4482,4.3627988 c 1.357743,-4.52756943 1.52988,-5.4599979 1.062572,-5.7557373 3.849067,-0.6789964 8.395824,-0.3611424 12.453723,-0.3648724 l -1.320269,3.3630284 c -17.4109,44.3495515 -13.643302,75.8005065 2.625908,77.0275545 13.298019,1.002953 23.029647,-24.90913 35.233128,-18.351645 17.064062,9.169289 5.544842,46.488693 34.632168,54.889673 39.6499,11.45168 80.98281,-35.431872 121.54024,-26.543427 30.38957,7.708945 35.81235,62.420217 67.3933,62.420217 30.19732,0 18.79852,-48.73896 41.41227,-57.427525 33.77393,-12.976486 73.79262,29.698655 112.42501,29.606925 11.34914,-0.0269 19.74465,-3.0734 23.8543,-8.65595 8.99242,-12.21557 6.65722,-30.334025 21.84883,-30.148276 15.06589,0.184226 33.64746,17.021306 44.15976,2.289566 14.05598,-19.697752 -4.09816,-60.836509 -19.36465,-88.4701425 5.85492,0.032793 9.63506,0.4969419 15.88254,0.4991317 2.08368,7.304e-4 25.92837,53.1858338 30.59715,99.8352238 1.08781,10.868517 1.52726,32.423997 -10.00587,43.683957 -3.75563,3.66666 -6.91629,4.63884 -11.37102,3.49759 -16.65462,-4.26672 -31.6769,-29.4367 -54.80648,-23.32427 -24.49297,7.11655 -40.01046,33.8005 -59.18566,41.59207 -5.98418,2.43159 -12.95774,2.79077 -17.1268,0.88211 -11.97635,-5.48447 -15.63664,-26.03474 -26.57637,-36.82398 -5.71206,-5.63348 -12.10118,-7.1569 -20.82777,-4.96616 -32.02448,12.10897 -38.33129,59.0069 -65.54975,64.77311 -3.32169,0.70369 -9.52095,0.69512 -13.46137,-0.0186 z"
       sodipodi:nodetypes="cssssssssscsssssssccsscscsssscssscc" /><path
       style="fill:#8bb1ac;fill-opacity:1;stroke:#c2d6d3;stroke-width:21.5658;stroke-linecap:butt;stroke-linejoin:miter;stroke-dasharray:none;stroke-opacity:1"
       d="m 7512.5754,562.47966 c 0,0 -107.9652,254.2228 -21.281,312.3035 46.6114,31.2314 97.2461,-90.6614 150.963,-74.4544 81.1994,24.4974 50.7565,184.67751 127.877,219.97574 161.7392,74.0273 353.3355,-147.13704 524.4461,-98.55274 120.1478,34.11515 153.1272,268.85744 276.9332,252.39004 90.4796,-12.0347 63.1959,-195.08713 147.137,-230.94236 166.5294,-71.13638 365.8416,175.88076 532.8469,105.86876 52.0581,-21.8234 42.2634,-116.65094 92.9072,-141.57814 58.5846,-28.8347 152.5667,64.07551 195.3351,14.7349 80.4412,-92.8055 -79.6098,-359.7453 -79.6098,-359.7453"
       id="path19-4"
       sodipodi:nodetypes="caaaaaaaaac" /><path
       style="fill:#9abcb8;fill-opacity:1;stroke:#517b76;stroke-width:21.5658;stroke-linecap:butt;stroke-linejoin:miter;stroke-dasharray:none;stroke-opacity:1"
       d="m 7772.853,562.47966 c 0,0 -15.6896,114.0065 25.4736,129.9054 32.2526,12.4566 50.5561,-73.3451 83.1973,-61.9434 85.1901,29.7524 -14.9118,229.2094 69.2753,261.693 106.3495,41.0339 173.5858,-198.7049 286.8805,-186.1316 60.1803,6.6788 67.1671,139.1751 126.9989,129.8763 54.5949,-8.4854 20.936,-134.3354 74.4465,-148.0887 108.2748,-27.8305 167.8405,216.3217 276.4604,189.8714 63.3207,-15.4186 33.5894,-143.9581 92.2307,-172.3922 100.3869,-48.6754 224.7983,97.3448 329.4905,58.7924 83.1182,-30.6092 168.8459,-205.1837 168.8459,-205.1837"
       id="path17-0"
       sodipodi:nodetypes="caaaaaaaaac" /><path
       style="fill:#a1c0bc;fill-opacity:1;stroke-width:25;stroke-linecap:round;stroke-linejoin:round;stroke-miterlimit:4.7;filter:url(#filter2-6)"
       d="M 222.07031,82.06668 C 183.27366,81.143371 152.55849,117.79203 112.93261,109.76684 86.88805,103.80982 97.415917,41.140728 62.995806,62.121339 45.127171,75.109278 23.556311,62.616468 33.690806,41.149584 30.247273,11.228339 57.326168,-11.96927 85.930223,-3.4276479 115.75384,-4.1351211 90.540219,45.910243 118.24192,33.839301 c 16.11542,-24.2373463 25.57706,6.352511 20.3778,22.163117 -4.77719,37.330965 45.30035,26.329983 52.58275,-0.304918 11.68634,-23.744869 35.15335,-16.904425 47.13639,1.910471 26.11872,25.40004 18.9366,-32.666949 45.52714,-22.275946 20.7075,10.57176 30.45704,54.882045 61.53685,35.666146 6.76375,-17.465415 15.94518,-45.579223 41.88095,-34.174795 23.02678,9.133458 53.82682,26.732246 72.6913,0.01737 12.7435,-19.683481 33.24221,-53.124733 60.30616,-31.6134578 14.64163,17.2218598 22.68848,41.8157698 21.68989,64.7118258 -6.95587,33.108224 -46.49479,-9.25233 -57.7956,22.452387 C 472.80953,118.92114 441.59464,124.28042 418.76019,108.33593 393.69711,95.545061 362.93094,76.25652 334.75598,91.355374 319.0082,105.77303 317.15369,158.744 284.12504,138.19067 c -19.2251,-17.6473 -23.58556,-53.921401 -54.94342,-55.897074 0,0 -3.55093,-0.268969 -3.55093,-0.268969 z"
       id="path1-7"
       transform="matrix(4.0754148,0,0,4.0754148,7336.9317,570.31086)"
       inkscape:path-effect="#path-effect1"
       inkscape:original-d="M 222.07031,82.06668 C 180.80212,82.03305 149.55285,119.12001 112.93261,109.76684 86.962399,102.24097 100.08649,66.382836 78.414625,54.80466 62.27864,46.920123 49.729063,75.566835 40.863838,72.910754 28.724213,69.273627 30.53069,36.760014 44.573634,1.9834344 c 1.115018,-2.76127905 1.14936,-3.2371047 0.250585,-3.4719791 19.762673,-0.3175899 39.537242,-0.239405 59.304251,-0.2692678 l -0.29431,2.05078125 C 104.12493,11.346198 97.316632,38.547652 111.3101,41.137216 c 8.42314,-0.400266 16.80347,-23.754403 20.90229,-23.754403 14.20662,0 1.80669,41.374521 9.45322,56.906828 3.9689,8.061976 14.26299,10.906515 23.69647,6.547976 18.37691,-8.490643 33.59053,-43.400086 52.45773,-44.608615 16.85897,-1.079897 15.30085,31.718611 32.96144,31.718611 19.93478,0 6.41566,-36.02115 23.82813,-36.666641 22.05847,0.190515 32.36126,46.387526 59.76562,47.414641 24.32351,-0.03918 12.94395,-37.421693 29.24211,-43.647738 23.72267,-9.062261 51.88014,25.756864 80.96773,14.361395 11.52344,-5.182297 26.03102,-22.591123 39.01719,-46.8198196 l 2.33008,-4.3472629 c 8.82368,3.0225652 25.47682,2.05078278 33.59914,0.4601122 0.483,-0.094589 -0.84293,0.48674749 -0.91828,0.54833749 -0.0754,0.06159 0.73812,1.6644668 1.80777,3.56194841 23.66727,41.9840154 29.50186,81.0852604 13.59055,84.0578124 -10.00202,1.868584 -29.94829,-12.557999 -42.0191,-6.924328 -15.79828,7.373359 -10.17363,30.6307 -25.78125,35.76697 -40.76731,13.41605 -80.92466,-43.957741 -128.83695,-26.438181 -23.46489,11.755991 -14.11305,55.423981 -36.75647,56.098511 -33.2987,0.99162 -28.33099,-63.266117 -78.54721,-63.30669 z"
       sodipodi:nodetypes="sssssscsssssssssssscsssssssss" /></g></svg>
