<?xml version="1.0" encoding="UTF-8" standalone="no"?>
<!-- Created with Inkscape (http://www.inkscape.org/) -->

<svg
   width="2499.2773"
   height="858.54688"
   viewBox="0 0 661.26712 227.15719"
   version="1.1"
   id="svg1"
   sodipodi:docname="Portfolio_FooterDecor.svg"
   xml:space="preserve"
   inkscape:version="1.3 (0e150ed6c4, 2023-07-21)"
   xmlns:inkscape="http://www.inkscape.org/namespaces/inkscape"
   xmlns:sodipodi="http://sodipodi.sourceforge.net/DTD/sodipodi-0.dtd"
   xmlns="http://www.w3.org/2000/svg"
   xmlns:svg="http://www.w3.org/2000/svg"><sodipodi:namedview
     id="namedview1"
     pagecolor="#505050"
     bordercolor="#000000"
     borderopacity="1"
     inkscape:showpageshadow="0"
     inkscape:pageopacity="0"
     inkscape:pagecheckerboard="0"
     inkscape:deskcolor="#747474"
     inkscape:document-units="mm"
     inkscape:zoom="0.45254834"
     inkscape:cx="1677.1689"
     inkscape:cy="622.033"
     inkscape:window-width="1920"
     inkscape:window-height="1009"
     inkscape:window-x="-8"
     inkscape:window-y="-8"
     inkscape:window-maximized="1"
     inkscape:current-layer="layer1" /><defs
     id="defs1"><filter
       inkscape:collect="always"
       style="color-interpolation-filters:sRGB"
       id="filter1"
       x="-0.18540895"
       y="-0.47912638"
       width="1.3708179"
       height="1.9582528"><feGaussianBlur
         inkscape:collect="always"
         stdDeviation="18.658043"
         id="feGaussianBlur1" /></filter><filter
       inkscape:collect="always"
       style="color-interpolation-filters:sRGB"
       id="filter2"
       x="-0.19542279"
       y="-0.53809849"
       width="1.3908456"
       height="2.076197"><feGaussianBlur
         inkscape:collect="always"
         stdDeviation="31.060098"
         id="feGaussianBlur2" /></filter><filter
       inkscape:collect="always"
       style="color-interpolation-filters:sRGB"
       id="filter3"
       x="-0.20706887"
       y="-0.60874689"
       width="1.4141377"
       height="2.2174938"><feGaussianBlur
         inkscape:collect="always"
         stdDeviation="47.015362"
         id="feGaussianBlur3" /></filter><filter
       inkscape:collect="always"
       style="color-interpolation-filters:sRGB"
       id="filter3-8"
       x="-0.050315063"
       y="-0.14723411"
       width="1.1006301"
       height="1.2944682"><feGaussianBlur
         inkscape:collect="always"
         stdDeviation="11.666528"
         id="feGaussianBlur3-0" /></filter><filter
       inkscape:collect="always"
       style="color-interpolation-filters:sRGB"
       id="filter2-6"
       x="-0.048310437"
       y="-0.16758264"
       width="1.0966209"
       height="1.3351653"><feGaussianBlur
         inkscape:collect="always"
         stdDeviation="10.274572"
         id="feGaussianBlur2-9" /></filter></defs><g
     inkscape:label="Слой 1"
     inkscape:groupmode="layer"
     id="layer1"
     transform="translate(-8046.0661,-5171.8701)"><path
       id="path3"
       style="fill:#87aba6;fill-opacity:1;stroke:#000000;stroke-width:2.16959;stroke-linecap:square;stroke-linejoin:miter;stroke-miterlimit:4.7;stroke-dasharray:none;stroke-opacity:1"
       d="m 8579.2279,5912.3285 -404.7097,0.4 c -70.2346,0.069 -126.8334,56.8679 -126.9029,127.3508 l -0.095,96.4909 658.2641,-1e-4 0.096,-97.1413 c 0.069,-70.4831 -56.4175,-127.1698 -126.6521,-127.1003 z" /><path
       id="rect265"
       style="fill:#a0bab6;fill-opacity:1;stroke:none;stroke-width:2.16959;stroke-linecap:square;stroke-linejoin:miter;stroke-miterlimit:4.7;stroke-dasharray:none;stroke-opacity:1;filter:url(#filter3)"
       d="m 8544.3323,5951.211 -334.9783,0.3307 c -58.1332,0.057 -104.98,47.0072 -105.0375,105.2687 l -0.079,79.7598 544.8453,-1e-4 0.079,-80.2974 c 0.057,-58.2617 -46.6968,-105.1191 -104.83,-105.0617 z" /><path
       id="path2"
       style="fill:#a7c1be;fill-opacity:1;stroke:#000000;stroke-width:2.16959;stroke-linecap:square;stroke-linejoin:miter;stroke-miterlimit:4.7;stroke-dasharray:none;stroke-opacity:1"
       d="m 8257.4055,5951.2186 c -65.5257,-0.6644 -125.4911,42.9079 -143.3349,109.5091 l -20.3197,75.8423 h 508.9958 c -6.1851,-58.8285 -47.38,-110.2954 -107.8947,-126.5121 l -200.7035,-53.7843 c -12.2836,-3.2918 -24.6086,-4.9319 -36.743,-5.055 z" /><path
       id="rect266"
       style="fill:#c4d3d0;fill-opacity:1;stroke:none;stroke-width:2.16959;stroke-linecap:square;stroke-linejoin:miter;stroke-miterlimit:4.7;stroke-dasharray:none;stroke-opacity:1;filter:url(#filter2)"
       d="m 8280.1429,5998.0429 c -49.1062,-0.4966 -94.0454,32.0683 -107.4179,81.8444 l -15.2279,56.6827 h 381.4511 c -4.6353,-43.967 -35.5075,-82.4321 -80.8584,-94.5521 l -150.411,-40.197 c -9.2055,-2.4602 -18.4421,-3.686 -27.5359,-3.778 z" /><path
       id="path1"
       style="fill:#c8d8d6;fill-opacity:1;stroke:#000000;stroke-width:2.16959;stroke-linecap:square;stroke-linejoin:miter;stroke-miterlimit:4.7;stroke-dasharray:none;stroke-opacity:1"
       d="m 8244.858,6003.1714 c -32.7125,-0.8413 -64.8023,15.8731 -82.4183,46.4066 l -34.5679,59.9162 c -5.0051,8.6752 -8.4113,17.8091 -10.4019,27.0759 h 343.117 c -7.5238,-17.8705 -20.6432,-33.5499 -38.7723,-44.0242 l -133.2632,-76.9943 c -13.8257,-7.988 -28.8241,-11.9976 -43.6934,-12.3802 z" /><path
       id="rect267"
       style="fill:#d3dedd;fill-opacity:1;stroke:none;stroke-width:2.16959;stroke-linecap:square;stroke-linejoin:miter;stroke-miterlimit:4.7;stroke-dasharray:none;stroke-opacity:1;filter:url(#filter1)"
       d="m 8257.9804,6043.1309 c -23.026,-0.5893 -45.6137,11.1183 -58.0134,32.5055 l -24.3319,41.9683 c -3.5231,6.0765 -5.9207,12.4743 -7.3218,18.9653 h 241.5164 c -5.296,-12.5174 -14.5306,-23.5001 -27.2914,-30.8368 l -93.8026,-53.9306 c -9.7318,-5.5952 -20.289,-8.4037 -30.7553,-8.6717 z" /><path
       style="fill:#6c9d96;fill-opacity:1;stroke:#517b75;stroke-width:5.70595;stroke-linecap:butt;stroke-linejoin:miter;stroke-dasharray:none;stroke-opacity:1"
       d="m 8666.9247,5401.4152 c 0,0 29.1779,-87.2498 5.1171,-118.7103 -14.3752,-18.7963 -52.6727,1.2629 -69.2478,-15.6248 -13.1086,-13.3563 5.419,-46.6415 -11.3313,-54.9887 -33.3312,-16.6106 -63.7134,48.8593 -100.9419,47.8837 -46.7569,-1.2255 -76.9679,-71.8688 -123.4537,-66.6962 -35.9427,3.9992 -45.6577,72.9645 -81.7834,71.2908 -21.68,-1.0042 -23.4573,-43.8812 -44.9147,-47.1379 -32.5019,-4.9325 -53.3778,45.4519 -86.1531,48.0006 -22.8451,1.7765 -46.5583,-38.0244 -64.5008,-23.7723 -42.0244,33.3818 20.0531,159.7551 20.0531,159.7551"
       id="path20"
       sodipodi:nodetypes="caaaaaaaaac" /><path
       style="fill:#8fb5b0;fill-opacity:1;stroke-width:25;stroke-linecap:round;stroke-linejoin:round;stroke-miterlimit:4.7;filter:url(#filter3-8)"
       d="m 291.97318,187.87235 c -6.46994,-1.17193 -13.48688,-4.30985 -21.39557,-9.56794 -6.13741,-4.08045 -11.56585,-8.50415 -24.66344,-20.09854 -17.15725,-15.18813 -24.42902,-20.68008 -33.57953,-25.36068 -7.48258,-3.82744 -17.21344,-6.478 -23.78229,-6.478 -7.79339,0 -16.38525,3.03448 -25.46641,8.99424 -5.16275,3.3882 -8.91071,6.35966 -19.76554,15.6705 -14.69467,12.6045 -19.83009,16.38336 -26.53427,19.52505 -4.49393,2.10592 -7.78547,2.80731 -12.09863,2.57808 -5.958687,-0.3167 -9.969605,-2.33746 -11.71323,-5.90131 -1.758668,-3.59459 -1.971778,-6.85163 -1.176926,-17.98773 0.753039,-10.55033 0.632996,-16.4502 -0.413844,-20.33977 -1.963015,-7.29366 -7.336324,-12.16621 -16.05414,-14.55799 l -3.844985,-1.0549 -17.578125,-0.0266 C 35.762945,113.23939 34.510402,113.14822 30.219174,111.54266 24.301663,109.32864 20.408035,104.41205 17.652396,95.67425 11.752309,76.965785 15.101097,42.201164 26.4482,4.3627988 c 1.357743,-4.52756943 1.52988,-5.4599979 1.062572,-5.7557373 -0.345186,-0.2184534 1.920991,-0.3551899 5.948038,-0.3588924 l 6.505685,-0.00598 -1.320269,3.3630284 c -2.299868,5.8582908 -6.034728,17.6188195 -7.79879,24.5572495 -6.196675,24.372844 -5.29032,40.39298 2.741946,48.464871 2.773866,2.787551 4.674711,3.778563 7.682752,4.005434 4.632265,0.349371 8.201095,-1.801719 17.304444,-10.430157 6.31261,-5.983289 9.064844,-8.042679 11.88125,-8.890293 2.117805,-0.637367 3.457867,-0.422687 6.047434,0.968805 5.250336,2.821242 7.976109,8.380121 12.342914,25.171879 3.408051,13.105051 5.886805,18.649704 10.364285,23.183584 3.102179,3.14126 6.362219,4.92758 11.924969,6.53421 14.47407,4.1804 29.39182,1.43741 56.10867,-10.31696 24.29171,-10.687396 30.61184,-13.155807 39.39653,-15.386857 9.50666,-2.414407 18.66297,-2.709688 26.03504,-0.83961 6.01201,1.525071 9.9001,3.881559 15.17661,9.198207 3.91417,3.94394 6.91509,7.8711 12.05524,15.77612 14.21899,21.86733 17.44714,26.21239 22.80771,30.69897 5.51943,4.61954 10.99124,6.74692 17.35374,6.74692 5.93537,0 9.75248,-1.51102 13.64151,-5.40005 4.22757,-4.22757 6.46288,-9.16941 11.07177,-24.47752 4.6636,-15.48984 6.3007,-19.07773 10.74546,-23.549932 2.36901,-2.383629 3.20042,-2.942234 5.95353,-4.000023 9.51972,-3.657629 20.82215,-3.111215 34.81455,1.683097 6.73153,2.306469 11.18523,4.244457 27.61046,12.014448 27.09473,12.81721 36.91047,15.94046 50,15.90938 11.34914,-0.0269 19.74465,-3.0734 23.8543,-8.65595 2.16726,-2.94407 3.66785,-6.13929 6.28551,-13.38404 3.7523,-10.385025 5.79531,-13.720146 9.65007,-15.753396 1.82067,-0.960324 2.36965,-1.054168 5.91325,-1.01084 4.42019,0.05405 5.74734,0.40641 17.1875,4.563394 8.39199,3.049372 12.51226,3.972977 16.40902,3.678266 4.71004,-0.356223 7.82098,-2.109141 10.56324,-5.952094 6.3043,-8.834715 6.72996,-22.351941 1.29985,-41.277847 C 541.485,32.943134 534.18465,15.945013 526.18488,1.4648438 l -1.78039,-3.2226563 h 8.28258 c 6.81781,0 8.16184,0.088271 7.59996,0.4991317 -0.63144,0.46173482 -0.46398,0.98122541 2.23531,6.9335937 15.46965,34.1130711 25.89629,68.2664111 28.36184,92.9016301 0.52152,5.210587 0.52024,16.131527 -0.004,20.379017 -1.24648,10.13082 -4.66375,18.09326 -10.00187,23.30494 -3.75563,3.66666 -6.91629,4.63884 -11.37102,3.49759 -4.30425,-1.1027 -7.85535,-3.15531 -17.67296,-10.21544 -10.59184,-7.6169 -14.25161,-9.89376 -19.14879,-11.91321 -6.10364,-2.51693 -11.60176,-2.88244 -17.98473,-1.19562 -8.59777,2.27214 -16.69316,7.32731 -27.97578,17.46947 -2.83156,2.54538 -7.6275,6.86125 -10.65758,9.59082 -8.54258,7.69541 -15.04813,12.29524 -20.5523,14.53178 -5.98418,2.43159 -12.95774,2.79077 -17.1268,0.88211 -5.40016,-2.47296 -8.12914,-5.99478 -15.63666,-20.18144 -4.98908,-9.42765 -7.50494,-13.25502 -10.93971,-16.64254 -5.71206,-5.63348 -12.10118,-7.1569 -20.82777,-4.96616 -5.05526,1.26909 -10.4548,4.65871 -15.64338,9.82033 -4.61418,4.59021 -7.64152,8.59844 -16.27937,21.554 -8.6778,13.01549 -10.64033,15.75849 -14.75394,20.62146 -5.94804,7.03155 -12.41375,11.40892 -18.87306,12.77732 -3.32169,0.70369 -9.52095,0.69512 -13.46137,-0.0186 z"
       id="path2-6"
       transform="matrix(-1.0782868,0,0,-1.0782868,8694.3453,5399.3432)" /><path
       style="fill:#8bb1ac;fill-opacity:1;stroke:#c2d6d3;stroke-width:5.70595;stroke-linecap:butt;stroke-linejoin:miter;stroke-dasharray:none;stroke-opacity:1"
       d="m 8647.8729,5401.4152 c 0,0 28.5658,-67.2631 5.6306,-82.6303 -12.3326,-8.2633 -25.7297,23.9875 -39.9423,19.6994 -21.484,-6.4816 -13.4293,-48.8626 -33.8341,-58.2019 -42.7935,-19.5864 -93.4867,38.93 -138.7597,26.0754 -31.7891,-9.0263 -40.5149,-71.1352 -73.2719,-66.7782 -23.9394,3.1842 -16.7206,51.6168 -38.93,61.1035 -44.0609,18.8215 -96.7956,-46.5351 -140.9824,-28.0111 -13.7737,5.7741 -11.1822,30.8639 -24.5817,37.4592 -15.5005,7.6292 -40.3666,-16.9533 -51.6824,-3.8986 -21.2834,24.5548 21.0634,95.1826 21.0634,95.1826"
       id="path19"
       sodipodi:nodetypes="caaaaaaaaac" /><path
       style="fill:#9abcb8;fill-opacity:1;stroke:#517b76;stroke-width:5.70595;stroke-linecap:butt;stroke-linejoin:miter;stroke-dasharray:none;stroke-opacity:1"
       d="m 8579.0078,5401.4152 c 0,0 4.1512,-30.1642 -6.7399,-34.3708 -8.5335,-3.2958 -13.3763,19.4059 -22.0126,16.3892 -22.5399,-7.872 3.9454,-60.645 -18.3291,-69.2396 -28.1383,-10.8569 -45.9279,52.574 -75.9038,49.2473 -15.9227,-1.7671 -17.7713,-36.8234 -33.6018,-34.3631 -14.4449,2.2451 -5.5393,35.5429 -19.6973,39.1818 -28.6477,7.3635 -44.4078,-57.2351 -73.1468,-50.2368 -16.7536,4.0795 -8.8872,38.0889 -24.4027,45.6121 -26.5607,12.8787 -59.4779,-25.7558 -87.1777,-15.5555 -21.9917,8.0987 -44.6738,54.2882 -44.6738,54.2882"
       id="path17"
       sodipodi:nodetypes="caaaaaaaaac" /><path
       style="fill:#a1c0bc;fill-opacity:1;stroke-width:25;stroke-linecap:round;stroke-linejoin:round;stroke-miterlimit:4.7;filter:url(#filter2-6)"
       d="m 295.89127,145.12479 c -5.99281,-1.51927 -11.79457,-6.25338 -18.00457,-14.69131 -1.59544,-2.16784 -5.79802,-8.46523 -9.33907,-13.99421 -7.6712,-11.97782 -12.03036,-17.908637 -16.44817,-22.378446 -5.93512,-6.004972 -10.9878,-9.103859 -17.89494,-10.975222 -3.47117,-0.940449 -4.33062,-1.012617 -12.13421,-1.018922 -7.23944,-0.0059 -8.94836,0.113015 -12.38336,0.861328 -10.58948,2.306906 -18.36018,5.113602 -37.16582,13.423891 -20.23101,8.940171 -28.4203,11.956221 -37.41056,13.778021 -7.78844,1.57826 -15.93928,1.44481 -22.17796,-0.36308 C 102.76441,106.82021 99.241481,102.28946 95.103613,86.837414 91.413461,73.057281 90.388196,69.874781 88.232703,65.509617 85.573004,60.12336 82.546742,56.823734 78.414625,54.80466 76.06282,53.655496 75.424067,53.517789 72.44068,53.51677 c -3.065956,-0.0012 -3.579747,0.117379 -6.250001,1.440629 -3.359263,1.664691 -5.8773,3.694468 -13.426479,10.823003 -6.509939,6.147204 -9.400705,7.879266 -11.900362,7.130352 -1.916425,-0.574176 -4.855198,-3.679648 -6.142007,-6.49041 -1.708429,-3.731699 -2.222084,-7.75907 -1.994627,-15.639094 0.226879,-7.859996 0.975232,-12.810043 3.395664,-22.460937 2.098404,-8.366883 5.596065,-19.2673684 8.450766,-26.3368786 1.115018,-2.76127905 1.14936,-3.2371047 0.250585,-3.4719791 -0.375977,-0.098253 12.813671,-0.1990326 29.310328,-0.2239548 l 29.993923,-0.045313 -0.29431,2.05078125 C 103.67229,1.4208984 103.54448,5.5078125 103.55015,9.375 c 0.0144,9.849584 1.13579,15.270826 4.02832,19.47498 1.60264,2.32936 4.66233,4.149077 6.98486,4.154167 3.71743,0.0081 6.10893,-1.91398 11.24781,-9.040237 3.42418,-4.748419 5.20677,-6.581097 6.40125,-6.581097 1.35576,0 4.43972,2.471877 5.36086,4.296875 2.35332,4.662506 2.72922,10.625398 1.70617,27.065093 -0.8455,13.586481 -0.22365,20.24352 2.38619,25.54486 3.9689,8.061976 14.26299,10.906515 23.69647,6.547976 6.22676,-2.876937 11.66121,-7.927726 22.57385,-20.980183 14.57806,-17.436621 21.75017,-23.107431 29.88388,-23.628432 3.71106,-0.237711 5.40086,0.289073 7.68701,2.396377 2.39686,2.209344 4.07041,4.78477 8.23459,12.67223 4.24161,8.03411 5.90531,10.564278 8.60427,13.085489 2.80655,2.621715 5.03773,3.564515 8.43557,3.564515 5.86689,0 9.73471,-3.613347 11.68517,-10.916363 0.34428,-1.289062 1.14401,-5.507851 1.77719,-9.375082 2.28945,-13.983317 3.83923,-16.431558 10.36577,-16.375196 3.58928,0.031 5.83296,0.773059 9.41399,3.113537 3.245,2.120859 9.78319,8.825815 14.60944,14.982089 12.4598,15.893469 15.17735,18.999179 20.00321,22.860347 5.55582,4.445204 10.48302,6.467137 15.73898,6.458668 4.65637,-0.0075 8.22665,-1.404179 11.13052,-4.354218 3.36502,-3.418516 5.2365,-8.28845 7.62789,-19.849207 2.64935,-12.80777 5.12353,-17.39668 10.4837,-19.444313 8.01293,-3.061007 16.44676,-1.700792 32.08602,5.174856 12.73534,5.598972 16.7245,7.269707 20.47306,8.574492 11.05697,3.848676 20.7474,4.057449 28.40865,0.612047 11.52344,-5.182297 26.03102,-22.591123 39.01719,-46.8198196 l 2.33008,-4.3472629 17.1902,0.011878 c 12.87234,0.00889 16.99394,0.1214827 16.40894,0.4482342 -0.42969,0.2399956 -0.84293,0.48674749 -0.91828,0.54833749 -0.0754,0.06159 0.73812,1.6644668 1.80777,3.56194841 1.06965,1.8974816 3.61387,6.7869863 5.65387,10.8655644 11.9702,23.932423 17.61754,42.751732 16.98086,56.587556 -0.42938,9.33109 -3.86402,15.636934 -9.04418,16.604692 -3.59406,0.671445 -5.87809,0.115109 -20.33941,-4.954215 -7.87868,-2.761813 -10.90508,-3.361274 -15.84621,-3.13877 -2.90067,0.130621 -4.14235,0.379375 -5.83348,1.168657 -5.8032,2.708464 -8.80805,6.975793 -12.88317,18.296117 -2.95691,8.214053 -4.80476,11.880653 -7.18191,14.250513 -1.73465,1.72934 -2.50602,2.16392 -5.71617,3.22034 -8.4257,2.7728 -16.45297,2.69418 -27.53906,-0.26971 -8.20227,-2.1929 -14.65411,-4.85398 -33.39844,-13.77533 -23.81441,-11.33443 -33.66168,-14.763938 -45.79368,-15.948567 -7.75894,-0.757621 -15.57573,0.499609 -22.10577,3.555426 -5.57049,2.606777 -9.80994,7.634285 -13.20301,15.657261 -0.76085,1.79905 -2.7718,7.87212 -4.46876,13.49571 -4.52217,14.98608 -6.21677,18.99773 -9.6275,22.79128 -2.53852,2.82345 -5.28521,4.02998 -9.4572,4.15426 -1.84354,0.0549 -3.97036,-0.0569 -4.72625,-0.24858 z"
       id="path1-7"
       transform="matrix(-1.0782868,0,0,-1.0782868,8694.3453,5399.3432)" /></g></svg>
