<?xml version="1.0" encoding="UTF-8" standalone="no"?>
<!-- Created with Inkscape (http://www.inkscape.org/) -->

<svg
   width="852.745"
   height="516.55908"
   viewBox="0 0 852.745 516.55908"
   version="1.1"
   id="svg1"
   sodipodi:docname="Portfolio_TitleDecor.svg"
   xml:space="preserve"
   inkscape:version="1.3 (0e150ed6c4, 2023-07-21)"
   xmlns:inkscape="http://www.inkscape.org/namespaces/inkscape"
   xmlns:sodipodi="http://sodipodi.sourceforge.net/DTD/sodipodi-0.dtd"
   xmlns="http://www.w3.org/2000/svg"
   xmlns:svg="http://www.w3.org/2000/svg"><sodipodi:namedview
     id="namedview1"
     pagecolor="#505050"
     bordercolor="#000000"
     borderopacity="1"
     inkscape:showpageshadow="0"
     inkscape:pageopacity="0"
     inkscape:pagecheckerboard="0"
     inkscape:deskcolor="#747474"
     inkscape:document-units="px"
     inkscape:zoom="0.32000001"
     inkscape:cx="374.99998"
     inkscape:cy="257.81249"
     inkscape:window-width="1920"
     inkscape:window-height="1009"
     inkscape:window-x="-8"
     inkscape:window-y="-8"
     inkscape:window-maximized="1"
     inkscape:current-layer="layer1" /><defs
     id="defs1"><inkscape:path-effect
       effect="spiro"
       id="path-effect4"
       is_visible="true"
       lpeversion="1" /><inkscape:path-effect
       effect="spiro"
       id="path-effect17"
       is_visible="true"
       lpeversion="1" /><inkscape:path-effect
       effect="spiro"
       id="path-effect15"
       is_visible="true"
       lpeversion="1" /><inkscape:path-effect
       effect="spiro"
       id="path-effect13"
       is_visible="true"
       lpeversion="1" /><inkscape:path-effect
       effect="spiro"
       id="path-effect11"
       is_visible="true"
       lpeversion="1" /><inkscape:path-effect
       effect="spiro"
       id="path-effect7"
       is_visible="true"
       lpeversion="1" /><inkscape:path-effect
       effect="spiro"
       id="path-effect5"
       is_visible="true"
       lpeversion="1" /><inkscape:path-effect
       effect="spiro"
       id="path-effect3"
       is_visible="true"
       lpeversion="1" /><inkscape:path-effect
       effect="spiro"
       id="path-effect1"
       is_visible="true"
       lpeversion="1" /><filter
       inkscape:collect="always"
       style="color-interpolation-filters:sRGB"
       id="filter7"
       x="-0.27722555"
       y="-0.65928158"
       width="1.5544511"
       height="2.3185632"><feGaussianBlur
         inkscape:collect="always"
         stdDeviation="90.691041"
         id="feGaussianBlur7" /></filter><filter
       inkscape:collect="always"
       style="color-interpolation-filters:sRGB"
       id="filter8"
       x="-0.34578631"
       y="-0.73335237"
       width="1.6915726"
       height="2.4667047"><feGaussianBlur
         inkscape:collect="always"
         stdDeviation="107.86623"
         id="feGaussianBlur8" /></filter><filter
       inkscape:collect="always"
       style="color-interpolation-filters:sRGB"
       id="filter4"
       x="-0.15626808"
       y="-0.27324445"
       width="1.3125362"
       height="1.5464889"><feGaussianBlur
         inkscape:collect="always"
         stdDeviation="45.654723"
         id="feGaussianBlur4" /></filter><filter
       inkscape:collect="always"
       style="color-interpolation-filters:sRGB"
       id="filter6"
       x="-0.17090552"
       y="-0.3049168"
       width="1.341811"
       height="1.6098336"><feGaussianBlur
         inkscape:collect="always"
         stdDeviation="44.38813"
         id="feGaussianBlur6" /></filter><filter
       inkscape:collect="always"
       style="color-interpolation-filters:sRGB"
       id="filter5"
       x="-0.52561955"
       y="-1.1147473"
       width="2.0512391"
       height="3.2294945"><feGaussianBlur
         inkscape:collect="always"
         stdDeviation="163.96427"
         id="feGaussianBlur5" /></filter></defs><g
     inkscape:label="Слой 1"
     inkscape:groupmode="layer"
     id="layer1"
     transform="translate(-8879.3916,-446.59903)"><path
       style="mix-blend-mode:normal;fill:#71a19a;fill-opacity:1;stroke:none;stroke-width:0.819989;stroke-linecap:butt;stroke-linejoin:miter;stroke-dasharray:none;stroke-opacity:1;filter:url(#filter6)"
       d="m 9471.8401,656.55818 c -33.398,-10.63501 -66.8367,31.891 -101.8101,27.28619 -33.7545,-4.44172 -52.6101,-46.35903 -86.3813,-50.64261 -24.2794,-3.07964 -45.929,20.80111 -70.4013,19.60209 -67.0503,-3.28514 -127.13,-102.66545 -185.6805,-72.25479 -39.7239,20.6323 -2.2511,86.3691 -20.3804,125.0381 -13.0452,27.82489 -60.9831,28.39038 -60.9831,71.38154 0,89.597 58.3504,49.0114 89.33,71.4904 37.0515,26.885 68.1893,73.3989 115.2136,75.6206 61.1942,2.8912 98.7111,-84.0478 159.9841,-83.7647 47.7773,0.2208 76.9486,73.9564 124.0354,66.4643 30.884,-4.914 36.7342,-47.8228 60.9429,-66.2348 21.3507,-16.2384 64.2745,-13.0251 72.3426,-37.4838 9.1186,-27.6431 -26.0198,-52.69891 -42.2588,-77.38898 -15.9668,-24.27646 -24.9024,-59.8622 -53.9531,-69.11354 z"
       id="path4"
       sodipodi:nodetypes="aaaaaasaaaaaaaa"
       transform="matrix(1.0502618,0,0,0.89218031,-434.99008,67.767224)" /><path
       style="fill:#7fa9a3;fill-opacity:1;stroke:none;stroke-width:0.793747;stroke-linecap:butt;stroke-linejoin:miter;stroke-dasharray:none;stroke-opacity:1"
       d="m 9598.481,567.52148 c -45.6895,-15.72393 -91.4349,47.15105 -139.2798,40.34281 -46.1773,-6.56712 -71.9724,-68.54214 -118.1725,-74.87543 -33.2152,-4.55327 -62.8325,30.75457 -96.3115,28.98181 -91.7272,-4.8571 -177.5534,-157.7285 -254.0174,-106.82917 -51.8726,34.52976 28.1423,131.16452 0.3595,186.94257 -19.3096,38.76683 -90.1479,36.99122 -103.8552,78.07451 -10.7073,32.09195 5.1208,72.79481 28.2534,97.48132 23.4323,25.00637 82.267,22.42558 96.678,34.96988 45.3379,39.46513 63.9283,102.66085 117.0008,110.54833 91.6908,13.62682 156.2902,-126.86818 248.9421,-123.95096 65.3294,2.05695 105.2683,109.34494 169.6846,98.26786 42.2504,-7.26541 50.2537,-70.70629 83.372,-97.92863 29.2085,-24.00854 87.9297,-19.25765 98.9672,-55.42001 12.4745,-40.87052 -35.5959,-77.91564 -57.8114,-114.42008 -21.8431,-35.89291 -34.0675,-88.50665 -73.8098,-102.18481 z"
       id="path6"
       sodipodi:nodetypes="aaaaaaaasaaaaaaa" /><path
       style="mix-blend-mode:normal;fill:#b2ccc9;fill-opacity:0.952941;stroke:none;stroke-width:0.852515;stroke-linecap:butt;stroke-linejoin:miter;stroke-dasharray:none;stroke-opacity:1;filter:url(#filter4)"
       d="m 9577.4181,623.6572 c -34.8267,-12.43722 -69.8589,35.41086 -106.3573,30.80672 -52.3168,-6.59958 -86.0207,-74.51823 -138.3677,-80.84438 -25.3228,-3.06026 -47.9804,23.48491 -73.5458,22.13119 -70.045,-3.70899 -132.8081,-115.91159 -193.9737,-81.57727 -41.4981,23.29432 -2.3516,97.51265 -21.2906,141.17082 -13.6279,31.41492 -63.7069,32.05338 -63.7069,80.59135 0,101.15701 79.2608,28.57143 112.9314,53.86058 39.764,29.8657 52.0447,114.80184 100.7479,112.23108 71.0745,-3.75161 60.2051,-169.73539 130.8895,-178.45282 91.0055,-11.22363 126.3036,210.85579 213.9437,182.58798 36.2972,-11.70747 3.3339,-90.94255 33.6707,-115.06128 28.1373,-22.37012 87.7513,30.07591 105.5679,-2.03936 15.8005,-28.48112 -27.2568,-59.6012 -44.1462,-87.37388 -16.7419,-27.53008 -27.0477,-67.56177 -56.3629,-78.03073 z"
       id="path5"
       sodipodi:nodetypes="aaaaaasaaaaaaaa"
       transform="matrix(0.95772397,0,0,0.90515362,401.90868,40.078606)" /><path
       style="fill:#b0cac5;fill-opacity:1;stroke:none;stroke-width:0.85366px;stroke-linecap:butt;stroke-linejoin:miter;stroke-opacity:1;filter:url(#filter7)"
       d="m 7635.4064,556.28063 c 23.259,8.83735 42.6849,25.22652 63.074,39.48708 10.1946,7.13028 20.7787,13.8097 32.2007,18.73988 11.422,4.93019 23.7505,8.08092 36.1901,7.91887 23.0045,-0.29968 44.1736,-11.6497 65.0224,-21.37749 10.4243,-4.86389 21.076,-9.4066 32.2715,-12.04943 11.1956,-2.64283 23.0271,-3.32552 34.171,-0.47282 10.9273,2.79725 20.7854,8.87898 29.4129,16.14514 8.6275,7.26616 16.149,15.73251 23.7645,24.05327 7.6155,8.32077 15.4095,16.57427 24.4594,23.30699 9.05,6.73272 19.4924,11.92762 30.677,13.38913 9.1316,1.19324 18.4869,-0.14395 27.2173,-3.07473 8.7304,-2.93077 16.8726,-7.41981 24.5143,-12.55925 15.2833,-10.27888 28.689,-23.18497 44.1798,-33.14857 20.5768,-13.23496 44.9328,-21.0186 69.3879,-20.29935 24.4551,0.71926 48.8705,10.28594 66.0621,27.69337 8.5958,8.70372 15.3378,19.26491 19.3893,30.80735 4.0515,11.54244 5.3877,24.05721 3.6283,36.16288 -1.7594,12.10566 -6.6348,23.77504 -14.198,33.38965 -7.5632,9.6146 -17.8157,17.13101 -29.3412,21.23047 -15.4043,5.47908 -32.2124,4.7678 -48.5565,4.34119 -16.3441,-0.4266 -33.3068,-0.37814 -48.1818,6.40751 -16.5663,7.55715 -28.388,22.4449 -39.8728,36.57462 -5.7425,7.06486 -11.5844,14.09371 -18.3005,20.24032 -6.7162,6.1466 -14.3706,11.41921 -22.9462,14.47657 -9.1633,3.2669 -19.1732,3.90243 -28.7843,2.39713 -9.6111,-1.5053 -18.8319,-5.10674 -27.2349,-10.00859 -16.806,-9.80372 -30.1398,-24.54371 -42.2613,-39.76289 -12.1215,-15.21919 -23.3951,-31.23826 -37.3912,-44.75361 -13.996,-13.51535 -31.246,-24.58137 -50.5196,-27.2427 -17.552,-2.42361 -35.615,2.37087 -50.9898,11.17779 -15.3748,8.80693 -28.2658,21.43216 -39.4465,35.17766 -22.3613,27.49101 -38.6638,60.02658 -64.4854,84.29656 -30.5424,28.70712 -73.6053,43.59493 -115.3563,39.88125 -41.751,-3.71368 -81.5101,-25.9684 -106.5062,-59.61557 l 69.4531,-63.66536 c -24.4616,-12.7192 -43.7672,-35.0372 -52.8317,-61.07529 -9.0644,-26.03809 -7.7915,-55.51995 3.4835,-80.67987 11.275,-25.15991 32.4324,-45.73087 57.8992,-56.29436 25.4668,-10.56349 54.9728,-11.0074 80.7459,-1.2148 z"
       id="path1"
       transform="matrix(0.18394143,-0.04953173,0.13829629,0.48500665,7534.3703,626.31018)"
       inkscape:original-d="m 7635.4064,556.28063 c 71.4896,-6.86998 59.0297,61.80756 131.4648,66.14583 51.9263,3.10996 80.3779,-38.50269 131.4649,-33.89974 74.9758,6.75533 31.2123,75.0139 108.3138,76.89453 53.0834,1.29479 43.3451,-51.70267 95.9114,-48.78255 119.1012,6.61622 171.452,88.41377 114.9284,128.98437 -15.6858,11.25874 -71.5129,2.2936 -96.7383,10.7487 -51.3226,17.20242 -13.1224,69.36538 -81.1195,71.29151 -122.8445,3.47976 -63.2937,-122.49489 -186.1913,-119.37066 -125.4821,3.18993 -41.8321,109.33693 -154.9217,130.65201 -68.6111,12.93179 -173.0105,2.0971 -221.8625,-19.73432 -118.6499,-67.25935 -5.4236,-55.86666 69.4531,-63.66536 155.6431,-33.43798 -83.7416,-182.63572 89.2969,-199.26432 z"
       inkscape:path-effect="#path-effect1"
       sodipodi:nodetypes="aaaaaaaaaaaaa" /><path
       style="mix-blend-mode:normal;fill:#74a39d;fill-opacity:1;stroke:none;stroke-width:0.538383px;stroke-linecap:butt;stroke-linejoin:miter;stroke-opacity:1;filter:url(#filter8)"
       d="m 7766.8712,622.42646 c 11.6904,-0.0983 23.1068,-3.71677 33.7342,-8.58839 10.6274,-4.87163 20.6224,-11.00077 30.9368,-16.50418 10.3143,-5.5034 21.0924,-10.42954 32.5742,-12.63013 11.4818,-2.2006 23.8099,-1.49772 34.2197,3.82296 10.3367,5.28329 17.9741,14.59767 24.6877,24.06802 6.7136,9.47035 12.9327,19.48853 21.6143,27.195 7.516,6.67173 16.6761,11.37649 26.3262,14.18314 9.6501,2.80666 19.7866,3.75156 29.8299,3.38729 20.0867,-0.72855 39.5935,-6.59459 58.7723,-12.60949 25.5578,-8.01548 51.8731,-16.48276 78.5482,-14.05599 20.2402,1.84136 40.4019,10.57008 53.15,26.39863 6.3741,7.91427 10.7715,17.47978 12.19,27.54219 1.4186,10.06241 -0.2065,20.59833 -4.9819,29.56829 -3.559,6.6852 -8.7801,12.40708 -14.7723,17.03861 -5.9923,4.63153 -12.7493,8.20402 -19.7447,11.10629 -13.9908,5.80454 -28.9261,8.96704 -43.2044,14.02307 -22.206,7.86324 -42.5236,20.18979 -63.9633,29.95071 -21.4396,9.76092 -44.9872,17.05364 -68.3283,13.87091 -18.2077,-2.48275 -35.0315,-11.19775 -50.1219,-21.68408 -15.0904,-10.48634 -28.8027,-22.82328 -43.5656,-33.76592 -14.7629,-10.94264 -30.9104,-20.62034 -48.8142,-24.76001 -8.9519,-2.06984 -18.2771,-2.71293 -27.3707,-1.39852 -9.0936,1.3144 -17.9502,4.62213 -25.4034,9.99523 -7.1506,5.15491 -12.8994,12.12029 -17.1665,19.83363 -4.2671,7.71335 -7.0891,16.16814 -8.9405,24.78652 -3.7028,17.23675 -3.5685,35.02658 -4.7256,52.61855 -1.1571,17.59197 -3.774,35.57008 -12.3561,50.97022 -4.291,7.70007 -10.0665,14.64489 -17.2394,19.76871 -7.1729,5.12382 -15.7783,8.3689 -24.5891,8.64218 -7.6396,0.23696 -15.2423,-1.74187 -22.1727,-4.96497 -6.9305,-3.2231 -13.2328,-7.66302 -19.1529,-12.49741 -11.8402,-9.66879 -22.4043,-21.06987 -35.5689,-28.83971 -11.6376,-6.86859 -24.8872,-10.62136 -38.2341,-12.73547 -13.347,-2.11411 -26.8846,-2.65377 -40.3706,-3.51264 -13.4861,-0.85888 -27.0273,-2.05276 -40.1115,-5.43157 -13.0841,-3.37881 -25.7799,-9.05231 -35.8997,-18.00782 -10.4601,-9.2567 -17.8885,-21.97638 -20.4139,-35.71405 -2.5254,-13.73766 -0.052,-28.40641 7.1847,-40.35365 8.4535,-13.95673 22.5375,-23.42301 36.4712,-31.91442 13.9337,-8.49141 28.4965,-16.7395 38.8927,-29.31604 7.7359,-9.35822 12.763,-20.67957 16.4441,-32.24976 3.6811,-11.57019 6.101,-23.4978 9.2086,-35.23502 3.1076,-11.73722 6.9581,-23.40719 13.2336,-33.80129 6.2756,-10.3941 15.173,-19.50884 26.3097,-24.34545 14.0099,-6.08443 30.3856,-4.85831 44.7035,0.4609 14.318,5.31922 26.9031,14.41181 38.8016,23.98906 11.8985,9.57726 23.3693,19.78972 36.3398,27.85593 12.9706,8.06621 27.7656,13.96836 43.0392,13.83994 z"
       id="path2"
       transform="matrix(0.63852804,-0.03374944,-0.01747112,-0.37731097,4239.7979,1341.884)"
       inkscape:original-d="m 7766.8712,622.42646 c 44.233,3.13912 88.2425,-49.74456 131.4649,-33.89974 18.0534,6.61817 28.6746,41.96874 46.302,51.26302 36.5267,19.2592 76.6207,7.55237 114.9284,4.96094 26.2965,-1.7789 53.3746,-26.73268 78.5482,-14.05599 24.9407,12.5594 65.3438,40.14049 60.3581,83.50911 -5.1935,45.17588 -51.3821,30.70123 -77.7214,42.16797 -43.5326,18.95176 -87.4185,44.56497 -132.2916,43.82162 -66.6843,-1.10466 -132.234,-109.15529 -195.2758,-71.6133 -42.2705,25.17249 -41.9001,156.06376 -85.0172,176.61981 -26.2849,12.53131 -50.4956,-35.07828 -76.8945,-46.30209 -50.5286,-21.48281 -115.4193,18.18458 -154.6159,-39.6875 -11.7499,-17.34826 -19.6276,-51.8349 -13.2292,-76.0677 11.3695,-43.05983 53.1477,-32.71124 75.3639,-61.23046 26.2346,-33.67759 33.8674,-108.7189 65.196,-125.63152 53.3755,-28.81459 107.0307,62.18203 162.8841,66.14583 z"
       inkscape:path-effect="#path-effect4"
       sodipodi:nodetypes="aaaaaaaaaaaaaaaa" /><path
       style="mix-blend-mode:normal;fill:#74a39d;fill-opacity:1;stroke:none;stroke-width:0.980356px;stroke-linecap:butt;stroke-linejoin:miter;stroke-opacity:1;filter:url(#filter5)"
       d="m 7766.8712,622.42646 c 11.6904,-0.0983 23.1068,-3.71677 33.7342,-8.58839 10.6274,-4.87163 20.6224,-11.00077 30.9368,-16.50418 10.3143,-5.5034 21.0924,-10.42954 32.5742,-12.63013 11.4818,-2.2006 23.8099,-1.49772 34.2197,3.82296 10.3367,5.28329 17.9741,14.59767 24.6877,24.06802 6.7136,9.47035 12.9327,19.48853 21.6143,27.195 7.516,6.67173 16.6761,11.37649 26.3262,14.18314 9.6501,2.80666 19.7866,3.75156 29.8299,3.38729 20.0867,-0.72855 39.5935,-6.59459 58.7723,-12.60949 25.5578,-8.01548 51.8731,-16.48276 78.5482,-14.05599 20.2402,1.84136 40.4019,10.57008 53.15,26.39863 6.3741,7.91427 10.7715,17.47978 12.19,27.54219 1.4186,10.06241 -0.2065,20.59833 -4.9819,29.56829 -3.559,6.6852 -8.7801,12.40708 -14.7723,17.03861 -5.9923,4.63153 -12.7493,8.20402 -19.7447,11.10629 -13.9908,5.80454 -28.9261,8.96704 -43.2044,14.02307 -22.206,7.86324 -42.5236,20.18979 -63.9633,29.95071 -21.4396,9.76092 -44.9872,17.05364 -68.3283,13.87091 -18.2077,-2.48275 -35.0315,-11.19775 -50.1219,-21.68408 -15.0904,-10.48634 -28.8027,-22.82328 -43.5656,-33.76592 -14.7629,-10.94264 -30.9104,-20.62034 -48.8142,-24.76001 -8.9519,-2.06984 -18.2771,-2.71293 -27.3707,-1.39852 -9.0936,1.3144 -17.9502,4.62213 -25.4034,9.99523 -7.1506,5.15491 -12.8994,12.12029 -17.1665,19.83363 -4.2671,7.71335 -7.0891,16.16814 -8.9405,24.78652 -3.7028,17.23675 -3.5685,35.02658 -4.7256,52.61855 -1.1571,17.59197 -3.774,35.57008 -12.3561,50.97022 -4.291,7.70007 -10.0665,14.64489 -17.2394,19.76871 -7.1729,5.12382 -15.7783,8.3689 -24.5891,8.64218 -7.6396,0.23696 -15.2423,-1.74187 -22.1727,-4.96497 -6.9305,-3.2231 -13.2328,-7.66302 -19.1529,-12.49741 -11.8402,-9.66879 -22.4043,-21.06987 -35.5689,-28.83971 -11.6376,-6.86859 -24.8872,-10.62136 -38.2341,-12.73547 -13.347,-2.11411 -26.8846,-2.65377 -40.3706,-3.51264 -13.4861,-0.85888 -27.0273,-2.05276 -40.1115,-5.43157 -13.0841,-3.37881 -25.7799,-9.05231 -35.8997,-18.00782 -10.4601,-9.2567 -17.8885,-21.97638 -20.4139,-35.71405 -2.5254,-13.73766 -0.052,-28.40641 7.1847,-40.35365 8.4535,-13.95673 22.5375,-23.42301 36.4712,-31.91442 13.9337,-8.49141 28.4965,-16.7395 38.8927,-29.31604 7.7359,-9.35822 12.763,-20.67957 16.4441,-32.24976 3.6811,-11.57019 6.101,-23.4978 9.2086,-35.23502 3.1076,-11.73722 6.9581,-23.40719 13.2336,-33.80129 6.2756,-10.3941 15.173,-19.50884 26.3097,-24.34545 14.0099,-6.08443 30.3856,-4.85831 44.7035,0.4609 14.318,5.31922 26.9031,14.41181 38.8016,23.98906 11.8985,9.57726 23.3693,19.78972 36.3398,27.85593 12.9706,8.06621 27.7656,13.96836 43.0392,13.83994 z"
       id="path3"
       transform="matrix(-0.35006516,-0.02758791,-0.01764756,0.20667819,11888.094,675.24368)"
       inkscape:original-d="m 7766.8712,622.42646 c 44.233,3.13912 88.2425,-49.74456 131.4649,-33.89974 18.0534,6.61817 28.6746,41.96874 46.302,51.26302 36.5267,19.2592 76.6207,7.55237 114.9284,4.96094 26.2965,-1.7789 53.3746,-26.73268 78.5482,-14.05599 24.9407,12.5594 65.3438,40.14049 60.3581,83.50911 -5.1935,45.17588 -51.3821,30.70123 -77.7214,42.16797 -43.5326,18.95176 -87.4185,44.56497 -132.2916,43.82162 -66.6843,-1.10466 -132.234,-109.15529 -195.2758,-71.6133 -42.2705,25.17249 -41.9001,156.06376 -85.0172,176.61981 -26.2849,12.53131 -50.4956,-35.07828 -76.8945,-46.30209 -50.5286,-21.48281 -115.4193,18.18458 -154.6159,-39.6875 -11.7499,-17.34826 -19.6276,-51.8349 -13.2292,-76.0677 11.3695,-43.05983 53.1477,-32.71124 75.3639,-61.23046 26.2346,-33.67759 33.8674,-108.7189 65.196,-125.63152 53.3755,-28.81459 107.0307,62.18203 162.8841,66.14583 z"
       inkscape:path-effect="#path-effect5"
       sodipodi:nodetypes="aaaaaaaaaaaaaaaa" /></g></svg>
