<?xml version="1.0" encoding="UTF-8" standalone="no"?>
<!-- Created with Inkscape (http://www.inkscape.org/) -->

<svg
   width="587.23401"
   height="223.382"
   viewBox="0 0 587.23402 223.38201"
   version="1.1"
   id="svg1"
   sodipodi:docname="Portfolio_OutlineTitleDecor.svg"
   xml:space="preserve"
   inkscape:version="1.3 (0e150ed6c4, 2023-07-21)"
   xmlns:inkscape="http://www.inkscape.org/namespaces/inkscape"
   xmlns:sodipodi="http://sodipodi.sourceforge.net/DTD/sodipodi-0.dtd"
   xmlns="http://www.w3.org/2000/svg"
   xmlns:svg="http://www.w3.org/2000/svg"><sodipodi:namedview
     id="namedview1"
     pagecolor="#505050"
     bordercolor="#000000"
     borderopacity="1"
     inkscape:showpageshadow="0"
     inkscape:pageopacity="0"
     inkscape:pagecheckerboard="0"
     inkscape:deskcolor="#747474"
     inkscape:document-units="mm"
     inkscape:zoom="1.28"
     inkscape:cx="344.53125"
     inkscape:cy="188.67188"
     inkscape:window-width="1920"
     inkscape:window-height="1009"
     inkscape:window-x="-8"
     inkscape:window-y="-8"
     inkscape:window-maximized="1"
     inkscape:current-layer="layer1" /><defs
     id="defs1"><filter
       inkscape:collect="always"
       style="color-interpolation-filters:sRGB"
       id="filter2"
       x="-0.048310437"
       y="-0.16758264"
       width="1.0966209"
       height="1.3351653"><feGaussianBlur
         inkscape:collect="always"
         stdDeviation="10.274572"
         id="feGaussianBlur2" /></filter><filter
       inkscape:collect="always"
       style="color-interpolation-filters:sRGB"
       id="filter3"
       x="-0.050315063"
       y="-0.14723411"
       width="1.1006301"
       height="1.2944682"><feGaussianBlur
         inkscape:collect="always"
         stdDeviation="11.666528"
         id="feGaussianBlur3" /></filter></defs><g
     inkscape:label="Слой 1"
     inkscape:groupmode="layer"
     id="layer1"
     transform="translate(-8101.6521,-94.19372)"><path
       id="rect322"
       style="color:#000000;fill:#222b25;stroke-linecap:square;stroke-miterlimit:4.7;-inkscape-stroke:none"
       d="m 8078.8617,-418.96508 c -0.026,1.41551 -0.1092,2.81642 -0.1106,4.23799 -0.1297,131.34494 105.4608,237.06583 236.6522,236.93644 l 153.621,-0.15141 c 131.1915,-0.1294 236.9913,-106.05866 237.121,-237.4036 0,-1.21413 -0.071,-2.40973 -0.087,-3.61942 l -5.2911,2.2e-4 c 0.017,1.21131 0.089,2.40869 0.087,3.62459 -0.1269,128.50832 -103.4767,231.98069 -231.8246,232.10728 l -153.6207,0.15141 c -128.3479,0.12659 -231.4936,-103.14213 -231.3667,-231.65046 0,-1.41987 0.084,-2.81917 0.1101,-4.23282 z" /><path
       id="rect323"
       style="color:#000000;fill:#222b25;stroke-linecap:square;stroke-miterlimit:4.7;-inkscape-stroke:none"
       d="m 8184.6386,-418.96506 c 6.1219,73.8033 57.4376,138.90211 133.1707,159.14994 l 114.1244,30.51182 c 96.5992,25.82655 195.384,-31.34137 221.3678,-128.10013 5.5516,-20.67335 7.2904,-41.43408 5.6958,-61.56169 l -5.286,1e-5 c 1.596,19.66723 -0.092,39.96986 -5.5232,60.19479 -25.2487,94.02144 -121.0325,149.44883 -214.8825,124.3573 l -114.1243,-30.51232 c -73.4347,-19.63335 -123.1832,-82.55261 -129.2593,-154.0398 z" /><path
       id="rect324"
       style="color:#000000;fill:#222b25;stroke-linecap:square;stroke-miterlimit:4.7;-inkscape-stroke:none"
       d="m 8316.8869,-418.9651 c 5.4175,35.35572 26.2483,67.963 59.7369,87.26654 l 69.5354,40.08125 c 58.6701,33.81868 133.3644,13.71058 167.3385,-45.03956 15.0153,-25.96535 19.4901,-55.03133 14.7619,-82.30823 l -5.3469,6e-5 c 4.7724,26.34373 0.5526,54.49926 -14.0002,79.66489 -32.5557,56.29726 -103.901,75.49937 -160.1049,43.10226 l -69.5349,-40.08131 c -31.8323,-18.3488 -51.7213,-49.17554 -57.0822,-82.6859 z" /><path
       style="fill:#6c9d96;fill-opacity:1;stroke:#4c736e;stroke-width:5.29167;stroke-linecap:butt;stroke-linejoin:miter;stroke-dasharray:none;stroke-opacity:1"
       d="m 8145.0599,90.568669 c 0,0 -25.2414,75.395931 -4.4265,102.582391 12.4357,16.24234 45.5667,-1.09156 59.9055,13.50188 11.3404,11.5418 -4.6877,40.30469 9.8026,47.5179 28.8348,14.35391 55.1182,-42.22116 87.3242,-41.37813 40.4488,1.05882 66.5842,62.10479 106.7988,57.63501 31.0939,-3.45605 39.498,-63.0517 70.7503,-61.6055 18.7552,0.86791 20.2924,37.91968 38.8552,40.73374 28.1172,4.26246 46.1766,-39.2768 74.5303,-41.47913 19.763,-1.53508 40.2773,32.85852 55.799,20.54262 36.3553,-28.8465 -17.3476,-138.050781 -17.3476,-138.050781"
       id="path20"
       sodipodi:nodetypes="caaaaaaaaac" /><path
       style="fill:#8fb5b0;fill-opacity:1;stroke-width:26.8153;stroke-linecap:round;stroke-linejoin:round;stroke-miterlimit:4.7;filter:url(#filter3)"
       d="m 291.97318,187.87235 c -6.46994,-1.17193 -13.48688,-4.30985 -21.39557,-9.56794 -6.13741,-4.08045 -11.56585,-8.50415 -24.66344,-20.09854 -17.15725,-15.18813 -24.42902,-20.68008 -33.57953,-25.36068 -7.48258,-3.82744 -17.21344,-6.478 -23.78229,-6.478 -7.79339,0 -16.38525,3.03448 -25.46641,8.99424 -5.16275,3.3882 -8.91071,6.35966 -19.76554,15.6705 -14.69467,12.6045 -19.83009,16.38336 -26.53427,19.52505 -4.49393,2.10592 -7.78547,2.80731 -12.09863,2.57808 -5.958687,-0.3167 -9.969605,-2.33746 -11.71323,-5.90131 -1.758668,-3.59459 -1.971778,-6.85163 -1.176926,-17.98773 0.753039,-10.55033 0.632996,-16.4502 -0.413844,-20.33977 -1.963015,-7.29366 -7.336324,-12.16621 -16.05414,-14.55799 l -3.844985,-1.0549 -17.578125,-0.0266 C 35.762945,113.23939 34.510402,113.14822 30.219174,111.54266 24.301663,109.32864 20.408035,104.41205 17.652396,95.67425 11.752309,76.965785 15.101097,42.201164 26.4482,4.3627988 c 1.357743,-4.52756943 1.52988,-5.4599979 1.062572,-5.7557373 -0.345186,-0.2184534 1.920991,-0.3551899 5.948038,-0.3588924 l 6.505685,-0.00598 -1.320269,3.3630284 c -2.299868,5.8582908 -6.034728,17.6188195 -7.79879,24.5572495 -6.196675,24.372844 -5.29032,40.39298 2.741946,48.464871 2.773866,2.787551 4.674711,3.778563 7.682752,4.005434 4.632265,0.349371 8.201095,-1.801719 17.304444,-10.430157 6.31261,-5.983289 9.064844,-8.042679 11.88125,-8.890293 2.117805,-0.637367 3.457867,-0.422687 6.047434,0.968805 5.250336,2.821242 7.976109,8.380121 12.342914,25.171879 3.408051,13.105051 5.886805,18.649704 10.364285,23.183584 3.102179,3.14126 6.362219,4.92758 11.924969,6.53421 14.47407,4.1804 29.39182,1.43741 56.10867,-10.31696 24.29171,-10.687396 30.61184,-13.155807 39.39653,-15.386857 9.50666,-2.414407 18.66297,-2.709688 26.03504,-0.83961 6.01201,1.525071 9.9001,3.881559 15.17661,9.198207 3.91417,3.94394 6.91509,7.8711 12.05524,15.77612 14.21899,21.86733 17.44714,26.21239 22.80771,30.69897 5.51943,4.61954 10.99124,6.74692 17.35374,6.74692 5.93537,0 9.75248,-1.51102 13.64151,-5.40005 4.22757,-4.22757 6.46288,-9.16941 11.07177,-24.47752 4.6636,-15.48984 6.3007,-19.07773 10.74546,-23.549932 2.36901,-2.383629 3.20042,-2.942234 5.95353,-4.000023 9.51972,-3.657629 20.82215,-3.111215 34.81455,1.683097 6.73153,2.306469 11.18523,4.244457 27.61046,12.014448 27.09473,12.81721 36.91047,15.94046 50,15.90938 11.34914,-0.0269 19.74465,-3.0734 23.8543,-8.65595 2.16726,-2.94407 3.66785,-6.13929 6.28551,-13.38404 3.7523,-10.385025 5.79531,-13.720146 9.65007,-15.753396 1.82067,-0.960324 2.36965,-1.054168 5.91325,-1.01084 4.42019,0.05405 5.74734,0.40641 17.1875,4.563394 8.39199,3.049372 12.51226,3.972977 16.40902,3.678266 4.71004,-0.356223 7.82098,-2.109141 10.56324,-5.952094 6.3043,-8.834715 6.72996,-22.351941 1.29985,-41.277847 C 541.485,32.943134 534.18465,15.945013 526.18488,1.4648438 l -1.78039,-3.2226563 h 8.28258 c 6.81781,0 8.16184,0.088271 7.59996,0.4991317 -0.63144,0.46173482 -0.46398,0.98122541 2.23531,6.9335937 15.46965,34.1130711 25.89629,68.2664111 28.36184,92.9016301 0.52152,5.210587 0.52024,16.131527 -0.004,20.379017 -1.24648,10.13082 -4.66375,18.09326 -10.00187,23.30494 -3.75563,3.66666 -6.91629,4.63884 -11.37102,3.49759 -4.30425,-1.1027 -7.85535,-3.15531 -17.67296,-10.21544 -10.59184,-7.6169 -14.25161,-9.89376 -19.14879,-11.91321 -6.10364,-2.51693 -11.60176,-2.88244 -17.98473,-1.19562 -8.59777,2.27214 -16.69316,7.32731 -27.97578,17.46947 -2.83156,2.54538 -7.6275,6.86125 -10.65758,9.59082 -8.54258,7.69541 -15.04813,12.29524 -20.5523,14.53178 -5.98418,2.43159 -12.95774,2.79077 -17.1268,0.88211 -5.40016,-2.47296 -8.12914,-5.99478 -15.63666,-20.18144 -4.98908,-9.42765 -7.50494,-13.25502 -10.93971,-16.64254 -5.71206,-5.63348 -12.10118,-7.1569 -20.82777,-4.96616 -5.05526,1.26909 -10.4548,4.65871 -15.64338,9.82033 -4.61418,4.59021 -7.64152,8.59844 -16.27937,21.554 -8.6778,13.01549 -10.64033,15.75849 -14.75394,20.62146 -5.94804,7.03155 -12.41375,11.40892 -18.87306,12.77732 -3.32169,0.70369 -9.52095,0.69512 -13.46137,-0.0186 z"
       id="path2"
       transform="matrix(0.93281729,0,0,0.93179103,8121.3387,92.359021)" /><path
       style="fill:#8bb1ac;fill-opacity:1;stroke:#c2d6d3;stroke-width:5.29167;stroke-linecap:butt;stroke-linejoin:miter;stroke-dasharray:none;stroke-opacity:1"
       d="m 8161.5415,90.568669 c 0,0 -24.712,58.124811 -4.8711,71.404041 10.6691,7.14068 22.2586,-20.7284 34.5538,-17.02303 18.5857,5.60114 11.6177,42.22421 29.2698,50.29462 37.0203,16.92542 80.8746,-33.64103 120.04,-22.53262 27.5004,7.79982 35.049,61.4707 63.3867,57.70561 20.71,-2.75162 14.4651,-44.60413 33.678,-52.80214 38.1171,-16.26427 83.7371,40.21303 121.963,24.20566 11.9153,-4.98966 9.6734,-26.67088 21.2654,-32.37011 13.4094,-6.59276 34.9208,14.65021 44.7099,3.369 18.4122,-21.21881 -18.2216,-82.251031 -18.2216,-82.251031"
       id="path19"
       sodipodi:nodetypes="caaaaaaaaac" /><path
       style="fill:#9abcb8;fill-opacity:1;stroke:#3c5b57;stroke-width:5.29167;stroke-linecap:butt;stroke-linejoin:miter;stroke-dasharray:none;stroke-opacity:1"
       d="m 8221.1163,90.568669 c 0,0 -3.5912,26.066011 5.8304,29.701011 7.3824,2.84822 11.5719,-16.76918 19.0432,-14.16263 19.499,6.80264 -3.4132,52.40612 15.8562,59.83282 24.3422,9.38183 39.7319,-45.43131 65.6639,-42.55643 13.7746,1.52709 15.3738,31.82067 29.0686,29.69453 12.496,-1.94002 4.7921,-30.7141 17.0399,-33.85873 24.7829,-6.36296 38.4167,49.45924 63.2786,43.41177 14.4935,-3.52542 7.6886,-32.91407 21.1109,-39.41515 22.9773,-11.129 51.4538,22.25642 75.4166,13.44189 19.0249,-6.99814 38.6469,-46.912663 38.6469,-46.912663"
       id="path17"
       sodipodi:nodetypes="caaaaaaaaac" /><path
       style="fill:#a1c0bc;fill-opacity:1;stroke-width:26.8153;stroke-linecap:round;stroke-linejoin:round;stroke-miterlimit:4.7;filter:url(#filter2)"
       d="m 295.89127,145.12479 c -5.99281,-1.51927 -11.79457,-6.25338 -18.00457,-14.69131 -1.59544,-2.16784 -5.79802,-8.46523 -9.33907,-13.99421 -7.6712,-11.97782 -12.03036,-17.908637 -16.44817,-22.378446 -5.93512,-6.004972 -10.9878,-9.103859 -17.89494,-10.975222 -3.47117,-0.940449 -4.33062,-1.012617 -12.13421,-1.018922 -7.23944,-0.0059 -8.94836,0.113015 -12.38336,0.861328 -10.58948,2.306906 -18.36018,5.113602 -37.16582,13.423891 -20.23101,8.940171 -28.4203,11.956221 -37.41056,13.778021 -7.78844,1.57826 -15.93928,1.44481 -22.17796,-0.36308 C 102.76441,106.82021 99.241481,102.28946 95.103613,86.837414 91.413461,73.057281 90.388196,69.874781 88.232703,65.509617 85.573004,60.12336 82.546742,56.823734 78.414625,54.80466 76.06282,53.655496 75.424067,53.517789 72.44068,53.51677 c -3.065956,-0.0012 -3.579747,0.117379 -6.250001,1.440629 -3.359263,1.664691 -5.8773,3.694468 -13.426479,10.823003 -6.509939,6.147204 -9.400705,7.879266 -11.900362,7.130352 -1.916425,-0.574176 -4.855198,-3.679648 -6.142007,-6.49041 -1.708429,-3.731699 -2.222084,-7.75907 -1.994627,-15.639094 0.226879,-7.859996 0.975232,-12.810043 3.395664,-22.460937 2.098404,-8.366883 5.596065,-19.2673684 8.450766,-26.3368786 1.115018,-2.76127905 1.14936,-3.2371047 0.250585,-3.4719791 -0.375977,-0.098253 12.813671,-0.1990326 29.310328,-0.2239548 l 29.993923,-0.045313 -0.29431,2.05078125 C 103.67229,1.4208984 103.54448,5.5078125 103.55015,9.375 c 0.0144,9.849584 1.13579,15.270826 4.02832,19.47498 1.60264,2.32936 4.66233,4.149077 6.98486,4.154167 3.71743,0.0081 6.10893,-1.91398 11.24781,-9.040237 3.42418,-4.748419 5.20677,-6.581097 6.40125,-6.581097 1.35576,0 4.43972,2.471877 5.36086,4.296875 2.35332,4.662506 2.72922,10.625398 1.70617,27.065093 -0.8455,13.586481 -0.22365,20.24352 2.38619,25.54486 3.9689,8.061976 14.26299,10.906515 23.69647,6.547976 6.22676,-2.876937 11.66121,-7.927726 22.57385,-20.980183 14.57806,-17.436621 21.75017,-23.107431 29.88388,-23.628432 3.71106,-0.237711 5.40086,0.289073 7.68701,2.396377 2.39686,2.209344 4.07041,4.78477 8.23459,12.67223 4.24161,8.03411 5.90531,10.564278 8.60427,13.085489 2.80655,2.621715 5.03773,3.564515 8.43557,3.564515 5.86689,0 9.73471,-3.613347 11.68517,-10.916363 0.34428,-1.289062 1.14401,-5.507851 1.77719,-9.375082 2.28945,-13.983317 3.83923,-16.431558 10.36577,-16.375196 3.58928,0.031 5.83296,0.773059 9.41399,3.113537 3.245,2.120859 9.78319,8.825815 14.60944,14.982089 12.4598,15.893469 15.17735,18.999179 20.00321,22.860347 5.55582,4.445204 10.48302,6.467137 15.73898,6.458668 4.65637,-0.0075 8.22665,-1.404179 11.13052,-4.354218 3.36502,-3.418516 5.2365,-8.28845 7.62789,-19.849207 2.64935,-12.80777 5.12353,-17.39668 10.4837,-19.444313 8.01293,-3.061007 16.44676,-1.700792 32.08602,5.174856 12.73534,5.598972 16.7245,7.269707 20.47306,8.574492 11.05697,3.848676 20.7474,4.057449 28.40865,0.612047 11.52344,-5.182297 26.03102,-22.591123 39.01719,-46.8198196 l 2.33008,-4.3472629 17.1902,0.011878 c 12.87234,0.00889 16.99394,0.1214827 16.40894,0.4482342 -0.42969,0.2399956 -0.84293,0.48674749 -0.91828,0.54833749 -0.0754,0.06159 0.73812,1.6644668 1.80777,3.56194841 1.06965,1.8974816 3.61387,6.7869863 5.65387,10.8655644 11.9702,23.932423 17.61754,42.751732 16.98086,56.587556 -0.42938,9.33109 -3.86402,15.636934 -9.04418,16.604692 -3.59406,0.671445 -5.87809,0.115109 -20.33941,-4.954215 -7.87868,-2.761813 -10.90508,-3.361274 -15.84621,-3.13877 -2.90067,0.130621 -4.14235,0.379375 -5.83348,1.168657 -5.8032,2.708464 -8.80805,6.975793 -12.88317,18.296117 -2.95691,8.214053 -4.80476,11.880653 -7.18191,14.250513 -1.73465,1.72934 -2.50602,2.16392 -5.71617,3.22034 -8.4257,2.7728 -16.45297,2.69418 -27.53906,-0.26971 -8.20227,-2.1929 -14.65411,-4.85398 -33.39844,-13.77533 -23.81441,-11.33443 -33.66168,-14.763938 -45.79368,-15.948567 -7.75894,-0.757621 -15.57573,0.499609 -22.10577,3.555426 -5.57049,2.606777 -9.80994,7.634285 -13.20301,15.657261 -0.76085,1.79905 -2.7718,7.87212 -4.46876,13.49571 -4.52217,14.98608 -6.21677,18.99773 -9.6275,22.79128 -2.53852,2.82345 -5.28521,4.02998 -9.4572,4.15426 -1.84354,0.0549 -3.97036,-0.0569 -4.72625,-0.24858 z"
       id="path1"
       transform="matrix(0.93281729,0,0,0.93179103,8121.3387,92.359021)" /></g></svg>
