<?xml version="1.0" encoding="UTF-8" standalone="no"?>
<!-- Created with Inkscape (http://www.inkscape.org/) -->

<svg
   width="172.68382"
   height="170.47151"
   viewBox="0 0 172.68382 170.47151"
   version="1.1"
   id="svg1"
   sodipodi:docname="Portfolio_WorksPreviewDecor.svg"
   xml:space="preserve"
   inkscape:version="1.3 (0e150ed6c4, 2023-07-21)"
   xmlns:inkscape="http://www.inkscape.org/namespaces/inkscape"
   xmlns:sodipodi="http://sodipodi.sourceforge.net/DTD/sodipodi-0.dtd"
   xmlns="http://www.w3.org/2000/svg"
   xmlns:svg="http://www.w3.org/2000/svg"><sodipodi:namedview
     id="namedview1"
     pagecolor="#505050"
     bordercolor="#000000"
     borderopacity="1"
     inkscape:showpageshadow="0"
     inkscape:pageopacity="0"
     inkscape:pagecheckerboard="0"
     inkscape:deskcolor="#747474"
     inkscape:document-units="mm"
     inkscape:zoom="2.5599999"
     inkscape:cx="58.203127"
     inkscape:cy="107.61719"
     inkscape:window-width="1920"
     inkscape:window-height="1009"
     inkscape:window-x="-8"
     inkscape:window-y="-8"
     inkscape:window-maximized="1"
     inkscape:current-layer="layer1" /><defs
     id="defs1"><inkscape:path-effect
       effect="spiro"
       id="path-effect2"
       is_visible="true"
       lpeversion="1" /></defs><g
     inkscape:label="Слой 1"
     inkscape:groupmode="layer"
     id="layer1"
     transform="translate(-8246.2286,-5196.5965)"><path
       style="fill:none;stroke:#eee2d2;stroke-width:4.99999993;stroke-linecap:butt;stroke-linejoin:miter;stroke-dasharray:none;stroke-opacity:1"
       d="m 8326.5488,5278.2281 c 9.9152,-11.3511 -29.9084,-34.2221 -16.9081,-41.8819 10.1044,-5.9535 10.5623,27.0701 22.3012,27.1557 12.1367,0.089 13.2213,-34.2187 23.4671,-27.7366 12.6596,8.0093 -30.7556,31.6969 -18.8028,40.7202 12.1535,9.1747 23.2937,-39.4654 34.8363,-29.5385 9.2989,7.9974 -22.136,19.1752 -19.5316,31.1359 2.8168,12.9365 38.7369,9.8795 33.2329,21.9279 -6.1592,13.4827 -32.5943,-22.4042 -42.9988,-11.8219 -8.4442,8.5885 21.4007,29.7352 10.3489,34.5619 -13.1492,5.7427 -7.6536,-37.0497 -22.0096,-36.8853 -13.5527,0.1552 -7.3041,40.097 -19.969,35.2879 -9.1545,-3.476 13.3677,-21.8826 6.2676,-28.6079 -7.1155,-6.7398 -23.4808,16.1486 -28.423,7.6966 -4.0987,-7.0094 17.9534,-9.2036 17.1996,-17.281 -0.8472,-9.0779 -26.3578,-7.2288 -22.5926,-15.5383 6.1596,-13.5938 33.7541,22.0561 43.5819,10.8053 z"
       id="path2"
       sodipodi:nodetypes="aaaaaaaaaaaaaaaaa" /></g></svg>
