<?xml version="1.0" encoding="UTF-8" standalone="no"?>
<!-- Created with Inkscape (http://www.inkscape.org/) -->

<svg
   width="2371.2542"
   height="911.52606"
   viewBox="0 0 627.39431 241.1746"
   version="1.1"
   id="svg1"
   sodipodi:docname="Portfolio_OutlineTitleDecor.svg"
   xml:space="preserve"
   inkscape:version="1.3 (0e150ed6c4, 2023-07-21)"
   xmlns:inkscape="http://www.inkscape.org/namespaces/inkscape"
   xmlns:sodipodi="http://sodipodi.sourceforge.net/DTD/sodipodi-0.dtd"
   xmlns="http://www.w3.org/2000/svg"
   xmlns:svg="http://www.w3.org/2000/svg"><sodipodi:namedview
     id="namedview1"
     pagecolor="#505050"
     bordercolor="#000000"
     borderopacity="1"
     inkscape:showpageshadow="0"
     inkscape:pageopacity="0"
     inkscape:pagecheckerboard="0"
     inkscape:deskcolor="#747474"
     inkscape:document-units="mm"
     inkscape:zoom="0.16"
     inkscape:cx="1393.75"
     inkscape:cy="53.125"
     inkscape:window-width="1920"
     inkscape:window-height="1009"
     inkscape:window-x="-8"
     inkscape:window-y="-8"
     inkscape:window-maximized="1"
     inkscape:current-layer="layer1" /><defs
     id="defs1" /><g
     inkscape:label="Слой 1"
     inkscape:groupmode="layer"
     id="layer1"
     transform="translate(-8078.751,-135.00622)"><path
       id="rect322"
       style="color:#000000;fill:#222b25;stroke-linecap:square;stroke-miterlimit:4.7;-inkscape-stroke:none"
       d="m -142.97481,8079.0068 c -1.41548,-0.025 -2.81631,-0.1064 -4.23788,-0.1064 -131.34501,0 -237.1702,105.695 -237.1702,236.8865 l -1.1e-4,153.6211 c 0,131.1915 105.82506,236.8869 237.17007,236.8869 1.21413,0 2.4098,-0.073 3.61951,-0.091 l 0.005,-5.2911 c -1.21133,0.018 -2.40878,0.091 -3.62468,0.091 -128.50839,0 -231.87897,-103.2478 -231.87897,-231.5958 l 1.1e-4,-153.6207 c 0,-128.348 103.37061,-231.5958 231.879,-231.5958 1.41987,0 2.81909,0.081 4.23272,0.1059 z"
       transform="matrix(9.8730762e-4,-0.99999951,0.99999951,-9.8631702e-4,0,0)" /><path
       id="rect323"
       style="color:#000000;fill:#222b25;stroke-linecap:square;stroke-miterlimit:4.7;-inkscape-stroke:none"
       d="m 1983.5528,7939.6004 c -69.7179,25.0535 -119.3537,91.497 -119.3537,169.8901 l 2e-4,118.1327 c 0,99.9921 80.7429,180.5701 180.9298,180.5701 21.4058,0 41.9112,-3.7051 60.944,-10.4653 l -1.3653,-5.1051 c -18.5877,6.6421 -38.6374,10.2775 -59.5789,10.2775 -97.3526,0 -175.6389,-78.1311 -175.6389,-175.2774 l 3e-4,-118.1328 c 0,-76.014 47.935,-140.3786 115.4272,-164.7872 z"
       transform="matrix(0.25935312,-0.96578256,0.96606852,0.25828592,0,0)" /><path
       id="rect324"
       style="color:#000000;fill:#222b25;stroke-linecap:square;stroke-miterlimit:4.7;-inkscape-stroke:none"
       d="m 4036.4565,7267.3218 c -27.9258,22.3891 -45.7731,56.7452 -45.7731,95.399 l 3e-4,80.26 c 0,67.7192 54.7232,122.3141 122.5894,122.3141 29.9943,0 57.411,-10.6769 78.6818,-28.4249 l -2.6703,-4.6287 c -20.4402,17.3192 -46.9408,27.761 -76.0113,27.761 -65.0327,0 -117.2985,-52.1493 -117.2985,-117.0219 v -80.2596 c 0,-36.742 16.775,-69.3915 43.1303,-90.8078 z"
       transform="matrix(0.50060457,-0.86567607,0.86637395,0.49939581,0,0)" /></g></svg>
