<?xml version="1.0" encoding="UTF-8" standalone="no"?>
<!-- Created with Inkscape (http://www.inkscape.org/) -->

<svg
   width="2499.2773"
   height="858.54688"
   viewBox="0 0 661.26712 227.15719"
   version="1.1"
   id="svg1"
   sodipodi:docname="Portfolio_FooterDecor.svg"
   xml:space="preserve"
   inkscape:version="1.3 (0e150ed6c4, 2023-07-21)"
   xmlns:inkscape="http://www.inkscape.org/namespaces/inkscape"
   xmlns:sodipodi="http://sodipodi.sourceforge.net/DTD/sodipodi-0.dtd"
   xmlns="http://www.w3.org/2000/svg"
   xmlns:svg="http://www.w3.org/2000/svg"><sodipodi:namedview
     id="namedview1"
     pagecolor="#505050"
     bordercolor="#000000"
     borderopacity="1"
     inkscape:showpageshadow="0"
     inkscape:pageopacity="0"
     inkscape:pagecheckerboard="0"
     inkscape:deskcolor="#747474"
     inkscape:document-units="mm"
     inkscape:zoom="0.22627416"
     inkscape:cx="1542.3767"
     inkscape:cy="1350.1321"
     inkscape:window-width="1920"
     inkscape:window-height="1009"
     inkscape:window-x="-8"
     inkscape:window-y="-8"
     inkscape:window-maximized="1"
     inkscape:current-layer="layer1" /><defs
     id="defs1" /><g
     inkscape:label="Слой 1"
     inkscape:groupmode="layer"
     id="layer1"
     transform="translate(-8046.0661,-5171.8701)"><g
       id="g267"
       transform="matrix(-0.2652687,0.99010687,-0.98609616,-0.2642532,10704.326,3893.9972)"
       style="stroke:#000000;stroke-width:2.12089634;stroke-dasharray:none;stroke-opacity:1"><path
         id="rect265"
         style="fill:#89a9a4;fill-opacity:1;stroke:#000000;stroke-width:2.12089634;stroke-linecap:square;stroke-linejoin:miter;stroke-miterlimit:4.7;stroke-dasharray:none;stroke-opacity:1"
         d="m 1246.3668,2079.8465 -10e-5,396.3264 c 0,68.7798 55.3714,124.1515 124.1511,124.1515 h 94.1591 l 0.635,-644.6294 -94.7939,10e-5 c -68.7798,0 -124.1512,55.3716 -124.1512,124.1514 z"
         transform="rotate(-15)" /><path
         id="rect266"
         style="fill:#aac0bd;fill-opacity:1;stroke:#000000;stroke-width:2.12089634;stroke-linecap:square;stroke-linejoin:miter;stroke-miterlimit:4.7;stroke-dasharray:none;stroke-opacity:1"
         d="m 1860.1179,1981.0334 c 15.9209,62.1668 72.1234,107.8587 139.3901,107.8587 l 76.6002,10e-5 -128.5348,-481.5956 c -53.8743,20.765 -91.9706,72.789 -91.9706,134.1569 v 203.5334 c 0,12.4568 1.5668,24.5341 4.5151,36.0465 z" /><path
         id="rect267"
         style="fill:#c2d1d0;fill-opacity:1;stroke:#000000;stroke-width:2.12089746;stroke-linecap:square;stroke-linejoin:miter;stroke-miterlimit:4.7;stroke-dasharray:none;stroke-opacity:1"
         d="m 2358.4502,1415.6343 c 15.259,28.1589 45.0482,47.1984 79.4481,47.1984 l 67.5033,-2e-4 c 9.7738,0 19.1545,-1.5806 27.9565,-4.427 l -167.5068,-291.0367 c -11.427,15.1271 -18.2709,33.9281 -18.2709,54.4313 l -10e-5,150.7143 c 0,15.6363 3.934,30.3203 10.8699,43.1199 z"
         transform="matrix(0.96573695,0.25952293,-0.2581168,0.96611372,0,0)" /></g></g></svg>
