<?xml version="1.0" encoding="UTF-8" standalone="no"?>
<!-- Created with Inkscape (http://www.inkscape.org/) -->

<svg
   width="2499.2773"
   height="858.54688"
   viewBox="0 0 661.26712 227.15719"
   version="1.1"
   id="svg1"
   sodipodi:docname="Portfolio_FooterDecor.svg"
   xml:space="preserve"
   inkscape:version="1.3 (0e150ed6c4, 2023-07-21)"
   xmlns:inkscape="http://www.inkscape.org/namespaces/inkscape"
   xmlns:sodipodi="http://sodipodi.sourceforge.net/DTD/sodipodi-0.dtd"
   xmlns="http://www.w3.org/2000/svg"
   xmlns:svg="http://www.w3.org/2000/svg"><sodipodi:namedview
     id="namedview1"
     pagecolor="#505050"
     bordercolor="#000000"
     borderopacity="1"
     inkscape:showpageshadow="0"
     inkscape:pageopacity="0"
     inkscape:pagecheckerboard="0"
     inkscape:deskcolor="#747474"
     inkscape:document-units="mm"
     inkscape:zoom="0.16"
     inkscape:cx="950"
     inkscape:cy="396.875"
     inkscape:window-width="1920"
     inkscape:window-height="1009"
     inkscape:window-x="-8"
     inkscape:window-y="-8"
     inkscape:window-maximized="1"
     inkscape:current-layer="layer1" /><defs
     id="defs1"><inkscape:path-effect
       effect="simplify"
       id="path-effect3"
       is_visible="true"
       lpeversion="1.3"
       threshold="100"
       steps="1"
       smooth_angles="360"
       helper_size="10"
       simplify_individual_paths="false"
       simplify_just_coalesce="false" /><inkscape:path-effect
       effect="simplify"
       id="path-effect2"
       is_visible="true"
       lpeversion="1.3"
       threshold="100"
       steps="5.3346154"
       smooth_angles="0"
       helper_size="10"
       simplify_individual_paths="false"
       simplify_just_coalesce="false" /><inkscape:path-effect
       effect="simplify"
       id="path-effect1"
       is_visible="true"
       lpeversion="1.3"
       threshold="88.847269"
       steps="5.2403846"
       smooth_angles="0"
       helper_size="10"
       simplify_individual_paths="false"
       simplify_just_coalesce="false" /><filter
       inkscape:collect="always"
       style="color-interpolation-filters:sRGB"
       id="filter3-8"
       x="-0.050066029"
       y="-0.15242995"
       width="1.1001321"
       height="1.3048599"><feGaussianBlur
         inkscape:collect="always"
         stdDeviation="11.666528"
         id="feGaussianBlur3-0" /></filter><filter
       inkscape:collect="always"
       style="color-interpolation-filters:sRGB"
       id="filter2-6"
       x="-0.048178227"
       y="-0.16672454"
       width="1.0963565"
       height="1.3334491"><feGaussianBlur
         inkscape:collect="always"
         stdDeviation="10.274572"
         id="feGaussianBlur2-9" /></filter></defs><g
     inkscape:label="Слой 1"
     inkscape:groupmode="layer"
     id="layer1"
     transform="translate(-8046.0661,-5171.8701)"><path
       style="fill:#6c9d96;fill-opacity:1;stroke:#517b75;stroke-width:5.70595;stroke-linecap:butt;stroke-linejoin:miter;stroke-dasharray:none;stroke-opacity:1"
       d="m 8666.9247,5401.4152 c 0,0 29.1779,-87.2498 5.1171,-118.7103 -14.3752,-18.7963 -52.6727,1.2629 -69.2478,-15.6248 -13.1086,-13.3563 5.419,-46.6415 -11.3313,-54.9887 -33.3312,-16.6106 -63.7134,48.8593 -100.9419,47.8837 -46.7569,-1.2255 -76.9679,-71.8688 -123.4537,-66.6962 -35.9427,3.9992 -45.6577,72.9645 -81.7834,71.2908 -21.68,-1.0042 -23.4573,-43.8812 -44.9147,-47.1379 -32.5019,-4.9325 -53.3778,45.4519 -86.1531,48.0006 -22.8451,1.7765 -46.5583,-38.0244 -64.5008,-23.7723 -42.0244,33.3818 20.0531,159.7551 20.0531,159.7551"
       id="path20"
       sodipodi:nodetypes="caaaaaaaaac" /><path
       style="fill:#8fb5b0;fill-opacity:1;stroke-width:25;stroke-linecap:round;stroke-linejoin:round;stroke-miterlimit:4.7;filter:url(#filter3-8)"
       d="M 291.97318,187.87235 C 250.10233,176.84088 228.7456,124.07899 181.8456,126.54442 150.72579,128.62516 131.493,186.5382 99.333774,161.36018 89.062823,137.10172 79.96589,99.00225 45.202269,114.07178 16.064876,110.79109 11.566414,74.960384 13.987165,51.395274 14.748309,38.62645 19.910459,4.505605 33.691513,9.1348221 15.436388,32.48868 30.432179,93.191372 65.698469,63.543029 c 33.718076,1.739375 21.862911,63.100241 63.369971,53.222661 37.38377,-0.61777 68.25942,-40.707671 107.05009,-25.505187 29.59922,10.307597 40.81617,78.882587 78.14185,48.765037 12.09402,-28.07866 34.20321,-65.381468 68.93493,-42.34705 27.00401,11.27357 54.56012,31.53405 85.3529,23.30389 9.27177,-34.574539 50.4752,-34.137118 75.37682,-40.208763 21.57999,-22.245583 -24.36746,-66.459642 -4.96599,-75.8435343 25.99058,25.2314353 24.54181,67.0412183 33.31486,100.0721973 4.8228,34.13195 -34.59797,48.7578 -54.11949,22.04761 -28.12955,-15.82796 -51.24398,13.98263 -71.61175,29.27362 -36.4525,31.10165 -46.54955,-50.27877 -83.94746,-28.2575 -30.26444,11.05589 -28.43781,63.05638 -66.76476,60.4588 z"
       id="path2-6"
       transform="matrix(-1.0782868,0,0,-1.0782868,8694.3453,5399.3432)"
       inkscape:path-effect="#path-effect2"
       inkscape:original-d="m 291.97318,187.87235 c -18.26876,-3.99814 -32.48147,-17.69132 -46.05901,-29.66648 -16.32162,-14.47125 -34.30031,-30.96504 -57.36182,-31.83868 -34.29915,1.09246 -57.64837,48.16119 -83.86485,46.76787 -21.898797,-2.91147 -9.783617,-29.10687 -13.304,-44.22881 -1.963015,-7.29366 -7.336324,-12.16621 -16.05414,-14.55799 -11.175603,-3.41058 -34.102173,1.31304 -45.110186,-2.8056 C 24.301663,109.32864 20.408035,104.41205 17.652396,95.67425 11.752309,76.965785 15.101097,42.201164 26.4482,4.3627988 c 1.357743,-4.52756943 1.52988,-5.4599979 1.062572,-5.7557373 3.849067,-0.6789964 8.395824,-0.3611424 12.453723,-0.3648724 l -1.320269,3.3630284 c -17.4109,44.3495515 -13.643302,75.8005065 2.625908,77.0275545 13.298019,1.002953 23.029647,-24.90913 35.233128,-18.351645 17.064062,9.169289 5.544842,46.488693 34.632168,54.889673 39.6499,11.45168 80.98281,-35.431872 121.54024,-26.543427 30.38957,7.708945 35.81235,62.420217 67.3933,62.420217 30.19732,0 18.79852,-48.73896 41.41227,-57.427525 33.77393,-12.976486 73.79262,29.698655 112.42501,29.606925 11.34914,-0.0269 19.74465,-3.0734 23.8543,-8.65595 8.99242,-12.21557 6.65722,-30.334025 21.84883,-30.148276 15.06589,0.184226 33.64746,17.021306 44.15976,2.289566 14.05598,-19.697752 -4.09816,-60.836509 -19.36465,-88.4701425 5.85492,0.032793 9.63506,0.4969419 15.88254,0.4991317 2.08368,7.304e-4 25.92837,53.1858338 30.59715,99.8352238 1.08781,10.868517 1.52726,32.423997 -10.00587,43.683957 -3.75563,3.66666 -6.91629,4.63884 -11.37102,3.49759 -16.65462,-4.26672 -31.6769,-29.4367 -54.80648,-23.32427 -24.49297,7.11655 -40.01046,33.8005 -59.18566,41.59207 -5.98418,2.43159 -12.95774,2.79077 -17.1268,0.88211 -11.97635,-5.48447 -15.63664,-26.03474 -26.57637,-36.82398 -5.71206,-5.63348 -12.10118,-7.1569 -20.82777,-4.96616 -32.02448,12.10897 -38.33129,59.0069 -65.54975,64.77311 -3.32169,0.70369 -9.52095,0.69512 -13.46137,-0.0186 z"
       sodipodi:nodetypes="cssssssssscsssssssccsscscsssscssscc" /><path
       style="fill:#8bb1ac;fill-opacity:1;stroke:#c2d6d3;stroke-width:5.70595;stroke-linecap:butt;stroke-linejoin:miter;stroke-dasharray:none;stroke-opacity:1"
       d="m 8647.8729,5401.4152 c 0,0 28.5658,-67.2631 5.6306,-82.6303 -12.3326,-8.2633 -25.7297,23.9875 -39.9423,19.6994 -21.484,-6.4816 -13.4293,-48.8626 -33.8341,-58.2019 -42.7935,-19.5864 -93.4867,38.93 -138.7597,26.0754 -31.7891,-9.0263 -40.5149,-71.1352 -73.2719,-66.7782 -23.9394,3.1842 -16.7206,51.6168 -38.93,61.1035 -44.0609,18.8215 -96.7956,-46.5351 -140.9824,-28.0111 -13.7737,5.7741 -11.1822,30.8639 -24.5817,37.4592 -15.5005,7.6292 -40.3666,-16.9533 -51.6824,-3.8986 -21.2834,24.5548 21.0634,95.1826 21.0634,95.1826"
       id="path19"
       sodipodi:nodetypes="caaaaaaaaac" /><path
       style="fill:#9abcb8;fill-opacity:1;stroke:#517b76;stroke-width:5.70595;stroke-linecap:butt;stroke-linejoin:miter;stroke-dasharray:none;stroke-opacity:1"
       d="m 8579.0078,5401.4152 c 0,0 4.1512,-30.1642 -6.7399,-34.3708 -8.5335,-3.2958 -13.3763,19.4059 -22.0126,16.3892 -22.5399,-7.872 3.9454,-60.645 -18.3291,-69.2396 -28.1383,-10.8569 -45.9279,52.574 -75.9038,49.2473 -15.9227,-1.7671 -17.7713,-36.8234 -33.6018,-34.3631 -14.4449,2.2451 -5.5393,35.5429 -19.6973,39.1818 -28.6477,7.3635 -44.4078,-57.2351 -73.1468,-50.2368 -16.7536,4.0795 -8.8872,38.0889 -24.4027,45.6121 -26.5607,12.8787 -59.4779,-25.7558 -87.1777,-15.5555 -21.9917,8.0987 -44.6738,54.2882 -44.6738,54.2882"
       id="path17"
       sodipodi:nodetypes="caaaaaaaaac" /><path
       style="fill:#a1c0bc;fill-opacity:1;stroke-width:25;stroke-linecap:round;stroke-linejoin:round;stroke-miterlimit:4.7;filter:url(#filter2-6)"
       d="M 222.07031,82.06668 C 183.27366,81.143367 152.55849,117.79203 112.93261,109.76684 86.888053,103.80981 97.415916,41.140728 62.995806,62.121338 45.127172,75.109278 23.556311,62.616469 33.690806,41.149585 30.328608,11.667441 56.766729,-11.878745 85.218127,-3.4402884 110.02525,-2.0613751 98.747609,25.744686 108.3108,36.016113 c 11.19638,-1.554874 34.67255,-24.548749 29.66067,2.662506 -11.41168,27.359119 23.67367,61.154226 42.25099,29.686311 11.17963,-13.430418 31.70412,-42.075646 49.3091,-22.032253 6.70855,29.634202 41.01297,15.611926 39.83978,-9.872493 27.67685,-9.91561 33.92524,29.539224 54.28826,39.151219 33.14162,10.560351 26.51571,-51.67604 59.73891,-40.630844 24.091,9.896559 57.47608,30.830297 77.25363,1.297872 11.48763,-22.803968 42.10161,-56.704865 64.19871,-24.838824 11.38527,19.816023 29.45835,52.193428 8.25895,71.143809 -21.20269,-1.336302 -45.99343,-7.646707 -57.36025,19.641834 -14.26851,26.60835 -45.35242,12.11498 -65.45024,1.83925 -23.03584,-11.633679 -52.68445,-27.456074 -77.31512,-11.48356 -16.05269,14.20663 -10.27409,50.26335 -37.7559,50.14604 -29.00527,-7.99341 -27.90397,-50.89987 -57.79101,-58.422277 -4.96784,-1.536854 -10.17705,-2.1978 -15.36697,-2.238023 z"
       id="path1-7"
       transform="matrix(-1.0782868,0,0,-1.0782868,8694.3453,5399.3432)"
       inkscape:path-effect="#path-effect1"
       inkscape:original-d="m 222.07031,82.06668 c -41.26819,-0.03363 -72.51746,37.05333 -109.1377,27.70016 C 86.962399,102.24097 100.08649,66.382836 78.414625,54.80466 62.27864,46.920123 49.729063,75.566835 40.863838,72.910754 28.724213,69.273627 30.53069,36.760014 44.573634,1.9834344 c 1.115018,-2.76127905 1.14936,-3.2371047 0.250585,-3.4719791 19.762673,-0.3175899 39.537242,-0.239405 59.304251,-0.2692678 l -0.29431,2.05078125 C 104.12493,11.346198 97.316632,38.547652 111.3101,41.137216 c 8.42314,-0.400266 16.80347,-23.754403 20.90229,-23.754403 14.20662,0 1.80669,41.374521 9.45322,56.906828 3.9689,8.061976 14.26299,10.906515 23.69647,6.547976 18.37691,-8.490643 33.59053,-43.400086 52.45773,-44.608615 16.85897,-1.079897 15.30085,31.718611 32.96144,31.718611 19.93478,0 6.41566,-36.02115 23.82813,-36.666641 22.05847,0.190515 32.36126,46.387526 59.76562,47.414641 24.32351,-0.03918 12.94395,-37.421693 29.24211,-43.647738 23.72267,-9.062261 51.88014,25.756864 80.96773,14.361395 11.52344,-5.182297 26.03102,-22.591123 39.01719,-46.8198196 l 2.33008,-4.3472629 c 8.82368,3.0225652 25.47682,2.05078278 33.59914,0.4601122 0.483,-0.094589 -0.84293,0.48674749 -0.91828,0.54833749 -0.0754,0.06159 0.73812,1.6644668 1.80777,3.56194841 23.66727,41.9840154 29.50186,81.0852604 13.59055,84.0578124 -10.00202,1.868584 -29.94829,-12.557999 -42.0191,-6.924328 -15.79828,7.373359 -10.17363,30.6307 -25.78125,35.76697 -40.76731,13.41605 -80.92466,-43.957741 -128.83695,-26.438181 -23.46489,11.755991 -14.11305,55.423981 -36.75647,56.098511 -33.2987,0.99162 -28.33099,-63.266117 -78.54721,-63.30669 z"
       sodipodi:nodetypes="sssssscsssssssssssscsssssssss" /></g></svg>
