<?xml version="1.0" encoding="UTF-8" standalone="no"?>
<!-- Created with Inkscape (http://www.inkscape.org/) -->

<svg
   width="3332.6328"
   height="2069.1956"
   viewBox="0 0 881.75908 547.47465"
   version="1.1"
   id="svg1"
   sodipodi:docname="Portfolio_TitleDecor.svg"
   xml:space="preserve"
   inkscape:version="1.3 (0e150ed6c4, 2023-07-21)"
   xmlns:inkscape="http://www.inkscape.org/namespaces/inkscape"
   xmlns:sodipodi="http://sodipodi.sourceforge.net/DTD/sodipodi-0.dtd"
   xmlns="http://www.w3.org/2000/svg"
   xmlns:svg="http://www.w3.org/2000/svg"><sodipodi:namedview
     id="namedview1"
     pagecolor="#505050"
     bordercolor="#000000"
     borderopacity="1"
     inkscape:showpageshadow="0"
     inkscape:pageopacity="0"
     inkscape:pagecheckerboard="0"
     inkscape:deskcolor="#747474"
     inkscape:document-units="mm"
     inkscape:zoom="0.11313709"
     inkscape:cx="618.71843"
     inkscape:cy="1073.9184"
     inkscape:window-width="1920"
     inkscape:window-height="1009"
     inkscape:window-x="-8"
     inkscape:window-y="-8"
     inkscape:window-maximized="1"
     inkscape:current-layer="layer1" /><defs
     id="defs1"><inkscape:path-effect
       effect="spiro"
       id="path-effect17"
       is_visible="true"
       lpeversion="1" /><inkscape:path-effect
       effect="spiro"
       id="path-effect15"
       is_visible="true"
       lpeversion="1" /><inkscape:path-effect
       effect="spiro"
       id="path-effect13"
       is_visible="true"
       lpeversion="1" /><inkscape:path-effect
       effect="spiro"
       id="path-effect11"
       is_visible="true"
       lpeversion="1" /><inkscape:path-effect
       effect="spiro"
       id="path-effect7"
       is_visible="true"
       lpeversion="1" /><inkscape:path-effect
       effect="spiro"
       id="path-effect5"
       is_visible="true"
       lpeversion="1" /><inkscape:path-effect
       effect="spiro"
       id="path-effect3"
       is_visible="true"
       lpeversion="1" /><inkscape:path-effect
       effect="spiro"
       id="path-effect1"
       is_visible="true"
       lpeversion="1" /><filter
       inkscape:collect="always"
       style="color-interpolation-filters:sRGB"
       id="filter1"
       x="-0.18888739"
       y="-0.42246374"
       width="1.3777748"
       height="1.8449275"><feGaussianBlur
         inkscape:collect="always"
         stdDeviation="61.715805"
         id="feGaussianBlur1" /></filter><filter
       inkscape:collect="always"
       style="color-interpolation-filters:sRGB"
       id="filter7"
       x="-0.27756899"
       y="-0.62080817"
       width="1.555138"
       height="2.2416163"><feGaussianBlur
         inkscape:collect="always"
         stdDeviation="90.691041"
         id="feGaussianBlur7" /></filter><filter
       inkscape:collect="always"
       style="color-interpolation-filters:sRGB"
       id="filter8"
       x="-0.23551776"
       y="-0.52675677"
       width="1.4710355"
       height="2.0535135"><feGaussianBlur
         inkscape:collect="always"
         stdDeviation="76.951503"
         id="feGaussianBlur8" /></filter><filter
       inkscape:collect="always"
       style="color-interpolation-filters:sRGB"
       id="filter2"
       x="-0.16832436"
       y="-0.37647265"
       width="1.3366487"
       height="1.7529453"><feGaussianBlur
         inkscape:collect="always"
         stdDeviation="54.997176"
         id="feGaussianBlur2" /></filter></defs><g
     inkscape:label="Слой 1"
     inkscape:groupmode="layer"
     id="layer1"
     transform="translate(-8851.3283,-445.48637)"><path
       style="fill:#71a19a;fill-opacity:1;stroke:none;stroke-width:0.395992px;stroke-linecap:butt;stroke-linejoin:miter;stroke-opacity:1;filter:url(#filter1)"
       d="m 7635.4064,556.28063 c 23.7753,3.24022 48.1982,7.25581 68.6263,19.84375 11.1241,6.85479 20.6185,15.99546 30.4268,24.62866 9.8083,8.63319 20.2293,16.94864 32.4117,21.67342 12.1169,4.69937 25.5519,5.59965 38.3677,3.44129 12.8158,-2.15836 25.0286,-7.29712 36.0464,-14.18999 8.9707,-5.6122 17.212,-12.39261 26.5375,-17.39307 4.6628,-2.50023 9.5997,-4.54793 14.7706,-5.66795 5.1709,-1.12001 10.5903,-1.29224 15.7427,-0.09 5.7494,1.34151 11.0229,4.36092 15.5065,8.2017 4.4837,3.84077 8.2159,8.48904 11.5272,13.37685 6.6224,9.77562 11.6846,20.63419 19.2683,29.68447 7.4466,8.88673 17.1957,15.7807 27.9485,20.11717 10.7527,4.33646 22.4856,6.13384 34.0633,5.51434 19.2126,-1.02803 37.8325,-8.72685 52.9166,-20.67057 6.8091,-5.39151 12.9275,-11.61538 19.7706,-16.96364 6.8431,-5.34827 14.6316,-9.88338 23.2242,-11.14834 6.5621,-0.96605 13.3601,0.0461 19.4874,2.58584 6.1274,2.53971 11.59,6.57531 16.066,11.47015 7.6494,8.36515 12.3116,18.97174 16.6484,29.44463 4.3368,10.47288 8.5763,21.18781 15.5977,30.08662 7.6551,9.70195 18.1506,16.66352 28.112,23.97786 5.2254,3.83682 10.4247,7.88963 14.2249,13.14167 1.9001,2.62602 3.4304,5.54016 4.3181,8.6576 0.8876,3.11743 1.1195,6.44359 0.4739,9.62 -0.9656,4.75076 -3.8871,8.99698 -7.7238,11.96038 -3.8367,2.96339 -8.5393,4.69379 -13.3382,5.38147 -9.5978,1.37534 -19.2748,-1.27934 -28.5474,-4.11268 -7.7282,-2.36145 -15.4681,-4.87801 -23.4893,-5.85923 -8.0212,-0.98122 -16.4595,-0.32904 -23.6396,3.37876 -5.7434,2.96587 -10.407,7.74921 -13.9762,13.13843 -3.5692,5.38923 -6.1095,11.39005 -8.348,17.45402 -5.3941,14.61186 -9.1677,29.91784 -9.9219,45.47526 -0.4488,9.25833 0.1413,18.7551 -2.7084,27.5754 -1.4248,4.41014 -3.7378,8.59912 -7.1124,11.77578 -3.3747,3.17666 -7.8688,5.2756 -12.5034,5.29726 -4.9313,0.023 -9.6495,-2.2698 -13.4377,-5.42705 -3.7881,-3.15726 -6.7766,-7.1478 -9.7133,-11.10941 -16.2235,-21.88577 -32.4079,-44.51463 -54.5703,-60.35807 -30.2209,-21.60424 -68.6881,-28.41803 -105.8334,-28.9388 -28.7097,-0.4025 -57.9519,2.72939 -84.3359,14.05598 -17.6027,7.55681 -34.236,19.34366 -42.9948,36.38021 -7.7889,15.15002 -8.6305,32.82431 -13.5546,49.13206 -2.4621,8.15387 -6.0401,16.11422 -11.6502,22.52314 -5.6101,6.40892 -13.4349,11.15985 -21.9241,11.85392 -5.8615,0.47923 -11.758,-0.9698 -17.135,-3.3519 -5.3769,-2.3821 -10.2958,-5.67417 -15.1111,-9.05045 -15.302,-10.72909 -29.8597,-22.47353 -44.6484,-33.89974 -13.134,-10.14771 -26.5236,-20.09221 -41.1815,-27.87838 -14.6578,-7.78616 -30.7157,-13.38674 -47.2886,-14.28959 -22.0858,-1.20318 -44.2959,5.91744 -66.1458,2.48047 -13.9157,-2.18892 -27.4909,-9.07205 -35.6318,-20.56822 -4.0705,-5.74808 -6.6989,-12.55833 -7.2286,-19.58176 -0.5297,-7.02343 1.0851,-14.24059 4.8265,-20.20809 5.3586,-8.54686 14.8485,-14.08595 24.8047,-15.70963 6.9626,-1.13547 14.1197,-0.49689 21.0171,0.98419 6.8973,1.48108 13.5844,3.7903 20.2743,6.02916 6.6899,2.23886 13.4293,4.41968 20.379,5.63143 6.9497,1.21175 14.1586,1.43068 21.0119,-0.24244 7.5837,-1.85144 14.5604,-6.0272 19.894,-11.7275 5.3337,-5.70029 9.0229,-12.89404 10.6984,-20.51859 1.8614,-8.47041 1.2668,-17.30701 -0.2242,-25.85039 -1.4911,-8.54339 -3.8614,-16.90878 -5.5635,-25.41263 -4.2927,-21.4471 -4.2848,-43.60536 -1.6537,-65.31901 1.1726,-9.67736 2.9217,-19.47495 7.4414,-28.11198 5.607,-10.71468 15.6042,-19.19415 27.2852,-22.32422 10.1871,-2.72975 20.9694,-1.42416 31.4193,0 z"
       id="path2"
       transform="matrix(0.76937919,0,0,0.58024597,3273.8809,398.55723)"
       inkscape:original-d="m 7635.4064,556.28063 c 10.4731,0 45.7508,13.22917 68.6263,19.84375 22.8754,6.61458 41.8923,30.86806 62.8385,46.30208 20.9462,15.43403 49.6094,-7.1658 74.4141,-10.7487 24.8047,-3.5829 38.0338,-15.43402 57.0508,-23.15104 19.0169,-7.71701 30.868,34.17535 46.302,51.26302 15.4341,17.08768 41.3412,17.08768 62.0118,25.63151 20.6705,8.54384 35.2777,-13.78038 52.9166,-20.67057 17.6389,-6.89019 28.6632,-18.74132 42.9948,-28.11198 14.3316,-9.37066 23.7023,9.37066 35.5534,14.05599 11.8511,4.68533 21.4974,39.6875 32.2461,59.53125 10.7487,19.84375 18.7413,15.98524 28.112,23.97786 9.3706,7.99262 12.6779,20.94619 19.0169,31.41927 6.339,10.47309 -33.0729,8.81944 -49.6094,13.22917 -16.5364,4.40973 -31.4192,-1.65364 -47.1289,-2.48047 -15.7096,-0.82682 -14.8828,20.39496 -22.3242,30.59245 -7.4414,10.19749 -6.6146,30.31683 -9.9219,45.47526 -3.3073,15.15843 -14.8828,29.76562 -22.3242,44.64844 -7.4414,14.88281 -15.434,-11.02432 -23.151,-16.53646 -7.7171,-5.51214 -36.3802,-40.23871 -54.5703,-60.35807 -18.1902,-20.11937 -70.5556,-19.29255 -105.8334,-28.9388 -35.2777,-9.64626 -56.2239,9.37066 -84.3359,14.05598 -28.112,4.68533 -28.6632,24.25349 -42.9948,36.38021 -14.3316,12.12673 -31.4193,55.67275 -47.1289,83.50912 -15.7096,27.83636 -21.4974,-8.26823 -32.2461,-12.40235 -10.7487,-4.13411 -29.7656,-22.59983 -44.6484,-33.89974 -14.8829,-11.2999 -58.9801,-28.11198 -88.4701,-42.16797 -29.49,-14.05598 -44.0972,1.65365 -66.1458,2.48047 -22.0486,0.82683 -25.3559,-40.2387 -38.0339,-60.35807 -12.6779,-20.11936 16.5365,-10.47308 24.8047,-15.70963 8.2682,-5.23656 55.1215,8.26823 82.6823,12.40234 27.5608,4.13411 20.395,-21.4974 30.5924,-32.24609 10.1975,-10.7487 -3.8585,-34.17535 -5.7877,-51.26302 -1.9293,-17.08768 -1.1024,-43.54601 -1.6537,-65.31901 -0.5512,-21.77301 4.961,-18.74132 7.4414,-28.11198 2.4805,-9.37066 18.1901,-14.88281 27.2852,-22.32422 9.0951,-7.44141 20.9462,0 31.4193,0 z"
       inkscape:path-effect="#path-effect3" /><path
       style="fill:#7fa9a3;fill-opacity:1;stroke:none;stroke-width:0.793747;stroke-linecap:butt;stroke-linejoin:miter;stroke-dasharray:none;stroke-opacity:1"
       d="m 9598.481,567.52148 c -45.6895,-15.72393 -91.4349,47.15105 -139.2798,40.34281 -46.1773,-6.56712 -71.7422,-70.39842 -118.1725,-74.87543 -29.0937,-2.80401 -52.5104,33.52866 -81.6952,31.90507 -33.0046,-1.83566 -57.4745,-32.89732 -87.7717,-46.10289 -58.5859,-25.53307 -127.9756,-99.57477 -180.862,-63.64954 -58.6242,39.82152 33.8488,155.37278 -8.2745,212.35663 -25.8842,35.02105 -105.0659,3.64757 -123.3059,43.19481 -24.2985,52.68302 11.383,135.55421 62.8673,162.29898 33.9283,17.62488 73.7707,15.29983 107.4785,31.3058 47.0138,22.32423 76.5987,91.52076 128.5799,88.57336 58.4283,-3.3155 83.0023,-83.95369 132.4473,-115.27365 26.9289,-17.05774 55.7654,-40.16662 87.586,-38.39028 65.2777,3.64731 106.0329,113.23643 169.6846,98.26786 44.9213,-10.56318 40.0383,-86.99482 76.3562,-115.46757 29.5243,-23.14809 92.0642,-3.05071 105.983,-37.88107 15.8619,-39.69606 -35.5959,-77.91564 -57.8114,-114.42008 -21.8431,-35.89291 -34.0675,-88.50665 -73.8098,-102.18481 z"
       id="path5"
       sodipodi:nodetypes="aaaaaaaasaaaaaaaaa" /><path
       style="mix-blend-mode:normal;fill:#b7cfcc;fill-opacity:1;stroke:none;stroke-width:0.283086px;stroke-linecap:butt;stroke-linejoin:miter;stroke-opacity:1;filter:url(#filter2)"
       d="m 7635.4064,556.28063 c 23.7753,3.24022 48.1982,7.25581 68.6263,19.84375 11.1241,6.85479 20.6185,15.99546 30.4268,24.62866 9.8083,8.63319 20.2293,16.94864 32.4117,21.67342 12.1169,4.69937 25.5519,5.59965 38.3677,3.44129 12.8158,-2.15836 25.0286,-7.29712 36.0464,-14.18999 8.9707,-5.6122 17.212,-12.39261 26.5375,-17.39307 4.6628,-2.50023 9.5997,-4.54793 14.7706,-5.66795 5.1709,-1.12001 10.5903,-1.29224 15.7427,-0.09 5.7494,1.34151 11.0229,4.36092 15.5065,8.2017 4.4837,3.84077 8.2159,8.48904 11.5272,13.37685 6.6224,9.77562 11.6846,20.63419 19.2683,29.68447 7.4466,8.88673 17.1957,15.7807 27.9485,20.11717 10.7527,4.33646 22.4856,6.13384 34.0633,5.51434 19.2126,-1.02803 37.8325,-8.72685 52.9166,-20.67057 6.8091,-5.39151 12.9275,-11.61538 19.7706,-16.96364 6.8431,-5.34827 14.6316,-9.88338 23.2242,-11.14834 6.5621,-0.96605 13.3601,0.0461 19.4874,2.58584 6.1274,2.53971 11.59,6.57531 16.066,11.47015 7.6494,8.36515 12.3116,18.97174 16.6484,29.44463 4.3368,10.47288 8.5763,21.18781 15.5977,30.08662 7.6551,9.70195 18.1506,16.66352 28.112,23.97786 5.2254,3.83682 10.4247,7.88963 14.2249,13.14167 1.9001,2.62602 3.4304,5.54016 4.3181,8.6576 0.8876,3.11743 1.1195,6.44359 0.4739,9.62 -0.9656,4.75076 -3.8871,8.99698 -7.7238,11.96038 -3.8367,2.96339 -8.5393,4.69379 -13.3382,5.38147 -9.5978,1.37534 -19.2748,-1.27934 -28.5474,-4.11268 -7.7282,-2.36145 -15.4681,-4.87801 -23.4893,-5.85923 -8.0212,-0.98122 -16.4595,-0.32904 -23.6396,3.37876 -5.7434,2.96587 -10.407,7.74921 -13.9762,13.13843 -3.5692,5.38923 -6.1095,11.39005 -8.348,17.45402 -5.3941,14.61186 -9.1677,29.91784 -9.9219,45.47526 -0.4488,9.25833 0.1413,18.7551 -2.7084,27.5754 -1.4248,4.41014 -3.7378,8.59912 -7.1124,11.77578 -3.3747,3.17666 -7.8688,5.2756 -12.5034,5.29726 -4.9313,0.023 -9.6495,-2.2698 -13.4377,-5.42705 -3.7881,-3.15726 -6.7766,-7.1478 -9.7133,-11.10941 -16.2235,-21.88577 -32.4079,-44.51463 -54.5703,-60.35807 -30.2209,-21.60424 -68.6881,-28.41803 -105.8334,-28.9388 -28.7097,-0.4025 -57.9519,2.72939 -84.3359,14.05598 -17.6027,7.55681 -34.236,19.34366 -42.9948,36.38021 -7.7889,15.15002 -8.6305,32.82431 -13.5546,49.13206 -2.4621,8.15387 -6.0401,16.11422 -11.6502,22.52314 -5.6101,6.40892 -13.4349,11.15985 -21.9241,11.85392 -5.8615,0.47923 -11.758,-0.9698 -17.135,-3.3519 -5.3769,-2.3821 -10.2958,-5.67417 -15.1111,-9.05045 -15.302,-10.72909 -29.8597,-22.47353 -44.6484,-33.89974 -13.134,-10.14771 -26.5236,-20.09221 -41.1815,-27.87838 -14.6578,-7.78616 -30.7157,-13.38674 -47.2886,-14.28959 -22.0858,-1.20318 -44.2959,5.91744 -66.1458,2.48047 -13.9157,-2.18892 -27.4909,-9.07205 -35.6318,-20.56822 -4.0705,-5.74808 -6.6989,-12.55833 -7.2286,-19.58176 -0.5297,-7.02343 1.0851,-14.24059 4.8265,-20.20809 5.3586,-8.54686 14.8485,-14.08595 24.8047,-15.70963 6.9626,-1.13547 14.1197,-0.49689 21.0171,0.98419 6.8973,1.48108 13.5844,3.7903 20.2743,6.02916 6.6899,2.23886 13.4293,4.41968 20.379,5.63143 6.9497,1.21175 14.1586,1.43068 21.0119,-0.24244 7.5837,-1.85144 14.5604,-6.0272 19.894,-11.7275 5.3337,-5.70029 9.0229,-12.89404 10.6984,-20.51859 1.8614,-8.47041 1.2668,-17.30701 -0.2242,-25.85039 -1.4911,-8.54339 -3.8614,-16.90878 -5.5635,-25.41263 -4.2927,-21.4471 -4.2848,-43.60536 -1.6537,-65.31901 1.1726,-9.67736 2.9217,-19.47495 7.4414,-28.11198 5.607,-10.71468 15.6042,-19.19415 27.2852,-22.32422 10.1871,-2.72975 20.9694,-1.42416 31.4193,0 z"
       id="path6"
       transform="matrix(0.93463865,0,0,0.93463865,2004.4912,33.134245)"
       inkscape:original-d="m 7635.4064,556.28063 c 10.4731,0 45.7508,13.22917 68.6263,19.84375 22.8754,6.61458 41.8923,30.86806 62.8385,46.30208 20.9462,15.43403 49.6094,-7.1658 74.4141,-10.7487 24.8047,-3.5829 38.0338,-15.43402 57.0508,-23.15104 19.0169,-7.71701 30.868,34.17535 46.302,51.26302 15.4341,17.08768 41.3412,17.08768 62.0118,25.63151 20.6705,8.54384 35.2777,-13.78038 52.9166,-20.67057 17.6389,-6.89019 28.6632,-18.74132 42.9948,-28.11198 14.3316,-9.37066 23.7023,9.37066 35.5534,14.05599 11.8511,4.68533 21.4974,39.6875 32.2461,59.53125 10.7487,19.84375 18.7413,15.98524 28.112,23.97786 9.3706,7.99262 12.6779,20.94619 19.0169,31.41927 6.339,10.47309 -33.0729,8.81944 -49.6094,13.22917 -16.5364,4.40973 -31.4192,-1.65364 -47.1289,-2.48047 -15.7096,-0.82682 -14.8828,20.39496 -22.3242,30.59245 -7.4414,10.19749 -6.6146,30.31683 -9.9219,45.47526 -3.3073,15.15843 -14.8828,29.76562 -22.3242,44.64844 -7.4414,14.88281 -15.434,-11.02432 -23.151,-16.53646 -7.7171,-5.51214 -36.3802,-40.23871 -54.5703,-60.35807 -18.1902,-20.11937 -70.5556,-19.29255 -105.8334,-28.9388 -35.2777,-9.64626 -56.2239,9.37066 -84.3359,14.05598 -28.112,4.68533 -28.6632,24.25349 -42.9948,36.38021 -14.3316,12.12673 -31.4193,55.67275 -47.1289,83.50912 -15.7096,27.83636 -21.4974,-8.26823 -32.2461,-12.40235 -10.7487,-4.13411 -29.7656,-22.59983 -44.6484,-33.89974 -14.8829,-11.2999 -58.9801,-28.11198 -88.4701,-42.16797 -29.49,-14.05598 -44.0972,1.65365 -66.1458,2.48047 -22.0486,0.82683 -25.3559,-40.2387 -38.0339,-60.35807 -12.6779,-20.11936 16.5365,-10.47308 24.8047,-15.70963 8.2682,-5.23656 55.1215,8.26823 82.6823,12.40234 27.5608,4.13411 20.395,-21.4974 30.5924,-32.24609 10.1975,-10.7487 -3.8585,-34.17535 -5.7877,-51.26302 -1.9293,-17.08768 -1.1024,-43.54601 -1.6537,-65.31901 -0.5512,-21.77301 4.961,-18.74132 7.4414,-28.11198 2.4805,-9.37066 18.1901,-14.88281 27.2852,-22.32422 9.0951,-7.44141 20.9462,0 31.4193,0 z"
       inkscape:path-effect="#path-effect7" /><path
       style="fill:#b0cac5;fill-opacity:1;stroke:none;stroke-width:0.85366px;stroke-linecap:butt;stroke-linejoin:miter;stroke-opacity:1;filter:url(#filter7)"
       d="m 7635.4064,556.28063 c 23.7753,3.24022 48.1982,7.25581 68.6263,19.84375 11.1241,6.85479 20.6185,15.99546 30.4268,24.62866 9.8083,8.63319 20.2293,16.94864 32.4117,21.67342 12.1169,4.69937 25.5519,5.59965 38.3677,3.44129 12.8158,-2.15836 25.0286,-7.29712 36.0464,-14.18999 8.9707,-5.6122 17.212,-12.39261 26.5375,-17.39307 4.6628,-2.50023 9.5997,-4.54793 14.7706,-5.66795 5.1709,-1.12001 10.5903,-1.29224 15.7427,-0.09 5.7494,1.34151 11.0229,4.36092 15.5065,8.2017 4.4837,3.84077 8.2159,8.48904 11.5272,13.37685 6.6224,9.77562 11.6846,20.63419 19.2683,29.68447 7.4466,8.88673 17.1957,15.7807 27.9485,20.11717 10.7527,4.33646 22.4856,6.13384 34.0633,5.51434 19.2126,-1.02803 37.8325,-8.72685 52.9166,-20.67057 6.8091,-5.39151 12.9275,-11.61538 19.7706,-16.96364 6.8431,-5.34827 14.6316,-9.88338 23.2242,-11.14834 6.5621,-0.96605 13.3601,0.0461 19.4874,2.58584 6.1274,2.53971 11.59,6.57531 16.066,11.47015 7.6494,8.36515 12.3116,18.97174 16.6484,29.44463 4.3368,10.47288 8.5763,21.18781 15.5977,30.08662 7.6551,9.70195 18.1506,16.66352 28.112,23.97786 5.2254,3.83682 10.4247,7.88963 14.2249,13.14167 1.9001,2.62602 3.4304,5.54016 4.3181,8.6576 0.8876,3.11743 1.1195,6.44359 0.4739,9.62 -0.9656,4.75076 -3.8871,8.99698 -7.7238,11.96038 -3.8367,2.96339 -8.5393,4.69379 -13.3382,5.38147 -9.5978,1.37534 -19.2748,-1.27934 -28.5474,-4.11268 -7.7282,-2.36145 -15.4681,-4.87801 -23.4893,-5.85923 -8.0212,-0.98122 -16.4595,-0.32904 -23.6396,3.37876 -5.7434,2.96587 -10.407,7.74921 -13.9762,13.13843 -3.5692,5.38923 -6.1095,11.39005 -8.348,17.45402 -5.3941,14.61186 -9.1677,29.91784 -9.9219,45.47526 -0.4488,9.25833 0.1413,18.7551 -2.7084,27.5754 -1.4248,4.41014 -3.7378,8.59912 -7.1124,11.77578 -3.3747,3.17666 -7.8688,5.2756 -12.5034,5.29726 -4.9313,0.023 -9.6495,-2.2698 -13.4377,-5.42705 -3.7881,-3.15726 -6.7766,-7.1478 -9.7133,-11.10941 -16.2235,-21.88577 -32.4079,-44.51463 -54.5703,-60.35807 -30.2209,-21.60424 -68.6881,-28.41803 -105.8334,-28.9388 -28.7097,-0.4025 -57.9519,2.72939 -84.3359,14.05598 -17.6027,7.55681 -34.236,19.34366 -42.9948,36.38021 -7.7889,15.15002 -8.6305,32.82431 -13.5546,49.13206 -2.4621,8.15387 -6.0401,16.11422 -11.6502,22.52314 -5.6101,6.40892 -13.4349,11.15985 -21.9241,11.85392 -5.8615,0.47923 -11.758,-0.9698 -17.135,-3.3519 -5.3769,-2.3821 -10.2958,-5.67417 -15.1111,-9.05045 -15.302,-10.72909 -29.8597,-22.47353 -44.6484,-33.89974 -13.134,-10.14771 -26.5236,-20.09221 -41.1815,-27.87838 -14.6578,-7.78616 -30.7157,-13.38674 -47.2886,-14.28959 -22.0858,-1.20318 -44.2959,5.91744 -66.1458,2.48047 -13.9157,-2.18892 -27.4909,-9.07205 -35.6318,-20.56822 -4.0705,-5.74808 -6.6989,-12.55833 -7.2286,-19.58176 -0.5297,-7.02343 1.0851,-14.24059 4.8265,-20.20809 5.3586,-8.54686 14.8485,-14.08595 24.8047,-15.70963 6.9626,-1.13547 14.1197,-0.49689 21.0171,0.98419 6.8973,1.48108 13.5844,3.7903 20.2743,6.02916 6.6899,2.23886 13.4293,4.41968 20.379,5.63143 6.9497,1.21175 14.1586,1.43068 21.0119,-0.24244 7.5837,-1.85144 14.5604,-6.0272 19.894,-11.7275 5.3337,-5.70029 9.0229,-12.89404 10.6984,-20.51859 1.8614,-8.47041 1.2668,-17.30701 -0.2242,-25.85039 -1.4911,-8.54339 -3.8614,-16.90878 -5.5635,-25.41263 -4.2927,-21.4471 -4.2848,-43.60536 -1.6537,-65.31901 1.1726,-9.67736 2.9217,-19.47495 7.4414,-28.11198 5.607,-10.71468 15.6042,-19.19415 27.2852,-22.32422 10.1871,-2.72975 20.9694,-1.42416 31.4193,0 z"
       id="path1"
       transform="matrix(0.18394143,-0.04953173,0.13829629,0.48500665,7534.3703,626.31018)"
       inkscape:original-d="m 7635.4064,556.28063 c 10.4731,0 45.7508,13.22917 68.6263,19.84375 22.8754,6.61458 41.8923,30.86806 62.8385,46.30208 20.9462,15.43403 49.6094,-7.1658 74.4141,-10.7487 24.8047,-3.5829 38.0338,-15.43402 57.0508,-23.15104 19.0169,-7.71701 30.868,34.17535 46.302,51.26302 15.4341,17.08768 41.3412,17.08768 62.0118,25.63151 20.6705,8.54384 35.2777,-13.78038 52.9166,-20.67057 17.6389,-6.89019 28.6632,-18.74132 42.9948,-28.11198 14.3316,-9.37066 23.7023,9.37066 35.5534,14.05599 11.8511,4.68533 21.4974,39.6875 32.2461,59.53125 10.7487,19.84375 18.7413,15.98524 28.112,23.97786 9.3706,7.99262 12.6779,20.94619 19.0169,31.41927 6.339,10.47309 -33.0729,8.81944 -49.6094,13.22917 -16.5364,4.40973 -31.4192,-1.65364 -47.1289,-2.48047 -15.7096,-0.82682 -14.8828,20.39496 -22.3242,30.59245 -7.4414,10.19749 -6.6146,30.31683 -9.9219,45.47526 -3.3073,15.15843 -14.8828,29.76562 -22.3242,44.64844 -7.4414,14.88281 -15.434,-11.02432 -23.151,-16.53646 -7.7171,-5.51214 -36.3802,-40.23871 -54.5703,-60.35807 -18.1902,-20.11937 -70.5556,-19.29255 -105.8334,-28.9388 -35.2777,-9.64626 -56.2239,9.37066 -84.3359,14.05598 -28.112,4.68533 -28.6632,24.25349 -42.9948,36.38021 -14.3316,12.12673 -31.4193,55.67275 -47.1289,83.50912 -15.7096,27.83636 -21.4974,-8.26823 -32.2461,-12.40235 -10.7487,-4.13411 -29.7656,-22.59983 -44.6484,-33.89974 -14.8829,-11.2999 -58.9801,-28.11198 -88.4701,-42.16797 -29.49,-14.05598 -44.0972,1.65365 -66.1458,2.48047 -22.0486,0.82683 -25.3559,-40.2387 -38.0339,-60.35807 -12.6779,-20.11936 16.5365,-10.47308 24.8047,-15.70963 8.2682,-5.23656 55.1215,8.26823 82.6823,12.40234 27.5608,4.13411 20.395,-21.4974 30.5924,-32.24609 10.1975,-10.7487 -3.8585,-34.17535 -5.7877,-51.26302 -1.9293,-17.08768 -1.1024,-43.54601 -1.6537,-65.31901 -0.5512,-21.77301 4.961,-18.74132 7.4414,-28.11198 2.4805,-9.37066 18.1901,-14.88281 27.2852,-22.32422 9.0951,-7.44141 20.9462,0 31.4193,0 z"
       inkscape:path-effect="#path-effect1" /><path
       style="mix-blend-mode:normal;fill:#74a39d;fill-opacity:1;stroke:none;stroke-width:0.538383px;stroke-linecap:butt;stroke-linejoin:miter;stroke-opacity:1;filter:url(#filter8)"
       d="m 7635.4064,556.28063 c 23.7753,3.24022 48.1982,7.25581 68.6263,19.84375 11.1241,6.85479 20.6185,15.99546 30.4268,24.62866 9.8083,8.63319 20.2293,16.94864 32.4117,21.67342 12.1169,4.69937 25.5519,5.59965 38.3677,3.44129 12.8158,-2.15836 25.0286,-7.29712 36.0464,-14.18999 8.9707,-5.6122 17.212,-12.39261 26.5375,-17.39307 4.6628,-2.50023 9.5997,-4.54793 14.7706,-5.66795 5.1709,-1.12001 10.5903,-1.29224 15.7427,-0.09 5.7494,1.34151 11.0229,4.36092 15.5065,8.2017 4.4837,3.84077 8.2159,8.48904 11.5272,13.37685 6.6224,9.77562 11.6846,20.63419 19.2683,29.68447 7.4466,8.88673 17.1957,15.7807 27.9485,20.11717 10.7527,4.33646 22.4856,6.13384 34.0633,5.51434 19.2126,-1.02803 37.8325,-8.72685 52.9166,-20.67057 6.8091,-5.39151 12.9275,-11.61538 19.7706,-16.96364 6.8431,-5.34827 14.6316,-9.88338 23.2242,-11.14834 6.5621,-0.96605 13.3601,0.0461 19.4874,2.58584 6.1274,2.53971 11.59,6.57531 16.066,11.47015 7.6494,8.36515 12.3116,18.97174 16.6484,29.44463 4.3368,10.47288 8.5763,21.18781 15.5977,30.08662 7.6551,9.70195 18.1506,16.66352 28.112,23.97786 5.2254,3.83682 10.4247,7.88963 14.2249,13.14167 1.9001,2.62602 3.4304,5.54016 4.3181,8.6576 0.8876,3.11743 1.1195,6.44359 0.4739,9.62 -0.9656,4.75076 -3.8871,8.99698 -7.7238,11.96038 -3.8367,2.96339 -8.5393,4.69379 -13.3382,5.38147 -9.5978,1.37534 -19.2748,-1.27934 -28.5474,-4.11268 -7.7282,-2.36145 -15.4681,-4.87801 -23.4893,-5.85923 -8.0212,-0.98122 -16.4595,-0.32904 -23.6396,3.37876 -5.7434,2.96587 -10.407,7.74921 -13.9762,13.13843 -3.5692,5.38923 -6.1095,11.39005 -8.348,17.45402 -5.3941,14.61186 -9.1677,29.91784 -9.9219,45.47526 -0.4488,9.25833 0.1413,18.7551 -2.7084,27.5754 -1.4248,4.41014 -3.7378,8.59912 -7.1124,11.77578 -3.3747,3.17666 -7.8688,5.2756 -12.5034,5.29726 -4.9313,0.023 -9.6495,-2.2698 -13.4377,-5.42705 -3.7881,-3.15726 -6.7766,-7.1478 -9.7133,-11.10941 -16.2235,-21.88577 -32.4079,-44.51463 -54.5703,-60.35807 -30.2209,-21.60424 -68.6881,-28.41803 -105.8334,-28.9388 -28.7097,-0.4025 -57.9519,2.72939 -84.3359,14.05598 -17.6027,7.55681 -34.236,19.34366 -42.9948,36.38021 -7.7889,15.15002 -8.6305,32.82431 -13.5546,49.13206 -2.4621,8.15387 -6.0401,16.11422 -11.6502,22.52314 -5.6101,6.40892 -13.4349,11.15985 -21.9241,11.85392 -5.8615,0.47923 -11.758,-0.9698 -17.135,-3.3519 -5.3769,-2.3821 -10.2958,-5.67417 -15.1111,-9.05045 -15.302,-10.72909 -29.8597,-22.47353 -44.6484,-33.89974 -13.134,-10.14771 -26.5236,-20.09221 -41.1815,-27.87838 -14.6578,-7.78616 -30.7157,-13.38674 -47.2886,-14.28959 -22.0858,-1.20318 -44.2959,5.91744 -66.1458,2.48047 -13.9157,-2.18892 -27.4909,-9.07205 -35.6318,-20.56822 -4.0705,-5.74808 -6.6989,-12.55833 -7.2286,-19.58176 -0.5297,-7.02343 1.0851,-14.24059 4.8265,-20.20809 5.3586,-8.54686 14.8485,-14.08595 24.8047,-15.70963 6.9626,-1.13547 14.1197,-0.49689 21.0171,0.98419 6.8973,1.48108 13.5844,3.7903 20.2743,6.02916 6.6899,2.23886 13.4293,4.41968 20.379,5.63143 6.9497,1.21175 14.1586,1.43068 21.0119,-0.24244 7.5837,-1.85144 14.5604,-6.0272 19.894,-11.7275 5.3337,-5.70029 9.0229,-12.89404 10.6984,-20.51859 1.8614,-8.47041 1.2668,-17.30701 -0.2242,-25.85039 -1.4911,-8.54339 -3.8614,-16.90878 -5.5635,-25.41263 -4.2927,-21.4471 -4.2848,-43.60536 -1.6537,-65.31901 1.1726,-9.67736 2.9217,-19.47495 7.4414,-28.11198 5.607,-10.71468 15.6042,-19.19415 27.2852,-22.32422 10.1871,-2.72975 20.9694,-1.42416 31.4193,0 z"
       id="path3"
       transform="matrix(0.63744292,-0.05023555,0.03213491,0.37634579,4172.255,758.41522)"
       inkscape:original-d="m 7635.4064,556.28063 c 10.4731,0 45.7508,13.22917 68.6263,19.84375 22.8754,6.61458 41.8923,30.86806 62.8385,46.30208 20.9462,15.43403 49.6094,-7.1658 74.4141,-10.7487 24.8047,-3.5829 38.0338,-15.43402 57.0508,-23.15104 19.0169,-7.71701 30.868,34.17535 46.302,51.26302 15.4341,17.08768 41.3412,17.08768 62.0118,25.63151 20.6705,8.54384 35.2777,-13.78038 52.9166,-20.67057 17.6389,-6.89019 28.6632,-18.74132 42.9948,-28.11198 14.3316,-9.37066 23.7023,9.37066 35.5534,14.05599 11.8511,4.68533 21.4974,39.6875 32.2461,59.53125 10.7487,19.84375 18.7413,15.98524 28.112,23.97786 9.3706,7.99262 12.6779,20.94619 19.0169,31.41927 6.339,10.47309 -33.0729,8.81944 -49.6094,13.22917 -16.5364,4.40973 -31.4192,-1.65364 -47.1289,-2.48047 -15.7096,-0.82682 -14.8828,20.39496 -22.3242,30.59245 -7.4414,10.19749 -6.6146,30.31683 -9.9219,45.47526 -3.3073,15.15843 -14.8828,29.76562 -22.3242,44.64844 -7.4414,14.88281 -15.434,-11.02432 -23.151,-16.53646 -7.7171,-5.51214 -36.3802,-40.23871 -54.5703,-60.35807 -18.1902,-20.11937 -70.5556,-19.29255 -105.8334,-28.9388 -35.2777,-9.64626 -56.2239,9.37066 -84.3359,14.05598 -28.112,4.68533 -28.6632,24.25349 -42.9948,36.38021 -14.3316,12.12673 -31.4193,55.67275 -47.1289,83.50912 -15.7096,27.83636 -21.4974,-8.26823 -32.2461,-12.40235 -10.7487,-4.13411 -29.7656,-22.59983 -44.6484,-33.89974 -14.8829,-11.2999 -58.9801,-28.11198 -88.4701,-42.16797 -29.49,-14.05598 -44.0972,1.65365 -66.1458,2.48047 -22.0486,0.82683 -25.3559,-40.2387 -38.0339,-60.35807 -12.6779,-20.11936 16.5365,-10.47308 24.8047,-15.70963 8.2682,-5.23656 55.1215,8.26823 82.6823,12.40234 27.5608,4.13411 20.395,-21.4974 30.5924,-32.24609 10.1975,-10.7487 -3.8585,-34.17535 -5.7877,-51.26302 -1.9293,-17.08768 -1.1024,-43.54601 -1.6537,-65.31901 -0.5512,-21.77301 4.961,-18.74132 7.4414,-28.11198 2.4805,-9.37066 18.1901,-14.88281 27.2852,-22.32422 9.0951,-7.44141 20.9462,0 31.4193,0 z"
       inkscape:path-effect="#path-effect5" /></g></svg>
